<svg viewBox="260 370 224 313" preserveAspectRatio="none" xmlns="http://www.w3.org/2000/svg" width="744.094" height="1052.362"><title>Vectorized Playing Cards 1.0</title><rect ry="10.63" rx="10.63" width="223.228" height="311.811" x="2466.968" y="483.937" fill="#fff" stroke="#000" stroke-width=".997" transform="translate(-512.47117,-136.72448) translate(-1694.0633,23.063255)"/><path d="M453.14 394.714l-163.195.082.982 262.015 163.78-.34c-1.27-87.36-1.39-174.553-1.566-261.756zm-19.253 2.205l17.212.086V497.83s-1.074-.032-.974-.738c.133-.945-.012-2.714-.674-3.458-.28-.314-.735-.807-.915-1.165-.452-.903-1.196-1.835-1.792-2.087-.296-.125-.64-.194-.684-.4-.04-.19-.137-.818-.263-1.396-.317-1.447-.598-1.4.322-2.84 3.19-4.99 4.418-9.58 4.014-14.13-.125-1.42-.482-3.262-.65-3.515-3.084 3.09-5.316 6.908-7.414 9.73-.467-4.03-.4-7.073-.468-10.304 1.647-.47 2.643-1.346 3.352-3.588 0 0 1.765 1.382 2.846 1.185l-.712-2.604c4.72-1.448 5.367-7.61-.21-8.91l.503-3.245s-1.682.563-2.42.924c-.37.154-.46.03-.72-.502-2.6-4.045-6.637-3.184-8.417.805l-2.177-.925c.236 1.104.518 2.223.318 3.328-4.568 2.034-3.44 7.6.207 8.33l-.316 2.6 2.745-.885c.4 1.223.194 1.93 2.387 3.305-.054 5.45-.142 8.858.03 13.7-2.86-2.927-5.62-4.96-10.456-6.452 0 0-.044 1.173.237 2.956.093.588.075.5-.202.5-.63-.014-3.463-4.57-3.463-4.57s-.33.004-.616.29c-.338.334.433.953 1.517 2.56 1.268 1.884 1.145 1.804.15 2.65-5.664 4.805-13.843 23.095-12.47 24.873-3.58.214-17.532 7.055-20.066 21.16-.15.636-.448 1.46-.448 1.46l-4.037-1.002c2.434-11.552 7.927-35.043 7.927-35.043s3.862-1.097 6.12-1.34l-.023-.91-5.317 1.238.255-2.013 5.02-.987-.016-.477-5.313.713.867-3.35s-11.924 1.75-16.195 1.622c.27 13.034-.76 23.862-.206 37.908l-5.83-3.533c-.518-9.78-.674-34.48-.674-34.48l-16.096-2.53.534 3.88c-13.344-5.287-26.73-10.154-36.587-20.493 6.07-4.657 16.196-9.275 16.196-9.275l-.332-.743c-24.9 12.837-34.15 21.755-46.66 32.82l-.337-91.47 67.96-.035-.227 16.682s-.088.432-.216.583c-.83 4.04 1.554 11.215 1.074 14.707.222 1.078.144 3.082.144 3.082-4.057 5.558-6.207 10.834-8.013 17.294-.7.277-1.73.848-2.457 1.045l-.207.88c1.592-.874 6.106-2.3 6.106-2.3 20.11 9.803 34.888 7.403 50.705.12-2.522 8.85 2.96 20.107 11.98 22.474 1.033.27 2.8.5 3.81.235 1.01-.29-2.273-7.804-3.727-8.085-4.357-1.888-6.152-6.323-5.687-11.41l-.722-1.212c-1.485 6.178 2.09 12.452 6.998 13.985l1.32 2.88c-8.897-2.67-12.685-11-9.724-19.235.052-5.14-3.278-7.412-4.806-9.626-7.736-2.952-9.174-10.116-7.82-15.907 3.6 1.532-2.428-5.085-2.428-5.085-2.652 5.745-3.76 13.01 2.307 20.37-3.925 5.2-8.986 9.316-14.645 12.83-8.27 4.315-14.473 1.407-18.468-8.15-2.4-5.736-3.258-11.456-3.246-17.446.014-3.71.056-3.822 1.445-3.193 1.305.59 4.137.675 5.827-.196 2.304-1.188 2.195-.465-.313 2.114-.682.7-1.41 1.334-1.41 1.468-.004.762 1.07.12 2.6-1.396.558-.554.97-1.087 1.146-1.08.2.01.182.724-.05 1.494-.087.296-.368 1.546-.625 2.774-.256 1.228-.608 2.67-.78 3.207-.68 2.13-.495 3.117 1.547 4.1 1.077.52 2.92 2.286 2.903 2.286 0 0-.44-1.936-.277-2.558.197-.75 1.087-.22 1.994.214 2.004.957 3.17.984 4.246.086 1.485-1.24 1.06-4.022-.775-4.748-1.346-.533-1.582-.04-.238.897 2.016 1.407-.257 3.58-1.97 2.232-1.338-1.053-3.663-1.17-3.923-.294-.245.83-.498.68-1.425.137-1.442-.842-1.454-.99-.247-5.634 2.286-8.795 2.062-12.025-.968-14.697-2.243-1.978-5.947-2.896-9.79-.698V409.2c5.64-2.255 9.746-5.985 13.055-12.228h.645c3.296 7.135 8.622 12.26 18.642 16.018 3.915 3.865-4.962-11.103-2.128-4.975-5.318-2.06-10.058-6.05-12.667-11.043h1.45c1.527 2.207 4.622 6.234 10.132 9.015.5.42.983-.014.983-.014s-4.623-7.243-5.38-8.967l46.187-.327c-1.465 11.248-3.53 23.472 4.593 45.38-3.81-2-19.084 2.26-16.395 3.104 1.35-1.558 11.083-3.857 18.285-2.158-.596-.514-10.983-24.617-4.94-46.087zm4.94 46.086c.014.01.027.017.03.005-.01 0-.02-.002-.03-.004zm-35.683 43.41l.043 1.762.366-.087-.212-1.713zm-41.7-89.444h2.027c-.444.916-1.094 1.603-2.084 2.167zm3.487 0h2.182c-1.7 2.705-3.506 4.344-5.687 5.625l.038-2.12c1.26-1.103 2.464-2.246 3.468-3.505zm3.608 0h2.013c-2.732 4.197-5.535 7.015-9.125 8.8v-1.716c2.217-1.724 5.36-4.258 7.113-7.084zm3.072 0h1.628c-2.8 5.332-6.702 9.014-11.813 11.062v-1.28c5.598-2.984 8.047-6.314 10.185-9.782zm4.45 0h1.955c2.682 5.33 8.255 10.374 14.375 12.584l.934 2.162c-8.067-2.896-13.41-7.12-17.264-14.746zm5.658 0h1.397c1.468 2.047 3.247 3.71 5.326 5.09l1.268 2.452c-2.806-1.888-5.94-4.18-7.99-7.542zm2.548 0l1.56.082 2.066 3.443c-1.376-.773-2.42-2.345-3.626-3.525zm-1.792 13.84c-2.14-.01-4.085.58-5.494 1.73-1.49 1.213-.394 2.535 1.748 1.54 3.647-1.693 7.838-.93 12.362 1.547 3.808 2.083 2.474-.09-1.08-2.41-2.435-1.61-5.11-2.396-7.536-2.407zm-17.202 2.73c3.07.026 6.585 1.385 6.67 3.185-2.035-1.703-6.126-2.53-10.05-.78-.3-.064-.343-1.132-.164-1.522.845-.624 2.15-.893 3.544-.882zm18.584 1.162c-1.94 0-3.716.507-4.536 1.6-.42.516-.53.572-.992.495-.903-.15-.852.37.178 1.8.5.693.418 1.482-.25 2.422-.767 1.08-.618 1.12 1.666 2.215 1.746.85 3.148 2.056 4.734 3.05 1.133.638 1.36.076.313-.767-.36-.29-1.424-1.05-2.38-1.67-1.62-1.056-2.81-2.12-1.522-1.648.59.187.743.264 1.392.376 1.67.36 3.318.562 4.72.28 1.004-.202 2.313-.867 3.39-1.797.275-.126.546.01 1.213.034 2.552.1 1.988-.65-1.676-2.648-3.625-1.978-6.47-2.34-8.788-1.252-.983.46-1.545.574-1.403.284.15-.303.422-.655.862-.91 3.747-2.243 6.76-.384 10.064 1.3 1.418.845 1.8 1.065 1.97.794.215-.345-1.58-1.623-3.993-2.83-1.412-.734-3.25-1.128-4.964-1.128zm-11.983 2.597c.634.25.35.974-.23.746-3.46-1.554-4.156-2.312-8.282-.873-1.362.475-1.902.055-.23-.662 3.646-1.524 6.29-.496 8.743.79zm-2.372 1.83c-.937 4.762-5.678 3.293-5.143.024l.872.004c.067 2.876 2.95 2.857 3.442.03zm27.57.01l1.277 2.73c-2.792 6.875.998 16.134 9.24 18.353 0 0 1.33 2.043 1.07 2.3-15.475-3.423-14.284-18.176-11.586-23.384zm-14.658.177l.433.024c1.337 3.32 3.278 1.413 3.655.01l.988.025c-.302 3.438-5.517 4.02-5.076-.058zm-11.93.097c.627-.073.84.867.666 1.04-.05.048-1.194 1.16-1.334.506-.205-.96.41-1.5.67-1.546zm-7.218.096c.053 0 .107.003.164.01.388.296.536 1.18.332 1.637-.23.24-1.16-.087-1.338-.443-.277-.52.048-1.21.842-1.204zm25.1.318c.305.012 1.146.375 1.064.78-.02.103-1.19.964-1.454.824-.508-.27.195-1.508.294-1.585.017-.013.052-.02.096-.02zm-6.838.15c.007-.003.016-.003.02 0 .09.066.837.53.2 1.39-.043.06-.89-.24-.904-.34-.07-.5.567-1.015.684-1.05zm18.752 6.028c-.19 3.953.842 7.79 5.158 10.253l-.93-1.696c-1.106-.88-3.424-3.396-3.135-6.39zm-38.757 7.065l.487 2.602c-2.375 3.946-4.178 7.824-5.673 12.357l-2.244.818c1.782-5.717 3.43-10.247 7.43-15.777zm.945 4.05l.636 2.236c-1.166 2.15-2.412 4.576-3.163 7.402l-2.48.915c1.116-3.744 2.748-7.38 5.008-10.552zm7.864.926c-.038 0-.074.004-.112.014-.026.44-.02 1.658.072 3.665.018.38.392.22 1.445-.318.92-.47.824-.543 1.715-.245 2.465.844 3.587.477 4.55.23 1.47-.38 2.07-.226 2.924.285.47.28 1.11.488 1.237.534.678.248.42-.05-.042-1.877-.52-2.054-.297-2.28-1.12-1.744-.18.116-.704.406-.99.44-.716.082-1.914-.797-2.63-.518-1.73.677-1.713.5-3.32.105-.803-.196-1.572.293-2.27.43-.398.05-.904-1.005-1.46-1zm29.433 1.064c2.923 2.68 5.928 3.6 9.188 4.614-.392 1.333-1.178 2.832-1.545 4.575-16.966 8.966-34.015 8.685-50.098.543l8.346-3.188c4.56 7.896 10.404 10.004 16.975 7.42 7.344-3.415 12.78-8.167 17.135-13.965zm-36.253 1.58l.722 1.936-1.074 2.918-2.046.828c.392-1.988 1.148-3.62 2.398-5.682zm15.333 2.244c-.508.024-1.275.366-3.024.375-.948.005-1.69-.08-2.057-.005-.762.154.128.494 1.834.982 1.707.486 3.79-.247 4.05-.987.064-.18-.16-.397-.804-.366zm-14.134.953l.447.983-.766.274zm45.108.554l1.267 2.886c-2.195 4.75-3.652 17.765 11 21.815l.64 1.865c-9.972.195-19.965-12.48-12.907-26.564zm-33.546.984c-1.432-.015-2.93.34-3.896 1.107-.873.69.194 1.127 1.33.574 1.47-.715 3.923-.656 5.364.246 1.1.75 1.676.62.94-.525-.58-.898-2.116-1.385-3.738-1.4zm63.967 3.24c3.83-.063 4.227 5.42 3.48 5.89.217-.072.87-.265 1.802-.24 2.806.073 4.27 1.624 4.43 3.88.163 2.275-1.564 3.54-4.083 3.415-.936-.047-1.58-.142-1.537.023.467 1.817-.097 4.556-2.505 5.24-.276.078-.67.464-.68.602-.18 2.882.642 12.78.642 12.78s4.513-7.584 5.528-8.735c1.987-2.712 2.346-2.47 2.35 2.037-.328 6.25-1.33 7.685-5.013 12.93-1.576 2.26-5.307 1.074-4.97 2.6.075.338.68.944 1.286 1.518.39.367.79.598 1.696.568 1.592-.053 2.212-.376 1.26 1.008-.75 1.096-3.396 1.323-3.694 1.892-.693 1.325-.22 1.032-1.404 2.196-.907.994-.59.487-.178 1.305.648 1.055.38 3.16-.265 4.58-.524 1.156-.466 1.98-.466 1.98.01.097 1.473-1.51 1.915-3.367.367-1.545.798-2.32.794-1.454-.005 1.09.185 2.574 1.17 3.14.778.447.89.894.76 1.444-.134.57.474 1.07 1.074 1.546.14.14.614.326.564.626-.16.95.225 2.066.917 2.248.31.153 2.274-.014 2.598-1.12-.03-.354-.003-1.805-.785-1.89-.552-.253-.495-.405.342-.904 1.252-.746 2.16-1.282 2.78-1.397.827-.112 1.622-1.01 1.622-1.01l.16 59.666c-7.427 7.602-15.566 15.166-26.3 22.602-6.238-5.198-13.053-10.46-20.29-14.4l-2.498-1.478.896-1.146-4.34-5.72 4.884-3.93 1.237 1.564-2.31 2.244 3.467 3.834 7.792-7.6-5.135-4.912 2.673-5.003 1.71.838-1.29 3.173 3.905 2.47 4.888-9.708-6.197-2.822 1.57-6.52 1.912.202-.636 4.695 4.83.96 1.964-11.073-7.09-1.266.603-6.314 1.98.024-.29 3.492 5.01.713.943-9.652-6.95-1.15.896-7.45 1.59.225-.31 4.594 5.1.872c.562-3.117 1.018-7.03 1.85-10.085l-6.568-2.447 2.326-6.255 1.478.515-1.29 3.39 4.85 2.062 4.088-8.067-5.712-4.04c1.28-2.123 2.558-4.14 4.387-5.86l1.122.977s-.41.37-1.045 1.247c-.77 1.064-1.01 1.6-.905 1.878.104.274 3.633 2.88 3.9 2.88.312 0 1.482-1.066 2.086-1.782.646-.766.984-.84 1.652-.36.133.094.325.284.462.447.16.192.225.354.24.476.017.12-.017.2-.047.25.056-.053.18-.146.443-.293.48-.267-.93-1.505-2.08-2.148-3.445-1.933-7.497-5.575-8.433-10.132-.343-2.046 4.947.415 8.59 4.045.553.55 2.607 2.538 2.607 2.538-.3-5.267-.73-10.618-.496-15.95l-.804-.558c-1.126-.785-1.56-2.072-1.66-3.362-.072-.89.692-1.344-1.05-1.285-3.627.033-5.726-3.38-3.526-6.298.786-1.092 4.13-1.626 4.127-1.6-.854-3.49 1.712-5.36 3.602-5.537zm-1.32 40.583c-.07.065-.04.065 0 0zm4.8-34.693l-.1.034c.035 0 .07-.014.1-.034zm-120.74 11.4c10.128 8.525 16.59 14.262 37.202 20.683l.51 3.053c-11.852-2.736-24.782-8.276-40.153-22.047zm-3.048 1.97c6.413 5.985 12.986 10.544 19.64 14.37l2.334 1.405-1.203 1.232 3.915 5.644-5.038 4.108-1.2-1.194 2.63-2.577-3.74-3.68-7.624 7.716 5.225 4.63-3.028 4.658-1.098-.496 1.608-3.246-4.854-2.648-5.428 9.973 6.91 3.146-1.56 6.12-1.613-.08.545-4.798-5.197-.92-1.748 11.207 6.685 1.05-.16 6.453-1.78-.03.124-3.645-5.278-.245-.472 9.405 6.496.843-.645 7.633-1.6-.41.18-4.956-4.95-.487-1.706 10.537 6.68 1.907-2.36 6.57-1.45-.795.95-3.39c-1.218-.53-4.642-1.955-4.642-1.955l-4.363 8.182 5.658 3.852-3.482 6.116-1.342-.9 2.403-3.57-4.7-2.95-2.677 3.655c-1.136-.988-3.18-2.357-3.958-3.275-.833-.758-1.467-.874-2.538-.62-.846.198-1.66.35-1.474.052.092-.148 1.698-1.228 4.15-2.784.687-.435 1.228-.815 1.22-1.204-.007-.29.37-.75.866-1.05.547-.33.425-.64.336-.982-.474-1.84-.175-4.71.752-6.64.62-1.294.814-1.526.41-1.528-1.195.153-2.65 4.48-2.93 5.697-.093-.095-.223-1.236-.307-1.674-.152-.793-.263-1.284-.9-1.436-.76-.18-.52-.545-.597-1.117-.126-.928-.564-1.516-1.358-1.844-.764-.317-.847-.445-.814-1.205 0-.598-.624-1.61-1.087-1.93l-2.65.933c-.207.7.07 1.606.507 1.936 1.33 1.252-.616 1.27-1.95 2.085-.36.232-.792.74-1.084.572-.847-.277-.78 2.253-1.613 1.936l.202-60.693c7.097-7.348 27.777-22.672 27.777-22.672zm107.266 10.733l1.02 1.132c-3.165 3.562-5.462 7.23-7.993 11.71-2.16 3.823-4.026 9.175-5.004 15.01-.753 3.574-.87 7.21-1.337 10.866-.476 3.933-.567 9.23-1.32 13.383-1.39 11.39-4.59 17.45-11.543 23.914-3.057 2.84-12.565 8.205-12.825 8.153l-2.253-.56c19.497-9.98 24.372-16.863 26.48-40.49.414-29.642 13.896-41.123 14.776-43.12zm1.917 1.984l1.045 1.008-5.692 8.037 5.61 3.954-2.225 5.195-1.7-.63 1.21-3.545-4.72-1.99-3.815 10.326 6.723 2.12-1.106 6.726-1.358-.366.004-4.584-4.99-1.016-1.448 11.533 7.348 1.02-.54 5.953-1.737-.12-.068-3.545-5.1-.27-1.165 9.998 7.238 1.228-1.31 7.103-1.54-.366.346-4.685-4.854-.64-2.808 9.593 6.097 3.072-3.002 6.15-1.285-.896 1.66-3.636-4.742-2.34-4.58 7.936 4.97 4.888-4.854 5.085-1.083-1.387 2.504-2.696-3.742-3.704-7.782 6.19 3.973 5.233-.467.66-4.104-1.647-1.965-2.596-2.35 1.03-1.853-.707c11.494-6.027 18.973-13.015 22.06-23.554 1.697-5.828 2.2-12.186 2.75-18.594.286-3.33.582-6.67 1.065-9.96.566-5.37 1.39-9.878 3.568-15.058 2.644-6.283 5.856-10.712 9.815-15.507zm-61.854 3.974l7.894 4.16-.115 2.765-7.297-3.656zm2.22.077l5.626.772.024 2.268zm-25.353.073l3.284 1.48 2.784 3.21 2.086-1.367 2.263.848c-7.152 3.675-13.497 8.073-18.44 15.66-5.507 8.456-6.12 19.526-6.823 30.21-1.175 14.738-3.703 25.09-13.5 37.038l-1.444-.91 5.288-8.4-5.962-3.852 2.716-4.965 1.373.472-1.064 2.962 4.932 2.6 3.78-10.586-6.954-2.167 1.166-6.62 1.748.153-.463 4.743 4.97.785 1.426-11.192-6.698-1.025.15-5.913 1.64.16-.008 3.596 5.283.284.41-10.21-6.57-.726.81-7.208 1.84.187-.425 4.324 5.057.722 2.397-9.333-6.57-2.966 3.546-6.304 1.594.732-1.628 3.492 4.555 2.22 4.777-7.3-5.076-4.875 4.984-5.215 1.224 1.2-2.707 3.11 3.752 3.467 7.425-6.23-3.627-5.453zm47.237.347l-.23 2.615-7.913 4.493-.004-2.562zm42.465.092l1.748 1.083-1.267 1.503-1.526-.963zm-45.793.37l-4.74 2.736v-2.72zm55.88 2.553c.25.005.476.06.652.173.475.31.407 1.078-.13 1.455-.703.49-2.624.457-2.814-.05-.274-.728 1.22-1.603 2.292-1.578zm-75.63 1.08l6.8 3.668-.024 2.586-6.545-3.598zm22.153.08l-.4 3.37-7.002 3.714-.058-2.924zm-33.894.063l2.79.708c-10.324 4.605-20.525 11.284-24.494 22.937-1.24 3.488-2.075 7.37-2.62 12.338-.255 5.242-.93 10.4-1.18 14.77-.503 8.9-3.432 20.95-13.55 33.755l-.97-.76c6.208-7.65 9.435-14.586 11.428-21.913 3.16-11.66 1.593-24.526 4.96-36.262 2.055-7.14 6.32-13.524 12.71-19.047 4.445-3.454 10.926-6.525 10.926-6.525zm4.686.978c.03-.002.045 0 .048.01 2.506 8.436 5.6 23.813 5.6 23.813-6.628-3.207-17.663-2.62-17.663-2.62s-6.21-8.01-7.412-8.67c4.966-6.696 18.48-12.488 19.427-12.534zm85.354 1.33c1.527-.05 1.417 2.27-.515 3.847-.986.805-1.443.692-2.17.048-.215-.287-.836-.492-1.29-.438-1.084-.004 1.056-2.243 2.96-3.168.394-.192.734-.28 1.016-.29zm-77.5 1.887l6.064 3.11.057 2.562-5.61-3.043zm20.554.346l-.327 2.816L383 499.99l.033-2.595zm59.08 1.05c.21-.02.372.06.525.23.86.96-.775 3.863-2.63 4.734-.712.335-1.15.28-1.743-.23-.288-.25-.714-.575-.958-.55-1.062.11-.476-1.08.38-1.15.236-.02 1.722-1.132 2.846-2.067.754-.627 1.23-.936 1.58-.968zm-6.415 1.13c1.34-.032 1.828 1.084.24 1.57-1.13.347-1.76.1-1.757-.66.238-.78.92-.87 1.517-.91zm-72.385 1.508l5.38 2.697.023 2.764-4.94-2.577zm19.248.38l-.375 2.616L383 503.55l.014-2.163zm60.722 1.1c.366.02.475.43.472 1.154-.005 1.2-.8 2.31-1.994 2.85-.874.398-1.49.367-1.926-.1-.198-.213-.475-.384-.617-.39-1.87-.074-1.57-.556.222-1.305.63-.264 1.87-1.122 2.456-1.54.66-.473 1.102-.688 1.387-.67zm-6.867.85c.918.004 1.726.652 1.218 1.07-.394.325-1.874.482-2.166.188-.554-.56-.06-1.26.95-1.257zm-72.212 1.86l4.585 2.47-.024 2.63-4.376-2.476zm17.588.202l-.106 2.692-5.264 2.596-.034-2.567zm56.633 1.117c.89.064.78.926.06 1.344-.538.374-1.234.178-1.518-.26-.64-1.215.814-1.07 1.46-1.083zm1.787 2.762c.148.297.066.83-.226.997-.39.165-1.403-.007-1.56-.302-.128-.242-.098-.37.15-.616.415-.33 1.346-.576 1.637-.08zm-75.342.05l3.915 2.138-.024 2.58-3.597-2.09zm16.282.067l-.192 2.485-4.556 2.26.06-2.424zm-47.695 1.565c.977.012 1.73.662 1.156 1.772-.36.694-.63.95-2.19 2.052-.64.45-1.192.86-1.234.915-.043.055-.45.335-.718.52-1.4.97-.914-1.053.833-4.035.5-.854 1.393-1.232 2.152-1.223zm47.348 2.216l-.36 2.735-4.075 2.08v-2.634zm-15.318.255l3.294 1.632.048 2.663-2.99-1.57zm39.57.207c.106-.004.2.032.265.125.27.378.314 2.01.05 2.933-.462 1.086-1.36-1.654-1.258-2.35.19-.315.625-.695.943-.708zm-69.245.496c1.332-.025 2.295.885 1.844 2.234-.518 1.303-3.525 2.122-4.882 3.02-.887.44-1.102-.038-.828-.804.127-.355.224-.633-.453-.732-1.642-.242-.64-1.04 2.37-3.058.66-.442 1.344-.65 1.95-.66zm66.062.852c.472-.005 1.054.272 1.656.925 1.035 1.123 1.782 3.488 1.218 4.103-.432-.048-.646.59-.67.847-.065.745-1.424-.615-2.71-2.76-1.036-1.726-.534-3.103.505-3.115zm-55.483.4c4.06-.028 11.815.81 22.547 7.527 1.37.858 2.738 1.803 4.286 2.567 4.072 2.195 7.432 3.684 12.68 4.66l-.15 2.717c-.046.856 1.367 5.82.72 8.61-.964-.018.928.824.928.824l1.233 2.523s-6.442-.055-9.37-.63c-4.72-.768-13.33-4.767-17.49-7.913-4.325-3.17-10.854-5.807-16.452-6.83l-.077-2.335s-.555-7.998-1-9.093l-1.03-2.528c.25.1 1.33-.09 3.177-.102zm33.88 1.753l-.314 2.683-3.573 1.676v-2.298zm17.808.12c1 .004 2.514 1.174 4.242 3.512.39.527.69.984.747 1.3.052.292-.128.46-.414.424-.682-.123-.932-.37-1.123.477-.046.21.075.588-.158.52-1.215-.356-4.684-3.856-4.47-4.975.16-.84.575-1.258 1.175-1.257zm-31.823.18l2.605 1.386.116 2.644-2.316-.997zm-28 .804c.8-.026 1.298.29 1.552.91.613 1.496-.472 2.397-3.694 3.072-2.798.665-2.74.707-2.35-.332.26-.69-.605-.766-1.088-.95-.817-.307-.148-.403 2.2-1.573 1.477-.735 2.58-1.1 3.38-1.126zm-9.312.708c.08-.007.174.068.313.24 4.07 4.93 3.023 12.114-2.13 15.66-.584.388-.604.03-.538-.74l.1-1.464c.027-.29 5.918-3.908 1.56-11.953l.367-1.137c.117-.362.195-.595.328-.606zm66.48 1.53c1.608.007 6.116 4.098 4.196 4.244-.226.017-.15.31-.15.496s-.01.54-.062.674c-.14.357-.665.286-1.474-.193-2.05-1.214-2.517-1.6-3.226-2.273-1.397-1.32-1-2.954.717-2.947zm-15.876.704l-.03 2.206-3.21 1.555.018-1.994zm-40.708 1.584c2.162-.074 3.378 2.08 1.218 3.213-.863.452-3.705.135-5.027.02-1.493-.132-.61-.575-.53-.71.205-.336.364-.388-.414-.85-.618-.652-.972-.812.573-1.013.75-.097 2.57-.275 3.202-.48.34-.113.67-.17.978-.18zm65.807.525c.16-.007.142.257.077.944l-.106 1.473c-.984.157-5.876 6.238-1.902 13.31l-.332 1.258c-.153.622-.203.713-.718.328-2.978-2.058-3.944-12.536 2.225-16.87.402-.265.632-.437.756-.443zm-11.615 1.228c.575.01 1.278.173 2.085.54 1.88.855 3.128 1.546 3.42 2.003.18.282-.103.517-.483.626-.458.132-.514.324-.39.862 0 .313.08.658-.313.68-.724.038-2.344-.473-3.982-1.354-2.767-1.488-2.39-3.393-.337-3.357zm-14.053.034v2.682l-2.64-1.22zm-44.237 2.307c.28.007.65.057 1.136.135.595.093 1.518.185 1.994.177 3.008-.052 4.253 2.042 1.772 3.106-.678.29-.96.26-2.817-.28-.89-.257-1.978-.528-2.422-.654-.893-.255-1.203-.536-.61-.738.55-.188.598-.57.254-1.074-.083-.506.08-.69.694-.674zm69.89 0c-.425 4.154-.773 7.39-1.4 11.457-.458-.18-3.704-7.84 1.4-11.456zm-12.655 1.99c.98.017 2.63.393 4.238 1.025 1.405.516 1.583.654.612 1.068-.586.25-.514.474-.34.857.266.287.772.862-.026.746-.944.072-3.427-.068-4.184-.2-2.267-.4-2.885-2.442-1.026-3.39.15-.078.4-.113.727-.107zm-58.237 1.05c.21-.002.594.11 1.29.33 4.07 1.285 5.72 2.84 3.728 4.35-.578.437-1.475.25-3.17-.694-1.73-.967-2.6-1.496-2.922-1.84-.32-.34-.145-.73.347-.698.675.045.573-.294.52-.862-.04-.398-.063-.587.206-.587zm10.98.374l3.12.708-7.79 34.076c-2.66.768-4.195 1.098-6.064 2.105l5.39-.93-.47 2.437-4.89.92-.112.727 5.605-1.01s-.2 2.326-.394 3.226c5.35-.43 10.633-1.918 16.013-1.96 0 0 .13-26.892.11-29.824-.02-3.167.005-6.953.005-6.953l5.394 3.042.89 33.893 16.895 2.745c-.118-.57-.578-3.19-.578-3.19 12.524 3.69 25.223 9.15 36.463 20.433-5.23 2.83-10.174 5.637-15.256 8.358l-.737 1.06c12.887-6.02 32.476-18.534 46.622-32.366l.313 89.62-67.705.27s-.004-4.315-.005-8.384l.04-7.493c-.276-4.805.56-10.098-.91-14.13l-.29-4.223c4.173-4.853 6.427-10.973 8.418-17.226 0 0 2.008-.777 2.985-1.122l.338-1.228c-1.94.99-6.396 2.653-6.396 2.653.48-.373-9.47-4.562-15.617-5.546-10.14-1.624-23.784.05-34.66 5.442-.532.375-.76.366-.625-.12 2.525-9.185-2.795-18.403-12.13-21.075-1.982-.565-3.603-.562-3.603-.562l.168.804c15.258 1.72 18.837 17.84 12.963 25.33-1.54 2.472-1.774 3.193 1.458 3.11 13.064-.106 17.605 14.49 11.65 22.568.016-.063.483.94.483.94 3.713-4.9 4.702-14.212-1.878-20.756 4.863-5.423 14.2-14.103 22.277-13.595 2.94.184 5.84 3.742 7.772 6.582 4.09 6.014 5.142 14.41 5.432 19.2.07 1.255.238 2.167.24 2.827.007 1.916-.36 1.687-1.598 1.367-1.555-.4-3.688-.418-5.264.063-2.532.77-2.124.33.13-2.46 1.33-1.65 1.508-2.156.958-2.265-.168-.033-.73.532-1.468 1.667-2.224 3.42-2.05 2.016-.443-3.318 1.044-3.47.938-3.71-1.908-5.866-.942-.713-2.1-1.406-2.2-1.623-.538-1.138-.76.29-.28 1.228.47.917-.526 1.336-2.274.39-4.114-2.28-6.792 2.335-3.12 4.334.865.472 1.348.085.68-.534-2.26-2.09-.69-3.85 2.368-2 1.767 1.07 2.438.728 3.03-.61.326-.546 3.07 1.42 3.067 2.18 0 .5-.32 2.103-.63 3.175-.88 3.026-1.117 3.966-1.498 5.928-.69 3.558-.67 5.38.068 6.944 1.655 3.504 5.823 5.157 9.44 3.747.524-.205 1.53-.376 1.53-.376l.043 2.573c-7.128 2.7-12.278 11.126-12.044 11.413l-2.544.005c-3.375-6.7-9.313-11.744-16.86-14.533 0 0-.908-1.51-.096 1.247.05 1.107 1.216 2.667 2.158 3.212 3.585 1.823 8.328 5.054 10.946 10.07l-1.8.03c-2.197-3.35-5.042-5.61-7.74-7.58-.635-.134.462 6.07 3.053 7.984l-46.472.81c3.17-12.41 3.78-26.177-3.65-44.224 6.16.378 11.626-.944 16.633-3.13l-.452-1.286c-5.706 2.723-11.967 3.26-18.233 2.62 4.754 8.8 8.914 27.242 4.864 44.978l-17.057.092-.236-96.69s.667.608.876.818c.536.537.898 1.34 1.05 1.922.195.743.4.788 1.464 1.584.51.382.805.718.804.915-.03.218-.036.897.308 1.314.937 1.132.77 1.86.068 2.59-3.27 3.402-5.318 10.55-3.665 18.093 3.878-2.61 7.872-9.437 7.998-9.448l.376 9.322c-.345-.077-2.712 1.326-2.74 3.16-1.073.318-2.38-.215-3.468-.535l.784 2.746c-3.98 1.587-4.195 7.032.418 8.587 0 0-.42 2.13-.783 3.273l2.996-.457c1.74 5.197 8.42 3.533 8.388-.092 0 0 2.033.763 2.804 1.103l-.75-3.542c7.595-3.79 1.913-8.752.178-8.68.024-.99.478-1.303.895-2.457l-3.068.193c-.562-1.83-2.624-3.325-2.7-3.125l-.425-13.344c2.32 2.024 4.6 4.098 7.676 5.708 2.838 1.485 3.127 1.154 2.707-1.41-.19-1.16-.174-1.918-.174-1.918 1.066.25 3.752 3.74 3.623 5.46.98 1.28 1.87-2.162-.66-5.094 6.736-7.054 11.87-18.745 12.964-26.713l8.957-3.564.1-1.166c6.104-4.083 9.286-9.762 10.962-16.186zm7.455 2.085l2.062.92-2.34 1.16zm-19.86.564c.398.183 1 .578 1.826 1.185 1.752 1.284 2.774 2.168 2.807 2.947.017.384-.265.882-.707 1.116-1.06.56-2.07.102-4.36-2.24-.738-.756-1.233-1.16-1.458-1.497-.262-.393-.07-.763.366-.603 1.857.838.25-1.49 1.527-.91zm63.12.48c.382.003.684.012.872.05.496.1.64.38.333.655-.476.424-.34.854.14 1.083.33.157.195.49-.203.718-.233.133-.588.276-1.074.428-2.812.88-4.885.618-5.427-.692-.623-1.506.57-2.237 4.007-2.235.51 0 .972-.006 1.354-.005zm-40.948.897l-.024 2.018-2.918 1.4.318-2.045zm-24.806.63c.256.016.676.41 1.286 1.157 2.815 3.45 3.195 4.114 2.273 5.028-1.092 1.085-2.625.036-4.276-2.985-.223-.407-.494-.928-.656-1.118-.606-.708-.34-.93.43-.87.42.03.62-.117.63-.55.01-.457.113-.672.312-.66zm67.46 1.744c.512 0 .474.175.245.77-.175.53-.463.7.28 1.03.123.06.397.4.15.546-.588.397-3.21 1.592-4.16 1.907-1.846.613-2.982-.89-1.9-2.383.456-.626 3.576-1.76 5.13-1.86.097-.005.182-.01.255-.01zm-68.933 2c1.87 2.788 2.104 4.092.872 4.906-.78.594-2.443-.26-2.823-2.06-.29-1.38-.423-2.823.026-3.97.68-1.733 1.73.834 1.925 1.123zm26.265-1.157l.014 2.183-3.55 1.78.33-2.402zm7.233.088l3.34 2.162.19 1.86-3.447-1.898zm37.232 2.148c.088 0 .135.04.135.144-.002.257-.066 1.17.433 1.252.982.163.758.47-.1 1.21-.932.823-1.783 1.8-2.905 2.402-2.894 1.07-3.803-1.99-1.064-3.578.946-.55 1.803-.928 2.442-1.108.48-.135.867-.325 1.06-.322zm-37.14 1.122l3.868 2.278.135 2.292-3.843-1.955zm-7.46.212l.016 1.993-3.776 2.163.313-2.23zm15.628 1.627c1.07.5 14.792 4.31 19.335 3.01 0 0 3.89 5.606 6.767 7.614-4.455 6.537-19.538 12.946-19.538 12.946zm30.888.14c.25-.01.31.24.31.708-.062 1.356-2.29 6.35-4.066 3.79-.488-.953.008-1.94 1.565-3.116 1.235-.934 1.87-1.372 2.19-1.383zm-74.715.787c.34.37.186 1.506-.544 1.43-.212-.02-.24-1.175-.102-1.8.21-.103.528.248.645.37zm28.248.634l-.023 2.533-4.478 2.437.48-2.817zm7.408.356l4.435 2.364.52 2.798-4.917-2.547zm-7.416 3.443v2.553l-5.033 2.58.34-2.518zm7.503.222l4.96 2.82.65 2.66-5.538-2.86zm-70.31.08c.813-.01 1.105.855.49 1.407-.405.377-1.554.3-1.656 0-.52-.5.193-1.393 1.165-1.406zm1.517 2.702c.12-.008.233 0 .332.024.586.15.95.996.592 1.48-.662.89-2.407.272-2.152-.854.067-.298.707-.614 1.228-.65zm61.203.853v2.282l-5.476 2.89.346-2.553zm7.744.317l5.648 3.034.433 2.558-6.072-3.16zm-71.63.068c.272-.015.49.06.606.265.105.182.23.65.62.876.733.426.81.515-.58 1.123-.587.257-1.738 1.04-2.14 1.31-1.23.828-1.73.55-1.82-.428-.114-1.234 2.132-3.08 3.313-3.145zm4.237 1.868c.285-.016.562.038.76.17.47.31.496.933.044 1.246-1.033.66-2.65-.245-1.79-1.035.242-.223.62-.36.987-.382zm59.638 1.238l.03 2.962-6.107 3.22.404-3.004zm-62.657.347c.4-.023.783.07 1.117.318.362.462.797.598 1.05.607 1.047.04.714.423-.386.925-1.516.69-2.58 1.57-3.67 2.58-1.134 1.054-1.217 1.28-1.59.85-1.385-1.606 1.316-5.157 3.478-5.28zm70.502.034l6.4 3.5.55 2.957-6.95-3.867zm-66.298 2.085c.26-.006.502.056.693.212.455.37.192 1.088-.438 1.41-.536.275-1.42.16-1.67-.096-.606-.61.49-1.505 1.415-1.526zm-3.092 1.488c.39-.038.743.46 1.06.997.11.134.548.074.862.077 1.197.01 1.365.516.202 1.16-.34.19-1.455 1.042-2.2 1.676-2.01 1.92-3.1 1.47-2.842-.496.246-1.88 1.877-3.314 2.918-3.414zm69.39.183l7.06 3.872.69 3.183-7.75-4.175zm-7.792.058l-.03 2.933-6.644 3.516.515-2.977zm7.898 3.733l7.908 4.787.29 3.115-8.198-4.72zm-7.903.52l.015 2.875-7.35 3.727.372-2.716zm-59.657 1.902c.188-.004.364.024.51.092.86.396.636 1.08-.66 1.786-1.32.72-1.772.596-2.056-.212-.238-.678 1.192-1.64 2.206-1.665zm82.566.39c13.75 3.147 27.21 9.953 40.28 21.835l-2.732 1.93s-11.452-13.06-36.903-20.716zm-14.924 1.368l3.814 2.25.01.572-3.824-.313zm-64.98.024c.29.015.545.184 1.908.833 5.474 3.952 7.666 6.335 9.025 10.667.815 2.596.8 2.49-1.877 1.08-2.518-1.338-5.97-3.557-8.197-6.426-.37 6.75.42 15.142.42 15.142 3.418 1.685 2.312 6.072 2.302 6.045 8.8-2.4 6.87 9.21.315 6.706 1.563 8.71-8.412 8.002-7.39.536-7.94-.308-6.535-8.96.055-7.765-.686-2.67.26-4.478 2.69-5.624l-.37-11.403s-6.47 9.286-7.552 9.14c-.635-.085-1.59-1.15.02-9.294.837-4.24 5.332-9.402 7.85-9.57.444-.028.63-.075.803-.066zm6.33.087l1.16.794-1.094 1.95-1.208-.876zm50.627.558l-.04 1.71-3.562.212zm-39.075 19.302c-.534.014.902.35 1.81 1.165 8.387 1.298 13.517 11.556 9.637 18.983-.47.334.255 1.95.727 1.343 4.09-5.798 1.046-20.048-10.888-21.406-.708-.06-1.108-.09-1.286-.086zm3.17 3.896c-.675 1.848-.852 2.29.875 1.536 3.053 1.13 6.347 6.1 5.293 11.09-.34.583.253-.38.655 1.262 1.506-3.654.003-11.534-6.824-13.888zm38.76 9.3c8.585-.026 17.08 1.85 23.84 5.734-2.298 1.278-9.628 3.058-9.628 3.058-4.12-4.622-6.22-9.244-13.667-6.88-7.8 2.013-14.825 8.764-18.78 13.243-3.963-2.36-6.11-2.936-9.623-3.13-.204-.007-.505.887-.256-.555 1.006-1.55 1.7-3.304 2.37-5.076 7.367-4.188 16.607-6.368 25.745-6.395zm26.685 5.932c-1.71 5.53-3.917 10.978-7.662 15.776l-.462-2.398c3.522-5.407 5.19-10.323 5.943-12.478zm-3.323 1.435c.22.35-3.414 9.01-5.206 10.585l-.703-2.235c1.462-2.21 3.627-7.534 3.564-7.584zm-22.162.01c-.113.01-.153.11-.154.327-.003.795.826 1.42 2.335 1.763 2.04.462 4.9-.243 4.904-1.21.002-.557-.397-.598-1.565-.057-1.467.678-2.76.545-4.673-.467-.438-.232-.702-.37-.847-.356zm18.17 1.382c-.568 2.096-1.41 3.64-2.485 5.243l-.347-1.103c.744-1.2 1.234-2.575 1.864-3.91zm-2.134.678c-.275.73-.578 1.574-1.208 2.225l-.82-1.734zm-12.914 1.607c-1.382.026-2.75.47-2.87 1.206-.057.353.474.216 3.045-.097 1.357-.165 2.004.64 3.247.555.634-.075.042-.66-.155-.83-.693-.588-2.05-.856-3.268-.833zm-5.9 1.6c-.14.028.016.38.534 1.28.28.488.35 1.48.404 2.096-.067 1.53-.062 1.483.694.598.475-.472 1.4-.368 2.865.03.943.254 1.17.346 1.825-.065.76-.476.94-.236 1.593-.105.632.127 1.205-.126 1.898-.318.845-.233 1.007-.18 1.743 0 1.123.533.96.485 1.054-1.42.093-1.876-.008-2.01-1.094-1.377-1.05.612-1.776.89-3.39.327-1.76-.613-2.008-.458-3.255-.082-1.508.454-2.194.61-3.395-.125-.79-.483-1.322-.87-1.48-.838zm-24.576 2.832l.675 1.098c6.08 2.175 10.2 7.144 7.768 15.52l.578.925c3.043-8.44-.43-15.418-9.02-17.543zm1.883 3.573l.828 1.7c4.575 2.21 4.3 8.296 4.045 8.057l.717 1.584c1.145-3.937-.94-9.753-5.59-11.34zm19.108 9.078c-.18 0-.298.063-.347.187-.116.303.238.485 2.327 1.932 1.795 1.242 3.184 2.163 3.078 2.34-.07.12-1.187-.153-1.984-.39-2.088-.62-5.168.127-6.895 1.344-.44.295-1.168-.027-1.802-.192-.253-.072-.812-.14-1.088-.068-1.306.342-.042 1.59 3.154 3.208 3.922 1.985 6.044 2.167 8.427.963 1.582-.817 2.15-.21.42.723-3.023 1.63-5.917 1.126-10.692-2.157-2.212-1.52-3.096-1.267-1.194.183 3.337 2.607 9.76 5.788 13.7 1.9.155-.055.513-.03.685-.028.82.003.855-.255 0-1.608-.515-.816-1.557-1.674-.29-2.673.963-.756.893-1.116-.268-1.463-.307-.085-.276.117-.737-.255-2.79-2.25-5.52-3.95-6.492-3.944zm1.21 4.445c1.17.032 2.35.934 2.72 2.557.033.144.062.292.082.448l-.998.037c-.828-3.306-3.32-2.21-3.57-.274l-.898-.12c.33-1.842 1.49-2.68 2.663-2.647zm20.673 2.822l-.664.098c-.435-1.218-2.404-2.854-3.342.113l-.838-.033c.584-4.02 4.233-3.396 4.845-.178zm-5.095-1.67c.272.385-.205 1.035-.482 1.333-.265.284-.855.044-1.1-.237-.217-.275-.057-.827.302-1.01.373-.19 1.007-.362 1.28-.086zm-11.682.12c.28.623-.502 1.088-.6.877-.167-.058-.374-1.087-.278-1.155.258-.008.772.077.878.277zm17.563-.102c.42.034.88.233.963.708.004.315-.36.657-.776.675-.183.008-.884-.507-.753-1.24.15-.26.32-.163.566-.142zm-24.416.197c.148.226-.13.9-.193.992-.033.048-.93.01-.91-.058.02-.066-.083-.574.135-.943.25-.158.79-.242.968.01zm16.287 2.177c.116.003.264.05.438.16 2.508 1.63 5.733 2.36 8.057 1.193.52-.26.858-.246.857.005-.002.275-.577.84-1.648 1.16-2.393.72-6.344-.23-7.71-1.695-.402-.43-.343-.832.005-.823zm-21.994 1.71c-.24-.007-.316.134-.27.423.16.973 6.867 4.822 9.67 5.34 2.303.427 4.092.236 5.5-.582 3.42-1.986 2.543-4.673-.804-2.648-2.25 1.36-7.948.734-11.337-1.224-1.507-.87-2.36-1.298-2.76-1.31zm30.218 1.407c.85-.356 1.213-.48 1.4-.324.86.72-.552 1.846-3.128 2.284-2.06.34-3.3.405-5.65-1.335-1.822-1.348-.964-2 .082-1.39 2.78 1.627 4.848 1.68 7.297.764zm-29.62 4.208c5.934 2.125 12.684 7.25 15.68 13.474l-1.83-.014c-2.037-3.554-6.068-8.068-12.713-11.24-.59-.484-.895-1.35-1.136-2.22zm31.163 2.913v1.946c-3.667 1.85-6.74 4.693-9.058 8.616l-2.076-.03c2.377-4.208 5.94-8.15 11.133-10.53zm0 2.967v2.388c-2.318 1.36-4.253 3.152-5.61 5.206h-2.456c1.968-3.327 4.67-5.98 8.066-7.594zm-27.165 1.835c1.766 1.015 4.692 3.723 5.754 5.807l-.943.044c-.963-1.225-2.5-2.633-3.753-3.742-.8-.94-1.06-2.11-1.06-2.11zm27.165 1.53c.03 0 .03.02 0 .06v1.896c0 .05-1.76 1.2-2.51 2.273h-1.992c1.37-2.476 4.218-4.233 4.503-4.228zm.005 3.155l-.005 1.074-1.252.005c.084-.12.78-.887 1.258-1.078zm-24.435.27c.375.197.664.9.664.9l-.337.037z" fill="#131f67"/><path d="M307.74 611.36c4.127.113 12.837-1.43 12.697-1.272 0 0 27.02 44.896 25.923 44.45-.352.558-34.616.538-34.616.538-.743.01 7.27-16.636-4.004-43.716zm12.253-31.63c13.167-10.91 26.96-10.99 41.77-12.49l.34-37.077 5.36 3.208.113 33.972c19.55 1.466 36.417 8.625 50.908 21.158.18.272-20.965 11.578-30.226 14.57-7.19-5.278-26.16-8.605-38.74-4.547-3.455 1.114-7.697 2.898-11.824 4.216 2.99-17.9-10.988-20.542-15.904-21.37-.616-.102-1.35-1.427-1.797-1.64zm-16.9 5.788c.23-3.814-.02-7.63-.305-11.53-.075-.89-7.7 11.6-8.125 8.572-1.067-7.586 2.7-17.23 8.618-18.413.59-.798 12.314 6.458 11.78 12.728-.176 2.043-10.46-6.9-10.502-6.365-.242 1.045.303 15.04.62 15.01 2.963 1.667 2.318 3.807 2.64 5.58 7.937-1.17 7.503 7.632.014 7.358.462 10.398-9.195 5.7-7.293.16-9.726-.457-4.937-9.542-.094-7.545-.292-2.293.275-4.684 2.646-5.555zM314.25 541.4c-.56-.22-20.748-1.255-20.748-1.255l1.056-49.156c10.307-23.663 49.094-12.597 42.924-7.562-18.535 12.14-21.357 34.28-23.232 57.972zm37.234-20.193l-.616-5.458c-1.584-3.392 41.273 16.397 41.757 16.82l1.247 5.825c.247 2.558-27.26-10.368-42.388-17.188zm77.96-9.64c-.63 22.058-4.033 36.995-16.85 55.02-.356.592-3.98 2.093-4.26 2.602 1.832 2.895 12.29 7.144 17.12 9.428l25.13-14.963c.29.02-.86-52.418-.86-52.418zm9.51-23.954c-3.375-.515-11.232-8.66-9.603-11.122.05-1.848 9.775 5.228 10.786 7.134-.498-.566-.568-17.284-.725-16.62-.37.197-2.97-1.664-2.292-5.148-7.455 1.647-7.046-8.036-.53-7.64-.842-8.81 9.922-5.575 7.058.325 9.212-1.696 7.62 8.643.66 6.96.59 3.922-1.027 5.005-3.29 5.788.146 1.644.763 12.607.763 12.607s6.81-10.434 7.298-9.535c1.363 3.165-1.12 19.9-10.123 17.253zm-31.562-38.477c-3.073 10.59 5.348 22.69 13.303 22.656 1.6-.252 4.665.612 3.607 1.468-12.55 10.166-41.838 12.276-41.846 11.835.307 12.48-.253 25.083-.55 37.558l-5.368-3.23c-.172-11.38-.453-23.02-.714-34.4-18.766-2.447-35.632-8.498-48.96-21.37 8.85-6.555 19.423-10.65 29.58-14.79 12.785 6.64 30.588 10.477 50.948.273zm-9.26-50.317c-.59-.26 2.022-2.198 2.022-2.198s21.803.286 32.618.14c-3.94 16.17-1.153 30.656 3.936 44.568-1.35-.315-10.305.41-12.492 1.388-.35.353-25.81-43.504-26.085-43.9z" fill="#e2cf00"/><path d="M461.47 666.93c-.35-.992-.355-1.115-.434-10.174-.08-9.154-.042-10.157.454-12.057.948-2.37-1.822-2.38-3.577-2.664v-3.745c2.058-.284 4.537.313 5.446 1.518 2.137-1.48 3.52-1.726 5-1.668 4.97.02 7.154 3.09 7.02 9.016-.023.965.15 2.202.15 2.202h2.672v3.788h-2.81s.458 9.392-.18 12.713c-1.93 7.393-11.112 7.875-13.742 1.07zm10.124-1.334c.476-1.126.404-.656.423-9.276l-.013-3.94c-3.94-.91-7.424-5.63-7.4-5.63 0 0-.05-.453-.084 8.492-.04 10.137.32 10.725 2.466 12.366 2.085 1.178 3.8-.16 4.608-2.012zM466.09 642.8c1.2 1.684 2.69 3.407 4.46 4.797.663.52 1.59.727 1.59.727s-.047-1.14-.052-1.722c-.025-3.54-2.573-6.324-5.998-3.803zm-119.02 11.677l-26.362-44.497 3.955-1.718 27.177 46.28zm68.872-6.17c-9.896-1.56-12.68-14-5.407-25.702 3.44-5.676 17.85-26.8 17.003-26.095-.45-.395 11.073 16.35 16.833 24.94 5.457 9.058 8.358 23.857-5.046 26.575-5.133 1.04-10.47-2.047-10.708-8.042-.034-.84-.38-1.524-.87-1.526-.41-.002-.698.587-.7 1.167-.14 5.726-5.278 9.633-11.104 8.684zm46.402-14.64c-4.405-1.47-5.194-6.753-1.91-12.796 2.69-4.8 4.1-6.034 6.577-10.806 1.018-1.97 1.132-2.01 1.895-.665 1.844 3.046 3.86 6.362 5.507 8.94 4.316 6.726 5.076 11.418 2.305 14.25-2.513 2.57-7.833 1.078-7.86-2.204 0-.154-.076-.42-.166-.59-.2-.38-.603-.128-.607.385-.02 2.387-3.216 4.327-5.74 3.486zm-162.18-38.68l3.807-3.918 3.82 3.867-3.994 3.708zm84.574-24.955l-.536-3.18c15.188 3.718 27.62 11.522 36.558 20.022l-2.128 1.558c.663-.18-21.577-16.857-33.894-18.4zm-44.11-3.133l4.814-.7-.137 2.675-4.576 1.04zm88.9-2.114l-2.625-2.114 1.888-2.24 2.55 2.01zm-89.204-21.56c6.52-3.086 11.61-15.534 10.97-16.365l3.553.843-8.207 34.107-6.18 1.117c-.027-6.525-.138-13.18-.136-19.702zm42.907 19.297c-2.21-7.18-6.56-23.42-6.56-23.42.158.53 14.14 4.505 19.128 3.057 2.13 2.915 4.472 5.476 6.94 7.824-5.176 5.063-11.605 9.292-19.507 12.54zm58.613-26.137l-2.463-2.134 2.21-2.705 2.705 2.06zm-32.18-1.427c-2.007-3.606-2.147-7.682 1.577-11.7zm-76.514-6.988c-.16-.372.843-8.916 1.08-9.294.413-.665 1.224 1.732 1.608 3.563.48 2.297-2.107 7.095-2.69 5.732zm56.27-2.654s5.415-25.086 7.76-34.917l6.607-1.665-.892 20.598c-5.43 4.854-9.944 16.417-9.944 16.417zm-87.028-4.17l-2.614-2.442 2.212-2.42 2.306 2.36zm46.834-9.78l-7.183-8.402c4.45-6.187 11.836-9.77 19.662-12.58l5.3 23.574c-5.99-1.805-12.45-3.76-17.78-2.593zm-36.707-21.012l1.84-2.29 2.413 1.898-1.834 2.533zm86.466-7.082l4.623-.66-.35 3.17-4.893.78zm-75.282-17.825l2.845-1.77c9.99 8.966 21.022 15.152 33.055 18.67l.81 3.873c-13.57-4.182-26.39-10.52-36.71-20.774zm116.73-3.578l-3.7-3.648 3.332-3.703 3.956 3.42c-1.306 1.97-3.587 3.932-3.587 3.932zm-124.17-6.747c-4.585-7.08-9.867-14.598-14.02-20.79-6.89-10.306-8.754-17.29-6.584-23.612 3.555-10.357 18.73-9.812 19.834.713.226 2.15 1.242 1.968 1.52-.248 1.465-11.703 19.264-10.178 20.332 2.293 1.126 10.59-6.196 18.81-10.238 24.417-3.588 5.71-7.764 11.15-10.844 17.228zm-43.856-16.773c-3.002-5.02-11.212-16.363-3.342-19.858 2.795-1.24 6.366.973 6.357 3.337-.004 1.07.586 1.13.725.022.578-4.64 7.082-4.973 9.163-.487 1.78 5.34-1.432 10.207-5.934 17.065-1.033 1.574-3.42 5.855-3.42 5.855zm147.528 5.77l-27.693-47.235 4-.033 27.252 45.498zm-151.16-41.238h-2.83v-3.792h2.828s.023-2.038.104-5.64c.173-7.68.373-8.874 2.632-10.985 4.472-4.177 11.96-.773 11.87 5.507-.13 8.86-.033 17.313-.298 18.51-.467 2.108-.514 2.228-.322 2.61.388.777 3.773 1.11 3.773.893v3.733c-2.585.2-3.657-.038-5.724-1.49-1.29 1.225-5.22 2.448-8.343 1.007-2.375-1.096-4.18-3.934-3.692-10.353zm9.57 6.617c-1.404-1.994-3.763-4.71-5.99-5.67-.136 2.284.06 4.205.883 5.238 1.305 1.643 3.41 2.02 5.106.433zm1.164-21.89c-1.04-2.902-3.716-3.88-5.67-2.072-1.224 1.132-1.42 2.315-1.445 8.76l-.02 5.648c3.81 1.21 7.367 5.566 7.333 5.51l.095-12.023c.07-1.947-.025-3.902-.293-5.824z" fill="#d40000"/><path d="M391.99 396.09l-6.617.025 37.558 75.53s-1.016.17-3.008-.35c-9.02-2.368-14.58-11.896-12.54-21.243.207-.727.26-1.35.26-1.35-23.254 10.525-37.65 6.65-51.076-.052l-5.726 2.196c.38-3.458 4.658-16.443 11.057-22.557l-.01-6.55-.154-3.092-.506-5.61c-9.52 8.962-20.627 23.07-22.017 43.105 0 0-8.668 4.452-16.066 9.377.41-.055 11.524 13.59 38.223 21.252l-1.175-4.354c3.97 1.114 9.614 1.995 15.227 2.707l.75 34.196 6.377 3.777.216-37.862c.196.157 10.17-.35 15.54-1.632l-.755 3.65 5.307-1.045v2.663l-5.818 1.374-8.283 35.39 4.826 1.075c1.412-7.13 4.978-12.896 10.146-16.433l-.053-1.358c3.315-2.38 10.204-4.27 10.248-4.224 2.35-11.478 7.82-19.43 13.635-26.997l-2.77-3.762 10.62-3.896-14.742-25.076c5.672-3.914 16.918-2.456 16.918-2.456-4.82-13.012-9.056-26.434-4.295-46.13l-41 .034zm13.45.817c-.008 3.29-4.307 2.952-4.832-.017zm26.343-.103c-2.61 15.08-1.744 29.772 4.305 43.732 0 0-.88.05-.992.028-.084-.016.103-.752.058-.948-.12-.525-.99-.28-1.72.212-.317.213-.683.457-.914.573-.75.375-4.55.346-4.55.346 1.24-.84 2.984-3.2 1.972-4.58-.23-.293-.368-.164-.59.233-1.08 1.917-1.617 2.218-3.06 2.2-2.262-.028-3.88-1.43-3.698-3.545.177-2.054 3.2-3.14 2.755-1.146-.123 1.775 1.638 2.12 1.964.35.122-.662.025-.354.168-1.13 3.523-1.87 1.578-5.676-1.71-4.88-.772.205-.87.277-1.415-.004-1.014-.522-1.856-.358-2.24.375-.337.648.177 1.164.93 1.167.78.003.93.38.93.847-.005 1.09-1.885 1.614-3.13.978-3.29-1.678-2.07-6.04 1.747-6.024 1.16.004 1.646.077 1.695-.174.138-.704-1.634-1.922-2.635-1.743-.848.167-1.363.388-.915-.74.276-1.165.268-1.692.034-2.568-.61-1.25-.596-.61-.973.405-1.257 2.086-3.152 2.547-4.786 1.406-1.515-1.058-1.47-3.07-.03-4.503 1.002-.995 2.076-.318 1.475.795-.25.46-.054 1.032.394 1.146.904.232 1.464-.3 1.47-1.395-.02-.603-.187-.738.9-1.358 2.812-1.607.708-5.996-2.466-4.585-.697.31-.86.612-1.175.467-1.327-1.255-3.23.33-2.105 1.17.487.236 1.082.327 1.238.34.274.158.182.547-.217 1.037-1.315 1.55-4.3.784-5.005-1.402-.815-2.53 1.773-5.193 3.757-3.718.586.437 1.095.483 1.098-.163.003-1.006-1.264-2.16-2.88-2.047-1.64.116-1.462.327-.568-1.156.66-1.32.57-2.608-.005-3.384-.443-.598-.9-.724-.852-.092.36 1.963-1.934 3.83-3.82 3.005-1.81-.81-2.71-2.84-1.82-4.6.82-1.624 2.812-1.792 2.48-.057-.156 1.106.686 1.687 1.498 1.035.296-.237.365-.447.385-1.16.023-.795-.3-1.028.212-1.494 1.344-.178 1.427-3.03 1.223-3.15l21.58-.1zm-24.055.096c.852 0 1.56.29 1.56 1.14 0 .854-.688 1.542-1.54 1.542-.853 0-1.546-.688-1.546-1.54 0-.853.674-1.142 1.526-1.142zm-15.123.11h3.43l27.09 45.148-3.207 1.56zm5.634 1.58c1.64.937 3.156 1.707 5.215 1.908-.603 1.224-1.152 2.56-1.252 4.846zm5.517 9.09c1.67.6 3.122 1.506 5.876.59-1.468 1.3-2.3 2.853-2.922 4.49zm14.094 5.454c.79 0 1.43.64 1.43 1.43 0 .79-.64 1.426-1.43 1.426-.79 0-1.43-.636-1.43-1.426 0-.79.64-1.43 1.43-1.43zm-8.775 3.565c1.208.443 2.473.738 3.88.674-.696.955-.933 2.41-.978 4.072zm4.147 7.114c1.118.546 2.442 1.34 4.79 1.085-1.555 2.637-1.222 3.365-1.38 4.52zm13.576 5.24c.827 0 1.498.672 1.498 1.5 0 .826-.67 1.496-1.498 1.496-.827 0-1.497-.67-1.497-1.497 0-.827.67-1.498 1.498-1.498zm-8.414 3.364c1.024.58 3.046.91 3.07.752-.13-.097-.584 1.95-.662 3.237zm4.715 7.69c1.454.86 3.065.777 4.012.878-1.013.203-1.967.456-3.054.883zm17.165 8.443c-3.506.227-4.32 2.916-3.904 5.64-2.672-.427-5.665 2.107-4.828 5.207.793 2.94 3.526 3.042 5.412 2.845-.145.715-.542 3.116 2.36 5.147l.385 15.257s-1.28-1.174-2.114-2.006c-3.645-3.63-9.128-6.26-8.784-4.213.05.3.167 1.065.255 1.695.58 3.455 5.22 7.19 8.385 9.07 1.13.63 1.83 1.304 1.83 1.304-5.92 6.327-9.1 13.078-9.892 19.778-.736 6.225-1.33 11.832-1.917 17.548-2.415 28.674-14.72 35.886-15.304 37.29l-.232 3.822-3.434-.255-3.958 3.423c12.966 6.7 20.53 14.785 20.423 14.94 10.352-6.78 19.288-14.31 27.723-22.106l-.163-63.842s-.7.256-.882.255c-.64-.002-.72.286-.943 1.508-.12.653-.51 1.256-.814 1.685-.58.816-.372.403.357.698 1.66.673-.496 3.718-2.856 4.09-1.698.268-2.648.58-2.936.973-3.578 3.13-7.143 3.626-9.84 2.475-1.325-.566-2.767-1.393-3.254-2.774-1.107-3.134 1.2-7.65 2.552-10.257 2.48-4.783 6.602-8.375 6.602-8.375l-.674-.732s.81.012.963-.043c3.557-1.293 3.777-1.312 4.43-2.254.655-.943 2.304-3.632 2.645-4.517 1.828-4.755 2.074-5.063 2.07-8.182-.003-2.527-.17-4.215-.66-4.35-2.8 2.15-5.63 7.167-7.285 10.124-.572-4.38-.742-12.03-.742-12.03.594-.655 3.96-.288 3.213-5.774 2.962 1.336 6.083-.708 5.952-3.56-.203-4.44-3.625-4.31-6.41-3.75 1.327-2.682-1.195-5.916-3.73-5.753zm-.054.375c3.66.113 4.387 4.157 2.144 6.447 0 0-1.453-1.12-2.224-1.756-.732.576-.943 1.073-1.748 1.665-.953-.703-1.53-1.95-1.537-3.15.044-1.875 1.936-3.25 3.366-3.205zm-83.61.125c14.81 8.276 33.378 8.868 50.377.433l-.207 1.402-1.864 1.05 1.055 1.93.583-.28.015 1.277c-14.012 7.57-37.484 9.135-55.858-3.433l1.6-.743s.36.252.707.467c.67.415 1.775 1.08 2.504 1.407l1.113-1.603s-1.698-1.035-1.53-1.103l1.506-.804zm1.304 2.538l-.847 1.926 2.124 1.132.81-1.94zm-8.056.216c22.805 14.315 44.034 10.054 56.782 4.2l.164 1.526c-16.454 7-38.09 8.88-58.685-4.965zm53.68.92l-2.027.81.806 1.858 2.085-.89zm-56.406.347c18.533 11.95 38.41 14.29 59.83 5.534l.82 2.288c-20.864 8.378-42.88 7.413-62.995-6.83zm14.24.068l-.828 2.004 2.297.87.67-1.963zm38.974.83l-2.008.65.626 1.915 2.08-.707zm-35.463.548l-.496 2.013 2.345.658.41-2.022zm84.874 3.313c.316 3.423-4.76 5.075-6.66 1.88l1.674-2.033-1.496-1.396c2.03-3.21 6.187-1.665 6.483 1.55zm-105.48-3.204l5.528 3.8-4.017 6.24-5.952-3.996zm95.818.174l3.51 3.043-3.22 3.77-3.295-3.322zm-2.182 1.032l-1.974 2.295 2.135 2.272c-2.534 2.69-6.314 1.03-6.277-2.267.03-2.516 3.88-4.966 6.115-2.3zm-40.928-.883l-2.11.63.482 1.85 2.18-.57zm-28.452.582l-.39 1.99 2.422.52.41-1.98zm24.97.337l-2.244.485.384 1.98 2.25-.472zm46.828.466l-1.848 1.816 1.85 1.916 1.863-1.916zm-67.91.058l-.285 2.003 2.538.342.198-2.028zm17.09.274l-2.282.26.23 1.965 2.37-.298zm-13.474.23l-.03 2.058 2.226.178.005-2.037zm9.815.194l-2.234.082.015 1.99 2.283-.146-.062-1.926zm-40.77.02c-1.314 0-2.38 1.064-2.38 2.378 0 1.315 1.066 2.38 2.38 2.38 1.315 0 2.38-1.065 2.38-2.38 0-1.314-1.065-2.38-2.38-2.38zm37.024.067l-2.196.018.01 2.013 2.263.01-.076-2.04zm58.227.008l.964.964-.963.948-.986-.948zm-95.254.76c.862 0 1.56.7 1.56 1.562 0 .862-.698 1.565-1.56 1.565-.863 0-1.566-.703-1.566-1.565 0-.863.703-1.56 1.566-1.56zm-8.462.117l3.164 2.576c-1.006 1.928-4.194 5.997-4.194 5.997l-5.847-4.686 3.058-1.728c-.166.322-.26.683-.26 1.07 0 1.29 1.05 2.335 2.34 2.335 1.293 0 2.34-1.044 2.34-2.336 0-1.238-.966-2.25-2.185-2.33zm-1.767 1.657c.866 0 1.57.703 1.57 1.57 0 .866-.704 1.565-1.57 1.565-.866 0-1.57-.7-1.57-1.566 0-.865.704-1.568 1.57-1.568zm107.537.74s.862.328 1.072.65c1.698 2.606-.07 5.703-2.915 5.643-3.32-.07-4.196-4.236-1.91-5.935l1.857 1.754zm-86.38 1.06l6.548 2.514-2.485 7.118-7.16-2.937zm-26.92.742c26.718 24.074 64.678 25.805 92.268 9.824l1.68-.033.892.915c-31.432 18.587-70.505 14.543-96.883-9.38zm73.573 1.435l2.11 7.035-7.243 1.907-1.618-7.127zm-76.315.255c8.11 7.814 19.576 14.662 33.04 18.545l.333 2.885c-14.294-4.293-25.09-10.025-35.607-19.976zm31.394.11c-1.292 0-2.34 1.05-2.34 2.34 0 1.293 1.048 2.336 2.34 2.336 1.292 0 2.34-1.042 2.34-2.334s-1.048-2.34-2.34-2.34zm-11.65.525l6.757 3.574-3.366 6.737-7.175-3.847zm11.62.246c.868 0 1.57.703 1.57 1.57 0 .866-.702 1.565-1.57 1.565-.865 0-1.57-.698-1.57-1.564 0-.867.705-1.57 1.57-1.57zm11.188.958l6.492.944-.3 7.195-7.574-.91c.29-2.533 1.382-7.23 1.382-7.23zm31.356.178c-1.292 0-2.34 1.05-2.34 2.34 0 1.293 1.048 2.336 2.34 2.336 1.29 0 2.34-1.043 2.34-2.335s-1.05-2.34-2.34-2.34zm-.03.77c.867 0 1.57.705 1.57 1.57 0 .867-.703 1.566-1.57 1.566-.866 0-1.57-.7-1.57-1.565 0-.866.704-1.57 1.57-1.57zm-52.78.102c-1.292 0-2.34 1.05-2.34 2.34 0 1.292 1.048 2.336 2.34 2.336 1.292 0 2.34-1.044 2.34-2.336 0-1.29-1.048-2.34-2.34-2.34zm41.502.01l.93 7.228-7.09.352-.418-7.21zm50.806.645h1.007c.093 6.22.585 13.42 1.305 18.747.108.793.158 1.027.077 1.17-.696 1.233-1.505-.32-1.82-3.858-.087-.976-.198-2.395-.318-3.328-.365-2.82-.252-12.733-.252-12.733zm-119.81.11c-10.66 6.65-28.39 22.533-28.283 22.903l.072 61.035 1.387.068 1.146-2.245c-1.774-.442-1.277-3.775 2.12-4.443.578-.115 2.348-.71 2.782-1.04 2.578-1.966 6.766-3.126 9.704-2.35 4.285 1.095 5.163 4.245 3.1 9.722-1.624 4.317-4.844 9.838-7.868 11.413-.246.128-.78.39-.78.39s.703.64.96.804c8.328-4.813 12.533-22.078 12.308-32.82.335-11.002 2.233-22.044 6.674-30.074 7.34-13.27 17.05-18.607 17-18.656 0 0-13.088-7.945-20.323-14.707zm27.473.005c.868 0 1.57.703 1.57 1.57 0 .866-.702 1.565-1.57 1.565-.865 0-1.57-.7-1.57-1.566 0-.866.705-1.57 1.57-1.57zm64.75.25l2.527 6.718-7.026 2.875-2.532-7.06zm-40.415.034c-1.292 0-2.34 1.047-2.34 2.34 0 1.29 1.048 2.335 2.34 2.335 1.293 0 2.34-1.044 2.34-2.336 0-1.293-1.047-2.34-2.34-2.34zm14.284.58c-1.293 0-2.34 1.05-2.342 2.342 0 1.292 1.05 2.335 2.34 2.335 1.293 0 2.34-1.043 2.34-2.335s-1.047-2.34-2.34-2.34zm-14.314.19c.867 0 1.57.703 1.57 1.57 0 .865-.703 1.564-1.57 1.564-.866 0-1.57-.7-1.57-1.565 0-.867.704-1.57 1.57-1.57zm14.284.582c.867 0 1.57.704 1.57 1.57 0 .866-.703 1.565-1.57 1.565-.866 0-1.57-.7-1.57-1.565 0-.866.704-1.57 1.57-1.57zm23.896.8c-1.292 0-2.34 1.048-2.34 2.34 0 1.292 1.048 2.335 2.34 2.335 1.292 0 2.34-1.043 2.34-2.335s-1.048-2.34-2.34-2.34zm-.03.77c.867 0 1.57.703 1.57 1.57 0 .866-.703 1.565-1.57 1.565-.866 0-1.57-.7-1.57-1.565 0-.867.704-1.57 1.57-1.57zm-49.626.12l7.022 1.796-1.633 7.364-7.923-2.105zm88.823-.19c1.148 3.597-.96 8.21-1.065 8.512-1.276 3.618-2.812 6.575-3.37 6.747-.477.18-.687.066-.685-.38.003-.683 1.57-5.316 2.803-8.297.302-.73 1-2.937 1.002-3.308.002-.558-.54.35-1.123 1.743-1.13 2.783-2.778 5.763-3.135 8.46-.256 2.206-.675 1.894-.982-.73-.427-3.646.37-5.52 4.47-10.596.98-1.214 1.986-2.46 2.085-2.15zm-51.582 1.87l2.033 7.21-8.288 1.416-1.29-7.31zm-34.702.728c-1.292 0-2.34 1.05-2.34 2.34 0 1.292 1.048 2.336 2.34 2.336 1.292 0 2.34-1.044 2.34-2.335 0-1.29-1.048-2.34-2.34-2.34zm12.39.467l7.51.43.066 7.492-8.148-.352zm-12.42.304c.868 0 1.57.704 1.57 1.57 0 .867-.702 1.566-1.57 1.566-.865 0-1.57-.7-1.57-1.565 0-.866.705-1.57 1.57-1.57zm31.51.665c-1.29 0-2.34 1.05-2.34 2.34 0 1.292 1.05 2.336 2.34 2.336 1.293 0 2.34-1.043 2.34-2.334 0-1.292-1.047-2.34-2.34-2.34zm-15.564.602c-1.292 0-2.34 1.05-2.34 2.34 0 1.292 1.048 2.336 2.34 2.336 1.292 0 2.34-1.044 2.34-2.335 0-1.292-1.048-2.34-2.34-2.34zm15.536.17c.866 0 1.57.702 1.57 1.57 0 .865-.704 1.564-1.57 1.564-.866 0-1.57-.698-1.57-1.564 0-.867.704-1.57 1.57-1.57zm-15.565.6c.867 0 1.57.704 1.57 1.57 0 .867-.703 1.566-1.57 1.566-.866 0-1.57-.7-1.57-1.565 0-.867.704-1.57 1.57-1.57zm51.197.45c.123-.005.286.02.395.018 1.676-.02 7.33 4.042 8.78 6.5 1.2 2.172.578 3.035-.806 1.094-1.908-2.127-5.434-5.282-5.883-5.284-.482-.002.18.686 2.427 2.875 2.227 2.172 4.577 5.002 4.575 5.506 0 .332-.444.29-1.08-.1-1.39-.857-2.595-1.723-3.212-2.303-.372-.35-1.08-.994-1.585-1.435-2.076-1.82-4.443-6.018-3.775-6.824.03-.036.09-.047.164-.048zm-104.752.596c1.446-.042 3.078.877 3.144 2.562.047 1.19.128 1.28 1.204 1.3 1.026.018 3.992.37 3.992.37l.02 3.333s-1.432-.008-3.082-.086c-2.81-.133-2.798-.137-3.155 1.098-.144.5-.345.744-.905 1.112-2.524 1.657-4.957-1.35-3.39-4.19.537-.975.57-1.308.197-1.892-.755-1.696.25-3.522 1.975-3.607zm.616 1.704c-.312 0-.65.134-.963.444-.416.413-.42 1.59-.005 2.274.396.654.386.83-.077 1.26-.814.76-.837 2.268-.042 2.835.725.517 1.493-.166 1.497-1.212.005-1.145.806-1.124.806-1.124l5.28.09.018-.86-3.83-.19c-.533-.003-1.09-.054-1.502-.332-.435-.3-.932-.824-.458-1.46.665-.892.073-1.73-.722-1.725zm-11.442 1.97l2.504 4.257 2.918.106.255 2.59 3.55 2.286-3.635 2.126-.18 2.606-2.753.346-2.557 3.203-2.45-3.198-2.703.014-.04-2.673-3.716-2.393 4.07-2.287-.044-3.053 2.884-.193 1.898-3.737zm88.455 1.936l.12 2.572-4.098.727.534-2.62zm-26.266 2.59l5.524.17-.318 36.093s-1.088-.007-1.295-.01l-.024-1.405-1.767.058-1.796-1.088zm-62.19.916l-3.24 4.102 3.924 3.43 3.457-4.013zm63.847.548v1.66h2.317v-1.66zm-63.774 1.42l2.283 1.672-1.74 2.297-2.2-1.907zm88.5.944l-.073 19.755c-7.59 5.956-9.955 16.44-9.954 16.44l-3.088-.182 7.845-34.8zm-41.142.44c-6.83 3.248-13.712 5.708-20.486 13.46 2.623 2.36 5.395 4.766 7.86 8.787 5.64-.84 11.913.168 18.756 2.86zm16.417.442v1.72h2.317v-1.72zm-76.767 2.48c.17.525.222 1.088.222 1.088 5.008-.42 3.73 5.392.54 5.59-.375.05.308 1.032 1.054 1.345 1.895.797 3.258.285 4.5-1.373.955-1.27 1.013-1.454 1.013-1.454l3.09 1.637s.09-.045-.456 1.373c-.994 2.58.456 5.745 1.575 3.438.596-1.23 2.35-1.93 3.563-1.42 1.42.594 1.91 3.127.915 4.724-.3.482-.31.583-.125 1.03.278.673.45 2.404.16 2.962-.38.724-.815.89-1.667.3-1.167-.81-1.82-1.146-3.848-1.71-3.563-.67-4.26-1.925-5.678-4.855-4.22 1.263-10.536-1.383-9.694-7.65.383-1.38.488-4.035-.217-4.578-1.38-1.064.136-2.6 2.212-2.846 1.706-.17 2.526 1.446 2.84 2.398zm59.706-1.816l5.49 22.99c-6.027-2.206-11.94-3.928-17.174-2.648-2.397-3.824-4.44-5.707-7.1-8.192 5.18-6.244 11.766-9.738 18.783-12.15zm-62.115 1.127c-.355-.003-.756.15-1.175.52 0 0 .37.31.573.732.323.674.327.674-.038 2.167-1.674 5.99 2.297 9.95 7.946 8.22 1.388-.428 1.334-.38 1.734 1.248.66 2.68 2.555 4.066 6.323 4.575.232.03.618.107.925.294 1.658 1.058.978-.348.525-.895-.324-.427-.915-.852-.915-.852s.505-.328.742-.453c1.063-.564 1.46-2.772.582-3.246-.8-.432-2.163.22-2.167 1.04-.007 1.498-1.897 1.657-3.55.412-2.124-1.598-.243-5.625-.23-5.62l-1.198-.526c.16.14-2.52 3.948-5.818 2.62-2.302-.927-3.925-3.594-2.857-4.355.778-.208 1.71.22 2.302-.236 1.176-.924.226-2.545-1.456-2.486-.353.013-1.156.17-1.156.17.09-.756.282-1.286.188-2.014-.098-.728-.603-1.308-1.28-1.315zm79.2 1.748v1.416l2.292.014v-1.416zm-.024 2.92v1.458h2.317v-1.458zm0 3.143v1.493h2.317v-1.494zm0 2.933v1.58h2.317v-1.58zm0 2.942v1.473h2.317v-1.473zm0 3v1.488h2.317v-1.488zm-75.308 1.454l1.95 3.294 2.317.1.09 2.265 3.94 3.01-3.443 2.46-.25 2.442-2.73.087-2.212 3.727-2.72-3.27-2.187-.35-.25-2.977-3.367-2.518 3.165-2.53.255-2.642 2.577.226zm128.18 1.575c.212.005.44.063.69.19.818.41 1.076.46 3.202.567 2.466.124 3.338.345 4.56 1.16.738.493.78.49 1.57-.033 3.463-2.295 7.418-.21 7.706 4.064.075 1.124.188 1.576.63 2.52.302.652.616 1.167.434 1.583-.555 1.274-3.223 1.355-4.676-.533-.26-.285-.524-.408-.886-.41-.722.27-2.57-1.184-2.548-1.247-.17 1.01-.257 1.815-.438 3.284l-3.23-.048s-.073-.592-.223-2.658c-.172-2.375-.762-3.07-1.522-1.787-1.305 2.21-4.777 1.24-4.978-1.39-.068-.892-.12-1.008-.607-1.382-1.635-1.258-1.158-3.907.318-3.877zm-52.87.13v1.32h2.315v-1.32zm53.242 1.412c-.642.046-.277 1.185.785 1.787.6.34.603.337.524 1.385-.144 1.898 1.686 2.83 2.5 1.272.14-.27.2-.613.144-.843-.34-1.38 2.643-1.003 3.36.424.166.328.35 1.2.44 2.08.084.835.105 1.8.105 1.8h.954s-.012-.575.043-1.126c.236-2.357 1.28-3.848 2.687-3.843.6.002.623.11.202.886-.712 1.314-.027 2.266 1.632 2.277 1.052.008 1.048.01 1.44.756.43.82.755 1.08 1.156.93.282-.108.288.05-.082-2.75-.55-4.174-2.98-5.3-6.333-2.934-.95.67-1.157.65-1.998-.163-1.262-1.22-2.06-1.498-4.527-1.59-1.175-.043-2.334-.16-2.572-.255-.19-.077-.343-.105-.462-.096zm-79.58 1.194c-.55.01-1.185.125-1.737.172.613 3.225.898 6.45 1.178 9.676 2.824-.49 6.482-.033 11.307 2.216 2.962 1.38 6.578 3.738 10.37 6.4 4.102 2.88 8.912 4.582 13.01 5.472 4.99 1.083 8.996.99 8.886.755-.22.036-1.798-7.913-1.592-9.612-6.9-.634-13.565-3.19-18.658-6.65-6.743-4.584-14.537-8.57-22.764-8.43zm26.337.27v1.34h2.317v-1.34zm-76.01.265l-3.666 3.82 3.988 3.775 3.385-3.848zm-.102 1.734l2.076 1.99-1.676 2.123-2.336-2.013zm51.673.313c.49.005.967.347 2.582 1.253 1.355.934 2.437 1.517 2.042.052.31-.422 1.81.95 3.578 1.816 2.133 1.708 2.14 1.296 2.418.448.285-.62.68-.2 2.383 1.377 2.24 2.074 2.038 2.076 2.485 1.56.51-.968.68-.958 2.505 1.137 1.896 2.115 2.297 2.567 2.7 1.66.625-.467.948-.012 3.522 2.404 1.265 1.263 1.563 1.067 1.8.217.245-.874.315-.677 2.452 1.017 2.474 1.98 2.72 2.126 2.822 1.44.162-1.09.93-.702 3.476 1.127 1.543 1.103 2.127 1.41 2.456 1.137.336-.594-.837-1.736 1.652-.66l.684 3.613-.862-.246c-.53-.15-1.69-.543-1.253.583.253.65-.374.573-2.306-.578-2.77-1.65-3.28-2.028-3.487-1.69-.365 1.234-.32 1.314-2.186-.15-2.173-1.648-2.61-2.103-2.914-1.54-.04 1.243-.646.99-2.673-.757-1.713-1.498-2.078-2.28-2.845-1.135-.21.4-.422.298-.706.09-.996-.735-3-2.85-3.566-3.458-.445-.485-.7-.328-1.064.073-.342.374-.368.258-1.474-.756-2.64-2.424-3.132-3.03-3.5-2.698-.302.568-.015 1.34-2.043-.26-2.545-1.833-3.65-2.646-3.478-1.445-.437.538-.13.643-2.678-.766-2.42-1.338-2.727-1.74-3.077-1.28-.237.728-1.05.466-1.05.424l-.49-3.674.87.01s.84-.342 1.224-.343zm-19.42.31c-.195.567-1.53 3.844-1.547 12.187.16.197 3.31-3.013 3.463-6.005.145-2.836-1.91-6.192-1.917-6.184zm43.856.23V519h2.316v-1.523zm-43.69 1.206c2.943 4.668-.302 9.07-1.11 9.38 0-3.508.516-6.806 1.11-9.38zm77.27 3.92c-4.84 3.05-4.054 11.306-1.68 13.42.175 0 1.7-8.916 1.68-13.42zm-.662 1.017l-1.303 10.623c-1.69-1.874-1.992-7.46 1.304-10.623zm30.525 1.793l2.556 3.217 2.273.17.505 2.32 3.318 2.7-3.323 2.255-.294 2.572-2.47.25-2.447 3.848-2.394-3.77-2.293-.246-.072-2.477-3.6-2.658 3.437-2.066.068-2.8 2.692.01zM351 526.42c-1.626 7.725-5.507 13.01-10.98 16.566l.028.78-9.223 3.698c-2.02 9.425-5.652 18.618-13.267 27.243l2.124 4.315-10.3 3.54 14.745 25.287c1.015 0-7.145 3.86-16.995 2.855 6.234 15.262 7.52 31.064 4.07 44.902l48.268-.202-36.89-72.386-.6-1.18c-.513-.947 19.61 2.828 15.337 21.492-.06.432.09.486.332.308 3.91-3.36 29.89-12.678 50.637-.376l6.164-2.552c-2.932 10.27-6.267 17.334-11.89 23.525l.955 14.616c9.947-8.146 20.74-23.102 22.19-42.976 4.48-2.183 8.376-4.66 12.55-6.997l.554.178 2.7-1.623c-8.664-9.48-26.355-18.538-37.692-20.92l.67 3.213c-6.256-1.68-10.935-2.045-15.8-2.567l-.748-34.008-6.3-3.713-.196 37.514c-4.71.058-15.54 1.916-15.54 1.916l.486-3.207-4.96 1.02-.087-3.124 5.606-1.61 8.128-34.46zm.678.765l2.59.525-8.047 33.788s-4.513 1.247-4.79 1.073c-.36-6.335-.496-19.247-.496-19.247 7.942-6.62 9.185-11.308 10.744-16.138zm-55.232 2.48c1.213-.015 2.517.867 2.6 1.662.208.49.38.7.708.746 2.03.28 2.095.82 2.153 1.99-.286 2.243 1.216.36 1.642-1.87.043-.23.018-1.935.018-1.935l2.485-.024s.084 1.778.12 2.06c.22 1.724.955 3.122 1.465 2.206 1.748-3.14 5.752-1.538 5.12 1.49-.157.714-.147.76.34 1.304.796.887 1.092 1.826.83 2.643-.257.8-.816.92-2.02.44-.564-.228-1.25-.31-3.08-.363-2.592-.076-2.753-.125-3.762-1.102l-.636-.617-1.098.646c-1.828 1.075-3.49 1.116-5.422.126-1.258-.645-1.99-2.19-2.187-4.6-.037-1.28-.396-2.206-1.19-2.513-.427-.403.05-1.205.78-1.936.337-.24.728-.347 1.133-.352zm144.9.366l-3.414 4.26 4.06 3.63 3.78-4.445zm-79.088.613l4.73 2.706.606 33.527-5.346-.15.01-36.084zm-65.682.467c-.36.035-.134.612.13 1.493.237.788.296 1.278.22 1.825-.5 3.674 3.712 5.542 6.753 2.996.808-.927.94-.867 1.617.125.834 1.044 2.048 1.384 4.594 1.232 1.163-.07 1.934.55 2.438.14.365-.265.01-.965-.693-1.373-.432-.25-.447-.29-.36-1.152.214-2.175-1.58-2.75-2.852-.915-1.052 1.516-2.638.514-3.15-1.99-.304-1.925-.546-1.895-.775-.216-.248 2.042-2.938 4.256-4.012 3.25-.294-.295-.29-.22.01-1.246.388-1.315.077-1.806-1.358-2.147-.235-.056-.506-.252-.597-.434-.76-1.177-.726-1.59-1.964-1.59zm145.113.78l2.166 1.87-1.888 2.23-2.307-1.774zm-77.95 1.195v1.585h2.024v-1.585zm0 3.192v1.666h2.024v-1.667zm12.185 1.917c2.267 8.418 4.552 16.83 6.83 25.244 2.156-.86 14.61-6.39 20.485-13.465-.224.018-5.34-4.985-7.132-8.23-5.875.97-12.623-.263-20.183-3.55zm-12.184 1.002v1.555h2.024v-1.554zm13.46.424c5.355 1.596 12.213 3.798 18.527 2.677 1.63 2.926 3.986 5.334 6.646 7.556-4.78 5.2-11.69 9.164-18.84 12.218zm50.817.606c.27.002.542.105.804.337.848.754 1.5 1.014 3.232 1.296 2.79.453 4.915 2.194 5.52 4.516.253.975.392 1.03 1.78.68 5.263-1.325 9.32 3.038 8.067 8.86-.438 2.033-.572 2.277.038 3.082 1.337 1.442 1.628 1.46.164 2.73-1.333 1.198-3.98.62-4.542-1.324-.536-1.064-.528-1.145-1.41-1.285-3.434-.55-3.292-5.298-.058-5.848.27-.046.47.01.606-.053.92-.416-1-2.588-2.586-2.255-1.945.41-2.913 1.657-3.68 3.612l-3.062-1.748c.77-1.59 1.333-3.637.665-4.903-.54-1.068-1.222-1.11-1.43-.087-.49 2.405-3.48 3.123-5.442 1.165-1.097-1.094-1.225-2.268-.42-3.852.523-1.025.536-1.1.314-1.532-.77-1.504.273-3.4 1.44-3.394zm-64.276 1.956v1.622l2.028-.01-.004-1.612h-2.023zm64.652.134c-.622.005-.618.612-.043 1.35.51.518.61.756-.097 1.203-.887.82-1.08 2.057-.467 3 .92 1.414 3.04.625 2.798-1.04-.17-1.17.748-1.694 2.21-1.253 2.125.64 3.138 3.015 2.302 5.408-.158.45-.47 1.503-.47 1.503l.627.38s.745-1.19 1.036-1.55c2.413-2.967 8.12-1.464 7.484 2.248-.098 1.166-.093 1.324-1.363.958-.842-.434-1.657.468-1.63 1.594.04 1.015.92 1.83 2.142 1.667.967-.182 1.21-.15 1.14 1.155.1.907.438 1.508 1.03 1.816 1.443.595 2.184-.225 1.032-1.43-.698-.73-.656-1.86-.217-2.92.525-1.265.25-4.048-.553-5.62-1.16-2.26-4.403-3.21-7.118-2.08-1.24.664-1.377.818-1.498-.346-.68-2.885-2.85-5.065-5.557-5.26-1.04-.073-2.123-.64-2.788-.784zm-64.65 2.948v1.497h2.026v-1.496zm0 2.928v1.65h2.022v-1.65zm0 3.22v1.653s1.106-.03 2.022 0v-1.652zm66.052 2.65l2.215 3.275 2.45.163.29 2.644 3.717 2.317-3.222 2.018-.024 2.558-3.07.26-2.717 3.602-2.312-3.18-2.31.01-.545-2.835-4.093-2.076 4.2-2.393-.116-2.98 2.855-.02 2.684-3.362zm-66.053.39v1.695h2.024v-1.695zm0 3.106v1.676h2.024v-1.676zm64.81 1.248l-3.172 4.223 4.276 3.534 3.4-4.272zm-64.81 1.69v1.835h2.024v-1.834zm65.14.22l2.204 1.706-1.574 2-2.19-1.672zm-65.14 3.17v1.536h2.024v-1.536zm-60.196.198c-3.9.017-7.587 6.332-8.47 9.323-1.045 3.83-1.2 10.76-.208 10.956 3.495-2.515 5.152-6.777 7.778-9.97.407 3.69.343 10.81.343 10.81s-1.554.817-2.392 2.108c-.605 1.075-.798 2.36-.282 3.554-1.943-.63-5.463.082-5.663 3.67.126 5.052 5.642 4.34 5.663 4.27-.117-.03-1.086 5.375 3.81 5.95 1.756.204 4.846-1.076 3.93-5.992 3.09.51 5.754-1.192 5.787-4.166.04-2.037-1.508-3.79-4.175-3.8-.556-.002-1.73.25-1.73.25.04-.293 1.07-3.455-2.517-5.75l-.564-14.624s1.238 1.35 1.792 1.858c2.383 2.194 3.94 3.3 6.69 4.75 2.675 1.41 2.345 1.062 1.882-1.62-1.265-4.026-3.91-7.07-9.502-10.873-.72-.49-1.45-.707-2.172-.703zm.385.313l.784 20.685-1.16-.002-.997-20.664zm114.75.683c.102-.003.208 0 .317.01 2.523.213 3.17 3.033 2.037 4.286-.448.495-.603.602-.37.905 1.082 1.373.478 3.54-.593 3.873-3.404 1.06-3.92-.803-3.91-2.995l-5.258-.197.033-3.062 5.8.115c-.44-1.39.4-2.874 1.944-2.933zm-117.187.034c.022-.002.043-.002.062 0 .545.046-.015 1.503-1.536 3.723-1.028 1.5-2.458 4.147-2.886 5.215-.936 2.338-1.566 6.53-.94 5.76.567-1.752.623-2.483 1.11-3.742.64-1.643 3.63-7.043 4.222-7.575.507-.455.638-.176.626 1.343-.026 3.422-1.647 7.022-5.514 11.236-.644.702-1.503 1.47-1.565 1.468-.372 0-.362-.776-.356-2.403.025-6.464 2.424-12.235 6.116-14.718.29-.194.507-.294.66-.308zm3.915.3c1.696.495 4.74 3.218 5.996 4.617 1.453 1.57 3.4 5.912 3.058 6.58-.114.292-.36.246-1.21-.232-5.397-3.038-9.262-6.783-8.25-7.994.284-.338 1.444.36 2.997 1.8 1.054.938 2.135 1.887 3.1 2.838 1.517 1.493 1.858 1.713.944.053-.82-1.49-3.148-3.993-5.962-6.116-1.144-.865-1.404-1.56-.674-1.547zm113.603.87c-.07.002-.136.013-.186.034-1.062.447-.63 1.824-.732 2.88l-5.837-.202-.034.81 5.477.297c.096.826-.334 2.608.37 2.91 1.533.636 2.37-1.338 1.07-2.524-.464-.413-.965-.595.322-1.177.848-.724.98-2.14.254-2.77-.2-.173-.486-.26-.703-.26zm-73.843.24l-.294 2.163-3.385.853-.087-2.312zm39.927.767c12.5 3.367 26.392 11.01 35.415 19.644l-1.807 1.185c-9.375-8.66-21.74-15.234-33.103-18.498zm-21.536.333c20.582-.057 39.345 7.945 54.485 20.867l-2.475 1.56c-13.81-11.416-29.112-19.03-49.698-19.937-13.456-.593-28.81 2.857-43.944 11.182l-1.127-2.047c14.697-8.014 29.126-11.587 42.758-11.625zm-1.618 3.1l8.095.237-.5 7.518-7.36-.24zm-8.707.536l1.14 7.252-7.044 1.314-2-7.272zm25.625.957l8.042 2.143-2.653 7.393-7.06-2.013zm-12.882.106c-1.277 0-2.312 1.035-2.312 2.312s1.035 2.31 2.312 2.31c1.276.002 2.31-1.033 2.31-2.31 0-1.277-1.034-2.312-2.31-2.312zm0 .8c.85 0 1.54.675 1.54 1.512s-.69 1.517-1.54 1.517c-.852 0-1.542-.68-1.54-1.517 0-.837.688-1.512 1.54-1.512zm-15.97.014c-1.276 0-2.31 1.035-2.31 2.312 0 1.275 1.034 2.31 2.31 2.31 1.277 0 2.312-1.035 2.312-2.31 0-1.278-1.035-2.313-2.31-2.313zm0 .8c.852 0 1.542.675 1.542 1.512 0 .836-.69 1.516-1.54 1.516-.853 0-1.542-.68-1.542-1.517 0-.838.69-1.513 1.54-1.513zm31.837.93c-1.276 0-2.31 1.034-2.31 2.31 0 1.277 1.034 2.312 2.31 2.312 1.277 0 2.312-1.036 2.312-2.312 0-1.277-1.034-2.312-2.312-2.312zm-44.815.27l2.384 7.073-6.824 2.764-2.557-6.987zm44.815.528c.852 0 1.542.676 1.542 1.513 0 .837-.69 1.517-1.542 1.517-.85 0-1.54-.68-1.54-1.517 0-.837.69-1.513 1.54-1.513zm13.37 1.696l7.237 3.824-3.742 6.762-6.747-3.516zm-60.602.612c-1.276 0-2.31 1.035-2.31 2.312 0 1.276 1.034 2.31 2.31 2.31 1.277 0 2.312-1.034 2.312-2.31 0-1.277-1.035-2.312-2.31-2.312zm27.344.222l.338 7.142-6.41.452-1.166-7.098zm7.69.375l7.307 1.01-1.72 6.878-6.61-1.065 1.025-6.824zm-35.033.202c.852 0 1.542.675 1.542 1.512s-.69 1.517-1.54 1.517c-.852 0-1.542-.68-1.542-1.516 0-.837.69-1.512 1.54-1.512zm23.935.924c-1.277 0-2.312 1.035-2.312 2.312 0 1.276 1.035 2.31 2.312 2.31 1.276 0 2.31-1.034 2.31-2.31 0-1.277-1.034-2.312-2.31-2.312zm-11.673.29l1.892 6.948-7.045 2.018-2.164-6.684zm25.576.11c-1.277 0-2.312 1.035-2.312 2.31 0 1.278 1.035 2.313 2.312 2.313s2.31-1.036 2.31-2.313c.002-1.276-1.033-2.31-2.31-2.31zm-13.903.4c.85 0 1.54.675 1.54 1.512s-.69 1.517-1.54 1.517c-.85 0-1.54-.68-1.54-1.517 0-.837.69-1.512 1.54-1.512zm13.903.4c.85 0 1.54.674 1.54 1.51 0 .838-.69 1.518-1.54 1.518-.85 0-1.54-.68-1.54-1.517 0-.837.69-1.512 1.54-1.512zm24.724.014c-1.277 0-2.312 1.035-2.312 2.31 0 1.278 1.035 2.313 2.312 2.313s2.31-1.035 2.312-2.312c0-1.275-1.035-2.31-2.312-2.31zm-12.507.674l7.06 2.413-2.817 6.597-6.756-2.57zm12.507.125c.85 0 1.54.674 1.54 1.51 0 .838-.69 1.518-1.54 1.518-.85 0-1.54-.68-1.54-1.517 0-.836.69-1.51 1.54-1.51zm-53.108.245c-1.277 0-2.31 1.035-2.312 2.31 0 1.278 1.035 2.313 2.312 2.313s2.31-1.035 2.31-2.312c0-1.276-1.033-2.31-2.31-2.31zm0 .8c.852 0 1.54.674 1.54 1.51 0 .838-.688 1.518-1.54 1.518-.85 0-1.54-.68-1.54-1.517 0-.837.69-1.512 1.54-1.512zm42.773 1.348c-1.276 0-2.31 1.035-2.31 2.31 0 1.278 1.034 2.313 2.31 2.313 1.277 0 2.312-1.035 2.312-2.312 0-1.276-1.036-2.31-2.313-2.31zm0 .8c.852 0 1.542.674 1.54 1.51 0 .838-.688 1.518-1.54 1.518-.85 0-1.54-.68-1.54-1.516 0-.837.69-1.512 1.54-1.512zm-82.696.803c1.85.078 3.235 1.737 3.32 3.464.062 1.312-1.612 3.03-1.612 3.03l-1.948-1.804-1.87 1.723c-.316.105-1.77-2.366-1.326-3.644.58-1.665 1.768-2.84 3.437-2.77zm104.965 0l5.59 4.575s-2.453 1.493-2.907 1.76c.055-.2.082-.41.082-.627 0-1.277-1.035-2.312-2.312-2.312s-2.31 1.036-2.31 2.313c-.002 1.095.763 2.015 1.785 2.254-.574.33-1.34.756-1.34.756l-2.95-2.475zm-8.85 12.227l-2.475 1.015c-15.224-10-36.052-15.472-59.86-5.402l-.82-1.974c17.675-7.36 39.975-9.652 63.154 6.36zm-1.354-9.992l5.992 3.675-3.805 5.842-5.85-3.742zm-1.81 11.327l-2.514.944c-18.584-11.94-38.39-11.302-56.09-4.145l-.272-1.677c20.84-9.022 41.754-6.152 58.876 4.88zm12.468-9.366c.85 0 1.54.676 1.54 1.513 0 .837-.69 1.517-1.54 1.517-.85 0-1.54-.68-1.54-1.517 0-.837.69-1.512 1.54-1.512zm-108.13 2.74l-2.066 2.084 1.887 2.12s-.6.507-1.033.743c-2.473 1.346-5.18-.78-5.05-3.076.19-3.344 4.22-4.94 6.262-1.87zm98.335-1.598c-1.277 0-2.312 1.035-2.312 2.312 0 1.276 1.036 2.31 2.313 2.31 1.277 0 2.31-1.034 2.31-2.31 0-1.277-1.033-2.312-2.31-2.312zm-89.97.094c1.84.014 3.27 1.426 3.445 3.05.14 1.297-.533 2.54-1.985 3.42-1.97 1.196-4.26-.74-4.22-.858l1.66-1.642-1.997-2.044c-.057-.038 1.32-1.94 3.098-1.926zm-5.753.397l3.405 3.395-3.602 3.357-3.338-3.352zm89.79 9.035l-1.912.876-2.605-1.57-.77 1.48 1.45.918-1.508.565c-17.364-9.754-36.983-6.928-50.025-.455 0 0 .113-1.004.12-1.004l1.42-.724-.53-1.796-.76.222-.06-1.99c18.622-8.384 39.75-6.464 55.18 3.478zm5.933-8.726c.85 0 1.54.675 1.54 1.512s-.69 1.517-1.54 1.517c-.85 0-1.54-.68-1.54-1.516 0-.837.69-1.512 1.54-1.512zm-95.795 1.213l-1.816 1.806 1.806 1.927 1.763-1.863zm56.835.4l-2.38.106.127 1.942 2.32-.058zm1.623.01l.044 1.94 2.157-.01-.01-1.916-2.19-.015zm3.83.033l-.107 1.93 2.142.098.154-1.922zm-9.247.246l-2.438.265.27 1.95 2.306-.27zm13.237.03l-.173 1.992 2.2.25.3-1.906zm-66.27.008l1.06 1.127-1.055 1.05-1.122-1.1zm48.924.593l-2.35.37.25 2.01 2.293-.454zm21.32 0l-.39 1.86 2.186.523.357-1.897zm-25.172.814l-1.974.523.428 1.956 2.086-.512zm28.924.076l-.415 1.887 2.23.607.448-1.81zm-32.184.94l-2.066.73.535 1.81 2.1-.707zm36.022.206l-.69 1.815 1.932.776.853-1.647zm-39.432 1.064l-1.96.804.81 1.796 1.858-.847zm-40.4.056l1.985 1.98 2.358-2.126c2.058 1.82 2.025 6.073-1.616 6.783-3.18.62-6.09-4.14-2.725-6.638zm83.37.382l-.755 1.666 2.134.94.736-1.604zm-60.85 10.69l26.92 45.756-4.258-.082-26.053-44.214zm-4.42 1.744l1.49 2.313c-2.916-2.32-7.2-.368-7.02 2.557.143 1.306 1.247 2.1 1.252.843-.132-1.314 1.73-2.46 3.082-2.398 2.495.032 4.02 3.238 2.298 4.835-1.133 1.043-2.665.996-2.148-.434.08-.493.04-.673-.193-.886-.717-.653-2.037.198-1.715 1.132.21.613.273.764-.463 1.27-2.854 2.005-.865 5.956 2.59 4.156.708-.254.995-.292 1.316-.168 1.438.553 2.418-.695 1.055-1.344-.793-.377-.813-1.02-.05-1.53 1.633-1.09 4.175.612 4.167 2.792-.006 1.542-2.042 2.682-3.992 2.234-1.16-.266-1.3.52-.236 1.334 2.06 1.58 5.142.27 6.063-2.57.29-.895.247-1.082.247-1.082l2.747 4.535s-.853-.403-1.367-.56c-2.586-.79-5.486.888-5.495 3.178-.005 1.08.634 1.498.992.65.832-1.97 2.643-2.738 4.503-1.907 1.72.77 2.506 2.51 1.834 4.065-.703 1.627-3.064 2.106-2.798.568.127-.732-.32-1.18-1.108-1.106-.298.027-.68.893-.578 1.31.096.39.027.483-.983 1.27-2.398 1.872-.552 4.926 2.443 4.04.504-.148.69-.134 1.14.083 1.085.522 2.223.197 2.226-.636 0-.57-.257-.79-.935-.793-1.027-.004-.805-1.166.332-1.734 2.85-1.424 5.762 2.172 4.026 4.975-.745 1.204-1.217 1.328-3.88 1.035-.43-.047-.625.247-.37.597.79 1.117 3.134 1.47 4.5.853 1.474-.668 2.373-2.352 2.477-4.148l3.012 5.26c-2.343-2.45-6.385-1.514-7.034 1.994-.003.888.807 1.35 1.088.62 1.218-3.166 5.85-2.195 5.837 1.223-.002.55-.11.862-.462 1.344-.85 1.64-3.023 2.044-2.63.573.176-.455-.172-.95-.77-1.093-.588-.14-.963.352-.948 1.247.01.67.016.875.016.875-1.084.456-1.776 1.35-2.016 2.674l-21.087.047c2.508-14.614 1.92-27.81-2.875-40.292-.414-1.082-1.01-2.656-1.01-2.656l3.723.1c.898.777 4.29.475 5.616-.728zm3.58 5.74l2.178 3.91c-.9-.515-1.82-.858-3.22-.976.73-1.086.79-2.06 1.042-2.935zm-5.724 4.157c.793 0 1.435.642 1.435 1.435s-.643 1.435-1.436 1.435c-.794 0-1.44-.642-1.44-1.435s.646-1.435 1.44-1.435zm15.015 11.686l2.097 3.735c-1.02-.435-1.883-.86-3.478-.9.58-.68 1.08-1.817 1.38-2.834zm-6.05 4c.753 0 1.363.61 1.363 1.363 0 .752-.61 1.358-1.362 1.358-.752 0-1.357-.605-1.357-1.357 0-.753.605-1.363 1.358-1.363zm15.197 11.636l3.097 5.493c-1.218-.698-2.53-1.582-4.174-1.412.783-1.673 1.21-2.585 1.077-4.082zm-4.12 6.853l-3.32.01c.663-2.903 3.348-2.148 3.32-.01zm3.144-1.4c1.13.057 2.104.443 2.715 1.428l-4.18.01s.03-1.444 1.466-1.438z"/></svg>