<svg viewBox="260 370 224 313" preserveAspectRatio="none" xmlns="http://www.w3.org/2000/svg" width="744.094" height="1052.362"><title>Vectorized Playing Cards 1.0</title><rect y="589.952" x="2090.887" height="311.811" width="223.228" rx="10.63" ry="10.63" fill="#fff" stroke="#000" stroke-width=".997" transform="translate(-512.47115,-1384.075) translate(-1317.9825,1164.3989)"/><path d="M362.566 654.886l23.212-42.372c-.003.01 5.62 2.154 12.192 3.86-6.31 16.437-.046 38.12-.046 38.12s-35.376.357-35.358.392zm-63.79-72.413c-1.322-18.008-1.364-35.406 1.602-49.818.054-.23-8.292-5.052-7.43-5.605 1.323-.847 17.767-9.42 17.767-9.42s1.11.632 2.07.535c.748-.076 1.45-.756 1.158-1.483-.686-1.718-1.913-5.992-1.177-10.295.423-2.472 1.763-5.193 3.153-6.86 3.098-3.712 10.172-1.75 12.23-1.812 1.305-.04 5.252-13.842-1.033-16.403-1.732-.706-5.708 8.717-2.945 10.832.415.318-5.555-3.144-10.128-5.21-.424-.19-2.292-1.628-2.712-3.526-.524-2.367 7.008-6.922 5.53-9.59-2.155-3.888-7.72-9.702-10.103-8.106-2.253 2.033-7.624 6.19-7.588 9.032 1.678 5.098 5.943 5.453 8.184 10.276.558 1.043 4.68 5.424 4.68 5.424-1.547 2.365.957 6.5 1.073 5.867l-19.526-8.505s4.475 33.67-.25 38.655c-.5.527 4.18-1.32 4.26-1.033 1.423 1.8 17.192 11.825 21.706 15.428 8.016-11.178 10.944-16.095 21.275-26.012 2.267-1.874 7.323-5.297 10.213-9.41 2.323-3.302 3.286-7.023 2.87-9.912-.54-3.734-.873-6.29-3.18-9.267-5.325-6.876-13.8-13.436-13.65-13.555l2.896-2.355s10.45 8.64 14.875 14.993c2.98 4.28 1.643 9.19 4.214 10.068.618.21 4.84-.14 6.227.125.17.03 30.742 21.604 25.2 22.848-7.675 1.723-19.91.6-19.91.6-8.738-8.526-12.955-11.33-18.162-8.658 0 0-13.194 11.538-20.81 20.573-4.34 5.148-7.962 11.592-10.865 15.736-1.12 1.596-15.13-11.863-14.988-10.25 2.082 14.65 3.27 32.3 1.658 44.266-1.106 10.164-2.62 21.08-3.295 30.454 0 0 2.35-.682 4.144-.046.97.344 1.674 1.242 1.758 2.24.523 4.463-5.225 3.427-5.36 3.04.008-.003 3.21 6.885 3.21 6.885s-4.98 8.584-4.84 8.21c.085-.23-4.526-7.62-4.526-7.62s3.498-6.176 3.938-7.462c.264-.772-5.047 2.555-5.457-2.264-.414-4.858 5.797-3.556 5.518-2.958-.748-9.96-2.42-20.26-3.478-28.653zm74.854 22.41c.137-.104-13.212-5.356-25.475-4.86-4.32-1.682-11.367-3.442-16.07-.307-5.29-3.58-9.856-7.522-14.495-11.426 1.3-.017 6.166-31.31 9.35-42.213-1.42-13.54 11.63-13.53 12.763-2.685 14.06 14.532 31.275 29.563 49.02 44.352-2.823 5.852-13.012 10.314-15.093 17.14zm30.74-95.796c-16.03-16.335-49.576-45.54-49.576-45.54l15.703-15.32c8.243 2.456 16.714 4.508 26.29 4.605.038.037 10.495 4.755 16.067-.013l14.495 11.48s-6.013 31.61-9.543 42.642c.075 4.37-1.58 9.692-5.897 10.482-3.687.676-6.523-4.55-7.54-8.337zm32.398-37.84c1.672-10.277 2.017-17.756 3.177-29.745-7.23 2.117-7.132-7.623-.03-5.06l-3.292-7.253 4.875-8.17 4.475 7.758-3.854 6.876c8.01.394 6.076 7.825-.82 6.03 1.3 11.486 4.163 23.087 4.024 34.44 2.48 18.21-3.05 43.546-2.134 44.147l7.81 5.37-1.334 39.617-12.334-5.403-3.67 2.475c1.177 2.33 2.676 4.565 3.182 7.1 0 0 8.495 6.982 7.316 9.158.547.32-6.045 9.042-7.98 8.824-3.694-.415-8.013-5.178-9.195-8.57-1.042-3.414 7.627-6.758 6.533-9.255-1.308-2.986-4.61-4.422-7.537-5.3-4.034-1.21-5.88-4.403-6.066-4.403 0 0-1.568 12.662-3.078 11.65-6.074-4.073-1.92-16.993-.793-16.633 0 0 2.652.61 5.786.904 11.04 1.157 10.293-12.41 8.153-18.978-.537-1.56.302-1.57.243-1.59-.512-.177 1.786-.05 3.736-.623 5.362-1.58 13.576-7.03 13.576-7.03-8.63-4.785-16.248-10.243-23.082-15.42 0 0-6.344 10.82-13.863 18.326-5.474 5.463-6.365 7.323-15.526 14.358-.178.137-6.943 8.22-3.722 17.66 2.757 8.076 16.006 16.82 15.908 17.403l-2.608 2.49c.105.146-18.755-11.692-18.315-24.424-.02-.48-8.57-.647-8.57-.647l-24.853-23.02 21.052-.09 10.808 8.822 6.754.35c.44.39.686-1.782 6.634-6.217 11.365-8.472 25.447-30.228 25.447-30.228s14.89 10.467 14.905 10.468c-.745-15.718-3.28-32.62-1.74-46.17zm-54.212-74.284s-15.473 29.045-23.957 42.728l-12.02-3.444c5.036-13.358.214-38.817-1.053-39.46z" fill="#e2cf00"/><path d="M290.25 395.273l.913 261.56 162.41-.104-.468-261.457zM403.127 584.82c7.705-7.158 15.326-13.065 22.45-17.358 2.765-1.665 3.603-1.91 4.69-.922 1.77 1.61 2.872 3.012 2.294 4.14-.13.254-.546.676-.546.676l-4.257-1.62 1.38 4.828c-3.83 1.56-3.762 5.7-.066 7.897l-2.542 5.85 5.912-2.6c.227 1.275 4.443 4.36 7.066 0l5.34 2.606-1.84-6.535c1.752-1.67 2.774-4.338.017-6.797l1.27-5.12-4.823 1.57c-1.208-1.652-1.91-1.54-2.187-1.99-.083-.614-.098-2.047-.9-3.368-.662-1.093-1.42-2.253-2.13-3.066-.376-.636-.075-.69 1.85-1.73.905-.49 1.653-.985 1.653-.985s9.49 4.76 13.36 6.57l.22 87.64-52.05-.152c-5.855-17.468-1.65-32.566-.1-38.922-2.728-.226-16.804-4.785-17.226-6.353 5.576-8.857 13.144-16.905 21.167-24.258zm-101.283 25.497c-6.79-2.192-6.858 5.98-3.39 6.615.9.164 1.84.3 3.245-.155.348.072-4.067 6.852-4.067 6.852s3.536 6.42 5.23 9.147l5.345-9.482-3.495-6.562c5.472 2.788 8.306-5.515 2.56-6.602-1.39-.188-2.923.506-2.923.506l3.02-28.404c2.437 1.655 6.88 4.974 6.88 4.974 1.013 15.65.27 28.69 9.022 51.458l.09 15.84h-30.044l-.116-82.706 5.258 3.76c.112.468-.838.156-.326 5.912.463 5.2 2.046 14.216 3.71 28.847zm107.873-212.615c.24.34.222.86.43 1.547 1.215 4.05 5.442 8.915 8.81 10.193 1.18.447 1.64 1.127.957 1.81-.86.86-4.41-1.494-7.033-4.546-2.38-2.772-3.967-5.065-4.32-6.805-.207-1.033-.312-1.697-.158-2.235.436-.602.977-.435 1.315.035zm4.2-.44c.446 0 1.045.524 1.405 1.478.865 2.293 2.22 4.008 4.342 5.49.563.394.786.984.5 1.328-.106.128-.244.19-.4.234-1.653.462-6.008-4.576-6.355-7.703-.077-.68.16-.825.508-.827zm5.42.064c.88-.004 1.302 1.83.792 2.792-.333.304-1.063-.164-1.71-1.37-.557-1.034-.334-1.417.917-1.422zm-2.947.03c.197-.007.604-.112.81.175.34 1.897 1.77 3.27 2.91 4.368.193.36.282 1.113-.137 1.31-1 .44-4.01-2.98-4.03-4.96-.007-.594.175-.885.447-.893zm-3.82 1.2c1.055 3.463 3.61 6.287 5.9 7.752 1.634 1.04 2.265 1.633 1.507 2.164-.188.132-.38.233-.423.226-3.83-1.462-8.54-7.008-8.697-10.933.834-1.068 1.57.128 1.713.792zm-13.256 15.028c-2.014.003-4.48.46-6.484 1.37-2.788 1.265-3.487 2.106-3.08 2.41.292.215 2.087-.555 2.986-.672 4.854-1.2 8.194-1.496 11.358-.117 2.446 1.066 2.46.577.818-1.198-1.19-1.287-3.315-1.796-5.598-1.793zm17.11 2.66c1.607-.016 3.247.36 3.83 1.108.453 2.424-.757 1.316-1.732.833-1.41-.65-3.023-1.212-4.53-.98-.968.148-.995.1-.446-.21.827-.504 2-.738 2.878-.75zm-19.027.944c-4.59.357-6.18 2.678-9.145 5.072-1.218.926-.94 1.643.544 1.4 1.83-.3 2.57-.228 5.068.625 2.728.93 4.683 1.317 6.18.74 2.836-1.088 2.593-.907-1.46 3.017-2.17 1.74-1.293 1.65.903.142 1.623-1.296 2.74-2.123 3.08-2.833.163-.344.178-1.582.483-1.58 1.03 0 .5-1.287-.437-1.834-.616-.438-.478-.897.32-1.74 1.25-1.316.825-1.91-.534-1.09-.24.13-.358-.273-1.187-.774-1.312-.79-2.418-1.16-3.816-1.144zm3.31 1.723c1.11.935.634 1.193-1.787 1.17-2.047-.02-3.79.196-6.22 1.002-2.76.915-2.93.938-1.308-.443 2.23-1.902 6.762-3.808 9.315-1.73zm14.34-.805c1.114-.024 2.054.134 2.902.6 2.312 1.276 2.827 2.38.252 1.48-1.615-.565-3.796-.485-5.304-.068-1.557.432-1.825.583-1.614-.256.258-1.028 1.908-1.715 3.764-1.755zm-18.187 3.76c.55 2.748 2.632 1.85 2.84.192l.76.003c-.324 2.206-3.328 4.052-4.495-.194.247-.006 1.337.07.895 0zm16.622.048l.564-.018c.373 2.106 2.33 2.795 3.18.16l.684.014c-.522 4.393-5.173 2.253-4.428-.157zm-18.217.205c.376.133.548 1.163.485 1.434-.13.563-1.97-.036-2.36-.587.384-.408 1.292-1.053 1.875-.847zm25.024.468l-.005.77c-.85.203-1.202.68-1.996.523.044-.492-.04-1.168.422-1.742.578-.305 1.267.07 1.577.448zm-18.533.89c-.386.302-.914.336-.914.336-.084-.737-.208-1.565.71-1.572.604.176.562.923.204 1.235zm10.598-1.222c.323.023.7.826.745 1.293-.094.77-1.985.462-1.985-.302 0-.323.79-.99 1.24-.99zm-17.31 29.092c-1.46-.73-12.535-7.46-15.37-19.358l-.565 1.217c1.202 2.85 2.976 7.476 2.976 7.476-.074-.397.453 3.1 1.58 9.04-.598.007-1.26-.163-1.91-.336-1.46-5.438-1.806-9.7-3.032-15.022l-.534 1.486s1.542 9.548 2.587 13.28c-.597-.055-1.698-.302-1.698-.302-.87-4.027-1.544-6.728-2.363-10.766l-.753.976c1.08 3.314 1.503 6.278 2.048 9.454-.743-.112-1.49-.184-2.198-.577 0 0-1.117-5.793-1.265-5.877-.427.43-.603.98-.603.98-.045-.05.97 3.212.897 4.555-.71-.116-1.945-.47-2.814-.763-.455.302-.692.806-1.042 1.26.428 1.842 25.835 5.832 24.31 4.308-.008.16 11.203 4.907 17.46.873 0 0 10.883 8.07 15.134 11.293 0 .367 1.472 2.077 3.005 3.165l4.31 3.318c1.25.972 1.75.268 1.94-1.563.213-2.04 1.695-15.785 2.04-18.715 1.294-9.874 1.293-9.77-.207-9.314-2.292.695-4.356-.207-4.356-2.553 0-1.435.664-2.623 2.192-3.178.434-.15 1-.163 1.65-.15.296.053.845.09.904.1.73-.04-2.828-6.48-2.828-6.48s3.4-6.06 5.035-8.315l4.4 7.972-3.603 7.033c7.017-.527 6.33 8.293-.54 5.34 0 0-.04 2.62-.026 2.428.066-.75.056-1.39.293-1.53 6.656 2.52 8.012-7.184.84-6.737 1.18-2.056 2.496-4.183 3.722-6.45l-5.185-9.45-5.858 9.742 2.947 6.083c-.663-.172-1.195-.067-1.904.005-4.342.89-3.41 7.875 1.553 6.915.567-.11 1.42-.54 1.42-.54l-3.204 28.537s-.316.256-1.6-.67c-1.486-1.07-4.595-3.393-4.794-3.632 1.112-18.243-3.452-37.437-8.662-49.455-.33-.922-.135-19.02-.135-19.02l29.546.076.11 84.058c-1.545-.977-3.215-2.264-4.804-3.385-.476-.385-.77-.842-.567-1.577-.523 1.118-.207 1.597-.207 1.597l6.524 5.212-.26 82.724s-10.53-5.428-17.016-8.047c-2.925-1.194-3.056-.85-3.056-.85.01-.005 2.067 4.64 1.48 5.477 1.394 1.34 3.737 4.144 3.85 6.89 1.25 1.08 1.6 1.214 2.535 2.77l3.914-1.415-.89 4.077c4.16 2.914.155 6.833-.616 6.472 0 0 1.836 3.94 2.255 5.733-.658-.044-3.954-1.832-4.872-2.255-2.388 4.7-6.42.756-6.453.063l-4.474 1.992 1.585-5.092c-2.88-1.752-4.827-4.4-.17-7.253l-1.074-3.972 3.83 1.505s.716-1.148 1.26-1.985c-1.433-6.24-10.855-5.06-13.88-10.67 0 0-.744 7.004-1.506 9.54-.297 6.7-4.99-.08-4.99-7.166 0-1.6 2.01-6.985 2.692-7.247.708-.098 7.433 3.153 11.95-.076 2.055-2.138 5.6-8.154 2.194-17.572-1.127-2.177 2.144-2.452 3.206-1.718 0 0 9.828-5.14 14.265-7.616-7.442-4.09-22.92-14.97-22.91-15.487-2.063 3.278-4.428 6.027-7.752 10.66-5.39 6.347-9.602 12.377-16.44 17.447-9.62 7.003-11.878 14.05-9.195 22.327 1.085 3.577 3.27 7.204 6.85 8.46 1.822 1.84 9.138 8.766 9.138 8.766-12.213 11.12-20.598 20.265-26.478 30.37 4.963 2.61 16.935 6.392 16.935 6.392-4.447 14.777-2.423 26.514.507 38.297 0 0-34.75.044-52.78-.522-.155.152-2.106.048-2.132-.077-.07-1.317 3.248-4.94 4.24-4.433.5-.492 1.557-.743 1.367-1.347-2.49-.296-6.264 4.002-6.413 5.78h-1.484c-.304-.265 2.693-7.26 8.7-7.818-.064.25.805-.544.153-.885-7 .83-10.262 8.598-10.055 8.703h-1.08c2.38-7.64 8.578-10.05 12.165-10.38.034-.016 1.163-.41.86-1.08-7.927 1.378-11.88 4.81-13.785 11.46h-1.43c1.032-6.746 7.972-12.656 15.816-12.464.246-.155.547-.34.42-1.106-8.707.98-13.048 3.886-16.625 11.363-3.198-8.304-12.088-12.244-12.194-12.28 0 0-.215-2.323.282-2.227 7.584 2.746 10.48-3.84 10.163-7.666-.175-2.13-.056-3.303-.768-6.372-.635-2.736-1.105-4.58-1.055-5.77.05-1.175.42-1.412 1.287-1.806 1.626-.738 2.644-3.407 2.283-3.733-.836 1.94-3.044 2.276-4.06 3.58-.814 1.074-.456 2.785.99 8.724.882 3.62-.163 1.956-2.22.823l-1.374-.777c.92.947 1.896 1.84 2.835 2.768.84.768.37 1.243-.836.798-1.735-.866-5.08-.503-6.36.587-.5.355-.677.318-.803-.01-.562-9.224.408-14.898 3.463-21.83 1.975-4.712 4.916-8.24 8.84-8.49 3.95-.33 9.634 1.056 14.795 4.56 6.062 4.118 11.97 10.378 12.597 18.06.024.088.466-.658.667-1.052.277-.913-.735-3.655-2.314-6.834-.292-2.39-1.114-6.583-1.76-9.42.49-.223 1.538-.098 1.832.26 1.11 4.69 1.9 8.34 2.852 14.623.013.612.8-.91.803-1.313-.137-.937-2.755-13.23-2.703-12.95.016-.417 2.484.132 2.145.52 0 0 1.877 10.31 2.01 9.992l.635-.875s-1.792-7.53-1.568-8.982c.153-.222 1.54.228 1.98.467.554.74.907 3.428 1.14 5.26.64.488.766-.92.717-1.293-.46-.73-.946-3.452-.58-3.592.286-.11 1.877.52 2.183.793.36.32 1.746-1.6 1.393-1.932-7.505-2.874-16.974-4.55-24.1-4.665-1.655.007-2.312-.226-4.852-1.143-6.467-2.335-11.814-.01-12.598.73-7.896-5.488-16.71-13.15-23.727-18.04-.332-.22-1.118-.348-1.205-.348-1.113 8.512-1.89 18.36-2.84 26.216-.386 3.11-.432 3.352-.29 3.44.124.077.368-.047.464-.097 2.31-.85 4.395-.297 5.5 1.79.556 2.982-2.053 4.944-4.804 3.528-1.02-.525-1.168-.42-.702.573.805 1.79 3.126 6.506 3.126 6.506.004 0-3.136 6.4-4.722 8.14-1.547-2.497-3.52-5.023-4.376-7.75 1.215-2.38 3.51-5.442 4.236-7.786-.103-.075-.728-.01-1.163.216-4.014 1.9-4.66-1.676-4.605-2.96.11-2.613 2.384-3.17 5.69-1.952-3.573-23.732-4.336-37.254-3.423-35.79 0 0-4.314-3.085-6.46-5.177l-.193-172.834 51.626.078c5.262 14.108 3.813 31.075.667 39.91 5.588 1.02 11.232 2.34 17.608 6-10.772 15.793-27.683 32.86-46 43.788-1.037.47-4.448-1.66-4.848-3.76-.093-.488.178-1.45.727-1.433 1.345.436 2.65 1.036 3.963 1.572 0 0-1.83-4.593-.947-5.29.575-.378 1.045-.693 1.414-1.082 1.314-1.698 1.21-3.625-.183-5.105-.56-.587-1.214-.992-1.54-1.142 0 0 1.29-3.583 1.938-5.272l-5.082 1.682c-1.646-2.28-4.672-4.056-6.908-.66-.427.906-.338.767-3.485-.625-1.783-.79-2.882-1.193-2.882-1.193.67 1.99 1.544 3.86 2.31 6.166-3.503 2.232-2.705 5.997.243 7.12l-1.553 5.085s3.31-1.234 5.105-1.713c0 0 1.574 1.582 2.04 3.084.8 2.577 2.62 4.445 3.768 5.51-1.915 1.402-2.86 1.875-5.017 2.912l7.444 3.007c-.462-1.574-1.45-2.742-1.548-4.732-.088-1.706-.185-1.737-1.288-2.89-1.803-1.556-2.074-3.637-3.087-5.336-.706-.427-1.27-1.282-1.797-2.248-1.132.107-3.692 1.38-4.176.923-.594-.634 1.03-3.882.85-4.206-1.306-.11-4.967-2.964-.607-6.142l-1.39-5.17s3.318 1.452 4.91 2.264c1.104-5.166 6.142-2.69 6.957-.463 0 0 3.994-1.313 3.747-.247-.11.956-.76 3.343-.76 3.343 3.592 3.18 2.85 4.74-.07 6.826-.043 1.684.664 4.305.664 4.305s-2.032-.903-3.37-1.282c-.536.536-1.144 1.504-1.042 2.002.908 4.02 5.864 5.138 13.207 9.246.25-2.596 2.043-6.145 2.245-9.26.126-2.273.205-2.31 1.804-1.583 4.206 3.04 2.922 11.39 1.388 14.816-.908 1.94-1.057 1.89-2.822 1.327-2.445-.78-6.768-.465-9.146.34-3.29 1.348-4.84 8.683-4.876 10.912-.058 2.117.105 4.217 1.216 6.833.46 1.674-.385 2.963-1.894 2.515-.34-.1-1.145-.41-1.145-.41l-14.194 7.344 2.674 1.573s-1.97-1.177-.75-1.814l12.17-6.35c2.27.883 1.965 1.064 3.435-.468.88-.906 1.312-.924 2.49-.81 7.176.688 10.354-.357 11.595-3.364.186-.45.115-.435.848-.805 1.357-.527 1.996-1.482 2.065-2.68.045-.786.386-.893.984-1.442 1.116-1.025 1.343-2.31.64-3.63-.33-.622-.584-.818-.447-1.463.23-1.08-.17-2.205-1.207-3.395-1.194-1.37-1.187-1.138 1.063-3.234 4.42-4.2 8.313-7.414 12.61-11.215 2.94-2.6 2.623-2.413 3.767-1.224 4.213 4.38 5.865 11.21 3.968 17.214-.088.282-.128.25.092 0 1.192-1.35 1.225-8.148.207-11.16-1.242-3.705-2.444-5.633-6.55-9.26-2.562-2.313-9.536-8.993-9.536-8.993 10.146-8.798 21.075-19.735 27.203-29.79-3.145-3.372-17.724-6.482-17.724-6.482 1.815-3.764 5.405-20.676-.74-39.43l52.375.606 1.863.126s.28-.107.43-.146c.503-.13.753.222.632.784-.386 1.43-2.486 4.782-3.968 4.505-.66-.256-.475 1.014-.77 1.542 2.335-.303 5.075-3.263 5.76-6.196.377-.617.622-.72.996-.602.432.137.324.548-.144 1.966-1.462 3.55-4.43 6.847-7.876 6.517l-.448 1.212c4.652-.075 8.25-4.437 9.312-7.7.742-1.938.77-2.2 1.517-2.014.618.57.237 1.39.026 2.066-2.338 7.47-8.76 9.468-11.96 9.143-.385-.048-.453.314-.336.928 6.87.454 12.344-5.465 13.118-10.545.376-1.41 1.03-1.892 1.406-1.248.213.57.142 1.15.038 1.69-1.878 8.02-10.426 12.572-15.65 11.272-.24-.226-.634.883-.065 1.278 10.543-.398 13.8-5.838 16.204-10.645 2.87 4.327 5.215 8.79 12.09 11.41 0 0 .684 1.51.144 1.85-.285.177-.72.094-1.35-.008-8.38-1.354-11.15 6.477-7.585 18.176.976 3.203.54 2.713-1.55 4.717-.994.955-1.467 2.65-1.206 2.688.358-.2.476-.75 1.347-1.47.38-.315 1.158-.614 1.732-1.01 1.55-.9 1.536-1.514.98-3.64-.415-1.58-1.468-6.384-1.47-6.872-.002-.92.216-.823 1.368.002 1.608 1.192 2.52 1.106.574-.42-.753-.593-1.243-1.054-1.47-1.385-.31-.452-.12-.744.51-.547 2.886.905 5.365.84 8.167-.866.322 7.717-.74 19.426-7.206 27.798-4.96 5.57-14.457 1.355-17.97-.404zm7.597-17.734c-.193.01-.885.152-1.313.397-1.906 1.09-1.45 4.958.627 5.473.836.207 1.595.32 3-.35.837-.4 2.01-.71 2.337-.574.69.288.91-.323 1.056-1.01.33-1.538-2.193-1.575-4.2.015-2.532 2.006-4.474-.954-2.087-3.183.795-.514.77-.78.58-.77zm-19.674 8.278l2.127 2.458 1.337 5.858c-.81.138-1.794-.312-1.794-.312-.663-2.65-1.31-5.303-1.67-8.004zm28.97 1.474c-.023.002-.048.008-.073.02-.09.038-.486.217-1.034.278-.315.035-.793-.19-1.134-.17-.93.06-1.8.333-2.034.43-.287.118-.568.167-.813.023-.695-.41-2.718-.293-3.333.068-.728.31-1.547.314-2.145.005-.257-.134-.52-.47-.567-.424-.095.096-.484 1.754-.6 2.395.002.225-.157.6-.064.64.12.047.5-.3.973-.54.966-.493 2.046-.455 3.943.01 2.34.573 3.253.407 4.635-.298 1.102-.562 1.77-.697 2.502-.496.18.05.66.3.726.236.13-.124-.225-.818-.53-1.505-.22-.497-.3-.692-.45-.673zm-25.263 2.643c2.057 1.95 1.902 1.782 3.2 2.745l-.063 1.877s-1.59.035-2.37-.207c-.247-.73-1.317-4.397-.767-4.416zm16.917 1.262c.14.094.34.195.62.29 3.275 1.228-.15.918-.477 2.088 0 .105.15.122.31.058 1.124-.44 3.87-.727 5.117-.485 1.62.547 1.722.17.164-.644-1.14-.45.242-.754.707-1.147.966-.623.302-.88-.93-.29-1.23.592-3.423.582-4.422.022-.442-.224-.872-.433-1.077-.446-.418-.017-.196.42-.01.553zm-12.888 2.102l1.916 1.498-1.96-.188zm-43.4 37.64c-.387 0-.702.315-.702.702 0 .387.315.702.702.702.387 0 .702-.315.702-.702 0-.387-.315-.702-.702-.702zm2.558.708l-8.79 4.173 2.323.777-.018 2.405 2.14-.682.906 2.245zm.39 1.965c-.388 0-.703.315-.703.702 0 .387.314.702.7.702.388 0 .703-.316.703-.703 0-.387-.315-.702-.702-.702zm-11.143 4.27c-.388 0-.703.31-.703.697 0 .387.315.702.702.702.386 0 .7-.315.7-.702 0-.387-.314-.697-.7-.697zm2.7 1.306l-9.866 4.533 2.924.89-.772 3.01 2.382-1 1.33 2.02zm.29 2.158c-.387 0-.702.315-.702.702 0 .387.315.702.702.702.387 0 .698-.315.698-.702 0-.387-.31-.702-.698-.702zm-19.575.45c3.71-.004 7.87 1.408 9.29 4.584.378 1.588-1.182 2.533-4.515 1.62-5.51-1.51-6.536-1.68-5.62-.745.12.123.362.426 1.187.707 2.075.707 6.09 1.525 7.174 1.414 1.48-.197 2.506.492 2.136 1.726-.42 1.4-2.342 1.975-5.232 1.568-2.993-.422-4.64-.767-5.635-1.068-1.278-.386-1.323-.353-.718.543.315.467.346.84.813.928 1.976-.11 4.08.267 5.895.438 3.258.292 3.768 1.215 1.376 2.626-1.134.667-4.526.484-6.454-.21-1.377-.496-4.535-1.204-3.318-.243.293.23.193.797.703.976 1.67.23 6.392.56 7.13 1.23.476.43-.595 1.522-2.8 2.092-3.318.63-8.28.366-9.59-.528-2.427-4.942-1.122-13.03 2.677-16.19 1.213-.95 3.276-1.465 5.5-1.468zm21.754 2.578c-.388 0-.698.316-.698.703 0 .386.31.696.697.696.386 0 .7-.31.7-.697 0-.388-.314-.704-.7-.704zm2.93.75l-10.187 5.073 2.576.764-.61 2.964 2.386-.984 1.446 1.994zm.078 2.482c-.387 0-.702.315-.702.702 0 .387.315.702.702.702.387 0 .702-.315.702-.702 0-.387-.315-.702-.702-.702zm5.925 5.982c-4.518 4.396-9.61 7.88-14.26 12.148l1.008-.04 2.535-2.286 71.36-.224-1.667 2.434.702.3s2.14-3.163 1.994-3.31c-15.678.046-27.78.01-44.98.13-3.134-3.106-6.445-6.015-9.722-8.964zm-21.692 2.82c-.385 0-.7.314-.7.7 0 .388.315.703.7.703.388 0 .7-.315.7-.702 0-.386-.312-.7-.7-.7zm93.163.536c6.164 4.574 13.468 10.185 19.53 13.515 2.427 1.056 2.192 1.415-.275 2.58-2.424 1.508-6.46 3.45-9.824 5.146-1.458.55-2.095-.167-3.13.024-.747.19-.96.33-1.404.92-.73.963-.53.93-4.43.753-3.932-.177-5.554-.09-6.4.342-.813.414-2.207 1.83-2.207 2.42 0 .564-.445 1.29-1.255 1.533-.943.23-2.032.976-1.986 2.135-.252.872-.786 1.26-1.26 1.737-1.12 1.13-1.01 2.02-.684 3.07.15.47.378.362.262 1.753-.267 3.187-.486 2.918 2.923 5.277l-17.42 15.18c-.405.318-.524.286-.89.034-2.125-1.578-3.604-4.185-4.456-6.793-2.943-8.106.65-14.767 5.427-18.843 1.655-1.412 3.878-3.096 4.497-3.52 8.995-7.67 16.818-18.533 22.983-27.26zm-90.56.593l-9.96 4.702 3.207.54-.614 2.77 2.324-.88 1.23 2.337zm.608 2.197c-.386 0-.7.315-.7.702 0 .386.314.696.7.696.388 0 .698-.31.698-.697 0-.388-.31-.703-.697-.703zm91.26 3.083l-1.13-2.673s-3.148 7.748-3.813 10.374c2.665-1.373 10.473-5.347 10.473-5.347l-3.34-.62.377-3.035zm-113.765.48c-.387 0-.702.314-.702.7 0 .388.315.703.702.703.387 0 .702-.315.702-.702 0-.386-.315-.7-.702-.7zm3.05.638s-7.41 3.478-10.755 4.978l3.123.655-.55 3.037 2.82-1.1 1.137 3.002zm.397 2.294c-.387 0-.702.315-.702.702 0 .387.315.697.702.697.387 0 .702-.31.702-.696 0-.387-.315-.702-.702-.702zm104.872.505c-.387 0-.702.31-.702.697 0 .387.315.702.702.702.387 0 .697-.315.697-.702 0-.387-.31-.697-.696-.697zm12.117.634l-3.526 9.804 9.54-4.803-2.59-.706.013-2.425-2.13.62zM319.924 525.8c-.387 0-.702.315-.702.702 0 .387.316.702.703.702.387 0 .702-.315.702-.702 0-.387-.315-.702-.702-.702zm104.337.178c-.387 0-.698.315-.698.702 0 .387.31.697.698.697.387 0 .702-.31.702-.697 0-.387-.315-.702-.702-.702zm-101.412.72l-10.108 4.93 3.137.735-.344 3.156 2.55-1.448 1.385 2.878zm.632 2.083c-.387 0-.663.315-.663.7 0 .388.315.7.702.7.386 0 .696-.312.696-.7 0-.385-.35-.7-.736-.7zm105.114.62c-.387 0-.702.314-.702.7 0 .388.315.7.702.7.387 0 .702-.312.702-.7 0-.386-.315-.7-.702-.7zm-13.93 3.224l-.938-2.64-3.74 9.678 10.057-4.607-3.19-.75.055-2.526zm-10.217-2.084c-.115-.006-.216.026-.216.1 0 .225-2.57 2.736-2.57 2.736l-29.683.274c.06.005 2.47.67 2.47.67 3.895 3.112 9.997 8.63 9.997 8.63l7.37-.293c4.08-4.006 10.21-7.053 12.945-12-.067-.068-.198-.11-.313-.117zm27.824 1.995c-.386 0-.7.315-.7.702 0 .387.314.697.7.697.388 0 .698-.31.698-.697 0-.387-.31-.702-.697-.702zm-22.913 3.38c-.387 0-.697.31-.697.696 0 .388.31.703.697.703.387 0 .702-.315.702-.702 0-.386-.316-.696-.703-.696zm15.07 1.012c2.127-.01 4.176.062 4.707.467 3.288 2.77 1.73 15.712-2.416 17.347-4.548 1.025-7.695 1.214-11.643-1.39-1.12-.545-3.34-2.195-2.907-3.557.59-1.674 2.217-1.552 6.88-.1 1.703.528 2.64.422 3.073.09.407-.31-.124-.655-.994-.66-.35 0-1.858-.372-3.116-.758-1.775-.546-2.286-.707-3.433-.775-1.93-.114-2.49-.19-2.49-1.37 0-2.205 3.064-2.496 8.707-1.202.675.154 1.898.326 2.198.317.217.083-.43-.73-.54-1.216-.203-.175-.567-.257-1.528-.29-3.63-.356-6.64-.602-6.706-1.077-.32-2.334 4.373-2.97 9.24-1.096 1.25.48 1.275.28 1.265-.082-.018-.673-2.11-1.847-5.196-1.814-3 .032-2.582-1.493-.115-2.64.843-.39 2.886-.182 5.014-.193zm-11.608 2.5c-.388 0-.698.316-.698.703 0 .387.31.702.697.702.386 0 .702-.315.702-.702 0-.387-.316-.702-.703-.702zm-10.815 4.844l-.635-2.614-4.084 10.176 10.315-5.253-3.4-.64.298-2.14zm-5.256 4.087c-.388 0-.703.315-.703.702 0 .386.315.7.702.7.386 0 .696-.314.696-.7 0-.388-.31-.703-.697-.703zm10.275 2.887l-.868-2.473-3.47 8.86 8.803-3.933-2.6-.71.37-2.683zm-7.006.026c-.388 0-.703.315-.703.702 0 .387.315.702.702.702.386 0 .696-.315.696-.702 0-.387-.31-.702-.697-.702zm2.252 3.383c-.387 0-.702.31-.702.697 0 .387.315.702.702.702.387 0 .697-.315.697-.702 0-.387-.31-.697-.698-.697zm-4.423 2.074l-2.97 8.39 8.27-4.004-2.418-.796s.133-1.887-.095-1.8c-.144.056-1.7.49-1.7.49zm7.36 1.003c-.387 0-.702.31-.702.698 0 .387.315.702.702.702.387 0 .702-.315.702-.702 0-.387-.315-.698-.702-.698zm-10.964 4.036c-.387 0-.702.315-.702.702 0 .387.315.702.702.702.387 0 .702-.315.702-.702 0-.387-.315-.702-.702-.702zm3.16 3.246c-.386 0-.7.31-.7.697 0 .386.314.7.7.7.388 0 .703-.314.703-.7 0-.388-.316-.698-.703-.698zm-43.62 38.637c-.378.056-1.362-.844-1.554-1.266.56-.143 1.14-.038 1.454.225.26.246.444.878.1 1.04zm2.995-.607c-.132 1.025.502 2.878.382 3.318-.325.16-1.97-1.604-2.376-2.033-.084-.586.006-1.33.04-1.665.565-.1 1.567-.063 1.955.38zm2.964.51c.35 2.27 1.35 5.923 1.195 7.155-.15-.12-1.418-1.37-2.355-2.696-.33-.794-.842-3.56-.798-4.882.63-.087 1.48.014 1.957.423zm-19.847-.256c-1.012.516-2.162.888-3.606.882-1.157-.006-3.15-.606-2.95-.46.528.944 1.905.45 1.932 1.065-.343.61-1.258.55-1.714 1.135-.095.154.135.285.78.217 1.956-.887 4.512-.87 6.85-.103.492.103.17-.368 0-.493-.302-.222-.804-.455-1.227-.506-2.042-.363-1.144-.57.223-1.18 1.003-.366 1.255-1.268-.286-.557zm4.426 2.886c-.272.022-.952.367-1.698.67-1.258.507-2.422.388-4.116-.083-1.47-.41-2.007-.296-3.47.442-.973.622-2.036.796-2.806.36-.997-.566-.99-.372-.496 1.03.123.35-.12 1.41.313 1.654.33.186.712-.433.968-.52.255-.085 1.86.635 2.755-.158 1.597-.58 2.077.36 3.183.27 1.796-.634 2.92-1.294 4.462-.07.092-.46.45-2.96 1.025-3.55-.015-.036-.058-.05-.12-.045zm-3.27 7.2c-1.294.014-1.993.808-3.66.656-1.33-.094-1.787 1.086-1.223 1.947.397.606.93.717 2.743-.114.746-.342 1.784-1.095 2.39-1.034 1.775.176 2.204 1.89.726 3.34-.72.424-.727.883-.507.89.584.023 1.767-.675 2.035-1.488.736-2.228-.586-4.24-2.506-4.2zm5.796 10.264c-1.682.355-4.105 2.285-4.93 3.534-.77 1.22-1.508 2.595-.97 3.275.442.558 1.06 1.1 1.113 1.4.046.265-.315.527-.652.905-1.476 1.65-1.124 1.742.946.67 1.05-.544 1.537-.762 2.222-.583 1.995.52 4.48.15 6.17-.47.762-.282 1.51-.662 1.567-.468-3.083 3.392-6.927 2.538-8.3 2.332-.24-.063-.424-.048-.423.033 0 .165.398.523 1.245.9 1.417.628 4.82-.04 6.95-1.592 4.207-2.753 6.527-5.384 3.21-4.285-1.52.505-2.09.416-3.937-.418-2.77-1.25-4.89-1.618-7.184-.818-2.906 1.014-.677-1.38 2.59-3.457.71-.45.798-.965.383-.958zm-15.673 7.157l-.968.014c-.695-2.334-2.37-2.33-3.094.015l-.81-.058c.794-2.91 3.788-3.508 4.87.03zm17.235.192l-.728.033c-.44-1.414-1.997-2.658-3.093-.34l-.504-.105c.896-3.7 4.468-1.642 4.326.41zm-4.854-2.126c.454 0 .568.515.053 1.352-.362.59-.793.535-1.225.09-.39-.39-.367-.46.058-.845.452-.412.843-.597 1.115-.597zm5.362.015c.197-.006.57.156.992.298 1.104.373 1.355.682.902 1.135-.444.444-1.288.58-1.678.326-.018-.556-.568-.984-.587-1.542 0-.15.173-.21.37-.217zm-17.306.02c.766-.036 1.793.417 1.718.86-.082.483-.838.8-1.46.85-.418.056-.4-.113-.51-.41-.098-.264-.223-.6-.295-.865-.17-.508.155-.42.547-.436zm-5.238.167s-.43 1.277-.62 1.712c-1.604-.086-1.452-.792-.695-1.303.408-.31.82-.315 1.316-.408zm-1.244 3.035c.29.005.65.256 1.154.418 1.42.457 3.777.405 5.616-.02.88-.203 1.298-.476 1.49-.336.346.248-.01 1.118-1.283 1.677-1.658.61-4.184.943-6.098-.033-1.638-.835-1.82-1.724-.88-1.707zm-.438 1.827c1.5.99 3.004 1.304 4.86 1.132 2.782-.102 3.277-.445.934.796-2.164 1.147-5.502.936-6.145-.308-.368-.712-.13-1.56.35-1.62zm13.474 1.664c-.01 0-.018 0-.024.004.224 1.5 2.743 2.874 3.952 3.198 2.566 1.138 6.644.01 9.714-1.313 2.24-.966 3.05-2.425.38-1.596-4.297 1.335-9.69 1.436-12.39.4-.88-.416-1.482-.7-1.632-.692zm-14.14 5.618c5.378 1.213 11.876 9.505 11.852 13.13h-1.736c-2.644-9.222-9.51-11.218-10.18-11.77-.308-1.13.078-1.387.065-1.36zm-.084 2.336c6.39 2.8 8.662 7.792 9.62 10.794h-1.87c-1.39-4.13-3.892-7.076-7.765-8.91-.263-.575.014-1.884.014-1.884zm-.01 2.827c3.275.964 6.162 5.274 6.982 7.966l-1.634-.01c-1.16-3.003-2.8-4.93-5.41-6.04-.108-.565-.086-1.205.062-1.918zm-.053 2.927c1.54.31 4.142 2.7 4.517 5.04h-1.5c-.53-1.578-2.165-3.02-3.004-3.607l-.012-1.433zm.16 2.5c.164-.105 2.46 1.962 2.073 2.54h-2.068c-.024-.643-.038-2.548-.005-2.54z" fill="#131f67"/><path d="M382.595 397.364c-3.898 7.548-23.893 41.543-24.096 42.726l5.12 2.264 24.86-44.816s-5.15-.168-5.885-.174zm58.698 28.39l-2.322 3.266 1.977 3.582 2.005-3.544zm-91.337 34.108s-7.17 7.124-9.972 10.446c6.023 6.01 17.535 13.556 17.62 25.167l7.937.03 25.694 22.98s23.265.17 23.7.068c.467-.11 8.734-11.942 8.734-11.942l14.743 10.75s-.706-11.576-1.263-18.67c-.183-4.744-.34-7.662 3.128-9.762-4.765-2.27-4.464-6.447-.96-9.513-1.156-1.598-2.883-1.894-3.143-7.56-.73-.782-1.42-1.24-2.332-1.905l-.952.852c-3.06 2.746-5.144 5.547-5.487 7.37-.652 3.473 2.873 5.85 4.91 3.314.575-.714 1.087-.514 1.088.42 0 1.89-2.38 2.96-4.396 1.975-.47-.23-.886-.382-.928-.34-.072.073 2 5.146 2.56 6.265.93 1.862 1.417 3.732 1.49 5.69.076 2.09.034 2.356-.943 5.966-.92 3.403-.486 5.425 1.16 5.425.926 0 .897.89-.04 1.217-1.988.694-3.223-.773-3.293-3.905-.042-1.903-.075-1.95-1.053-1.49-3.402 1.6-7.097-1.26-5.496-4.25.336-.63.734-.43.942.465.392 1.683 1.274 2.425 2.866 2.42 3.672-.015 5.21-5.202 3.092-10.426-.425-1.048-.64-.99-1.197.337-.875 2.08-2.342 2.69-3.553 1.48-.405-.405-.602-1.063-.327-1.096.064-.007.468-.024.895-.038 2.14-.07 2.878-2.145 1.875-5.267-.88-2.742-1.017-3.24-1.28-4.726-.404-2.298-.12-4.042 1.016-6.27.2-.395 1.455-1.796 3.015-3.372 1.593-1.608 2.963-2.842 2.963-2.842s-.806-.694-1.898-1.514c-2.3-1.73-2.707-2.027-2.707-2.027S417.225 495.603 418 507.3c-1.388 15.41-12.717 11.146-13.55.473zm-.488 4.5c3.737-.06 6.2 4.88 7.607 15.134.466 3.397 2.537 8.156 4.04 9.28 3.79 2.838 9.723.65 9.727-3.587.006-5.277-7.4-6.06-7.516-.794-.026 1.24-.663 1.305-1.274.125-.544-1.052-.054-3.02 1.005-4.015.68-.637.626-.757-.668-1.47-4.508-2.49-6.425-6.2-4.016-7.777 1.053-.69 2.492.183 1.832 1.11-1.033 1.452-1.046 1.682-.183 2.886.98 1.37 2.143 2.053 4.9 2.866 2.315.683 2.696.81 3.765 1.3 3.13 1.425 4.56 4.566 3.467 7.615-.258.72-.508 1.43-.558 1.578-.112.334.072.336 2.275.043 3.505-.467 7.4.786 9.32 2.996 1.03 1.188 1.858 3.86 1.884 6.087.005.43.137 1.398.298 2.154.16.755.375 2.033.47 2.837.918 7.628 7.27 11.53 10.013 6.15 1.727-3.384-2.267-6.77-4.3-3.644-.713 1.098-1.45.593-1.038-.712.798-2.535 3.964-2.966 6.12-.83 1.166 1.153 1.725 3.77 1.16 5.432-.298.872-.266.927.38.702 1.448-.505 3.953-.02 4.85.943 2.118 2.266 1.694 4.986-.912 5.867-1.186.397-2.528-.015-2.967-1.404-.192-.99.49-1.274 1.015-.423.986 1.595 3.132.31 2.626-1.572-.576-2.14-2.406-2.596-5.784-1.433-5.37 1.848-7.104 1.693-9.675-.86-1.834-1.825-2.525-3.4-3.02-6.877-.545-3.84-.597-3.94-1.547-3.13-4.545 3.866-10.55-1.977-6.7-5.82 1.192-1.19 2.068-.153.997 1.18-1.564 1.942.475 4.65 3.03 4.02 4.65-1.15 3.7-7.956-1.333-9.546-1.534-.485-5.75-.284-8.992.428-9.053 1.987-13.053-1.877-14.916-14.397-.22-1.463-.474-2.544-1.333-5.694-1.02-3.737-4.488-5.765-6.38-3.732-1.51 1.62-.717 3.803 1.384 3.808 2.095.006 1.453 1.44-.73 1.635-3.788.338-4.447-5.968-.813-7.774.887-.44 1.716-.67 2.49-.683zm-49.44 2.328l1.175 4.487 4.68 1.323-1.483-4.27zm12.01 1.34l-1.257 4.06 3.55-.87 1.157-4.235zm38.507 6.647c.744 0 1.347.603 1.347 1.347 0 .743-.603 1.346-1.347 1.346-.743 0-1.346-.603-1.346-1.346 0-.744.602-1.347 1.345-1.347zM305.42 477.1l-3.693 1.292-.71 3.22 3.863-.997zm8.805 1.018l-3.015-.52.848 3.323 3.193 1.306zm130.91-.255l-1.94 1.51c5.653 4.912-.448 9.647-.638 9.326 4.087 2.704 3.36 6.97 2.828 10.876-.967 6.97-1.344 13.56-2.4 20.7 0 0 4.925 3.4 8.2 4.714.06.007.02-41.902.02-41.902zm-69.758 6.31c.744 0 1.346.604 1.346 1.348 0 .744-.602 1.347-1.346 1.347-.744 0-1.346-.603-1.347-1.346 0-.743.603-1.346 1.347-1.346zm-82.652 3.447l.17 39.108 8.094-14.475-5.57-6.425 4.813-5.14zm78.824 5.96c.743 0 1.346.603 1.346 1.346 0 .744-.603 1.347-1.347 1.347s-1.347-.603-1.347-1.347c0-.743.603-1.346 1.346-1.346zm18.378 4c.743 0 1.346.604 1.346 1.347 0 .744-.603 1.347-1.346 1.347-.744 0-1.347-.603-1.347-1.347 0-.743.604-1.346 1.348-1.346zm52.644 43.567l5.946 6.103-4.644 5.783 7.313 12.41-.118-38.397zM292.65 528.303l.282 42.062 6.36 4.64 1.61-1.524c-4.102-4.38-1.65-7.64 1.442-9.526-5.457-1.27-3.8-8.508-3.474-11.862-.134-6.227 2.148-13.33 1.446-19.318zm36.62 5.847l-9.113 12.696s-10.013-7.584-15.062-11.006c.54 5.48 1.033 12.468 1.703 18.362 1.637 8.606-2.626 8.754-2.665 9.578 6.776 5.142 1.09 9.95.07 9.71 3.608 1.964 3.31 7.932 3.31 7.932l1.712.968s.557-.34.793-.466c1.83-.985 4.813-4.494 5.496-6.81 1.16-3.925-2.25-7.186-4.395-4.202-1.054 1.466-1.898.486-1.035-1.202.788-1.54 2.845-2.314 4.213-1.582.795.426.617-.68-.61-3.77-.413-1.037-.748-2.168-1.328-4.462-.56-2.22-.343-4.895.63-7.617 1.403-3.927.905-6.39-1.342-6.603-1.198-.115-1.328-.49-.35-1.044 2.18-1.236 4.298.524 4.212 3.506-.047 1.61-.03 1.638.822 1.297 4.306-1.727 7.708 2.74 4.698 6.17-.92 1.047-1.5.382-.895-1.025.936-2.174.045-3.724-2.144-3.74-3.175-.025-4.933 4.363-3.683 9.188.39 1.506.45 1.525 1.506.52.936-.893 1.635-1.18 2.36-.962 1.504.45 1.898 2.05.457 1.85-2.476-.34-3.126 2.254-1.726 6.868 1.858 6.12-.023 11.11-5.52 14.656-.278.18-.72.525-.72.525 2.12 1.89 3.475 2.962 6.277 4.67l10.006-40.425s-.17-2.296-.415-3.378c-.007-10.85 10.117-11.89 13.285-2.038.304.946 1.915 3.362 1.915 3.362l52.705 46.77s9.84-9.51 9.705-9.76c-7.475-7.534-17.57-12.86-17.938-24.815-1.792-.05-7.78.06-7.78.06l-25.628-23.506c-8.043.05-15.176-.524-23.524-.277zm14.36.88c1.408-.044 2.828.687 2.828 1.86 0 1.014-.68 1.246-1.24.424-.786-1.148-1.698-1.24-2.626-.264-2.572 2.704 1.424 5.175 6.02 3.722 2.815-.89 4.177-1.13 5.208-.924 4.342.87 6.438 3.8 6.81 9.507.187 2.9.182 2.89 1.437 1.74 3.054-2.798 7.468-1.24 8.155 2.88.295 1.77-1.61 3.997-3.42 3.997-.71 0-.596-.74.17-1.106 1.84-.878 1.913-3.78.124-4.914-2.374-1.506-5.5.842-5.462 4.1.046 3.92 2.972 5.724 8.752 5.392.846-.05 2.97-.148 4.717-.22 2.76-.12 5.727-.64 8.54 1.485 2.946 2.34 4.9 6.998 5.737 13.727 1.317 8.282 2.334 10.502 5.116 10.7 1.65.12 3.05-1.287 3.05-2.92-.002-1.15-1.524-2.165-2.68-1.783-1.395.46-1.677-1.052-.303-1.626 1.904-.795 4.23.738 4.746 3.13.3 1.395-1.273 4.07-2.924 4.738-4.306 1.742-7.37-1.816-8.377-9.777-.62-3.652-.96-6.113-2.097-9.233-2.09-5.744-5.523-8.114-9.262-6.396-4.233 1.947-3.393 8.285 1.093 8.238 2.464.195 2.98-1.615 3.03-3.554.06-1.43 1.68-.087 1.818.897.134 1.195-.936 2.672-1.88 3.37-1.528 1.023-.985.96.577 1.37 4.198.774 7.32 6.33 4.808 8.216-1.304.796-2.69-.375-1.785-1.525 1.437-1.827-.996-4.714-5.425-5.684-5.8-1.27-8.11-5.59-6.018-10.026.692-1.47.752-1.434-2.078-1.275-6.226.352-8.437-.51-10.527-4.116-.63-1.09-.91-2.546-1.043-5.44-.24-5.18-.713-8.387-1.366-9.29-3.232-4.47-9.958-3.133-9.117 1.813.442 2.597 3.125 3.43 4.958 1.54 1.384-1.43 2.03-.102.678 1.393-3.25 3.6-8.908-.602-7.228-5.366.385-1.09.437-1.056-1.65-1.116-4.64-.133-6.846-4.103-3.855-6.93.523-.494 1.253-.73 1.99-.754zm11.195 17.042c.743 0 1.346.603 1.346 1.346 0 .744-.602 1.347-1.345 1.347-.744 0-1.347-.603-1.347-1.347 0-.743.603-1.346 1.347-1.346zm18.652 4.78c.744 0 1.347.603 1.347 1.346 0 .744-.603 1.347-1.347 1.347-.743 0-1.346-.603-1.346-1.347 0-.743.604-1.346 1.347-1.346zm-4.005 8.785c.743 0 1.346.603 1.346 1.346 0 .744-.603 1.347-1.346 1.347-.744 0-1.347-.603-1.347-1.347 0-.743.603-1.346 1.347-1.346zm59.276 5.237l.853 3.982 3.09.813-.48-3.413zm10.81 1.378l-.067 2.362 2.75.323.972-4.07zm-46.15 3.565c.745 0 1.348.603 1.348 1.346 0 .744-.603 1.347-1.347 1.347s-1.347-.603-1.347-1.347c0-.743.603-1.346 1.346-1.346zm39.478 5.485l-3.232.897-1.552 4.486 4.137-1.498zm6.32.404l.396 3.325 3.98 1.8-1.346-4.74zm-58.677 28.342l-24.715 44.68 6.754-.095 23.325-42.13zm-77.73 10.816l-2.183 2.938 2.073 3.41 2.38-3.424z" fill="#d40000"/><path d="M275.933 381.58c-3.044.015-6.1 2.064-6.958 6.05-.192.89-.267 2.43-.332 6.737-.097 6.383-.16 5.867-.16 5.867l-2.735-.067.144 3.553 2.92.024c-.015.017-.064.21.028 2.217.23 5.005 1.01 6.783 3.847 8.128 1.918.91 5.463.904 7.07-.356.97-.616 1.067-.61 2.22.1 2.452 1.515 4.472.693 4.472.693l-.068-3.635c-3.865-.06-4.378-.974-3.366-3.486.07-.176.08-.504.11-.933.285-4.047.17-17.69-.28-19.315-1.01-3.664-4.054-5.586-6.913-5.574zm-.332 3.58c1.39.006 2.81.946 3.453 2.697.682 1.85.672 1.69.87 13.093.098 5.613-.137 5.59-.137 5.59-2.155-2.855-4.88-4.96-7.865-5.95 0 0 .057.265 0-5.267-.057-5.713.012-6.942.863-8.433.674-1.18 1.736-1.737 2.818-1.73zm69.197 11.086c4.55 13.797 4.973 27.393 1.024 40.456 2.25.115 12.067 2.632 17.47 5.967-1 2.57-16.318 21.408-26.716 29.9 2.955 2.927 6.208 5.853 9.627 9.08 5.17 4.904 6.997 8.282 7.34 14.65-.048 3.075-1.15 6.87-3.107 9.555-1.48 2.03-3.052 3.592-6.204 5.68-2.908 1.925-7.158 6.07-12.503 12.18-2.037 2.33-5.476 6.57-8.324 10.617-1.077 1.47-4.25 6.06-4.25 6.06-10.583-8.636-21.917-15.298-22.207-15.247 0 0 11.435-6.094 13.84-7.336 1.847 1.185 4.356.17 3.152-2.438-2.315-5.938-.7-12.05 2.142-16.316.68-1.028 2.32-1.628 4.972-1.813 1.15-.075 2.368-.038 3.587-.053.44 0 1.624.17 2.274.524 2.16 1.18 2.594-.337 3.943-5.448 1.34-5.085-.818-11.515-3.895-11.536-.724-.005-1.13.262-.98 2.07.112 1.367-.217 2.075-.57 2.936-.766 1.88-1.174 3.718-1.418 6.17.45.09-2.858-3.29-8.068-4.63-3.386-.402-5.105-4.618-4.963-4.627 0 0 .507-1.143.953-1.588 1.156.553 2.292 1.203 3.664 1.606 0 0-.316-1.694-.438-2.15-.63-2.355-.595-2.713.313-3.202 2.25-1.212 2.487-3.38.73-5.352-.443-.504-.817-.828-1.413-1.082l1.11-4.424s-1.017.22-1.83.467c-2.357.715-2.18.74-3.185-.404-2.185-2.488-5.522-2.015-6.02.857-.055.317-.202.822-.202.822l-5.023-2.44c.146 1.18 1.45 5.17 1.45 5.17-4.394 3.414-.68 6.438.52 6.757 0 0-1.027 3.267-1.38 4.625l4.956-1.416c.417.944.93 1.66 1.96 2.322.27 2.79 2.42 5.037 3.9 6.39 0 0 .213 1.02.084 1.672-.32 1.622 1.33 4.19 1.608 4.343-6.803-2.783-13.895-6.122-20.74-9.4l.427 84.145s1.594 1.428 4.756 3.693c1.52 1.09 1.518 1.093 1.202 2.347-.417 1.654-.314 2.916 1.096 13.8.748 5.757 1.562 11.727 2.29 17.08.29 1.95.33 3.202.33 3.202-1.512-.7-3.712-.772-4.85.505-1.962 2.235-.392 5.833 2.515 5.756.66-.04 1.11-.23 1.678-.62.394-.21.8-.026.8-.026l-4.338 7.622 4.994 8.408 4.98-8.992-3.622-7.112s.353-.04.844.207c.487.244 1.142.43 1.597.457 2.526.02 3.045-1.133 3.312-3.208 0-2.67-2.125-3.876-5.05-2.87-.458.158-.965.202-.965.202l3.067-29.347 1.645 1.208.538-.294-1.438-1.226c.312-4.702-1.24-6.368-2.915-7.506 5.603-3.187 3.175-8.225-.55-9.776 0 0 2.42-1.414 2.905-2.9.413-1.325.26-3.43-.21-7.16-.35-5.752-1.586-17.638-1.586-17.638 4.895 3.69 9.92 7.64 14.647 11.373l9.474-13.165 22.83.158s17.354 15.755 26.088 23.79l7.54.066s.082.805.158 1.34c.715 7.78 5.933 13.122 10.685 16.87 1.937 1.74 6.722 6.308 6.722 6.308l-8.872 8.944-54.327-48.524s-.26-.708-.366-1.14c-1.254-5.14-4.66-7.29-7.756-6.93-3.25.382-6.02 3.582-5.88 9.027.02.843.326 2.328.326 2.328l-9.925 41.34s-3.97-3.03-6.112-4.487l-.47.274 5.808 4.366.433-.187 1.65 1.287.124.88c5.082 3.458 13.7 9.91 13.7 9.91 4.068-3.022 8.344-2.012 12.627-.874 0 0 3.114 1.04 4.77 1.034 8.416.19 15.87 1.823 23.692 4.65l-28.516 50.548 54.318.11c-2.677-10.58-5.522-21.327-.437-39.373-5.357-1.08-17.268-5.847-17.268-5.847s-.057-.27.447-.89c2.202-3.148 7.77-11.683 12.988-16.618.636-.455 9.73-9.28 9.82-9.56.05-.156.268-.752.625-.985.838-.56 3.066-2.667 3.066-2.667l-11.382-9.87s-.5-.048-.66-.138c-1.59-.89-4.46-5.847-5.166-9.166-1.625-7.634 1.376-13.67 9.844-19.868 8.267-5.66 23.943-27.634 23.995-28.12 8.453 6.997 15.052 10.62 22.49 15.21-4.494 2.577-8.157 4.3-11.3 6.004-2.04 1.164-2.32 1.407-4.045.92-1.953.015-2.62.768-2.125 2.45 2.956 4.672 1.687 15.547-2.31 17.643-3.47 1.818-6.843 1.325-9.63.293-2.15-.69-2.123-.696-3.082 1.255-2.11 4.495-2.245 8.28-.297 12.59 1.598 3.46 3.973 5.037 4.266.372.17-2.74 1.378-5.94 1.34-8.884 2.422 2.675 4.03 3.898 8.006 4.987 2.667.415 5.5 3.76 5.412 5.124-.732.74-.955 1.685-1.074 1.618-1.3-.425-4.112-1.62-4.112-1.62l1.197 4.23s-.198.192-.775.486c-2.648 1.352-2.477 5.004.303 6.464.566.297.606.437.365 1.216-.345 1.736-1.104 2.9-1.514 4.622 0 0 .377.013 3.547-1.453l1.246-.578.75.803c1.642 1.756 3.615 1.746 5.338-.03l.79-.81 2.202 1.114c2.075 1.05 2.62 1.27 2.62 1.27s-1.196-4.644-1.418-5.175c-.12-.287-.365-.578-.544-.645-.296-.11-.25-.178.54-.803 1.995-1.582 2.195-3.765.494-5.424-.648-.632-.73-.764-.73-.764l1.033-4.305-4.287 1.42c-.677-1.44-1.752-2.094-2.43-2.387-.073-1.942-.317-3.938-3.654-6.974 1.124-1.027-.213-3.502-1.314-4.987 1.877.63 6.572 2.617 6.572 2.617l.71-.03 2.24 1.076.264.398s7.052 3.328 10.29 4.885c-.008-.173-.034-3.657-.043-42.003-.006-22.862.032-41.666-.015-41.787-.046-.12-.82-.715-1.625-1.322-1.484-1.12-1.79-1.338-3.674-2.596-1.51-1.01-1.41-1-1.095-2.164.36-1.335.353-3.172-.125-6.61-.353-2.54-1.633-11.47-2.525-18.678-.625-5.056-.773-6.178-.928-6.992-.248-2.048.018-2.94-.026-2.97 7.083 3.068 7.642-7.104.542-5.73 1.358-2.74 2.502-4.01 3.666-6.938-1.48-3.187-4.758-8.578-4.758-8.578l-5.188 9.035 3.053 6.25c-3.512-.632-5.376 1.925-4.727 4.218.707 2.028 2.65 2.596 4.367 1.78 1.32-.522 1.32-.654.15 9.256-.348 2.93-1.886 16.632-2.098 18.67-.142 1.37-.23 1.75-.788 1.45-.758-.326-1.19-.8-1.95-1.3l-.422.395c.674.545 1.472 1.252 2.288 2.002-.187 3.63-.113 5.732 2.908 7.503-5.476 3.432-2.274 8.712.942 9.475-1.917.495-3.807 2.96-3.35 7.86l1.554 20.192-14.844-11.02-8.713 12.467-22.957.028-25.894-23.365s-5.677-.077-8.006-.135c.264-.123-.49-7.222-4.237-11.858-4.074-4.842-13.346-12.836-13.34-12.84l9.738-9.885 54.67 49.206s.263 1.395.403 1.987c1.828 7.77 10.667 8.24 12.546.327.304-1.278.67-4.252.534-4.606-.044-.114.23-1.41.61-2.885 2.94-11.526 5.443-21.47 8.334-32.536.4-1.523.82-3.22.938-3.77.476-2.245.405-2.23 2.755-.46 1.44 1.082 2.034 1.47 2.034 1.47l.458-.476c-1.614-1.248-4.376-3.24-4.376-3.24l.03-.846c-8.877-6.356-10.706-8.044-15.96-12.21-4.073 3.587-9.897 2.135-13.547.866-.94-.37-3.25-.97-3.25-.97-9.09.01-17.077-1.744-24.62-4.208l29.082-51.79h-11.232l-.393.442h-5.844l-.02-.44zm107.25 170.328c.003.03.006 0 .006 0zm-74.1-169.158l3.977.077-23.533 41.99-2.5-.977s.23-.12.226-1.89c-.003-1.9-.414-2.71-1.27-3.833-.716-.97-1.02-1.024 1.078-.735 4.29.59 7.34-4.076 5.636-7.718-.658-1.405-.566-1.49 1.173-1.664 4.786-.477 6.647-6.548 3.26-9.574-.7-.633-.387-1.037.92-.755 4.14.894 7.347-3.697 5.702-7.294-.536-1.004-.054-1.17.702-1.27 3.544-.83 4.75-3.615 4.63-6.357zm-31.717.005l18.422.006c-2.48 3.79 1.897 6.036 2.452 5.77-3.972 2.17-2.88 5.226-.82 6.277 1.997 1.02 4.995.102 4.196-4.31l.985-.428c.96 1.084 1.91 7.8-5.4 6.867-1.3-.167-2.007 1.048-.918 1.72 5.776 6.642-3.266 9.576-3.66 8.474l-.03-1.124c2.445.45 5.574-2.7 2.83-5.502-1.56-1.592-6.083-.816-5.31 4.016-2.67-3.992-5.588-2.788-6.375-.68-.61 1.636.166 3.874 2.832 4.255-2.977 2.494-1.53 5.277.515 5.89 2.257.68 4.564-.24 3.94-4.344.037-.39.825-.262.89-.284 2.336 5.828-3.246 7.968-6.26 6.766-1.117-.435-1.7 1.287-.515 2.164 1.8 1.33 1.244 5.16 1.034 5.198-3.348-1.27-8.144-2.208-7.965-2.137 3.198-12.646 2.99-25.506-.845-38.592zm29.37.006l1.665.005c.022 2.382-1.013 5.314-5.078 5.766.018-.638-.028-1.244-.193-1.92 1.525-.344 3.548.08 3.607-3.85zm7.267.13l5.313.024-25 44.373-3.996-2.053zm-13.11 3.366c.94 0 1.704.758 1.704 1.697 0 .938-.763 1.7-1.702 1.7-.94 0-1.697-.762-1.697-1.7 0-.94.76-1.698 1.698-1.698zm-52.114.78c-4.006 10.375-11.707 16.662-17.31 27.1-5.854 10.61-3.174 19.75 5.09 21.446 4.36.894 9.452-3.35 10.104-7.963.155-1.1.348-1.413.865-1.413.757 0 .672 1.92.193 4.524-1.152 6.905-3.523 11.105-5.328 13.68l14.353-.12c-2.916-3.505-5.155-8.23-5.635-14.07-.353-3.173-.093-4.568.923-4.024.334.18.42.494.567 2.135.52 5.69 6.482 8.793 11.296 6.29 6.647-3.517 6.467-10.092 4.94-14.883-4.594-12.537-14.738-20.784-20.057-32.703zm-43.865 3.926c1.725 1.462 3.434 3.113 4.61 4.576-1.652 1.184-3.39 1.255-4.457.666-1.2-.663-1.72-2.2-1.834-4.788-.063-1.435.443-1.5 1.682-.454zm2.073 13.72c.05-.012-2.597 5.405-4.538 8.32-1.385 2.56-4.802 7.022-3.886 10.592 1.06 3.714 5.026 4.66 7.136 1.804.99-1.34 1.2-1.18 1.174.317-.025 2.864-1.543 4.49-2.655 5.896l7.253.053c-1.537-1.847-2.92-3.38-3.078-5.886.004-.944.284-1.63.947-.61.747.727 1.383 2.067 3.424 1.692 2.117-.378 3.964-3.126 3.54-5.79-.57-3.095-2.504-6.138-4.45-8.747-1.622-2.18-4.925-7.533-4.865-7.642zm83.252.923c.87 0 1.573.705 1.573 1.574 0 .87-.703 1.577-1.573 1.577s-1.572-.707-1.572-1.576c0-.87.703-1.573 1.572-1.573zm82.3 1.257l4.23 7.366-4.826 8.55-4.03-8.194zm-.077 2.51l-2.977 4.914 2.703 5.036 3.074-4.785zm.058 2.106l1.538 2.97-1.87 3.017-1.552-3.19zm-4.102 9.982c.32 0 .663.07 1.015.217 2.85 1.19 1.943 5.524-1.1 5.256-.402-.042-.93-.247-1.313-.505-2.112-1.732-.84-4.974 1.4-4.968zm6.97.082c2.492.045 3.994 3.514 1.37 5.136-1.267.705-3.16.277-3.906-.976-.64-1.076-.363-2.87 1.068-3.8.51-.26 1.005-.368 1.467-.36zm-3.464 4.948c.25.02.52 1.23.77 3.333.09.76.333 2.666.538 4.23.393 3.35.797 6.468 1.145 9.695.067.635.24 1.985.38 3 1.44 10.485 1.768 13.833 1.427 14.725-.91 3.126-5.176 3.365-6.958 1.548-1.348-1.372-1.547-2.88-1.016-6.81.307-2.267.432-3.408 1.332-12.078.21-2.03.515-4.732.678-6 .357-3.393.78-6.572 1.24-9.916.134-1.197.292-1.74.462-1.727zm-69.864 7.79s13.663 4.503 24.058 4.3c1.526-.002 1.773-.015 3.673.605 1.127.368 2.9.867 3.94 1.106 3.203.62 6.02.445 8.515-.572.392-.16.967-.642 1.548-.467.354.107.87.813.87.813-9.1 2.417-30.393 1.97-43.647-3.616zm70.196 1.433c-.056.01-.116.087-.183.193-.222.352-.038 2.66.79 9.998 1.58 14.018 1.573 14.317-.342 15.79-.942.725-1.088 1.017-.635 1.28.337.196.31.196.995.005 1.61-.447 2.278-1.726 2.265-4.337-.01-1.99-.033-2.23-.654-7.122-.215-1.693-.508-4.08-.654-5.31-1.037-8.73-1.276-10.547-1.582-10.496zm-71.57 1.467c13.6 4.87 27.813 6.25 44.945 3.62 0 0 1.647 1.068 2.476 1.592l-.578.135.26 2.366 2.91-.467s1.573 1.253 2.745 2.02c-15.275 4.665-39.946 3.86-55.165-2.903-.58-.334-.918-.6-.918-.6.328-.808.725-1.287 1.13-1.737l2.78.793.802-2.534-2.125-.775zm3.562 3.034l-.89 2.495 3.886 1.154.663-2.55zm5.943 1.543l-.514 2.842 3.9.72.484-2.764zm6.454 1.332l-.308 2.74 4.134.438.255-2.774zm28.423.043l-3.52.385.222 2.413 3.558-.418zm-6.208.697l-3.49.23.12 2.53 3.51-.22zm-15.73.053l-.003 2.688 3.576.135.043-2.745zm9.84.337l-3.3.014-.013 2.557 3.33.015zm-38.248.452c.356-.01 1.17.78 1.505 1.668.66 1.744.357 3.678-.68 4.318-1.41.872-3.065-.493-2.095-1.726.17-.218.447-.437.615-.49.725-.23.894-1.372.5-3.347-.058-.292.015-.42.154-.423zm5.275.668c14.723 4.82 31.43 6.44 48.643 2.914 0 0-8.156 33.312-8.333 33.328zm-7.22.1c.776 0 .917 1.317.218 2.016-.893.894-2.596.177-2.24-.942.102-.325 1.512-1.072 2.023-1.072zm4.233.775c.16-.012.465.307.947.957 1.654 2.227 1.784 4.714.303 5.847-1.736 1.33-3.004-.733-1.558-2.534.375-.466.43-1.328.207-3.236-.08-.68-.06-1.022.1-1.034zm57.093.803c.19-.006.527.14 1.202.47 1.055.518 1.42 1.274.913 1.886-.737.89-2.76-.873-2.38-2.073.06-.183.118-.28.266-.284zm-1.587 1.16c.263.025.686.51 1.177 1.495.315.632.498.813 1.03 1.005 1.258.454 1.492 1.758.384 2.144-1.202.42-2.1-.445-2.65-2.558-.362-1.394-.28-2.122.06-2.088zm-52.67.932c.183-.01.532.398 1.087 1.217 1.645 2.428 1.078 7.09-.996 8.18-.913.48-1.55.377-2.283-.357-1.072-1.072-.808-1.92.784-2.505 1.356-.5 1.794-2.04 1.376-4.847-.167-1.122-.173-1.675.034-1.688zm7.838.77c10.055 8.29 19.133 17.18 30.833 27.558 2.78-8.55 6.83-26.298 6.844-26.356-.443.364-19.654 3.09-37.676-1.203zm37.676 1.202c.01-.008.012-.014.004-.02l-.004.02zm6.236-1.18c.168 0 .652 1.25.928 2.386.25 1.03 1.246 2.758 1.63 2.823 1.982.336 2.826 1.44 1.847 2.42-.72.718-2.275.31-3.025-.79-1.41-2.067-2.37-6.838-1.38-6.838zm-112.194 1.146c1.195.01 2.345.763 2.635 2.318.34 1.81-.684 3.125-1.55 2.914-.94-.352-1.26-1.84-1.26-1.84s-.222 1.213-.608 1.826c-.843 1.287-2.616-.624-2.3-2.476.31-1.81 1.73-2.752 3.084-2.74zm71.566.476c10.95 1.644 20.372 2.07 33.435.653l-6.155 23.9zm-8.27.037c.162.01.495.302 1.014.852 1.702 1.798 2.193 4.294 1.087 5.533-.673.754-1.126.84-1.842.35-.913-.625-.98-1.566-.143-2 .77-.398.84-1.273.23-2.932-.454-1.237-.583-1.818-.345-1.803zm-71.437.616l4 1.66 1.434 3.38-3.993-1.03zm15.128.447l-1.188 3.366-3.078 1.15 1.198-3.64zm104.36.707c.15-.002.37.424.636 1.303.66 2.177.94 2.728 1.542 3.015.982.468 1.054 1.66.125 2.082-.59.27-.782.213-1.202-.336-.653-.856-1.18-2.495-1.274-3.966-.088-1.38-.016-2.094.174-2.097zm-44.536 1.52c.116-.01.286.162.538.46 1.555 1.848 1.724 4.682.332 5.53-1.348.823-3.233-.873-2.058-1.85.105-.088.348-.285.542-.433.328-.25.356-.395.385-2 .022-1.192.066-1.694.26-1.708zm11.808.196l19.154 17.406 4.396-17.22c-7.565.68-15.47.478-23.55-.187zm-47.05.876c6.05 6.388 13.968 11.553 15.85 17.906 3.37 8.746.898 18.892-6.993 24.697-4.356 3.296-8.625 6.765-12.176 10.954-5.826 6.203-9.715 12.98-13.608 17.898-.66.826-2.4 3.428-2.4 3.428s-.85.974-3.697-1.413c-7.55-6.715-15.475-11.585-23.542-16.225l3.414-1.91c6.735 3.84 15.108 9.307 22.64 15.677 0 0 5.988-8.746 7.9-11.252 2.77-3.596 4.718-5.913 7.3-8.694 6.59-8.137 13.396-10.83 16.228-14.95 4.148-6.036 4.326-13.193.914-19.3-3.365-5.83-9.908-9.827-14.253-14.653zm57.433.47h7.487s-1.1.917-1.942 1.48c-.53.355-1.147.306-2.313-.182-1.133-.473-3.232-1.298-3.232-1.298zm8.574 0l1.746.053c-1.306 1.64-2.643 2.697-4.395 4.155-.227.097-.353.137-.88-.034-3.58-1.184-6.863-2.688-10.348-4.11l3.106-.016s1.496.478 3.742 1.41c2.576 1.067 3.243 1.396 4.236.744.958-.637 1.75-1.596 2.794-2.202zm3.535 0l-.626 2.294c-1.043 1.304-3.154 2.807-4.918 4.29-.413.215-.4.254-2.207-.448-6.655-2.585-9.872-4.265-9.872-4.265l-1.35-1.206s1.734.496 2.88.947c.78.31 2.11.813 2.956 1.126.846.313 2.717 1.108 3.966 1.6 2.88 1.138 2.722 1.173 5.482-1.263 2.99-2.638 3.69-3.073 3.69-3.073zm-100.823.212l2.905 3.327-3.872 3.255-2.924-3.443zm110.2.003c.67 1.25 1.118 2.728 2.202 3.78.816.78 1.02 1.38.535 1.82-1.262.78-1.48-.482-1.872-1.306-.688-1.452-1.53-3.414-.863-4.295zm-105.026.333c.074-.002.15 0 .226 0 3.097.047 3.83 4.624.914 5.722-1.045.394-2.247.215-2.895-.432-.628-.63-.717-1.16-.285-1.49.672-.477 2.27-.51 2.27-.51s-1.45-.492-2.098-.855c-1.273-.725-.17-2.354 1.868-2.435zm63.767.005c.176.01.477.366.904 1.072 1.562 2.58 1.48 7.49-.15 8.733-.847.646-1.902.553-2.61-.23-.935-1.035-.648-2.08.74-2.694 1.34-.592 1.612-1.916 1.067-5.188-.19-1.14-.177-1.705.048-1.693zm-75.153.082c.924-.033 1.816.328 2.26 1.058.327.538.168.935-.45 1.203-.753.298-2.18.567-2.18.567s1.384.228 2.22.568c1.05.463.967 1.312-.567 2.04-2.954 1.405-5.745-2.43-3.308-4.632.568-.513 1.305-.778 2.025-.803zm77.678 1.85c.022-.002.046-.002.072 0 .27.034.772.427 1.274 1.093 1.76 2.332 2.067 5.837.568 6.52-1.584.722-2.723-.766-1.582-2.068.807-.92.707-2.27-.366-4.938-.156-.388-.12-.58.034-.606zm38.03.112c.14-.01.393.55.8 1.683.895 2.493 1.66 3.54 2.582 3.54 1.158 0 1.764 1.585.85 2.225-1.804 1.264-4.168-1.833-4.34-5.693-.053-1.16-.03-1.745.11-1.755zm-9.54 1.245l-.533 2.034s-1.23 1.197-2.11 1.957c-1.4 1.208-1.743 1.45-2.847 1.073-1.7-.587-3.38-1.118-5.15-1.655l-4.093-3.384 9.34 3.645s.808.24 1.09-.042c1.223-1.222 2.566-2.17 4.304-3.626zm8.81 1.904c.117-.026.235.123.318.496.423 1.915 1.036 3.304 1.553 3.52.655.273.906.84.63 1.418-.794 1.667-2.884-1.277-2.884-4.063 0-.79.19-1.326.384-1.37zm-33.703.135c.114-.006.298.164.586.453 1.292 1.29 1.682 4.858.645 5.895-1.5 1.5-3.1-.73-1.645-2.29.385-.41.386-.44.294-2.268-.064-1.273-.07-1.777.12-1.79zm-78.227.357l-1.01 3.347-3.226.83.755-2.754zm3.866.34c.256-.01.546.088.85.31 1.316.95 1.424 2.578.81 3.78-.588 1.17-1.79 1.507-2.953 1.388-1.51-.168-2.647-1.22-2.568-2.827.026-.807.378-1.7.923-2.082.384-.27.7-.16 1.032.393.31.538.84 1.76.84 1.76s.017-1.254.194-1.898c.145-.514.464-.807.872-.824zm2.462.295l2.337.798.924 3.173-2.617-1.014zm133.247.592s.67.283 3.86 2.817c.8.635 2.146 1.847 2.146 1.847l-.076 41.417s-6.292-3.4-7.107-4.208c-.435-.464-.225-1.764-.072-4.125.74-6.202 1.04-10.955 1.837-16.695.556-6.398 1.786-8.235-2.497-10.948 4.61-2.894 3.31-7.397.416-9.273zm-37.584.158l-.422 1.894c-1.517 2.597-2.876 2.464-5.198 1.26l-2.79-2.37c1.805.376 2.776.954 4.54 1.51.876.24 1.196.086 1.813-.467.708-.646 1.24-1.128 2.058-1.828zm-20.676.995c.945 1.032 1.192 2.048 1.11 4.56-.18 1.784-.102 3.114-1.567 4.115-.716.47-1.953.47-2.505.005-1.326-.888-.595-2.665 1.143-2.75 1.096-.02 1.547-3.605.924-5.843-.097-.348-.072-.576.1-.592.172-.017.493.177.794.505zm29.635-.135c.213-.002.59.544.812 1.433.324 1.29.78 2.013 1.49 2.376.914.467 1.21 1.362.626 1.89-1.162 1.052-2.35-.21-2.73-2.9-.02-.305-.553-2.77-.2-2.798zm24.946.443c2.592.04 4.06 1.854 4.055 4.052-.027 1.585-.893 3.197-2.487 3.866-3.807 1.12-5.885-1.428-5.85-3.907.03-2 1.692-4.052 4.283-4.01zm-52.317 1.438c2.18 2.18 2.277 6.842.143 6.842-2.56-.847-.563-2.358-.514-2.75.2-1.606-.17-2.636-.545-4.136-.165-.888.674-.217.914.043zm52.456-.212c-.457-.013-.425.447.413 1.17 1.52 1.31.775 3.726-1.15 3.736-.888.005-1.105.603-.332.913 2.99 1.2 5.03-3.344 2.352-5.237-.56-.395-1.01-.574-1.284-.582zm-114.33.612c2.407.82 3.237 5.403 3.328 7.02.108 2.814-1.202 7.414-2.37 8.334-3.027 2.38-4.445-6.035-1.857-11.45.227-.444.51-1.043.404-2.15-.104-1.096.08-1.746.497-1.754zm79.5.442s-.302 1.374-.624 2.126c-.373.87-.647.896-1.515.153-.483-.413-1.284-1.27-1.284-1.27.756.12 1.43.51 2.073.193.685-.338 1.237-.974 1.35-1.202zm9.133.072c.17.006.387.485.677 1.433.792 2.595 1.484 3.572 2.534 3.572 1.72 0 2.095 2.07.472 2.6-.6.198-.804.197-1.572-.008-1.158-.31-2.742-4.215-2.515-6.203.106-.934.233-1.4.404-1.394zm-105.887 1.51c.63-.015.88.296 1.25 1.063.422.872 1.53 1.982 2.467 2.466 2.26 1.11 4.64 1.978 6.872 3.092 2.894 1.454 5.488 5.906 3.712 6.37-.644.15-1.385.157-2.044.097-.215-.113-.635-.6-.933-1.087-1.32-2.16-3.79-4.276-7.597-5.265-2.685-.698-5.09-4.005-5.607-5.56-.134-.4-.14-.717.22-.82.765-.22 1.28-.348 1.66-.357zm81.63.27c.12-.02.297.133.564.418 1.598 1.708 1.796 4.844.36 5.732-1.556.962-2.92-.63-1.697-1.982.538-.596.538-.595.538-2.385 0-1.234.036-1.752.236-1.785zm23.265 1.99c.192.008.48.538.827 1.582.494 1.482.56 1.598 1.125 1.89.955.493 1.11 1.232.41 1.933-1.307 1.307-2.622-.795-2.626-4.192-.002-.817.095-1.22.264-1.212zm-20.89.235c.12.012.45.273.708.58 1.958 2.32 1.564 7.757-.62 8.573-.73.272-.95.287-1.404.09-1.628-.704-1.43-2.423.577-3.514 1.5-.817.43-5.708.738-5.73zm-100.1 1.714l8.084 4.01s2.216 4.665 3.236 6.415c.7 1.212 2.102 2.383.654 3.192-2.432 1.648-3.81 2.587-3.79 3.61.02.83 1.048 1.674 2.434 3.304 1.99 2.343 1.97 1.803.164 5.376-1.386 2.506-2.563 8.18-2.563 8.18l-8.166 4.207c2.43-5.804 5.292-10.742 8.498-14.272-2.38-1.77-4.384-3.61-6.472-6.055 1.54-2.063 3.575-3.73 5.453-5.525-3.815-4.31-6.204-8.445-7.53-12.444zm102.232.072c.013-.002.028 0 .043 0 .34.022 1.113.865 1.794 2.217.88 1.746.964 3.945.182 4.726-1.347 1.346-3.1-.385-1.842-1.818.888-.645.646-2.25-.053-3.92-.324-.8-.32-1.175-.125-1.206zm-103.126.784c2.103 4.468 4.456 8.103 6.867 11.545l-5.26 5.52c1.62 1.88 3.583 3.898 6.338 6.242-3.383 3.762-5.602 9.03-7.824 14.003zm120.985.096c.18.013.44.555.706 1.644.335 1.374.565 1.725 1.365 2.068 1.274.546 1.303 1.775.054 2.217-.458.162-1.314-.298-1.668-.9-.467-.858-.708-2.014-.702-3.072-.074-1.31.038-1.973.245-1.957zm29.167.827c1.987.558 2.706 2.55 2.32 6.24-.52 4.938-1.13 10.43-1.627 14.966-.57 5.23-.9 7.948-1.03 8.154-.402.653-.47-1.805-.177-4.54.445-3.906.69-7.328 1.068-11.232.846-8.686.64-11.432-.932-12.233-1.215-.62-1.738-.255-.84.59 1.71 1.32 1.655 1.87-.175 23.26-.187 2.212-.264 3.78-.264 3.78l-2.324-1.443s-.172-1.834-.39-4.602c-.524-5.215-.83-10.774-1.177-15.772-.374-5.333.624-7.2 3.932-7.33.53-.02 1.116.023 1.615.16zm-42.675 3.1c.253.706 1.406 5.965-1.545 4.455-.786-.444-.83-1.14-.25-1.814.65-.755.802-1.84.477-3.39-.198-.943-.437-1.724-.437-1.724.57.208 1.69 2.288 1.755 2.472zm-87.753-1.65c2.496.474 5.238 1.93 7.005 3.75 1.097 1.167 1.04 2.105-.673 2.215-1.65.243-1.686.51-2.474-.172-.355-.277-1.044-.957-1.83-1.078-2.49-.386-3.762-5.044-2.03-4.715zm100.768 1.377c.264.424.29 1.255.51 1.852.373 1.666 1.516 2.9 2.544 2.745.69-.083 1.643.126 1.745.952.2.7-.166 1.36-.923 1.663-.855.342-1.82.132-2.548-.553-1.537-1.443-2.475-6.156-1.328-6.66zm-12.008.066c.895.343 2.038 3.21 2.16 5.483-.003 1.628-.254 3.677-1.66 4.452-.89.46-1.812.23-2.215-.548-.495-.956-.128-1.943.894-2.404 1.25-.564 1.655-3.1.893-5.573-.042-.413-.668-1.582-.073-1.41zm-95.363 1.19l6.588 3.337c-.96 1.308-1.712 2.522-2.232 3.904-2.093-2.375-3.19-4.795-4.356-7.242zm97.84 1.142c.112-.003.49.36.823.68 1.644 1.592 2.354 4.483 1.36 5.54-.793.844-2.18.786-2.413-.102-.084-.435.378-1.25.582-1.64.302-.58.357-2.243-.102-3.457-.206-.545-.397-1.02-.252-1.022zm-45.768.656l7.443.255 24.938 22.46-2.34-.053-22.914-20.88-7.13.02zm-42.887 4.046c-2.842 4.516-3.618 10.21-1.872 15.27 1.326 3.588-1.567 3.803-2.754 1.438-.912-1.768-1.437-4.845-1.16-8.122.39-5.3 2.835-10.618 4.793-11.257 1.988-.65 1.55 1.95.993 2.67zm102.18 10.87c-.755 3.533-2.156 5.29-4.144 6.025-8.142 3.007-11.69-13.413-4.136-17.34 7.2-2.392 9.28 6.65 8.28 11.315zm-59.746-10.728l7.02.144c6.4 5.82 13.28 11.253 20.13 18.33h-3.313l-1.198-1.14c-6.19-5.528-10.776-10.042-16.743-15.18l-6.266-.173zm53.564 1.083c-3.795.153-4.105 5.296-3.99 7.244.276 2.806 1.394 6.954 4.957 6.627 2.614-.26 3.824-3.357 3.585-7.075-.224-3.498-1.65-6.8-4.55-6.797zm-54.202 1.706l6.16.14c5.426 4.733 11.165 9.874 16.868 15.547h-2.688s-.702-.67-.913-.885c-4.617-4.174-9.31-8.824-13.787-12.575l-6.39-.25zm54.303.203c1.08.4 1.26 3.024.32 4.112-.646.746-2.128-.666-2.26-2.443-.082-1.084.972-2.028 1.94-1.67zm-101.806.327c-.496 1.698-.822 3.606-1.025 5.67l-2.578-3.275zm103.765 3.16c.628 0 1.138.51 1.138 1.14 0 .63-.51 1.14-1.14 1.14-.63 0-1.14-.51-1.14-1.14 0-.63.51-1.14 1.14-1.14zm-51.757.572l12.277 11.54-3.496.04-10.07-9.128-6.39-.24 1.25-2.18zm47.745.197c.63 0 1.14.51 1.14 1.138 0 .63-.51 1.14-1.14 1.14-.63 0-1.14-.51-1.14-1.14 0-.63.51-1.14 1.14-1.14zm14.614.023c6.92 5.378 16.69 12.514 26.836 18.3 0-.02-1.672 1.315-3.212 1.737-7.897-4.354-17.294-10.495-23.115-15.474-5.494 8.09-16.05 22.804-25.43 29.597-5.923 4.236-8.905 9.457-8.888 15.56.018 6.314 2.247 10.424 8.46 15.595 4.005 3.336 8.385 7.593 8.385 7.593l-2.304 1.987c-.383-.047-6.72-5.507-13.132-11.945-3.522-3.537-5.09-11.302-4.49-15.493.815-5.7 2.715-9.783 8.117-14.182 2.074-1.605 4.17-2.852 5.996-4.678 16.784-17.953 22.78-28.597 22.78-28.597zm-11.233 2.933c.633 1.304.982 3.016-1.006 3.13-1.178.068-1.853-1.893-.832-3.64.772-1.375 1.46-.204 1.837.51zm-59.147-.346l6.626.197s6.534 5.696 9.833 8.853H392.1c12.206 0 22.24.048 22.297.105.152.152-1.578 2.472-1.578 2.472l-73.207.043c.015-.01 4.522-4.024 6.136-5.15 2.857-1.993 5.476-3.85 7.693-6.52zm-44.86 2.755c.48 1.768.88 3.57 1.707 5.198l-5.082 2.698c.934-2.69 2.003-5.277 3.375-7.895zm141.143 14.695c-1.01 2.75-3.652 8.364-6.843 12.618-.634.815-1.068 1.452-1.068 1.452l6.228 5.963-5.405 5.746c3.035 3.158 5.602 7.996 6.953 11.848-2.45-.97-3.827-1.554-6.85-3.237-.856-2.143-1.728-4.416-2.69-6.375-2.205-4.47-2.175-4.032-.374-5.347 2.636-1.925 3.42-2.372 2.736-3.342-.482-.682-3.592-4.375-3.78-4.49-.286-.178-.16-.724.37-1.598 1.802-3.236 3.28-6.803 4.198-9.973zm1.178.226l.163 37.575c-2.23-4.488-4.55-9.074-7.136-11.94-.096-.194 5.642-5.798 5.642-5.798-2.103-1.95-3.333-3.113-6.27-5.82 2.86-4.122 5.125-9.512 7.602-14.016zm-157.92 1.303l7.14 4.144c-.378 5.3-.854 12.258-1.586 19.317-.613 5.508-.866 8.046.11 9.575.827 1.118 3.057 2.327 3.057 2.327-3.755 1.52-5.203 6.003-.994 9.357 0 0-1.02.804-1.475 1.288l-5.857-4.38zm111.747 1.9c-1.778 1.993-4.57 4.95-6.71 6.365-2.858 1.887-6.868 5.51-6.676 5.564 0 0-4.203-.022-7.05-.136l-9.818-8.76s.35-.13-13.013-.02c-17.27.142-31.265-.048-31.265-.048l1.962-2.756zm35.003 1.72c-.967 3.107-2.467 5.978-4.366 8.67-.44-1.91-.682-3.936-1.6-5.56zm-138.704.996l.855.61s-.51 6.484-.678 8.382c-.3 3.506-.45 6.665-.755 10.237-.615 7.092-.512 8.138.88 9.233 1.07.8 1.8.437.85-.577-.625-.804-.622-.787-.812-1.97-.132-.823-.11-2.05.077-5.377 1.06-18.738 1.28-19.368 1.303-19.374l2.135 1.38c-.12.287 1.955 18.885 1.744 23.51-.247 5.405-7.523 4.21-7.868.2-.143-.924 1.238-16.103 1.238-16.103zm59.352 1.09l2.856.083 17.62 16.194 6.005.13-.525 2.044-5.804-.015zm10.925 0h2.765l10.083 9.142 6.208.097-1.183 1.76-6.174-.178zm-3.443.01l14.906 13.44 5.083.265-.784 1.838-6.026-.168-16.748-15.34zm-14.373.05h3.098l23.302 20.98 6.107.11-.09 1.89-7.354-.034zm78.42.595c1.23.31 1.835 1.5 2.702 5.92 1.01 5.154-1.18 13.52-3.924 15.09-1.42 1.117-2.965-.067-1.962-1.524 3.274-4.756 3.707-12.537 1.77-16.888-.614-1.4.018-2.85 1.414-2.597zm-98.865.775c7.446.09 9.37 15.38 2.045 17.526-4.758.703-7.208-3.603-7.898-7.49-.814-4.828 1.313-10.09 5.853-10.035zm-4.093 9.174c.445 3.064 2.345 6.573 5.108 6.273 3.634-.394 4.09-5.245 3.73-7.687-.434-2.947-2.06-5.618-4.654-5.765-3.87-.218-4.527 4.815-4.184 7.18zm3.992-5.953c1.038-.017 1.803 1.37 1.52 3.092-.185 1.114-.61 2.486-1.862 1.554-.583-.533-1.106-2.095-.966-3.262.092-.767.47-1.364 1.308-1.385zm102.673 3.534l3.496 4.045-3.972 2.785c.56-2.128.744-4.39.477-6.83zm-100.14.367c.63 0 1.14.515 1.14 1.144 0 .63-.51 1.14-1.14 1.14-.63 0-1.14-.51-1.14-1.14 0-.628.51-1.143 1.14-1.143zm-4.077.702c.63 0 1.14.51 1.14 1.14 0 .628-.51 1.138-1.14 1.138-.63 0-1.144-.51-1.144-1.14 0-.63.514-1.14 1.144-1.14zm2.308 1.47c.573.174.938.7 1.246 1.157.762 1.135.862 2.56.32 3.155-1.095 1.3-2.806-.09-2.6-2.1.15-1.473.542-2.36 1.034-2.212zm9.762 4.463c1.634 0 2.096 1.928.687 2.87-.916.613-1.12 2.607-.553 5.367.46 1.993.22 2.302-.97.505-2.033-3.257-1.51-8.742.836-8.742zm-3.823 1.048c1.434-.054 1.894 1.042 1.058 1.88-.49.545-.442 1.98.105 3.16.774 1.71.592 2.225-.855.582-2-2.14-1.97-5.558-.308-5.62zm94.797.833c1.627 2.163 3.07 4.986 4.385 8.184l-7.055-3.24zm-103.086 8.697c-.5-.578-.74-2.45-1.15-3.25-.32-.96-.595-1.518-1.113-1.485-2.98.252-2.855-2.598-1.144-3.136 3.543-1.115 4.834 7.434 3.408 7.87zm14.79-2.877c-.507 1.494-.14 2.388-.034 3.983.088.725.126.916-.47.36-1.413-1.234-2.165-5.443-.89-6.223 1.71-1.05 2.23.722 1.393 1.88zm70.672-1.997c.692-.032 1.477.506 1.866 1.495.56 1.425.508 4.914.226 6.772-.432 2.843-1.118 5.455-1.4 7.41-.998 1.186-3.457-3.01-3.688-6.323-.387-2.628.518-8.086 2.54-9.24.143-.068.297-.107.456-.114zm9.524.447c.618-.028.478.18.935.66.693.725.975.902 1.956 1.21 2.023.637 4.248 3.458 3.39 4.315-.676.536-2.52-.478-3.15-.694-.677-.233-1.522-.523-1.88-.644-1.695-.572-4.134-3.698-3.375-4.328.406-.336 1.643-.497 2.124-.52zm-4.932.52c1.254.012 1.596.324 2.313 1.673 1.063 2 3.038 3.41 5.905 4.222 3.66 1.117 6.82 3.24 6.666 7.17-.874.01-1.747.067-2.62.332-1.014-2.85-3.535-4.486-5.705-4.978-5.003-1.135-9.648-6.212-8.327-8.227.577-.295 1.197-.2 1.77-.193zm-86.33.25l43.236 37.65c-18.246-6.768-34.984-6.622-51.17-4.12zm18.44 2.492c-.082 1.173-1.69 1.423-2.023 1.712-.81.703-.7 2.733-.356 5.1.265 1.42-.09 1.36-.836.245-1.324-1.97-1.297-5.39-.42-7.404 1.13-2.594 3.747-1.295 3.634.347zm-24.863-1.843c1.657.172 2.114 2.428 2.182 3.923 0 2.06-.584 1.984-.913 0-.158-.88-.43-1.22-1.14-1.433-1.614-.483-1.72-2.49-.13-2.49zm20.09 2.303c-.426.467-.435 2.652-.05 4.12.215.813-.18.876-.73.232-1.788-2.098-1.953-5.655-.293-6.343 1.352-.35 1.703 1.298 1.073 1.99zm-18.706 4.207c.04 2.094-.437 2.287-1.068.28-.16-.467-.448-.937-.653-1.078-1.178-.805-1.385-1.433-.703-2.116 1.676-1.367 2.402 2.292 2.424 2.914zm6.32-1.846l-5.863 25c14.428-1.21 20.983-1.464 36.397 1.548zm17.478.413c.882.22 1.187 1.372.16 2.46-.34.433-.653 1.1-.242 2.866.563 2.42-.385 1.645-1.54-.638-.738-1.463-.4-5.195 1.622-4.69zm-27.597.076c1.568 0 3.02 2.545 3.044 5.328.016 2.25-.305 2.088-1.14-.062-.59-1.422-1.063-1.937-2.13-2.308-1.98-.688-1.807-2.958.225-2.958zm10.594.722l27.148 23.725c-11.118-1.776-22.032-1.913-32.63-.58zm22.594.894c2.13 0 2.968 2.63.356 3.55-1.556.55-.892 3.697-.606 5.567.108.704-.114.754-.562.124-1.64-2.42-2.558-8.526.812-9.242zm-2.875 2.957c-.387.61-.43 1.262-.165 2.442.69 2.538.87 3.007-.572 1.717-1.518-1.606-2.18-4.783-.91-5.723 1.43-1.057 2.716.115 1.646 1.562zm-53.65-1.96c2.52-.017 4.35 1.614 4.254 3.89-.107 2.504-1.676 4.085-3.98 4.216-2.574.13-4.164-1.922-4.22-4.05-.05-1.877 1.145-4.035 3.945-4.055zm-.044 1.007c-2.885-.01-3.965 3.793-1.577 5.55 1.022.752 1.83.54.99-.26-1.587-1.508-.95-4 1.14-4.458 1.03-.228.63-.83-.554-.833zm35.117.645l-3.472 16.84c7.104-1.104 15.696-.767 22.328-.145zm-11.694.64c1.726-.09 2.23 2.51 2.244 3.543.002 1.337-.157 2.034-.403 1.32-.58-1.687-1.154-2.613-1.778-2.613-.34-.087-.628-.223-.9-.53-.614-.81-.02-1.687.837-1.72zm12.015.672l2.29 1.943c-1.474-.645-2.727 1.024-2.727 1.024zm23.558 3.18c-.664.834-.66 2.597-.145 4.65.144.573-.392.148-.933-.535-1.024-1.292-1.505-2.805-1.32-4.046.207-3.136 4.186-2.525 2.398-.07zm-36.21-1.5c1.482.166 2.04 3.26 2.006 4.196-.05.98-.273 1.642-.467 1.046-.38-1.293-1.17-3.15-1.852-3.575-1.17-.73-.838-1.564.314-1.667zm113.42 3.464c.05 1.09-.402 2.208-1.074 2.567-.688.368-1.107-.13-1.517-1.387-.302-.925-.408-1.28-.408-1.28s-.255 1.156-.335 1.398c-.536 1.605-2.28 1.62-3.01-.173-.778-2.09 1.394-4.233 3.063-4.157 1.85.085 3.18 1.28 3.28 3.032zm-98.94-2.335c.52 0 2.538.904 2.538.904l2.01 1.78s-1.847-.804-2.5-1.035c-1.555-.55-1.522-.555-2.778.47-1.294 1.058-2.357 1.833-2.357 1.833l.4-2.284s1.893-1.667 2.688-1.667zm-13.19 5.61c.296 2.415-.38 2.62-1.034.314-.563-1.974-1.115-2.693-2.07-2.693-1.755.262-2.346-2.343-.768-2.866 2.977-.836 3.744 4.294 3.87 5.246zm102.038-5.293l2.747 1.274.582 2.842-2.53-.625zm-61.538.262c2.643-.733 2.97 2.557.944 3.042-1.237.297-1.23 2.213-.878 4.996.08.634.25 1.404.21 1.51-.187.503-.816-.266-1.662-2.05-1.264-3.25-.87-6.872 1.386-7.498zm75.537-.04l-.765 3.288-2.323-.158-.087-2.015zm-78.25 2.138c-1.273 1.842-.13 3.542.153 4.984.05.838-1.032.018-1.655-1.203-1.3-2.546-1.374-4.602-.207-5.52 1.638-.958 2.39.756 1.71 1.74zm-23.828-.45c.45.004 1.058.248 2.337.74.968.372 3.21 1.283 3.21 1.283l2.968 2.62s-2.605-.96-4.42-1.725c-4.084-1.726-3.497-1.782-6.726.678-.932.71-1.905 1.52-1.905 1.52l.395-2.107s1.22-1.212 2.74-2.31c.656-.47.95-.706 1.4-.7zm-37.998.994c2.09-.058 3.465 1.605 3.967 3.463.292 1.075.04 2.07-.018 3.1-1.443 11.057-2.078 21.318-3.404 31.555-.163.49-.34.307-.553-.572-1.536-9.282-2.537-19.47-3.828-28.67-.295-3.434-1.182-7.925 3.164-8.804.232-.044.458-.066.674-.072zm-.125 1.227c-.923.037-2.013.67-2.4 1.486-.79 1.667-.584 5.06.918 15.224.125.847.3 2.26.385 3.14.263 2.7.622 4.844.88 5.242.49.758.555-.057.202-2.698-.18-1.348-.425-3.408-.544-4.578-.674-4.82-.82-8.25-1.24-12.65-.21-2.164.66-3.757 2.294-4.19.884-.233.932-.63.106-.898-.184-.06-.388-.086-.6-.077zm138.247.136c3.053.007 4.176 4.28 1.188 5.79-1.11.558-2.97.295-3.43-.6-.225-.694.026-1.098.58-1.393.674-.36 1.663-.667 1.663-.667s-1.618-.313-2.073-1.08c-.982-1.65.82-2.02 2.072-2.05zm-114.878 4.61c-.035.807-.447.474-.55 0-.328-1.07-1.015-2.234-1.59-2.697-.697-.56-.862-1.318-.39-1.79 1.772-1.566 2.52 3.985 2.53 4.487zm103.59-4.622c.78-.022 1.844.243 2.516.915.868.867.82 1.193-.633 1.723-.707.262-1.193.466-1.193.466s.656.257 1.143.393c1.395.465 1.32 1.274.04 2.23-1.743 1.302-4.545-.426-4.512-2.717.027-1.817 1.147-2.97 2.64-3.012zm6.445-.013l2.79 3.074-3.262 3.375-3.068-3.367zm-94.778.29c.04-.002.078 0 .12 0 .864.016 2.244.6 5.626 1.962 1.858.748 4.006 1.6 4.006 1.6l3.042 2.694s-4.17-1.31-5.62-2.044c-.316-.16-1.008-.454-1.54-.654-.53-.2-1.848-.715-2.928-1.15-2.32-.933-2.348-.94-3.126-.283-.332.28-1.15.92-1.812 1.423l-2.155 1.635c-.613.467-1.388 1.174-1.388 1.174l.49-2.597s.438-.43 1.22-1.03c.636-.485 1.718-1.314 2.406-1.84.698-.536 1.062-.862 1.66-.89zm29.933 2.28c.087.54.035.643-.586 1.278-.785.802-.893 2.115-.318 3.818.16.47.352 1.026.31 1.07-.83.83-3.014-4.41-2.493-5.97.624-1.866 2.674-1.894 3.087-.197zm-47.87.225c.572-.027 1.236.407 1.568 1.308.903 2.52.35 5.612-.572 2.73-.24-.61-.652-1.263-.967-1.595-.324-.344-1.05-.743-1.034-1.303.07-.735.5-1.116 1.005-1.14zm18.663.072c.366.012.854.194 1.73.553.794.325 3.026 1.068 4.295 1.558 1.972.76 4.03 1.765 4.03 1.765l-4.463-.25s-1.516-.505-2.418-.875c-3.27-1.343-3.087-1.336-4.713-.1-.58.44-1.313 1.153-1.313 1.153l-2.268.126s1.066-1.138 2.606-2.28c.504-.373 1.192-.905 1.524-1.182.384-.32.625-.478.99-.467zm34.912.88c1.242-.235 1.922.948 1.843 1.687-.086.81-.838 1.617-1.995 1.842-.243.905-.937 2.972-.532 6.055.327 1.445-.285 1.477-.908.092-1.01-2.244-2.483-8.903 1.593-9.675zm-3.546 2.472c-.527 1.124-.71 2.03-.42 3.45.324 1.58.392 1.968-.504.982-1.736-2.315-1.99-6-.39-6.424 1.545-.41 1.884 1.268 1.313 1.99zm-52.058-1.727c2.71.428 3.508 5.046 3.13 7.02-.718 2.39-.682.775-.933-.22-.668-2.406-1.44-3.716-2.266-3.853-2.223-.37-1.91-3.26.068-2.947zm20.773.908c.046-.002.087.004.13.01.89.15 3.28.887 2.25 1.136l-3.525.02c-.684.024.445-1.115 1.145-1.165zm94.912.756c.342-.03.808.37 1.356.928 1.254 1.278.704 3.292-.99 4.285-2.66 1.558-5.688-1.38-4.227-4.08.8-1.48 1.764-1.216 2.586.874.15.254-.002-.26.28-.897.28-.633.653-1.08.995-1.11zm-4.462.15l-.8 3.21-3.24 1.56 1.183-3.958zm6.74.547l2.584.207 1.43 4.174-3.72-1.587zm-61.015 2.36c1.878.077 2.068 1.85.99 2.627-.604.58-.813 1.416-.687 2.755.056.595.173 1.325.168 1.41-.017.285-.254.24-.576-.11-1.983-2.163-1.72-6.758.106-6.683zm-56.814.694c1.19 0 2.54 3.41 1.876 4.714-.42.767-.822.578-.975-.31-.114-.648-.485-1.533-1.444-1.69-1.395-.446-.94-2.713.543-2.713zm60.247 2.063c.91.47.995 1.516.173 2.1-.637.455-.805.84-.904 2.07.21 2.798-1.364 1.02-1.512-1.525-.08-1.387.67-3.444 2.243-2.645zm-61.247.86c.854 0 1.87 1.534 1.644 2.43-.12.71-.492.585-1.014.057-.202-.158-.655-.32-.867-.385-1.28-.386-1.065-2.1.236-2.1zm24.28 1.18c11.545-.055 23.556 1.778 33.54 5.764l-.824 1.476-2.62-.9-.9 2.377 2.16.822-1.015 2.192c-11.782-3.875-24.49-6.76-45.605-3.636-1.048-.73-2.943-2.168-2.943-2.168l1.687-.37-.22-2.347-4.267.76-1.245-1.303c6.667-1.71 14.35-2.632 22.25-2.668zm38.727.513c1.106.002 1.792 1.243.98 1.775-.567.372-1.828.473-2.08.168-.525-.63.218-1.944 1.1-1.943zm-40.36 1.452l-.047 2.434 3.482-.112.072-2.308zm6.084.053l.015 2.39 3.38.11.16-2.34zm-8.843.164l-3.42.226.107 2.23 3.39-.148zm15.287.37l-.086 2.303 3.438.38.25-2.342zm-21.648.11l-3.438.438.294 2.294 3.342-.37zm28.294.746l-.336 2.404 3.207.476.414-2.284zm56.276.697c1.548 2.166 3.03 4.013 4.058 6.434 1.32 3.11 2.21 7.175 2.207 10.525 0 2.002-1.397 1.6-1.683-.485-1.202-8.78-11.764-10.1-15.916-1.99-1.08 2.322-1.284 5.19-.717 8.39 2.01 11.32 16.277 22.253 20.75 34.13 8.4-17.212 15.772-19.887 19.595-33.9 3.08-10.772-7.404-18.783-15.007-11.805-1.39 1.28-2.67 3.658-2.818 5.227-.315 2.524-1.436 2.148-1.544.068-.04-2.19.9-6.396 2.227-10.142.706-1.976 1.757-4.408 3.178-6.453zm-49.92.65l-.316 2.428 3.26.692.438-2.255zm-23.075 2.798c10.825-.013 20.69 1.852 29 5.01 0 0-1.076 2.322-1.456 2.573-5.962-2.38-16.123-4.592-22.99-4.712-2.515-.093-3.073-.16-4-.48-5.233-1.722-9.853-2.466-14.113.076l-1.74-1.23c5.26-.838 10.38-1.23 15.3-1.237zm118.378 9.055s.613.824.99 1.28c1.677 2.017 2.7 5.63 1.597 5.63-.273 0-.406-.254-.812-.645-1.5-2.22-4.503-1.443-5.665.197-1.195 1.687-1.324 4.416-.4 6.415 3.006 6.198 8.77 13.274 8.666 14.085 3.082-6.877 5.61-8.816 7.892-13.85.82-2.493.828-3.95.192-5.866-.868-2.615-5.08-3.808-6.573-1.082-.49.832-.88 1.07-1.216.736-.682-.682.5-4.416 1.885-5.948.244-.27.7-.952.7-.952zm-164.098 4.823c2.475.03 3.653 3.825 1.038 5.42-.702.397-1.624.344-2.366.01-2.12-1.01-2.278-4.162.192-5.194.4-.167.78-.24 1.135-.235zm80.91.126c.885.54 4.16 1.99 4.16 1.99l-22.99 41.56-5.565.045zm-74.153.098c1.378-.154 2.355 1.03 2.71 2.017.485 1.35-.384 3.746-2.812 3.608-2.786-.158-4.034-5.163.102-5.624zm79.062 2.162c.617.34 2.85.71 3.044 1.14.084.215-.085.64-.135 1.187-.12 1.32.21 2.785 1.01 3.958 1.31 1.82-.11.985-1.42.972-2.954-.755-6.72 3.27-5.288 7.415.33.917.266.99-1.318 1.47-3.596 1.096-5.163 4.91-3.436 8.317.9 1.775.926 1.684-.657 1.816-4.398.365-6.953 4.267-5.107 8.256.286.618.104.788-.856.967-3.002.55-4.347 3.062-4.726 5.818l-3.972.04zm3.808 1.466l7.632 2.082c-3.17 10.775-3.607 23.293.206 37.772l-17.546.015c2.437-2.187 1.474-5.21-1.374-5.874 2.764-1.587 2.765-5.81-.547-6.317-2.913-.448-4.416 2.322-3.123 5.096l-1.244.338s-.557-.7-.685-1.072c-1.098-3.203 1.2-6.382 5.12-6.37 2.42.005 2.92-.68 1.583-2.165-2.388-2.657-1.637-6.39 1.482-7.86 1.436-.676 2.283-.228 2.283-.228l.075 1.76s-.582.056-1.035.128c-3.445.55-2.806 6.042.695 5.994 1.927-.026 3.305-1.487 3.306-3.586 0-.59.003-1.46.003-1.46 1.77 3.028 4.81 3.244 6.105.78 1.523-2.898-1.242-4.72-4.014-4.422 0 0 .582-.377.95-.566 2.95-1.518 1.935-5.855-1.33-5.855-2.24 0-3.546 2.08-2.824 4.288.116.355.39.923.39.923l-1.333.338s-.302-.23-.437-.442c-2.287-3.573 1.385-7.51 6.01-6.616 1.694.53 1.64-.64.688-1.698-1.022-1.525-1.785-3.252-1.034-4.982zm-86.242 1.558l4.005 7.06-4.486 8.13-4.447-7.616zm-.395 3.674l-2.78 3.828 2.723 4.395 2.582-4.448zm-.12 1.438l1.808 2.423-1.822 2.977-1.784-2.794zm82.776 7.626c.842 0 1.53.682 1.53 1.525 0 .842-.688 1.524-1.53 1.524-.843 0-1.525-.682-1.525-1.524 0-.843.682-1.525 1.525-1.525zm83.242 8.396c-1.173.03-2.443.37-3.76 1.053-1.42.735-1.42.733-1.977.366-1.353-.895-1.77-1.106-3.294-1.106-.947 0-1.6.053-1.6.053l.13 3.654c3.283-.088 4.184 1.027 3.494 3.006-.715.896-.553 13.793-.327 18.768-.053 2.443 1.034 4.767 2.536 6.18 2.345 2.077 6.498 1.922 8.91.186 1.61-1.16 2.376-3.1 2.72-5.07.162-4.045.07-8.1.07-12.15l2.6.03-.028-3.665-2.54-.15s.027.105-.08-2.61c.177-5.683-2.74-8.392-6.623-8.546-.077 0-.152-.002-.23 0zm-.207 3.684c2.143.163 3.013 1.013 3.508 2.842.352 1.304.485 2.843.19 3.327-.482.788-2.334-.584-4.76-3.544-.818-.997-1.182-1.51-1.182-1.51.47-.837 1.465-1.174 2.244-1.115zm-3.896 4.92c2.228 1.915 2.543 3.86 7.798 5.707 0 0 .15-.205.06 6.203-.098 7.07-.52 8.516-2.654 9.102-1.85.508-3.59-.35-4.357-2.144-.786-1.836-.976-6.157-.948-14.378.01-2.984.1-4.49.1-4.49zm-89.923 2.14c.872 0 1.58.703 1.58 1.576 0 .872-.708 1.582-1.58 1.582-.874 0-1.578-.71-1.578-1.582 0-.873.704-1.577 1.577-1.577zm-2.392 1.074c-.144.06.004 1.433.35 2-2.28.14-2.883 1.883-3.104 3.354l-2.04-.005c.34-4.975 4.65-5.086 4.794-5.348z"/></svg>