<svg viewBox="260 370 224 313" preserveAspectRatio="none" xmlns="http://www.w3.org/2000/svg" width="744.094" height="1052.362"><title>Vectorized Playing Cards 1.0</title><rect y="589.952" x="2314.331" height="311.811" width="223.228" rx="10.63" ry="10.63" fill="#fff" stroke="#000" stroke-width=".997" transform="translate(-735.6996,-760.44497) translate(-1318.1979,540.76888)"/><path d="M421.19 400.283l-80.526.39 10.226 19.373c20.93-1.882 39.27-.208 58.376.415zm-54.996 68.11c-.084.114-3.35.958-3.018 1.7 8.528 18.253 12.336 33.107 15.898 51.87 1.8-1.462 4.712-1.404 4.712-1.404-1.437-6.968 7.347-7.836 7.405-.547 1.687.39 3.42.396 4.943 2.1.685-20.503 8.043-41.716 17.545-56.414-10.83 4.284-26.717 14.964-26.717 14.964s-13.22-5.46-20.766-12.27zm65.82 2.184c-14.412 13.678-20.052 51.648-19.02 52.172-18.576-.62-24.206 19.853-8.103 30.894-.635 2.14-2.208 3.883-3.427 5.775 1.66.95 3.474 1.153 5.285 1.352 1.376 1.63 2.727 3.508 4.22 3.663 1.62-1.02 2.77-2.513 4.12-3.804 1.684-.428 3.354-.9 4.95-1.63-1.414-1.974-3.09-3.97-3.134-5.818 14-9.868 12.08-23.286-.542-30.155 3.76-22.597 9.244-37.032 15.61-47.297zm-99.256 17.458c-1.83.893-2.83 2.778-4.16 4.258-1.823.083-3.58.706-5.317 1.48 0 0 4.178 5.767 3.92 6.077-13.543 8.866-13.432 21.826-.43 30.362 2.203 18.444-13.475 47.63-14.266 46.783l-.03 6.035c10.91-12.066 17.085-33.985 18.167-51.988 22.283-1.483 23.072-23.003 7.733-31.098-1.18-1.08 3.856-6.08 3.856-6.08-1.28-1.26-3.418-1.403-5.29-1.557-1.182-1.412-2.212-2.82-4.182-4.272zm94.24 14.894c3.15 7.004 14.66-1.532 16.656 2.196 1.62 2.114 5.152 2.33 4.96-1.23-.663-3.528-2.986-4.31-12.2-2.773-3.497.583-4.93.928-4.91-.665-2.418-2.918-4.492 1.052-4.506 2.47zm10.69 10.22c-2.585 0-3.024 10.098-2.987 13.13-7.48 11.81 15.347 10.467 5.475-2.398.344-1.68-1.258-4.422-1.214-5.634-.808-.103-1.163-4.663-1.273-5.097zm-131.596 6.072c-4.048.102-8.5 3.818-2.01 9.16.434.15-.217 1.276.006 3.01 1.83 3.945 1.335 9.788 2.697 8.89 1.575-1.037 2.89-5.396 2.55-11.484-.022-.4-.55-.823-.452-1.254 3.643-6.008.563-8.406-2.79-8.322zm41.422 11.315c-1.04 19.725-5.874 39.078-16.828 55.86 9.43-4.392 18.58-10.06 27.436-14.913l20.694 12.805c1.198-.52 2.028-.777 2.823-1.562-9.538-13.943-12.49-34.012-16.644-52.167-1.58 1.12-4.554 1.684-4.554 1.684-.213 6.297-6.82 8.338-8.17.125zm-49.946 15.39c-2.207.14-3.867 5.602 2.385 6.41 4.413.625 10.064-1.547 12.867-.542 3.26 5.197 6.184-2.453 1.83-3.7-4.68-1.34-14.208 2.156-15.262-.816-.542-1.016-1.202-1.393-1.82-1.354zm37.533 85.437l-12.483 22.045 79.818-.482L392 631.9c.18-.232-34.86 4.166-56.9-.536z" fill="#e2cf00"/><path d="M352.423 421.932l1.296 3.092c17.145-2.072 35.08-4.22 53.04.348 0 0 1.317-2.86 1.297-3.067-16.733-4.255-54.152-3.15-55.634-.373zm17.35 43.435l16.314 10.552s7.813-5.52 11.143-7.856l-2.02-2.97c-6.9 15.21-19.03 3.182-23.577-3.975 0 0-1.236 2.77-1.86 4.247zm43.82 5.105c1.13-.024 1.756.412 2.325 1.562.64 1.3.886.98.474-.64-.65-2.556 2.063-4.218 4.62-2.513 1.845 1.233 1.765 4.213-.252 4.766-1.63.445-1.672.873-.24.803 2.567-.126 3.25 3.3 1.423 4.974-2.1 1.926-4.78.56-5.024-1.854-.113-.683-.257-.673-.483-.287-.648 1.115-.708 2.564-.582 3.875l-3.793-2.353c1.35-.668 2.174-1.072 3.15-2.086.127-.133.223-.23.222-.288 0-.103-.422.035-1.195.115-2.293.24-4.057-1.246-3.587-3.404.4-1.835 1.35-2.635 2.94-2.67zM396.862 530c4.127-4.72 9.252-7.75 16.374-7.327.905-19.78 7.765-37.366 18.75-53.21l-12.085-7.266-4.85 2.925c-11.66 16.537-18.823 37.52-18.19 64.877zm-90.584-46.217s-8.182 6.126-11.982 9.085l.183 54.537 1.058.362c.075.116-.092-.81.392-1.23.397-.347 1.025-.74 1.398-.875 1.05-.383 1.098-1.084.116-1.69-.76-.47-1.05-1.197-.963-2.405.062-.852.026-1.038-.33-1.617-.44-.72-.478-1.63-.103-2.573.175-.438.158-.556-.153-1.148-.396-.755-.444-1.567-.15-2.44.114-.336.196-1.067.185-1.63-.04-2.173 1.753-3.614 5.065-4.068 1.295-.178 1.335-.23.74-1.317-3.354-6.126 4.182-9.318 4.746-8.338zm103.214 3.042c3.06-.045 5.58 2.397 5.624 5.458.044 3.06-2.402 5.58-5.463 5.624-3.062.045-5.58-2.402-5.625-5.463-.044-3.06 2.402-5.575 5.464-5.62zm.052.99c-2.45.035-4.407 2.048-4.372 4.5.036 2.45 2.05 4.41 4.5 4.376 2.452-.035 4.413-2.053 4.377-4.505-.035-2.45-2.053-4.407-4.504-4.37zm.115 1.407c1.663-.024 3.032 1.302 3.057 2.964.024 1.662-1.307 3.032-2.97 3.056-1.66.024-3.026-1.306-3.05-2.97-.024-1.66 1.3-3.026 2.964-3.05zM299.62 491.5c.225-.005.465.03.71.107 1.38.44 1.863 1.655 1.115 2.808-.588.905-.52.983.508.6.81-.3 1.22-.205 1.86.426 1.912 1.895-.935 5.078-2.808 3.15-.927-.956-1.015-.674-.372.967.208.53.552 1.356.552 1.356l-2.745-.04s.426-1.094.623-1.61c.475-1.243.49-1.425-.5-.643-2.233 1.764-4.766-1.254-2.71-3.228.417-.4 1.09-.42 2.02-.053.68.266.763.08.253-.56-1.11-1.396-.084-3.253 1.494-3.28zm56.893 4.887c-1.116 7.308-.142 17.565-.166 23.045 2.976.567 3.01 2.595 3.467 5.115 1.447-.505 4.61 1.632 5.043 1.444.33-7.414-3.527-28.94-8.344-29.603zm49.385 7.324c4.225.34 3.416 3.603 2.157 4.944-.596.687-.486.996.17.6 1.784-1.077 3.2-.3 3.775 1.56.982 3.17-3.188 5.904-5.048 3.057-.63-.964-1.016-.746-.862.263.095.973 1.046 2.99 1.046 2.99l-4.146-.372s1.267-2.106 1.49-2.674c.46-1.177.217-1.49-.668-.542-2.593 2.373-6.186-.665-4.512-3.81.826-1.55 2.348-2.052 3.992-.817 1.107.723 1.346.41.356-.467-1.85-1.64-.238-4.928 2.25-4.73zm-106.077 2.592c.048-.003.094-.003.142-.002.355.006.727.105 1.1.314 1.03.58 1.31 1.722.665 2.715-.37.57-.263.932.17.558.577-.5 1.853-.168 2.35.612 1.28 2.002-1.22 4.622-2.814 2.955-.704-.736-.973-.766-.89-.283.228.907.825 2.455.825 2.455l-2.87.05s.62-1.628.756-2.453c.106-.654-.155-.56-.838.213-.666.75-1.27.83-2.118.267-2.093-1.387-.417-4.947 1.765-3.75.752.41.857.173.27-.604-1.05-1.387.02-2.977 1.488-3.048zm149.064-1.272c-4.647 4.802-3.19 1.963-1.035 5.624.007 2.413 1.415 4.302.3 8.112-.36.744-.39 1.098-.194 1.847-.34 4.208-3.712 4.154-6.99 4.807.544-.036 5.193 8.554-3.48 9.226l.097 34.922 13.602-10.028-.06-54.51zm-102.072 18.437c-3.856 2.486-9.274 8.696-16.087 7.347-.825 21.787-7.976 38.655-18.175 53.15 3.52 2.083 7.398 4.582 11 6.184 3.044-1.57 4.754-2.226 7.742-4.685 12.262-18.94 16.15-39.647 15.52-61.996zm32.02 3.985c.688 11.19 2.508 21.786 8.33 30.288l.393-23.78c-2.074-.498-3.773-1.838-4.38-5.64zm-42.07 6.6l3.89.093s-.882 1.758-1.264 2.74c-.464 1.203-.243 1.447.643.612 1.156-1.086 2.996-1.187 3.964-.217 2.57 2.575-.118 6.77-3.16 4.93-1.3-.788-1.518-.524-.485.592 2.008 1.864-.09 4.55-2.438 4.56-1.698-.006-2.798-1.364-2.93-2.86-.066-.94.406-1.884 1.222-2.342.852-.48.242-.79-.683-.292-3.018 1.624-5.038-2.548-2.76-4.922 1.314-1.37 2.704-1.24 4.04.066.932.912 1.266.83 1.002-.248-.265-1.215-1.04-2.71-1.04-2.71zm104.995 3.276l2.787.003c-.274.69-.628 1.394-.85 2.076-.24.742-.065.837.673.12 1.92-1.29 3.97 0 3.553 2.042-.287 1.41-1.467 2.1-2.83 1.49-1.203-.54-.817-.31-.133.513.813.98.606 2.12-.47 2.876-1.9 1.337-4.412-.884-3.154-2.823.742-1.153.402-1.028-.274-.47-1.015.742-2.547-.308-2.577-1.764-.117-2.095 1.996-3.273 3.487-1.79.71.596.886.523.566-.346-.294-.63-.39-1.307-.78-1.926zm.15 15.228l2.92-.034s-.04.224-.49 1.07c-.53.992-.45 2.02.103 1.322.932-1.177 2.91-.85 3.56.59.755 1.676-.718 3.528-2.246 2.824-.994-.458-1.062-.36-.402.595.643.93.358 2.07-.686 2.735-2.05 1.31-4.51-1.304-2.802-2.976.458-.448.314-.666-.24-.365-2.265 1.23-3.935-1.83-1.977-3.62.833-.763 1.47-.71 2.842.236.425.295.507-.01.2-.757-.524-1.275-.784-1.62-.784-1.62zm-108.425 1.832c3.25-.048 5.922 2.547 5.97 5.797.046 3.25-2.548 5.927-5.8 5.974-3.25.046-5.925-2.553-5.972-5.804-.047-3.25 2.552-5.92 5.802-5.968zm.067 1.05c-2.67.04-4.806 2.232-4.767 4.902.04 2.67 2.236 4.806 4.907 4.767 2.67-.04 4.805-2.237 4.766-4.907-.04-2.67-2.236-4.8-4.907-4.762zm.055 1.857c1.644-.024 2.994 1.288 3.017 2.932.024 1.643-1.287 2.998-2.93 3.022-1.645.023-3-1.293-3.023-2.937-.025-1.644 1.29-2.994 2.935-3.018zm-7.4 14.26l3.4 1.662s-1.608 1.308-2.248 1.98c-.817.87-.76 1.275.343.86 2.105-.79 4.212.394 4.252 2.578.053 2.915-3.395 4.32-5.05 2.11-.493-.655-1.08-.928-.85-.392.56 1.305.217 2.948-.76 3.623-.78.54-2.21.7-2.932.325-2.48-1.284-2.61-4.142-.237-5.27 1.193-.57 1.232-1.1.06-.808-2.443.608-3.868-2.348-2.106-4.378 1.87-2.156 4.918-1.71 5.255 1.48.06.567.447.156.62-.713.207-.645.254-3.054.254-3.054zm31.674 4.796s-12.444 7.08-12.065 7.38c.074.043 2.758 3.82 2.758 3.82 6.173-13.987 20.957-2.403 23.325 4.738.514.317.602.226 1.16.477.053-.504 1.078-5.465 1.078-5.465zm-19.955 51.428c-.623.78-2.71 2.993-2.446 3.076 18.285 3.93 37.144 3.62 56.34 1.535l-1.464-4.612c-18.957 4.83-52.43 0-52.43 0z" fill="#d40000"/><path d="M291.755 398.452l1.12 257.077 160.478-.568-.962-256.82zm48.805 1.832l80.038-.327c-3.752 9.746-14.564 25.144-14.052 25.18-16.65-2.75-33.81-4.138-53.005-.04zm-46.952.627l44.915-.058 14.814 26.553s.87 1.657.35 3.39c-.567 1.892-1.054 2.732-1.565 3.698.05-.55-4.268-1.097-3.907 2.6.245 2.504 3.413 3.92 5.772 1.972.377-.03.374.32.292.93-.22 1.434-1.742 5.985-2.786 6.287-5.32-4.36-7.216 3.603-3.63 5.19 2.075.92 5.268.16 6.76-2.335 1.14-1.91 1.015-1.594 1.374.723.134.862.323 1.86.42 2.31.305 1.403 0 1.675-2.362 2.313-1.902.74-3.83 1.15-5.79 1.574-3.586.587-5.418 3.29-5.507 6.582-.02.71.004 1.04-.148 1.25-15.165 5.756-31.28 13.81-48.184 27.562zM395.44 463.96c-.574-.93-2.41-5.807-2.914-7.842-1.316-9.866-1.566-21.578-2.973-30.762l1.853.208s.697 2.66 1.446 9.843c.372 3.562.76 10.965 1.07 14.368.467 5.058 2.752 13.144 4.168 15.185 2.31 3.33 6.95 1.176 5.397-2.777-.805-2.05-3.923-1.718-3.49.41.007.38.295-.27.752-.67 1.346-.51 2.862.89 2.07 2.58-.98 2.156-3.888 1.172-4.852-1.546-1.152-3.246 2.73-5.68 5.632-3.7 3.234 2.206 3.24 7.797.636 9.56-4.384 1.6-7.364-1.594-8.795-4.856zm10.84 4.112c-.178-.104.005-.443.22-1.25.812-3.018.302-5.372-1.65-7.59-1.088-1.238-1.498-1.455-.928-1.68 1.208-.474 3.876 1.463 4.61 3.368.722 1.87.903 3.804-.115 5.918-.71.454-1.81 1.364-2.138 1.234zm3.302-2.01c-.003-.352.235-1.465.29-2.01.21-2.105-.774-4.243-2.516-5.914-1.462-1.402-1.596-1.547-.213-1.57 3.57-.06 5.845 5.71 4.198 8.55-.423.45-1.716 1.373-1.758.945zm3.02-1.95c1.052-4.92-3.705-8.197-3.8-8.044.237-1.102 2.126-.468 2.77-.04 2.404 1.615 3.787 5.835 2.31 8.233-.16.294-.357.463-.616.622-.497.31-.79.562-.89.343-.077-.165.2-.88.227-1.116zm-41.848-15.957c.497-.488.646-.502 1.6-.14 2.994 1.13 5.384-1.018 4.678-3.275-.256-.818-1.377-1.705-2.067-1.776-1.128-.117-1.15.478.065.932 1.493.558 1.644 2.143.33 2.858-1.545 1.042-4.074-1.604-5.93-1.38-.886.264-1.453 1.094-.947 2.107.396.71 1.73 1.14 2.27.673zm-3.32-.323c-1.038-.482-1.433-.473-1.235-1.605.13-.746 1.193-5.762 1.698-7.7 1.513-5.808.092-9.027-4.194-10.325-2.904-.88-5.405-.434-8.364 1.14l-.532-1.642c12.405-3.245 33.576-2.525 33.5-2.4.42 1.67.578 3.34.74 5.01 0 0-3.965-1.946-6.035-2.594-3.188-.977-8.226.095-9.12 1.924-.505 1.038-.242 1.73 1.9.576 3.506-1.887 10.666-.45 13.19 1.553.58.46.55.56.562 1.102.017.823.065.872-1.082.258-6.017-3.076-11.16-2.72-12.933 1.32-.408-.124-1.968-.393-1.968-.393l1.675 2.477.318 2.593s2.738 1.52 4.247 2.162c1.485.63.63-.04-1.193-1.31-1.34-.93-.275-1.23.608-.873 1.816.417 4.472.946 7.545-1.005.954-.607 3.14-.08 3.173.193 0 0 .29 2.267.58 7 .136 2.237.412 5.16.568 6.36.473 3.626.61 3.832-1.3 2.094-.64-.583-1.706-1.55-1.718-1.493-.242 1.124 2.573 3.1 3.228 3.777.995 1.03 1.793 3.662 1.395 3.818-.254.1-2.927-2.168-5.032-4.208-.79-.764-1.963-1.788-1.997-1.753-.434.29 1.334 2.284 2.99 3.776 1.93 1.74 2.154 1.896 1.505 2.158-1.2.485-2.278-.117-5.19-2.523-.282-.235-1.384-1.016-1.437-.96-.265.354 2.42 2.896 3.03 3.115 1.133.406 1.46 1.5.566 1.93-.597.286-2.82-.932-4.6-2.475-.32-.277-1.206-.747-1.265-.684-.354.227 1.638 1.95 3.538 3.093 1.86 1.12 2.158 1.397 1.684 2.33-.442.958-4.525-1.263-6.568-3.55-.434-.487-.778-.697-.69-.533.888 2.466 3.816 4.232 5.994 4.936.388.126.952.283 1.206.485.62.492.483 1.005-.19 1.294-2.322.65-5.984-2.162-8.604-5.11-.303-.124-.122.262-.042.39 2.185 3.486 6.37 6.14 8.89 5.644 1.472-.29 2.656.154 2.667.648.01.405-.802 1.05-2.387 1.164-3.584.255-9.184-3.666-12.46-8.66-.102-.156-.223-.213-.23-.12-.09 1.06 1.947 3.656 3.51 5.14 4.64 4.413 9.03 5.904 12.45 3.42 1.93-1.497 3.797-4.767.922-5.86-1.523-.578-2.486 1.518-1.184.92 1.71-.206 2.1.7 1.877 1.554-.436 1.465-1.887 1.697-3.067 1.082-2.054-1.112-1.618-4.925 1.04-5.59 2.397-.58 4.487 1.452 4.762 3.378.426 2.993-2.95 6.23-5.657 7.037-9.234 2.747-16.447-10.084-16.488-10.375-.464-.89-1.02-1.363-1.372-.324-.38 1.505-2.463 5.92-3.578 5.892.347-1.557 1.81-4.174 1.454-6.467-.616 1.883-1.916 5.9-4.402 8.04-.644.586-2.536 1.278-1.234-.232 1.57-2.21 3.628-5.23 3.202-8.066-.417.637-.644 2.25-1.12 3.317-1.195 2.67-3.803 5.834-5.525 6.347-1.27.38-1.152-.05.15-1.42 1.395-1.47 3.866-5.786 3.703-7.646-.07-.82-2.563 7.107-7.25 9.277-1.264.462-1.984-.12-1.984-.12 1.842-1.06 6.93-6.076 6.45-11.774 0 0-.27.844-.672 2.11-1.725 5.438-5.43 9.013-8.32 9.31-2.306.236-3.916-.694-3.344-1.105 2.99.022 5.447-1.012 7.367-3.926 1.95-2.962 2.678-7.72 1.495-12.757-1.066-4.543-1.3-8.627-1.672-12.994 3.276 1.12 6.572 1.865 9.76.618-.32 1.3-.85 1.463-1.693 2.445-.61.718-.402.89 1.98-.794.695-.49.945-.883 1.07-.752.204.213-.113 1.552-.806 4.222-1.036 3.993-.766 4.28 3.07 5.784.715.28.983.555 1.233.854.118.14.747 1.273.807 1.313.14.095.103-1.154.026-1.47-.206-.84-.66-1.47-1.056-1.717-.753-.693-1.84-.754-2.536-1.073zm72.42 52.08l.038-4.146 4.027 2.857-.05 1.37zm-6.884.9l-.148-76.68s3.09-2.054 4.637-3.07c.964 3.04.957 9.558.595 12.46-.605 1.89-.875 10.305-.188 14.586.547 3.413.446 9.057-.07 11.76-.202 1.055-.046 6 .333 10.578.29 3.497.207 6.677-.216 8.497-.333 1.435-.217 6.575.162 8.546.56 2.9.654 12.217.404 12.724-.664.75-5.858.857-5.51.6zm6.124-80.246s3.113 2.057 4.615 3.085l.02 3.303-4.5-2.938zm-46.473 5.34l1.926.118c.767 3.993 1.1 8.532 1.405 13.083.1 7.016.965 14.417 2.612 19.267l-1.415 1.485c-2.41-5.56-2.6-14.327-3.138-20.26-.237-6.676-1.334-13.652-1.39-13.694zm46.848-.7l4.187 2.833.044 3.593-4.22-2.798zm-44.07.962l1.692.184c.514 4.74 1.303 7.958 1.603 13.18.388 6.755 1.56 12.3 2.287 17.577l-1.266.42c-.848.392-2.254-5.843-2.88-18.482-.188-3.825-.836-8.127-1.435-12.88zm2.56.18l2.02.36c.892 12 2.303 23.27 3.78 29.73l-1.756.115c-2.178-9.23-2.32-19.908-4.045-30.205zm2.916.424l1.856.322c2.233 27.443 3.61 27.09 4.04 28.168l-2.008.815c-2.172-7.886-2.61-19.004-3.888-29.305zm8.426 26.956c-.317.924-1.07.838-1.89.933-.92-2.523-1.457-5.53-1.843-8.473-.846-6.465-1.152-12.528-2.034-18.91l2.213.228c-.07.05 1.57 22.503 3.554 26.22zm-47.633-24.122c2.92.14 5.34 1.45 5.572 3.367.052.432-.29.223-.685-.08-2.51-1.923-5.366-2.523-8.814-1.282-.75.27-1.366.697-1.702.638-.3-.193-.395-.66-.164-1.046.804-1.344 4.35-1.666 5.793-1.596zm-6.766 3.85c.063 3.02-.672 4.688-2.258 5.386-1.914.843-4.37-.962-3.176-2.98.902-1.528 2.452-1.068 2.747.536l2.432-5.415s.25 1.716.256 2.473zm88.835-.486l-.027 3.115-4.488-3 .3-2.994zm-79.615-.406c2.21.876 3.023 1.946 3.104 2.42-.127.355-.348.114-1.963-.758-2.485-1.525-5.726-1.773-8.573.162-.71.14-.783-.262-.07-1.026 2.168-1.7 5.165-1.724 7.503-.798zm16.79-.583c1.947-.063 4.272.432 6.236 1.417.87.436 1.648.708 2.215 1.208.453.237.49 1.264.157 1.342-.296.04-.78-.19-1.505-.695-4.667-3.03-8.025-2.658-10.724-.792-.15.103-.613.21-.797.195-.513-.04-.54-.25-.325-.528 1.25-1.41 3.116-2.092 4.746-2.148zm58.324 2.18l4.498 3.143-.003 3.09-4.783-3.324zm-81.185 1.256l.655.02c1.53 3.708 3.45 1.796 4.25.31l.8.13c-1.253 4.97-6.348 2.37-5.706-.46zm-1.12.495c.744.09.718.93.95 1.543.52 1.368-1.452.21-1.79-.123-.572-.602.24-1.358.84-1.42zm22.262-.144c1.94 2.95 3.057 1.204 4.162-.08l.527.167c-.138 2.118-3.703 4.376-5.396-.035zm5.963.333c.207.003.624.15 1.007.306 1.06.43 1.004.743-.17 1.266-1.878.835-2.53.943-1.97-.237.325-.54.54-1.254 1.133-1.336zm-7.368.45c.473.347.783.73.838 1.356.038.44-1.428-.067-1.426-.77.046-.445.287-.807.587-.587zm-12.995.167c.963.357.848.816.177 1.233-1.207.67-1.723.54-.943-.517.36-.487.437-.706.765-.716zm74.14 1.555l4.87 3.424-.042 3.143-4.867-3.318c-.226-1.347-.012-2.252.04-3.25zm-84.174 4.865c.23.006.322.77.377 1.886.09 1.855-1.8 4.44-3.71 5.33-2.3 1.072-4.762-.432-4.35-2.66.38-2.053 3.298-2.138 3.408-.24-.284.498.114.916.277.872.75-.2 2.52-1.793 3.24-3.573.28-.695.45-1.41.65-1.57.04-.032.075-.045.108-.045zm84.043-.58l4.87 3.552.02 3.122-4.826-3.32c-.19-1.392-.108-2.385-.063-3.354zm-59.057 4.947c-.368.618-.066 1.725.688.782 1.94-2.257 4.75.567 3.247 2.362-1.364 1.63-3.042 1.105-6.586-.248-2.58-.986-2.988-.65-3.624.062-.524.586-.257 1.766.42 1.752 2.093.475 3.905.938 6.07 1.388 4.578.94 7.37-4.957 3.19-7.124-1.002-.518-3.072.156-3.403 1.026zm-20.202.68c-1.784 1.6-.32 5.805 2.308 6.18.55.08 1.372.057 2.304-.212 1.84-.53 3.865-1.62 3.948-2.252.377-2.88-3.91-.298-4.477.044-1.35.82-2.782.714-3.502-.26-1.623-2.197 1.288-4.717 3.055-2.03.446.678.29-.47-.197-1.25-.687-1.104-2.46-1.032-3.437-.22zm79.584-.908l4.575 3.233-.027 3.006-4.436-3.198zm.342 4.402l4.333 3.116.073 3.126-4.547-2.993c.09-1.125.11-2.183.14-3.25zm-24.29 1.795c3.81.063 5.958 5.69 3.95 8.033-.598.696-1.075.883-1.346.623-.058-.057.038-.686.077-1.398.123-2.268-.36-3.82-2.02-5.544-1.243-1.293-1.714-1.693-.66-1.715zm-46.906.897c-.72.257-1.48.776-2.07.648-.582-.126-.86.162-1.09.618-.87 1.746-.6 2.31 1.127 1.32.82-.47 1.108-.302 3.303.112 1.568.296 2.635.267 4.016-.09 1.715-.446 2.738-.48 3.607-.007.868.476 1.462 1.13 1.484.597-.097-.623-.64-2.217-.766-2.747-.06-.255-.486-.03-.89 0-1.422.102-3.12-1.177-4.218-.5-.88.54-.996.682-2.202-.025-.9-.527-1.52-.202-2.3.075zm45.882.392c2.58 2.154 3.24 4.065 2.99 5.633-.128 1.14-.213 2.4-1.33 3.087-.207.098-.514.16-.8.2.868-3.24-.154-6.14-3.8-9.236 1.06-.525 2.142-.35 2.94.316zm-58.178-.005c.114 0 .24.018.368.06.448.148.52 1.32.166 1.686-.352.367-.636.064-1.045-.867-.303-.507.015-.878.51-.88zm-2.382.91c.94-.018 1.3.844 1.46 1.53.138.587-.036 2.335-.536 1.725-.12-.37-.632-1.565-1.04-1.875-.913-.692-.822-1.36.116-1.38zm-2.652.87c.138-.004.315.012.53.048 1.47.247 2.595 2.587 2.253 3.914-.778 1.427-1.066.464-1.323-.83-.2-.537-.803-1.378-1.172-1.813-.766-.9-.884-1.304-.288-1.32zm88.4-.68l4.477 3.208.007 3.434-4.685-3.15c.103-1.202.157-2.353.2-3.494zm-91.308 1.39c2.193.005 4.065 2.554 3.373 5.012-.857 2.56-5.125 2.015-4.416-.54.203-.736.987-1.274 1.736-.813 1.083.664.964-.417.276-.8-1.06-.594-2.518-.235-2.843.964-1.133 4.182 4.24 5.607 7.166 1.288 1.07-1.58 2.232-3.268 2.875-3.988.578-.648.7-.58.608.255-.373 3.884-3.08 8.74-8.16 8.474-4.938-.47-6.482-5.707-2.753-8.977.626-.55 1.286-.82 1.925-.867.07-.005.14-.008.212-.008zm26.16.213c-1.806.875-3.443 1.206-5.222.432-1.314-.573-1.294.05-.722.56 1.65 1.405 4.655.77 5.942-.023.417-.258.555-1.002.002-.97zm69.64 6.21l.014 3.122-4.998-3.347c-.08-.748.005-1.883.17-3.056zm-4.818 1.042l4.76 3.134.125 3.095-4.625-2.866zm.332 4.342l4.546 3.143.065 3.38-4.503-2.964zm-110.857 3.552l-2.783 8.405 1.822.112 1.228 2.217 1.264-2.274 1.917-.145zm111.045 1.122l4.382 3.01.066 3.12-4.552-3.145zm-.178 3.82l4.492 3.245.088 3.315-5.09-3.392zm-100.494 1.876l-2.755 9 1.553-.212 1.455 2.407 1.468-2.163 1.392.08zm-20.737.67l-2.624 8.944 1.76-.006 1.484 2.255 1.303-2.178 1.992-.053zm120.646 1.646l5.272 3.698.043 3.52-5.11-3.422zm5.21 8.362l.06 3.083-4.435-3.157-.48-3.423zm-94.098.53l-3.22 9.09 2.16.02 1.31 2.184 1.047-2.193 1.736.017zm90.015.907l4.113 2.82-.03 3.164-4.052-2.713zm-77.99 36.783l-2.343-2.253c-.03-.184 1.917-1.127 3.115-.527 1.582.792 2.395 3.64.624 5.14-1.41 1.192-3.562.2-3.604.06zm-2.085-3.716c.04-3.48-1.792-4.373-3.308-5.078 0 0-.253-22.056-.22-22.715 0 .096-.39-2.388-.433-2.535 0 .002-.364-.097-.364-.093.064 2.236.21 25.152.175 25.3-2.837.328-3.63 2.25-3.886 4.827-2.215-.166-3.654 1.166-3.7 1.387-.816-1.12-.207-2.774-.852-3.946-1.96 6.858 1.853 10.96 5.18 10.58.536 6.583 7.788 7.774 7.54-.213 8.775-.514 5.803-8.58-.133-7.513zM318.6 496.92l-3.175 8.905 2.227-.254.81 1.644c3.568-3.142 5.368 1.71 3.554-2.45zm120.752 15.846c.41-.03.95.34 1.057.842.077 1.504-1.945 1.166-2.01.217-.044-.675.567-1.03.952-1.06zm1.32 9.778c.872-.715 2.26-.312 2.28.766.02.955-1.074 1.27-1.93.733-.665-.405-.707-1.16-.35-1.5zm.123 2.65c4.777.363 8.33-2.88 6.81-5.21 1.282-1.613.235-2.54.586-3.464 1.015-1.04.167-3.275-.087-3.283-.208-3-1.08-3.384-2.377-4.983-.39-.463.91-.916 1.407-1.712-1.32.507-2.616-.472-2.61-.696l-.56-.697c-8.847.41-16.79 1.028-16.49 13.022-1.272 5.09.884 9.624 7.058 8.223 1.352-1.207.462-2.957.296-3.798-.527-2.313.082-3.817.252-4.9.525-3.353 2.982-6.465 3.25-1.21.43-.66.226-.757.937-1.03 1.696-.612 1.693 1.1 1.346 1.792-.222.355-.558.325-.904.285-.493-.06-1.137-.242-1.147-.423-.134.546.895 1.56.788 2.072-.137.486-.223.447.227.125 2.127-1.522 3.46 1.878.38 1.49 1.517.81-.727 3.18.84 4.393zm-3.15-18.304c1.68-.086 2.08-.1 2.002.78.318 1.624.726 2.377 2.843 2.207 2.134-.278 2.812-.412.663.878-1.084.478-1.437.57-2.722.455-1.295-.116-1.196-.247-1.936.196-.414.247-.866.547-1.202.608-.498.09-1.376.283-1.376.283-.5 2.522-1.26 3.792-2.304 4.99-1.478 1.68-2.228 1.974-.415 1.848.67.042.323-.294.616 2.425.102.952.28 2.057.422 2.427.47 1.24.534 1.855-1.258 1.943-4.473.338-5.517-4.015-4.922-6.24.052-.35.256-1.506.3-2.425.024-.502-.077-.927-.065-1.44.102-4.148 1.086-5.24 4.768-7.937 1.11-.814 3.104-.98 4.588-.998zm3.93.223c2.065-.042 4.06.95 3.064 1.593-.644.416-2.967.243-3.612-.216-.832-.592-.52-1.355.547-1.377zm-92.074 3.522l-.818 1.45-.854 6.75.152 1.37 1.69 2.214 1.336-2.297 2.102.037zm96.542-.673c1.338.268 1.39 1.488 1.05 2.24-.747 1.652-5.75 2.45-5.75 2.452-.04-.71.06-1.394-.46-2.192 0 0 3.33-.87 4.035-1.514.47-.43.756-.972 1.125-.986zm.99 3.76c.484.005.742.356.874 1.07.062.383-.083.71-.394 1.128-1.27 1.38-4.84 2.336-6.13 1.985-.09-.12.13-1.573.222-2.22 1.717.052 4.608-1.47 5.428-1.964zm-50.887 8.496c-1.706-2.46-5.49-2.1-5.084-1.928.028-2.107-.332-5-3.53-5.31-3.226-.243-4.884 4.012-3.66 5.813-1.99-.826-4.976 1.245-4.976 1.44-.254.008-2.536 6.037 4.368 6.347.628 2.847 1.705 4.223 3.912 5.394l.054 23.23.78 1.055.07-24.345c3.532-.157 3.967-4.2 3.705-5.132 1.57.068 2.995-.247 4.196-1.163l.412 3.97s.828-1.4.646-2.144c-1.538-22.815 6.716-47.496 17.55-63.494.58-.67.757-1.473 1.044-1.48 2.642-1.422 4.312-2.38 4.312-2.38 4.357 2.093 12.137 7.147 12.137 7.147l.128 32.51c-.12-.32 14.498-1.63 14.278-1.236 0 0-1.28-.5-1.3-1.357l-.38-76.076-6.396-4.176s-5.26 3.435-6.73 4.61l.16 44.79-11.327-6.637s.18-1.584.198-2.098c-.18-6.113-3.18-8.164-8.894-6.35-.766.242-1.298.455-1.673.142-2.405-7.03-3.487-25.51-3.484-25.51l16.12-27.31 27.35-.15.474 104.35.99 54.696-13.96 10.165-.204-35.037s-2-.956-2.523-1.02c-.197-.016-.45.424-.095.65.512.328 1.775.786 1.775.786l.296 34.727s-5.427 3.65-7.853 5.173c-1.81 1.124-7.53 4.005-10.92 5.664-1.314.644-2.642 1.16-2.765 1.26-4.616 1.984-8.778 3.373-12.626 5.42-2.656 1.086-2.536.022-3.1-.846-5.54-5.477-12.694-5.8-18.49-3.272-.898.333-2.01.623-2.76 1.144-.217.16-.595.34-.843.4-.508.12-1.064.345-1.53.714-.834.66-1.39 1.733-1.866 2.8-.294.66-1.18 3.74-1.297 4.652-.02.153.296.12.307.134.04.056.89-3.73 1.228-4.446.72-1.53 1.63-2.445 2.11-2.59.22-.036.41.304.113.843-.59 1.07-1.072 3.347-1.215 4.374-.13.947-.154 1.707.023 1.74.03.03.868-2.868 1.245-3.89.982-2.668 1.602-3.773 2.548-4.342.972-.584 1.202-.502 1.01.118-1.443 2.816-2.04 4.945-2.32 7.944-.045.598.258.615.497-.375.79-3.15 1.876-7.408 4.44-8.68 1.096-.494 1.582-.47 1.464-.117-3.053 3.858-3.816 8.142-3.78 9.525.012.46.2.37.59-.63 1.035-3.8 2.568-7.035 4.388-8.622.704-.613 1.557-.783 2.27-.87 2.158-.27 2.232.53.354 1.624-2.138 1.245-4.61 5.775-4.886 9.177-.095 1.177.32 1.305.616-.265 1.268-6.76 7.065-11.23 11.71-9.16 2.09.93 2.47 2.225.65 1.65-3.683-1.165-7.773 1.445-9.46 5.087-1.524 3.29-1.492 5.02-.42 9.43.73 4.073 2.156 9.278 1.686 13.267-.506.775-2.106-.32-3.995-.552-1.14-.213-2.53-.267-3.72.19-1.038.395-1.626.494-1.818-.063-.062-.18.8-1.058 1.184-1.544.612-.776.26-.9-.604-.057-.424.414-1.334 1.38-1.583 1.43-.546.11-.568-.506-.128-2.073 1.547-6.085 1.133-6.188-1.52-7.42-2.63-1.002-1.797-1.506-2.962-2.502-.82.64 1.072 3.582 3.213 4.224 1.75.525 1.538 1.42.77 3.83-.777 3.37-2.104 7.832-1.336 10.825 1.613 6.29 8 6.162 12.89 3.62l.598 1.603c-4.136 1.675-25.934 3.106-33.28 2.26-.568-1.984-.625-2.494-.855-4.83 0 0 4.538 2.048 6.803 2.403 2.828.445 7.184.466 8.3-2.138.34-.764-.01-1.41-.986-.967-1.794.813-4.86 1.415-7.337 1.262-2.08-.128-5.043-.963-6.325-1.735-.608-.366-1.122-1.084-.645-1.984.422-.094.978.373 1.307.542 3.752 1.893 5.81 2.26 8.257 1.535 1.856-.55 4.357-2.553 3.74-3.12-.627.217-2.707 1.963-4.14 2.344-2.953.783-6.1-.418-9.167-2.404-.947-.82-.514-1.42.645-.763 4.593 2.312 6.508 3.846 10.904.6.98-.727 1.528-.634 2.105-.193 2.282 2.044 2.275.896.603-1.227-.38-.482-.724-1.158-.952-1.877-.168-.53-.205-1.064-.51-1.413-.518-.596-1.45-.885-2.518-1.354-1.54-.68-2.053-.353-.916.2 1.99.972 2.96 2.012.487 1.45-2.245-1.002-5.992-.44-8.112 1.03-1.665.812-2.398 1.68-2.79-.155-.824-3.83-.022-9.03-1.125-15.717-.21-1.274-.468-2.083-.2-2.257.34-.223 1.196.602 2.255 2.09.483.677 1.442 1.982 1.437 1.71.036-1.415-2.166-4.073-3.984-5.12-.997-.575-1.676-3.233-.533-2.648.882.43 5.47 4.463 6.344 5.9.407.67.75.243.32-.542-.257-.472-1.336-1.856-2.384-2.88-1.86-1.814-2.075-1.73-1.718-2.1.707-.737 2.22.21 4.914 2.65.69.872 1.606 1.66 1.493 1.227.276-.68-2.422-3.58-4.023-4.357-.3-.187-.34-.385-.312-.746.152-1.37 3.25.642 5.82 2.99.963.88.165-.774-.95-1.9-.877-.883-2.29-1.983-3.248-2.36-.952-.392-1.01-1.222-.265-1.57 2.577-.11 5.237 2.524 6.822 4.594.437.568.838 1.007.383-.07-1.47-3.24-4.523-5.066-6.64-5.436-1.718-.3-1.68-1.852-.064-1.677 1.775.193 4.685 1.797 7.152 4.28.717.72 1.924 2.36 1.676 1.398-.006-.262-.764-1.288-1.638-2.277-2.018-2.004-4.363-3.775-6.85-4.302-1.163-.33-4.614.337-4.635-.262-.01-.442.36-.707 1.46-1.072 4.266-1.42 10.51 2.245 13.925 7.878.244.404.707.575.735.484-1.648-4.604-6.77-8.777-10.846-9.492-2.772-.444-5.567.263-6.895 2.13-1.495 2.102-.91 4.912 1.335 4.687 1.178-.11 1.084-.777 1.062-.8-.08-.078-.765.244-1.188.16-1.535-.3-1.374-3.076.873-2.803 2.584.315 2.948 4.39.06 5.247-2.664.792-3.64-.425-4.37-1.87-1.068-2.114.078-5.523 1.96-6.83 5.27-3.66 11.935-.593 15.7 3.035 1.864 1.796 3.226 3.93 4.08 6.23.22.536.617.504.475-.07-5.296-13.51-21.102-14.97-23.45-4.605 0 0-.08.317-1.6-1.843-2.465-3.503-6.144-4.283-10.676-1.895-4.58 1.72-6.124 2.815-9.3 4.457-.46.163-3.397 2.188-3.868 1.767-4.496-2.982-8.417-3.998-10.552-6.184.073-.4-.306-6.46-.306-6.46l.105-26.124c.032-.256-2.38.172-6.397.802-10.68 2.13-9.744-3.485-11.157-3.88-.746-.15-.69.17-.894-19.97-.06-5.85-.175-16.134-.26-22.855-.087-6.72-.11-12.32-.05-12.438.06-.12.66-.634 1.35-1.124 2.603-1.844 4.065-2.96 9.76-7.304 1.29-.983 1.614-1.15 1.614-1.15.654 12.1.067 24.81.39 35.21l.48.004-.187-34.932c-.982-.257 22.453-13.97 35.296-18.42.24-.083.84.185.84.185 7.372 9.032 26.767 6.297 28.33-4.7 3.214 6.704 17.332 19.73 23.783 4.028 0 0 2.337 4.51 4.343 4.81 4.51.597 5.008-.114 14.93-4.927-11.344 17.213-17.6 35.437-18.4 57.508zm-6.03-4.292c.248.76.332 1.743.12 2.52-.29.605-.722.597-.722.597l-2.198-1.878-2.15 1.993s-1.314-1.325-.592-3.162c1.375-2.566 4.522-2.103 5.542-.07zm56.772-.303c1.407-.088.68 1.53-1.4 2.626-1.307.687-2.39.882-2.86.633-.256-.76-.038-1.453.122-1.76.887-.457 3.326-1.257 4.137-1.5zm-90.81 3.05c1.562-.04 2.916 1.074 2.966 3.044.02.803-.392 1.6-.392 1.6l-2.608-1.924-1.994 2.125c-.34.12-1.56-1.404-.72-3.06.61-1.206 1.68-1.76 2.75-1.786zm37.732.904c2.195.995 2.575 4.064.44 5.246-1.014.562-2.61.875-3.358-.262l2.157-2.35-2.478-2.085c-.096-.096 1.898-1.156 3.237-.548zm52.692-.807c.378 0 .474.144.583.497.308 1.003-.475 2.01-1.826 2.33-1.25.295-1.13.44-1.722-.674-.464-.875-.588-.838.138-1.114.876-.286 1.814-.618 2.826-1.04zm-62.435 1.505s-1.558 1.583-2.24 2.245l2.345 2.445c.113.298-2.704 1.573-4.186-.35-.962-1.25-.42-3.624.945-4.44 1.396-.832 3.396-.14 3.137.1zm3.357-.276c1.384-.02 2.52 1.082 2.54 2.466.02 1.383-1.084 2.524-2.467 2.544-1.384.02-2.524-1.088-2.545-2.47-.02-1.385 1.088-2.52 2.472-2.54zm-34.25 4.215l-2.25 2.353 2.432 2.645s-1.923.314-2.606.186c-3.31-.62-2.985-4.5-.426-5.526 1.08-.38 1.883-.252 2.85.34zm-44.117.8s.442 4.984.846 6.686c-.266 1.943-1.522 3.266-2.087 5.26-.302.888-1.434 2.08-1.653.83-.817-1.544-.036-3.453-.712-4.553-.34-1.027-.24-1.62-.467-2.695-.5-.875-.9-1.288-.832-2.082-.133-3.523-1.013-2.825-2.577-2.537-1.29.425-3.03.597-4.05 1.35-2.215 1.56-1.01 2.455-1.844 4.81.13 1.03.383 1.402.202 2.292-.855 4.207.722 3.858.675 3.923-.657.966.154 3.14.468 3.03 1.924.47 1.227 1.877 1.853 2.622.63.72.596 1.085 3.233 1.15 4.764.373 12.334-.335 13.97-6.142 1.02-8.19 2.512-15.405-7.023-13.944zm47.36-.803c1.337-.02 2.435 1.047 2.454 2.383.02 1.336-1.046 2.434-2.382 2.454-1.336.018-2.434-1.05-2.454-2.385-.02-1.336 1.047-2.434 2.383-2.453zm-45.274 1.27c.9-.01 1.96.18 2.834 1.016 1.87 1.792 1.95 3.417 1.12 10.314-.232 1.943-.917 3.567-1.823 4.275-1.82 1.42-4.048 2.434-5.885 2.886-.97.238-1.812.244-2.468.24-.708-.007-1.12-.334-1.173-.927.154-1.606-1.485-1.763-2.435-1.672-1.693.067-1.866.245-.81-.573 1.206-.933 3.984-.946 4.51-.4 1.085-1.084 2.215-1.21 3.598-1.372-.205-.3-.7-1.504-.373-2.276.717-1.26 1.922-3.48 3.186-4.314 1.252-1.636.19-.896-.587-.868-.445.016-.407-.13-.48-.427-.308-1.275-.753-3.658-.757-5.077 0-.683.64-.813 1.54-.824zm-7.97 1.767c.488.433.48 1.04-.032 1.492-.587.516-1.753.23-1.782-.74.078-.982 1.22-1.26 1.814-.753zm84.417 3.45c-2.03.103-3.702-2.07-2.937-4.233.42-.586.6-.502.6-.502l2.31 2.064 2.218-2.32c1.828 2.204.26 4.827-2.19 4.99zm-86.89-3.36c-.168.633.05 1.264.08 1.572-.404.287-2.117.787-3.036 1.24-.64.22-1.1-.38-1.013-.93.243-1.02 1.744-1.685 2.834-2 .336-.084.89-.115 1.135.118zm.375 2.92c.618-.076.436 1.27.204 1.96-.23.49-.912.47-1.524.506-1.08.063-2.443 1.31-3.03 1.11-.192-.09-.33-.604-.352-.93.127-1.797 3.112-2.455 4.7-2.647zm3.266 1.87c-.205.302-.868.447-1.423.295-.908-.25-1.048-1.553-.25-2 1.406-.466 2.252.854 1.674 1.706zm89.715-2.967l-1.232 1.876-1.873-.035 3.026 9.282 1.4-3.627c.187-1.668.408-3.332.582-5.002zm-39.825.783l2.394 1.952 2.053-2.1c1.528 3.406-.233 4.965-2.105 4.924-2.066-.046-4.268-2.003-2.342-4.776zm-52.552 3.52c.758-.144.434 1.906.328 1.965-.484.18-2.572.452-3.45 1.193-1.874 1.467-2.673.572-1.805-1.185.822-1.022 3.84-1.953 4.928-1.972zm2.382.097c.835-.078 1.42.845.91 1.725-.69.643-1.905.17-1.9-.74-.004-.57.47-.955.99-.985zm-1.23 5.2c.114.478-.053.33-.93.59-.483.14-1.243.464-2.034.863-1.16.585-1.485.9-1.897.834-.33-.072-.706-.213-.807-.545-.404-1.324.675-2.674 3.188-3.6.523-.194 1.458-.35 1.778-.386.853.002-.06 1.312.702 2.243zm1.484-1.992c1.215-.017 1.443 1.595.534 1.88-2.128.55-1.948-1.88-.534-1.88zm-1.498 5.94c.342.328.39.865.008 1.145-.702.347-3.397.052-3.415-.704-.01-.498.89-.667 1.727-.684.837-.016 1.406-.018 1.68.244zm121.657.826l-2.22 2.97 2.98 7.458 2.72-9.03-2.137.846zM298.85 553.2c.515 22.97.428 75.606.428 75.606l6.538 4.444 6.883-4.947c-.072-16.567-.138-27.996-.204-43.335l10.086 5.54s.31.446.263 2.52c-.697 5.723 4.84 9.44 8.51 7.18 1.418-.597 1.534-.702 1.834-.255.825 1.232 1.755 6.505 1.91 9.87.236 5.068 1.57 15.402 1.89 15.47l-16.415 27.816-25.59.124-.293-103.444c1.33 1.567 1.936 2.594 4.16 3.41zm95.257-2.215l-1.232 1.88-1.485-.002 2.605 9.614 3.155-9.4-1.738-.216zm-82.198 76.663s-3.195 2.293-4.216 2.952c-.536.2-.796.238-.923-.274-.156-.63.096-1.824.318-3.796.206-1.823.205-1.926-.1-4.525-.315-2.714-.353-2.828-.096-6.41.286-3.997.34-7.878.025-10.28-.3-2.284-.297-7.493-.066-10.4.283-3.56.19-6.684-.275-9.267-.83-4.605-.97-6.19-.103-9.655.324-1.296.485-1.986.418-4.157-.075-2.413-.12-3.2-.984-8.546-.498-3.077-.536-3.5-.07-8.37.094-.98.126-1.638.5-1.95.438-.364 4.994-.63 4.994-.63zm-11.982-74.362l4.962-.054c-.383 1.554-.468 2.736-.508 3.86l-4.408-2.897zm.073 1.986l4.364 2.85c.005 1.2-.085 2.347.09 3.548l-4.423-2.935zm.01 4.52l4.67 3.193c.18 1.243.562 2.5.708 3.618l-5.295-3.583zm151.025 1.258l.245 91.72-46.49.207-14.735-28.31s.15-2.604.515-3.933c.44-1.606.558-1.956 1.176-2.032 1.654.857 3.497-.282 4.06-1.536.696-1.544-.71-3.88-2.87-4.386-.953-.227-1.993.2-3.045 1.004-.61.51-.746.567-.868.123-.274-1 .613-3.715 2.2-6.046.882-1.296 1.12-1.67 1.406-1.175 1.155 1.994 3.63 1.58 4.57.454 1.137-1.365.9-4.474-1.676-5.298-5.038-1.613-7.35 3.443-7.288 3.43l-1.08-6.06c6.067-1.487 9.568-2.012 11.494-3.85 1.517-1.448 2.24-3.95 2.052-6.177 0 0 16.85-6.844 24.736-11.094 13.577-7.316 25.6-17.04 25.6-17.04zm-25.658.665l-1.246 2.19-1.767.004 3.577 9.254 2.73-9.663-1.704.153zm-125.15 2.657l5.352 3.69c.116 1.197.27 2.264.11 3.62l-5.634-3.724zm104.402-1.135l-1.333 1.77-1.535-.163 3.01 9.165c.915-2.65 1.748-6.246 2.652-8.9l-1.423.07zm-104.496 5.846l5.537 3.668c.022 1.133.075 2.2-.32 3l-5.225-3.352zm114.872.53l-1.344 2.584-1.79-.243 3.2 8.785 3.5-8.704-2.167.116zm-114.862 3.742l4.8 3.525c.07.05-.268 1.61-.19 2.49l-4.568-2.814zm.13 4.36l4.476 3.075c.01 1.166.09 2.262.274 3.254l-4.86-3.155zm-.078 4.442l5.176 3.684.273 2.962-5.482-3.447zm42.605 1.235c4.968 1.85 9.625 11.296 9.482 23.523-.1 8.49 2.465 20.605 2.417 20.465 0 0-1.44.193-1.85-.126-1.87-6.233-2.493-12.82-2.788-18.252-.242-4.53-.503-8.975-.79-10.013-.816-3.655-1.7-7.917-4.035-10.693-1.82-2.094-3.894-2.46-5.134-.107-1.015 1.925 1.123 5.112 2.898 4.053.43-.24.686-.65.124-.638-1.843.273-3.08-2.275-1.914-3.49 2.053-2.138 5.645 2.627 3.98 5.25-.735 1.134-2.655 1.335-4.19.916-3.418-1.65-4.275-5.694-3.13-8.36.87-2.03 2.785-3.245 4.93-2.528zm-6.007 1.214c.403.02.128.763-.245 1.924-.88 2.782.77 7.104 3.052 7.965.685.466.648.643.19.9-1.49.837-4.193-1.674-4.907-4.47-.517-2.025-.39-4.414.583-5.428.533-.554.955-.845 1.242-.885.03-.004.058-.007.085-.006zm-36.65 1.64l5.526 3.612c.256 1.127.143 2.328-.03 3.54l-5.532-3.853zm33.35-.046c.41-.013.256.674.142 1.927-.265 2.903.635 5.014 2.685 6.766.865.74 1.102.97.73 1.36-.528.55-2.043-.19-3.23-1.427-2.177-2.267-2.898-6.548-1.202-8.1.372-.34.66-.52.874-.526zm61.47.504c2.36-.092 4.353.824 4.573 3.71.32 4.224-3.616 6.535-6.362 4.11-2.462-2.436.033-6.248 2.886-4.462 1.435.905-.277 2.967-1.438 1.9-.523-.48-.753-.18-.38.374 1.122 1.677 3.334.283 3.175-1.194-.31-2.903-3.88-2.866-5.222-1.73-1.838 1.557-3.458 3.848-4.666 5.517-.99 1.448-1.202 1.41-1.056-.38.386-4.73 4.803-7.703 8.488-7.846zm-64.313.924c.376-.014.227.526.256 1.916.15 3.57 1.656 5.79 3.565 7.035.64.705-.178 1.206-1.382.864-2.742-.844-5.54-6.735-3.217-9.267.327-.356.583-.542.78-.55zm-2.666 1.17c.38-.024.166.765.202 2.254.075 3.133 1.045 4.638 3.375 6.55.76.624.855.554.555.9-.798.92-3.502-.382-4.655-2.26-1.372-2.233-1.574-5.602-.297-6.876.357-.356.622-.555.82-.568zm-2.65 1.51c.314 0 .138.567.186 1.92.118 3.282.867 4.906 2.95 6.424 1.308.954 1.626.668 1.226 1.045-.7.66-2.618.094-4.056-1.12-2.155-1.82-2.76-6.307-1.008-7.844.312-.274.536-.426.7-.425zm-25.098.463l5.31 3.682-.15 3.108-5.283-3.576zm92.855 5.83c-2.162-.444-2.98-2.004-2.717-3.772.088-.59.433-.928.804-.156.318 1.225 1.135 2.923 2.253 3.253.45.133.074.76-.34.674zm-46.493-3.67c2.438 6.137 2.395 12.843 2.8 19.18.536 8.422 2.026 14.094 2.513 15.05 0 0-2.38.028-2.5-.317 0 0-2.248-11.17-1.91-16.693.025-6.18-1.178-11.614-1.914-14.055-.777-2.164-.81-.735 1.01-3.165zm-46.39 2.396l5.11 3.34c-.073 1.143-.083 2.286-.07 3.43l-5.007-3.545zm68.7-.285c.005.187.74.343 1.892.065 1.278-.31 2.552-.255 3.534.015 1.045.287 1.16-.05.215-.462-.462-.2-1.195-.66-2.292-.64-1.098.02-3.358.618-3.35 1.023zm20.696-.128c.125.23.514.744.86 1.147.658.762.843.767.544 1.08-.69.716-2.136-.324-2.29-1.65-.136-.97.348-1.58.886-.578zm-45.747.26c2.386 3.4 2.738 11.376 2.787 17.045.044 5.105 1.77 14.458 1.91 14.418-.49.29-1.152.188-1.773-.052-.613-.8-.99-3.04-1.702-9.106-.184-1.565-.544-6.544-.625-10.553-.072-3.537-2.048-11.192-2.048-11.192s.767-.545 1.45-.56zm-2.656.85c2.175 4.853 2.53 9.67 2.627 15.518.092 5.53 1.32 12.01 1.785 14.868-.734.076-1.51.137-1.816-.193-.196-.268-.352-.688-.448-1.23-.99-4.783-1.225-9.984-1.51-14.383-.424-6.817-.534-8.504-1.5-11.903-.55-1.928-.74-1.888-.328-2.26.315-.28.916-.422 1.19-.417zm24.45 1.117c.06 2.257.35 1.337 1.148.977.6-.05 1.09.277 2.207.687 1.422.522 1.293.697 2.292.207.617-.3 1.108-.406 1.403-.166 1.168.95 2.676.414 3.524-.354.662-.346 1.385-.158 1.945-.106.808.074.597-.44.697-1.462.088-.907-.258-.987-1.196-.68-.96.312-1.912.357-2.745.103-2.13-.65-3.69-.228-4.745-.062-2.495.392-2.628.14-3.193-.217-.422-.267-1.118-.758-1.358-.743-.242.015-.162.832.02 1.816zm22.128-1.038c.237-.122.346.2.677.63.552.72.713 1.06.25 1.126-1.225.178-1.53.05-1.486-.712.033-.607.167-.844.558-1.044zm-49.14 1.07c1.797 1.813 2.253 11.974 2.458 14.162.648 11.854 1.773 13.557 1.195 14.447-.68-.01-.917.242-1.36-.353-1.54-4.343-1.45-8.805-1.7-13.335-.35-6-.947-9.25-1.79-12.223-.563-1.978-.556-2.01.457-2.554.18-.097.578-.15.74-.143zm-2.423 1.43c.633 1.44 1.905 7.984 2.078 13.634.137 4.486 1.21 13.258 1.407 13.306-.654.06-1.44-.074-1.757-.57-1.96-8.647-1.336-17.03-3.604-25.726.134-.42.852-1.116 1.875-.644zm-35.934 1.066l5.3 3.8.112 3.24-5.407-3.836zm78.753-.41c-2.992 1.162-3.766 2.115-3.295 2.952.396.705 1.586.457 4.773-.872 2.382-.994 3.13-.56 3.613.94-.024 2.215-2.172 2.473-3.385 2.168-.52-.02-.444.028.112.723 2.465 1.933 5.49-1.85 3.983-4.25-1.18-2.19-3.22-2.814-5.8-1.66zm-18.778.9c-2.468 1.937-1.586 5.426.468 5.95.57.29 1.423.153 1.758-.068.31-.204.306-.536-.325-.64-1.907-.318-2.99-1.717-2.068-3.135.894-1.376 2.55-1.112 5.737.26 2.755 1.188 3.963.82 4.287-.604.144-.628-.03-1.218-1.352-1.267-3.675-.136-6.112-2.37-8.503-.495zm33.034 5.342c-.164-1.004-1.797.026-2.88 1.805-1.064 1.75-1.174 2.002-1.39.184-.324-2.712 2.49-4.832 4.245-4.9 2.114-.244 3.502.938 3.556 2.3.108 2.683-3.093 2.71-3.53.61zm-93.127-1.6l5.61 3.852s.19 2.065.07 3.175l-5.635-3.605zm67.374 1.293c-2.44 1.655-1.006 4.675.7 5.015 1.8.36 1.927-.897.138-1.268-.956-.375-1.2-1.286-.828-1.99.853-1.395 2.43-.49 3.348-.056 2.037.97 3.092 1.323 3.735.653 1.142-1.19.123-3.313-1.386-2.564-.407.202-.714.394-1.58.18-1.315-.276-2.893-.57-4.127.03zm-67.326 3.287l5.52 3.778-.168 3.34-5.182-3.8zm.115 4.592l5.19 3.7c-.076 1.41-.04 1.973.016 2.873l-5.25-3.39zm91.804.712c4.162.407 2.782 5.19-.124 3.898-.776-.583-1.01-.536-1.87 1.56-1.102 2.684-1.37 2.466-1.22-.634.112-3.035 1.506-4.8 3.213-4.824zm-32.8.728c.098.002.177.02.227.058.28.315-.563 1.564-1.28 2.296-.527.346-1.81-.59-1.498-1.044.363-.444 1.88-1.242 2.55-1.31zm5.554 2.463l-.744.106c-1.123-2.502-3.458-1.928-4.178.396l-1.026-.117c1.036-2.85 4.732-4.598 5.948-.385zm20.96.57l-1.258.077c-1.13-2.716-2.73-3.122-4.085-.44l-.975-.28c1.68-3.43 4.485-3.705 6.32.644zm-6.294-3.096c.644-.04.56.257-.11 1.173-.582.797-.724.922-1.31.487-.96-.713.636-1.608 1.42-1.66zm5.966.08c.123.006.267.018.43.06 1.298.32 1.894.934 1.257 1.723-.397.492-.783.684-1.045.355-.875-1.444-1.36-2.182-.642-2.14zm-19.606.854c.135.537-.29.92-.764.472-.193-.182-.36-.493-.337-.722.296-.28 1.005-.047 1.1.25zm-65.638 1.846l5.337 3.833c.175 1.35.21 2.376.203 3.298l-5.495-3.64zm77.804 1.16c3.074 2.108 6.68 2.08 8.934.23.504-.414.944-.432.952-.034-.32 1.476-4.24 3.37-7.304 2.297-1.682-.59-3.064-1.174-4.168-2.745-.656-1.024.694-.364 1.586.253zm-1.302 1.028c4.494 3.876 8.067 2.8 10.774.845.4-.1.406.26.496.93.114.857-.598 1.28-2.545 1.863-3.765 1.127-8.18-.107-8.976-2.63-.094-.498-.285-1.142.25-1.008zm-76.522 2.322l5.412 3.712-.172 2.836-5.272-3.563zm.087 4.346l5.107 3.462-.016 2.348-4.968-3.54zm37.104 1.102c21.794 4.93 37.24 2.59 52.398-.082l13.43 26.337-80.927.108c5.285-8.558 9.682-17.917 15.1-26.362z" fill="#131f67"/><path d="M267.743 383.99v2.87h2.938v24.978h-2.937v3.093h8.534v-3.092h-2.263v-7.086l3.427-4.748 5.14 11.834h-3.28v3.093h9.305v-3.092h-2.225l-6.812-15.214 6.473-9.81 2.4.046v-2.87h-9.24v2.87h2.664l-7.85 12.046V386.86h2.33v-2.87zm71.738 15.42l4.033 7.54.01.353 2.228 4.353.337.216.503.948.056.462 1.245 1.99-.007.428 5.28 9.82c4.354-1.626 40.124-4.553 53.37.236l1.928-3.27.462-.003 3.402-5.967-.054-.502 1.144-1.306.167-.594 3.754-5.874.014-.947 4.695-7.826zm80.993 1.127s-2.45 4.707-3.71 6.61c-1.022-.805-3.982-.26-3.805 2.862-4.826-1.83-5.99 3.927-2.26 5.223-1.913 1.67-3.743-.22-5.195-1.502-1.42.353-4.368 1.396-6.037-1.674 0 0 .698.377 1.394.786 3.947 1.2 4.265-4.125 1.33-4.997-.37-.097-1.066-.137-1.066-.137.987-4.095-5.35-5.525-5.47-.603 0 0-.752-.123-1.324-.02-3.36.613-2.59 5.565.844 5.328.473-.032.896.052.896.052-.056.793-4.21 2.31-7.204-.42-1.42 1.082-3.666 2.437-6.596-.26 1.927-.077 3.774-.625 3.753-2.81-.014-1.42-1.292-2.69-3.135-2.757-.105-1.588-1.287-3.104-2.824-3.22-1.876.11-2.835 1.623-2.848 3.22-1.595.165-3.087 1.57-2.744 3.183.468 2.2 2.163 2.47 4.097 2.05-2.354 3.783-6.184 1.81-7.365.605-1.406 1.312-3.858 3.088-6.878.66 1.61-.275 3.4-1.22 3.097-3.465-.238-1.77-2.225-2.296-3.088-2.202-.002-1.17-.885-3.1-2.97-2.9-2.275.218-2.14 3.094-2.112 3.117-1.88-.155-3.242 2.055-2.707 3.465.653 1.717 2.018 2.25 4.526 1.787-2.926 2.746-4.785 1.68-6.383 1.103-1.414 1.482-3.302 1.96-5.238.646 4.33.206 3.64-7.448-1.495-4.672-.444-1.436-1.105-3.204-3.795-2.79l-3.064-5.918zm-99.148 4.894c-.223.004-.447.015-.674.03-8.294.53-11.356 6.294-10.966 11.4.264 3.444 2.144 6.385 4.875 7.98 1.17.893 1.417 1.228 1.21 1.646-.242.493-.57.446-1.234-.165-9.49-9.076-22.85 1.587-16.94 13.358 4.7 9.36 17.888 7.193 20.716-3.338.225-.837.587-1.2.976-.97.276.162.058 1.247-.165 2.898.016 5.962-6.19 15.345-6.54 15.662l16.27-.014c-3.73-5.096-5.92-10.094-6.373-17.37-.046-2.2.78-1.73 1.475.765 3.18 11.39 17.663 11.283 20.947.19 3.065-10.35-8.46-19-16.1-12.032-1.098 1.002-1.842 1.188-1.857.457-.007-.31 1.02-1.463 1.96-2.197 1.907-1.486 3.496-4.267 3.513-7.086.034-5.695-4.202-11.29-11.093-11.21zm-8.74 48.5h-.02c-.003.012.007.01.02 0zm67.535-45.85c.21-.008.432.035.65.147.678.344.805.945.392 1.834-.145.313-.354.67-.32 1 4.768 8.793 15.28 4.863 16.27.778.063-.26-.058-.543-.193-.82-.406-.672-.352-1.223.173-1.683 1.12-.982 2.724.176 2.074 1.5-.17.348-.35.73-.22 1.196 2.698 6.13 8.072 6.59 12.582 4.164-2.08 3.72-10.13 6-13.513-2.956-5.397 7.296-13.962 7.16-17.85-1.08-3.496 8.427-14.043 8.626-17.882 1.627-3.494 8.007-11.598 6.19-13.894 1.18 7.53 5.446 12.49-.24 13.38-2.665 0 0-.174-.283-.414-.52-.963-.944-.936-2.056.062-2.497 1.278-.566 2.476.662 1.82 1.867-.184.337-.348.41-.227.702 2.344 5.46 13.882 7.046 16.22-.613.08-.438.033-.843-.166-1.175-.548-.914.15-1.947 1.056-1.984zm-33.68 3.093c1.82.104 1.312 1.668.947 1.787zm67.578.976c.013.03-1.122 2.026-1.122 2.026-.6-.96-.445-2.153 1.122-2.027zm-6.152 10.093s-1.162 2.57-1.547 2.786c-21.557-5.522-51.635-.72-52.375-.19l-1.325-2.493c18.9-3.776 37.747-2.97 55.246-.104zm-130.434-.872c-.668.01-1.372.162-2.098.49-3.748 1.702-4.07 6-.703 9.397.538.542.98 1.055.982 1.14.008.385-.373.315-1.292-.24-5.15-3.105-10.18.623-8.085 5.998 1.69 4.34 8.37 3.683 9.405-.93.138-.614.583-.99.778-.66.167.285-.323 2.633-.82 3.938-.653 1.713-1.04 2.61-1.433 3.31-.48.852-.512 1.132-.142 1.22.534.128 6.373-.032 6.37-.174-.002-.08-.247-.65-.547-1.274-1.174-2.44-2.068-6.662-1.514-7.143.313-.27.417-.132.84 1.118 2.09 6.18 9.856 4.69 9.707-1.86-.102-4.458-4.18-6.415-7.856-3.773-.836.6-1.083.634-1.16.17-.03-.186.115-.4.41-.6 4.656-3.146 1.83-10.182-2.842-10.126zm94.018 39.07c-2.08 8.028-7.12 8.845-13.205 9.82-7.538 1.21-12.45-1.536-14.748-5.732 0 0-10.78 4.074-14.714 6.44 8.18 3.748 18.986 12.045 25.13 21.466 2.188 2.873 2.077 2.223 2.073 8.524-.008 13.665.024 18.745.024 18.745 3.375.506 3.56 2.826 3.376 5.433 2.708-1.196 5.315.267 5.303 2.823-.022 4.697-4.638 3.42-5.597 2.903 1.5 4.14-.26 5.856-2.06 6.06-2.218.25-4.762-.816-4.02-5.556-2.418.94-5.48-.767-5.904-3.62l-.12-4.833c5.98-11.25-1.526-20.4-8.575-23.408 0 0 1.994-4.123 4.573-5.28.263-.08-1.563-2.758-4.634-2.174-1.413.03-1.085.02-2.414-1.707-2.628-3.412-3.865-3.646-6.426.005-1.127 1.607-1.397 1.65-2.73 1.68-1.47.03-3.722 1.084-4.205 2.026-.112.215.464.436 1.23 1.33 1.1 1.285 2.8 3.052 2.53 4.85-5.804 2.362-15.433 12.725-5.308 25.992l-7.32.094-.35-47.23-5.092 2.833.226 36.996-1.452-.48c.112-11.8-.066-23.593-.438-35.388l-13.427 9.783.597 55.472 1.43.3c1.058 7.56 16.03 2.274 16.905 2.93l.18 30.823-.656 1.528 11.914 6.51 10.928-5.666s1.475-.266 2.028-.557c4.53-2.387 7.908-1.852 10.372 1.65 1.52 2.16 1.777 2.48 1.777 2.48.92-6.233 6.45-8.53 11.81-6.902 3.944 1.198 9.332 5.127 10.98 9.924 0 0 .297.722.59 1.047l.226.1c-.013-.126-.26-.724-.352-1.015-5.53-12.7-21.113-14.647-23.517-4.272l-2.205-3.093 11.602-7.114 15.856 10.434s-.746 3.668-.83 5.252l.273.128c.078-.2.19-.96.26-1.438.25-1.733.71-3.188 1.334-4.3.375-.67.81-1.216 1.296-1.622.947-.55 1.826-.494 2.787-1.395l-2.315-1.732-.052-5.554 4.653 6.516c1.462-.338 7.16-2.04 10.54-.156.383.12 5.34-1.294 8.426 5.62l14.86-6.17s.948-.535.957-.675c-14.817-5.47-29.78-24.828-28.34-25.14 0 0-.043-1.986.072-6.86.12-5.43.054-10.977.146-16.427-5.042-1.61-3.788-5.674-3.788-5.674-3.032.664-3.515.075-4.282-.46l-.524-5.142c1.818-1.547 2.91-1.69 5.158-1.198 0 0-1.09-2.234-.1-4.073.836-1.454 3.06-2.372 4.833-1.348 2.294 1.56 1.563 4.836 1.236 5.293 2.384-1.068 5.3.122 6.015 2.48.358-6.972.964-14.777 2.362-20.857 2.58-10.976 6.803-22.47 12.093-31.508.866-1.51 1.97-3.023 2.862-4.437.828-1.258 1.22-2.073 1.22-2.073s-1.13.623-2.328.957c-1.722.467-3.02.912-3.215 1.108-1.26 1.06-2.912 1.846-4.262 2.433-4.76 1.852-7.96-.91-9.935-5.13-1.1 5.36-6.01 9.892-13.25 7.075-4.092-2.17-5.378-3.56-9.204-9.225-.32-.58-1.15-1.244-1.15-1.244zm.158.876c2.708 5.353 6.76 9.145 10.7 10.66 7.035 2.307 11.675-2.196 12.983-6.334l1.36 2.3-10.652 7.56-16.07-10.216c.267-.246 1.705-3.846 1.68-3.97zm48.365.37l-4.77 2.81s-3.17 5.113-4.235 7.038c-5.566 9.83-9.744 20.525-11.923 31.135-.88 3.885-1.815 10.98-2.126 14.393-.498 5.443-.475 7.677-.332 12.668l.373.407s-.584 1.026-1.003 1.89c-1.14 2.35-1.418 3.678-1.35 6.403.16 6.268 3.97 12.27 9.355 14.714.304.138.707.316.707.316s-.924 2.495-2.598 4.252c-1.118 1.172-1.357 1.23-.962 1.806.55.802 2.323 1.5 4.526 1.466.78-.01.775-.013 2.216 1.556 2.813 3.064 3.658 3 6.218-.47.76-1.034 1.194-1.28 2.306-1.307 1.635-.04 4.62-1.36 4.606-1.976-2.013-.89-4.345-5.486-3.975-5.535 11.008-5.824 13.34-17.897 5.3-26.774l7.68-.122.283 48.16c1.503-1 4.903-3.146 4.903-3.146l-.113-37.475c.528.1 1.066.478 2.093.645l.302 35.435s.998-.405 1.867-.97c4.29-2.828 12.69-9.364 12.69-9.364l-.286-54.61h-1.122l.18 54.582-13.037 9.52-.085-33.922s1.03-.154 1.414-.208c3.816-.534 5.583-5.4 3.05-8.576-.898-1.127-.26-1.048 1.65-1.414 3.39-.3 5.267-2.86 4.282-4.686-.423-.784.127-.7.485-1.443.235-.585.19-1.31.09-1.886-.133-.754.177-1.088.368-1.57.3-.754.01-1.606-.49-2.315-.527-.747-.38-1.55-.386-2.046-.023-1.11-.424-1.267-1.6-2.338-.887-.81-.174-.987 1.133-1.66 2.056-1.058 2.198-4.803-.537-6.398-1.463-.852-4.122-.783-9.887.128-2.186.345-4.752.575-4.752.575s-.02-21.35-.17-32.356zm0 .754s11.704 6.847 11.612 7.04c-3.93 5.382-18.592 26.834-18.698 52.774-10.752-1.35-15.154 7.056-15.676 7.025-1.412-31.752 11.474-54.47 18.077-64.11zm-7.383 4.177l-.038.778-2.32 3.465-.06-3.465zm-3.583 1.207l.085 5.582-4.753 3.63-.28-5.822zm-44.05 1.277l2.443 1.69-.084 5.54-3.678-6.69zm66.854 1.868l.02 4.008c-9.37 13.216-14.286 28.31-15.79 47.43l-2.28-.077c.603-19.01 7.003-36.355 18.05-51.362zm-63.457.41l5.78 3.777-.25 6.318-5.247-3.367-.49-1.29zm34.992.27l-.024 5.874-4.464 3.314-.207-5.832zm-54.115 1.536c.663.008 1.192.49 1.316 1.405.49 3.904 3.46 2.777 4.167 3.95.268.4-.366.748-2.4.585-3.728-.28-6.445-3.295-4.54-5.28.49-.45 1.004-.666 1.457-.66zm25.766 2.518l4.936 3.145-.014 6.487-4.837-2.952zm22.52.02l.383 5.736-5.404 3.593-.193-5.7zm10.284.022l-3.102 6.605-18.1 13.02-15.02-9.725-2.787-6.374 17.525 11.434zm-48.81 2.622c4.81-.06 8.5 5.046 9.764 9.518.918 2.958 1.058 4.022 1.155 8.718.098 4.783.248 5.608 1.144 6.284.553.416.713.304.783-.542.156-1.88 2.403-.72 2.442 1.26.043 2.198-2.38 2.905-4.17 1.215-.952-.9-.964-.892-1.262.876-.2 1.184-1.58 8.598 1.947 10.443.664.062.823-.47.33-1.09-.99-1.243.987-2.677 2.598-1.886 1.947.956 1.75 4.094-.33 5.21-2.38 1.276-5.456-.174-6.893-3.25-1.055-2.255-1.05-5.384.02-10.03.49-2.143.708-3.507.82-5.15.036-.54.1-1.126.14-1.306.115-.5-.132-.524-.985-.094-2.328 1.174-4.867.34-5.492-1.806-.748-2.564 2.11-5.214 3.875-3.592.67.616.59 1.227-.212 1.622-1.388.683-.914 2.482.56 2.126 4.863-1.455.418-15.1-5.058-16.044-3.62-.624-6.462 3.5-3.842 5.705 1.026.864 2.068.4 1.843-.82-.313-1.703 1.95-1.52 2.786.226 1.36 2.84-2.154 5.152-5.436 3.58-5.892-3.5-1.864-11.067 3.47-11.174zm21.805 1.084l4.85 3.258.043 6.332-4.818-2.858zm10.688.547l.023 5.813-4.68 3.404v-6.186zm12.61 3.81l-2.394 6.67-15.11 10.335-12.467-7.817-2.145-6.17 14.686 9.513zm-98.067.485l-.005 33.77c-4.895.21-7.706 5.052-4.04 9.628l-1.385.188c-3.312.455-5.53 2.21-5.092 4.338.134.652-.002 1.31-.19 1.636-.293.874-.216 1.542.18 2.296.31.592.26.83.085 1.268-.375.944-.286 1.67.156 2.39.545.534.394.965.32 1.82-.087 1.208.13 1.694.892 2.164.98.606 1.347 1.6.23 1.518-.553-.04-2.503 1.84-2.503 1.84l-.184-54.195zm26.548 4.333c.876-.003 1.778 1.098 3.074 2.956.783 1.33.796 1.15 2.588 1.08 1.83.134 2.944.617 3.423 1.17.18.21-.3.263-1.458 1.437-1.2 1.218-1.367 1.702-2.164 3.065-.287.49-.914.538-1.207.09-.236-.363.37-1.542 1.51-2.933 1.606-1.55 1.27-1.708-1.066-1.462-1.64.172-1.815.09-2.437-.906-1.857-3.69-2.843-3.566-4.62.113-.485 1.03-.293.964-2.396.802-1.655-.128-2.064.29-1.13 1.16 1.46 1.197 2.027 4.023 1.947 3.988l-1.127.104s-.344-.637-.495-1.038c-.305-.812-1.126-2.03-2.018-2.994-1.262-1.364-.57-2.11 2.25-2.414 1.57-.17 1.605-.19 2.328-1.25 1.273-1.863 2.123-2.967 3-2.97zm68.54 3.36l-1.626 5.762-12.89 9.038-10.485-6.996-1.39-5.418L386.767 502zm-44.44 4.565s3.727 7.258 5.078 11.96c1.176 4.092 2.81 15.938 2.38 16.667-.915-1.257-3.94-.973-3.983-.962.256-1.388-.866-4.185-3.447-4.738zm42.41 2.654l-1.29 5.672-10.974 7.934-9.057-6.185-1.188-5.483 10.023 6.695zm-63.81.316l1.425.495.268 10.245 10.98 1.824.25 1.754-12.715-2.05c-.134-4.37-.208-12.268-.208-12.268zm-5.57.306l.305 11.914c-.12-.04-9.154 1.248-12.613 2.155l.203-1.63s6.28-1.367 10.83-1.892c0-3.33-.027-6.835-.033-10.23zm102.154 2.193s1.495.138 4.69-.426c8.243-1.44 10.475-.857 11.53 1.684 1.15 3.94-3.17 4.035-3.94 1.534-.49-1.62-2.26-1.266-8.168.135-5.055 1.198-8.257.238-8.196-2.625.064-2.943 3.417-3.204 4.084-.303zm-67.73-2.156c1.02-.015 1.862.8 1.877 1.82.015 1.02-.8 1.857-1.82 1.872-1.02.015-1.857-.796-1.872-1.815-.015-1.018.796-1.86 1.816-1.876zm-26.774.326l1.302.39s.19 7.772.23 7.785c2.8.617 8.68 1.72 8.68 1.72l.31 1.537c-2.46-.577-10.305-1.862-10.305-1.862-.244-3.37-.216-9.57-.216-9.57zm-9.5.146s.005 6.2-.1 9.533c.045-.03-6.656 1.065-10.06 1.77l.265-1.243c2.69-.608 5.62-1.218 8.584-1.84-.06-2.438-.057-7.788-.057-7.788zm4.786 1.334c.818-.012 1.497.648 1.508 1.466.012.818-.648 1.487-1.466 1.5-.818.01-1.487-.64-1.5-1.457-.01-.82.64-1.498 1.458-1.51zm111.51 3.87c.91 1.35 1.675 1.31 2.573 1.18-.226.066-1.286.693-1.225.9.03.103-.448 1.81.278 1.88 2.735.265 1.35 3.105 1.678 3.54.74.844 1.28 1.38.773 2.43-.45.932-1.095.903-.594 1.7 1.09 1.64-.415 1.98-.282 3.094.092.673.33 1.593.08 2.117-.748 1.58-3.392 2.48-6.33 2.604-.42.018-.102-.666-.298-1.1-.727-.458-.33-1.232-.085-1.74.24-.67.243-.67-.207-1.012-1.255-.78-1.19-1.14-1.09-1.702.275-1.665.017-1.828-.485-2.075-.643-.315-.555-1.018-.27-1.918.2-.623.06-.78-.244-1.344-.177-.332-.23-.513-.235-.726.09-.86-.68-.857-1.758-.014-.915 1.575-1.23 3.643-1.8 4.95-.444 1.004-.514 2.052.013 4.366 1.012 3.535.26 4.125-3.72 3.37-2.993-.737-3.877-3.93-3.045-7.84.134-.633.097-1.245.037-1.74-.325-2.692.37-5.277 2.25-7.044 3.135-2.95 4.685-3.398 11.168-2.984 2.537.18 2.73.34 2.73.34s.01-1.222.09-1.23zm-46.69.81l-.754 5.485-6.086 4.295c-2.866-2.263-5.08-1.51-7.096.914-1.597-.81-4.79-3.017-4.79-3.017l-.815-6.22 8.848 6.14zm-64.688 1.303c.818-.012 1.487.643 1.5 1.46.01.82-.64 1.493-1.458 1.505-.818.012-1.497-.638-1.508-1.457-.012-.817.648-1.495 1.466-1.507zm63.67 5.615l-.334 5.28-2.164 1.627-2.18-.222-.512-3.272zm-63.708.042c.818-.012 1.497.648 1.51 1.466.01.82-.65 1.488-1.468 1.5-.818.012-1.487-.64-1.5-1.457-.01-.82.64-1.498 1.458-1.51zm5.97.165c.817-.012 1.486.64 1.498 1.457.012.818-.64 1.492-1.457 1.504-.818.012-1.492-.643-1.504-1.462-.01-.818.644-1.487 1.463-1.5zm-11.868.283c.818-.012 1.492.643 1.504 1.462.012.818-.64 1.492-1.457 1.504-.818.01-1.497-.644-1.508-1.462-.012-.818.643-1.492 1.46-1.504zm110.223.24c.416-.033 1.034.586.734 1.514-.402 1.06-.12 1.42.552 2.277.568.725.467.826.382 1.29-.13 3.05 1.833 1.732.98 3.947-.185.482.06 1.17.146 1.74-.19-.522-3.804-.474-4.11.056-.515-.076-1.166-3.47-.647-3.918.067 0 .443.582.637.91.485.823.59.793.438-.16-.6-3.783-.24-7.633.887-7.656zm-92.374.265c.818-.012 1.492.643 1.504 1.46.01.82-.644 1.488-1.462 1.5-.818.012-1.487-.638-1.5-1.456-.01-.82.64-1.493 1.458-1.504zm-24.007.273c.817-.012 1.486.643 1.498 1.462.012.818-.638 1.487-1.457 1.5-.817.01-1.496-.64-1.507-1.458-.012-.818.648-1.492 1.466-1.504zm58.12.43l4.44 2.88c.075.908-.042 2.208.256 2.65-2.898-.27-4.365 1.38-4.366 1.38zm-45.58 2.38c4.862.035 9.57.81 13.945 2.225l-.344 1.566c-8.75-2.252-18.53-2.37-27.876.104l-.726-1.645c4.71-1.466 9.435-2.185 14.03-2.244.326-.004.648-.006.972-.004zm-27.486 2.126c1.274-.022 2.576.453 3.493 1.48 1.723 1.93.894 5.51-1.542 6.648-3.644 1.703-7.44-1.938-5.893-5.69.643-1.558 2.303-2.41 3.942-2.438zm90.194.458l-.056 1.57-1.108-.925zm-23.19.07c1.606-.023 2.927 1.265 2.95 2.87.024 1.608-1.26 2.93-2.866 2.953-1.606.023-2.928-1.26-2.95-2.867-.024-1.606 1.26-2.932 2.865-2.956zm-66.924.095c-.392.005-1.043.165-1.34.438-.775.716.004.736 1.03.924 1.818.334 2.32 1.9 2.153 3.593-.15 1.537.366 1.513.783.942 1.695-2.323.248-5.71-2.626-5.897zm84.424.773c-.037.02-.08.047-.08.047.02.017.048-.005.08-.047zm-57.49.914c2.177-.045 2.405 3.535.48 7.534-.577 1.203-.873 1.053-1.508-.763-1.565-4.478-1.225-6.724 1.028-6.77zm5.035.104c.42-.02.827.14 1.16.52 1.17 1.333.27 3.492-2.847 6.816-.758.808-1.15 1.116-1.43 1.122-.78.016-.776-.114.11-2.998.39-1.273.776-2.67.858-3.103.26-1.386 1.226-2.31 2.15-2.357zm-7.878 3.2c.213.993.586 2.37.825 3.066.24.695.398 1.356.36 1.466-.194.534-1.583-.192-2.576-1.344-1.998-2.32-2.794-4.337-2.38-5.42.605-.868 2.155-1.253 2.87-.494.736.783.846 2.46.9 2.727zm13.772-2.31c2.106 1.243-.32 4.08-5.04 6.432-2.02 1.007-1.875.553-.344-1.433.586-.76 1.37-1.998 1.753-2.754.848-1.67 1.696-3.34 3.63-2.243zm-21.027.01c.668-.005 1.352.71 2.62 2.546.566.82 1.484 1.982 2.042 2.59.558.605.998 1.208.976 1.338-.217 1.287-6.788-2.79-7.26-4.507-.163-1.047.66-1.983 1.622-1.966zm94.037 3.735c1.185 2.437 1.287 3.952.306 4.503-1.392.783-3.184-.41-3.22-2.145-.012-.583-.61-2.616-1.16-3.937-.45-1.086-.513-1.757-.142-1.81 1.454.232 3.603 2.246 4.217 3.39zm-7.864-1.848c-.46 1.393-.944 3.568-.938 4.2.002.25-.15.76-.33 1.133-1.204 2.477-4.05.456-3.004-2.13.946-2.335 3.35-4.763 4.295-4.844.648-.054.043 1.438-.022 1.642zm1.918-1.337c.475-.047.873.99 1.487 2.738.828 2.36.794 4.2-.1 4.983-1.913 1.68-3.922-.76-3.15-3.824.62-2.45 1.226-3.844 1.764-3.897zm-64.225.432c2.383 35.07-15.596 62.052-16.876 62.788l-6.12 3.345-10.73-5.845c11.12-15.248 17.767-32.723 18.27-53.018 10.287 1 15.58-7.233 15.455-7.27zm58.952.112c.75-.207.227.448-.518 1.522-.795 1.145-1.826 4.26-2.644 4.758-1.834.88-3.91-.8-2.797-2.26 1.024-1.344 4.035-3.495 5.957-4.02zm10.913.236c.288 0 .826.19 1.608.57 3.82 1.866 5.703 4.326 4.07 5.503-1.15.825-2.376.184-3.523-1.99-.39-.74-1.1-1.837-1.575-2.443-.86-1.1-1.06-1.64-.58-1.64zm21.475 1.25c2.455-.036 4.472 1.92 4.507 4.375.036 2.455-1.925 4.477-4.38 4.512-2.454.036-4.47-1.93-4.507-4.384-.035-2.455 1.926-4.467 4.38-4.503zm-1.352 1.153c-2.89 1.28-2.02 5.814.47 6.47 1.052.293 2.33-.144 1.804-.65-3.29-1.032-3.31-3.456-1.985-5.23.213-.286-.073-.687-.29-.59zm-120.318 6.237c-.112 2.563.443 5.535-.782 8.317-1.855 4.277-7.815 6.23-11 5.85-.662-.27-1.435-.53-2.09-.252-.394.168-.882.147-1.304-.05-.408-.19-.8.06-1.193-.083-.462-.313-1.216-1.02-1.127-1.548.144-.742.087-1.293-.783-1.537-1.204-.337-1.448-.988-1.093-2.894.076-.41.17-.598-.1-.777-.887-.595-1.223-1.694-.64-2.853.38-.667.673-1.138-.01-1.67-.27-.61-.223-.84.358-1.62.62-.74.727-.825.33-1.457-.892-1.42.12-2.47 1.32-3.055 1.61-.66 3.016-1 4.715-1.198.632.036.605.59.985 1.127.56.87-.23 2.128.227 2.574.657.305.956.91.904 1.43-.023 1.207.05 1.62.377 2.126.363.56.5 1.588.16 2.287-.3.622-.267.58.13.947.39.363.583 2.184.444 2.15l1.652-.152c-.172.184.62-3.404 2.504-6.178-.104-2.174-.932-4.172-.858-7.042 4.08-1.46 7.028 2.008 6.873 5.56zm63.39-4.883c.588.462 3.512 1.276 3.62 1.183-.092 1.4.76 4.12 3.81 5.03.035 3.904.003 21.928.003 21.928-4.246-7.115-6.878-16.3-7.434-28.14zm-71.032.636s.162.52.312 1.523c.26 2.05-.02 2.33-.566.93-.64-1.642-.673-.364.046 3.393.174.91.167 1.12-.057 1.735-.14.386-.39 1.28-.585 1.98-.574 2.064-.91 2.657-1.5 1.015-.3-.837-.55-.968-.337-1.623.268-.82.204-1.435-.337-2.234-.087-.13-.28-.43-.314-1.277.166-1.904-.682-1.922-.85-2.414.03-.745-.32-2.55.194-2.503.422.04 1.95.083 2.673-.183.32-.118 1.32-.34 1.32-.34zm63.3.236c1.576-.023 2.87 1.237 2.893 2.814.023 1.577-1.237 2.872-2.814 2.895-1.577.023-2.877-1.233-2.9-2.81-.023-1.577 1.243-2.876 2.82-2.9zm-44.092 1.74l2.165.41c.482.16.13 29.997-17.19 51.53l-.15-4.988c8.24-11.928 14.176-26.556 15.176-46.953zm36.694.627l.396 7.128c-1.218-1.035-4.313-2.975-4.29-3.016l.014-2.636c.003.006 2.66.204 3.88-1.475zm-16.68.1c.522.218.977.723 1.424 1.088l-1.414.953zm49.58.357c9.342 2.77 18.543 2.69 27.64.665l.623 1.744c-9.87 2.675-19.68 2.52-29.43-.59zm-45.252 1.334l.5 3.074-5.273 3.413.256-4.666 2.748-1.782zm46.68 2.56c.85-.012 1.552.67 1.565 1.523.012.852-.67 1.553-1.523 1.565-.852.013-1.548-.67-1.56-1.523-.013-.853.665-1.554 1.517-1.566zm24.006.127c.852-.01 1.553.672 1.565 1.524.013.852-.67 1.553-1.523 1.565-.852.012-1.548-.67-1.56-1.523-.013-.852.666-1.553 1.518-1.566zm-44.963 4.797c.69 2.436.54 7.94-.35 11.672-.266 1.12-.428 5.1-.428 5.1-.165.208 5.292-4.517 7.047 1.68.603 2.13-1.848 4.15-3.49 3.558-.32-.116-.223-1.17.083-1.79.91-1.854-1.685-2.817-3.164-1.175-3.416 3.794.1 13.4 5.455 14.332 4.446.775 8.012-3.65 5.045-6.29-1.298-1.152-3.374.438-2.424 1.906 1.014 1.57-.855 2.195-2.268.74-2.466-2.534.302-6.35 4.026-5.468 5.952 1.354 4.728 10.66-1.513 11.183-4.773.4-7.986-1.678-10.005-5.365-1.896-3.543-2.037-6.366-1.17-12.58.516-3.687.092-6.795-.933-6.773-.562.01-1 .282-1.09.942-.18 1.35-.335 1.603-1.182 1.112-1.075-.623-1.672-2.63.085-3.988 1.8-1.393 4.136.78 4.04 1.155.044-.07.225-.423.467-2.005.787-5.146-.96-10.583-3.12-9.712-.475.19-.418.405.202.754 1.438.81.17 2.883-1.637 2.673-2.56-.297-3.14-3.866-.887-5.445 3.55-1.914 6.443 1.083 7.21 3.782zm-17.468-4.286s4.54 2.77 4.78 3.48c.156.456.34 4.427.34 4.427l-7.878-4.932-11.295 6.983c.185-1.533.998-5.48.998-5.48l6.006-3.8c.03.23 4.154 2.953 7.047-.677zm56.4.265c.853-.013 1.554.67 1.566 1.522.013.853-.666 1.553-1.518 1.566-.852.012-1.553-.666-1.565-1.518-.012-.853.666-1.558 1.518-1.57zm-12.02.023c.85-.012 1.556.666 1.57 1.518.01.852-.677 1.558-1.53 1.57-.85.013-1.547-.67-1.56-1.523-.012-.852.667-1.552 1.52-1.565zm6.043.35c.852-.013 1.558.67 1.57 1.522.012.852-.67 1.553-1.523 1.565-.852.012-1.552-.67-1.565-1.523-.012-.852.666-1.553 1.518-1.565zm-15.134 2.187c4.09.85 8.19 1.726 12.112 2.154l.16 12.036-1.145-.066-.165-10.754c-3.788-.272-7.36-1.085-10.717-1.952zm30.414.39l-.212 1.415s-7.077 1.225-10.773 1.702c-.06 2.423-.052 10.52-.052 10.52l-1.414.258-.006-12.253c4.197-.457 8.388-.928 12.456-1.64zm-68.475.68l8.33 5.506.982 5.838-9.712-6.454s-8.804 5.926-12.098 8.123l1.004-5.502zm38.457 1.09c3.354.71 6.707 1.446 10.06 1.734l.143 9.683-1.542-.41-.123-7.86c-2.62-.227-5.31-.734-8.014-1.306zm29.67.286l-.284 1.317s-5.368.81-8.137 1.306c-.244.056-.155 8.524-.155 8.524l-1.325.203-.155-9.887zm-15.036 1.086c.852-.013 1.548.67 1.56 1.523.013.85-.665 1.552-1.517 1.564-.853.012-1.554-.666-1.567-1.518-.012-.852.67-1.558 1.523-1.57zm-53.218 3.493l9.85 6.647s1.14 3.462 1.385 5.38l-11.334-7.318-14.183 9.4 1.64-5.808zm-59.696.202c.584.008 1.167.4 1.47 1.297.428 1.262 1.226 1.636 3.325 1.597 4.12-.22 8.44-2.156 12.328-.703 1.89.697 2.564 3.485.98 4.21-1.717.788-2.45.293-3.045-1.056-.55-.573-1.234-.483-4.927.15-1.628.266-3.543.503-5.153.633-4.116.334-6.39-.963-6.902-3.412-.327-1.566.95-2.73 1.924-2.716zm112.83 2.25c.852-.013 1.552.665 1.565 1.517.012.85-.67 1.557-1.523 1.57-.852.01-1.553-.672-1.565-1.524-.014-.852.67-1.553 1.52-1.565zm-30.174 1.88c1.108-.016 2.02.872 2.037 1.98.016 1.11-.872 2.02-1.98 2.037-1.11.015-2.016-.873-2.032-1.98-.016-1.11.867-2.022 1.975-2.038zm-22.946 1.405s8.105 5.415 11.857 7.916l2.074 5.96-13.805-8.978-16.892 10.99 2.026-6.13zm58.518 1.862c.735 1.98 2.068 3.488 3.48 5.02 0 0-.787 1.49-3.59 1.4-1.53-.048-1.612.193-2.135 1.23-.858 1.317-1.557 2.176-2.112 2.604-.98.755-2.82-.374-4.337-2.67-.553-.835-.78-1.033-2.447-.998-2.558.052-3.484-.657-2.156-1.806 1.16-1.41 1.99-2.963 3.027-4.446l1.152.132c.048.17-.895 3.02-2.22 4.177-.674.76.268 1.036 1.913.688 1.043-.313 1.31-.19 2.084 1.406 1.61 3.045 2.446 2.898 4.355-.188.667-1.378.642-1.514 2.475-1.118 1.97.2 2.563-.048 1.754-.735-1.634-1.387-2.536-4.658-2.536-4.658zm-58.447 4.077s14.658 9.6 14.62 9.392l2.937 6.92-17.204-11.442-21.017 13.667 3.143-6.85zm.566 6.304l5.11 3.362-.015 6.05-5.22-3.51zm-1.312.175l.094 5.97-4.582 2.73-.255-5.602zm-5.813 3.847l-.043.23.11.058.037.005.164 5.38-5.27 3.653.017-6.077zm13.498.066l4.804 3.206.198 6.403-5.214-3.414zm5.93 3.91l4.82 3.346.17 6.393-4.923-3.314zm-25.5.022l-.024 5.908-4.796 3.347-.226-6.035zm50.71 7.624c-.952.992-1.303.87-2.117-.77-.845-1.698-2.113-2.492-3.95-2.46-2.32.04-.804-1.48 1.654-1.66 4.25-.186 6.405 2.664 4.413 4.89zm-56.835-3.465l.127 5.925-4.77 2.48-.147-2.81 2.456-4.295zm-6.152 7.92l.165 1.08-.88.338zm82.27 14.84c-.013 0-.02.004-.02.02h.057c-.014-.01-.03-.018-.038-.02zm.037.02c.616.406 6.104 8.363 6.487 16.963.213 2.277-.772 2.712-1.263.547-.8-3.525-3.013-6.607-5.89-8.21-14.525-5.38-20.728 12.848-11.154 20.218 3.41 2.466 9.98 2.186 12.29-1.22.72-1.06 1.447-.958 1.538-.29.047.334-.12.563-1.008 1.36-3.59 3.22-5.736 7.78-4.596 11.116 1.513 4.428 5.646 7.493 10.414 8.194 5.117.75 10.436-2.85 12.004-7.53 1.437-4.29.172-7.91-3.81-11.522-1.872-1.7-1.967-1.835-1.58-2.24.378-.393.624-.296 1.552.6 2.862 2.763 8.196 4.25 11.71 2.625 5.628-2.598 8.048-11.363 4.197-17.098-2.33-4.665-8.68-6.402-13.988-3.824-2.828 1.373-5.317 4.582-6.058 7.798-.333 1.446-1.164 1.707-1.288.405.39-5.232 1.126-8.658 6.87-17.876zm48.343 8.98s2.093 4.322 2.405 6.597c.23 1.673.264 2.352-.192 2.362-.146.002-.508-.807-.646-1.44-1.123-5.18-8.65-5.1-9.74.08-1.11 5.266 3.654 8.996 7.81 5.72 1.71-1.176 1.794-.636.1 1.08-3.26 3.26-1.823 7.826 2.278 9.042 5.575 1.653 9.007-5.143 4.276-9.462-.605-.623-1.152-1.24-1.155-1.372-.006-.332.406-.36.73-.015 2.715 2.848 8.182 1.97 9.02-1.683 1.573-6.847-7.268-9.772-9.702-3.653-.595 1.525-.505 1.736-.81 1.442-.173-.165-.124-.798.065-1.656.382-1.734 2.857-6.99 2.857-6.99zm-73.23 18.873c-20.08 4.296-39.33 2.778-53.144.222l-6.313 10.787-.435-.02-1.626 2.792.173.32s-5.245 10.065-7.454 13.24c25.804-.25 82.443-.373 82.443-.373l-3.45-6.94.188-.188-3.408-7.246-1.108-1.254s-.676-1.31-1.183-2.716c-.465-1.294-2.465-4.837-2.465-4.837l-.283.023zm-52.418 1.518c.266.213 25.72 5.01 52.1.082l1.443 2.413c-23.088 5.314-56.497.238-55.178-.254zm.438 4.75c2.328-.084 4.686 1.166 6.275 3.252.507.664 1.336 2.62 1.336 2.62s1.113-1.843 2.206-2.766c1.652-1.396 3.796-2.562 6.897-2.452 2.855.102 5.998 1.648 8.835 6.115.716-2.58 10.098-11.337 17.826-.416.884-2.902 5.02-8.698 11.716-4.648.458.98.93 2.055.93 2.055-3.953-2.766-10.47-.91-12.01 3.41-.137.526.038.8.24 1.31 2.038 2.91-3.26 2.842-1.69.486.293-.535.317-.976-.152-1.678-1.243-1.862-4.983-4.18-7.727-4.12-3.17.068-6.682 2.17-7.855 4.082-.433.705-.53 1.41-.15 2.027.276.622.18 1.142-.283 1.523-1.093.896-2.464-.137-1.94-1.46.346-.585.293-1.3-.414-2.293-1.42-1.994-4.734-4.095-7.62-4.035-4.127.095-8.297 3.068-8.032 5.516.116 1.076-.18 1.477-1.057 1.353-1.067-.15-1.188-1.158-.433-1.98.112-.262.293-.9-.052-1.367-4.36-5.894-10.885-4.176-12.38-2.857 1.452-2.49 3.48-3.604 5.534-3.677zm-3.88 4.09c1.636.015 3.398 1.25 3.956 2.217.404-.418 4.104-2.183 5.902.34-4.71-.355-4.767 4.643-1.287 5.124-1.587 4.823 5.53 5.115 5.078.586 5.317.786 4.66-5.954-.344-5.243 2.623-1.91 4.407-1.293 7.558.896 1.06-1.38 5.38-2.67 6.44-.26-4.95-.306-4.108 5.428-.41 5.478-1.098 3.974 6.176 5.436 5.054-.5 4.617.324 3.95-5.914-.476-5.398.328-1.135 4.82-1.625 6.803.542 1.823-1.664 3.836-2.804 7.472-.424-4.958-.826-5.02 5.61-.415 5.224-.43 4.262 6.08 4.334 4.993-.59 4.956-1.337 2.23-6.642-1.41-5.18 1.62-1.927 4.373-1.02 5.464-.628 3.374-3.86 6.313-.632 6.313-.632-5.87-.613-4.594 7.755 1.127 4.72-.006 1.72.733 3.212 3.07 3.456l2.776 5.747-78.69.518 4.342-7.636c.438.138 2.948.366 3.488-2.576 5.17 1.642 5.518-4.38 1.654-5.33.47-.324.997-.453 1.542-.45zm121.83.713v2.92h2.305l6.57 14.736-6.29 10.29h-2.424v2.613h9.175v-2.612h-3.054l8.41-12.134v12.135h-2.526v2.613h8.377v-2.546h-2.753v-25.095h2.753v-2.92h-8.377v2.92h2.527v7.41l-3.574 4.602-5.356-12.012h3.574v-2.92zm-124.9 1.466c.515.826.085 1.364-.8 1.386 0 0 .575-.837.8-1.387zm64.737 1.065l.51 1.07c-.552-.223-.62-.46-.51-1.07z"/></svg>