<svg viewBox="260 370 224 313" preserveAspectRatio="none" xmlns="http://www.w3.org/2000/svg" width="744.094" height="1052.362"><title>Vectorized Playing Cards 1.0</title><rect y="589.952" x="2090.74" height="311.811" width="223.228" rx="10.63" ry="10.63" fill="#fff" stroke="#000" stroke-width=".997" transform="translate(-512.47117,-760.44497) translate(-1317.836,540.76888)"/><path d="M379.684 652.85c.538-7.928.076-16.44.437-22.893-.244-.455.64-1.707.686-1.707-.525-.96-.702-3.415-.038-5.594 5.19-19.772 14.587-35.16 24.267-49.51 7.872 23.715-16.846 40.353-22.044 61.074-1.732 7.175-1.473 12.185-2.137 18.667zm-41.096.302l-29.405-45.424 6.385-3.108 30.225 48.373zm38.034-84.15c.26 1.305 1.286 2.005 2.375 1.408 1.066-.584 1.19-.623.526.405-1.465 2.27 1.503 4.468 3.408 2.52.678-.693.79-1.82.176-2.392-.694-.646-.845-.98.18-.488 2.572 1.04 3.99-2.68 1.496-3.932-.642-.323-1.894-.037-2.366.455-.57.593-.65.385-.497-.076.088-.272.152-.714.366-1.24.17-.414.29-.977.29-.977l-2.63.028s.213.602.428 1.11c.203.476.28.832.378 1.03.354.715-.072.45-.782-.078-1.003-.746-2.262-.537-2.978.445-.263.578-.484 1.18-.37 1.783zm3.797-36.955l5.65-.168 6.217 17.153c-4.975 8.26-6.317 17.575-.528 27.017l-17.926.03c4.204-14.23 4.854-29.32 6.585-44.033zm5.91 22.32c.758-.68.855-1.91.163-2.73-.87-1.03-.67-1.083.496-.41 1.682.972 3.29-1.13 2.298-2.99-.63-1.18-2.67-1.44-3.45-.39-.65.874-.577.073-.077-1.09.185-.428.45-1.23.45-1.23l-2.74.055s.353.776.542 1.274c.5 1.32.52 1.74-.25.89-1.672-1.405-3.633-.387-3.65 1.63.016 1.552 1.422 2.548 2.653 1.823.747-.442 1.083-.548.24.464-.58.964-.372 2.193.395 2.77 1.05.635 2.176.6 2.93-.067zm-37.868 5.345c.22-.162.3-.056.166.163-.114.186-.41.45-.662.732-1.278 1.422.376 3.23 2.437 2.95 1.402-.19 2.226-2.397 1.19-3.27-.336-.223-.6-.266-.854-.573-.022-.122.036-.205.16-.157.183.077.556.38.745.43 1.303.354 2.288-.185 2.618-1.105.21-1.064.008-2.207-.86-2.805-.81-.542-2.005-.387-2.702.538-.712.947-.81.046-.227-1.26.22-.49.37-1.187.37-1.187l-2.52.133s.135.543.356 1.166c.56 1.423.96 1.83.245 1.096-3.076-1.812-4.098.65-4.148 1.63-.096 1.846 2.59 2.892 3.685 1.52zm12.315-27.82l4.544.015c-3.426 18.217-10.447 33.477-22.26 43.98l-22.23-.07-10.714-7.49 4.137-5.372c28.224 2.908 40.243-11.086 46.524-31.064zm-20.454 42.23c1.33-.586 1.884-2.092 1.004-3.103-.795-.915-.877-1.2.345-.488 1.636.952 3.216-.95 2.415-2.81-.5-1.158-2.072-1.516-3.204-.73-.995.744-.976.412-.456-.76.257-.58.455-1.51.455-1.51l-2.785.04s.2.66.404 1.116c.466 1.042.634 1.52.418 1.523-.104.002-.45-.316-.65-.5-.555-.51-2.07-.607-2.634-.07-1.667 1.59-.728 4.373 1.393 3.86 1.37-.33 1.683-.852.548.436-1.398 1.588.768 3.87 2.748 2.997zm-17.57-.552c1.152-.543 1.537-1.87.893-2.728-.65-.863-.97-1.42.184-.642 1.535.772 2.876-.254 2.856-2-.02-1.827-2.073-2.68-3.583-1.58-.255.187-.57.355-.625.355-.184.002.15-.986.518-1.634.16-.28.44-.852.44-.852l-2.786-.106s.156.758.374 1.342c.444 1.186.553 1.58-.225.908-2.096-1.958-4.33.536-3.448 2.688.466 1.212 1.896 1.21 2.74.606.765-.593.374.193-.15.82-1.432 1.707.666 3.828 2.81 2.824zm127.208-45.675l.147 3.37-35.996 29.997-1.51-2.312zm-133.882 6.31c5.183-3.69 10.947-10.31 16.638-13.76 4.156 9.553-5.594 18.92-16.638 13.76zm95.116-2.418c-5.212-17.897 19.41-16.705 16.318-12.905zm-117.01-11.692l35.633-29.05 1.62 2.443-37.593 30.796zm97.612-29.304c.1.305 1.18 1.463 1.18 1.568-.307-.23-2.137-1.255-3.03-.26-.314.366-.71 1.24-.668 2.143.375 1.62 2.217 2.19 3.525 1.082.377-.32.7-.706.777-.57.066.12-.14.675-.307 1.115-.193.452-.91 1.403-.39 1.402l2.53-.006s-.093-.593-.396-1.248c-.566-1.226-.542-1.892.14-1.008 1.33 1.72 3.906.285 3.637-1.776-.194-1.488-1.7-2.34-2.81-1.63-.12.078-.476.43-.527.432-.135.007.236-.56.482-1.032.815-1.565-.404-3.014-2.27-2.86-.6.052-1.26.43-1.264.485-.7.565-.816 1.54-.61 2.164zm30.765-14.572c3.567 3.28 7.132 5.683 10.697 7.783l-3.364 5.312c-22.8-2.11-39.383 6.904-46.3 31.343l-3.76.723c1.414-15.245 6.523-30.363 21.626-45.136zm-21.85 3.648c.006.723 1.333 1.582 1.038 1.78-.136.074-.926-.614-1.29-.653-2.632-.28-3.178 3.814-.57 4.273.514.09 1.574-.228 1.888-.487.418-.344.707-.626.793-.595.16.058-.205.788-.492 1.33-.266.5-.637 1.485-.637 1.485 1.045.19 2.052.232 2.994.014 0 0-.27-.855-.54-1.507-.345-.833-.418-1.36-.186-1.305.1.024.212.284.422.464 1.296 1.113 3.198.638 3.698-1.1.47-1.635-1.486-3.318-2.85-2.403-.475.32-.475.08 0-.638.433-.654.327-1.646-.066-2.235-1.43-1.518-4.267-.433-4.202 1.576zm21.49 4.847c-.072-.364.02-.26.404.14 1.2 1.248 3.266 1.054 3.793-.6.525-1.654-1.08-3.544-2.477-2.895-.728.338-.74.218-.324-.323 1.072-1.395-.11-3.233-1.95-3.212-1.68.02-2.67 1.636-1.853 3.026.335.568.226.69-.363.404-1.72-.834-3.323 1.886-2.063 3.5.74.95 2.453 1.048 3.434.107.522-.5.518-.26.14.776-.33.904-.697 1.634-.697 1.634l2.975.026s-.795-1.51-1.018-2.583zm-63.708 36.557s-4.416-12.292-5.928-18.184c3.273-7.838 7.752-15.434.222-26.72l18.3-.05c-5.654 12.817-5.775 45.168-7.103 45.246zm1.606-14.386s-.904-1.243-.96-2.25c-.108-.646.06-.685.395-.027 1.63 1.802 3.836.062 3.846-1.533.186-1.46-1.52-2.71-2.618-1.983-.768.512-.977.366-.292-.585.965-1.34-.086-3.082-1.813-3.063-2.246.025-3.106 2.124-1.496 3.62 1.19 1.107.082.454-.863.058-1.838-.77-3.044 1.102-2.22 2.992.57 1.304 2.242 1.645 3.222.588.536-.578 1.032-.917.74-.043-.15.708-.973 2.207-.973 2.207zm2.833-19.7s-1.083-1.36-1.27-2.38c-.063-.378.203-.282.82.246 1.967 1.69 4.672-1.34 2.838-3.19-.63-.638-1.272-.822-2.01-.437-.918.48-.844.247-.385-.25.672-.728.622-2.056-.102-2.7-2-1.785-5.168.873-3.308 2.78.81.83.426.722-.465.19-1.686-1.01-3.553 1.754-2.286 3.376 1.502 1.268 2.627.644 3.665-.153.225-.12.42-.173.42-.075.003.183-1.036 2.63-1.036 2.63zm-24-7.66c-1.117-.074-1.915-10.506-.55-13.81 2.91-13.934 11.79-24.083 17.318-32.618 8.867-12.71 7.764-33.823 8.14-32.98l1.26.145s-.974 12.377-.424 17.97c.572 4.916.447 5.222.095 5.71-.094.458.043 1.798-.056 2.258-3.947 18.205-13.365 36.923-23.09 51.055zm91.175-31.802l-29.946-47.218 7.195-.648c2.67 4.232 28.685 44.577 28.685 44.577z" fill="#d40000"/><path d="M306.8 653.995c3.406-12.484-5.82-41.518-11.585-45.312 6.762-.285 14.894-.163 14.638-.796 0 0 28.753 45.225 28.52 45.464-.223.228-31.572.645-31.572.645zm116.54-70.826c-6.97-.99-4.22-6.776.26-7.376-.584.097.48-2.876 4.093-4.078.82-1.488 1.465-4.03 2.216-5.21-2.167.704-4.8 2.534-14.64 1.092.857-4.663 10.27-5.458 13.664-4.737 1.96.456 3.895 3.377 4.49 3.438 6.043-1.006 13.73 4.46 11.404 10.007-.36.792-1.28-.94-3.314-1.677-6.573-2.383-7.034-5.94-8.545-7.533-.55-.104-3.458 5.65-3.458 5.65l.908 3.906c1.577-.143 8.584 4.187-.14 7.12-2.41 8.313-6.954 2.446-6.94-.6zm16.512-37.122c-.373-.378.293-2.966 1.178-4.455.478-.804 1.582-1.344 2.23-1.23 1.153.202.973 1.88-.555 6.79-.064.707-1.624.782-2.853-1.105zm-138.767-34.38c-1.912-.007-.197-5.207.98-6.858.385-.513 1.91.58 1.99 1.333.14 1.35-1.932 6.06-2.97 5.524zm-1.357-35.357c2.334.564 6.018 2.913 7.778 4.202 2.19 1.634 1.592 4.84 3.343 5.126 1.182-.585 3.35-5.837 3.35-5.837s.546-2.698-.997-3.53c-3.84-2.066-3.77-4.3-3.526-4.5 1.138-2.95 3.404-2.424 4.63-2.59.025-1.614-.028-5.025 3.316-4.673 2.924.276 3.212 4.455 1.982 4.493-.023-.07 5.53-.797 5.476 2.867-.028 1.986-3.322 4.527-4.348 3.604 0 0 .55 3.96-4.427 5.318-1.162 1.183-2.112 6.216-2.112 5.77 3-2.71 7.7-3.344 15.115-2.372-4.594 8.516-17.294 4.53-18.287 2.883-6.39-1.93-12.383-4.44-11.292-10.76zm54.71-20.41c6.758.614 14.152-1.507 19.774-.384.64.088 1.336 1.035 1.72 1.245 2.907 1.586 5.948 1.094 10.624-.676 1.155-.437 22.586-.27 22.586-.27 4.882 7.21 13.562 20.776 13.75 20.317 0 0-11.88-.134-17.353.19-3.85.228-1.587.752-4.26.868-18.727 14.065-22.293 44.46-22.293 44.46s5.952-1.566 7.507.076c7.363-21.536 21.34-31.37 40.832-29.444 9.007.89 19.756 9.747 19.756 9.747l-19.277 15.686c-14.932-7.533-21.33 14.67-16.8 14.725l38.817-31.73s.664 2.59.598 2.678c-2.767 3.627-49.043 41.19-49.043 41.19l-2.032-2.244s-1.277 1.133-1.948 1.887c-.067 1.23.367 2.273 1.3 3.236-9.167 7.356-9.47 20.854-2.712 28.222 0 0-2.997.212-3.312.266-3.81.652-7.747-18.126-.198-26.864-3.81-7.47-6.155-17.63-6.633-18.1.102 1.196-6.012.798-6.012.798-.466 15.177-2.05 30.06-5.697 44.4l28.085.604-11.956 20.748s-13.415-.335-19.195-.74c-6.034-3.51-9.513-.84-15.177.46-8.06.235-19.923-.14-19.923-.03-4.024-7.99-8.348-13.867-14.225-20.716-.746-1.245 23.856-.476 23.856-.476s12.298-18.603 14.538-23.857c1.75-4.1 5.67-19.03 5.67-19.03.182.78-2.233-3.882-7.857-3.776-4.65 30.914-41.387 41.328-63.492 21.43l-.206-3.594 48.713-39.512 2.164 2.502c-.466-.373-29.906 24.125-29.417 23.97 8.726 4.567 18.822.87 17.647-14.12 6.913-4.998 13.035-10.82 19.053-16.762.13-.232 6.715 14.777 6.553 17.665 3.788-1.272 6.032 1.395 5.96.94-1.362-8.68 6.24-41.59 6.384-45.374-4.222-.34-9.82-.185-18.6-.533 7.052 13.65 4.603 22.895-5.254 31.304l-2.062-2.59c.837.466 14.398-11.27 3.48-28.802-.5.042-5.756-.475-5.756-.475s10.774-17.094 11.32-19.512zm52.34-56.41s30.743-.74 30.753.163c-.98 16.517 2.87 31.584 12.16 45.518 0 0-13.616-.48-13.367-.31z" fill="#e2cf00"/><path d="M451.498 398.418l-159.83-.196.993 256.527h159.633zm-14.62 1.017c-.012-.014-2.06 27.137 12.107 44.92-8.654-1.31-13.61.016-18.647 3.576l.69.71c6.94-4.263 12.818-3.142 18.843-2.477l-.163 34.93c-.043 1.697-7.04.94-11.466-2.387-2.1-1.24-4.81-3.845-6.025-5.8-.37-.594-.758-1.18-.866-1.305-.407-.467-2.93-5.17-7.564-14.07-2.355-4.527-5.47-10.702-7.998-15.487-1.638-3.098-4.682-8.95-4.896-9.417-.448-.973-3.762-7.44-5.052-9.792-3.407-6.214-8.908-17.057-10.87-20.943-.435-1.008-1.095-1.473.087-1.44.262.006.524.023.675.058.208.104.46-.357.46-.357zM294.562 546.323l-.1-2.747 46.448-38.308 1.482 1.907zm44.88-67.1c-.187.068-.39.138-.615.21-1.194-5.32-.513-12.427.893-17.77 2.05-7.418 5.875-13.367 10.135-19.345 9.737-13.652 14.05-23.943 13.874-42.282l1.392.15c-.06 2.895-.443 5.074-.555 8.928-.174 4.13-.105 7.27.334 11.303.215 1.982.345 3.266.01 3.524-.158.13-.302.816-.156 1.068-.023.55-.098 1.65-.098 1.65-2.23 10.917-14.19 38.913-25.217 52.564zm5.807 24.82l-2.46-3.02s-1.894-1.526-.192-3.25c4.917-4.987 4.95-11.326.196-17.026-.318-.723 1.478-4.38 1.478-4.38l3.743.062c5.838 7.1 7.43 19.65-2.763 27.613zm3.44-28.185c.116-.486-5.546-.298-5.546-.298 3.518-5.243 6.51-10.636 9.45-16.044 4.56-8.184 10.882-22.523 12.864-32.917 1.476 12.156 3.623 30.2 14.026 30.91 3.41.234 7.36-2.103 8.004-1.717l21.612-.17c4.432 8.985 9.194 14.775 14.832 20.92 4.052 2.31 8.993 4.14 13.77 5.327 2.712.674 2.973.226 8.324.99 1.413.2 3.564-.397 3.543-.397-4.275 3.373-9.208 2.417-14.64.973-.304-.08-.624-.175-.94-.287l-4.103 6.17c-9.13-2.164-38.44-.632-46.168 31.236 0 0 .794.406.61.186 6.136-27.66 32.058-33.175 44.417-30.42l-1.062 1.622c-20.506-2.508-37.202 10.317-41.178 28.505l.396.358c7.695-27.497 40.042-37.672 60.097-18.612l3.678-2.605-.117 3.527-49.306 41.31-1.973-2.04s-.347.264-.74.59c-1.272 1.06-1.774 1.32-1.418 1.91.357.59 1.74 1.922 1.8 2.07-8.177 6.665-10.772 19.517-3.002 28.517.867.954.71 1.21.55.136-6.97-7.586-6.086-21.003 2.605-27.36l1.75 2.295c-3.826 8.402-5.867 21.506 4.195 22.64 3.605 9.66-.542 21.107-5.172 28.78-4.906 8.84-10.852 16.186-14.564 25.814-1.804 4.016-4.675 15.932-4.523 25.037l-1.082-.01c0-3.717.247-8.123.277-10.94.152-13.73.132-12.916.44-13.265.103-.115.39-.237.418-.334.04-.144-.224-.43-.33-.764-.106-.344-.288-.95-.27-1.457.02-.51.496-1.25.405-1.416-2.165-7.577-2.343-21.196-9.33-27.452-3.425-2.942-7.975-3.06-13.87-.647-13.004.024-11.076.693-21.58.093-4.344-7.955-9.613-15.702-15.314-21.447-2.664-2.972-6.37-4.6-9.853-6.753 1.397-2.65 2.983-4.59 4.714-5.847.36-.512.606-1.066 1.07-1.5 35.415 3.403 43.095-30.895 41.478-30.022l-.313.27c-9.682 35.34-44.14 34.052-61.46 18.774 0 0-2.446 2.126-2.454-.207-.007-2.12.767-2.733.767-2.733l48.614-39.642c.89.566 1.847 2.45 2.245 2.24.896-.477 2.215-1.433 2.175-2.002-.03-.438-1.778-3.19-1.778-3.19 13.005-13.464 7.14-19.48 2.965-28.705zm18.428-75.67c.234-.003.455.108.62.368.296.468-.884 3.2-1.613 3.68-.69.455-.74-.074-.24-2.715.145-.774.718-1.33 1.233-1.333zm71.33.046h11.262l.082 43.245c-8.415-11.828-12.677-25.45-11.345-43.246zm-68.307.104c.28-.012.53.066.61.27.29.728-1.362 3.878-3.406 6.49-1.06 1.354-1.594 1.746-1.925 1.423-.28-.615-.27-1.332.705-2.458.805-.93 2.175-3.1 2.74-4.316.243-.712.486-1.357 1.276-1.408zm11.562.155c.328.003.665-.003.76.153 1.965 4.008 5.667 7.626 9.455 9.56.552.313.292 1.1.478 1.65-4.255-.63-9.84-6.66-11.334-11.06-.01-.318.31-.306.64-.303zm6.653-.003c.847.86 2.18 1.898 2.48 2.88.183.602.317 1.293.188 1.618-.738.462-4.412-3.8-4.27-4.298.467-.307 1.053-.372 1.603-.2zm-15.93-.062c.36.014.912-.007.993.265.46 1.86-3.786 9.1-6.883 11.153-1.1.73-1.17.538-1.083-.685.06-.822.138-.756 1.268-1.835 1.613-1.54 3.373-3.915 4.342-6.02 1.242-2.7.94-2.87 1.362-2.877zm2.88.028c.404 0 .78.138.885.317.14.243-.048.638-.18 1.126-1.4 3.957-4.875 9.653-8.96 12.89-1.587 1.223-1.856 1.215-1.97-.05-.068-.734.27-.948 1.016-1.465 3.464-2.402 6.577-6.57 7.894-10.827.257-.83.16-1.574.61-1.826.21-.117.463-.166.705-.166zm21.498 6.86c.167.283 1.355 2.14.384 1.442-.398-.327-1.122-1.15-2.275-2.46-2.727-3.096-2.81-2.904-2.755-3.674.026-1.003-.69-2.65.86-2.222 1.524 1.79 2.482 4.68 3.786 6.913zm-12.41-6.798c.308-.005.674.052.98.113 1.794 3.376 6.176 6.34 6.16 6.324 0 0 .11 1.468-.05 1.728-.092.453-6.96-4.766-7.724-7.89.073-.2.324-.27.633-.274zm-4.89.06c1.614 2.964 4.942 9.688 12.76 12.404.562.122 1.16 1.722.73 2.163-4.286-1.243-12.063-5.44-14.704-14.525.257-.24.94-.204 1.215-.04zm-2.098.577c-.27.004 3.69 11.432 14.972 14.84.975.306 1.547.728 1.485 1.305-.08.728-.056.818-1.14.274-3.078-1.607-7.465-2.36-11.128-.498-.572.29-1.152 1.083-.69 1.582.26.254.908.065 1.733-.256 4.264-1.66 10.79-.683 11.943 1.925.818 1.852.958 3.217.51 3.444-.34.174-.92-.448-1.938-1.342-3.245-2.847-7.124-3.638-10.208-.904-.667.592-1.328.49-1.56.733-.227.237.04.768.23 1.287.2.543.208.69.01 1.15-.27.627-.28 1.43-.25 2.028.072 1.458 1.037 2.713 3.812 4.636 2.162 1.497 3.852 2.34 1.22.208-4.54-3.678-5.365-5.177-2.42-3.902 2.938 1.18 7.013-.003 9.9-2.205.98-.017 1.565-.188 2.083.19 2.152 5.052 3.912 11.776 6.774 18.294-3.416 3.86-15.314 13.315-23.796 12.978-7.325-.29-9.91-12.28-11.53-18.904-.546-2.804-1.17-5.657-1.093-9.616 0 0 .133-.107.322-.07 1.228.23 3.34.39 4.413.14 1.95-.455 2.34-.802 2.455-.515.135.34-.677 1.1-2.095 2.072-.617.42-2.413 1.286-2.223 1.413.43.287 2.6-.87 2.965-1.178.57-.48.958-.512 1.23-.246.32.31.384-.02-.667 2.587-1.158 2.873-1.047 3.134 1.21 4.905.786.615 1.504 1.23 1.676 1.5.216.352.363.77.463.903.38.51.147-.312-.08-1.618-.265-.967-1.212-1.927-1.884-2.394-1.232-.857-1.04-1.697-.02-4.616 3.01-8.608 2.242-12.448-1.072-14.318-1.495-.844-5.68-.62-6.998.483-.65.543-.56-.523-.457-.594 7.95-5.466 9.814-10.678 11.842-15.705zm15.344 4.218c2.256 2.24 5.065 5.28 6.756 7.443.93 1.153 1.418 2.336 2.157 3.548.14.22.278.47.18.572-.04.043-.362-.144-.54-.28-1.654-1.245-8.482-9.02-8.482-9.02-.315-1.276-.534-1.71-.072-2.263zm1.35 5.277s5.915 6.458 9.304 9.635c.666 1.4 1.943 3.416 1.91 3.755-.014.15-.723-.397-.723-.397-3.745-3.45-7.204-7.327-10.8-11.002.035.02-.283-1.52-.287-2.142.08-.304.44.032.596.152zm12.832 16.555c.796 1.295 1.377 2.455 1.76 3.216.632 1.207.42 1.24-.137.796-4.232-3.464-7.776-7.68-11.763-11.546-.518-.533-1.552-1.717-1.552-1.717.037.043-1.3-2.785-.46-2.728.656.255 1.087.968 1.51 1.42 2.09 2.24 6.074 6.087 10.643 10.56zm-36.923-9.232c1.746-.052 3.466.4 4.333 1.47.79.974 1.108 2.515.67 2.963-.273.28-1.242-.508-1.242-.508-4.11-2.307-5.527-1.196-7.758-.52-.318.098-.656-.76-.25-1.608.82-1.41 2.895-1.756 4.247-1.797zm25.87 2.184c4.396 4.41 8.863 9.306 13.622 13.098.666.568 1.124.933 1.428 1.24.628 1.244 2.073 4.208 2.073 4.208-5.1-3.565-16.586-15.856-16.46-15.774.116.056-.96-2.25-.664-2.773zm-8.608.73c.803-.008 1.683.245 2.377.52 2.216.88 3.61 1.815 1.315 1.503-3.194-.434-4.285-.457-5.454-.27-2.172.35-2.34.59-2.53.246-.5-.905 1.882-1.976 4.29-2zm-18.127.26c.8-.006 1.67.17 2.52.543 2.71 1.184 3.187 1.955.88 1.584-1.196-.192-3.39-.173-4.96.232-.5.128-1.05.418-1.18.46-.556.177-.71-.24-.472-.938.412-1.206 1.684-1.873 3.212-1.882zm19.61 3.454l.558.042c-.7 3.956-4.65 3.57-5.713.173l.56-.013c2.08 3.25 3.636 1.338 4.594-.2zm2.2.207c1.826-.02 1.708 1.076-.194 1.81-1.457.565-1.622.463-1.088-.628.513-1.05.46-1.174 1.282-1.183zm-18.812.142c.18 3.563-4.788 4.217-5.092.33l.472-.023c1.627 3.056 3.507 1.21 4.094-.308zm2.21.486c.562.384.213.91-1.008 1.655-1.1.686-1.385-.142-.477-1.29.38-.37 1.007-.677 1.485-.364zm8.613-.005c.218-.067.733.896.294 1.127-.26.137-.647-.257-.69-.55-.035-.23.11-.486.397-.576zm14.872.223c3.314 3.652 6.65 7.318 16.41 15.264 0 0 1.377 2.452 1.678 3.41-.237.293-.36.26-1.045-.08-6.364-4.913-12.28-10.888-16.915-16.44-.22-.785-.71-1.542-.128-2.154zm-31.597.365c.377-.013.908.828.615 1.334-.242.19-.617-.105-.78-.336-.162-.23-.157-.65-.057-.838.06-.108.136-.157.222-.16zm32.983 5.056c-.026-.127 15.413 15.52 17.393 15.22.923.544 3.217 4.992 3.217 4.992.066.14.055.4-.317.217-2.61-1.29-13.52-10.345-19.1-17.085-.408-.98-.902-2.23-1.192-3.344zm-18.35 2.298c2.69 1.3 1.533 3.968-1.308 2.27-2.24-1.36-4.015-1.483-4.002-.306.006.498.616 1.137 1.207 1.13 1.107.07 2.11.477 3.197.715 1.697.365 2.966-.086 3.39-1.115.72-1.748-.993-3.655-2.122-3.554-1.13.102-.845.643-.363.862zm21.316 4.277c-.19-.166 7.677 8.452 18.4 15.57.416.48 1.452 2.967 1.617 3.302-.04.234-.278.005-.278.005-5.415-3.13-12.564-9.34-19.336-16.385 0 0-.652-1.562-.85-2.578.145-.068.306.02.448.085zm-17.866 3.102c-.244.034-.57.402-.974.624-.825.454-1.086.575-3.112-.033-1.1-.33-1.278-.307-1.935.18-.574.425-.892.495-1.532.208-1.153-.516-1.686-.14-2.753.233-1.016.367-1.365-.08-2.28-.29-.12.002-.173 3.69-.052 3.81.042.04.95-.557 1.466-.82.886-.45.76-.38 2.053-.326 1.91.33 3.8.22 5.08-.284 1.59-.45 2.835-.366 3.934.535.668.547 1.554.457 1.036-.55-.178-.346-.583-1.627-.534-2.104.073-.712-.086-1.168-.35-1.182-.016 0-.03-.002-.048 0zm20.396 2.876c3.62 3.47 8.084 8.77 18.585 14.91.546.957 1.285 2.23 1.754 3.225.043.275-.025.52-.294.425-6.488-4.113-10.096-6.11-19.09-14.975-.56-.9-1.155-2.428-1.618-3.675.098-.352.514 0 .662.09zm-1.527 1.324l4.015 7.54-13.523-.03c3.436-2.047 6.716-4.777 9.507-7.51zm-22.416.17c-2.22.883-2.555 1.067-4.757.53-1.284-.312-.932.43-.275.74 1.662.777 4.07.228 4.96-.387.59-.38.992-1.248.073-.883zm-2.28 2.328c-2.324.032-4.518.843-4.682 1.787-.03.183.16.388.52.17 1.576-.948 5.49-1.257 8.448-.188.48.172.563-.126.067-.536-1.108-.914-2.76-1.257-4.352-1.234zm29.517 3.22c4.377 4.04 8.6 7.757 18.023 13.165.678 1.48 1.66 3.25 1.832 3.404-8.83-4.287-18.452-12.744-18.452-12.744s-1.515-2.698-1.862-3.854c-.032-.39.335-.07.46.03zm3.014 6.294s8.06 6.817 17.25 11.444c.373.358 1.297 2.55 1.6 2.786.303.238-.366.237-1.028-.104-4.808-2.215-15.12-9.304-15.12-9.304-.99-1.62-2.407-3.308-2.7-4.822zm-96.458 28.486c.737-1.577 1.49-3.33 1.976-4.762 2.195.023 3.274-.8 4.052-1.79 1.112-.03 1.963-.026 3.477-.07-.05-1.497.02-3.616.02-3.616 1.534-1.58 2.575-3.406.196-6.2 0 0-.096-1.3-.13-3.522-1.098-.175-3.557-.062-3.557-.062-1.988-2.798-5.515-2.092-6.584 0 0 0-1.584.086-2.672.09-.022.592-.21 3.215-.21 3.215s-4.634 3.16.174 6.886l-.065 3.128c.9.073 1.544.012 2.718.237 0 0-1.84 4.272-3.05 6.3-.413.107-.314-.13-.814-1.547-.602-1.67-1.962-3.495-3.117-4.394-1.564-1.207-3.705-1.58-5.198-2.63-1.44-1.01-2.457-2.314-2.915-2.07-.15.506-.314 3.422.227 5.296.764 3.083 5.198 5.048 8.902 6.523.285.184.538.463.54.563.005.51-.488.353-1.703.232-1.836-.183-2.595.32-3.24 1.887-.192.387-.65 1.053-1.02 1.495-.372.44-.76.872-.815 1.06-.054.187-.435 1.14-.813 1.934-.233.49-.62 1.003-.648 1.726-.086 2.21-.12 5.178.213 7.048.244 1.374 1.98 2.164 2.578 2.275.917.172 1.085 1.102.94 1.864-.707 3.755-2.87 6.054-3.56 4.82-.183-.325-.376-1.86-.427-1.84-.033.012-.362 1.305-.236 1.83.135.566.858.982 1.57.724 1.057-.382 1.89-1.43 2.545-3.81.27-.976.523-1.52.98-1.59.834.057 2.137 1.778 2.137 1.778-4.338 3.614-12.687 10.176-12.687 10.176l-.31-118.4 68.725.134c.382 9.386-.757 17.283-4.128 25.645-3.994 9.007-10.193 15.702-14.936 23.992-5.727 10.01-7.56 20.39-5.61 30.835-5.85 7.658-10.78 11.335-15.46 14.893 0 0-3.51-3.688-5.458-5.753 0 0 .822-.068 1.784-.107 4.446-.498 9.257-1.128 11.115-5.756.264-.515.153-.743-.16-.814-3.482.483-6.507-.007-8.48.133-4.828.34-6.868 2.014-6.868 2.014zm.53 3.407s-5.586-2.655-6-2.73c-2.436-.44-8.308-3.5-9.3-5.58-.13-.273-.454-4.068-.558-4.845.036-.247.135-.24.38-.06.626.43 3.06 2.017 3.958 2.454 3.71 1.802 5.146 3.086 6.054 5.8.228.678.466 1.385.6 1.53.298.322.423.295.796.01 1.59-2.057 2.333-3.77 3.07-5.978.095-.246.302-.498.18-.854-.29-.975-1.003-2.238-.274-3.192-2.325.106-4.55-1.592-4.266-3.294.62-3.153 1.957-2.584 4.464-3.044-.29-7.29 6.535-5.52 6.518-.442 7.497.63 3.954 7.565-.4 6.504 1.726 3.94-3.463 5.418-4.192 4.748-.293 1.273-2.27 5.372-2.69 6.59 5.556-3.937 14.495-2.19 15.79-2.442-3.228 6.75-13.78 5.107-14.13 4.825zm100.033-24.852c1.41 1.086 13.374 8.567 15.58 8.736 0 0 1.058 1.188 1.93 2.267.814 1.005 1.113 1.164 1.207 1.367.093.202-.307.192-.374.184-5.38-2.34-10.856-4.8-15.51-8.69-.628-.532-.77-.775-1.078-1.18-.41-.544-1.627-2.48-1.755-2.683zm3.965 6.035c5.47 3.074 10.12 6.055 15.107 7.658.71.267 1.074.285 1.428.535.355.25 1.874 1.19 2.233 1.4 2.275 1.334 2.508 1.27 1.944 1.495-.625.247-4.62-.92-7.994-2.167-5.986-2.212-8.104-3.467-10.27-5.42-.486-.504-2.76-3.224-2.448-3.5zm-109.076 17.147c.462-.01 1.2.276 1.968.865.822.63 2.84 1.95 3.675 2.31.426.182.56.228.56.228l5.38 6.108-13.853 11.26s-1.124-1.15-1.482-1.534c-.34-.364-.24-.667.18-1.08.34-.33.365-1.047.308-1.4-.084-.52-.07-1.11.592-1.597.533-.393.616-1.082.59-1.273-.02-.152.29-.656.753-.993.972-.708 1.265-1.57.936-2.586-.136-.426-.21-.537.347-.91.99-.658 1.235-1.282 1.31-2.245.012-.154-.03-.316-.052-.437-.195-1.024.71-.765 1.452.52.405.702.52 1.852.724 3.16.24 1.543.404 1.964.488 1.746.48-1.246-.086-5.922-1.51-6.557-2.078-.928-3.817-2.82-3.296-3.562.18-.256.212-.168 1.48.417.743.343 1.43.622 1.533.625 1.468.046.577-.582.1-.648-.575-.08-2.292-1.124-2.493-1.49-.335-.61-.15-.917.312-.927zm-3.543.804c1.355-.014 1.614.35 1.628 1.514.01.688.265 1.218 1.344 2.588.44.558.733.987.704 1.206-.047.36-.178-.013-1.67-.19-.53-.062-.798-.07-.983.204-.514.762-1.6-.032-2.27-1.154-1.596-2.676-1.033-4.142 1.248-4.167zm25.792 1.614l14.728 18.024-1.662 1.29-14.782-17.78zm-2.462 1.107l1.577 2.664s-4.563 3.9-5.763 5c-9.695 7.85-31.582 25.673-31.582 25.673l-.294-3.584zm-26.583.483c.288.007.617.37 1.083 1.083.404.617 1.27 1.855 2.195 2.706 1.795 1.653 1.968 1.503.51 1.66-.578.062-.767-.007-1.12.875-1.07 1.333-4.226-3.442-3.486-5.27.288-.712.53-1.06.817-1.054zm5.137 2.578c.266-.012.617.088 1.026.337.782.32.834.507.705 1.253-.123.714-.667.9-1.736-.042-.813-.765-.677-1.514.004-1.547zm23.506.442l1.73 2.234-39.276 31.76.01-3.654c.956.123 26.142-21.762 37.536-30.34zm-30.46.363c.106-.022.27.338.705.993.887 1.335 1.702 2.214 2.63 2.914.878.662.977 1.032.374 1.036-.258.002-.61.273-.796.59-.37.64-.404.49-.98.153-.82-.48-1.643-1.205-1.97-2.156-.31-.896-.345-2.26-.09-3.255.043-.174.08-.265.127-.275zm6.202 2.535c1-.034 1.72 1.13 1.06 2.072-.37.36-.7.53-1.434.1-.967-.57-1.142-1.448-.35-1.94.247-.153.493-.224.724-.232zm-6.443 2.52c.21-.008.59.295 1.224.948.488.5 1.336.927 1.675 1.116.76.424.796.572.382.913-.176.145-.756.155-.913.615-.45 1.316-2.36-.214-2.54-2.096-.093-.955-.102-1.482.17-1.495zm4.796.158c1.252.052 1.844 1.514.846 2.232-.544.392-1.915-.3-2.053-1.017-.09-.462.73-1.235 1.206-1.215zm29.287 1.086c.727 0 1.315.588 1.315 1.315 0 .725-.588 1.314-1.315 1.314-.726 0-1.315-.59-1.315-1.315 0-.728.59-1.316 1.315-1.316zm-3.93.544c.726 0 1.315.588 1.315 1.315 0 .726-.59 1.315-1.315 1.315-.727 0-1.315-.59-1.315-1.315 0-.727.588-1.315 1.315-1.315zm-26.34 1.756c.08-.004.163-.004.25 0 1.206.06 1.27 1.208.553 1.826-.43.37-.817.486-1.372.043-.99-.793-.624-1.8.568-1.87zm29.267 1.924c.727 0 1.315.588 1.315 1.315 0 .726-.588 1.315-1.315 1.315-.726 0-1.32-.59-1.32-1.315 0-.727.594-1.315 1.32-1.315zm115.448.077l.062 3.326-46.44 38.63-1.572-2.05zm-118.117.284l-3.432 7.71-1.03-1.99h-2.568l.787-2.3-1.512-1.84zm73.083 32.066l6.11-4.9c-2.63-13.272 7.87-18.554 17.843-14.698l6.205-5.288c-11.512-9.695-38.586-3.12-30.157 24.886zm-82.673-25.942c.727 0 1.315.588 1.315 1.315 0 .725-.588 1.313-1.315 1.313-.726 0-1.315-.588-1.315-1.314 0-.728.59-1.316 1.315-1.316zm-3.992.32c.727 0 1.273.548 1.273 1.274 0 .727-.545 1.362-1.272 1.362-.726 0-1.315-.593-1.315-1.32 0-.726.59-1.315 1.315-1.315zm21.247 2.67l-6.058 4.852c1.566 12.708-4.617 19.18-17.907 14.823l-6.428 5.098c17.366 11.945 40.092-3.452 30.393-24.773zm-18.645 1.148c.726 0 1.315.59 1.315 1.315 0 .727-.59 1.315-1.315 1.315-.727 0-1.315-.588-1.315-1.315 0-.726.588-1.315 1.315-1.315zm127.447.334c.727 0 1.32.588 1.32 1.315s-.593 1.316-1.32 1.316c-.727 0-1.315-.59-1.315-1.315 0-.726.588-1.314 1.315-1.314zm-130.168.314l-3.875 7.662-.965-2.307-2.6.036.84-2.674-1.626-1.374zm124.964.807l1.205 2.027 2.542.062-.957 1.93 1.837 1.892-8.285 2.035zm-134.207 5.564c.726 0 1.32.59 1.32 1.316 0 .727-.594 1.315-1.32 1.315-.727 0-1.315-.587-1.315-1.314 0-.727.588-1.315 1.315-1.315zm-3.784.148c.726 0 1.32.588 1.32 1.315 0 .726-.594 1.315-1.32 1.315-.727 0-1.315-.59-1.315-1.315 0-.727.588-1.315 1.315-1.315zm131.586.78c.725 0 1.314.59 1.314 1.316 0 .727-.59 1.315-1.315 1.315-.728 0-1.316-.59-1.316-1.316 0-.726.588-1.315 1.315-1.315zm13.3.205l.058 2.92c-12.117 10.695-37.597 31.336-37.597 31.336l-1.585-2.037s25.923-21.183 39.125-32.22zm-142.253 2.848c.727 0 1.315.59 1.315 1.316 0 .727-.588 1.32-1.315 1.32-.726 0-1.315-.593-1.315-1.32 0-.726.59-1.315 1.315-1.315zm131.643.317c.727 0 1.315.59 1.315 1.315 0 .727-.588 1.32-1.315 1.32s-1.315-.593-1.315-1.32c0-.726.588-1.315 1.315-1.315zm-3.723.237c.727 0 1.315.588 1.315 1.315 0 .725-.588 1.318-1.315 1.318-.726 0-1.32-.593-1.32-1.32 0-.726.594-1.314 1.32-1.314zm14.7.466l-.11 3.717c-11.742 10.01-35.76 29.893-35.676 29.905l-1.813-2.505s26.327-22.677 37.6-31.117zm-145.033-.547l-3.623 8.172-1.562-2.2-2.287-.156.546-2.21-2.1-1.43zm125.607 3.228l2.313-.438-.403 2.367 1.625 1.705-8.52 1.873 4.12-7.638zm12.73 39.814c1.727 2.584 1.617 5.406.894 5.84-.762-.43-1.424-1.175-2.212-1.516-3.97-1.712-7.14-3.117-7.706-5.635-2.162-5.697 7.584-.838 9.024 1.31zm-20.862-15.13l13.354-10.874s2.047 1.055 2.435 1.535c.138.527-.23.69-.776 1.18-.25.32-.405.628-.42 1.32-.014.747.232 1.082-.07 1.41-.503-.025-.905.632-.884 1.164.017.405-.515.855-.826 1.16-.552.544-.714.657-1.07 2.497-.034.184-.022.663-.282.91-.772.07-1.332 1.96-1.684 2.08-.563-.036-1.46-.724-1.677-1.742-.143-.66-.104-1.946.052-2.773.185-.985.27-1.878.207-2.115-.144-.548-.506-.21-.5.558 0 .313-.12 1.25-.318 2.134-.2.884-.74 2.06-.497 2.758.362 1.04 1.696 1.482 2.297 2.033 1.58 1.45 1.925 2.157 2.104 2.48 1.265 2.31 1.27 2.704.952 4.443-.182 1-1.158.83-1.745.424 0 0-3.754-2.733-5.388-4.09-2.476-2.056-4.214-4.158-5.264-6.494zm5.067 7.47c1.433.58 5.162 3.286 5.162 3.286l-3.397 7.066c.62 1.107.868 3.855.868 3.855 4.296-.328 6.623 6.913-.068 6.244.764 4.476-6.447 7.984-6.25-.037-7.51.583-4.988-7.925-.36-6.33-.138-3.604 2.265-4.07 3.96-4.956 1.39-1.572 2.243-5.13 2.243-5.13l-.34-1.087c-1.423 2.488-7.487 3.202-14.15 1.883 1.803-4.275 7.276-4.154 12.332-4.792zm-13.25 5.38c-.228.85-.234.84.794.737.518-.05 2.607-.047 4.065.01 2.68.21 6.9.228 9.018-1.385.41-.39.635-.364.712-.15.18 1.042-1.875 4.468-1.875 4.468l-3.393 1.876s-1.39.064-3.11.022l-.03 3.053c-1.348.797-3.662 4.213.057 6.832l-.123 3.324 3.278.06c2.176 2.083 3.947 2.074 5.944.113l3.78.003-.016-3.59c1.863-1.498 2.128-4.04.223-6.07l-.047-3.643-2.908.018s-.602-.464-.62-.834c0-.24 2.124-4.334 2.53-4.92.53-.76.386-.325 1.232 1.43 1.21 2.51 2.407 3.535 5.474 5.018 2.737 1.323 3.715 1.94 4.51 2.698.63.603 1.004.413 1.248-.487.528-2.003.365-4.007-.738-5.84-2.327-3.87-6.382-4.047-7.027-4.942-.084-.213.74-.46 1.63-.857 1.534-.932 3.78-3.753 4.07-4.885-.054-.545.307-2.263.572-2.643.306-.676.34-.99.326-2.805-.273-1.036-.023-2.383.105-2.848.14-.94-.36-2.05-1.07-3.412-.267-1.264-.206-.935.613-3.784.133-.46 1.052-4.428-.124-4.7.014.035.123.157.156.222.198.398.307 2.112.127 2.597-.07.192-.204.69-.298 1.107-.714 3.188-1.135 3.988-1.78 3.29-.154-.165-.743-.402-1.196-.703-.856-.567-.783-.846-.572-1.91.052-.16.39-1.624.355-1.58-.185.504-.31 1.8-.894 2.105-.314.073-.746-.205-1.56-.908-.312-.268-.98-.736-.98-.736s9.652-8.122 13.24-10.815l-.032 120.31-68.217.03c-.853-7.453 1.387-17.313 5.098-27.188 2.295-6.103 5.59-10.63 9.304-16.094 7.122-10.418 12.51-20.996 10.432-34.406-.27-1.99-.545-2.943-.45-3.478.864-1.625 4.298-6.55 6.808-8.6 3.683-3.01 8.808-7.504 9.22-7.237 1.222 2.36 2.67 4.27 4.588 5.71.338.366.346.688-.432.852-5.085-.046-10.318 1.07-12.016 5.568zm-118.462-34.18c.727 0 1.315.587 1.315 1.314 0 .727-.588 1.315-1.315 1.315-.726 0-1.315-.588-1.315-1.315s.59-1.315 1.315-1.315zm127.53.297c.728 0 1.316.59 1.316 1.316 0 .727-.59 1.315-1.316 1.315-.727 0-1.315-.587-1.315-1.314 0-.727.587-1.315 1.314-1.315zm2.866 3.608c.726 0 1.314.59 1.314 1.315 0 .727-.588 1.315-1.315 1.315-.728 0-1.316-.588-1.316-1.315 0-.726.588-1.315 1.315-1.315zm-4.257.56c.727 0 1.315.59 1.315 1.315 0 .727-.588 1.315-1.315 1.315-.726 0-1.315-.588-1.315-1.315 0-.726.59-1.315 1.315-1.315zm-4.698 2.997l2.378-.117c-.3.853-.458 1.736-.628 2.62l1.937 1.423-8.38 1.426 3.612-7.424zm-5.716 21.653l-14.11-18.22 1.7-1.376 14.224 18.02zm-1.725-17.7c.727 0 1.315.587 1.315 1.314 0 .726-.588 1.315-1.315 1.315-.726 0-1.315-.59-1.315-1.315 0-.727.59-1.315 1.315-1.315zm29.635 2.04c1.144.89 0 2.136-1.093 1.644-.948-.4-.877-1.363-.13-1.748.467-.22.823-.166 1.223.103zm1.523.847c1.173.02 2.47 2.8 2.232 3.618-.35.95-.67.985-2.327-.415-1.635-1.384-1.66-1.442-.998-2.19.368-.425.544-.986 1.093-1.013zm-27.908.508c.727 0 1.315.588 1.315 1.315 0 .726-.588 1.32-1.315 1.32s-1.315-.594-1.315-1.32c0-.727.588-1.315 1.315-1.315zm-4.077.506c.726 0 1.314.587 1.314 1.314 0 .726-.588 1.315-1.314 1.315-.727 0-1.315-.59-1.315-1.316 0-.727.588-1.315 1.315-1.315zm28.883.937c1.3.192 1.64 1.172 1.042 1.9-.812.988-2.63.092-2.2-1.082.196-.533.67-.808 1.16-.818zm2.33 1.48c.508-.043 1.273.66 2.11 1.824.942 1.31 1.018 1.733.75 2.532-.387 1.164-.63 1.377-1.476.243-.32-.428-1.058-1.43-1.586-1.984-1.127-1.18-1.303-.88-.63-1.78.31-.418.526-.806.83-.833zm-3.052 1.377c1.166.6 1.278 1.385.59 1.94-.812.443-2.242-.083-2.52-.886-.406-1.173.84-1.77 1.93-1.054zm1.976 1.733c.66-.042 1.202.64 2.01 1.94 1.373 2.22 1.447 2.965.277 4.427-.842 1.052-.927 1.108-1.75-.568-.675-1.37-1.956-2.974-3.142-3.935-.496-.4-.67-.964-.312-1.002.104-.01.543-.032.974-.047.634-.022.864-.108 1.21-.45.23-.224.476-.347.734-.363zm-4.734 1.73c.614-.03 1.406.303 1.996.99.67.702.59 1.345-.723 1.475-.592.23-2.2-.824-2.21-1.533-.006-.595.396-.907.937-.933zm3.095 2.572c.032-.003.063-.003.095 0 .55.025.836.557 1.456 1.8.95 1.91.676 2.95-.968 3.795-1.116.573-1.967.745-2.11.09-.042-.19-.043-.74-.135-1.276-.123-.713-.286-1.454-.916-2.403-1.005-1.514-1.183-2.052-.08-1.606.584.237 1.22.21 1.887-.14.295-.156.545-.25.77-.26zm-5.577 3.07c-.383-.01-.628.226-.525.85.347.17.896.012 1.31.16.558.203.904 1.11 1.5.962.062-.765-1.443-1.955-2.285-1.973zM318.143 575.3c-3.074-1.464-10.69-4.853-14.358-4.902-6.802-1.91-7.26-1.042-9.645-1.653 12.627-3.275 21.317 3.02 24.5 6.08 1.444 1.44.657 1.026-.497.475zm8.04 29.765c7.225 12.533 13.96 26.67 25.257 47.603l-1.086.34-43.083.076c2.134-23.126-10.362-45.16-11.208-44.295 9.76.18 17.86-1.703 19.572-5.3l-1.39-.398c-5.68 4.902-13.91 5.127-19.585 3.612.127-12.05-.55-24.776-.175-36.822 6.71-.5 11.956 1.962 15.675 6.865 6.252 8.243 10.493 18.724 16.023 28.318zm-19.76-33.385c1.73-.132 11.16 3.747 15.38 6.645 1.17 1.212 2.882 3.318 2.884 3.524.007.56-.826-.132-4.9-2.456-3.084-1.734-6.283-3.118-9.398-4.448l-.43-.182s-.23-.266-.625-.572c-1.11-.86-3.265-2.38-2.91-2.512zm4.586 4.394c-.095-.018 9.352 3.404 16.868 9.39 1 .795 2.227 3.764 2.227 3.764-.67-1.262-12.543-8.365-16.71-9.992-.006-.005-2.386-3.162-2.386-3.162zm3.33 4.542c.514-.31 14.33 7.846 16.354 9.95.918.703 3.067 4.11 3.075 4.797.006.61-.666.083-1.903-1.06-6.362-5.94-15.553-10.418-15.628-10.32zm2.563 4.738c6.487 2.745 14.636 9.345 18.748 13.273 1.03 1.018 1.764 2.492 1.903 3.178.086.426-.13.397-.213.625-5.33-6.118-17.043-13.1-18.597-13.646.012.386-1.288-2.372-1.84-3.43zm21.54 19.062c.746.76 1.93 3.43 1.664 3.756-.13.16-.117.076-.43-.142-1.706-1.696-10.466-9.47-17.775-13.83-.687-.342-2.99-3.972-2.5-4.042 3.82 1.247 14.75 9.972 19.04 14.258zm-15.81-8.675c.128.01.356.173.75.39 6.72 3.707 16.465 13.044 18.312 15.288.42.69 1.08 1.96 1.033 2.738-.084.61-.33.09-3.047-2.583-4.366-4.277-9.39-8.415-14.714-11.89-1.023-.705-.827-.795-1.57-2.087-.745-1.297-1.04-1.875-.762-1.855zm42.992.143c4.8.137 6.677 3.77 9.633 10.468 2.42 6.6 3.422 12.646 3.533 17.46.01.323-.578.048-.845-.024-1.286-.345-2.886-.667-4.74-.2-1.362.345-2.656.307-1.258-.61.45-.294 1.672-1.425 2.322-1.83 1.316-.818.515-.808-.79-.165-.99.488-1.65 1.105-2.058 1.202-.252.06-.095-.768.147-1.362 1.394-3.433 1.817-5.465-.262-6.102-.562-.172-1.32-.693-1.68-1.04-.285-.278-.528-1.388-.618-1.433-.096-.048-.163 1.012-.16 1.173.005.55.713 1.67 1.564 2.28 1.446 1.036 1.732 1.323.946 3.78-1.1 3.44-1.335 4.28-1.537 5.08-.116.458-.34 1.238-.454 1.744-.437 1.95-.384 3.654-.304 5.274.476 3.62 4.38 5.407 9.617 3.396.496-.193.702-.02.702-.02-4.173 4.246-8.856 6.958-11.586 15.533-3.512-7.075-8.484-12.617-16.75-14.84l-.122-1.476c2.883 1.38 8.473 3.262 12.022 1.148 1.9-1.297 1.32-2.134-.984-1.24-2.745 1.066-7.704.942-10.18-.454-.503-.283-1.017-.038-1.162.01-.13-.832-1.32-3.965-1.146-5.143-.102-.164.754-.172.918.048.685.914 4.163 3.636 7.777 3.424 1.796-.106 3.273-.652 4.834-2.298.13-.116.766-.2.852-.297.14-.156.038-.39.032-.473-.038-.125-.272-.47-.425-.856-.2-.338-.243-.69-.21-.963.005-.226.155-.345.273-.503.135-.303.098-.69.023-.894-.32-.217-.282-.62-.11-.81.488-.552-4.208-4.838-5.127-4.828-.332.004-.136.616.54 1.064 2.386 1.586 4.126 3.656 3.73 3.926-.303.208-1.372-.248-2.46-.505-2.185-.512-4.807-.838-7.652 1.215-1.064.874-3.877 1.005-3.877 1.005-.036-1.533-6.512-18.643-6.524-17.9 2.356-2.746 9.758-9.25 17.176-12.052 2.28-.748 4.73-1.13 6.375-.91zm-28.12 3.83l13.463.208c-3.385 1.705-9.535 7.817-9.535 7.817-1.76-3.54-2.298-5.307-3.93-8.024zm-11.64 1.775c1.003.006 11.69 8.714 13.21 10.77.184.25 1.267 1.39 2.41 2.536 2.763 2.77 3.902 4.373 3.915 5.515.006.54-.487.188-1.225-.625-5.535-6.15-9.137-9.49-15.978-14.204-.777-.415-3.188-3.624-2.37-3.982.01-.004.022-.01.038-.01zm36.556 1.604c-.3-.01-.25.278-.086.544 1.696 1.5 6.173 1.433 7.717.222 1.402-1.1-.435-.52-1.007-.274-1.338.574-2.772.51-4.635.014-1.086-.288-1.686-.496-1.987-.506zm4.13 2.44c-1.565.015-3.202.485-2.837 1.06.133.21.56.603 1.584.048 1.478-.73 4.513.227 4.603.25.31.082-1.01-.87-1.453-1.064-.487-.215-1.185-.3-1.896-.293zm-37.73 1.628c5.744 3.514 12.74 10.545 16.94 15.566.7.865 1.204 1.93 1.21 2.555.01.903-.183.403-3.996-3.462-2.992-3.06-7.507-7.226-10.496-9.47-1.796-1.308-2.116-1.478-2.96-3.03-.794-1.458-1.08-2.18-.697-2.158zm35.782 1.173c-1.08.513-2.513.404-3.907-.076-1.263-.434-.967-.063-.487 1.315.218.627.353 1.515.354 1.646.004.306.004.328.894-.17.777-.434.94-.584 2.597-.2 1.684.393 1.71.248 2.502-.164.69-.36.833-.575 1.304-.385.922.37 1.967.53 3.15-.093.908-.478 1.203-.156 1.624.056.57.286.79.104.567-.464-.088-.227-.254-1.198-.26-1.505-.008-.582-.15-1.107-.396-.984-.906.456-1.64.94-2.504.925-1.584-.03-2.973-.98-5.438.098zm-69.988 1.198c14.314 17.834 11.785 43.542 11.308 43.334l-11.22.05zm37.245 3.605c5.717 4.01 12.52 10.998 16.293 15.83.642.835.12 1.098.44 2.105.118.374-.516-.177-2.332-2.128-2.262-2.43-5.983-6.086-8.433-8.207-2.684-2.324-3.458-2.908-4.03-3.693-.45-.657-2.29-3.815-1.938-3.907zm32.178 1.64c-.06 0-.12.002-.18.005-2.035.096-3.068 2.376-1.324 3.987.656.606 1.697.965 1.694.64-.002-.08-.33-.407-.56-.583-1.45-1.117-1.303-2.857.35-2.876.574-.006.61.198 1.936 1.15 1.56 1.12 3.4 1.12 3.377-.005-.015-.827-.323-1.674-1.716-1.537-.366.036-.854.075-1.282-.033-.41-.104-.76-.354-.922-.426-.485-.215-.95-.315-1.372-.322zm-28.462 5.25c4.374 2.937 10.386 9.578 13.46 13.495.703.918.75 1.933.465 2.48-.067.107-.604-.228-.604-.228-3.553-4.184-7.582-7.987-11.537-11.85 0 0-2.35-3.778-1.784-3.896zm42.406 6.353l-.945.47c-1.432-2.147-2.742-2.176-3.84.33l-.702-.176c-.525-.577 1.885-6.03 5.487-.624zm-.212-1.83c.394.013 1.083.227 1.244.63.18.37-.022.788-.563.77-.08-.003-.604-.645-.865-1.038-.192-.24-.11-.37.185-.362zm-16.066 2.625l-1.057.05c-2.014-2.648-3.52-.87-4.423.233l-1.133-.153c.182-2.907 5.32-3.92 6.614-.13zm10.29-2.26c.16.003.316.033.464.09-.417.632-.488 1.16-.582 1.73-.41.172-.997.527-1.433.072-.81-.736.437-1.913 1.55-1.892zm-16.52.297c.498.002.35-.03.132.248-.22.283-.518.785-.678 1.235-.068.312-.12.425-.413.436-.56.016-1.692-.183-1.684-.175-.43-.407 1.35-1.702 2.643-1.745zm6.397.37c.334-.04.256.436.15.623-.21.25-.295.33-.413.02-.057-.15-.144-.268-.216-.356-.164-.212-.145-.223.06-.26.09-.014.304-.025.42-.027zm17.286 2.113c1.232-.032.408 2.058-1.306 2.564-1.893.96-4.063.73-6.272-.53-1.26-.718-1.642-1.475-.544-1.173 4.136 1.14 5.14.928 7.636-.686.15-.126.307-.157.486-.175zm-39.796-.452c4.118 3.49 7.217 7.44 10.51 11.08.656.813.964 1.595.837 2.125-.158.66-1.51-.913-1.51-.913.035.015-8.037-8.6-8.037-8.6s-2.048-3.673-1.8-3.69zm12.305 1.205c.286.01.854.142 1.77.378 3.96 1.2 5.16 1.157 7.435.112 1.45-.666 2.05-.57 1.43.43-1.143 1.844-5.18 2.048-8.208 1.02-.802-.273-1.508-.75-2.28-1.33-.414-.43-.515-.622-.147-.61zm18.267 1.22c.238-.014.68.258 1.217.563 3.318 1.882 5.767 1.537 7.812.275.37-.338.57-.176.62.15.173 1.147.225 1.97-.3 2.522-.303.32-.82.466-1.602.73-3.213 1.08-7.123.307-7.872-2.103-.243-1.24-.398-2.102.124-2.136zm-26.33 5.17c.012 0 .025-.002.04 0 .23.035.767.504 1.61 1.462 4.418 5.01 6.862 7.888 6.415 9.337-.04 0-.07.312-.255.15-2.43-2.096-4.412-4.39-5.89-6.786-1.618-2.627-2.283-4.13-1.92-4.163zm35.606 3.525c-3.727 2.85-8.248 9.633-8.653 12.974-.078.638-.01 1.117-.246 1.348-.19.184-.61.2-1.174.09-.346-.064-.264-.102-.346-.492-.32-1.53 1.145-5.378 4.177-9.914 1.59-2.38 5.204-5.594 6.213-5.616.674.278.02 1.64.028 1.61zm-27.597-1.547c.264-.008.67.13 1.24.373 3.346 1.435 4.594 1.957 6.76 3.723 4.034 3.29 8.52 11.102 7.203 11.833-.578.32-.988.12-1.223-.607-.043-.132-.466-1.226-.972-2.155-2.705-4.97-6.223-8.39-11.182-10.807-1.83-.893-2.017-.794-2.156-1.542-.105-.56-.007-.808.33-.817zm27.544 2.87c.335-.028.415.584.302 1.815-.093 1.004-.153.983-1.272 2.16-1.788 1.447-3.902 4.847-4.88 8.31 0 .12-.092.384-.26.53-.46.394-1.042.2-1.44.193-.285-.15-.206-.777-.155-1.13.817-3.143 2.83-7.004 5.987-10.396.888-.954 1.42-1.455 1.717-1.48zm-26.848.09c1.772-.04 8.066 4.663 10.614 8.78 1.665 2.69 2.115 3.794 1.73 4.186-.2.206-1.096.24-1.564.055-.426-.167-.59-.815-1.386-2.313-2.08-3.907-5.076-6.74-8.32-8.235-.604-.278-.927-.454-1.122-.67-.217-.448-.496-1.71.048-1.803zm.955 3.496c.55.103 2.073 1.09 3.346 2.024 2.25 1.65 5.673 6.698 4.966 7.42-.227.233-1.013.242-1.417.083-2.41-4.288-5.536-6.33-6.806-7.52-.386-.648-1.286-2.174-.09-2.008zm-5.003.756c.104-.027.526.388 1.29 1.192 2.262 2.374 3.696 5.005 3.364 6.333-.28 1.125-.61.51-3.196-4.426-1.09-2.077-1.61-3.06-1.457-3.098zm30.93.066c.052 1.366-.06 1.702-.204 2.427-.098.492-.424.72-.733 1.105-.768.958-1.642 2.613-2.08 3.95-.37 1.08-.197 1.337-1.524 1.192-.62-.08-.47-.248-.227-.96.835-2.34 2.84-6.13 4.767-7.715zm-25.695 2.573c.028-.7 6.065 5.377 5.236 6.06-.786.138-1.254.167-1.582-.113-.646-1.446-3.52-4.187-3.52-4.187zm25.36 1.916c.013-.002.025-.002.037 0 .27.056.12 3.794-.105 4.102-.43.217-1.244.236-1.68 0-.265-.144-.346-.41-.245-.7.25-.724 1.558-3.312 1.99-3.4zm-22.79 4.11c-.19.298-1.364.35-1.807.016-.142-.108-.28-1.962-.115-2.298.45-.293 2.072 1.884 1.923 2.283z" fill="#131f67"/><path d="M277.704 383.694c-4.694.09-7.02 4.02-7.044 7.953l.003 10.32h-2.802v3.423h2.803s.048 1.566.04 2.503c-.038 4.636 1.6 7.448 4.797 8.226 3.068.557 4.666-.103 7-1.312.848.353 1.442 1.08 2.35 1.172 1.003.1 3.095.054 3.095.054l-.057-3.515-1.046-.153c-1.998-.035-2.866-.733-2.65-1.983.424-.814.486-1.406.526-2.39v-17.452c-.062-4.278-3.558-6.81-7.014-6.848zm-.147 3.4c2.242-.034 4.103 2.575 4.054 5.247l.035 13.483c.074.85-.063 1.677-.436 2.26-.295-.862-4.93-5.597-7.247-5.38 0 0-.095.24-.16-5.684-.03-2.91-.794-7.254 1.82-9.215.653-.48 1.307-.7 1.934-.71zM399.01 398.78l.758.994-4.423.023c.724.61 17.11 33.586 38.063 71.684 3.47 6.685 10.085 9.096 17.766 9.388l-20.35-32.77c2.17-1.18 6.472-4.34 9.075-3.753.16.8.933.48.944-.23l.94.02.332.515h3.954l.324-.466 3.408.49c-9.11-11.23-13.915-28.532-12.354-45.423l-30.21.068-.403-.53zm-3.665 1.017c-.017-.014-.028-.02-.028 0zm-34.732 21.98c-3.435 11.093-11.93 20.218-16.972 29.408-5.406 10.026-6.676 18.752-5.155 28.295l.99.085c11.525-15.723 20.45-34.507 25.447-52.98.108-.402-.078-1.113.014-1.52-.214-.488-.027-1.016.11-1.16.29-.304.18-1.503-.035-3.485-.542-5.886-.435-10.507.056-15.843.38-4.096.358-4.74.358-4.74l-1.973-.03c.365 6.972-.556 15.564-2.837 21.97zm47.447-21.497l3.242.067c.5 9.908 8.845 11.197 10.135 11.052-2.13 6.7 1.397 14.054 9.89 15.097-1.947 6.212 1.5 14.4 8.296 14.178l.72.454c-.44.895-.533 2.735-.507 2.763-1.51.11-2.33.33-3.31.524-8.783-13.242-28.466-44.136-28.466-44.136zm28.815 0c-.982 11.07 1.24 26.27 6.438 35.253 0 0-.166.603-.275.767-.495.747-.74.1-1.04-.5-1.107-2.047-3.2-2.365-4.115-1.226-2.024 2.758.17 3.846 1.873 5.403-6.96-.425-9.28-8.084-7.67-11.873-.037.723.35 1.813.86 2.587 1.956 2.966 4.813.464 3.994-1.883-.338-.97-1.586-2.59-1.586-2.59s1.695-.25 2.387-.67c.648-.4 1.057-1.11.89-2.084-.134-.78-.168-1.122-.586-1.826-.514-.64-1.433-1.084-2.17-1.035-1.437.094-1.61 1.083-2.552 1.76-.233-1.78-1.373-3.135-3.235-2.798-1.416.256-2.437 1.762-1.57 3.648.44.962 1.055 1.255 1.675 2.09-10-1.12-8.91-12.994-7.804-12.782 0 0 .3-.056.212.398-.57 2.906 3.04 4.642 4.62 2.53 1.01-1.712-1.157-4.416-1.157-4.416s1.443-.31 2.098-.687c2.612-1.506-.17-5.832-2.6-4.77-.853.388-1.07 1.18-1.902 1.6-.556-.62-.59-1.296-1.59-1.852-2.74-1.526-4.456 2.086-2.938 3.675.623.644 1.72 1.23 1.506 1.31-8.502-1.074-8.42-9.97-8.225-9.91zm-73.076.074h1.17c-.348 5.278-1.097 12.242-.607 17.39.573 4.916.598 5.613.246 6.1-.484.543-.228.798-.133 1.24.127.808.14.817.024 1.277-1.03 4.126-2.347 8.403-4.02 12.728-5.47 15.084-14.396 31.53-21.396 40.157-.005-.03-.32.028-.325-.003-1.916-12.036 2.177-22.07 4.313-26.186 4.333-8.348 11.137-15.474 15.178-24.22 3.44-7.442 5.976-16.386 5.55-28.484zm43.068-.05l28.512 44.34-5.203 2.548-29.18-46.728zm-85.87 4.64c-10.11.15-15.04 12.868-6.574 18.977 1.52 1.096 1.99 1.736 1.575 2.16-.35.356-.818.19-1.576-.563-6.592-6.47-16.766-2.933-17.715 6.036-1.573 14.865 16.922 18.762 21.663 4.612 1.36-4.057 1.938.338.62 4.654-1.098 3.98-3.008 8.06-5.24 11.46-.375.557-.92 1.268-.92 1.268h16.244s-.516-.693-1.248-1.547c-2.957-4.398-4.558-9.334-5.077-14.487-.12-1.466-.07-2.578.218-2.763.493-.316.776.08 1.302 1.826 1.08 3.594 3.122 6.53 5.4 7.644 5.51 2.286 10.01 1.592 13.775-3.425 8.144-10.853-5.173-24.26-14.69-15.5-.875.797-1.422.884-1.506.227-.04-.318.207-.622 1.397-1.74 8.18-6.498 4.08-17.634-6.12-18.765-.522-.055-1.03-.083-1.53-.075zm-41.1 6.782c.207.416-.553.827-1.366 1.053-2.295.64-4.546-.79-4.618-4.08-.02-1.003-.086-2.075.265-2.233 1.054-.474 5.097 4.007 5.72 5.26zm143.68-2.762c.74 0 1.335.6 1.335 1.34 0 .737-.596 1.337-1.334 1.337-.74 0-1.34-.6-1.34-1.34 0-.737.6-1.338 1.34-1.338zm-146.33 11.704c-4.622.012-7.044 6.302-2.642 10.03.77.654 1.07 1.25 1.017 1.39-.12.324-.238.052-1.178-.61-4.138-2.91-9.107-.303-8.67 3.88.623 5.972 7.346 7.387 9.734 1.863.42-.977.624-1.28.85-1.282.208-.003.236.398.138 1.035-.436 2.602-1.7 5.34-3.117 7.535h7.507c-1.54-2.327-2.178-4.622-2.587-7.492-.03-.756.076-1.255.37-1.258.196-.002.31.27.633 1.547 1.197 4.728 8.503 4.48 9.72-.303 1.363-5.358-3.697-9.17-7.852-5.78-.585.478-1.25.826-1.366.492-.033-.096.34-.795 1.003-1.377 4.24-4.142 1.404-9.683-3.558-9.67zm155.786 3.082c.747 0 1.353.606 1.353 1.353 0 .748-.606 1.354-1.353 1.354s-1.352-.606-1.352-1.353c0-.746.605-1.352 1.352-1.352zm-67.936 2.64c.486 1.933-9.05 30.933-22.602 49.386l5.918.123.182.653c8.29 12.24 3.106 23.067-3.588 28.096l2.318 3.09-2.086 1.688-2.086-2.484c-16.964 12.725-50.068 40.892-50.068 40.892l.185 4.517 2.583-2.035c16.792 16.254 52.4 15.365 61.737-18.187l2.502.057c-5.648 24.592-28.63 34.217-45.976 30.14l-4.063 5.837 1.088.58c-.2-.31-.384-.418-.09-.703l3.454-4.443c25.95 3.324 41.62-11.364 46.705-31.26l3.31.056c-2.84 16.713-10.676 31.428-21.85 42.944-8.062-.033-22.24-.218-22.24-.218 5.163 5 15.023 20.266 15.416 21.814 0 0 10.14.323 21.02.057 3.988-1.793 9.324-2.513 11.816-1.257 4.38 2.207 8.494 10.395 10.345 23.532.476 3.384.91 4.818 1.04 5.5.024.124.32.213.364.19.168-.088-.264.6-.282 1.107-.02.51-.002 1.276.24 1.542.308.338.27.56.228.705-.028.094-.62.642-.62.642-.088 7.653-.045 14.6-.463 24.015l1.504.01c-.01-15.148 4.56-29.163 11.603-38.81 4.282-6.333 8.813-13.157 11.32-19.654 2.82-7.314 3.208-15 1.697-21.484l-1.03.056c-6.196-4.247-8.72-13.31-1.09-19.786l-2.7-3.515c-7.62 5.892-9.37 16.76-1.476 25.756l-3.088-.01c-7.703-9.612-5.997-20.652 2.905-28.53l-1.992-2.53 2.165-1.91 1.953 2.14 49.692-41.52-.036-4.543-3.81 3.088c-22.29-20.607-55.344-6.146-60.19 18.675l-3.03.032c6.353-26.71 29.76-34.26 46.692-30.708l4.18-6.32c-3.075-.865-6.073-2.905-8.902-5.316-1.192-1.016-1.946-1.638-2.812-2.655-8.02-8.475-13.464-20.244-13.72-20.264l-21.806-.055c-3.2 1.582-8.678 3.382-11.684.954-6.455-5.214-8.622-15.73-9.51-22.497-.268-2.107-.496-5.77-.694-6.987-.123-.222-.36-.235-.576-.197zm77.31 11.697c.73 0 1.32.595 1.32 1.324 0 .73-.59 1.32-1.32 1.32-.728 0-1.318-.59-1.318-1.32 0-.73.59-1.325 1.32-1.325zm2.84 1.556c1.075 1.394 2.03 2.83 2.563 4.348-.5-.015-.97.14-1.528-.295-.13-1.533-.76-2.453-1.555-3.475zm-3.988 1.955c.44.216.79 1.88.482 2.166-.53.114-.892.076-1.07-.11-.268-.438.237-1.97.588-2.055zm-86.726 14.464l20.245.023c3.52 2.7 6.964 2.343 11.96.178h22.512l1.272 2.31h-57.087c.318-.857 1.097-2.51 1.097-2.51zm-1.67 3.608h58.26l1.472 2.37h-61.174zm5.625 3.444h6.536l-2.422 4.11h-6.745zm14.51 0h6.24l-2.777 4.105h-6.182zm20.18 0l-2.626 4.105h-6.343l2.725-4.067zm7.822 0h6.25l-2.338 4.105h-6.47zm-83.928.638c-4.05-.046-3.3 5.327-2.92 5.16-2.542-.583-4.42.625-4.734 2.79-.25 1.72 1.43 4.172 4.37 3.83-.39.45.008 3.05.4 3.287 0 0 .05.377-1.502 3.612-1.84 3.84-2.217 4.02-3.05 1.5-.9-2.714-2.286-4.09-5.9-5.843-.962-.467-2.324-1.282-3.027-1.81-1.612-1.217-1.63-1.198-1.555 1.27.1 3.207 1.07 4.612 4.493 6.505 1.676.926 4.883 2.234 5.464 2.228.408-.005 1.91.668 4.134 1.854.434.23 1.922 1.05 3.826 1.234 2.022.143 6.575-.334 9.215-1.86 1.48-.854 2.052-1.62 3.145-3.806 0 0-3.74.193-5.45-.256-3.55-.208-5.315-.002-8.007 1.396-2.252 1.17-2.378 1.378-1.438-.554.43-.887.83-1.93 1.192-2.97.39-1.034.495-1.12 1.48-1.22 2.16-.22 3.39-1.467 3.59-3.63.053-.578-.033-1.19-.033-1.19 1.47.217 4.48-.51 4.386-3.558-.085-2.738-2.037-3.368-4.44-3.556.308-1.403-.716-4.38-3.64-4.414zm.05.85c3.548.025 3.466 3.283 1.92 5.132l-1.89-1.554-1.522 1.406c-1.658-1.06-1.65-5.006 1.49-4.984zm97.123.04l1.745 2.577h-3.604zm-66.273 3.703h6.683l-2.682 3.77h-6.32s1.415-2.407 2.32-3.77zm21.067 0l-2.524 3.917h-5.842l2.34-3.836zm7.83 0h6.04l-2.39 4.177h-5.968zm14.214 0h6.115l-2.49 4.177h-6.03zm13.854 0h6.3l-2.6 4.177h-6.075zm-87.728.776l3.003 3.026-2.928 2.933-3.018-2.887zm7.615 2.948c-.532 3.516-3.92 3.325-4.883 1.605l1.38-1.575-1.692-1.662c1.643-2.636 5.597-1.025 5.195 1.632zm-10.085-1.683l-1.624 1.83 1.782 1.71c-1.148 1.596-5.56 1.47-4.675-2.37.562-2.436 3.042-2.884 4.517-1.17zm102.95-.448l1.86 2.554-3.487.03zm-72.493 3.136l74.74.24 2 2.447c-26.095.45-51.647-.42-78.305-.44zm-26.277 1.59c2.962 1.816.775 5.644-2.404 4.993-2.37-1.04-2.854-3.497-.723-4.924l1.67 1.376zm25.63 1.466l-2.04.008-1.986 2.323c7.51 7.912 7.234 14.774.236 20.756l2.815 3.15c7.85-6.714 9.588-17.264.974-26.237zm7.714.302c4.21 6.577 7.85 19.035-4.692 30.447l-1.514-1.836c10.92-10.666 8.354-19.634 3.463-28.532zm1.168.16l16.972.067c-3.633 13.844-6.183 21.997-6.566 43.657l-4.905.028c.534-.5-2.54-13.078-6.125-17.44 7.52-12.767 3.467-19.968.624-26.313zm-53.383.02c.292-.003.893.377 2.07 1.083 1.057.633 2.43 1.434 3.052 1.783 2.33 1.306 3.49 2.54 4.153 4.422.496 1.41.187 1.437-1.24.11-1.06-.99-2.19-1.84-5.018-3.775-.996-.682-1.31-.57-.733.26.416.598 1.312 1.278 3.126 2.384 1.316.8 3.127 2.406 2.985 2.643-.13.215-.355.196-.99-.08-.292-.13-1.238-.517-2.1-.866-3.695-1.5-5.274-3.342-5.495-6.405-.077-1.066-.143-1.558.19-1.56zm77.45.066s.51.674.576.955c.142.608-.454 1.165-2.332 2-.645.288-1.18.443-1.164.82.086.882 1.778 2.23 1.57 3.433-.388.92-2.737 1.824-3.324 2.91.004.746 1.527 1.888 1.31 2.903-.12.302-.61.612-1.34 1.243-1.49 1.294-1.582 1.49-1.035 2.498 1.27 2.34 1.318 2.167-.415 3.827-1.747 1.674-1.714 1.653-.88 3.108.9 1.568.858 1.498-.35 2.502-1.184.985-1.136 1.185-.5 2.408.612 1.182.752 1.2-.28 2.114-1.207 1.068-1.433 1.18-.582 2.525.88 1.39.945 1.332-.047 2.47-.94 1.076-1.05 1.126-.54 1.858.64.92.76 1.164.09 2.176-.725 1.092-.72 1.015-.056 2.033.56.857.463 1.81.463 1.81l-2.1-.003s-.015-1.207-.26-1.65c-.595-1.077-.58-1.41.127-2.366.726-.98.605-1.064-.07-2.043-.684-.99-.586-.98.302-2.11.815-1.034.856-1.522.393-2.113-1.1-1.402-1.096-1.992.01-2.92.842-.706.92-1.02.193-2.23-.712-1.186-.802-1.294.506-2.475 1.337-1.207 1.323-1.182.426-2.55-.87-1.327-.823-1.415.572-2.71 1.413-1.31 1.43-1.313.506-2.966-.865-1.547-.872-1.52.82-3.027 1.682-1.404 2.256-1.582.576-3.596-.936-1.597-.27-1.754 1.267-2.55 2.698-1.646 1.47-1.544.337-3.987-.946-1.638-.406-1.65 1.244-2.47.41-.175.865-.378 1.33-.637 1.104-.616.507-1.178.507-1.178zm3.523.037l8.102.104c-9.39 11.992-13.91 27.33-15.533 43.51l-3.06-.046c-.192-12.637 3.783-28.424 10.49-43.57zm41.604.282c4.634 3.9 8.07 6.134 10.512 7.014 0 0-3.27 5.424-3.52 5.226-18.798-3.62-41.152 7.34-46.21 30.968l-2.96.018c1.094-9.27 3.534-17.015 8.027-25.092 4.46-7.844 8.566-12.427 14.76-18.203zm-32.338-.2l3.99.07s.75.9 1.09 1.225c1.722 1.954 1.87 1.565-1.926 3.708-2.398 1.354-3.46 1.983-3.6 2.55-.107.57 1.047 1.705 1.183 2.47 0 .085-3.26 2.268-3.85 2.577-.823.4-.865.742-.048 2.16.938 1.633.863 1.576-1.164 2.99-1.978 1.38-2.366 1.244-1.523 2.616 1.17 1.907.62 2.337-2.134 3.822-.696.375-.713.752-.228 2.053.675 1.81.85 1.627-.572 2.606-1.68 1.157-1.976 1.19-1.604 1.897 1.082 2.06 1.51 2.56.067 3.232-1.102.512-1.125.803-.516 2.16.612 1.367.77 1.313-.317 2.083-1.008.713-1.6.554-.62 1.72.777.924.707 1.653.076 2.22-.543.23-.797 1.264-.638 1.286l-1.4.04c-1.097-1.48.197-2.325.392-2.47.178-.34-.04-.58-.482-1.38-.61-1.103-.588-1.235.288-1.88.885-.65.912-.48.322-1.92-.686-1.672-.654-1.863.426-2.64 1.062-.762 1.077-.932.354-2.397-.762-1.545-.762-1.546 1.126-2.8 1.328-.882 1.347-.83.643-2.464-.485-1.13-.142-1.522 1.665-2.76 1.033-.706 1.11-.846.625-1.688-1.34-2.32-1.326-2.39.984-3.888 1.89-1.224 1.874-1.33 1.145-2.96-.79-1.768-.86-1.63 1.73-3.184 2.135-1.28 2.25-1.204 1.373-2.743-1.092-1.915-1.022-1.6 3.245-4.04 1.538-1.054 2.926-.69 1.395-2.483-.673-.86-1.5-1.788-1.5-1.788zm-75.36 3.15c.295-.012.526.352.51 1.025-.052.95-.5 1.89-.93 2.834-.904 1.92-1.803 3.343-2.276 3.35-1.116.01-1.086-.24.397-3.137.678-1.325 1.376-2.835 1.486-3.128.238-.634.553-.937.814-.946zm13.717 4.35c.02 4.07-12.74 6.12-13.404 4.066 2.225-1.742 8.802-.97 10.195-2.526-1.68-.097-3.956.18-5.515.207-1.945.035-5.088.866-5.12 1.21-.203-1.07 3.34-3.08 6.148-3.207 2.625-.114 5.476.197 7.697.25zm1.092 6.21s-24.884 20.59-37.184 30.553l.076 4.44 39.364-32.225zm-.08 1.018l1.588 1.93-36.95 30.107-.133-3.155zm116.797 10.564l-1.328 1.417c-36.092-26.853-69.326 13.92-51 43.086-.166.375-1.44 1.307-1.44 1.307-20.426-33.86 18.656-73.48 53.767-45.81zm-19.86-5.882c2.05.016 5.82 1.422 7.412 3.34 1.853 2.23 1.314 3.226-1.042 1.12-2.532-1.84-4.623-2.266-1.107-.094.777.48 1.475 1.414 1.51 1.518.13.373-.52-.018-3.467-1.092-1.752-.64-3.973-2.367-4.55-3.543-.432-.88.17-1.257 1.244-1.25zm-7.597.06c.64-.004 1.21.046 1.613.162 2.582.74 3.395 1.13 4.357 1.878.658.512.447.88-.317.554-.89-.382-3.71-1.22-4.215-1.17-.733.077.002.556 1.055.82 2.333.583 3.49 1.185 1.826 1.21-.87.13-4.67.14-5.706.02-1.73-.205-4.32-1.782-3.722-2.347.643-.61 3.19-1.11 5.108-1.126zm-7.402 2.428c3.06.036 4.717 1.18 1.372 1.41-5.752.91-6.857 2.16-.483.67 1.483-.345 1.456.19.43.692-.838.407-1.885.608-2.757 1.03-1.572.655-5.174.8-6.58.266-2.073-.79 4.436-4.11 8.018-4.068zm24.63.52c1.546.04 4.845 2.282 6.314 4.385.96 1.376.482 2.363-.97 1.26-.29-.22-2.375-1.993-2.488-2.035-.195-.07 1.73 1.756 2.01 2.27.242.437.797 1.437-.24 1.458-1.623-.2-5.43-4.455-5.455-6.556-.007-.562.312-.794.827-.78zm-19.19 1.197c.644-.02.315.32-.91 1.182-2.206 1.555-1.055 1.243 1.524-.085.784-.403 1.73-.72 2.063-.78.332-.06.727-.152.88-.2.693-.212.158.644-.97 1.548-2.374 1.903-5.055 3.397-6.906 3.855-2.36.584-2.86.66-1.988-.814 1.386-2.34 3.404-4.21 5.33-4.575.434-.08.76-.125.975-.132zm7.936.038c.983-.02 2.197.185 4.11.597 1.346.42.993.51-.62.686-3.03.33-1.77.685 1.18.633 4.02-.03-2.016 1.45-3.974 1.746-1.528.068-1.976.014-5.307-.61-1.27-.238-.51-1.168 1.896-2.318.982-.47 1.732-.714 2.714-.733zm24.857.545l.11 2.592-48.696 40.716-1.656-1.83zm-16.57 2.228c1.943-.026 4.75 1.32 4.448 2.133-.113.303-.33.29-1.812-.104-.973-.26-2.715-.532-2.483-.317.08.074 1.44.594 1.958.72 1.716.41 3.77 1.38 3.317 1.67-.795.482-1.523.104-2.465.003-2.354-.327-6.222-1.516-6.858-2.11-.722-.673 1.808-1.968 3.897-1.995zm-22.712.15c.35.02.48.345.146.79-.507.67-.74 1.232-1.196 2.054-1.628 2.514-2.655 3.51-4.22 4.484-1.564.975-1.788.808-1.65-1.22.175-2.105 1.682-4.32 3.812-5.36.983-.138 1.547-.397.516.84-1.83 2.19-.578 1.967 1.13-.522.543-.79 1.112-1.082 1.462-1.064zm-6.324.294c1.055-.005 1.41.37.056 1.003-1.287.604-3.85 2.395-3.91 2.592-.108.334.85-.19 2.444-1.06 2.13-1.162 2.316-1.135 1.287.195-1.164 1.502-3.964 3.385-6.163 4.082-3.075.84-3 .252-1.28-2.03 1.637-2.482 3.028-3.666 5.126-4.343.92-.297 1.807-.437 2.44-.44zm-52.163.38c11.16 19.243 4.965 38.796-7.982 48.768-13.535 10.425-34.592 9.807-47.02-2.705l1.725-1.628c-.008.008 19.59 19.966 44.27 2.25 12.526-8.99 17.7-30.22 7.366-45.02zm-49.987.04c-.036.002-.064.007-.085.02-.376.244-1.792 4.4-2.076 6.126-.084.504.04 1 .454 1.404.29.285.762.1.908.043.944-.427 1.464-1.08 2.29-3.155.553-1.135.63-2.492.52-2.966-.045-.193-.35-.64-.734-.895-.424-.28-1.023-.578-1.277-.577zm.218.867c.447-.004 1.33.722 1.44 1.24.007.9-.51 2.403-.895 2.18-.645-.8-1.386-.296-1.51-.587-.082-.888.488-2.05.88-2.824.026-.007.056-.01.086-.01zm120.523.72c4.962 0 9.896 1.453 13.518 4.663l-1.933 1.773c-8.497-6.057-18.39-4.284-24.25-.198-5.805 4.044-10.94 12.998-5.91 25.608l-1.816 1.646c-5.636-10.143-2.61-23.547 7.366-29.89 3.518-2.235 8.025-3.515 12.544-3.598.16-.003.323-.005.483-.005zm-73.378 1.48c.15 0 .38.492.355 1.097-.03.726-.336 1.673-.828 1.874-.553.226-.903-1.424-.903-1.424.34-.538.803-1.086 1.375-1.547zm88.84.567c.203-.01.4 0 .568.02.554.07.56.564.038 1.04-.562.515-.855.542-1.423.128-.507-.37-.533-.64-.095-.955.23-.146.576-.215.913-.232zm-95.3.114l1.645 2.03-5.704 4.588-.68.052-43.67 36.16-.01-3.21zm91.24 4.897l-5.948 4.908c-11.887-6.176-21.42 4.83-18.056 14.825l-5.142 4.464c-9.2-25.246 17.704-33.885 29.146-24.196zm-31.14-3.855c.018-.003.034-.004.05 0 .04.01.08.038.12.076.208.204-.207 3.55-.516 4.173-.114.226-.2.517-.2.648.003.275-1.095 2.572-1.953 4.087-.324.57-.67 1.32-.767 1.67-.69 3.314-2.175-2.015-1.65-5.108.246-1.455 2.31-4.457 2.91-4.235.304.113.282.343-.252 1.504-1.49 3.24-1.864 4.912-.298 1.778 1.805-3.613 2.275-4.542 2.554-4.593zm-101.03.066c.22.014.396.136.492.394.066.22.137.676.014.9-.304.685-.935 1.137-1.574 1.096-.28-.018-.586-.265-.624-.568-.035-.274.032-.74.378-1.092.455-.465.947-.75 1.315-.73zm45.276.21c.705.034 1.448 1.93.975 2.795-.386.708-.458.576-1.135-.795-.356-.72-.63-1.494-.63-1.494l.578-.455c.047-.024.1-.04.147-.046.022-.003.043-.006.066-.005zm-1.186.8s.74 1.34.922 2.41c.11.654.093.532-.624.26-.565-.352-.69-.556-1.04-.997-.232-.408-.464-.71-.464-.71zm4.456.287c.374-.012.776.366 1.144 1.292 1.383 3.475 1.255 7.376-.298 9.217-.257.306-.32.32-.63.128-.25-.155-.276-1.807-.032-2.275.076-.147.304-1.144.322-1.708.04-1.335-.326-1.502-.502-.264-.203 1.43-.423 2.43-.813 1.57-.195-.437-.295-.873-.444-1.34-.777-3.004.13-6.582 1.254-6.62zm-6.022.89s1.33 1.717 1.878 2.33c.193.333.186.418-.123.536-.527.2-2.287-.97-2.985-1.334-.376-.3-.213-.53-.213-.53.482-.363.962-.72 1.443-1.003zm52.466.06c.71-.007.71.24-.047 1.33-4.23 6.087-3.377 5.183-.686 1.854 1.497-1.85 1.757-2.026 1.92-1.612.124.31-1.656 3.912-2.577 5.218-.475.674-2.1 1.802-2.923 2.218-2.012 1.02-1.79.61-1.045-1.916.948-3.917 3.33-7.067 5.36-7.09zm-54.95 2.106c11.6 28.842-20.16 41.502-34.49 28.163l1.67-1.33c19.933 13.52 39.607-8.14 30.602-25.088 0 0 .817-.678 2.22-1.745zm2.688.7c1.91.196 4.73 3.688 4.872 5.633.3 1.382-.09 1.62-.767.648-1.143-2.112-1.006-.773-.033 1.325.517 1.06.637 2.33.1 2.397-.735-.15-2.324-2.683-2.81-3.727-1.16-2.29-1.243-1.9-1.878-5.293-.12-.636.047-.98.516-.984zm-5.77.946c8.834 16.942-10.172 37.3-29.502 24.14l5.794-4.596c10.09 4.84 21.345-1.163 18.12-15.075zm88.135 3.158l-15.938 13.28c-3.28-11.007 8.762-17.295 15.937-13.28zm-29.602-.028c.52-.108.963 3.226 1.06 7.904.094 4.577.21 5.03-1.21 3.344-.597-.686-1.33-1.342-1.657-1.958-.944-1.786-.644-3.657-.383-6.272.244-2.44 1.117-2.058.975.497-.092 1.644-.074 3.687.184 3.684.094-.002.12-.16.062-.384-.123-.467.44-5.765.67-6.39.1-.27.203-.406.3-.426zm-43.923 2.015c1.15.45 1.48 4.293.232 8.008-.536 1.597-1.36 2.64-2.588 3.283-.876.46-1.08.314-.685-.487.728-1.307 1.116-2.66 1.41-4.343.118-1.644-.75-.324-.676.378-.68 3.066-1.573 3.528-1.457.298.085-2.38.397-3.402 1.518-5.038.564-.82 1.167-1.946 2.247-2.1zm39.974.388c.473.004.59.64.165 1.878-.293.86-1.294 3.64-1.176 3.63.073-.007 1.147-2.507 1.366-2.915.36-.67.494-.796.81-.766.307 1.233-.01 2.775-.162 4.053-.65 3.33-2.92 6.77-3.788 5.747-1.416-1.668-.753-8.424 1.125-10.477.708-.774 1.292-1.153 1.66-1.15zm-60.7.51c1.71 11.783-8.01 16.813-16.41 13.26.178-.045 16.41-13.26 16.41-13.26zm39.74.22l1.694 2.222 3.103.16-1.59 2.342 1.58 3-3.462.065-1.99 2.29-1.73-2.068-3.03-.16 1.766-2.815-1.424-2.692 3.27-.156zm-26.038 1.01c.39.014 2.303 2.53 2.493 3.458.58 2.25.365 6.505-.444 6.36-.878-3.066-.536-4.648-.85-4.296-.547.564.337 5.26.046 6.418-.14.296-.608-.06-1.135-.818-1.408-2.024-1.22-9.943-.142-11.11.01-.006.02-.01.033-.01zm103.62 4.775l-38.293 31.723 2.21 2.844 36.154-29.85zm-55.307.547c.168-.034.55.234 1.268 1.022 1.254 1.692 2.582 4.016 3.065 5.804.184.696.48 1.618.658 2.05.27.646.292.825.133 1.02-.663.818-3.437-1.24-4.332-3.21-1.256-2.77-1.288-5.264-.028-2.835.46.884 1.028 2.172 1.022 1.66-.002-.145-.558-2-.984-2.828-.264-.52-1.227-2.595-.8-2.682zm54.902.77l.08 2.626-35.664 29.83-1.4-1.704s33.593-27.94 36.984-30.75zm-55.682 1.624c.168.015.254.255.204.788-.164 1.734-.59 5.51-.502 5.842.054.2.564-2.5.68-2.98.61-2.502 1.542 3.48.98 6.16-.088.42-.266 1.1-.36 1.517-.092.417-.39 1.13-.51 1.32-1.01 1.59-3.384-4.738-2.985-7.96.25-2.008 1.894-4.75 2.493-4.688zm-41.26 1.384c.467-.025.556.433.478 1.396-.27 3.3-2.464 6.765-4.868 7.686-2.393.918-2.616.733-1.196-.98 1.076-1.297 1.728-2.66 1.546-2.837-.1-.1-.34.446-1.21 1.565-1.093 1.402-1.273.215-.28-1.845.86-1.78 1.66-2.71 3.274-3.798 1.138-.768 1.844-1.166 2.256-1.188zm21.687 1.003c-.482 14.21-4.025 29.647-10.865 43.067l-6.39.015c7.825-11.527 12.82-25.798 14.21-43.02zm2.81.014s.958.996 1.348 1.666c.43.74.55 1.386-.232 1.94-.907.766-1.285.48.194 2.384.78 1.002.526 1.166-.44 2.01-.997.87-1.054.918-.127 2.095.99 1.26 1.17 1.454-.123 2.427-1.166.876-1.18 1.082-.27 2.507.838 1.31 1.092 1.298-.516 2.657-1.372 1.16-1.404.84-.08 2.975.488.786.455.837-.44 1.627-2.194 1.942-2.08 1.82-1.768 2.33 2.406 3.45 1.318 3.35-1.036 4.996-.475.407-.352.865.71 2.588.902 1.464.77 1.78-1.344 3.235-2.202 1.514-2.274 1.718-1.173 3.263 1.084 1.522 1.108 1.418-.653 2.99-.796.708-1.448 1.36-1.448 1.36h-3.903s.824-.75 1.386-1.167c3.204-2.372 3.19-2.12 1.84-3.83-1.196-1.515-1.08-1.614.132-2.48.872-.623 2.047-1.264 2.928-1.9.475-.34.124-.62-.667-2.116-.886-1.675-.934-1.48.714-2.838 1.805-1.485 1.835-1.43.856-3.31-.98-1.888-.997-1.724.242-2.735 1.84-1.503 1.93-1.422.96-3.164-.773-1.39-.78-1.35.525-2.654 1.317-1.316 1.153-1.233.374-2.437-.792-1.223-.75-1.388.293-2.317 1.125-1 .966-.94.033-2.22-.92-1.26-.905-1.164.213-2.142.587-.513 1.178-1.035 1.145-1.277-.086-.622-.68-1.505-1.253-2.355-.218-.324.22-.424.918-1.15.71-.738.68-.553.142-1.532-.29-.53-.842-1.424-.842-1.424zm-10.458.034l1.11.03s.19.25.45.514c.714.73.745 1.156.028 1.547-.688.375-.424.9.15 1.746.612.897.606.794-.268 1.675-.903.734-1.37.942-.374 2.332.566.644.496 1.31-.383 1.887-.675.444-1.798.813-.615 2.502.577 1.205.623 1.128-.582 1.982-1.602 1.138-1.904.94-1.168 2.597.818 1.844.9 1.87-.78 3.108-1.953 1.436-2.02 1.553-1.207 3.273.82 1.735.842 1.295-1.224 2.904-1.513 1.18-1.858 1.244-1.41 2.22.84 1.825 1.197 2.315-1.253 3.57-2.828 1.45-2.97 1.557-1.613 3.713 1.105 1.754.86 1.504-.965 2.554-2.637 1.518-3.8 2.178-3.883 2.65-.054.532 2.058 2.118 2.058 2.118l-3.68.1s-1.548-1.256-2.148-1.84c-1.664-1.62-1.682-1.09 3.85-3.775 3.054-1.482 2.798-1.146 2.3-2.01-1.473-2.554-1.524-2.82 1.238-4.21 2.4-1.21 1.99-1.295 1.405-3.122-.508-1.592-.427-1.446.838-2.384 3.057-2.268 2.974-2.033 2.497-3.146-.47-1.094-.83-1.603-.478-2.142 1.102-1.58 3.446-1.916 2.488-3.798-.447-1.214-.606-1.486.743-2.536 1.217-1.013 1.224-.89.445-2.228-.95-1.227-.812-1.43.577-2.393.99-.904.976-.88.42-1.763-.765-1.218-.728-1.255.365-2.214.89-.78 1.045-.823.478-1.684-.754-1.143-.63-1.394.364-1.954.61-.344.605-.484.553-1.065-.01-.11-.326-.756-.326-.756zm13.8.067l5.124.015c1.636 9.498 4.492 13.396 6.144 16.404-6.477 10.397-5.004 19.034-1.05 26.676l-16.224-.06c4.16-14.23 6.304-28.547 6.007-43.035zm-35.162.04c.188-.015.32.29.638.83 1.027 1.75.3 4.232-1.2 6.83-1.125 1.946-1.33.46-.815-2.34.325-1.766-.564.88-.987 3.013-.23 1.156-.784 2.09-1.386 2.034-.567-.092-.392-1.713-.374-2.072.13-2.553 1.08-4.36 2.928-6.896.7-.96.984-1.386 1.198-1.4zm52.295 4.994c.244-.012.584.09 1.003.33.327.188.913.543 1.32.767 1.42.783 1.536 1.02.86 1.808-.834.972-1.37.602-2.814-1.017-.974-1.09-.99-1.858-.37-1.886zm-.473 2.137c.23.007.703.254 1.164.782.936 1.07.823 1.976-.213 1.717-.422-.62-.64-1.56-1.044-2.257-.092-.158-.043-.245.094-.242zm45.76.14c-.908 0-2.427 1.198-2.716 2.416-.882 3.716-.88 3.555-.09 4.096.232.16.406.275.52.345.464.366 1.095.93 1.178.82.753.003 1.897-4.758 1.86-5.74.046-1.035.083-1.16-.176-1.63-.118-.215-.323-.31-.577-.308zm-46.455.08c.06-.012.136.02.227.094.595.59.834 1.65 1.135 2.407.002.166-.067.435-.15.597-.515.986-1.314.03-1.396-1.67-.046-.955.004-1.393.185-1.428zm46.312.732c.04-.002.078 0 .113 0 .61.028.515.657-.33 1.57-.445.48-1.363.708-1.666.412-.44-.43.47-1.616 1.462-1.9.16-.048.3-.075.42-.082zm-102.893.52c.034 0 .066-.002.1 0 .318.02.585.164.794.407.406.5.235 1.277.043 1.924-.48 1.7-3.663 4.987-4.805 5-.68-.118 2.162-3.73 2.25-4.337-.21-.207-1.972 1.827-2.8 3.24-.373.64-.8 1.428-1.025 1.565-.594.07-1.278.447-1.282.048.098-1.804 3.63-5.736 4.834-6.83.74-.696 1.378-1.008 1.892-1.017zm8.52.17c2.728-.03-2.645 5.942-6.122 6.803-1.083.268-3.08.338-3.22.113-.143-.225.017-.408.463-.525.717-.19 4.27-2.45 4.266-2.715-.003-.334-1.47.22-2.723 1.03-.812.526-1.193.418-.752-.216 2.04-2.935 4.77-4.452 8.088-4.49zm47.238.01c.155.013.31.32.407 1.008.495 1.28.518 1.63.05 2.005-.8.644-.997.464-.988-1.017.008-1.22.272-2.017.53-1.996zm-89.904 1.698s.996.374.582.847c-.288.33-1.513.05-1.514-.047zm137.1.038c.325-.02.333.28.16 1.036-.09.398-.482 2.49-1.177 3.07-.083.055-1.09-.546-1.365-.823-.126-.127-.52-.42-.573-.614-.172-.632.012-1.454.492-1.864.188-.16.564-.248.766-.25.16-.002.63-.156 1.046-.34.29-.13.505-.204.652-.214zm-136.75 1.443c.655-.004 1.46.066 2.143.3 2.013.584 5.705 2.238 6.273 2.78.827.79-1.332 1.632-3.926 1.66-1.376.016-1.635-.27-3.538-1.41-.246-.16-1.355-.888-1.033-1.153.353-.36 1.416.103 2.74.775.43.22 1.482.157 1.48-.037-.003-.23-2.646-1.21-4.626-1.84-1.3-.413-1.27-.83-.472-1.008.228-.034.567-.063.96-.066zm-2.602.904s.548.485 1.258 1.017c.77.58 1.667 1.29 2.29 2.24.9 1.097 2.325 3.832 2.166 4.327-.364 1.135-4.17-.857-7.28-3.97-1.01-1.01-1.603-1.763-1.603-1.763l1.187-1.074s1.043.872 2.247 1.935c2.26 1.993 2.245 1.308-.027-.79-.643-.594-1.235-1.126-1.235-1.126.03-.382.39-.718.998-.796zm92.932.095s1.214 1.26 1.665 1.84c-7.403 7.236-10.23 17.347-3.084 28.114l-3.43-.014c-6.424-12.64-3.378-22.156 4.848-29.94zm-62.612.297c.46-.02.04.52-.776 1.91-1.525 2.596-1.827 3.252-4.304 3.898-.638.165-1.547.034-1.92.08-1.066.134-.592 0 1.04-1.06 2.26-1.465.34-.71-1.75.366-1.21.624-2.48.593-2.592.27-.06-.178.49-.646.847-.965 3.185-2.847 4.16-2.727 7.124-3.755 1.293-.45 2.017-.73 2.332-.743zm-13.31 2.597c1.152.007 2.227.122 3.183.336.632.142 1.663.27.794 1.054-.985.926-3.643 2.19-5.61 2.276-.277.01-4.327-.276-3.463-1.145.174-.096.724-.07 1.198-.16 2.244-.426 1.637-.787-1.126-.64-3.46.185-3.618-.173-.998-.89 1.916-.523 3.8-.792 5.525-.826.167-.005.33-.007.496-.006zm18.485.265c1.54-.017 2.737.258 2.744.845.01.952-2.906 3.04-4.82 3.453-.45.098-1.09.237-1.424.312-.667.15-4.365.022-4.725-.108-1.73-.63-.527-.876 2.65-1.244 1.38-.16 2.04-.523 2.038-.786-.002-.127-1.02-.163-2.536.03-1.693.213-1.36-.285.748-1.378 1.392-.72 3.58-1.108 5.326-1.125zm-28.498 1.318c.215.006.735.184 1.6.544 1.843.537 4.376 1.144 6.11 3.037 1.4 1.355 1.742 1.793 1.447 2.27-.357.577-4.704.138-6.533-.644-1.208-.516-2.648-1.624-3.306-2.582-1.593-2.322-.922-2.933 1.103-1.31 2.44 1.954 2.802 2.155 3.235 2.066.175-.036-.255-.437-1.073-1.045-2.056-1.527-3.057-2.35-2.583-2.337zm15.037 2.493c2.043.004 2.484.157 4.47 1.065 2.482.876 1.88 1.655-2.527 2.753-2.207.518-4.428.155-6.04-.837-3.553-2.185-3.318-2.622.648-1.645 1.304.32 2.602.38 2.683.137.06-.187-1.515-.588-2.796-1.012-1.387-.46-.195-.42 2.578-.45.367-.003.692-.01.984-.01zm102.212 9.444s-.454.215-.654.325c-.158.086-1.386.24-2.73.34-2.648.196-4.43.62-6.036 1.267-2.426.975-4.048 3.982-4.048 3.982 1.813-.124 12.077 1.732 14.925-1.966.595-.774-1.532 5.844-2.623 6.137-2.705-.323-3.843 3.92-3.572 3.742-2.73 1.057-4.845 1.678-4.15 4.845.3 1.38 1.7 3.02 4.666 2.608-.806 5.492 5.913 6.912 6.654.293 0 0 1.31-.25 1.814-.31 3.064-.725 3.806-5.2-.69-6.622-1.248-.37-1.318-.603-1.318-.603.232-1.01.177-2.07-.554-3.248.992-2.364 3.46-6.922 3.46-6.922zm.475 1.366c.618.826-2.606 2.192-6.04 2.487-.77.066-2.462.222-2.506.298-.37.648 6.64.177 8.823-1.045.748-.42.815-.05.49.595-2.535 3.26-8.653 2.456-13.436 1.883-.273-.274-.04-.61 1.03-1.48 1.966-1.595 3.382-2.127 6.486-2.445.866-.028 4.764-.762 5.154-.293zm3.79 3.372c-.44 1.402-2.743 5.68-2.743 5.68-.283.283-1.292.483-1.216-.6.012-1.163 2.19-5.953 2.777-6.045.7-.054 1.218.462 1.182.965zm1.46.326c.675 4.91 4.402 6.077 7.977 7.625.94.43 1.738 1.198 2.682 1.693 1.766-2.41-.224-7.088-3.335-8.613-2.31-1.08-4.416-1.937-5.718-1.84-.753.056-1.594.54-1.604 1.135zm1.913-.293c.4-.005.972.112 3.06.667 3.15.838 5.375 3.163 5.955 6.225.024.124.185 2.497-.358 2.412-.82-.237-1.263-1.063-2.58-1.614-1.643-.688-3.95-1.59-5.363-2.876-1.143-1.038-1.767-2.155-1.906-3.112-.14-.994.19-1.095 1.026-.294 1.87 1.488 3.714 1.997 5.563 3.434.513.4 2.357 1.422 1.098.15-.853-.863-3.364-2.366-4.698-3.006-1.854-.89-2.86-1.975-1.797-1.987zm-141.95 4.9l21.13 33.03c-5.2 2.743-7.764 3.944-16.4 3.27l.034.434-3.67-.215c6.34 9.893 14.16 22.798 11.94 45.313l25.74-.027s.4.383.44.41c.376.253.94-.447.94-.447l11.61-.062.315.375 5.413-.038s-24.754-46.318-37.186-69.318c-5.108-9.227-10.427-13.326-20.306-12.725zm133.237 1.093c1.387-.034 2.767.92 2.776 2.772.005.965-.81 2.31-.81 2.31l-1.884-1.796-1.803 1.803c-.887-.733-1.413-2.13-1.123-2.924.555-1.358 1.764-2.14 2.843-2.165zm-21.853.657c1.788 6.97 3.72 16.58-11.787 38.787-9.172 13.135-12.173 25.527-12.54 40.65l-.927.005c.438-8.3.497-23.348.497-23.348l.866-.772s-.395-.64-.568-1.39c-.292-1.266-.046-.844.71-4.243 3.17-16.416 23.75-49.69 23.75-49.69zm-82.804 3.198l78.59.36-1.046 2.062-76.05-.544zm104.756.596l2.92 2.842-2.854 3.202-3.003-3.14zm-2.393 1.207l-1.593 1.693 1.38 1.452c-1.42 2.982-5.2.655-5.075-1.577.148-2.61 3.2-3.68 5.288-1.568zm5.043 3.365l1.268-1.612-1.433-1.57c2.348-2.318 4.567-.277 4.78 1.656.23 2.06-2.984 4.388-4.614 1.526zm-93.08-1.972l6.44.062-2.395 4.48-6.526-.03zm14.343.033h5.91l-2.496 4.54H348.3zm13.962 0h6.272l-2.545 4.54h-6.443zm14.04 0h6.417l-2.337 4.54h-6.66zm14.297 0h6.186l-2.507 4.54h-6.367zm-68.32.024h4.156l-1.698 2.99zm103.67 2.865c2.38 1.91.726 5.05-1.753 5.104-1.707.04-4.186-2.85-1.504-5.203l1.786 1.632zm-87.457 2.414h6.045l-2.275 4.087h-5.922zm13.438.033h6.633l-2.337 4.086h-6.31zm14.2 0h6.6l-2.153 4.086h-6.664zm14.15 0h6.545l-2.04 4.086h-6.92zm-53.99.155h4.172l-1.78 3.273zm3.145 4.74l61.26.544-1.042 1.985-58.662.01zm2.152 3.557l57.404.142-1.318 2.748-19.834-.09c-3.87-2.89-8.293-1.554-13.338.09 0 0-15.183.158-21.153 0zm80.558 7.014c3.184 4.076 5.47 9.753 6.395 14.233.917 4.58-.078 6.822-1.25 2.813-1.94-10.023-13.824-11.487-19.127-3.722-7.367 10.786 5.538 23.876 14.79 15.11.79-.75 1.228-.93 1.495-.616.31.365.096.69-1.55 2.35-6.43 6.477-4.04 15.798 4.663 17.965 12.355 3.075 19.823-12.024 9.026-19.153-1.123-.854-1.242-1.07-.833-1.532.366-.413.683-.365 1.682.54 9.255 8.37 21.895-2.567 16.04-13.88-4.51-8.712-17.06-7.113-20.063 2.57-.56 1.804-.602 1.908-.913 2.11-1.287.048-.38-4.207-.185-5.332 1.455-4.967 3.064-9.615 6.14-13.457zm-99.648 4.63l30.277 47.79-6.693-.077-28.748-44.955zm148.708 2.79c.202.15 3.022 7.91 2.472 8.622-.172.56-.648.367-.833-.336-1.76-6.7-10.053-5.573-9.976 1.358.048 4.292 4.455 6.145 8.287 3.48.57-.394.83-.4.833-.022 0 .113-.44.7-.984 1.305-3.08 3.43-1.92 8.17 2.237 9.143 5.588 1.308 8.293-4.98 4.093-9.502-.61-.658-1.11-1.263-1.112-1.344-.002-.34.468-.282 1.014.123 3.874 2.877 8.596.936 8.542-3.51-.07-5.867-7.365-7.414-9.37-1.986-.5 1.35-.744 1.712-.998 1.466-.98-.514 2.626-8.88 2.725-8.88zm-154.777.323l28.584 44.663c-1.312-.03-2.53.05-3.84.03.53-8.34-6.182-12.252-10.126-12.45 2.365-9.756-4.746-13.86-9.49-14.635 1.923-12.678-8.572-14.475-8.725-14.348.053-1.04-.143-1.79-.283-2.66l3.88-.6zm-4.63.707c-.062.27.538 2.795-.592 2.33l-.08-2.325zm-6.018.065c.408 1.68 1.27 2.013 2.444 3.14 0 0-1.5.254-1.847.013-.623-.43-1.925-3.167-1.925-3.167zm4.47 2.84c.725 0 1.31.59 1.31 1.316 0 .725-.585 1.31-1.31 1.31-.724 0-1.31-.585-1.31-1.31 0-.725.586-1.315 1.31-1.315zm2.598 1.01c3.76-.245 9.212 3.787 7.774 11.333-.25-.526-.546-1.686-1.156-2.51-2.592-3.494-5.644 1.296-3.587 3.25 1.008.96 1.48 1.337 1.37 1.424-2.316-.44-4.072 1.61-3.107 3.89 1.607 2.946 3.84 1.384 5.133-.364 0 0 .796 2.638 1.587 2.974 1.212.513 2.883-.137 3.452-1.6.847-2.18-1.212-2.737-1.665-3.95 4.35.143 9.89 6.5 7.37 12.012.33-1.257-1.017-4.07-3.636-3.345-1.308.457-1.764 2.363-.71 4.323.34.627.522.86.522.86s-1.133.15-1.43.333c-3.398 2.093.983 7.8 3.51 4.232.26-.424.682-.91.682-.91.417.796.545 1.915 1.306 2.298 3.13 1.576 4.527-1.75 3.21-3.38-.74-.92-1.576-1.98-1.576-1.98-.13-.586 9.383 1.91 8.224 11.163l-25.22-.034c2.338-14.217-3.322-30.48-6.21-35.438l1.25-1.65c.313.613.835 2.16 1.755 2.455 2.925.94 3.817-1.104 3.425-3.206-.21-1.12-1.776-2.02-2.274-2.18zm6.678 13.38c.688 0 1.244.56 1.244 1.25 0 .687-.556 1.243-1.244 1.243-.687 0-1.248-.556-1.248-1.244 0-.687.56-1.248 1.248-1.248zm149.815 11.506c-1.676-1.566-3.53-1.523-5.208-1.34l-.092 3.525s4.153-.207 3.6 1.945c-.147.422-.346 1.838-.346 1.838l-.055 18.072c.673 7.943 10.9 9.533 13.42 1.995.486-1.287.406-2.456.406-3.86v-9.528l2.908-.058-.11-3.386-2.665.042c.194-4.76-.628-9.342-3.97-10.43-3.676-1.107-5.98-.17-7.89 1.186zm8.674 8.132c-1.69.307-4.052-2.882-5.996-5.17.89-1.712 3.6-1.403 4.61-.35 1.466 1.525 1.365 4.344 1.386 5.52zm-149.023-4.828c.696 0 1.26.563 1.26 1.258 0 .695-.564 1.258-1.26 1.258-.694 0-1.257-.563-1.257-1.258 0-.695.563-1.258 1.258-1.258zm141.66 3.04c1.785 3.482 7.266 6.156 7.348 5.623l.03 9.584c.28 3.838-1.07 5.71-3.504 5.96-4.266.046-4.218-5.253-4.22-8.206l-.056-9.46c.027-1.138-.11-2.56.403-3.503z"/></svg>