<svg viewBox="260 370 224 313" preserveAspectRatio="none" xmlns="http://www.w3.org/2000/svg" width="744.094" height="1052.362"><title>Vectorized Playing Cards 1.0</title><g transform="translate(-735.69962,-1384.075)"><rect y="1754.351" x="996.133" height="311.811" width="223.228" rx="10.63" ry="10.63" fill="#fff" stroke="#000" stroke-width=".997"/><path d="M1025.792 1780.136h163.532l.3 261.366-163.967-.436s-.006-170.555.135-260.93zm116.157 259.485c-6.09-10.986-15.715-28.882-16-29.025-3.56 1.886-39.847 6.72-57.3 2.04-5.97 8.923-11.832 17.76-17.03 26.607zm-55.732-32.86c-.913.02-1.93.574-1.743.092.11-.28.366-3.096.48-4.104.272-.448.657.727.613 1.82-.026.625.277.178 2.344.286 2.235.116 4.066.533 4.825.696 2.643.57 7.757.16 9.95-1.425 1.185-.86 1.634.068.41.99-5.522 4.16-9.9 2.574-14.7 1.877-.714-.104-1.438-.25-2.18-.232zm2.35-3.948c-.345-.222-.57-.245-1.01-.04-1.695.785-1.252-.343-.03-1.48.557-.52.54-.783.118-1.33-.215-.275-.573-.31-.487-.723.365-1.784 2.884-4.48 5.698-5.686 1.17-.502 1.357.047-.124.912-2.277 1.33-3.014 2.465-1.726 2.003 2.497-.896 4.775-.264 7.97 1.32.913.453 1.33.54 2.108.46.574-.474 1.088.095 1.443.392.223.178.27.264.525.205 1.818-.425.73.727-1.756 2.53-4.452 3.126-9.307 4.6-12.733 1.435zm6.846.77c1.82-.546 4.038-1.684 5.398-2.87 1.654-1.443.72-1.224-1.18-.315-2.752 1.316-4.678 1.697-7.772 1.626-2.59-.06-2.508-.163-2.603.158-.33 1.126 3.233 2.276 6.157 1.4zm-5.025-4.397c.147-.485.26-1.13.128-1.34-.24-.38-.754-.1-1.41.72-.405.51-.35.58.048.98.2.136.352.236.472.305.553.234.642-.275.76-.665zm1.132.664c.796-2.694 2.58-2.64 3.85-.064l.9.005c-1.846-5.014-5.417-2.474-5.536.02.42.14.786.04.786.04zm6.66-.454c.843-.466.72-.784-.353-1.333-.763-.39-1.166-.47-1.305-.217.01.555.033 1.35.357 1.79.336.203.798.003 1.3-.24zm-11.8-7.67c-.154-.254-.127-.716.46-.986 3.61-1.66.98-5.164-1.81-2.536-.883.72-2.198 1.055-3.214.626-.955-.413-.973-1.573.296-1.82.416-.08 1.485-.307 1.88-.58 4.846-2.574 7.42 3.026 3.98 4.89-.706.41-1.456.638-1.592.406zm-13.578-5.086c-1.967-.884-2.236-3.958-.393-5.154 1.175-.797 2.374-1.014 5.607.574 2.283 1.122 3.59-.086 3.53 1.22-.035.793-.083 1.593-1.41 1.784-2.158.31-3.63-2.596-6.402-2.32-2 .196-1.746 2.57-.3 3.053 1.924.643.757 1.406-.63.843zm36.168.447c-.36.168-.53-.616-.374-1.035.983-2.315 1.887-4.155 2.778-6.324.71-1.728 1.188-2.47 1.507-2.47.326.003.477.256-.068 1.32-.824 2.146-3.84 8.692-3.843 8.51zm-16.15-.6c-.87-.615-.723-1.528.267-.837 1.272.888 3.358-.737 2.932-2.27-.514-1.855-2.995-2.304-5.07-.644-3.278 2.62-6.872 2.753-6.872.705.006-.584-.077-.717 1.287-.808 1.585-.106 3.373-.827 4.26-1.365 3.987-2.412 8.227-.747 7.35 3.277-.397 1.898-2.74 2.818-4.155 1.943zm-14.614-5.94c-.323-.01-.914.314-1.084.19-.332-.247-.284-.96-.556-1.726-.485-1.356-.013-.932.84-.565 1.157.444 2.254.36 3.23.022 1.007-.347 2.328-.268 4.442.006 1.7.22 2.657.157 4.2-.282 1.676-.52 1.233-.332.953.694-.18.673-.41 1.576-.624 1.793-1.16-.644-2.04-.394-2.8.044-1.25.548-2.138.642-3.162.338-.964-.545-1.536-.5-2.31-.03-1.334.642-1.925-.42-3.13-.48zm24.987-2.82c.235-.41.576-.973.896-1.606 2.59-5.105 2.767-6.525.94-8.246-2.456-2.312-4.55-1.31-6.902 3.308-.57 1.12-.912 1.962-1.143 2.308-.266.4-.577.092-.73-.063-.29-.294 2.32-5.195 3.344-6.265 2.678-2.8 7.654-.56 7.337 3.248-.16 1.918-.526 2.97-2.292 6.486-.437.87-.817 1.608-1.048 1.963-.828.55-.64-.714-.402-1.133zm-24.4-.203c.408-1.82 6.278-2.66 7.825-.276.15.233.063.224-.602.043-2.984-.98-3.576-.925-6.436.197-.43.165-.735.233-.788.037zm22.397-.346c0-.17.218-.843.55-1.493 1.957-3.843 2.497-4.77 1.9-5.488-1.164-1.4-2.726-.183-4.162 3.83-.537 1.5-.902 1.18-1.164.942-.5-.454 1.718-5.123 2.79-5.82 2.425-1.53 4.335.243 3.263 3.378-.838 1.415-1.53 3.593-2.31 4.74-.37.513-.87.36-.868-.09zm-8.778-6.24c-.118-.194.11-.455.952-2.244 1.156-2.46 1.514-3.372 1.044-4.776-.837-2.503-3.992-3.117-5.908-1.474-.627.53-1.053 1.264-1.348 1.922-.693 1.526-1.27 3.5-1.68 3.913-.36.358-.86.43-.827-.196.455-1.328.67-2.358 1.748-4.304 2.685-5.797 10.426-3.113 8.614 2.99-.674 2.214-1.45 3.892-1.907 4.437-.255.303-.678.04-.69-.27zm-1.796-1.065c0-.19.29-.735.6-1.492 1.308-3.216 1.317-4.202-.59-4.243-1.142.146-1.312.61-2.314 3.148-.325.825-.505 1.412-.698 1.663-.208.27-.597.11-.757-.052-.41-.414 1.376-4.576 2.32-5.36 2.173-1.878 4.986.788 3.668 3.182-.618 1.673-1.15 2.808-1.512 3.326-.32.457-.722.393-.718-.17zm-46.23-37.504l-6.596-.45c1.17 7.013 1.23 14.734.048 20.21-1.01 4.68-1.02 8.128-.72 12.186.35 4.722 2.362 8.726 2.868 13.74.367 3.63-.442 7.42-1.164 11.032-1.206 6.034-.957 6.664-.78 13.745.165 6.564-.45 6.33-.83 5.946-.057-.06-.11-1.22-.1-2.6.007-1.382-.08-4.758-.158-7.102-.158-4.683.366-8.82.745-10.524.773-3.467 1.64-7.017 1.107-10.854-1.086-4.84-2.617-9.677-3.154-14.344-.66-5.754.966-11.528 1.504-15.707.52-4.036-.03-11.017-1.094-13.923-.183-.966-1.052-2.226-1.052-2.226-.993-.14-1.992-.28-3.387-.272-.078 27.712 0 55.435.022 83.15l6.15 5.68 6.32-5.98zm.445 31.788s9.385 5.377 19.733 10.66c-.985-6.045 2.14-6.956 5.074-7.658-.703-11.678 10.05-9.283 11.698.864l1.06.005c1.863-5.06 3.705-8.552 7.948-9.385 3.287-.646 6.53 1.426 7.352 6.306-.145-.342 10.9-6.45 11.205 6.455 5.017-3.1 8.596-.422 10.043 3.513 2.118-3.212 7.42-3.353 9.114-3.587.59-.676 1.63-1.063 3.524-1.05 1.622-.083 3.802-1.292 4.923.18 1.706.27 3.005-.038 4.463 1.083 1.16.877 2.454 2.833 4.385 1.484 3.682-1.764 7.82-2.56 11.112-4.688 0 0-.873-1.12-.618-.96.092.06.502.59 1.12.835.22.088 2.244-1.118 2.244-1.118-13.714-15.723-24.995-46.417-17.546-74.816.206-.482-.622-.668-1.03-.84.127-.217 2.14.075 1.285 1.88-.86 5.442-1.836 11.338-2.053 15.85-.004.55.046 1.04.046 1.04 30.75 14.115 26.98 44.686 19.08 55.327l1.245 1.65c.552.368 24.19-13.35 23.41-13.913l4.474-2.216-.725-59.947-17.69-1.346s.187-.503.41-.634c.163-3.66-.166-9.072.01-13.603.07-12.947.2-17.35.032-17.708-5.457-3.577-13.593-8.805-20.44-11.34.28.08-.11 5.365-.32 5.666-6.406 2.034-3.432 4.634-5.8 7.427-1.59 1.74-5.313 2.07-7.11-.016-2.148-2.068-3.155-6.813-3.155-6.813-3.39 3.606-2.693 7.963-7.232 9.603-7.294 3.6-9.61-7.164-9.186-6.915-2.796 2.682-10.64 4.863-11.487-6.46-3.527 3.23-7.48 1.626-9.157-2.35-2.153.076-4.567 1.754-6.746 2.662-2.02.89-4.608 1.413-6.528 1.374-2.4.29-4.38.278-6.543-.364-1.018.33-3.31-.654-4.018-2.06-1.082-1.266-2.025-1.34-3.054-1.112-3.504 1.837-7.262 2.28-11.398 4.204-.26.178.363.515.154.45-.088-.03-2.173 1.017-2.173 1.017 20.955 27.417 22.095 55.097 17.703 74.716-.172.68-.267 1.173.186 1.708-.666-.114-.677.08-.8-.344l2.178-16.468c.064-1.99.314-1.842-1.442-2.584-1.624-.686-3.16-1.347-4.5-2.167-5.11-3.768-10.884-8.405-13.698-14.192-8.03-12.438-5.38-27.278.634-39.037l-1.496-1.546c-17.564 8.757-27.933 18.2-27.933 18.2l.075 58.823 18.05 2.072zm-8.707-39.28c-.58-.637-2.053-.75-2.667-.265-.143.12-.446.743-.535.72-.818-.21-1.384-.378-1.493-1.065l.868-1.305c.687-1.033 1.677-1.4 3.346-1.788.592-.137 1.486-.263 1.8-.397 1.255-.54 1.692-1.706.422-1.183-.927.253-2.223.17-2.395-.675-.142-.693-.735-.965-1.397-.883-1.223.292-2.34.928-3.422 1.567-.48.288-1.39.94-1.39.94-.144.225-.674-1.41-.18-1.888.613.074 1.14.08 1.74-.157 1.49-.593 2.928-1.307 4.434-1.88.96-.374 1.047-.343.794-1.02-.124-.25-.235-1.08-.07-1.514.176-.462.156-.694-.142-.892-.677-.45-2.302-.03-4.588 1.062-.696.333-1.155.467-1.595.82.284-.72.118-.852.11-1.606.934.117 1.774-.252 2.52-.643.613-.32 1.302-.635 2.99-.85.462-.06.252-1.74-.273-2.226-.497-.46-1.54-.47-2.804-.097-1.128.258-2.53.52-3.307 1.725-.978.922.024-1.53 1.81-2.507.782-.016 2.508-.384 2.914-.474.69-.15.8-1.76-.202-2.45-.627-.543 2.277-.558 2.22-.392-.036.095-.063.783.16.958 1.25.375 1.24 1.392 1.35 1.82 1.435 2.348 2.142.876 3.13.067-.208 5.11 1.588 5.69 1.825 6.014-2.466 4.58-.606 4.69 1.706 5.745 0 0-.878.354-1.463.318-.92-.057-2.682 1.03-3.452 1.67-.424.352-.437.057-2.135.008-1.6-.046-1.718.073-2.448.394-1.44.635-1.432 1.235-.025 1 1.498-.254 2.966.652 3.138 1.885.12.234.013.646-.01.632-.313-.058-1.02.06-1.008-.09.01-.148 0-.707-.276-1.1zm2.186-6.193c.406-.258.476-.993.123-1.29-.322-.27-1.69-.127-2.076.22-.875.683.722 1.828 1.952 1.07zm.876-3.076c.502-.392.564-1.33.128-1.875-.738-.924-2.668-.37-2.773.795-.11 1.24 1.593 1.895 2.645 1.08zm-.628-4.222c.09-1.02-.923-1.664-1.856-1.18-1.16.6-.456 1.87 1 1.795.804-.04.804-.04.856-.615zm-3.4-4.135c-.542.265-.57.9-.056 1.31 2.037 1.12 1.417-1.88.056-1.31zm142.28 6.09c-.894-3.28-3.36-.027-3.363.02-.087-3.363.552-4.86-1.98-6.008 2.54-3.833 2.01-4.36-.683-5.83.248.02 3.576-.723 4.146-2.616.127.088 5.224 1.338 5.86-1.432-1.538.698-4.563.802-4.598-2.176.286-.086 1.004.06.944.156-.403 1.91 3.092 2.383 3.664.874 0 0 1.174.783 1.69.904.058.04-1.59 2.313-3.09 2.656-2.71.893-3.643 1.133-3.647 1.67 0 .207.442.24 1.247.404 1.682.116 1.646.475 1.867 1.03.195.49.385.59.946.54 1.92-.636 2.88-.97 4.22-2.303.163-.03.352 1.4.456 1.45.014-.228-1.36.17-3.472 1.4-1.723 1.005-2.398 1.15-2.617 1.422-.162.2.257.834.3 1.522.038.578-.352.858-.065 1.04.332.207.846.17 1.52-.005 1.49-.358 2.587-.94 3.926-1.765-.283.536.194 1.897.194 1.897s-.66-.463-1.205-.223c-1.05.46-2.744 1.083-3.2 1.19-.444.104-.637.16-.81.308-.213.18-.177.613-.18 1.248-.004.446-.132.858.15.992.625.2 1.888.138 3.174-.31.548-.237 1.71-.868 1.71-.868l-.363 1.882c-.487-.548-1.887-.145-2.825.223-.473.148-.614.444-.734.855-.21.702.24 1.186.756 1.416.344.154.873.09.873.09-2.43.92-1.946 1.26-3.363.563-.613-.662-1.213-1.36-1.447-2.216zm2.542.002c-.403-.463-1.104-.73-1.513-.546-.365.19-.234.594-.118.9.307.853 2.44.578 1.63-.355zm-1.417-2.345c.57-.743-.057-1.743-1.11-1.75-.73-.004-1.12.45-1.112 1.02.015 1.078 1.747 1.35 2.222.73zm-1.17-2.832c1.056-.285 1.38-1.303.65-2.04-.518-.526-2.145-.59-2.58-.117-1.11 1.213.134 2.645 1.93 2.158zm.878-3.724c.62-.316.74-.84.192-1.438-.993-.842-2.727-.186-2.167 1.04.275.602 1.22.782 1.975.398zm-126.94-28.27c.93-.338 1.603-1.057 2.584-1.61.66-.36.462-.302-.384-.795-.666-.305-2-1.65-2.124-1.33-.304.574-.26 3.708-.078 3.734zm23.55 32.822c.038-.64.115-1.603.097-2.31.126-1.346-.117-.953-.85-.513-.54.348-1.41.876-1.75 1.045-1.342.667-1.182.702.71 1.608 1.586.708 1.764.638 1.792.17zm-1.844-3.152c1.283-.805 1.71-1.22 1.77-2.124.007-1.04-.114-1.418-1.03-.698-3.123 2.456-6.338-2.362-3.48-5.04.584-.545 1.325-1.4 1.33-1.616.048-1.552-1.707-.045-3.14 2.087-1.59 1.938-2.578 4.364-1.185 6.692 1.114 1.704 3.595 2.042 5.734.7zm-7.097-3.135c-.057-.76.158-1.61.258-1.863.35-.89.336-1-1.255-.26-.635.21-1.392.378-1.684.376-1.3-.008-.974.4.89 1.946 1.87 1.553 1.933 1.693 1.793-.2zm4.427-7.444c.198-.468-.214-.648-.61-.56-.03.007-.712.513-1.513 1.14-2.427 1.904-4.207 2.126-5.412.676-1.22-1.47-.71-3.212 2.02-5.208 1.203-.88 1.492-.94.913-1.325-.44-.294-.467-.25-2.198.918-3.488 2.35-4.532 3.956-4.183 6.295.072.96.577 1.464 1.067 1.838 3.325 2.934 7.94-1.11 9.916-3.774zm3.52 1.388l-.21-3.237c-3.546-3.044-6.91-8.242-8.072-12.548-1.185-3.83-.24-11.817-.063-11.224l-1.916-3.613c-1.668 3.835-2.397 9.68-.582 15.64 1.54 5.055 4.623 11.18 10.842 14.98zm-14.936-1.886c1.127-2.154 1.16-1.92-1.015-1.94-2.486-.02-2.208-.322-.808 1.79 1.125 1.696.935 1.844 1.822.15zm1.492-2.95c1.43-.46 1.104-.354 3.004-1.583 2.18-1.412 2.27-2.183.082-1.096-2.81 1.396-5.277 1.04-6.193-.784-.817-1.624.887-3.65 3.692-4.442.96-.27 1.464-.5 1.466-.917.008-1.274-4.767.426-6.735 2.35-3.798 3.712-.474 8.117 4.683 6.47zm-6.14-5.782c.127-.194.47-.658.784-1.14 1.345-1.555.214-1.09-.98-1.516-.63-.232-1.278-.462-1.648-.406-.715.108.24 1.48.47 2.368.643 1.974.57 1.914 1.373.694zm5.084-3.558c2.408-.235 2.653-.466 2.656-.963.003-.493-.294-.398-1.503-.23-3.2.44-5.32-.37-5.777-2.068-.473-1.754 1.695-3.413 4.584-3.315 1.565.053 2.607-.486 1.654-1.003-.496-.27-4.806-.213-5.78.07-2.864.83-4.03 2.415-3.77 4.61.396 2.71 1.883 3.487 5.508 3.295.694-.037 1.58-.315 2.428-.397zm1.863-8.83c.002-.422-.685-.483-2.957-.82-3.026-.446-4.378-3.234-2.554-4.91.69-.637 2.34-.91 3.257-.743 1.994.362 3.214.77 3.233.096.004-.6-.575-.643-4.32-1.43-5.66-1.19-8.765 4.337-4.24 7.04 1.718 1.03 7.575 1.613 7.58.77zm1.403-7.91c0-.21-.183-.374-.61-.54-.624-.243-1.042-.288-2.447-1.23-1.868-1.253-2.435-3.697-1.19-5.058 1.21-1.272-.966-2.772-2.7-1.338-1.803 1.49-1.65 3.83.424 5.683 1.91 1.705 6.516 3.478 6.522 2.483zm-9.168-.33c1.966-.918 3.38-.39 1.874-1.657-.845-.78-1.566-2.994-2.153-1.115-.45 1.12-.78 3.095-.793 3.29.132.133.102-.096 1.07-.517zm69.564-4.768c-2.24-.555-3.77-3.144-3.2-5.632.322-1.406 1.65-4.72 1.913-4.926.988-.78.853.258-.054 2.06-.827 1.842-1.47 3.322-1.215 4.417.364 1.558.998 2.748 2.626 3.144 1.146.278 2.225-.197 2.956-.71.966-.68 1.88-2.423 2.972-4.836.35-.68.818-2.763 1.4-1.49.28.657-2.05 5.036-2.922 6.145-1.096 1.396-2.948 2.215-4.474 1.827zm13.504-1.465c1.09 1.04 2.936 1.564 4.14 1.19 2.954-1.035 4.296-3.813 3.178-8.28-.566-2.503-1.05-4.06-1.54-4.37-.24-.15-.5.13-.73.48-.207.31.11.747.444 1.925 1.412 4.963 1.043 7.208-.68 8.156-2.5 1.376-4.642-.21-5.368-3.75-.116-.547-.458-1.663-.458-1.663-.192-.492-1.74-.383-1.177 1.265.17 1.276 1.35 4.318 2.19 5.047zm12.674-13c-.04-1.745-3.73-9.322-3.98-8.518 0 0-.016 1.77.128 2.468.055.263.247.507.404.787 3.207 5.69 2.712 9.7-.07 10.58-.946.428-1.152.85-.728 1.29.857.928 3.006-.906 3.424-1.572 1.052-1.493.906-4.218.822-5.034zm-53.698-1.287c1.21-1.343 3.86-5.98 4.676-8.41 2.514-7.24 5.156-15.565 5.887-23.26.08-.972.13-2.45.18-2.576-.198-.213-1.444-.1-1.863.11-.2.26-.066.838-.138 1.59-1.125 8.65-3.2 16.533-6.28 24.556-1.348 3.486-2.6 5.78-4.22 8.204-.285.423-.645.86-.787 1.105-.41.59-.108.975.367.726.844-.476 1.572-1.39 2.178-2.045zm-4.12 2.105c3.855-5.28 6.595-11.62 8.725-19.105 1.346-4.843 2.53-9.744 3.24-14.74.147-1.065.265-1.778.056-2.097-.52-.14-1.493-.052-1.83.207-.206.31-.068.932-.26 2.37-.492 3.716-1.23 7.448-2.477 12.334-3.29 10.814-6.314 16.868-10.286 22.165-.32.446-.607.735-.578.924.042.277.428.254 1.06-.14.824-.644 1.767-1.208 2.35-1.917zm-5.874 2.807c1.886-1.066 5.207-5.703 7.553-10.698 2.633-5.896 4.837-12.556 6.28-18.324.625-2.527 1.515-8.84 1.388-9.255-.15-.494-1.995-.083-1.74.258 0 0-1.83 10.148-3.8 15.74-3.658 10.384-6.822 17.43-10.226 20.816l-1.325 1.312s.018.388.302.447c.678.125 1.13-.07 1.568-.295zm-2.886-.414c4.255-2.372 9.24-13.45 13.308-27.357.696-2.38 1.968-10.348 1.968-10.348s-1.695.063-2.022.418c-.33.482-.277 1.707-.752 4.62-1.83 8.796-4.59 16.82-8.737 24.752-1.794 3.514-4.774 6.824-6.656 7.767-1.05.526-1.36 1.106-.59 1.148 1.3.047 1.414.317 2.357-.187zm58.314 123.88c-3.19-.01-5.902 3.042-8.317 6.88-5.138 7.86-8.59 20.996-9.432 27.976l1.938-.364c-.29.133 3.624-18.582 9.586-26.595 3.224-5.056 3.088-5.132 4.898-5.596 2.288-.587 4.123 1.882 2.988 3.37-.41.502-.862.132-.735-.585.406-2.29-2.943-2.73-3.88-.48-1.075 2.586 1.787 4.893 4.583 3.876 2.498-.88 3.545-4.362 1.79-6.935-.9-.87-2.205-1.642-3.42-1.546zm-16.8-.32c-3.82 4.785-5.714 9.702-8.06 16.416-2.345 6.707-4.03 13.268-4.76 20.796l2.062-.265c-.075-4.84 5.244-27.883 12.718-36.515.418-.547.753-1 .722-1.128-.415-1.165-2.187.238-2.682.696zm8.443-1.786c-4.954 4.046-8.91 12.886-11.52 21.058-2.82 8.833-4.085 16.927-3.873 16.927l1.968-.288c-.147-.513 5.528-31.637 16.06-37.304.913-.454 1.104-.912.334-1.11-1.186-.166-2.14.222-2.97.717zm5.544.02c-10.815 1.42-17.882 34.506-18.118 37.253-.003.042-.04.256-.04.256l2.154-.444.028-.158c1.483-8.454 2.927-14.38 6.298-22.02 2.627-5.664 6.252-12.904 11.668-13.606.44-.057.857.12.703-.392-.33-.81-1.95-.914-2.693-.89zm-64.453-10.418c-3.907 1.002-4.035 5.675-1.43 11.646.195.45.16.698.36.87.444.39.793-.152.843-.51.075-.542-.157-1.272-.57-2.333-1.61-4.133-1.225-6.515.37-7.568 4.09-2.1 5.19 2.213 5.807 4.198.15.484.203 1.15.47 1.185.816.112 1.205-.177 1.192-.177 0 0-1.083-3.716-1.743-5.112-1.07-2.258-3.61-2.73-5.3-2.198zm-28.356 4.41l-.04 49.256-7.483 7.013c-3.21-2.746-7.43-7.047-7.43-7.047l.134-83.267-2.407-.193c-.59 35.775-.17 72.084-.198 107.93l22.123.162 18.31-28.54s.233-.34.306-.52c.223-.552.197-1.373.087-4.408-.045-1.233.094-2.18-.088-2.47-.186-.293-.576-.083-.94.08-.372.166-.593.107-.393-.33.113-.247.48-.79.796-1.31 1.028-1.684 1.28-2.223.932-4.09-.085-.46-.507-.848-.874-1.39-3.08-4.54-4.336-11.27-2.806-16.2.488-2.18.312-2.62-.74-4.32zm96.848-52.96c-2.01-1.03-1.972-1.008-1.984.944.01 1.46.038 1.812.587 1.615.793-.4 1.763-.77 2.495-1.08 1.397-.48-.378-1.094-1.098-1.478zm7.964 5.073c-1.56-1.244-.985-1.1-1.427 1.705-.268 1.694-.612 1.738 1.144 1.177.996-.344 3.045-.127 2.126-1.295.006.02-1.538-1.327-1.844-1.587zm-62.727 43.064c-2.396 1.446-4.842 8.457-4.842 8.457-8.37.996-11.872 9.215-12.246 16.068-.296 5.41-.663 11.727-.116 12.28 5.487-2.463 7.6.38 8.12-.386.238-.336-1.216-1.446-3.043-2.44-.424-.232-1.08-.648-1.33-.854-.667-.552 1.33-.078 2.59.78 1.61 1.094 1.88.866 1.183-2.33-.76-3.476-.884-3.902 1.79-5.28 1.07-.55 1.68-1.018 2.445-1.876.614-.686.77-.853.545.155-.39 1.747-1.947 2.51-3.348 3.218-.697.357-.985 1.075-.99 1.692-.003.628.72 4.025 1.055 5.11.31 1.03.425 2.064.664 3.115.63 2.728.67 3.263.35 5.242-.185 1.16-.28 1.823-.215 2.525.06.637.15 1.504.15 1.504.002-.03-1.495-1.532-4.772-.243-2.363.93-4.23-.04-5.553-.727-.305 1.074-.236 2.24-.2 3.474 13.625 2.488 25.26 2.154 35.058 1.13.254-2.894 1.49-12.094 4.083-20.39 1.08-3.452 2.3-7.092 3.677-9.52.94-1.656 1.896-2.772 2.235-2.965.105-.064.115-.098.113-.143 0-.092.003-.17-.002-.26-.035-.537-.165-1.37-.628-1.74-1.13-.9-2.934.26-3.527 2.27-.52 1.203-2.89 6.41-3.06 6.323-.14-.088-.47-.095-.35-.497.908-2.11 2.155-4.342 2.857-6.236.97-2.728 3.08-4.168 4.657-2.448.54.59.757 1.132 1.005 1.32.187.14.44.044.593-.19.595-.894-.783-2.925-2.262-3.333-2.134-.59-3.724.966-6.144 6.01-1.4 2.91-1.65 3.642-1.87 3.418-.05.02-.42.02-.286-.545.29-1.212 2.143-4.735 3.486-6.97 1.988-3.307 5.68-3.576 7.232-.705.237.392.25.903.512 1.252.477.616 1.26.494 1.455-.517-.213-.67-1.51-3.085-2.412-3.506-2.076-1.426-4.595-1.146-6.715.745-.48.428-.983 1.3-2.39 4.152-2.07 4.574-2.126 4.59-2.692 3.854.834-2.224 3.026-5.84 3.91-8.058.17-.33.203-.686.19-1.027-.052-1.612.212-4.463-3.202-6.488-2.91-1.567-6.754.082-8.063 3.167-1.002 2.362-1.735 3.985-2.24 4.32-.71.47-.577-.185-.507-.423 1.01-2.138 2.428-4.3 2.653-6.45.148-5.824-5.76-7.977-9.6-5.038zm-30.498-109.12c4.61-2.142 7.766-3.22 12.463-4.603.635-.278.736-.342.062-1.675-2.976-5.888 5.19-10.582 7.965-4.802.37.77.456 1.197.82.828.683-.894 1.494-2.164 2.337-3.613 3.123-4.838 4.537-10.357 6.202-15.227.69-2.862 1.656-5.853 1.93-8.922-6.2-10.782-10.515-21.157-17.094-30.757l-43.382-.032-.163 86.677c12.13-10.116 20.388-13.775 28.86-17.875zm48.833-3.185c.526-.555.982-1.477 2.868-5.346.337-.69.875-1.762 1.094-2.26.283-.91 1.343-1.48.826.15-.117.352-.32.827-.64 1.458-.627 1.128-1.223 2.51-1.67 3.41-2.412 4.833-2.297 7.65.398 9.746 2.014 1.924 6.243 2.14 8.493-.965.337-.502.637-1.146.735-1.382.978-2.372 1.7-3.558 1.884-3.793 1-1.27 1.162.304-.334 2.726-1.714 2.777-1.743 5.785-.262 7.902 2.196 3.137 6.366 3.226 8.984.71 1.36-1.595 2.442-3.623 3.313-6.215.193-.575.392-1.002.534-1.34.218-.518.532-.71 1.344-.867 5.573-1.066 10.25-6.783 10.913-13.024.088-.844.328-2.338.415-3.224.175-1.77.18-10.93.005-11.477-.094-.295-.26-.45-.623-.447-.28.003-.673.1-1.24.303-1.836.656-2.69.822-4.456.192-.583-.21-.986-.28-1.225-.26-.78.068.255 1.184 2.525 2.418.972.528 1.74 1.24.953 1.187-.23-.015-2.97-1.43-3.347-1.66-1.247-.766-.92.197-.28 2.73.865 3.402.367 4.358-2.32 5.69-.502.25-1.167.768-1.505 1.102-1.425 2.103-1.057.553-.34-.568 1.227-1.283.475-1.72-2.038-.83-2.867 1.013-4.163.273-4.965-1.32-.907-1.802.8-4.118 2.222-4.073.46.014.378.18-.3.643-.82.56-1.21 1.1-1.295 2.054-.175 1.948 1.22 2.775 3.168 1.47.92-.618 1.644-1.044 2.34-1.202.692-.157 1.73.1 1.725.65 0 .23-.032.787.017.91.182.617 1.17-.256 1.6-.566 1.466-1.097 1.418-1.313 1.018-3.09-.656-2.49-.986-4.766-1.61-7.29-.335-1.32-.39-2.814-.188-4.16.102-.676.365-2.064.418-3.014.053-.95-.006-2.308.03-2.307 1.456 1.113 2.05 1.308 3.47.768 2.2-.9 3.59-.807 5.444.08.686.327 1.31.558 1.31.558l.085-2.857s-1.715-.354-4.887-.77c-9.547-1.254-29.138-1.52-29.867-.367-.186.293-.37 2.334-.89 5.172-1.156 5.896-2.45 11.772-4.184 17.526-.356 1.173-.695 1.645-.514 1.68.075.015.43-.44.594-.63.928-1.07.217 1.473-1.185 4.537-.127.277-.23.58-.23.674-.003.186-.883 2.32-1.49 3.612-.378.803-.69 1.044-.688.53.426-1.764 1.552-4.047 1.715-5.62-.987 1.424-2.424 3.776-3.51 5.18-.202.377.01.493.186.96.653 1.745 2.236 1.9 3.15.322.51-.88 2.095-4.2 2.646-5.65.567-1.495.966-2.283 1.155-2.38.378-.196.45.653-.222 2.066-2.04 4.288-2.914 6.69-3.913 7.577-.775.688-2.116.644-2.86-.58-1.265-2.076-2.343-1.388-1.184.74 1.2 2.2 3.935 2.404 5.364.424.472-.653 2.692-4.888 3.39-6.61.39-.962.805-1.71.944-1.764.746-.286-.105 1.91-2.246 6.304-.693 1.697-1.807 3.478-3.315 4.03-3.664.8-4.16-1.136-5.434-3.343-.62-.548-1.18.33-.944 1.3.384 1.574 1.103 2.19 2.213 2.98 2.32 1.475 5.544.46 6.712-1.222zm16.347 9.196c-.333-.734-.285-1.48-.115-2.176.384-1.57 1.02-3.092 1.763-4.417 1.203-.568.284 1.695.134 2.03-1.452 3.025-1.59 4.195-.235 4.544 1.16.3 1.784-.41 2.88-3.12.564-1.392.79-2.008.988-2.09.423-.168.626.002.6.427-.725 1.78-1.292 3.652-2.484 5.13-1.166.975-2.922.98-3.532-.326zm-10.885-2.322c-.505-.1-1.37-.75-1.972-1.3-2.05-1.877-1.712-4.47.83-9.347.198-.378.937-1.852 1.175-2.336.426-.867.844-.528.84.046 0 .16-.635 1.508-1.277 2.758-2.807 5.484-2.71 7.72.017 9.026 2.663 1.274 3.856.54 5.98-3.646 1.228-3.143 1.833-3.195 1.766-2-.003.445-1.49 3.46-2.45 4.86-1.39 2.03-2.594 2.39-4.91 1.94zm.202-2.647c-1.046-.645-1.473-2.253-.855-3.57.562-1.085 2.002-5.245 2.678-5.48 1.088-.037.508.874-.84 3.432-1.595 3.39-1.537 4.296-.307 4.815 1.14.48 1.68-.504 3.36-4.47.263-.62.632-1.268.848-1.132.267-.02.73.18-.153 1.977-.208.43-.564 1.33-.957 2.17-1.148 2.452-2.45 3.077-3.774 2.26zm18.87-7.193c-.46-.236-2.616-1.083-2.297-1.784.04-.066.165-.014.23.028 1.973 1.322 4.428 1.658 6.99-.176.43-.38.752-.123.51.354-.774 1.536-4.226 2.193-5.433 1.58zm-6.342-2.228c.06-.15.237-.588.395-1.178.237-.888.18-1.54.39-1.428.896.483 2.495.494 3.278.017.86-.522 2.6-.682 3.235-.27.907.59 1.368.315 2.004-.18.716-.558.73-.32 2.024.13.957.33 1.333.558 1.74.485.155-.03.47-.383.572-.365.31.056.346.938.633 1.944.252.89.108 1.105-.69.572-.595-.397-2.304-.584-4.08-.04-1.316.403-1.62.24-2.585.078-2.406-.407-4.143-.72-5.937.317-.958.555-1.305.843-.98-.08zm-5.986-4.4c-1.167-2.336 1.516-5.43 3.874-4.338.78.363 1.477 1.735.32 1.105-5.363-1.08-4.023 6.762 1.736 2.62 3.827-2.538 6.535-2.93 6.76-.476-.107.903-.91.76-1.517.842-1.586.22-2.173.478-4.01 1.265-2.797.88-5.53 1.6-7.163-1.017zm20.982 1.08c-1.308-.336-2.445-.852-3.81-1.1-1.35-.234-1.96-.938-1.716-1.886.254-.985 1.607-1.09 3.64.15 2.255 1.375 3.89 1.708 4.714 1.19 1.67-1.048.77-2.755-.823-3.19-1.196-.333-.317-.797.968-.415 2.073.784 2.117 4.525-.015 5.302-.713.26-1.97.19-2.96-.052zm-18.265-12.384c1.522-.94 2.993-1.78 3.516-2.34.275-.294 1.04-1.282.446-.98-3.105 1.862-6.71.315-9.32-.96-1.255-.585-.947-.326-1.91-.262-.653.044-1.178.18-1.294-.286-.052-.205-.417-.12-.65-.142-.966-.096-.356-1.37 1.67-2.777 2.39-1.66 4.477-2.742 6.547-3.188 2.15-.464 4.344-.202 5.952 1.345.618.594.564.99 1.128.625 1.29-.833 1.3.272.213 1.295-.746.702-.473.893.44 1.56.436.32.078.624-.165 1.09-.092.283-.02.594-.064.81-.204.998-4.757 4.527-6.405 5.13-1.133.21-.54-.643-.106-.92zm3.16-6.483l-.755.01c-.86 2.623-2.45 3.517-3.77.372l-.603.06c-.027 2.664 4.563 4.337 5.13-.442zm-4.97 2.46c-.312-.523-.662-1.722-.988-1.74-.888-.036-2.114.123-1.824.672.46.87 3.174 1.673 2.812 1.067zm6.083-.468c.818-.492.992-.83.458-1.372-.688-.698-1.048-.342-1.264.773-.186.958-.052 1.115.807.6zm-11.092-1.845c5.48-2.476 7.56-2.796 9.786-2.183.515.142.972.43 1.26.413 1.067-.064.387-1.256-1.527-1.94-2.187-.78-3.573-.425-7.774 1.762-2.46 1.28-4.46 3.174-1.745 1.948zm15.884-3.005c-.078-.148-.41-1.133-.504-1.493-.094-.36-.18-.73-.282-.732-2.543.406-4.778-.07-5.38-.212-3.845-.916-7.56-.73-10.334.354-.678.265-1.518.694-1.6.77-.218.204-.542-.03-.54-.284.002-.3 1.704-1.645 2.777-2.176 3.265-1.614 6.71-1.89 10.49-.874 2.465.943 4.053.79 5.628.102.774-.338.225.498-.02 1.607-.17.768.017 1.426.05 1.86.096 1.05-.024 1.574-.284 1.078zm57.288 221.437v-86.85c-14.418 10.618-41.688 21.695-41.688 21.695 3.434 6.986-4.13 12.964-8.47 5.87-4.465 5.006-10.616 22.537-10.834 28.358 0 0 11.877 20.706 17.673 30.927zm-79.415-28.598c.396-4.36 1.33-11.753 4.24-20.356 1.22-3.61 2.69-7.75 4.77-11.457.83-1.295.887-1.796.002-1.33-.557.293-3.1 3.154-3.445 3.877-3.898 8.212-5.702 18.078-7.13 25.61-.322 1.694-.418 3.8-.418 3.8zm2.852-.358c.927-10.593 4.83-24.895 10.696-34.216.55-.89 1.23-1.66 1.205-1.967-.076-.906-2.334.66-4.086 3.334-1.956 3.873-3.916 8.004-5.416 12.577-2.116 6.456-3.66 12.42-4.263 20.515zm5.636-.885c.588-6.103 2.485-11.703 4.076-17.313 1.946-6.86 4.543-11.91 7.57-16.455.97-1.458 2.115-2.823 3.204-4.213.14-.168.278-.47.246-.595-.7-.122-1.255.095-1.795.397-.755.422-1.817 1.487-2.437 2.276-4.31 5.488-6.63 11.895-8.782 18.37-2.067 6.215-3.556 12.194-3.847 17.823zm-38.714-4.678c.867-.067 1.425.096 1.677-.134.248-.23.167-.843.246-1.63.168-1.68-.007-1.587-1.058-.5-1.74 1.796-4.917 2.488-6.807 1.402-.952-.548-1.615-.928-1.705-.472-.105.532.04.938.448 1.222 2.29 1.042 4.462.326 7.2.112zm-2.046-1.286c1.205-.4 2.43-1.042 3.12-2.023.658-.936.647-1.07.15-.892-2.452 1.203-4.06 1.815-6.25 1.483-2.967-.45-3.09-.073-1.13 1.152 1.283.802 2.347.825 4.11.28zm-4.354-3.754c.46-.338.577-1.715.207-1.793-.376-.08-.92.603-1.055 1.16-.15.738.398.927.847.632zm4.59-.06l.79-.07c-.404-3.454-4.16-3.603-4.853.345l.594.09c.776-3.15 3.047-3.062 3.47-.364zm2.477-.556c1.15-.64.75-1.43-.8-1.734-1.016-.24-.96.592-.432 1.718.262.56.445.454 1.23.016zm-8.846-4.232c-.01-.384-.168-1.005-.35-1.38-1.325-2.706-2.056-5.905-1.906-9.88.108-2.85.144-3.73-.45-3.734-.83.398-1.318 5.7-.263 10.114.744 3.115 3.024 6.98 2.97 4.88zm-.032-4.315c-.08-1.49.247-4.826.084-5.553-.215-.957-.783-1.82-1.104-2.05-.497-.36-.62.326-.45 2.115.405 4.196 1.08 7.373 1.47 5.487zm.42-7.64c.326-.587.198-1.21-.523-2.615-2.84-5.527-3.208-9.305-.243-10.677.333-.154.542-.183.763-.305.935-.518.58-1.457-.82-1.07-3.863 1.072-4.625 4.68-1.368 11.36 1.66 3.332 1.916 3.798 2.19 3.308zm.702-3.133c.05-.232.15-1.135.19-1.32.038-.185-.35-.717-.77-1.783-1.092-2.783-1.115-3.938.074-4.745.385-.226.782-.237.842-.497.093-.404.086-1.067-.157-1.26-1.704.012-2.49 1.004-2.79 1.947-.45 1.492.02 3.678 1.358 6.386.65.845.988 2.39 1.254 1.27zm1.303-3.6c.91-1.837.047-4.215-1.208-3.404-.814.526-.856 1.083-.356 2.61.608 1.862.967 1.992 1.563.793zm3.196-4.912c.364-.36.04-.877-.634-2.905-.578-1.737-.314-2.924.786-3.266 1.578-.388 2.136 2.185 2.468 3.27.17.84.723 1.07 1.213.487.137-.162.177-.297-.057-1.212-1.018-3.99-2.35-5.26-4.494-4.266-1.988.922-1.727 2.983-.286 7.318.193.58.32 1.01.46 1.07.114.05.34-.295.543-.495zm1.76-1.355c.472-.465.444-.255-.095-1.92-.615-1.9-.94-2.295-1.6-1.642-.405.4-.2.842.263 2.395.54 1.805.683 1.908 1.434 1.167zm82.418-6.5c3.138-2.16 1.845-6.033-2.285-7.47-.488-.17-1.024-.374-1.193-.455-1.897-.91-3.373-1.192-3.378-.48-.002.418.567.63 2.387 1.513 2.69 1.308 3.3 2.82 1.97 4.723-.956 1.374.837 2.946 2.5 2.17zm2.848-4.715c.272-1.108.677-2.058.87-2.703.267-1.01-.076-.776-.747-.618-1.728.894-2.966.408-2.125 1.64.932 1.636 1.703 2.9 2.003 1.68zm-.215-3.872c2.155-1.287 2.633-4.64.627-6.24-.48-.38-1.31-.885-2.314-1.19-2.04-.622-4.987-.904-6.067-.577-.233.272-.242.7-.01.826.3.11.844.185 1.63.264 2.998.304 4.478 1.195 4.334 3.317-.148 2.188-1.902 3.028-5.068 2.337-1.702-.372-2.495-.192-1.812.205.812.472 2.56 1.092 4.28 1.43 1.472.257 3.15.356 4.4-.372zm-10.344-.552c2.425-5.428 3.702-19.67-10.16-29.962l.46 2.848c8.166 7.136 10.128 16.224 8.436 24.56zm12.374-9.732c-.867.56-1.593 1.143-2.707 1.64-.667.297-.684.37.222.862.438.24 1.16.677 1.436.975.48.516 1.045.713 1.257.526-.023-.807.255-3.48-.21-4.002zm-4.102 1.03c2.808-.886 4.31-2.233 3.99-4.486-.47-3.305-3.242-4.004-8.436-2.712-2.498.62-2.72 1.79-.35 1.188 2.994-.762 5.345.39 5.027 2.574-.186 1.885-1.706 2.983-4.376 2.984-1.41 0-1.845.125-1.654.632.13.343 4.642.183 5.8-.18zm-4.636-7.854c4.59-1.568 6.724-4.006 5.676-6.737-1.235-3.216-5.24-3.248-9.265-.255-1.88 1.372-1.592 1.88.23 1.182 2.36-1.082 3.88-1.25 4.847-.39 1.747 1.554.57 4.263-2.08 5.234-1.283.532-1.695.825-1.697 1.21-.004.606.23.46 2.29-.244zm7.743-.05c.117-.952-.962-4.253-1.428-3.493-.123.202-.552 1.134-1.094 1.618-1.578 1.41-1.28.876.288 1.308.872.24 2.103.85 2.233.568zm-12.14-7.054c4.64-2.68 6.41-6.507 4.006-9.05-2.162-2.286-5.745-.955-9.073 3.2-1.526 1.907-.38 1.668 1.678-.145 2.397-2.11 5.445-1.092 5.428 1.543-.007 1.126-1.604 3.02-3.115 3.9-.47.272-.538.69-.372.964.18.294.556.104 1.45-.412zm8.133-2.797c-.242-.72-1.988-3.813-2.363-3.707-.396.793-.425 1.837-.9 2.677-.646 1.265-.564 1.066 1.496 1.06 1.534-.005 1.72.21 1.767-.03zm-13.637-3.496c3.898-4.033 4.242-8.755.59-9.842-2.024-.6-5.258.856-5.268 2.362-.006.937.17 1.108.99.77 3.445-1.276 6.175 2.025 3.01 5.82-.77 1.1-.872 1.375-.648 1.602.263.265.476.166 1.326-.713zm41.988-34.484v-106.886h-22.814l-18.12 28.217-.028 6.984c0 .242.412.39.678.088 1.03-.794.633.04-.552 1.837-1.197 1.817-.83 3.314.48 5.254 2.774 4.112 4.22 11.66 3.04 15.65-.446 1.507-.545 2.115-.254 2.958.332.964.537 1.48 1.5 2.1.838.582 7.73 3.26 18.83 10.377l-.053-50.216 6.996-6.684 7.39 7.048.258 82.905c.003.877 1.72 1.276 2.65.368zm-4.002-83.036l-6.187-5.745-6.117 5.66c-.032 27.004.155 82.428.155 82.428l6.08.436s.445-1.265-.124-4.533c-.855-4.905-.802-10.895.57-20.006.856-5.59.006-10.436-1.29-15.54-1.126-3.4-1.166-6.548-.962-9.59.433-4.85 1.772-8.514 1.936-15.493.093-3.98-.097-7.874.05-12.782.06-.657.337-.576.387.102.187 4.442.36 8.66.4 12.998-.133 5.64-1.517 11.445-1.67 16.608-.113 3.577-.17 4.814 1.344 9.17 2.38 6.843.814 17.357.786 17.544-1.01 6.736-1.744 15.353 1.663 21.8l3.3.293zm-42.568 50.943c1.826-.836 2.187-2.313 1.204-5.87-.175-.634-.375-1.388-.444-1.675-.21-.878-.606-.974-1.134-.276-.316.416-.025.513.46 2.468.732 2.955.307 3.933-.795 3.926-.977-.007-1.738-.81-2.017-2.727-.095-.654-.235-1.1-.393-1.363-.266-.44-.586-.36-.843.125-.334.627.293 3.213 1.126 4.466.904 1.264 1.526 1.524 2.836.924zm-.497-2.654c.39-.728-.093-2.52-.344-3.692-.232-.655-.496-.814-.93-.708-.647.158-.615.863-.38 2.025.476 2.367.734 2.666 1.654 2.376zm5.55-4.268c2.088-1.187 2.288-3.235.884-6.958-.574-1.527-1.29-2.602-1.685-2.613-.155.97-.3 1.488-.125 1.87.163.353.437.895.633 1.348 1.188 2.747.868 4.33-.28 5.188-1.07.8-.393 1.475.574 1.165zm-68.36-1.432c4.9-1.045 9.318-8.893 12.1-15.892 2.535-7.052 5.23-14.8 5.657-21.26 0 0-1.853.085-2.08.466-.21.376-.302 1.187-.5 2.34-1.276 5.945-2.29 10.46-4.52 16.046-1.546 3.878-3.234 8.267-7.422 14.164-1.377 1.648-2.95 2.67-4.93 2.944-.503.07-1.35-.024-1.564.126-.375.264-.037.863.93 1.105.87.216 1.75.075 2.33-.04zm67.5-.918c.747-.792.82-1.733-.018-3.723-.236-.558-.343-.874-.622-.796-.59.163-1.28 1.71-.873 3.02.532 1.71.842 2.208 1.51 1.498zm-69.21-1.246c1.436-.19 3.254-1.328 4.567-3.11 2.7-3.52 4.562-7.526 5.943-10.64 1.106-2.508 3.104-7.923 3.646-9.884 1.152-4.165 1.783-6.853 2.308-9.835.05-.274.095-.712.014-.854-.57-.156-1.815-.063-2.197.32-.688 4.78-2.287 9.58-3.456 13.567-1.97 6.785-7.588 17.637-10.65 18.15-1.65.274-3.536-1.153-3.232-2.618.186-.9.31-1.242.752-1.468 1.068-.374 1.69.35.518.823-1.358 1.176 1.085 2.974 2.585 1.718 2.544-2.13-1.193-6.21-4.25-4.334-3.39 2.076-2.52 5.673-.388 7.383 1.074.862 2.32.983 3.843.78zm23.995-4.87c2.093-2.142 3.665-4.914 4.81-8.38 2.478-7.784 4.532-16.707 5.277-23.697 0 0-1.79-.184-2.187.193-.28.266-.012.52-.773 5.627-1.277 7.447-3.14 14.843-5.832 21.244-1.104 2.588-1.417 2.906-2.196 4.25-1.088 1.9-.685 2.382.9.76zm46.444-16.227c-.194-.1-.177-.035-.26.022-.285.197-.1 1.19.55 2.726 1.706 2.745 1.905 8.074 1.794 10.076-.034.6-.097.945.086 1.48.182.524.5 1.134 1.01.112.562-3.945.12-8.075-1.396-11.42-.535-1.19-1.058-2.35-1.784-2.997zm1.314 11.633c.3-1.06-.253-5.27-.938-6.75-.277-.596-.776-.642-.716.035.005 1.46-.152 4.232.005 5.054.747 1.715 1.327 2.806 1.65 1.66zm-3.864-17.005h-.805c.028 2.753-2.42 3.52-3.325.212l-.725.168c.964 4.666 5.32 2.527 4.856-.38zm-4.897 2.075c-.42-1.222-.246-1.668-1.308-1.12-.81.42-1.297.868-.155 1.416 1.016.43 1.727.477 1.462-.296zm6.135-.703c.336-.678.296-1.29-.21-1.293-.392-.002-.5.31-.61.966-.2 1.174.292 1.39.82.327zm.426-4.575c.31-.098.223-.534.14-1.088-1.328-1.84-4.612-1.276-5.79-.91-1.364.44-1.705.276-2.632-.148-.766-.142-.874.044-1.06.41-.164.32-.193.93-.247 1.994-.044.898-.01 1.316.302 1.035 1.216-1.088 2.623-2.448 4.677-2.532 2.487-.102 4.612 1.28 4.61 1.24zm-9.04 2.49c-.002.37.315.14 1.125-.367 2.947-1.745 4.654-1.498 7.177-.666.562.185.91-.4.3-.9-2.996-2.454-6.687-.89-8.602 1.933zm10.68-11.306l15.987-26.357-89.072-.065 15.124 27.983c12.332-2.845 32.633-6.48 57.96-1.56z" fill="#131f67"/><path d="M1067.615 2014.89c1.887-2.807 11.23 2.192 11.724 4.173 5.528-4.34 12.242-4.656 17.645.776 5.556-6.056 11.503-5.642 17.69-2.135-.69-1.368 7.91-7.41 13.14-3.57l14.138 25.107-90.58.29c5.352-8.007 10.092-17.572 16.242-24.643zm-39.565-130.953c-.492-1.36-2.48-15.306 2.562-15.654 8.15 3.603 18.555 16.49 23.375 24.365 5.974 9.758 12.01 32.198 8.677 31.218-.48-.142 10.288 10.61 11.03 11.66 1.22 1.725-18.154 33.896-21.354 32.742-.968-.35-7.42-4.19-7.42-4.19l.185-10.733s10.14-19.96 10.7-26.628c.213-2.52-6.975-6.834-7.304-7.705-.818-2.17-.72-10.23-4.91-13.75-2.31-1.4-4.49-.954-6.832-.656-9.506-1.583-4.58-17.557-8.708-20.67zm158.992 7.165l.057 3.96c-6.26 1.36-17.322-3.926-20.67 4.59.414 9.198 2.48 13.323 3.923 16.1 1.085 2.495 8.696-.35 11.377 2.165 7.69 9.44 5.876 22.01 5.944 33.336l-3.337 1.68c-23.06-13.56-40.766-55.69-43.22-67.683-.156-7.7 21.156-32.445 21.156-32.445.048-.054 7.764 4.684 7.764 4.684.187.074-.164 32.475-.162 32.325 6.094.313 12 .906 17.167 1.287zm-46.848-29.615c-11.83 16.917-15.832 42.2-15.072 59.836 1.534 26.33 20.35 49.805 19.09 52.023-.213-.154-.71.108-.898-.06-4.334-3.843-7.36-3.17-9.577-3.205-4.236-.066-5.407 1.194-7.837 1.434-6.206.614-5.703.77-10.967-1.207-6.643-5.402-15.54-9.544-22.622-11.722-5.675.51-14.33 3.183-17.604 1.018 22.77-41.906 19.36-68.733-4.213-112.656 1.955.574 2.258 2.394 3.722 2.843 4.845 1.867 11.52 1.16 15.523-.582 4.344-1.95 8.446.906 8.39.81 8.555 6.024 18.906 9.91 24.294 12.595 1.592.82 3.604-.474 5.362-.83 3.602-.726 6.69-2.263 9.377-1.363.863.29 2.15.642 3.034 1.067zm-53.156-54.84c-1.16-2.15-13.015-24.644-13.015-24.644l88.19.53-13.23 21.7c-1.25 1.18-7.464 4.462-13.804-2.972-.12 1.07-9.408 7.676-17.392-.28-4.805 4.354-9.706 6.877-17.79 1.975-.18 1.367-6.484 7.498-12.96 3.693z" fill="#e2cf00"/><path d="M1096.687 2019.336c-8.544-7.99-17.44-.778-17.236-.32-3.38-3.43-6.688-6.24-11.146-4.86 0 0 0-1.202.034-1.23 13.29 2.428 33.648 3.057 57.443-1.912l1.223 2.55c-6.382-2.265-9.67.79-12.5 4.354-10.242-6.378-12.74-.782-17.816 1.418zm19.93-92.925l6.045-.117c1.14 17.558 15.826 44.426 16.18 44.426-1.024-1.42-10.72-.3-10.65-.122-5.33-14.207-11.185-28.4-11.575-44.187zm-35.257 41.654s-1.945-5.033-3.11-7.187c6.348-10.824 11.554-22.027 14.224-34.486l4.323.04c-1.28 17.2-15.064 43.32-15.437 41.634zm77.767-2.303c9.52-17.157 7.878-41.888-19.134-55.556 0 0 .704-18.128 2.713-18.17.453.14 12.226-.15 12.226-.15 3.084-7.56 8.048-16.703 14.983-22.876l.174 20.263c-5.134.506-8.264 2.142-9.82 6.15l-7.11 1.583c.522 20.355 8.19 39.163 30.936 56.056-5.435 4.664-24.014 14.135-23.942 13.97zm-113.97-12.788l.202-21.1c3.45-.745 6.167.253 9.015-5.92 0 0 4.78 2.265 6.367 3.1-4.467 7.984-8.324 16.514-15.585 23.92zm45.284-37.36l.235-10.71 10.183.292c-.864 3.633-1.134 7.265.02 10.898zm23.233-.128c.696-3.506 1.192-7.03-.25-10.75l11.027.188-.26 10.668zm-20.97-20.948c-1.834-21.01-16.25-44.792-16.45-44.286 1.697.272 4.688 1.112 6.334.334 1.993.33 3.72.105 3.814-.08.133-.734 13.4 30.507 11.63 43.984-.212.456-4.895.486-5.327.048zm25.487.184c1.556-9.706 5.572-27.46 15.06-41.86 1.077 2.557 1.982 5.186 3.46 7.575-7.15 10.394-11.56 22.274-14.233 34.4zm-65.935-5.232c-4.34-8.844-22.397-22.767-21.473-21.36 7.474-6.692 15.81-10.943 24.13-15.236 0 0 1.48 1.402 1.256 1.755-5.115 8.053-7.595 25.116-2.642 34.895 4.76 10.445 13.203 16.62 21.81 21.468-.665 6.53-.99 11.25-2.598 17.744 0 0-5.41-2.84-9.843-4.67-.705-12.333-3.26-23.364-10.64-34.596zm47.822-86.663c6.364 3.875 12.064 3.467 17.59-1.792 6.937 6.287 14.44 3.36 17.61.524 2.932 3.3 6.754 5.133 12.344 4.042l-1.384 2.902c.33-1.542-38.547-4.06-57.358 1.2 0 0-1.1-2.19-.977-2.208 1.638-.1 7.087 1.917 12.177-4.67z" fill="#d40000"/><path d="M1001.678 1765.348v2.957l2.842-.154v25.523l-3.072.014v3.034h8.525v-3.033h-2.228v-7.34l3.72-4.837 4.882 12.177h-3.072v3.034h9.33v-3.033h-2.586l-6.515-15.595 6.668-9.94h2.088v-2.804h-8.985v2.803h2.822l-8.352 12.188v-12.187h2.228v-2.802zm71.05 15.958l15.716 29.244s.46-.085.69-.13c21.782-4.253 39.034-4.834 57.563-1.58l16.472-27.225c-29.98-.34-90.442-.31-90.442-.31zm1.752 1.245l87.39.097-4.916 8.055c-2.943-.908-4.584.44-4.996 3.26 0 0-.364-.158-1.047-.232-4.306-.465-4.85 5.206-.83 5.89 1.027.175 1.2-.03 1.2-.03-3.585 3.01-5.622.98-7.31-.013-.045.35-3.214 2.73-6.2-.115 4.277.427 4.943-3.857 2.898-5.487-.428-.42-.864-.75-.864-.75 1.007-.875 1.226-2.04.58-3.373-1.297-2.68-5.363-2.525-5.985.403-.243 1.14-.25 1.34-.25 1.34-3.284.214-3.952 3.31-2.823 5.03.642.977 2.052 1.19 3.355 1.123-1.756 2.485-5.775 1.64-7.565-.408-2.844 3.34-6.086 2.933-7.704 1.143 1.1-.012 1.857-.028 2.866-.96 1.724-1.595.877-4.422-1.56-5.213-.474-.154-.815-.185-.84-.188.016-.024.062-.18.167-1.032.606-4.93-6.786-4.443-6.072.408.083.563.235.864.235.864s-.784-.043-1.233.164c-4.106 1.89-1.277 7.1 1.896 5.76.3-.127 1.12-.53 1.238-.523-3.93 4.868-7.228 1.417-8.097.888-2.654 3.934-7.263 1.25-7.358.975.287.08 1.15-.1 1.973-.518 2.597-1.353 1.862-4.835-.164-5.593-.62-.216-1.37-.24-2.212-.172 0 0 .064-.877-.02-1.186-1.276-4.74-7.177-2.374-5.726 1.632.127.35.47.706.47.706s-.8.485-1.156.806c-2.817 2.533.05 6.71 3.34 4.973.425-.224.837-.695.956-.667-1.55 2.827-3.898 3.814-7.248 1.473-2.067 3.273-5.44 1.913-6.39.273 3.15.288 5.197-5.746-.858-5.942-.47-1.638-.448-4.135-4.287-3.705zm-20.448 3.52c-3.287 8.715-12.568 16.603-17.942 26.42-6.073 9.935-4.166 20.097 4.1 21.854 4.33.92 9.983-3.245 10.487-7.728.103-.916.44-1.4 1.056-1.325.48.06.436 1.24.254 2.66-.663 4.662-3.19 12.06-6.46 15.47l15.206.01c-.61-.345-6.288-7.438-5.736-16.042.01-1.538.01-2.05.69-2.044.548.003.554.256.716 1.766 1.025 9.55 12.9 10.586 16.628 1.454 1.883-4.608-.09-12.81-5.054-19.824-3.77-6.17-10.186-13.347-13.944-22.67zm6.7 57.36c.034.02.057.022.06 0zm56.425-50.525c.694 0 1.253.564 1.253 1.257 0 .694-.56 1.258-1.253 1.258-.693 0-1.257-.564-1.257-1.258 0-.693.564-1.257 1.257-1.257zm19.527.15c.735 0 1.33.598 1.33 1.333s-.595 1.33-1.33 1.33c-.735 0-1.33-.595-1.33-1.33 0-.735.595-1.334 1.33-1.334zm-38.276 1.453c.71 0 1.282.573 1.282 1.282 0 .708-.573 1.286-1.282 1.286-.708 0-1.286-.578-1.286-1.286 0-.71.578-1.282 1.286-1.282zm54.83 1.58l-1.112 1.977c-1.23-1.077-.382-2.488 1.113-1.978zm-70.118 2.726l-1.107-2.045c1.982.133 1.398 1.552 1.107 2.044zm33.874-1.114c7.5 8.545 14.226 6.018 18.624.336 1.887 4.843 6.09 8.19 13.325 4.935-.437.775-1.536 2.14-1.536 2.14-6.393 1.724-9.567-1.285-12.033-4.15-6.505 5.4-12.63 4.09-17.684-.673-4.314 5.43-11.3 6.598-17.765 2.165-2.956 4.363-7.196 6.124-12.528 3.94 0 0-1.13-1.777-1.23-1.89.774.648 10.593 4.724 12.99-5.08 3.42 5.802 14.626 6.11 17.837-1.722zm.754 3.514c8.436 7.888 17.29 1.067 17.515.585.133.438 4.948 6.187 11.89 4.027l-1.128 1.934c-13.063-2.21-25.08-3.63-52.6.42 0 0 4.393-1.302 6.615-4.806 1.237.803 10.784 6.132 17.708-2.16zm-106.657 2.237c-.767 1.86-2.022 3.783-3.07 5.5-4.938 7.66-5.22 8.396-5.612 11.1-1.1 5.29 5.15 7.432 7.142 3.82.893-1.526 1.455-.533 1.056.912-.254 2.538-2.838 5.48-2.846 5.424l7.57.058s-3.248-3.308-3.197-5.962c.004-1.213.65-1.25 1.44-.158 2.26 3.118 6.47.61 6.5-3.826.016-2.718-.81-4.242-5.728-11.56-1.072-1.6-2.254-3.616-3.254-5.307zm77.09 4.3s3.672.432 3.96.505c.322.25-3.092 1.188-3.106 1.12zm7.444 37.638c-.222.008-.5.258-.96.71-.996.98-1.222 1.11-2.188 1.25-.73.104-2.268.99-3.202 1.842-.252.23-.734.423-1.31.523l-1.532.264c-.34.06-.712.167-.825.236-.49.298-1.29.344-2.184.13-.864-.208-1.002-.203-1.954.09-1.387.427-2.295.428-2.977 0-.682-.427-1.766-.587-2.453-.364-1.016.327-3.65-1.25-3.643-2.18.002-.212-1.496-1.333-1.872-1.335-1.334-.198-13.058 4.43-12.998 4.7 14.396 17.78 26.514 44.87 17.385 78.02l-1.613-.774c1.355-6.025 1.89-12.09 2.308-18.25-27.02-11.664-29.347-38.792-18.86-55.92l-1.78-1.895c-6.355 3.39-12.813 5.317-28.522 18.494l.043 21.33c.038 19.285.028 38.075.028 38.075 5.685.63 11.946 1.143 18.12 1.675 0 0-.08 19.07-.22 26.53-.12 6.31.115 5.913.115 5.913l20.448 10.78c-1.436-5.677 2.11-7.933 5.08-7.697-1.313-5.474 1.944-7.98 5.663-7.278 2.513.475 3.392 1.86 4.83 6.437.233.744.554 1.74.554 1.74l1.433-.054c1.794-3.85 2.993-8.753 7.213-9.39 5.524-.83 7.582 2.965 7.58 6.76 5.352-4.717 11.763-1.066 11.346 5.98 2.692-1.73 7.255-3.297 10.13 3.38 1.08-.23 1.632-1.433 3.152-1.81.57-.12 1.858-.81 1.858-.81l.016-.233s1.195-.413 2.797-.676c1.374.514.973.497 1.714-.417.825-.423 2.163-.7 3.196-.61 1.082.098 1.564.176 2.198-.1.99-.43 1.912-.54 2.498.11.42.47 1.027.243 1.68.217 1.304-.053 3.043.483 3.585 1.656.8.815 2.55 1.64 2.55 1.64l1.415-.325.163-.522 11.584-4.42c-23.618-25.862-23.002-60.17-17.44-77.536l2.137 1.027c-1.132 5.146-2.417 10.432-2.25 18.105 21.268 9.483 31.85 33.993 18.955 55.388l1.364 1.76c5.363-2.25 18.855-9.826 23.52-13.943l.992.082s2.828-1.83 4.076-2.808l.168-56.775-.99.258-.177-3.317-17.535-1.39c.223-.167.39-.235.44-.567l-.1-31.43c-.65-.997-15.337-9.6-20.798-11.612-.22 0-.068.37.01 1.268.268 3.083-1.814 5.827-4.225 5.832-.867.002-1.017.37-.974 2.14.06 2.518-.85 4.21-3.5 5.166-3.142 1.134-5.268-.51-7.017-6.975-.458-1.696-1.356-1.272-2.217 1.048-.427 1.15-1.81 3.946-2.635 5.42-.636 1.13-1.642 1.634-3.01 2.236-1.066.527-3.373.436-4.703-.24-2.412-1.225-3.347-2.696-4.042-6.34-.09-.477-.404-.436-1.186.153-4.257 3.207-10.244-.11-10.21-5.655.01-1.628-.056-1.693-1.012-.912-2.887 2.358-6.81 1.162-8.38-2.554-.37-.87-.565-1.257-.85-1.248zm-24.47 1.968c.3-.013 1.238 1.234 1.238 1.234.865.956 2.027 1.44 3.235 2.15.113-.168 14.096 18.598 16.474 44.473l6.505.033c-1.213-25.142-8.147-37.226-11.328-44.98l2.333-.74c5.23 10.023 11.607 30.364 11.395 48.173h-10.742c-1.517-17.838-8.453-35.23-18.154-48.423-.676-1.014-1.205-1.72-1.01-1.9.015-.014.034-.02.054-.02zm-4.114 2.655l1.09 3.42s.13-.8.465-1.1c2.123-1.913 4.154.605 3.197 4.022-.218 1.052-.643 3.125-.643 3.125s-2.134-1.094-3.207-1.445c-2.96-1.258-3.947-3.736-1.685-4.018.378-.047 1.157-.08 1.157-.08-.94-.74-3.015-2.43-3.015-2.43zm9.936.385c.894.507 3.202 1.055 4.527.557 1.07-.403 1.886-.182 3-.087.638.055 1.91-.225 1.91-.225 6.36 13.38 10.734 29.253 11.463 43.77l-5.002.03c-1.888-15.423-7.857-31.09-15.432-42.71-.335-.507-.78-1.316-.466-1.335zm20.895.23c1.937.024 3.963 1.954 5.065 5.112.613 1.76.853 1.653 1.675 1.368 2.113-.723 4.362 1.596 1.53 1.983-2.778.46-1.192 5.895-1.43 6.374-1.125.197-3.242-4.424-3.186-5.798.135-3.37-3.03-6.187-4.997-4.77-.932.67-.83 1.143-1.12.9-.884-.742-1.063-2.792-.027-3.954.748-.84 1.61-1.225 2.49-1.215zm57.534 1.162s.11 4.43-.058 5.41c-.33 2.953-4.188 3.264-4.34.902-.63.943-1.062 2.117-1.314 3.172l-2.736-1.882c1.04-.746 2.03-1.4 2.798-2.323-2.028.154-3.162-1.602-1.804-3.096 1.507-1.71 5.676-1.895 7.454-2.183zm-100.6 1.402l1.21 1.362c-10.78 19.11-6.98 43.537 19.042 56.37-.172 5.864-.923 11.794-2.323 17.296l-9.6-4.656c.065-21.606-12.17-42.204-31.7-55.743 7.087-5.695 14.927-10.696 23.372-14.63zm78.606.162c.458 2.522 2.847 7.092 3.02 6.83-.025-.15-9.942 12.702-14.252 34.196l-3.68.014c2.412-14.322 7.228-27.836 14.912-41.04zm30.562.6l1.96 1.185c-10.277 8.604-17.044 19.51-22.014 31.273l-2.597-1.23c7.707-17.06 15.32-24.638 22.652-31.228zm2.74 1.905c.54.035 1.177.715 2.166 1.258.967.53.726.812-1.095 2.208-2.153 1.65-2.356 1.578-2.337-.778.012-1.562.407-2.604 1.16-2.683.036-.004.07-.007.107-.005zm-2.365 2.43c.113-.007.204.03.264.124.158.624.142 2.052-.11 3.462-.203.928-2.965 3.26-3.95 4.18-.395.26-.576.165-.648-.297.03-.732.102-1.706.115-2.698.004-.305-.06-.625.216-.86 1.353-1.596 3.323-3.87 4.114-3.91zm5.13.758c.017 0 .028.002.04.01.254.152.212 3.355.033 3.566-.8.208-2.956-.132-3.51-.427-.12-.372 2.92-3.17 3.438-3.148zm-96.254 1.036l.748 3.14s.216-.42.27-.503c1.488-2.276 3.3-.942 3.27 2.217-.01.998-.918 4.987-.918 4.987s-5.585-2.68-6.024-3.858c-.432-1.158.182-2.177 1.21-2.27.384-.044.787-.076 1.23 0l-2.4-2.453zm63.946.42l2.533.935c-5.285 8.597-10.74 17.09-14.712 36.456h-10.62c1.484-11.835 4.495-23.47 9.867-34.794 0 0 2.087-.64 3.264-1.023 0 0-8.778 20.09-9.8 33.005l5.13.11c2.74-12.585 7.864-25.63 14.34-34.69zm-20.113.31c1.427-.052 2.48.952 2.4 2.732-.018 1.63-.168 1.865-1.32 1.215-1.514-.855-2.71-.873-4.066.096-.745.533-1.477.974-1.477.974s.654-2.83 1.656-3.72c.958-.854 1.95-1.264 2.807-1.296zm-5.448 4.187c-.104.957-.387 1.396-.64 2.212 0 0 .83-.324 1.23-.51 1.887-.88 3.854.75 3.825 2.66.084 1.274-1.3 2.8-2.948 2.813-.575.004-1.183-.177-1.77-.615.425 2.334.51 3.413-1.196 4.584-1.427.95-4.435-.136-4.266-2.745l.105-1.608-1.446.186c-4.035.165-4.106-4.802-.85-5.583 1.3-.307 2.713.76 2.713.76-.62-1.22-.63-3.315.2-4.283 2.05-2.382 5.294-.216 5.042 2.127zm35.236-3.1c.22 1.858.96 3.885.748 5.62-.314 2.217-2.2 3.53-3.68 2.092-.184-.178-.515-.548-.515-.548-.67.846-1.086 3.24-1.086 3.24l-2.616-1.613s1.817-1.276 2.32-2.002c.14-.202.205-.586.205-.586-1.456.455-2.69-1.033-2.294-2.347.787-2.152 4.702-2.95 6.916-3.86zm18.283 1.343c.978-.03 2.494.247 3.69.374.92.16.41.68-1.65 2.688-1.894 1.845-1.835 1.67-3.294 1.647-3.407-.06-4.004.018-2.02-2.123 1.04-1.122 1.946-2.135 2.692-2.51.158-.046.355-.07.58-.077zm-6.145.39c.043 0 .078.017.11.047.226.21.15 1.17.125 2.592-.026 1.51-.01 1.51-.643 2.303-.807 1.01-1.477 2.04-2.32 3.014-.728.79-.705.706-1.14-1.195-.424-1.844-.188-2.42 2.188-5.093.804-1.033 1.377-1.685 1.68-1.67zm10.642 1.05l.028 3.74c-7.03 6.875-11.81 14.608-15.057 23.13l-2.448-.974c4.24-10.89 10.59-19.38 17.477-25.896zm-60.95 2.26c-1.164 0-2.104.94-2.104 2.103 0 1.162.94 2.107 2.103 2.107 1.162 0 2.107-.945 2.107-2.107 0-1.162-.945-2.102-2.107-2.102zm-.016.663c.804 0 1.456.652 1.456 1.454 0 .803-.652 1.455-1.455 1.455-.8 0-1.448-.652-1.448-1.455 0-.802.647-1.454 1.45-1.454zm-78.115.888c21.933 14.072 31.768 35.886 31.724 54.625l-1.24-.556c-1.283-26.48-15.676-42.76-31.233-53.296zm129.85.203c.498.002 1.173.08 2.15.192 1.817.097 2.04.21.79 1.646-.344.394-1 1.216-1.465 1.835-.464.618-1.028 1.264-1.287 1.353-.38.132-3.57-.018-4.478-.144-.298-.04.093-.345 1.646-2.563 1.192-1.7 1.318-2.262 2.444-2.313.064-.002.13-.005.202-.004zm9.136.72s.436 12.07.12 19.766c-5.003-.186-7.94 1.713-9.163 5.308l-5.256-2.602c3.858-9.905 9.015-16.797 14.3-22.473zm-15.484.278c.284.005.446.594.528 1.753.33 2.075.294 2.316-.572 3.648-.43.664-1.022 1.6-1.31 2.084-.502.845-.86 1.096-.984.687-.685-2.238-.9-3.623-.658-4.075.4-.742 2.266-3.394 2.53-3.74.183-.238.336-.356.466-.354zm-125.113.227c17.63 10.915 30.528 29.558 31.06 52.08 0 0-3.756-1.763-6.076-3.053l-.12-2.19 1.224-.037.394 2.467 2.693-.086-.715-6.16-4.214.4-.85-3.49 1.277-.273.705 2.25 2.74-.724-1.458-5.485-4.234 1.156-1.353-3.704 1.406-.504 1.14 2.217 2.576-.898-2.433-5.5-3.893 1.837-1.978-3.59 1.522-.812 1.224 2.136 2.41-1.248-2.98-5.06-3.697 2.064-1.857-2.784 1.147-.8 1.268 1.463 2.116-1.5-3.244-4.362-3.538 2.77-2.616-3.03 1.205-1.022 1.8 1.613 2.012-1.758-3.854-4.204-3.37 3.072-2.51-2.18 1.228-1.358 1.565 1.195 1.667-1.973-4.195-3.456-3.145 3.11-3.014-1.99v-1.484c.98.377 2.015.817 2.942 1.31l1.56-2.362-4.502-3.038zm49.1.93l.666 3.85c.632-1.046 1.136-1.767 2.505-1.363 1.644.67 1.667 3.146.274 6.936-.26.703-.577 1.31-.577 1.31s-.72-.298-1.2-.628c-1.006-.688-2.7-1.467-3.567-2.832-.907-1.43-.927-3.43.74-3.26.33.003.983.16.983.16l-2.5-3.188zm-50.07 1.148l3.053 1.968-.634 1.152-2.42-1.09zm76.537.907c.884 1.237-2.228 4.88 1.843 6.336 0 0 .1.84-.75 1.35-1.99 1.448-4.85-1.197-3.964-3.918.567-1.74 2.207-3.758 2.87-3.768zm8.448.115s1.227.897 1.473 1.133c2.268 2.174 2.29 5.29.237 6.38-1.366.724-2.91.14-3.447-.912-.248-.488.16-.997.682-.994.978.006 1.724-1.868 1.435-3.84-.115-.782-.38-1.767-.38-1.767zm26.746.725s.27 2.664.657 3.845c1.192 3.312-.33 5.328-2.552 4.22-.318-.16-.88-.88-.88-.88l-.22 3.807-3.163-.92c.684-1.1 1.67-1.883 2.405-3.12 0 0-.474-.018-.888-.02-1.89.065-2.586-2.03-.605-3.754 1.476-1.273 5.247-3.178 5.247-3.178zm16.536.884c.382-.003.86.028 1.516.028 2.007.002 2.522-.27 1.637.98-.345.486-1.186 1.842-1.435 2.304-.506.936-.607 1.23-1.45 1.416-1.22.24-2.603.074-3.998.14-.303-.016.32-1.055.667-1.7.852-1.582 1.37-2.668 2.103-3 .287-.13.577-.166.96-.168zm-6.202 1.224c.243-.013.422.42.653 1.32.54 2.096.678 2.148-.19 3.868-.44.868-1.187 2.34-1.494 2.948-.788 1.56-.833 1.545-1.33.148-.952-2.68-1.035-2.404.538-5.414.982-1.88 1.47-2.852 1.824-2.87zm-115.69.734l2.836 2.275-.806.782-1.57-1.157-2.318 2.48 3.81 3.477 3.227-3.178 2.765 2.89-.845.715-1.623-1.566-2.428 2.074 3.624 4.28 3.652-2.783 2.29 3-.936.586-1.493-1.45-2.376 1.648 2.957 4.166 3.725-2.136 2.116 3.48-1.176.566-1.2-1.91-2.674 1.54 2.525 4.873 4.023-1.68 1.618 3.72-1.228.5-1.032-2.238-2.707 1.07 1.814 5.117 4.08-1.172.99 3.802-1.26.35-.618-2.107-2.598.624 1.085 5.136 4.152-.264.494 4.152-1.292.058-.32-2.477-2.646.033c.014.873.115 2.654.115 2.654l-1.597-.74c-2.375-15.787-10.844-28.946-23.463-38.107l-.067-1.886 3.072 1.95s2.817-2.51 3.303-3.15zm121.196 3.682c.88-.007.49.675-.58 2.716-1.197 2.277-1.41 2.325-3.65 2.87-2.723.665-2.644.814-1.17-2.327.568-1.21.982-2.27 1.502-2.674.683-.527 2.005-.325 3.442-.54.18-.028.33-.043.456-.044zm-127.422.672c13.104 8.454 21.388 25.94 22.416 36.542 0 0-.355-.238-1.07-.566-.994-.456-1.238-.754-1.527-2.2-2.595-12.963-9.913-23.965-19.76-31.732zm118.172 2.164c.555-.115 1.564 3.865 1.262 4.7-.216.6-2.166-.817-2.875-1.12-.353-.15 1.24-3.502 1.614-3.58zm-63.192.183l-.063 4.128s.496-.59.753-.778c.974-.71 2.463.275 2.52 1.493.078 1.69-.178 2.376-1.53 4.723-.42.728-1.053 1.652-1.053 1.652s-1.598-1.14-3.345-2.88c-1.89-1.88-1.528-4.393.124-4.4.494-.005.935.163 1.368.3-.357-1.215-1.685-3.575-1.685-3.575zm51.22 3.09s.856 1.127 1.84 4.09c.938 2.83-.507 4.96-2.468 3.893-.35-.19-.72-.604-.72-.604-.138 1.37.106 3.84.14 3.86l-3.164-.553s1.737-2.758 1.862-3.44c0 0-.196.153-1.065.153-3.18-.002-2.52-3.783 1.152-5.88.55-.315 2.423-1.517 2.423-1.517zm18.222.05c.687-.032.363.634-.4 2.188-.84 1.718-.63 1.57-2.408.662-2.488-1.215-2.34-1.405.81-2.256.997-.37 1.637-.58 1.998-.596zm-45.11.503c2.49.015 4.327 2.473 3.96 5.966-.634 5.998-.27 5.628.383 6.226 1.19 1.09-.42 1.745-1.838.706-.988-.724-1.31-1.438-1.264-4.748.053-3.803-.152-4.772-1.512-4.44-.85.208-1.116.93-1.022 3.495.13 3.6-.107 4.507-1.474 5.66-1.474 1.14-3.065.123-1.718-.63.615-.692.73-1.573.494-3.75-.26-1.852-1.34-8.517 3.99-8.485zm61.588 3.024c.313-.006.628-.002.946.01 4.793.18 16.915 1.166 16.915 1.166l.106 3.58c-.543.334-9.59-1.045-16.245-.92-1.556.028-2.657.715-3.782.138 1.08.448.98 5.85-3.778 4.54-4.035-1.45-2.07-6.907 3.092-8.284.887-.12 1.806-.212 2.745-.23zm-26.674 2.4l10.36 5.107c1.45 19.446 8.162 39.99 31.026 55.565-3.704 2.65-12.996 9.16-23.616 13.617l-.87-.93c12.61-21.445 3.084-45.047-18.997-55.73.06-5.95.808-11.823 2.098-17.63zm36.437 3.26c1.987-.078 2.504.15 2.674 1.05.16.85.79 1.05 1.54.778 1.823-.664 2.936 2.57 1.425 4.003-.937.89-.773 1.234-.004 1.24 1.904.01 1.85 2.503-.086 3.916-.803.585-.792.85.048 1.266 1.407.694 1.124 2.067-.662 3.197-.972.614-1.004.765-.202.984 2.02.55-.04 3.43-2.25 2.918-.908-.21-1.77-.014-2.636.552-2.367.986-2.764 1.182-5.32.864-2.242-.41-3.245-1.15-3.824-3.12-1.316-4.004-2.735-8.442-2.75-12.815-.2-2.685 4.3-5.113 6.433-5.218 1.737-.26 3.73.367 5.615.384zm-141.682.066c2.38 0 4.31 1.93 4.31 4.31s-1.93 4.31-4.31 4.31-4.31-1.93-4.31-4.31 1.93-4.31 4.31-4.31zm47.904 1.268l-.39 3.768s.635-.495.784-.62c1.122-.937 2.894.11 2.492 1.57-.13 1.286-2.35 5.107-3.235 5.91 0 0-3.56-3.88-3.94-4.638-.847-1.686.31-3.443 1.847-2.698.22.107.854.577.854.577l-1.128-3.577zm-47.616.302c-1.523.052-2.97.987-2.774 2.232.13.532.942-.236 1.743-.74.612-.385 1.35-.446 2.048-.143.62.22.885.79 1.244 1.233.304.373.637.678.825.495.16-.198.095-.445.053-.667-.328-1.698-1.732-2.452-3.14-2.41zm116.08.586l1.54.787c2.075 27.482 15.97 43.64 30.572 53.262l-1.16.7c-17.92-11.48-30.36-32.046-30.952-54.748zm2.333 1.128s3.87 1.98 5.894 2.894l.077 2.487-1.353.048-.46-2.337-2.813.202.878 5.75 4.536-.557.635 3.475-1.536.322-.788-2.136-2.602.633 1.685 5.587 4.09-1.32 1.28 3.653-1.372.5-.878-2.142-2.693.942 2.083 5.453 4.258-1.368 1.718 3.412-1.29.57-1.233-2.116-2.554 1.305 2.995 5.092 3.845-2.016 1.795 2.722-1.41.946-1.283-1.666-2.068 1.363 3.312 4.523 3.31-2.482 2.477 2.857-1.094.97-1.69-1.714-2 1.786 3.944 4.328 3.428-2.976 2.433 2.266-.72.758-1.637-1.022-2.168 2.304 4.142 3.605 3.288-3.605 2.79 2.054v1.517l-2.492-1.263-1.67 2.515 4.16 3.15-.028 1.237c-23.757-14.174-30.008-36.157-31.22-52.508zm-48.64.273c1.028-.03 2.112.935 3.904 3.01 5.006 5.8 3.67 14.77-2.876 19.45-.952.68-1.335.62-2.5-.38-6.713-5.768-7.1-13.48-1.123-20.256 1.034-1.17 1.798-1.8 2.597-1.825zm23.996.797c1.234 1.893 2.793 3.84 2.97 6.14-.088 2.272-1.62 2.69-3.206 1.367-.2 1.193.48 3.518.48 3.518l-2.87-.307s1.126-1.966 1.17-3.196c-1.992 1.388-3.514-.422-3.244-1.882.57-2.483 2.61-4.157 4.7-5.64zm-23.91 1.483c-.235.02-.48.18-.854.48-1.748 1.403-3.122 3.147-3.835 4.96-1.504 3.822-.522 8.132 2.87 11.476 1.725 1.7 2.332 1.583 4.974-1.93 2.214-2.94 2.674-6.74 1.31-10.04-.665-1.61-1.87-3.18-3.316-4.32-.556-.438-.845-.65-1.147-.625zm55.22.706l2.227 1.095c2.842 18.742 12.052 30.176 22.373 38.06l-.02 1.737-2.77-2.145-3.315 3.47-2.688-2.203 1.008-.98 1.53.975 1.96-2.194-3.855-3.437-3.36 2.912-2.8-2.88.85-.71 1.935 1.69 2.165-1.92-3.744-4.2-3.35 2.54-2.338-3.102 1.018-.605 1.224 1.68 2.582-1.608-2.73-4.2-3.894 1.997-1.992-3.59 1.133-.543 1.29 2.017 2.424-1.166-2.438-4.953-3.98 1.315-1.463-3.897 1.137-.418 1.003 2.304 2.693-.863-1.83-5.333-4.112 1.162-1.018-3.922 1.272-.273.667 2.117 2.828-.566-1.037-5.077-4.21.532c-.14-.862-.76-3.187-.75-4.065l1.297-.106.408 2.237 2.833-.095zm-55.07.41c1.543.21 3.428 3.182 3.854 4.26.813 2.135.88 4.608.14 6.525-.608 1.567-2.424 4.347-3.577 5.13-.93.505-1.71.13-3.04-1.674-2.624-3.568-3.132-7.86-1.06-10.8 1.584-2.245 2.758-3.443 3.682-3.44zm58.056.925l1.118.528c1.374 10.86 7.81 25.765 20.477 34.68v1.364c-9.85-7.07-18.894-19.266-21.594-36.572zm-58.253.74c-4.412 3.325-3.706 8.53-.364 12.037 3.598-2.382 4.87-8.816.363-12.037zm-67.32.22c2.487-.057 4.065.81 4.823 2.535 1.177 2.68 1.337 3.188 1.58 4.593.137.804.35 2.016.47 2.693 1.292 7.28.34 10.025-4.08 11.16-1.32.34-3.16.45-4.445.14-.337-.082-1.572-.09-2.543-.12-1.928-.063-2.517-.267-3.485-1.052-.35-.283-.685-.51-1.104-.576-2.206-.35-2.865-2.37-1.19-3.864.953-.85 1.048-.963.96-1.11-.05-.08-.457-.15-.908-.152-2.223-.014-2.2-2.302.04-3.936 1.063-.777 1.543-1.51.84-1.33-2.03.478-2.744-2.485-.625-3.404 1.128-.63 1.938-1.16.85-1.218-.915.08-1.66-.596-1.38-1.39.34-.965 2.195-1.842 3.266-1.514.837.256 1.652.49 2.175.115 1.27-.912 1.836-1.323 2.928-1.47.633-.084 1.297-.102 1.83-.1zm73.953.557l10.224.197-.302 10.026-9.63-.182s2.112-4.48-.292-10.042zm-22.91.23l9.792.12c-1.614 3.78-1.01 7.663-.418 9.85l-9.586-.15zm16.353.015c2.63 1.533 3.354 7.115-.3 9.985-3.48-3.575-2.782-7.927.3-9.985zm-24.16 4.358l2.626.245-.936 3.76s.423-.447.562-.49c3.373-1.585 3.615 2.004.182 5.245-.76.715-1.977 1.695-1.977 1.695s-.955-1.445-1.714-2.75c-.862-1.314-1.448-2.72-1.3-3.466.213-1.083 1.516-1.8 2.347-1.138.41.326.883.82.883.82zm46.878 2.756s1.1 1.13 1.77 1.863c2.32 2.536 2.718 4.91 1.542 5.63-1.01.462-1.636.146-2.448-.513.17 1.572 1.417 3.893 1.387 3.897l-3.462.557s.854-3.15.783-4.34c0 0-.71.547-1.027.683-2.26.825-3.38-1.742-1.52-4.3 1.557-2.148 2.975-3.476 2.975-3.476zm47.275 4.753c2.323 0 4.205 1.882 4.205 4.204 0 2.323-1.882 4.205-4.205 4.205-2.322 0-4.204-1.882-4.204-4.205 0-2.322 1.88-4.204 4.203-4.204zm2.074 1.924c-.18.04-.33.458-.35 1.378-.21 1.886-1.78 2.646-3.495 1.77-.693-.352-1.284-.876-1.286-.474-.002.216.555 1.34.95 1.724 1.455 1.308 4.996.998 4.915-2.05-.037-1.434-.43-2.414-.733-2.347zm-76.345 1.58c.457-.03 1.036.158 1.407.542 1.148.784 1.366 1.787 1.44 5.572.063 3.338-.005 3.42.546 3.826 1.35.99 2.162-.52 1.776-3.903-.37-3.256.802-5.624 2.77-5.61.968.005 1.148.574.413 1.3-.776.766-.964 1.702-.72 3.585.623 4.826.084 7.195-1.944 8.175-2.115 1.02-4.836-.152-5.313-2.823-.306-1.78-.303-3.894-.09-5.885.037-2.093-.01-2.332-.74-3.532-.517-.806-.132-1.21.455-1.248zm-53.203 1.564c1.168 0 2.383.677 3.11 2.176 1.75 3.617-2.044 6.592-5.526 6.826-6.043.09-13.225-.782-19.29-1.59l.095-3.417c5.566.322 11.842.774 18.604 1.09-.77-3.178 1.055-5.08 3.005-5.084zm31.785.702l3.365.744-2.14 3.5c.634-.276 1.073-.467 1.708-.236 1.37.495 1.39 2.232.384 3.855-.795 1.178-3.03 2.586-4.556 3.45-.857-1.84-2.75-5.06-1.997-6.82.4-.934 1.507-1.39 2.54-.878.34.204.992.537.992.537zm7.953.096l10.253.12c-1.49 10.366-4.405 24.21-10.15 35.492l-2.415.624c5.067-11.212 8.438-21.726 10.013-33.48h-5.127c-2.948 12.615-7.31 24.306-14.02 34.464l-2.98-.97c7.168-11.365 12.848-24.048 14.428-36.25zm23.386.183h11.43c2.1 21.108 9.233 35.513 19.847 49.763 0 0-.67.15-1.064-.02-1.1-1.373-2.11-2.213-3.76-2.635-8.92-12.843-14.905-30.8-16.348-44.535h-6.797c.775 17.252 5.555 31.397 11.915 45.097l-3.45.633c-5.11-12.26-10.71-22.93-11.77-48.302zm17.784 2.607c.94.728 1.957 1.442 2.914 2.136 2.573 1.806 2.54 5.22.038 5.203-.265 0-.883-.038-.883-.038s1.022 2.237 1.666 3.37c-1.043.278-3.22.686-3.22.686s.31-2.197.248-4.018c0 0-.416.467-.762.63-1.66.693-3.063-.756-2.856-2.468.28-2.31 2.856-5.5 2.856-5.5zm-76.354.413l5.626 2.794c-3.834 8.726-8.224 16.896-14.573 23.107l.163-20.164c3.466-.1 7.02-.132 8.784-5.736zm38.468.317h3.46c-1.535 16.1-12.172 37.877-14.17 40.502l-.657.494c.04-.022-1.362-4.937-2.957-6.706 6-8.094 12.29-23.65 14.324-34.29zm24.336 0h5.227c1.628 12.828 5.594 26.686 15.643 43.517 0 0-1.007.1-1.785-.365-1.713-1.063-2.903.343-3.926.288-1.6-.086-1.864-.18-3.514.21-8.293-17.49-10.646-31.26-11.645-43.65zm-56.463 2.88l1.867.878c-4.015 9.286-7.61 16.665-17.122 25.724l-.033-2.7c6.68-6.47 11.183-15 15.288-23.903zm2.717 1.296c.884.332 1.887.88 2.72 1.33.28.11.205.36.208.623-.353.882-1.91 1.27-2.5 1.44-.713.203-1.415.345-1.542.375-.814.192-.556-.624.327-2.41.397-.803.554-1.34.787-1.357zm3.73 1.968c.558-.034 2.815 1.213 3.297 1.662.17.53-.315 1.362-1.028 2.904-1.096 2.37-1.314 2.422-1.642.475-.056-.335-.383-1.443-.58-2.178-.46-1.707-.502-2.69-.05-2.86zm4.084 1.916s1.312.637 1.738.917c-5.857 17.54-21.453 32.038-21.37 31.704l-2.434-1.43c10.38-9.38 17.987-20.453 22.066-31.19zm-6.192.25c.567.01.073.708-.69 2.395-.726 1.653-.964 2.24-1.643 2.502-.97.352-2.368.363-3.608.58-.53.092-.308-.313.51-1.972.957-1.947 1.01-2.35 2.514-2.756.87-.135 2.038-.755 2.918-.748zm2.055 3.484c.602 2.173.59 2.6.186 3.356-.758 1.415-1.748 3.066-2.02 3.513-.683 1.117-.877.885-1.283-1.834-.25-1.687-.47-2.445-.285-3.18.34-.83 1.356-2.79 1.93-3.934.822-2.445 1.263 1.862 1.47 2.078zm10.78-1.896l3.072 1.008-2.41 2.91s1.01-.183 1.128-.135c2.417.16 2.016 2.563.144 4.017-.775.71-4.6 2.448-4.6 2.448-.408-2.15-1.252-3.524-1.05-5.73.142-1.19.248-2.262 1.704-2.295.766-.04 1.077.742 1.575 1.373zm55.69 2.607s1.85.956 3.566 2.276c2.238 1.722 2.62 3.746.384 4.526-.26.09-.994.053-.994.053.616 1.073 2.08 2.67 2.08 2.67-.734.512-1.768.913-2.915 1.27 0 0-.283-2.67-.556-3.7 0 0-.296.583-.662.81-2.155 1.342-3.846-1.185-2.688-4.38.703-1.942 1.785-3.524 1.785-3.524zm-23.69.447c5.382-.13 2.23 8.68-.46 8.112-.045-.08 2.22-5.213-.83-6.03-1.4-.374-.193-2.1 1.29-2.083zm-8.82.624c1.67-.01 2.887 1.17 1.29 1.912-2.513 1.167-1.017 3.964-.96 5.548.035.97-2.24-.844-2.722-2.812-.624-2.545-.335-4.43 2.39-4.647zm-39.798.928c.37-.002.65.028.744.1.157.416-.594 1.715-1.69 3.38-.583.885-.833 1.134-1.19 1.344-.848.476-2.038.352-3.03.422-1.478.02-1.218-.01.42-2.558.73-1.14 1.19-2.07 1.626-2.367.087-.057 2.007-.32 3.12-.322zm1.94 1.838c0 3.187 1.082 4.23.287 5.237-.973 1.566-2.214 3.28-2.665 3.82-.76.913-.675.74-.874-1.646-.143-1.73-.3-2.887-.075-3.427.65-1.562 1.422-2.31 2.227-3.97.63-1.338 1.1-1.114 1.1-.014zm42.47 1.598c1.563.022 2.528 1.682 2.457 3.207l-.068 1.46c2.02-.774 4.526-.022 4.637 1.958.187 3.358-2.286 2.97-4.38 2.828.212.08.52 3.035-.723 4.166-1.954 2.186-5.596-.047-4.68-3.254.19-.667.23-1.085.23-1.085s-1.306.47-1.767.45c-3.96-.168-3.658-5.77.322-5.11.813.134 1.363.33 1.363.33s-.086-.354-.22-.854c-.58-2.157.636-4.125 2.827-4.096zm79.253 1l2.136 1.228v2.38l-3.037-2.246zm-128.04 1.592c.84-.008 1.502.058 1.372.26-.003.424-1.844 2.986-2.933 4.156-.93.998-1.06.856-3.33.745-.892-.044-1.475-.05-1.45-.29 1.046-1.37 2.487-3.137 3.484-4.61.392-.12 1.774-.25 2.856-.26zm2.078 1.12c.157-.003.205.337.2 1.08-.002.56.078 2.29.16 3.042.148 1.366.148 1.364-.437 2.18-.714.766-1.442 1.895-2.362 2.774-1.382 1.53-1.24 1.618-1.22-1.656.017-2.558-.176-2.558.342-3.16.284-.33 1.163-1.404 1.742-2.245.88-1.276 1.345-2.012 1.575-2.015zm13.17.45l2.842 1.517-2.846 2.885s.71-.003.95.043c1.828.356 1.69 2.294-.15 3.74-1.13.714-5.01 2.127-5.01 2.127-.134-1.63-.48-3.13-.413-4.877.027-.807.1-1.684.72-2.38.427-.474 1.142-.75 2.145-.102.527.468.802.998.802.998zm33.534.984c-1.114 0-2.016.903-2.016 2.016s.903 2.016 2.017 2.016c1.113 0 2.016-.903 2.016-2.016s-.903-2.016-2.016-2.016zm31.767.475s3.72 1.398 5.395 2.933c1.564 1.305.827 3.455-.726 3.5-.113 0-.773-.097-.773-.097.528.802 2.29 2.766 2.29 2.766l-2.874 1.167s-.46-2.214-.816-3.456c-1.003 2.313-3.475.808-3.64-.634-.398-2.113.5-4.178 1.144-6.178zm-31.767.178c.774 0 1.402.627 1.402 1.4 0 .776-.63 1.403-1.403 1.403-.774 0-1.402-.627-1.402-1.402 0-.774.628-1.4 1.402-1.4zm-54.893 2.865c1.002-.01 2.252.038 2.812.072.427.328-.465 1.345-2.188 3.154-1.382 1.45-1.586 1.25-3.26 1.263-2.808.022-2.878.04-1.588-1.426 1.412-1.606 2.236-2.64 2.89-2.975.22-.057.732-.08 1.334-.087zm3.422 1.412c.297-.06.216.698.168 2.414l-.08 2.91-2.186 2.1c-2.528 2.263-2.225 2.405-2.208.29.015-1.682-.003-2.864.36-3.61 1.104-1.33 2.254-2.508 3.51-3.778.197-.195.337-.307.436-.326zm55.522.725c.608-.05 2.16 2.604 2.55 4.828.886 5.08 3.93 7.488 6.07 5.448.872-1.198.97.11.927.736-.45 6.436-7.742 3.757-8.572-2.635-2.56 1.662-4.95-1.694-3.423-1.64 3.608-1.148 2.622-4.46 2.448-6.735zm-8.448.048c.357 2.226-3.656 6.04-5.914 3.364-1.148-1.36-.102-4.166 1.36-2.438 1.613 1.194 3.178-.192 4.554-.927zm-55.143 3.052c.825-.017 2.02.14 2.54.068.736.074.21.43-1.383 1.88-1.372 1.252-1.763 1.81-1.92 1.264-.076-.846-.043-1.85-.038-3.044.126-.117.426-.16.8-.168zm18.71 1.48l2.45 1.784-2.43 2.236c2.178-.107 2.372 1.934 1.546 3.072-.536.798-2.6 1.638-4.666 1.973-1.243.203-2.256.35-2.256.35s-.046-.956-.08-2.547c-.072-3.255.15-4.536 1.4-5.17.897-.454 2.413.26 2.785 1.09.123.274.446.753.446.753zm-15.753.176c.01 0 .016 0 .02.006.138.187-.36 5.482-.36 5.482l-3.548-1.997s3.59-3.426 3.888-3.49zm93.88.625c2.526 1.19 4.42.96 6.12 2.434 1.48.774 1.04 2.907-.04 3.383-.488.15-1.295.067-1.295.067.892 1.103 2.85 2.496 2.85 2.496l-3.11 1.3s-.426-2.096-.82-3.24c-.567 1.7-2.485 1.66-3.577.86-.774-.592-1.094-2.58-.725-4.3.097-.455.595-3 .595-3zm11.366 17.256c3.21 4.518 4.997 8.316 5.496 13.984.295 3.495.194 4.148-.634 4.142-.532-.003-.762-.266-.758-.864.056-9.49-11.634-11.72-15.984-3.523-2.55 4.805-1.293 11.176 4.19 19.852 5.045 8.216 11.542 14.46 15.24 23.3 3.665-8.778 11.017-16.164 16.272-24.625 7.59-10.88 4.96-22.347-4.406-23.553-4.298-.554-9.007 3.752-9.552 8.208-.122.993-.333 1.286-.88 1.204-.73-.108-.456-2.07-.138-4.69.867-5.005 2.635-9.18 5.5-13.435zm45.346 12.544c.084-.02 2.38 3.18 2.707 4.378.266.976.47 1.986.302 2.41-.2.51-.68.12-1.277-.673-1.638-2.177-4.86-1.482-6.172 1.348-.947 2.04-.42 4.666 1.34 7.647 2.102 3.887 7.246 10.878 7.4 11.515.138-.548 3.415-6.485 6.053-10.42 1.39-2.377 2.432-4.388 2.495-7.528-.32-3.908-4.997-5.52-7.085-2.486-.675.98-1.076 1.28-1.3.48-.152-.54.322-1.706.57-2.952.21-1.04 2.232-3.745 2.28-3.72zm-73.326 19.493c-30.67 7.268-55.584 2.774-58.056 1.915l-1.954 2.914c-.238.495-.384 1.974-1.71 2.376l-1.986 2.966.39.413-1.763 1.537.43.514-1.283 1.863-.504-.053-2.966 4.507.45.504-6.81 10.662 92.146.03c-5.356-10.104-11.087-20.01-16.383-30.145zm-.557 1.31l.548 1.522c-1.523-.19-3.302-.28-5.11-.36 1.588-.33 3.18-.73 4.563-1.163zm-5.352 1.325c-2.93 1.345-4.685 2.96-6.032 4.666-1.677-1.302-3.81-2.225-6.355-2.803zm-51.78.74l1.304.148s-.437.34-.75.27c-.237-.055-.555-.42-.555-.42zm58.698.758l.83 1.64c-1.995-1.057-10.532-3.48-12.955 5.008-2.548-3.446-13.058-8.44-18.39 2.18-1.515-2.878-10.34-11.156-18.388-.606-3.17-6.557-5.822-7.106-11.644-6.21 4.14-3.978 9.96.162 12.428 3.546 6.944-5.76 12.75-4.028 17.822.658 6.546-7.127 13.073-5.41 17.665-1.834 3.225-4.746 6.376-6.177 12.633-4.382zm-53.61.043c4.125.557 8.252.81 12.378 1.013-2.388.876-4.837 1.63-6.783 3.393-1.473-2.058-3.52-3.253-5.596-4.407zm29.768.658c-2.252 1.06-4.68 2.655-6.624 4.33-2.1-1.71-4.26-3.188-6.614-3.93 4.32.21 9.103.02 13.238-.4zm100.46 2.31c-.003.016-.003.024 0 .028.005-.005.003-.014 0-.03zm-74.04 1.06s-.832.14-1.1.21c-3.643.97-2.85 6.103.898 6.102.357 0 1.243-.14 1.243-.14-.07 3.477.986 4.325 4.537 4.13l6.02 10.76-89.042-.383 5.655-9.045c2.843.334 4.63-1.248 3.998-3.662 0 0 1.75.535 2.242.538 3.218.02 4.05-4.918.964-5.774-.342-.095-1.204-.19-1.31-.22 1.412-3.526 5.29-1.445 6.4.02 2.5-2.056 5.262-1.136 6.446 1.525 0 0-.466-.26-.61-.364-2.927-2.14-5.65 2.294-2.784 4.34.282.2.88.374.88.374s-.35.284-.67.82c-1.487 2.503.91 5.55 3.803 4.767 2.22-.87 2.253-2.54 2.25-4.378 0 0 .77.058 1.456.067 2.666.03 3.43-3.383 1.8-4.97-.883-.857-2.035-.79-2.606-.9 3.073-3.018 5.157-.936 7.325.455.327-.008 3.763-4.134 7.847-.08-1.982-.52-4.012.765-4.04 2.83.04 1.326.99 2.5 3.043 2.594-.22.667-.368 1.165-.38 1.813-.04 2.166 1.644 3.514 3.782 3.18 1.787-.227 3.108-2.27 2.472-3.968-.287-.766-.682-1.047-.682-1.047 4.813.603 4.73-5.493.987-5.863-.888-.088-1.57.297-2.466 1.116 2.2-4.5 6.226-3.597 7.733-1.757 2.067-1.5 4.918-3.552 8.328.102-.562-.118-1.354-.146-2.04.036-2.7.716-2.712 4.15-.57 5.193.6.295 1.34.466 2.135.436-.712 2.885 2.49 4.945 4.757 3.564 1.625-.99 2.05-3.327.292-5.46 2.958-.132 3.25-3.82 1.54-5.112-1.34-1.013-2.917-.532-4.06.807-.368-1.06 2.556-4.74 6.686-2.088 2.187-1.834 4.358-2.4 6.84-.567zm1.29 2.88l1.158 2.103c-.77.076-1.873-.75-1.157-2.103zm-14.927 2.136c.723 0 1.31.587 1.31 1.31 0 .724-.587 1.31-1.31 1.31-.725 0-1.31-.586-1.31-1.31 0-.723.585-1.31 1.31-1.31zm-54.045.077c.175.703.252 1.405-1.027 1.54zm130.902.61v2.932h2.4l6.778 15.61-6.504 10.133h-2.673v2.606h9.312v-2.606h-2.722l8.275-12.634v12.634h-2.376v2.606h8.42v-2.606h-3.073v-25.743h3.072v-2.932h-8.42v2.932h2.377c.058 2.525.072 4.7 0 7.224-1.183 1.578-2.41 3.505-3.71 4.992l-5.233-12.217h3.39v-2.932zm-115.85.657c.664 0 1.2.537 1.2 1.2 0 .663-.536 1.2-1.2 1.2-.66 0-1.2-.537-1.2-1.2 0-.663.54-1.2 1.2-1.2zm19.974.375c.704 0 1.273.57 1.273 1.272 0 .702-.57 1.272-1.272 1.272-.7 0-1.27-.57-1.27-1.273s.57-1.272 1.27-1.272z"/></g></svg>