<svg viewBox="260 370 224 313" preserveAspectRatio="none" xmlns="http://www.w3.org/2000/svg" width="744.094" height="1052.362"><rect ry="10.63" rx="10.63" width="223.228" height="311.811" x="7150.843" y="-2435" fill="#fff" stroke="#000" stroke-width=".997" transform="translate(-512.47111,486.83327) translate(-6377.9386,2318.4423)"/><path d="M400.693 396.697s25.294 36.56 33.872 43.05c.63.295 11.207-1.726 11.207-1.726-5.42-12.976-8.908-26.402-5.39-41.454zm14.055 57.82c-17.437 4.922-34.842 9.55-53.746 1.528l-20.645 19.945c-.17.515 26.753 12.113 27.176 10.843l-6.627 21.154 15.28 3.363 7.012-22.502s21.094-2.023 30.884-5.382c7.443-2.554 15.14-4.406 21.787-9.955-13.73-8.25-21.136-19.09-21.122-18.992zm-104.882 5.9c-6.61-4.057-11.774 4.29-6.935 8.458-.568 2.434-.76 6.058 1.595 7.65 2.164 1.37 6.202-.05 6.785-.036.04 0 .104 4.382-.232 4.37-.626-.02-2.99-2.033-4.447-2.47-4.925-1.477-11.854-2.206-11.73-1.952.204.427-1.228 1.437 4.268 4.888 2.042 1.282 8.493-.162 13.63 1.46 3.13.986 6.208 2.628 7.907 1.81 2.15-.898 4.654-3.733 5.463-6.042.227-2.522-12.89 2.935-12.093 3.023l-.04-5.083c5.285.582 10.056-3.25 4.86-9.817 3.87-3.846-1.542-13.01-9.03-6.26zm22.023 23.25c-13.002 13.104-39.575 37.698-39.575 37.698l.284 18.356 25.96 23.23c2.057-24.66 16.07-47.675 29.415-59.19 1.225-3.5-13.26-18.865-16.086-20.094zm92.624 4.532c-1.96 15.163-3.74 35.84-29.464 58.827 4.458 7.592 10.132 15.318 18.297 19.006.58 1.304 23.602-23.823 37.765-35.703l-.075-16.092zm-115.942 3.255c-.053.33-1.003 4.313-1.248 4.207.02.217 2.634-.97 2.93-2.063.26-.96.86-2.256.898-2.44-.59-4.1-1.705-1.188-2.58.295zm-9.63 10.6c-.935 2.257-1.81 6.403-1.486 9.1 4.605 2.306 5.857-7.284 4.618-8.2-.742-.314-2.5-.922-3.132-.9zm142.237 43.97c-.43 1.91-.338 2.48.513 2.852 1.49.654 2.16-.136 3.358-3.25.713-1.854 1.348-4.644.774-5.753-2.825-1.97-4.318 4.706-4.645 6.15zm-69.655-4.494c-.904.008-1.774.082-2.58.267-7.6 1.74-7.026 15.022-8.316 20.32-23.882 3.407-30.198 5.03-36.742 7.717-10.174 4.18-13.396 6.73-16.088 8.834 1.69-.198 19.947 16.825 20.89 19.228-1.163-3.295 35.317-11.314 54.746-3.26 2.383.853 20.535-17.616 19.962-19.677 2.356-4.126-22.88-8.76-26.062-11.337-2.61-14.054 17.63-21.753 3.612-21.343-2.55.074-6.195-.775-9.423-.75zm63.513 15.79c-.45.53-.902.812-1.487 1.434l-1.332 1.758.97 1.57 2.488-2.743zm-17.806 17.675c2.62-1.183 11.92-5.69 12.32-4.65l-.197 4.514c-1.423-.466-10.606 1.052-5.295 10.53-3.345 7.53 4.108 11.414 9.33 6.435 10.942 3.754 9.477-7.194 7.22-8.963 1.78-2.764-.458-8.65-1.57-8.67 0 0 9.548 2.153 8.614.453-.426-.776-.96-2.114-3.08-3.53-2.447-1.634-6.744-1.04-10.22-1.77-3.72-.776-6.113-2.106-9.237-2.294-4.716.43-9.117 4.57-7.885 7.945zM310.818 610.53l-13.156 3.517s4.255 9.876 5.728 18.682c1.8 10.77.362 22.482.362 22.482l38.185.194z" fill="#e2cf00"/><path d="M466.146 671.492c-5.027-1.745-5.13-4.91-5.302-8.94-.297-6.116-.244-12.552.633-17.534.336-1.515.517-2.29-.995-2.826-.835-.288-1.67-.172-2.503-.3v-3.77c1.583-.084 3.054-.08 4.392.71.603.368 1.274.774 1.274.774 1.97-1.863 7.143-2.14 9.6.16 1.632 1.644 2.158 3.02 2.264 6.72.078 2.73 0 2.916 0 2.916l2.836-.016v3.668h-2.836s.063 1.824 0 5.776c-.05 3.075-.108 5.086-.323 6.55-.966 5.104-5.512 7.263-9.04 6.112zm5.44-6.315c.99-2.633.576-12.81.576-12.81-4.234-1.627-6.03-4.176-7.753-5.99 0 0-.72 11.297.138 17.38.78 5.046 5.335 5.798 7.04 1.42zm.025-17.113c.23.033.495.05.53-.05.324-.914-.24-4.74-1.196-5.507-2.575-2.066-4.93 0-4.853.093 1.216 1.652 2.643 3.466 4.483 4.897.348.292.644.508 1.038.567zm-126.504 7.207c-16.755-23.912-32.28-46.66-52.89-71.73 0 0 .016-9.69.09-19.3l63.32 90.796zm58.654-31.243c8.3-9.008 14.588-18.61 20.17-28.418 6.36 11.296 13.724 20.5 21.854 28.098-7.97 8.057-15.202 17.277-20.927 28.863-4.654-8.853-10.69-18.09-21.097-28.543zm55.094-2.896c3.54-3.71 6.59-7.864 9.453-12.25 3.182 4.51 5.1 7.887 9.376 12.648-3.67 3.89-6.76 7.796-9.274 12.05-3.03-4.828-6.187-9.317-9.556-12.447zm-79.83-4.47c-.54-4.54-1.464-9.976-2.795-14.654l11.56-10.9c-1.247 9.74-3.162 17.214-8.765 25.555zm55.256-34.356c2.587 3.436-1.78 5.344-3.428 3.815-3.343-3.102 1.553-6.306 3.428-3.816zm-114.636-21.642c-1.918 1.23 3.448-29.968 18.177-46.09 8.96 25.66-6.847 40.05-18.176 46.09zm72.667-.116l-9.782-2.64 4.87-13.68s9.186 2.15 8.403 4.992c-2.55 9.248-3.49 11.328-3.49 11.328zm-45.285-5.26c2.65-4.354 4.66-9.155 6.51-14.068l13.91-1.928-8.06 15.636zm58.958-19.197c-7.57-15.076 1.35-38.936 17.822-45.503-.594 15.287-5.337 30.772-17.822 45.502zm-50.886-4.284c.333-5.355-.28-10.966-1.02-15.938l34.433 4.59 1.203 14.432zm25.198-22.93c1.167-4.59 2.204-8.412 4.457-12.133 2.507.08 12.676-1.592 11.38.384-2.765 3.536-4.088 9.277-5.898 12.887-1.9-.2-10.508 1.28-9.94-1.138zm-22.808-2.63c-3.482-1.23-8.244-1.572-10.095-4.265l3.622-11.478 10.728 3.29zm30.108-109.523l8.408-.08s40.398 51.69 55.54 71.806c-.505 2.047.17 19.4.17 19.4-21.448-30.183-64.118-91.127-64.118-91.127zm-77.47 72.124c-2.26-2.425 1.334-4.574 2.828-2.407 1.315 1.908-1.636 3.685-2.828 2.407zm45.33-8.476c.13-11.977 8.624-26.193 8.536-25.83-.097-.023 1.212 11.71 2.844 15.403-.44.65-10.978 11.18-11.38 10.428zm-36.184-3.974c-6.585-12.59-14.5-22.13-21.39-28.813 8.583-8.12 15.02-18.148 21.623-28.027 5.45 10.363 12.538 19.834 20.486 28.835-7.973 7.83-15.507 18.922-20.72 28.006zm-52.974-25.558c3.857-3.847 9.557-12.6 9.5-12.61 2.714 4.43 5.573 9.015 9.51 12.677-.042-.04-6.102 6.473-9.23 12.596-2.793-5.102-6.48-9.544-9.78-12.662zm-.548-27.847v-3.708h2.775s-.032.3-.01-4.757c.03-7.075.384-9.248 1.8-11.055 3.81-4.867 10.8-3.374 12.635 2.698.14.462.455 1.632.487 3.18.082 4.027.09 10.708-.044 14.88.068 1.636-.515 3.768-.935 4.133.202 1.487 2.54 1.786 4.006 1.67v3.882c.008-.022-1.486.142-3.248 0-.742-.06-2.455-1.473-2.455-1.473s-2.71 1.862-5.145 1.812c-7.967-.165-7.083-10.11-7.06-11.246zm6.382.98s.007 1.397.092 2.33c.28 3.084 2.292 4.682 4.298 4.133 1-.31 1.588-.914 1.588-.914-1.706-2.533-3.734-4.66-5.978-5.55zm7.404-15.432c-.852-4.65-5.23-5.363-6.88-1.428-.298.71-.547 6.314-.547 6.314l.035 6.62c3.553.78 5.513 3.06 7.732 5.647 0 0 .446-11.898-.34-17.152z" fill="#d40000"/><path d="M290.644 394.53l-.317 262.08 163.068.03-.055-261.686zm149.022 2.05c-1.325 14.502-1.557 25.866 5.967 40.905-1.36 1.425-11.598 1.83-14.824 3.517-.06.405.828 1.106.828 1.106 3.375-1.566 16.537-2.995 16.537-2.995-5.512-9.608-10.047-28.088-6.633-42.26l9.5.03-.06 69.828s.747 13.48 1.03 21.074c-5.06-6.537-11.767-15.667-16.148-22.445-5.314-7.477-11.23-16.246-17.305-24.474-1.792-2.592-4.346-5.955-6.43-8.983-3.27-4.677-5.977-8.306-9.37-13.34-3.623-5.213-7.096-9.944-11.403-15.997-3.65-5.152-3.82-5.762-3.82-5.762zm-62.393.272c6.158 10.702 17.182 14.326 19.955 15.048l1.613 2.356c-12.996-2.547-19.956-10.89-23.224-16.05-.254-.402-.226-1.324-.226-1.324zm-6.096 0c-1.703 4.04-4.087 6.363-6.347 8.81l.078-2.6c.07.164 3.383-3.512 4.524-6.21zm2.982 0s.05.69-.157 1.257c-1.305 4.213-9.408 12.21-9.175 11.013l-.082-2.064c-.036.088 6.087-5.83 7.69-10.208zm-5.893 0c-.632 1.176-2.987 4.73-3.2 3.744l.21-3.744zm18.512 0c1.02 1.477 1.947 2.558 3.02 4.07.2.288.322.628.27.758-.162.42-.647.108-1.988-1.08-2.2-1.95-3.697-3.748-3.697-3.748zm-8.196 0l1.99.004c4.122 6.846 11.517 10.488 14.077 11.284.683.753 1.42 2.13 1.705 2.434-6.902-1.87-14.634-7.705-17.77-13.722zm4.84-.03c2.195 3.168 5.634 5.39 7.572 6.905 1.042.816 2.417 2.484 2.29 2.815-4.316-1.364-9.362-6.146-11.678-9.69zm-8.46 1.96l1.2 1.91c-2.906 4.79-6.55 9.107-11.41 12.51l-.026-2.503c5.515-3.972 7.898-7.963 10.236-11.917zm1.945 2.767c3.464 4.666 10.93 11.89 22.903 14.047 0 0 .68.614 1.672 1.965 1.258 1.713 1.278 1.78 1.444 4.588.11 5.14 1.78 12.112 3.438 16.5-.205 1.09-.397 1.646-2.453 4.423-8.57 11.576-26.83 22.525-35.824 7.58-3-4.786-3.29-13.965-3.48-19.688 0 0 .055-.403.078-.512.217-1.04.514-.875 2.137-.43 1.647.707 3.36.136 5.103-.338 1.983-.8 2.148-.184.235 1.602-.66.617-1.47 1.56-1.386 1.516.085-.046 1.198-.5 1.69-.875 1.53-1.163 1.89-.718 1.323.563-2.403 5.434-2.83 5.65.55 7.16.706.314 1.187.665 1.582 1.01 2.31 2.175 1.48 1.003.835.005-.994-1.564-.095-2.39 1.583-1.422 1.122.647 2.595 1.17 3.397.922 1.555-.507 2.03-2.21 1.568-4.085-.37-1.037-2.494-2.87-2.004-.952 1.278-.057 2.38 1.754 1.27 2.98-.836 1.13-2.33.52-4.62-.995-1.267-.95-2.804-.465-2.744.705.04.786-1.073.606-1.796-.396-.4-.556-.13-2.156.625-3.672 4.75-9.55.745-18.808-7.48-16.198-.904.287-1.72.52-1.72.52l-.044-3.653c4.723-3.292 9.733-8.54 12.12-12.87zm4.802 17.142c-1.24 1.497-.8 2.83 1.922 1.488 2.217-1.093 2.524-1.222 4.94-1.31 3.43-.123 6.508.968 10.317 3.304 2.526 1.55 2.894 1.666 2.21.696-2.04-3.903-14.094-9.827-19.388-4.178zm-11.647.447c2.38.598 4.664 2.17 4.266 2.822-.142.234-.28.28-.583.12-1.74-.86-4.517-2.266-8.53-.55-.442.19-.688-.104-.685-.638.004-1.035 1.746-1.862 3.587-1.928.655 0 1.37.032 1.945.173zm13.827 3.026c-1.42.737-1.906 1.13-2.51.8-1.44-.787-1.135-.17-.24 1.416.63 1.118.625 1.348.53 2.033-.1.745-.085.774.638 1.57 1.355 1.78 2.702 3.496 4.73 4.846.63.422 1.476.9 1.54.902.2.007.124-.154-.237-.507-2.597-2.497-4.644-4.736-2-3.785 3.078 1.004 6.007-.247 8.407-1.063.98-.302 2.008-.557 2.263-.556 2.217.003 2.74-.92 1.323-2.327-4.797-5.38-8.777-6.646-14.444-3.327zm11.382 1.008c.992.916 1.514 1.413 1.415 1.652-.107.256-.87-.178-2.15-.86-2.574-1.372-5.492-1.695-9.138-.642-2.83.817-1.996-.48 1.16-1.7 2.524-1.165 6.01-.817 8.712 1.55zm-26.433-1.853c2.163-.033 4.415.677 5.92 1.975 1.052.906.284 1.117-1.424.41-2.582-1.068-4.758-1.238-6.877-.246-.666.31-1.434.68-1.643.66-.355-.24-.505-.936-.198-1.43.85-.835 2.54-1.342 4.22-1.37zm35.64.743c.158.007.398.26.753.76.647.907.672 1.355.135 2.945-.654 1.94-.917 1.626-1.08-1.082-.108-1.757-.11-2.636.192-2.623zm2.144 2.927c.247-.035.535.4.995 1.3.32.627.244.815-.76 3.752-.42 1.23-.814 2.21-.825 2.217-.31.243-.27.22-.4.052-.717-.914-.665-2.697-.05-4.834.468-1.62.722-2.443 1.04-2.488zm-19.484.222c.078-.006.558.098.558.098-.05 4.35 3.315 3.476 3.76.385 0 0 .83-.085.957.12.4.648-.527 2.51-1.912 3.118-1.01.452-2.384.342-3.205-.414-.23-.426-.925-2.043-.795-2.714.16-.39.404-.573.637-.594zm-2.005.51c.035-.003.068-.003.102 0 .33.016.57.105.7.505l.722 2.21c-.532.634-2.547-.65-2.544-1.615.003-.666.504-1.076 1.02-1.1zm-13.68-.006c.507-.05.687.008.746.482.173 1.436-1.264 2.997-3.127 3.082-1.803.202-2.776-1.197-2.72-2.56.004-1.037.896-1.167.995-.348.286 2.367 2.307 2.503 3.23 1.196.35-.512.27-1.773.876-1.852zm22.138.482c.144-.006.336.048.618.145 1.86.593 1.91.88.32 1.453-1.897.684-2.02.773-1.574-.55.248-.738.32-1.035.637-1.048zm-19.712.208c1.38.086 1.495 1.252.282 1.642-1.805.796-2.413.744-1.714-.43.38-.834.72-1.196 1.433-1.212zm-8.624.42c.165-.002.353.06.555.212.21.626.56 1.107.837 1.753-.283.282-.958.278-1.39-.063-.862-.685-.714-1.895 0-1.9zm43.344 1.347c.535.003 1.08.85 1.257 1.483-1.87 2.403-1.576 6.89-2.01 8.244-.378 1.102-.5.15-1.54-2.704-.42-1.152 1.697-6.88 2.186-7.008.035-.01.07-.015.107-.015zm1.912 2.463c.417.238.982.784 1.082 1.643.058.497-.19 1.16-.348 1.815-.377 1.558-.888 4.5-1.072 7.22-.078 1.158-.074 2.2-.125 2.3-.564 1.102-1.75-1.865-1.65-4.227.37-1.886.575-8.492 2.112-8.752zm2.642 3.39c.264.368.432.65.514.966.14.55.022 1.208-.3 2.61-.86 3.714-.735 7.717-.175 11.828.118.864-.483.43-1.39-1.058-.505-.826-.827-1.958-.982-3.294-.315-2.922.295-6.883.814-10.007.23-1.382.39-2.6 1.52-1.043zm1.425 2.26l1.5 1.813s-.64 4.163-.636 6.384c-.105.832.746 9.88 1.024 10.61-.924-1.033-1.355-1.64-2.367-2.94-.114.018-.99-8.914-.386-12.33.366-2.068.865-3.537.865-3.537zm2.356 3.6c.252-.01.573.275.976.84.363.51.54.93.56 1.565.014.464-.215.822-.222 1.648-.043 4.92.622 9.566 1.46 14.044.295 1.602-.28.95-1.23-.065-.87-.928-.887-1.28-1.352-2.6-.093-.263-1.02-9.34-1.012-10.025.032-2.82.113-4.392.438-5.068.107-.22.23-.333.382-.338zm-5.46 9.89s-1.748.9-2.206.583c-.738-2.015-3.403-7.406-3.448-8.36.047-.314 1.092-1.733 1.092-1.733 1.472 3.194 2.797 6.46 4.563 9.508zm-32.91-6.476c-.528.62-1.156.36-2.428-.197-.652-.2-.55.068-1.628.627-.835.434-1.13.446-1.682.44-.73-.005-.993-.26-.995.252 0 .284-.044 1.567-.216 2.23-.235.903-.44 1.302-.31 1.458.37.34.682.133 1.465-.623 1.298-1.254 2.174-.895 3.62-.43 1.645.532 1.986.727 3.49.2 2.132-.743 3.415-.744 4.264-.204 1.462.932 1.904.877 1.3-1.67-.193-.82-.207-2.094-.326-2.314-.136-.25-.508.46-.897.723-.744.5-1.13.49-2.806-.058-.994-.325-2.107-1.39-2.85-.435zm26.977.332c.65 1.53 3.233 6.64 3.155 7.212-.504.452-1.177.782-1.576.377-1.292-2.356-1.68-3.626-2.73-6.27-.312-.634.625-2.245 1.15-1.318zm13.876-.187c.182-.026.564.354.85.734.883 1.183.937 1.33.965 2.598.1 4.6.68 10.01 1.975 14.185.255.822.74 1.82.686 1.956-.435.633-2.45-1.063-3.057-3.642-.84-3.275-1.33-6.693-1.598-8.917-.337-3.912-.335-6.71.177-6.915zm-15.5 2.536c.744 1.436 1.68 3.913 2.313 5.4.287.644-1.184 1.152-1.523.933-.588-.44-.866-1.674-1.252-2.415-1.228-2.685-1.45-2.742-.768-3.578.42-.582.92-1.294 1.23-.34zm18.416 1.648c.108 0 .248.105.425.333.777.92 1.305 1.62 1.508 2.3.147.494.03.864.082 1.758.14 2.343.754 5.54 2.497 12.085.17.638.4 1.393.372 1.598-.17 1.203-1.932-.745-2.445-2.756-.595-2.284-1.68-5.2-2-7.897-.658-4.28-1.023-7.42-.44-7.42zm-19.97 1.73c1.467 3.42 1.583 3.414.66 3.684-.975.286-1.034.193-2.18-2.136-.836-1.7-1-1.912-.298-2.525 1.073-1.263 1.355-.057 1.82.978zm-20.408-.815c-.167.003-.658.375-1.15.57-1.212.48-3.362.513-4.672.118-2.322-.93-1.668.28.386 1.016 1.594.536 4.75.12 5.24-.873.3-.318.41-.835.196-.83zm17.656 1.798c1.308 2.023 1.7 2.83 1.48 2.987-.21.21-1.245.6-1.67.39-.536-.26-1.002-1.51-1.236-2.488.164-.48 1.023-1.336 1.426-.89zm-32.77.852c.586.003 2.106 2.047 1.798 2.415-.086.19-.656.01-1.988-.36-.445-.163-1.45-.295-1.132-.94.158-.293 1.09-1.115 1.323-1.115zm31.366 2.802c-.13.35-1.117.43-1.535.406-.36-.75-.456-1.108-.556-1.604.135-.298.81-1.07 1.144-.918.2.178.845 1.746.946 2.116zm27.217-1.97c.21.006.57.372 1.106 1.14 1.014 1.448.876 1.343 1.604 4.805.825 3.925 1.813 6.72 2.81 10.73.014.666-.255.49-.994.04-1.208-.736-1.605-1.553-1.985-3.68-.65-3.516-2.02-6.768-2.546-10.92-.278-1.375-.3-2.127.005-2.117zm-30.424 1.402c.713-.024.617 1.074.412 1.252-.52.454-1.957.318-2.203.344-.552-.865 1.326-1.567 1.79-1.596zm34.046 3.736c.21.03.772.824 1.825 2.304 1.012 1.422.79 1.19 1.396 3.53.858 3.235 2.276 5.568 3.107 8.545-.002.34-.413.297-.807.136-.767-.32-1.452-.864-2.1-1.396-.445-.48-.442-1.09-1.754-5.602-.474-1.63-.597-2.052-1.188-4.526-.495-2.07-.716-3.023-.48-2.99zm-109.718 9.664c3.44 6.33 2.167 9.14-5.234 10.016-.535-.075-.03 3.244-.045 4.727 3.708-2.122 8.192-2.618 12.325-3.95-1.125 3.604-3.1 7.687-9.083 7.058-6.253-4.832-13.613-1.93-18.606-3.89-2.717-1.012-3.754-4.03-3.786-4.546 3.257.326 6.934 1.024 10.09.796-3.447-2.656-2.44-6.33-1.953-8.012-4.033-5.087-.665-10.808 5.194-9.478.606.138 1.8.727 1.8.727 5.654-5.06 12.205-.307 9.298 6.55zm114.36-3.08c.233-.023.75.588 1.786 2.038 3.074 4.3 5.735 8.3 5.694 8.524-.132.74-3.335-.557-4.144-1.618-.92-1.208-3.51-7.43-3.506-8.418 0-.33.046-.515.17-.527zM308.518 482.16c1.598.235 2.044.37 2.028.995.136.53-3.88.6-4.424.207-.435-.314.126-1.003.555-1.168.62-.188 1.237-.122 1.84-.034zm110.72.57c-22.44 10.598-31.62 38.788-20.294 60.39l-1.56 1.126c-11.104-22.84-2.843-47.315 15.2-59.675.73-.52 2.347-.92 3.098-1.418 0 0-7.36 1.68-9.852 2.653-.505-.017-1.99.507-3.585 2.236-1.395 1.292-5.755 7.303-5.615 7.512l-11.585.467.01.428 11.37-.262c-11.71 19.28-8.832 37.62-1.602 50.458l.178.12c.42.283 1.527-.526 3.82-2.7.946-.895 2.136-2.007 2.648-2.472 1.42-1.3 3.438-3.54 4.826-5.16-7.873-16.045-.107-37.18 18.317-46.704.03-.507-.197-2.056-.197-2.056s-.696-.625-1.107-.56c-20.526 9.04-28.75 31.493-20.405 51.91l-1.376 1.497c-10.488-21.142.77-47.568 20.395-55.055-.01-.478-.434-1.088-.962-.72-21.188 9.837-30.422 34.958-20.043 56.37l-1.308 1.155c-11.808-23.444.634-49.716 20.14-58.693.575-.133-.512-.845-.512-.845zm-114.21.218s-.15 1.25.292 1.675c.202.89-.12.794-.88.613-1.865-.444-.41.617 1.116 1.474 1.504.843 1.302.815-.01 1.647-.88.558-.79.767-.67 1.192.175.63.296.21.66-.126.77-.705 1.382-.882 2.064-.88 1.024.005 1.127.825.946 1.464-.407 1.343-1.79 1.27-2.922.937-1.853-.546-4.88-3.76-4.834-5.653-.13-1.695 2.19-2.42 4.238-2.344zm8.334.414c.718.265 1.622.618 2.617 1.034 1.375.437 2.768 1.147 3.665 1.746 2.734 1.822 2.568 5.467 2.37 5.83L307.89 505.36s-.798-.39-1.55-.773c-2.374-1.212-2.945-1.85-1.627-2.52.64-.327.846-1.026.937-1.71.123-.918.075-.762.623-1.18.955-.727 1-1.027 1.005-2.236.003-.8.086-1.167.377-1.67.23-.4.474-1.232.637-2.188.027-.157.035-.55.065-.687.167-.748.404-.97.563-1.138.158-.17.412-.747.59-1.247.393-1.114.32-.95.956-.826.924.18.792.72.69 1.575-.05.414-.326.706-.232.612.127-.125.694-.393.812-.42.296-.067.59.034.666.498.043.258-.07.733-.062 1.1.018.953.057 2.095.275 2.846 1.05 3.62.84 3.118.483.106-.086-.72-.186-1.78-.082-2.66.073-.623.25-1.392.492-1.812.62-1.08.654-1.294-.69-1.826-.5-.198-1.35-.544-1.526-.89-.216-.42-.856-.996-1.69-1.192-2.03-.477-3.21-2.438-2.918-2.73.192-.19 1.01.06 1.526.078 1.853.066 2.246-.03 3.067-.734.437-.375.633-.71.98-.733.368-.007.836.265 1.107.36zm96.146 2.17c-18.977 15.35-22.302 40.186-12.836 59.35l-1.638 1.286c-11.897-22.478-3.906-46.727 10.71-59.988zm-109.554 1.83c.335-.032.7.46 2.033 1.883.896.96 1.83 1.792 2.322 2.072 1.115.533.87.31-.058 1.192-.95 1.09-.425 1.985-1.56 1.44-2.952-1.386-5.025-5.47-3.105-6.453.144-.075.254-.126.366-.136zm-1.47 4.293c.074-.005.15.006.228.025.365.088.806.773 1.28 1.25 1.313 1.322 1.922 1.908 2.97 2.372 1.032.456 1.06.567.334 1.372-.264.292-.42.644-.483.84-.062.196-.078.445-.3.488-1.15.22-4.97-2.097-5.12-3.695.124-1.496.502-2.607 1.092-2.653zm8.096.445c.663-.017 1.052.573 1.048 1.53-.002.664-.375.934-1.135 1.218-1.622.607-2.622-.554-1.487-1.835.477-.54 1.12-.902 1.574-.913zm-.99 3.897c1.224.004 1.58 1.036.68 1.927-.842.836-2.543.84-2.54-.078.004-.72 1.08-1.854 1.86-1.85zm-7.588 1.234c.828.245 2.843 1.697 3.73 1.867.046.49-.543.625.294 1.546.38.418.412.703.082.88-1.01.538-4.513-1.165-4.748-2.918-.114-.856.17-1.343.642-1.374zm4.57 2.098c1.205.05 2.568.086 2.424.662-.104.417-.535 1.52-1.087 1.314-.267-.1-.527-.368-.713-.546-.643-.617-.814-1.438-.623-1.43zm45.567 4.99c3.51 3.176 16.264 36.372-10.31 60.557l-5.64 1.688c25.514-20.033 21.27-48.475 14.385-60.745 0-.36-.1-.32-.735.256-.556.503-.615.612-.39.705 7.78 11.972 10.688 45.79-19.968 62.107-.514.534.527.453.527.453.053-.44 13.802-3.78 12.832-3.864 12.815-11.327 23.972-38.34 10.083-61.888-.336-.22-.784.73-.784.73zm-4.425 3.757l-.18.748c11.124 21.836.506 48.59-20.17 58.49.342.25.72.422 1.1.6 23.454-12.63 30.217-39.36 19.985-60.062zm-1.86 1.548l-.13.792c9.21 18.584 1.9 44.374-20.078 54.835-.208 1.125.004.796 1.032.743 25.426-13.636 27.817-39.568 19.86-56.408zm-1.58 2.228c-.717.95-2.032 1.44-2.47 2.663 7.388 19.522-2.16 38.316-18.322 46.238-.013.983-.718 3.414.994 3.025 19.968-9.045 28.655-33.09 19.925-52.014 0 0-.114.082-.126.086zm100.3 37.748c.735.052 1.394.275 2.076.364 2.48.32 4.09 2.13 2.982 3.23-.364.36-.873.153-2.484-.636-.74-.362-.86-.7-1.012-1.518-.184-.98-.38-1.078-.628-.318-.252.767-.522 1.243-1.37 1.05-2.377-.554-1.478-2.19.437-2.172zm-26.532 16.622c-5.956-3.38-13.31-9.474-17.516-16.4-2.09 3.923-4.546 11.06-4.546 11.06l-9.348-2.61-.11.194 9.24 2.663-.9 3.083c-.098.333-1.528 3.842-1.528 3.842l14.43 6.735c-.893 1.4-1.87 2.304-3.108 3.61-.7.735-.72 1.688-.72 1.688l20.01-19.084s2.58 3.827 3.54 4.695c.9.815 1.18 1.012.13 1.256-4.7.69-8.35 4.248-7.078 9.023.206.53.62.335 1.51-.226 3.123-2.826 10.752-5.443 11.013-4.78l.03 3.042c-8.213.118-7.37 6.157-6.77 9.396 0 .07-2.375 2.146-2.375 2.146.84.44 1.663.896 2.44 1.44-.723 4.028 2.71 9.866 9.45 6.877.584.598 1.135 1.2 1.778 1.95.69-.8 1.485-2.68 1.485-2.68 3.35 1.515 10.298-1.877 6.743-9.647l1.96-1.87-1.88-1.185c-.05-1.976-.356-3.74-1.535-5.462 0 0 3.16.807 5.5.943 1.445.13 2.663.167 2.542-.706-.036-.257-.252-1.514-.393-1.926-.697-2.035-4.317-3.53-7.832-3.726-.574-.032-1.19-.014-1.314-.163-.23-.278.183-.675.56-.61 1.925.336 3.777-1.087 4.11-2.897.067-.317.46-.9 1.025-1.517 1-1.096 1.08-1.067 1.06-2.652-.012-1.1.18-1.344.688-2.08.656-1.052.96-2.423.63-3.842-.104-.45-.53-1.086-.167-2.207.59-1.822-.706-3.49-2.407-4.44-.136-.038-.095.096-.208.23-1.543.48-3.422-.625-3.422-.625-.387-.19 1.314-10.077 4.84-9.194.586.356.834 2.074.79 2.104.162-.004.25-1.01.022-1.683-.24-.705-.786-1.377-1.838-1.178-.815.153-1.757 1.235-2.183 1.778-1.647 2.1-1.665 3.438-2.215 5.67-.265 1.056-.294.995-1.754-.146-1.05-.82-1.557-1.08-1.192-1.56.164-.217.843-.9.843-.9l12.76-12.28V654.35h-72.167l.505-15.804c1.354-11.112-1.028-34.446-2.83-36.64 1.39-1.563 5.704-5.33 5.466-5.5l-.572-.337-2.28 2.098-5.634-1.706c-2.403-1.66-4.855-3.195-7.4-3.848-4.152-1.066-12.152 2.33-12.16 2.366-12.78.946-23.014 6.136-22.87 6.096-.557-.51-1.294-2.142-1.313-2.132-6.588-9.168-13.064-14.303-21.912-20.57l11.207-6.19-26.558-27.748-.234-22.532 38.472-36.78c.227-.634 12.274 8.51 16.76 15.95.86-3.637 2.462-6.94 3.796-10.512.14-.326 7.654 2.78 9.884 2.91.333.02.602-.33.602-.33l-9.918-3.227 2.03-5.808s.705-1.58-.092-1.84c-4.52-1.463-8.763-4.04-13.087-6.236 0 0 2.02-2.247 2.05-2.346.028-.093.847-1.298.652-1.713-2.2 2.135-20.15 18.78-20.15 18.78-.51-2.856-1.312-3.855-3.057-5.618.95-.046 2.44-.985 3.3-1.612 2.63-1.916 4.06-5.336 3.717-7.334-2.525.804-4.805 1.746-7.968 2.32-1.78.323-3.465 1.125-4.487 1.986l-.157-3.187c.006.036 4.255.744 6.223-2.107 1.695-2.458 1-5.27.61-6.705.044-.318-.05-.283.68-.956.54-.497 1.383-1.14 1.383-1.14.036-.18-2.194-1.007-2.57-1.762.592-5.908-4.128-8.19-8.124-7.14-.747.226-1.104.366-1.992-.623-.132-.148-1.197-1.273-1.197-1.273s-.47 1.083-.71 1.56c-.784 1.544-1 1.08-2.69 1.16-4.278.21-6.187 3.666-5.205 7.908.23.996.127.842-.527 2.1-.334.644-.88 1.464-.88 1.464s.786.435 1.315.672c.783.35.824.76.82 1.54.11 1.722.488 2.874 1.478 4.353-3.35.077-5.923-.236-8.958-1.244.464 4.667 3.905 6.405 8.12 7.09 0 0-.443.412-.908.596-.986.285-1.603 1.15-1.594 1.926-.142.74-.62 1.485-1.063 1.88-.656.568-1.195 1.37-.937 2.917-.066 1.12-.337 1.445-.666 1.874-.662.86-.885 1.714-.72 2.844.077.527.24 1.653.13 2.817-.18 1.94.514 2.668 1.396 4.033.572.885.45.91.32 1.55-.318 1.542-.648 2.335-.99 3.507-.768 2.623-.797 4.613-.17 5.125.945.77 2.014.54 2.512.385 3.728-1.15 3.083-4.812 3.28-7.27.106-.63.32-.934.53-.904 1.055 1.234 2.17 1.947 3.604 2.725-4.962 5.05-8.203 8.14-14.475 13.65l.17-123.006h71.558s.075.91-.096 5.36c-.31 9.046-.69 18.522-.096 27.743.1 3.192.034 6.343.492 9.5.447 3.077.645 6.394 2.082 9.26.578 1.553.596 1.433-1.605 3.468-1.08.997-1.997 2.06-1.957 2.247.013.062-.048.296.118.164.11-.088.908-.878.996-.982.596-.703 1.594.2 4.998 1.16.668.188 1.61.816 2.328 1.337 5.09 4.287 12.248 2.95 17.6.612 1.52-.664 1.892-.733 4.333-1.022 9.04-1.072 18.7-5.02 18.68-5.01l1.18 1.934s.443-.082.76.404c5.198 9.82 22.173 21.04 21.87 20.52l-11.094 6.143c8.077 9.98 26.55 26.913 26.55 26.913l-.426 24.336c-4.96 3.965-9.32 8.512-13.68 12.952-1.255 1.24-2.14 1.95-1.664 1.973 1.132-.173 2.11.944 3.03 1.718.584.65.443.59-.23 1.48-.473.624-.646.804-.648 1.256.016.872.01 1.457-.767 2.112-.48.606-.757.994-.844 1.712-.088.717-.08 1.177-.574 1.81-.836.18-.915 1.395-.768 1.94.875.867.476 1.807.557 1.61-1.67 1.814-3.425 3.385-2.304.85.505-.945.68-1.728.68-1.728s-.804.834-1.225 1.228c-.644.596-.88.245-.9-1.607-.08-1.4-.672-3.356-.907-3.73-.13-.21-.153.153-.092 1.502.082 1.774.294 2.29-.33 4.06-.845 2.395-1.446 2.734-.075 2.65 1.3-.077 2.397-.09 2.966.684.192.262.44.71.964.973 1.068.584 1.918 1.232 2.512 1.878 1.92 2.09 1.37 3.957-2.344 2.69-1.956-.667-.675-1.506 1.427-1.312 1.29.12 1.508-.356.39-.698-2.08-.385-2.414-.62-3.784 1.01-5.758-.57-8.99-3.787-10.544-6.41-.65-1.095-.848-1.305-.396-1.926.178-.246.07-.17-.237.168-.307.34-1.144.623-1.42.867-1.934 1.93-3.895 4.002-5.637 5.57zm25.057-13.514c.978.12.96.94.086 1.73-.82.62-1.38.74-1.844.275-.81-.817.236-2.01 1.758-2.005zm2.846.57c.788-.005 1.792.358 2.986 1.35 1.425 1.183 1.75 4.05.442 4.547-.548.206-.633.003-1.8-1.107-.788-.748-1.643-1.425-2.484-1.825-1.717-.817-1.937-1.126-.777-1.683.245-.125.56-.42.706-.652.297-.477.387-.63.926-.632zm-1.855 3.816c.23.006.534.145 1.01.4 2.895 1.58 4.31 4.06 3.33 5.458-.642.918-1.688.567-2.485-.734-.45-.733-1.64-1.67-2.994-2.357-1.55-.785-1.582-.898-.463-1.434.46-.22.804-.53 1.03-.927.26-.46.28-.414.574-.405zm.93 5.905c2.185 2.18 1.935 3.36.515 4.248-.97.607-2.526.758-3.036.256-.825-.72-.803-1.546.108-1.81.85-.183.53-.523-.263-.725-2.835-.803-4.578-2.308-1.496-1.982.883.094 1.74-.594 2.202-1.142.67-.812 1.572.764 1.967 1.157zm-149.12.84l63.818 91.362-51.593-.1s-.194-.67.226-6.147c.622-7.43-.332-13.874-2.09-21.126.222-.025-2.47-8.805-4.565-13.094-.38-.9-.318-.986.918-1.145 3.652-.587 7.586-1.47 11.234-3.014 1.696-.15 4.187.51 4.052.304-.06-.1-2.208-2.067-2.208-2.067-5.957 2.38-11.454 3.25-16.63 3.842 6.87 11.69 9.32 27.604 7.262 41.9l-9.886-.03-.03-70.353zm11.406 13.53c.9-.034 3.147 1.55 3.42 2.743.057.244.64 1.71 1.296 3.073.013.25 2.225 4.245 1.253 3.897-1.934-2.628-5.39-7.103-6.26-9.283.003-.29.04-.42.29-.43zm6.894 3.997c.12.66.79 2.386 1.32 3.524 1.376 2.964 3.51 7.612 3.075 8.935-.292.89.008.844-.773-.257-.38-.538-1.573-2.2-1.86-2.584-.697-.937-.227-.078-.626-1.602-.95-4.312-2.485-6.577-3.482-9.096-.356-1.183 1.89.602 2.346 1.078zm1.227.657c.185.13 2.714 1.91 2.97 2.164.897 3.19 4.48 13.403 3.553 15.228-.323-.253-1.69-1.9-1.878-2.75-.414-4.883-1.964-8.395-3.626-12.035-.468-1.097-.835-2.194-1.02-2.606zm4.757 3.587c.8.39 1.63 1.285 2.1 2.084.313.542.474 1.18.77 2.523.916 4.168 2.664 8.392 1.878 12.84-.49.664-1.557-.844-1.71-2.33-.505-4.923-.94-7.282-2.67-13.073-.337-1.124-.59-2.004-.368-2.043zm4.062 3.82c.17.007.522.325 1.106.874 1.137 1.068 1.297 1.46 1.304 3.23.037 2.604.904 5.575 1.04 8.203.076 1.516.354 5.438.12 5.67-.33.457-1.8-1.205-1.686-3.752.187-3.062.035-5.367-1.27-10.664-.604-2.45-.91-3.495-.648-3.555.01-.004.023-.006.034-.006zm117.826-15.467c4.56 2.927 2.952 8.33 1.975 8.994 6.297 7.956-3.49 12.03-6.597 9.17-4.598 4.57-12.488.74-9.45-6.79-.003 0-5.775-11.03 5.614-10.294 0 0 .196-4.457-.125-4.66-4.067-.274-9.593 3.64-11.158 4.722-.87.525-1.06.275-1.06.275-.215-2.314-.22-3.373.72-4.663 1.64-2.25 4.352-3.012 7.914-3.794 4.41 1.357 8.607 3.488 12.692 3.157 2.25.013 4.55.377 6.73 1.547 1.472.693 2.238 3.297 2.238 3.297-2.308 1.208-9.494-.96-9.494-.96zm-2.17-16.357c.02-.79.912-1.67 1.79-1.568 1.207.087 1.365 1.516.292 2.042-.31.25-1.31-.12-1.366.16.073.485-.417.28-.512.105-.166-.208-.204-.503-.203-.74zm-.73 3.114c.442-.31.812-.337 1.258-.396.685-.083 1.56.02 1.755.738.19.704-1.16 1.12-2.253 1.137-.556.01-1.2.118-1.367-.272-.157-.365.382-1.04.606-1.206zm-138.013-50.307c.88-3.058.33-4.77 1.796-8.54l3.57 1.19s.15 3.696-.57 5.755c-.72 2.058-3.086 3.7-4.797 1.595zm26.588 82.702c.42.05 1.455 1.522 1.922 2.868.428 1.248.287 2.833.6 4.178.7 4.608.658 9.225.472 10.62-.092.696-.54.413-1.154-.25-.892-.964-.77-.985-.758-3.66.01-2.295-.5-7.964-.734-9.115-.434-2.13-.614-4.16-.512-4.51.028-.098.086-.14.164-.13zm41.747.55c4.597.733 8.272 3.87 10.377 9.037 2.033 5.253 2.533 12.42 2.85 19.01-.023 1.575-.673 1.177-2.375.198-1.86-.91-2.256-.646-4.97-.024-1.696.39-1.543-.763 1.245-2.675.95-.62 2.053-1.446 1.69-1.57-.184-.062-1.033.166-1.647.662-2.735 2.21-3.476 2.748-2.688.6.2-.544.833-2.05 1.098-2.773.99-2.7-.15-3.855-3.515-5.564-.842-.428-1.396-1.14-.556.352.687 1.222-.733 2.207-2.492.778-1.222-.994-3.68-.332-4.472.908-.768 1.2-.357 3.44 1.157 4.166 1.334.575 1.832.162.54-.733-1.658-1.15-1.335-3.09.53-3.084.46.002 1.272.515 3.327 1.632 1.47.796 2.518.46 2.52-.73 0-.794.455-.73 1.423-.25 1.302.643 1.16 1.226.47 3.026-.463 1.257-.694 2.685-1.12 4-1.096 4.42-1.242 9.43-.03 10.99 3.228 4.152 6.655 3.712 9.59.968l-.126 4.547c-2.99 2.4-6.487 4.037-11.883 12.94-1.882-2.365-9.957-12.028-22.906-14.212l-2.913-3.986c.05-.248-2.177-14.827-3.633-19.79 0 0 1.602-2.433 3.057-4.226 5.815-7.163 15.642-15.36 25.455-14.195zm-16.887 4.14c-.498.157-.66-.836-.39-1.025.6-.05.81-.032 1.412.013.453.028.442.547-1.022 1.01zm-21.85-.745c.645.46 1.434 1.7 2.206 2.83.427.626.185 1.663.25 2.686.095 1.452.256 3.844.36 5.314.198 2.866-.07 5.264-.49 6.13-.427 1.034-1.295.32-1.51-1.097-.053-.34.23-3.856.23-5.787 0-3.32-.848-7.418-1.047-10.075zm19.6-.02c.227-.013.4-.005.552.19.697.892.98 1.432.345 1.922-.842.702-1.608.525-2.075-.81-.3-.95.41-1.25 1.177-1.302zm-2.597.787c.752.504 1.498 1.83 1.576 2.786-.048.263-.28.486-.784.893-.5.46-.658.43-1.216-.45-.876-1.368-1.285-2.27-1.114-2.74.438-.456 1.007-.638 1.54-.488zm30.61.173c1.253.107 2.493.68 3.714.968l-1.863 1.8c-.553-.922-1.184-1.845-1.85-2.768zm-33.394.94c.688.895 1.888 3.238 1.824 4.108-.175.296-.447.56-.736.727-.23.062-.435-.34-1.21-1.713-1.35-2.387-1.747-3.06-1.046-3.348.368-.04.93-.024 1.168.224zm-2.722.554c.75.667 2.552 4.225 2.604 5.226-.02.282-.104.526-.27.715-1.134 1.22-.847 1.023-2.533-2.448-1.424-2.854-1.8-3.136-.858-3.457.208-.07.73-.165 1.057-.036zm-2.707.928c.495-.008.634.82 1.597 2.702 1.613 3.56 2.218 4.054 1.853 4.434-.45.567-.713.966-1.14.277-.973-1.58-1.938-3.6-2.844-5.37-.725-1.323-.79-1.483-.324-1.807.266-.185.664-.232.857-.235zm28.79 1.01c-.605.17-3.042.943-1.55 1.083.303.03 1.067-.162 1.605-.2 1.51-.104 4.647.18 4.535-.108-.287-1.084-3.766-.984-4.59-.773zm-30.9.334c0 .06.392.754.78 1.433 2.294 4.43 3.568 6.042 3.16 6.742-.334.423-.852.955-1.16.83-.492-.204-1.15-1.654-2.79-4.936-1.695-3.39-1.87-3.644-1-4.085.357-.165.79-.288 1.01.017zm-2.29 1.562c1.054 1.713.916 1.488.903 7.062-.007 3.468-.453 5.68-1.033 6.535-.304.448-.84.185-1.106-.69-.12-.4.226-.995.29-1.628.41-4.174.124-8.345.134-12.295.318-.033.643.738.813 1.017zm27.178 1.367c.49.702.37 1.266.367 2.21-.005 1.33.09 1.43 1.01.756.817-.596.882-.634 2.337.353.862.585 1.95.65 2.656.004.496-.456.668-.25 1.333-.077.722.402.928.464 2.48-.29 1.05-.464 1.092-.53 1.716-.203 1.097.967 1.26.617 1.11-.647.004-.44.132-1.266.262-1.8.546-2.25-.338-2.275-1.507-.842-.452.555-1.46.796-2.414.348-1.366-.64-3.497-.382-5.073-.117-1.864.313-2.727-.2-3.476-.84-.425-.362-1.394-.685-1.502-.407-.107.276.113.713.7 1.55zm-25 3.155c.234-.05.592.64 1.116 2.106.678 1.892-.505 8.464-1.216 9.54-.376.565-.618.91-1.39-.135-.308-.46-.07-.606.236-1.898.464-1.966.854-5.147.88-6.627.005-1.92.11-2.928.376-2.985zm2.377 6.376c.168.012.364.392.633 1.14.38 1.03.195 3.013-.305 4.53-.29.885-.564 1.828-1.057 2.62-.168.442-1.03.287-1.266-.697-.15-.622.368-1.395.618-2.386.252-.995.54-2.26.68-2.898.264-1.556.45-2.327.697-2.31zm18.392 2.913c-.02-.003-.04 0-.053.005l-.014.014c-.04.04 1.794 2.036 2.285 2.594.258.218 2.465 2.9 1.093 2.285-3.464-1.435-7.517-.73-10.013 1.677-.312.3-.57-.007-1.516-.078-1.94-.145-2.643.624-1.464 1.58.18.145.557.21.728.445.156.216.11.6.19.71 3.75 4.975 10.69 5.943 15.05 2.693.548-.41.856-.553 1.367-.4 1.013.3 1.103-.548.207-1.735-.39-.517-.87-1.114-.59-1.286.553-.476.826-1.254-.136-1.545-.664-.2-1.407-.94-1.78-1.97-.436-1.203-4.705-4.9-5.352-4.99zm-17.016 2.178c.815-.018.853 4.795-.048 6.256-.463.553-1.52-.475-1.362-1.53.12-.804.986-4.42 1.183-4.61.08-.075.16-.113.228-.115zm16.61 3.006c.684-.007 1.62.3 2.364.97.403.365 1.107 1.94.815 2.555-.082.315-.927.297-1.004.067-.464-3.176-3.04-3.637-3.857-.672 0 0-.53.45-.598-.418.184-1.684.975-2.488 2.28-2.5zm20.735.275c.82-.014 1.6.397 2 1.27.28.61.31 1.123.2 1.39-.084.2-.36.114-.36.114-1.307-3.584-3.085-1.927-3.73.055 0 0-.672.206-.756-.007-.084-.214-.03-.617.236-1.175.51-1.065 1.483-1.63 2.41-1.647zm-17.484.223c.462-.025 1.254.35 1.846.95.602.605.66.967.175 1.417-.29.27-1.33.538-1.53.068l-.875-2.043c-.083-.194.174-.38.384-.392zm-6.3.097c.52 0 .628.12-.185 2.012-.174.404-2.262-.183-1.864-.964.598-.62 1.533-1.05 2.05-1.048zm20.91.15c.208-.01.377.02.45.115-.188.067-.977 2.063-.977 2.063-.745-.09-1.636.015-1.797-.594-.152-.576.15-.926 1.198-1.33.318-.114.778-.24 1.125-.255zm6.108.51c.79.29.976.96.875 1.305-.077.262-.45.265-.715.063-.252-.292-.623-.79-.594-1.125.082-.334.182-.337.434-.242zm-39.377 1.845c.244.457.683 3.048.17 2.98-.497-.127-.73-.908-.816-1.612-.018-.145.425-1.35.647-1.368zm8.7 1.383c.23-.033.81.17 1.67.657 2.835 1.37 5.74 1.563 8.827.873 1.78-.46 2.234-.732 2.485-.427.427.52-.247 1.04-2.76 1.884-2.756.926-5.616.77-9.377-1.883-1.01-.712-1.14-1.06-.845-1.102zm31.45.714c.468.87-1.12 1.696-1.925 1.93-1.71.493-4.3.263-5.764-.616-.122-.074-.24-.153-.35-.236-1.19-.886-.7-1.52.626-.836 1.425.735 4.326.87 5.864.128.77-.372 1.3-.84 1.55-.37zm-35.193 1.623c-.16.036.11.435.66 1.034 3.878 4.35 13.13 6.71 18.328 2.226 1.628-1.528 1.38-2.215-1.188-.994-2.84.934-6.877 1.057-10.367.54-1.717-.232-4.513-.89-5.93-1.928-.895-.653-1.364-.91-1.503-.88zm26.733.13c.237.02.652.108 1.552.576 1.313.684 4.297.45 5.273.09 2.06-.76 2.48.205.53 1.282-2.172 1.315-5.17.8-6.92-.893-.542-.487-.835-1.09-.597-1.14.023-.005.128.083.162.086zm-25.703 7.698c7.635.697 19.157 8.274 23.65 17.375h-2.586c-4.512-7.162-11.458-12.927-19.7-15.078-.325-.25-1.538-1.98-1.363-2.297zm33.89 1.667l-.353 2.516c-1.28 1.05-5.97 4.935-9.448 11.02-.724-.035-1.076-.91-.955-1.503 2.786-5.49 6.116-8.523 10.757-12.033zm-30.858 1.97c1.75-.12 13.147 6 16.985 13.738h-2.1c-4.318-5.622-9.116-9.29-13.375-10.76-1.035-1.093-2.17-2.93-1.51-2.98zm30.504 1.75l-.02 3.4c-2.726 2.655-4.72 5.325-6.28 8.588h-2.117s-.47-.933-.306-1.514c2.407-4.33 4.712-7.483 8.724-10.474zm-17.313 11.988h-2.048c-1.73-2.445-4.298-4.797-6.657-6.197-.966-1.197-2.05-2.674-1.613-2.914.026-.884 9.095 5.243 10.32 9.112zm17.36-6.917l-.046 1.967c-1.387 1.774-2.55 3.26-3.66 4.95H372.4c1.59-3.436 5.59-7.845 5.45-6.916zm-23.518 3.808c.632.167 2.94 2.372 2.867 3.11l-1.04-.03c-.583-.736-1.274-1.502-1.684-2.256-.257-.476-.422-.918-.144-.824zm23.115.608c.007-.002.01-.002.014 0 .005.002-.02 2.502-.02 2.502h-1.752c-.188-.034.85-1.89 1.76-2.502z" fill="#131f67"/><path d="M413.912 396.247c-8.59 0-17.276.048-26.94.15l65.248 92.577.052-20.566-20.938-27.02c4.765-1.47 10.584-2.485 15.166-2.893-5.885-13.045-8.828-25.297-6.236-42.088-9.27-.107-17.762-.158-26.352-.16zm25.266.59c-.51 5.928-1.182 12.538-.107 19.88-3.394-1.24-4.19.878-4.754 1.1-.638-1.424-3.005-3.888-5.685-.992-1.392 1.506-.715 4.34 2.52 5.616-3.704.285-5.63-2.88-6.278-6.144-2.002-1.28-4.106-2.547-4.306-7.04l1.026.172c-.34 3.134 2.915 4.73 4.82 3.235 1.233-.944 1.365-2.4.88-4.664.99-.204 3.307-1.175 2.694-4.153-.846-4.11-5.07-3.63-6.998-.925-1.604-1.985-4.544-2.353-5.724.73-.656 1.717.84 3.645 2.54 4.018-3.776.724-5.68-4.483-5.892-8.008l-1.564-2.777c10.21-.06 14.676-.047 26.83-.048zm-51.144.1l7.578.006 55.307 71.57.115 17.817zm19.16.006l1.208.014c.946 6.3 4.57 10.86 10.765 13.08.322 5.146 2.804 12.137 12.22 14.5-.277 5.81 3.456 11.363 7.453 14.025 0 0-1.08.267-1.923.348-5.373-4.26-6.697-10.534-7.23-13.123-.182-.374-.694-.464-1.1-.555-4.6-1.625-8.47-5.402-10.052-10.013l-.995-4.526c.002-.582-.116-.31-1.483-.812-3.547-1.305-6.827-5.143-8.298-9.727-.774-2.41-.566-3.212-.566-3.212zm-4.873.014l4.246.005s.025.75.087 1.237c.57 4.512 4.624 10.175 8.757 12.054.585.266 1.398.64 1.59.816 1.154 7.398 4.508 11.854 11.586 14.906.112.116.432.19.526.338.965 4.574 3.074 9.878 7.086 12.794l-1.734.18zm20.74 7.765c.96 0 1.738.78 1.738 1.74s-.78 1.733-1.738 1.733c-.96 0-1.74-.774-1.74-1.734s.78-1.738 1.74-1.738zm-58.596 9.488c.1.25-23.746 20.422-21.426 58.374l-.69.773.188.27c-.787.894-1.546 1.61-2.405 2.483 4.946 3.15 13.565 6.59 13.592 6.5l-1.647 3.817 10.302 3.327-1.38 3.628s-7.168-2.377-10.14-3.367c-1.464 3.25-2.352 6.68-3.418 10.06-.102.273-.336.142-.702-.385-5.35-9.127-16.343-15.713-15.972-15.06l-38.978 36.982-.265 22.856 26.975 27.8s-7.806 3.842-11.5 6.36c2.872 2.346 6.123 4.15 8.98 6.367 5.905 4.166 9.892 10.29 13.72 14.437 18.055-8.952 36.238-8.453 51.94-3.02-1.828 1.926-3.87 3.594-5.756 5.68 4.564 11.978 3.104 35.762 2.874 36.41 9.503-9.71 23.64-30.525 21.754-59.834l4-4.01c-.074-.204-10.005-5.52-14.143-6.678l1.144-3.642-9.91-3.096 1.107-2.893 9.872 2.858c1.868-4.59 3.848-11.017 3.848-11.017 3.943 5.9 8.288 11.264 17.233 16.722l38.756-37.08-.25-23.84-26.386-26.385 10.983-5.724c-1.056-.85-2.586-1.658-3.67-2.51-.078-.062.217-.246.14-.305-.277-.213-.478-.385-.76-.58-.062-.044-.26.242-.323.198-3.727-2.614-7.455-5.185-10.39-8.312-.072-.08.036-.405-.038-.483-1.524-1.628-3.042-3.144-4.593-4.747-.72-.726-1.91-2.45-1.91-2.45l-.066-.57-1.667-2.095c-5.365 3.165-28.243 11.11-50.38 2.314l4.207-4.207c-1.12-2.702-1.847-5.717-2.135-8.187-1.16-9.904-.716-27.738-.716-27.738zm69.782 5.607c1.013 0 1.836.823 1.836 1.836 0 1.013-.823 1.835-1.836 1.835-1.012 0-1.83-.822-1.83-1.835s.818-1.836 1.83-1.836zm5.74 2.184c.935 4.562 2.99 11.186 5.036 15.65l-2.438.27c-1.985-1.29-4.083-3.17-4.304-5.84-5.368.04-6.937-8.378-4.977-7.368-.25 2.877 1.814 4.01 3.838 3.728 1.744-.243 3.25-2.65 1.177-5.307.922-.358 1.373-.63 1.67-1.132zm-76.073 13.49c.356 5.834 1.5 10.088 2.57 14.495l-10.607 10.008c.828-9.135 3.51-17.298 8.037-24.503zm50.87 19.214l1.346 1.932c-15.328 9-41.49 9.637-57.428 2.048l2.115-2.014c14.015 6.328 36.833 6.798 53.965-1.966zm-99.55 3.004c-1.545-.02-3.327.57-5.217 2.01-7.03-3.204-11.637 4.284-7.288 9.244-.644 3.57-1.13 4.234 1.555 7.848-2.853.363-6.455-.383-9.52-.855.518 5.287 8.088 6.517 11.24 5.936 3.402-.736 6.612.948 6.752.987 2 .558 3.243 1.52 5.216 1.985 3.255.774 8.02-3.04 8.71-6.66.065-.487.215-.928-.054-1-2.224.568-4.667 1.37-6.834 1.845-2.122.52-3.72 1.034-5.337 2.3l-.135-4.368c11.015.523 6.22-9.95 5.598-10.4 2.046-4.132-.416-8.82-4.685-8.872zm100.124.328l2.395 5.763-6.366 2.157-1.627-5.64zm-100.583.174c3.744.037 7.093 3.98 3.497 8.395 6.97 6.147-1.962 12.735-6.215 8.162-5.663 5.186-11.68-.23-8.515-5.878-6.04-5.405 1.408-12.653 6.496-7.985 1.25-1.92 3.036-2.71 4.738-2.695zm43.47 2.11c.895 0 1.622.728 1.622 1.624 0 .896-.727 1.623-1.623 1.623s-1.623-.727-1.623-1.623.727-1.623 1.623-1.623zm-41.475.122c-.094 0-.205.043-.325.15-.182.016-.576.693-1.565 1.84-1.72 1.992-1.904 2.01-1.904 2.01-1.832-.598-3.057-.275-4.264.49 0 0-1.376-.262-3.274-1.848-.866-.724-1.332-.88-1.483-.493-.16.415.232.822 1.893 1.952 2.3 1.564 2.156 1.445 2.156 1.445-.142 1.374.08 2.49.6 3.532 0 0-.404.975-2.036 3.112-.462.604-.84 1.26-.84 1.46-.004.83.722.272 2.39-1.836.654-.827 1.55-2.01 1.55-2.01 1.96.68 2.648.266 3.876-.17 0 0 .42.313 1.49 1.165 1.955 1.56 2.378 1.725 2.62 1.528.322-.267.28-.354-.46-.89-2.206-1.596-2.964-2.518-2.964-2.518.448-1.747-.042-3.192-.523-4.103 0 0 .035-.223 1.28-1.613.914-1.02 2.165-2.632 2.086-2.864.02-.144-.1-.34-.304-.338zm45.134.352l5.733 1.783-1.265 5.96-6.11-1.97zm41.49 1.464l1.598 5.815-5.965 1.584-.976-6.172zm4.186.096c.897 0 1.623.727 1.623 1.623s-.726 1.623-1.623 1.623c-.896 0-1.622-.727-1.622-1.623s.726-1.623 1.622-1.623zm13.558.208l5.013 4.463-5.563 2.81-2.68-5.814zm-47.275 1.29l5.825.685-.237 6.26-6.683-.893zm-20.208.067l6.48 2.844-2.336 6.53-6.638-2.85zm16.706.506c2.39.374 1.747 3.193 0 3.246-.895 0-1.622-.726-1.622-1.623s.727-1.624 1.623-1.624zm20.958.005l.797 6.266-6.047.367-.13-6.366zm4.16.716c.895 0 1.622.727 1.622 1.623 0 .895-.727 1.622-1.623 1.622-.897 0-1.623-.727-1.623-1.623 0-.897.726-1.624 1.623-1.624zm-84.186.588c.925 0 1.676.746 1.676 1.67 0 .925-.75 1.677-1.676 1.677-.924 0-1.67-.75-1.67-1.675s.746-1.67 1.67-1.67zm71.608-.06c.896 0 1.623.725 1.623 1.62 0 .898-.727 1.624-1.623 1.624-.897 0-1.623-.726-1.623-1.623 0-.896.726-1.622 1.623-1.622zm28.482.4l2.357 6.438-6.61 2.13-1.868-6.613zm4.636.173c.897 0 1.623.727 1.623 1.623s-.725 1.623-1.622 1.623c-.896 0-1.623-.727-1.623-1.623s.727-1.623 1.623-1.623zm11.423 1.826l4.27 3.02-2.115 1.177c-.554-1.327-1.533-2.9-2.154-4.197zm-61.03.584l6.303 1.367-.96 6.603-6.88-1.372zm-18.744.363l3.347 1.574-2.208 5.5-5.414-2.882zm14.963.357c.895 0 1.62.727 1.62 1.623s-.725 1.623-1.62 1.623c-.898 0-1.624-.727-1.624-1.623s.726-1.623 1.623-1.623zm36.402.362l1.125 6.602-7.11 1-.44-6.733zm26.617.125c.896 0 1.622.726 1.622 1.623 0 .896-.726 1.623-1.623 1.623s-1.624-.726-1.624-1.622c0-.897.727-1.623 1.623-1.623zm-5.043.048l2.352 5.82-6.956 2.908-2.058-5.824zm-17.736.42c.898 0 1.624.727 1.624 1.623s-.726 1.623-1.623 1.623c-.895 0-1.622-.728-1.622-1.624 0-.896.727-1.623 1.623-1.623zm-23.486.662l6.655.12-.078 6.676-7.288-.202zm53.23.464l2.618 1.815c-26.942 17.324-64.788 19.472-94.323 2.42 0 0 1.205-1.203 1.892-1.908 26.625 15.934 65.496 13.698 89.812-2.328zm-56.838.752c.896 0 1.622.727 1.622 1.623s-.726 1.623-1.622 1.623c-.897 0-1.623-.727-1.623-1.623s.726-1.623 1.623-1.623zm13.663.367c.896 0 1.622.726 1.622 1.622 0 .896-.726 1.623-1.623 1.623s-1.623-.727-1.623-1.623.726-1.623 1.622-1.623zm-31.7.893l6.95 2.01-1.182 5.486-7.622-2.194zm-4.597.038c.896 0 1.623.728 1.623 1.624 0 .897-.727 1.623-1.623 1.623-.897 0-1.623-.726-1.623-1.623 0-.896.726-1.623 1.623-1.623zm53.983 1.17l1.662 6.158-7.684 1.643-.928-6.056zm4.415.894c.897 0 1.624.726 1.624 1.623 0 .896-.727 1.622-1.623 1.622-.895 0-1.622-.727-1.622-1.623 0-.897.727-1.623 1.623-1.623zm-100.39.956l-.013 4.318c-1.274-1.05-2.714-2.17-4.188-3.3 1.502.08 2.9-.334 4.2-1.018zm-15.826.106c.35-.003 1.17.284 2.15.28 3.128-.01 8.973.967 10.702 2.386.576.472 1.44.89 1.908 1.652 0 .363-.515.373-1.27-.096-1.45-.9-3.86-1.702-7.086-2.15-.583-.08-.655-.057-.657.218 0 .34.54.537 2.238.816 2.2.36 2.666.577 3.154.71 1.305.358.47.835-.873.964-5.487.513-9.594-1.847-10.42-4.543-.067-.177-.005-.235.154-.237zm76.423.097l6.902.894-.315 5.776-7.554-.864zm-58.693.502c1.206.947.377 3.816-.28 4.66-.425.476-1.42.224-1.415-.443.15-.6-.063-3.453.067-4.337.48-.274 1.188-.197 1.627.12zm79.984.256l.357 5.957-7.53.342.058-5.85zm-25.406.402c.897 0 1.623.727 1.623 1.623s-.726 1.623-1.623 1.623c-.896 0-1.622-.727-1.622-1.623s.726-1.623 1.622-1.623zm-41.957.082c.278 4.37-6.434 7.336-8.945 5.994-1.112-.594-.65-.96 1.555-1.405 2.853-.756 4.732-1.49 4.734-2.024 0-.328-.433-.29-1.595.144-1.79.6-3.652.86-5.362 1.628-1.277.58-1.775.783-2.062.434-.6-.73 2.24-2.576 5.184-3.067 2.21-.37 4.437-1.547 6.49-1.706zm71.516.546c.898 0 1.624.727 1.624 1.623s-.726 1.623-1.623 1.623c-.895 0-1.62-.727-1.62-1.623s.725-1.623 1.62-1.623zm-15.092 1.188c.896 0 1.623.727 1.623 1.623 0 .897-.726 1.624-1.622 1.624-.896 0-1.623-.727-1.623-1.623 0-.895.727-1.622 1.623-1.622zm36.16 2.758c10.863 10.342 22.768 22.248 32.59 32.042l-.045 15.373-37.5 35.64c-6.79-4.144-12.538-9.327-17.83-18.53.596-.516 1.12-.844 1.573-1.407l-1.956 1.17c-6.917-11.064-9.85-33.107 1.9-50.778l-11.873.435 1.936-4.043 12.925-.705 5.226-5.607s1.656-.307 3.03-.623c1.36-.315 4.138-1.11 6.176-1.768 2.037-.66 3.77-1.198 3.85-1.198zm-87.666 2.864s11.16 6.066 17.36 18.214c-20.035 17.232-27.586 37.3-29.29 58.186-10.904-10.2-16.413-15.84-26.265-25.744l.357-14.78zm42.136 1.927c-2.888 6.174-5.372 12.937-7.598 20.185l-3.105-.918s2.01-.84 2.903-1.372l-1.614-2.598 3.058-1.256-1.807-2.203 3.1-1.796-1.55-1.948 2.84-1.42-1.762-2.028 2.98-1.662-1.555-1.94zm.95.015s.4.076.87.17c.114-.044-.56 1.617-.487 1.675 1.086.223 1.15.163 1.474.26l.826-1.71 1.357.257c-2.738 6.18-5.665 12.94-7.346 20.256l-1.598-.333s.467-1.543.47-1.748c-.19-.04-1.09-.42-1.368-.532-.096.24-.667 2.028-.667 2.028l-1.265-.034c2.07-7.99 5.682-16.85 7.737-20.29zm5.203.236l2.836 2.348-3.216 1.25 1.666 2.218-3.41 1.23 1.956 2.305-3.376 1.245 2.014 2.787-3.51 1.183 2.216 2.45-3.17 1.482 1.9 1.88s-1.978.65-2.092.68c-.318.08-1.647-.246-1.647-.246 2.003-7.13 4.478-14.358 7.834-20.812zm-68.975 1.19c-.783.507-.336 1.613-1.318 2.558-.157.17-.17.56-.232.9-.047.257-.823 3.342-.823 3.342s.196-.236.507-1.22c.264-.84.494-2.434.638-2.7.724-.22.834-2.582 1.568-2.26.424.188.343.574.104 1.48-.523 1.81-.728 2.572.17 1.338 1.338-1.613 1.47-3.068-.04-3.377-.16-.03-.482-.06-.575-.063zm20.257.67l-35.04 32.9-.107 12.28 12.195 12.36 8.655 8.388c3.142-18.79 10.35-36.714 28.096-52.226-2.718-4.372-7.376-9.88-13.798-13.702zm94.454.338c-20.59 9.677-25.324 29.522-18.948 47.488 9.812-12.62 17.512-24.475 18.948-47.488zm-73.28 1.005l9.35 3.01-3.52 12.007-8.42-2.555-.858-2.125zm72.246.315c-.895 16.056-6.95 31.738-17.484 44.044-5.327-13.143-2.123-34.153 17.484-44.045zm-50.36.087l-.59 1.492 1.294.367.55-1.515zm-1.296 3.525l-.53 1.517 1.327.45.498-1.542zm55.158.276c-2.882 22.272-14.915 42.54-27.627 52.868 4.05 6.572 8.814 10.798 13.654 14.326l35.81-34.302-.14-11.442zm-94.628 5.912c-.22.814-.298 1.228-.298 1.228s.413-.38 1.5-.977c7.037-3.51 4.767 1.827 1.452 3.8-.74.396-1.503.864-1.503.864s.704.16 1.467.3c4.27.89 3.36 3.386-1.092 2.997-.658-.057-1.432-.182-1.432-.145 0 .037.266.975.575 1.75 1.5 3.783-1.3 4.077-3.142 1.673-.256-.335-.837-1.26-.837-1.26s-.182.7-.293 1.376c-1.59 5.927-5.518 5.777-4.052-.236.184-.62.408-1.733.408-1.733s-.883.534-1.844.963c-5.085 2.27-5.91-.066-1.29-3.483 1.313-.972 1.758-1.354 1.758-1.354-.818-.062-1.572-.188-2.238-.355-3.685-.924-4.667-3.126 1.237-3.023.873.018 1.76.075 1.76.075s-.29-1.266-.597-2.22c-1.425-4.418 1.446-4.944 3.867-.986.516.842.663.847.663.847-.074.003.153-1.507.74-2.903 2.93-5.43 4.08-.474 3.193 2.805zm63.33-4.396c-2.46 4.345-4.604 8.665-5.627 13.17l-9.57-.164c.663-3.994 2.353-8.15 4.372-12.543 3.895-.106 7.408-.278 10.824-.464zm-25.26 1.926l-.55 1.6 1.385.424.503-1.555zm-71.55 3c-1.026 2.663-1.37 5.63-1.937 8.008-.24 1.378.003 1.952.83 2.26 1.175.44 2.87-.16 3.82-1.516.535-.766.923-2.347 1.004-5.14l.092-2.487c-1.454-.27-2.447-.66-3.81-1.124zm70.255.348l-.458 1.468 1.338.497.512-1.483zm61.97.55c1.626.04 1.93.186 3.404 1.058l2.845 2.927c-.747.713-1.214 1.716-1.214 2.83 0 2.164 1.757 3.92 3.922 3.92 1.073 0 2.753-1.13 2.753-1.13l4.51 4.67c-2.628 1.152-5.202-1.497-6.17-2.545-.227-.246-.285-.415-.285-.415s.04.13-.055.647c-.377 2.08-2.428 8.215-4.39 7.888-2.207-.368.04-9.14.065-8.937-1.518 1.605-8.916 3.314-8.398 1.522 1.03-3.56 6.563-4.932 7.29-5.55-2.94-1.77-6.67-6.68-4.278-6.886zm-131.867.115c.937.065 1.58.178 2.217.444.296.08.31.328.343.56.005 1.052.27 4.137-.706 4.17-1.082-.024-2.098.208-2.81.752-.574.438-.764.122-.61-1 .15-1.086.69-3.37.923-4.293.037-.38.34-.65.643-.634zm29.235.04c-2.165 0-3.922 1.755-3.922 3.92 0 2.166 1.757 3.923 3.922 3.923s3.922-1.757 3.922-3.922-1.757-3.92-3.922-3.92zm0 1.37c1.408 0 2.55 1.143 2.55 2.55 0 1.408-1.142 2.546-2.55 2.546-1.407 0-2.55-1.138-2.55-2.545s1.143-2.55 2.55-2.55zm20.236.048c8.99 15.517 7.948 36.815-2.65 52.31l11.394-.798-1.498 2.917-12.147 1.183c-1.856 1.7-3.545 3.64-5.37 5.458l-.02.642c-4.164.967-8.333 2.08-12.577 3.61-2.24-2.2-6.455-6.598-6.428-6.71l.27-1.423c28.89-14.738 20.44-44.297 18.405-46.728 3.1-3.722 6.8-7.223 10.62-10.462zm80.178 2.82c1.17 0 2.115.952 2.115 2.122s-.945 2.12-2.115 2.12c-1.17 0-2.12-.95-2.12-2.12 0-1.17.95-2.12 2.12-2.12zm9.418.57l3.55 3.658c-.46.454-1.093.74-1.792.74-1.407 0-2.55-1.14-2.55-2.547 0-.727.305-1.386.792-1.85zm-121.93.455c1.17 0 2.115.946 2.115 2.116 0 1.17-.946 2.12-2.116 2.12-1.17 0-2.12-.95-2.12-2.12 0-1.17.95-2.117 2.12-2.117zm-15.766.89c.993.33.76 1.258-.52 2.074-.83.527-1.59.644-2.32.253-1.382-.74 1.487-2.81 2.84-2.328zm16.38 5.186l-12.767 12.35c.803-2.053.833-4.1.894-6.15 3.842.397 5.45-1.552 4.89-5.563 2.48.148 5.05-.114 6.983-.638zm20.453 1.41c5.92 16.877.778 34.738-17.735 45.082.762-16.172 7.55-31.635 17.735-45.082zm16.86 1.478c10.16 2.66 21.726 3.9 33.733 3.907.09 4.57.31 9.4 1.247 14.065-10.23-2.676-21.653-3.92-34.133-3.7.518-4.83-.31-10.307-.846-14.272zm75.338 2.497l-10.82 12.65.455-6.908c3.644.464 4.942-1.458 4.405-5.254 1.988.246 3.973-.103 5.96-.488zm-105.127.7l-.855 5.052c-2.16.06-4.28.825-4.25 5.646l-6.453-.077zm119.066.932c1.17 0 2.116.95 2.116 2.12 0 1.17-.946 2.12-2.116 2.12-1.17 0-2.12-.95-2.12-2.12 0-1.17.95-2.12 2.12-2.12zm-128.88.643c1.17 0 2.12.95 2.12 2.12 0 1.17-.95 2.115-2.12 2.115-1.17 0-2.12-.945-2.12-2.115 0-1.17.95-2.12 2.12-2.12zm124.152 2.173l-1.13 7.65c-2.948-.258-5.408.196-4.652 5.38-2.494-.243-5.957.346-8.278.547zm-10.563 1.386c1.17 0 2.12.95 2.12 2.12 0 1.17-.95 2.115-2.12 2.115-1.17 0-2.12-.945-2.12-2.115 0-1.17.95-2.12 2.12-2.12zm-129.123 1.64c1.17 0 2.12.952 2.12 2.122s-.95 2.115-2.12 2.115c-1.17 0-2.115-.945-2.115-2.115 0-1.17.945-2.12 2.115-2.12zm7.028 2.508c2.706.607 1.454 6.916.845 8.63-.046.047 7.55-3.98 8.003-2.2.297 3.562-6.288 6.046-6.288 6.046s4.438 3.855 4.564 6.28c.01 1.567-1.856 1.276-4.28-.71-1.035-1.02-1.837-1.782-2.55-2.49.833-.718 1.358-1.783 1.358-2.97 0-2.164-1.757-3.92-3.922-3.92-1.196 0-2.266.536-2.985 1.38-.562-.54-1.198-1.172-2.053-1.98-1.4-1.31-2.382-2.35-2.24-2.82 1.846-1.3 5.52 2.193 5.848 2.51-.275-.68 1.757-7.394 3.7-7.756zm-3.7 7.757c.015.036.035.058.063.058l-.062-.058zm115.367-2.83c1.288-.018 1.207 2.912.75 4.433-.315 1.16-.624 2.11-.624 2.11s1.086-.846 1.566-1.07c3.503-1.642 4.81.216 3.042 2.37-.848 1.11-2.006 1.354-2.946 2.285 1.34.06 2.877.358 4.033 1.038.9.54 1.605 1.19 1.604 1.595-.005.906-2.23 1.394-4.31 1.16-.885.02-2.55-.455-2.55-.455s.69 1.162.942 1.855c.777 2.155.504 4.68-.618 4.675-1.88-.502-2.796-2.59-3.53-4.09-.604 1.67-1.188 3.46-2.532 4.704-1.332 1.232-2.015.21-1.946-1.88.027-.83.637-3.308.637-3.308-7.89 2.664-7.304-.94-1.146-4.096-3.793-1.81-6.098-3.436.354-3.805-.17-.155-1.296-3.61-.09-4.42 1.12-.752 3.507 1.83 3.622 1.957-.048-.256.63-2.28 1.763-3.676.87-.984 1.514-1.375 1.98-1.38zm-7.274 7.52c.01.007.017.008.02 0h-.02zm34.545-2.283c-1.374.126-2.23 1.345-2.864 2.408-.128.216-.366.292-.455.577-.57 1.834-1.066 4.03-1.37 6.763.87.358 2.834.962 3.703.637.244-.102.168-.734.25-.942 1.37-3.45 2.048-6.028 2.048-7.613 0-1.278-.44-1.91-1.31-1.83zm-141.198-.156c1.408 0 2.55 1.143 2.55 2.55 0 .81-.377 1.53-.965 1.995-1.643-1.637-2.484-2.495-3.584-3.574.467-.59 1.188-.97 2-.97zm141.684 1.214c.346.836-.76 1.745-2.194 1.74-.853-.004-1.13.116-.75-.623.45-.9 2.286-2.718 2.945-1.117zm-19.225-.59c1.17 0 2.12.95 2.12 2.12 0 1.17-.95 2.115-2.12 2.115-1.17 0-2.12-.946-2.12-2.116 0-1.17.95-2.12 2.12-2.12zm-111.77.148c1.17 0 2.12.946 2.12 2.116 0 1.17-.95 2.12-2.12 2.12-1.17 0-2.115-.95-2.115-2.12 0-1.17.946-2.116 2.116-2.116zm100.24.86c-2.165 0-3.92 1.757-3.92 3.922s1.755 3.922 3.92 3.922c2.166 0 3.923-1.757 3.923-3.922s-1.757-3.922-3.922-3.922zm-52.413.527c-1.03 4.52-2.618 8.84-4.623 13.113-3.78.228-7.868.404-10.564.787 4.49-7.862 4.598-9.71 6.26-13.876zm6.496.637c1.062.126 2.226.286 3.275.488-1.93 6.793-4.482 13.767-7.777 20.48l-1.994-.31-.947-1.17 3.168-1.265-2.468-2.52 4.09-1.237-2.515-2.483 4.043-1.01-2.164-2.627 3.626-1.415-2.304-2.975 3.864-1.063zm45.918.208c1.407 0 2.55 1.143 2.55 2.55 0 1.408-1.143 2.545-2.55 2.545-1.408 0-2.55-1.137-2.55-2.545 0-1.407 1.142-2.55 2.55-2.55zm-41.92.386l1.35.218-.417 1.444 1.535.328.498-1.56s1.235.114 1.366.213c-1.61 6.556-7.298 20.28-7.37 20.207l-1.464-.217.386-1.387-1.362-.193v-.014l-.657 1.507-1.454-.12c3.522-8.04 5.92-14.21 7.587-20.427zm71.59.522c1.08-.005 1.015.552.232 2.59-.736 1.912-1.01 2.68-1.368 2.927-.852.604-2.685.097-2.537-.783.483-2.86.654-4.08 1.392-4.467.77-.152 1.518-.264 2.28-.267zm-66.17.237l3.516.68-2.94 1.75 1.868 2.182-3.613 1.54 2.193 2.27-3.487 1.426 2.12 2.497-3.617 1.526 2.463 2.135-4.068 1.286 1.54 2.366-1.53.855-1.89-.294c3.136-7.313 5.15-13.33 7.444-20.218zm8.64 1.748l6.888 1.874 1.377 2.458-3.23 10.91-9.177-2.694zm-13.687 1.053l-.658 1.792 1.517.314.583-1.845zm-1.334 4.115l-.657 1.793 1.424.28.67-1.81zm-1.343 3.62l-.67 1.78 1.385.286.662-1.787zm64.71 3.278s-.704.51-.89.735c.154.41.6 1.038.533 1.45-.06.31-.407.56-.927 1.114-1.297 1.51-1.753 1.345-1-.266.247-.505.357-.974.357-.974-.3.42-.526.917-.73 1.31-.427.825-.825 1.603-.825 1.603.825.284 1.374.898 1.908 1.296 0 0 .27-.73.46-1.428.26-.974.776-1.375 1.41-1.71.398-.212.78-.597.78-.597-.697-.71-.777-1.725-1.078-2.532zm-66.144.44l-.71 1.898 1.38.338.768-1.937zm-77.927 4.772c-.126 7.558.125 12.535-.14 20.686l20.464 26.52-3.192 1.073s-.035.367-.208.415c-4.373 1.202-11.466 2.4-11.466 2.4 5.276 12.046 8.698 27.11 6.338 42.155l52.964-.14zm112.015 12.808l-1.826 1.83c-26.935-14.577-64.034-14.52-91.106 3.13l-2.207-1.617c29.546-18.93 65.898-18.81 95.138-3.342zM292.363 564.95l62.34 89.552-7.322.107-54.964-71.904zm133.784 1.62s-1.8.466-3.314.95c-4.33 1.388-6.358 3.893-5.96 7.37.118 1.03.384 1.014 2.15-.1 4.13-2.608 4.39-2.723 9.534-4.23.398-.118.975-.03.975-.03l-.227 4.062c-8.576-.033-8.108 6.78-5.64 10.32-.864 1.64-2.754 7.356 3.467 9.53 3.103.62 6.39-1.903 6.288-2.033 5.724 2.706 12.367-1.832 7.187-9.694 1.948-3.43.575-5.974-1.284-8.163 0 0 .314.027 3.023.526 4.11.758 5.68.623 5.68.623.006-3.7-3.058-5.352-9.447-5.854-4.526.637-12.433-3.313-12.433-3.28zm-69.01.43c.31-.002.615-.002.922.004l-.3 6.317-6.96.32-.454-6.293c2.397-.166 4.625-.34 6.79-.348zm8.34.154l7.468.908-1.13 5.907-6.878-.74zm60.41.067c.766-.016.6.78-.3.958-1.343.262-4.785 2.266-4.787 2.786-.002.336.17.288 1.43-.386.63-.337 1.944-.91 2.917-1.28.973-.37 2.085-.815 2.473-.99 1.157-.522 1.73-.16 1.313.826-.275.653-.384.704-3.066 1.555-2.428.77-2.873.968-4.415 1.955-.575.37-1.594.957-2.265 1.304-1.586.82-1.907.823-1.903-.28-.087-3.273 3.532-5.728 8.438-6.434.06-.01.113-.013.164-.015zm-64.47.77c.933 0 1.69.756 1.69 1.69 0 .933-.757 1.69-1.69 1.69-.934 0-1.69-.757-1.69-1.69 0-.934.756-1.69 1.69-1.69zm-18.475.448l.555 5.733-6.844 1.76-1.565-5.922c2.62-.64 5.236-1.092 7.854-1.57zm88.165.435c1.876.286 1.727 4.582.768 5.327-1.477 1.064-2.383-1.16-1.724-4.11.186-.887.528-1.197.957-1.217zm-84.282.232c.934 0 1.69.757 1.69 1.69 0 .934-.756 1.69-1.69 1.69-.933 0-1.69-.756-1.69-1.69 0-.933.757-1.69 1.69-1.69zm33.433.493l7.737 2.11-1.893 5.99-7.26-2.044zm-4.212.115c.934 0 1.69.757 1.69 1.69 0 .935-.756 1.69-1.69 1.69-.933 0-1.69-.755-1.69-1.69 0-.933.757-1.69 1.69-1.69zm63.296.503c3.333.035 7.73 1.707 7.737 4.284-.068.732-6.984-.24-10.177-1.526-1.133-.457-2.514-1.845-2.512-2.425.003-.346.677-.32.953.014.45.546 2.04 1.116 5.7 2.038 2.81.707 3.09.735 3.09.31.002-.39-1.66-.924-3.458-1.223-.905-.15-1.75-.422-3.14-.542-.648-.002-.806-.41-.265-.686.59-.175 1.303-.254 2.072-.246zm-5.888 1.333c.84.393 1.145 1.18 1.61 1.593-.578.273-.836.55-1.77.618.018-.616-.15-1.352.16-2.21zm-101.326.462c.933 0 1.69.757 1.69 1.69 0 .935-.757 1.69-1.69 1.69-.934 0-1.69-.755-1.69-1.69 0-.933.756-1.69 1.69-1.69zm-4.55.48l1.826 5.852-6.54 2.845-2.318-5.8c2.26-1.19 4.733-2.053 7.032-2.9zm30.24.955s5.21.007 7.008.03l-.42 6.606-6.5.05zm-6.96.362l.362 6.597-6.26.84-1.236-6.636zm39.576.057c.934 0 1.69.757 1.69 1.69 0 .934-.756 1.69-1.69 1.69-.933 0-1.69-.756-1.69-1.69 0-.933.757-1.69 1.69-1.69zm45.29.155c3.812.016 7.447 4.4 3.68 8.993 6.178 4.752-.538 12.74-5.998 8.085-7.807 7.67-12.17-2.744-8.94-5.506-4.772-7.84 1.09-12.795 7.138-9.336 1.114-1.58 2.63-2.243 4.12-2.236zm-63.798.188l6.868 1.526-1.38 6.526-6.71-1.362zm22.73.16l6.28 3.12-4.87 4.685-3.618-1.802zm-40.258.738c.934 0 1.69.757 1.69 1.69 0 .935-.756 1.69-1.69 1.69-.933 0-1.69-.755-1.69-1.69 0-.933.757-1.69 1.69-1.69zm13.568.213c.933 0 1.69.758 1.69 1.69 0 .935-.757 1.692-1.69 1.692-2.488-.39-1.82-3.326 0-3.38zm-31.274.952l1.53 6.526-6.36 2.15-2.275-6.357zm4.37.464c.935 0 1.692.757 1.692 1.69 0 .934-.757 1.69-1.69 1.69-.935 0-1.69-.756-1.69-1.69 0-.933.755-1.69 1.69-1.69zm94.16 3.01c-.478.594-1.107 1.294-1.107 1.294-1.583-.652-3.117-.392-4.143.312 0 0-1.09-.87-2.087-1.674-1.726-1.395-2.3-1.714-2.303-1.13 0 .12.585.717 1.3 1.328 1.945 1.665 2.343 2.265 2.343 2.265-.468 1.512-.463 2.697.43 3.967 0 0 .038.166-.645.887-1.24 1.308-2.52 3.328-2.225 3.624.366.37 1.402-.515 2.703-2.272.926-1.252 1.205-1.28 1.205-1.28 1.58.427 2.457.813 4.037-.49 0 0 .597.18 1.788 1.163 1.856 1.53 2.522 1.86 2.724 1.34.164-.422-.08-.706-1.652-1.902-1.024-.78-2.162-1.69-2.162-1.69.334-.55.572-2.5-.573-3.835 0 0 .045.088 1.737-2.106 1.126-1.46 1.322-1.643.948-1.956-.497-.65-2.15 1.948-2.318 2.155zm-49.057-1.87l6.196 2.603-2.215 6.476-5.985-2.444zm-68.184.435c.935 0 1.69.758 1.69 1.69 0 .935-.755 1.692-1.69 1.692-.932 0-1.69-.757-1.69-1.69 0-.934.758-1.69 1.69-1.69zm63.393.175c.934 0 1.69.757 1.69 1.69 0 .934-.756 1.69-1.69 1.69-.933 0-1.69-.756-1.69-1.69 0-.933.757-1.69 1.69-1.69zm-67.72.463l2.03 5.023-4.614-3.438zm50.854 1.295l6.173.73-.976 5.882-5.322-.483zm-6.737.014l-.063 6.047-5.864.25-.497-6.036zm-30.168 1.1c.934 0 1.69.758 1.69 1.692 0 .933-.756 1.69-1.69 1.69-.934 0-1.69-.757-1.69-1.69 0-.935.756-1.692 1.69-1.692zm-4.675.122l2.386 6.075-3.7 1.787-4.96-4.694zm22.068.076l.956 5.782-6.114 1.512-1.483-5.883zm87.397.058c1.33 0 2.41 1.08 2.41 2.41s-1.08 2.41-2.41 2.41-2.41-1.08-2.41-2.41 1.08-2.41 2.41-2.41zm-71.546.184c.934 0 1.69.757 1.69 1.69 0 .934-.756 1.69-1.69 1.69-.933 0-1.69-.756-1.69-1.69 0-.933.757-1.69 1.69-1.69zm16.654.623l6.52 2.112-2.193 5.22-5.63-1.525zm-28.897.218c.933 0 1.69.757 1.69 1.69 0 .934-.757 1.69-1.69 1.69-.934 0-1.69-.756-1.69-1.69 0-.933.756-1.69 1.69-1.69zm24.79.623c.935 0 1.692.758 1.692 1.692 0 .934-.757 1.69-1.69 1.69-.934 0-1.69-.756-1.69-1.69 0-.934.756-1.69 1.69-1.69zm-41.4 1.982l2.245 5.168-6.134 2.65-2.67-5.268zm4.346.31c.933 0 1.69.756 1.69 1.69 0 .933-.757 1.69-1.69 1.69-.934 0-1.69-.757-1.69-1.69 0-.934.756-1.69 1.69-1.69zm22.6 1.56c10.07-.022 19.16 2.083 26.457 5.104l-2.174 2.038c-23.67-8.133-39.148-4.47-55.022 2.492l-1.602-1.98c11.22-5.488 22.27-7.634 32.34-7.655zm26.776.062c.933 0 1.69.757 1.69 1.69 0 .934-.757 1.69-1.69 1.69-.934 0-1.69-.756-1.69-1.69 0-.933.756-1.69 1.69-1.69zm-61.683 3.71c1.358.08 1.488 2.613.855 1.883l-1.512-1.75c.245-.104.463-.145.657-.134zm63.276 1.047c-.05 1.923-1.87 14.803-8.013 23.658-.373-4.48-1.454-9.834-2.662-13.408 0 0 6.61-6.107 10.674-10.25zm-78.578 19.52l31.964 43.1-3.357-.023c-.702-3.165-1.717-6.404-3.71-8.825-1.618-1.965-3.068-3.446-5.97-4.767-1.746-.794-1.97-.625-2.082-1.966-.527-7.54-6.63-12.28-11.306-14.085-.452-4.556-2.51-9.04-7.665-12.813zm-3.113 1.03c2.92 2.008 6.12 3.75 7.845 11.662.13 1.655.23 1.48 1.53 1.965 5.095 1.494 9.527 7.616 9.922 12.97-.004 1.613.522 1.756 2.51 2.592 2.444 1.025 4.98 3.196 6.415 5.332 2.135 3.07 2.89 7.72 2.705 7.5l-1.758.01c-1.255-7.885-6.216-11.03-11.463-12.503.408-11.133-8.247-14.607-11.27-15.13.178-8.018-5.01-11.325-8.358-14.016.623-.245 1.92-.383 1.92-.383zm-5.17 1.107c2.613.854 4.595 4.497 4.394 6.174 3.448.436 7.07 3.77 6.276 7.24-.255.15-.658.178-1.056-.22.924-6.737-9.133-3.402-5.114 1.472l-1.797 1.174c-1.445-6.742-3.224-10.562-5.155-15.43.704-.187 2.45-.41 2.45-.41zm8.325 14.124c.893 0 1.613.726 1.613 1.62 0 .892-.72 1.617-1.613 1.617s-1.618-.725-1.618-1.618c0-.894.725-1.62 1.618-1.62zm8.634 7.272c3.84 1.087 5.08 4.974 4.955 6.388l-.84-.02c-1.35-6.158-8.37-2.807-5.44 2.104-3.75 1.387-3.455 4.85-2.35 6.22 1.525 1.89 5.413 1.83 6.598-1.08 3.648 4.72 8.682-.575 4.24-4.973 3.638 1.34 4.22 6.213 3.674 7.735 1.69.575 3.634 3.255 3.374 3.24l-27.25.004s1.32-10.997-.082-19.296c1.813.436 3.03.874 5.115-1.575 3.376 2.794 5.802.685 5.627-1.73-.26-1.69-1.132-2.528-2.58-3.42 2.955-.726 5.19 4.385 4.96 6.402zm3.04 7.747c.92 0 1.665.745 1.665 1.665s-.746 1.667-1.666 1.667c-.92 0-1.667-.746-1.667-1.667 0-.92.746-1.666 1.666-1.666z"/></svg>