<svg viewBox="260 370 224 313" preserveAspectRatio="none" xmlns="http://www.w3.org/2000/svg" width="744.094" height="1052.362"><title>Vectorized Playing Cards 1.0</title><rect ry="10.63" rx="10.63" width="223.228" height="311.811" x="2243.739" y="483.937" fill="#fff" stroke="#000" stroke-width=".997" transform="translate(-289.24355,-136.72448) translate(-1694.0624,23.063255)"/><path d="M452.518 406.445l-11.526 7.512-.16 8.762c-6.834-3.28-9.805-8.652-10.88-14.945-1.935 2.44-1.55 14.75-1.55 14.75-1.757.91-2.4 2.1-3.522 3.17 1.103 1.822 4.223 4.92 4.223 4.92-.022-.054-1.43 12.82.274 13.33 1.558-5.485 3.63-10.272 11.266-15.29 0 0 .116 20.436-.373 40.18-3.23-2.223-10.06-6.217-14.474-10.303 5.723-7.38-.11-16.998-8.65-10.61-5.534-2.994-6.384-17.142-7.753-24.553-.263-1.488-1.55-5.846-1.55-5.846s-18.237-5.044-26.068-4.633c6.577 17.14 5.3 38.025-23.807 41.937-13.947 6.378-30.06 13.487-45.72 26.77-2.884 19.774-13.084 29.51-20.286 34.896.052 8.014-.053 15.947.276 24.035-.007.05 6.574-4.32 7.608-3.515 5.5 35.74 25.637 42.828 23.623 43.818-.326.16-6.6 6.61-6.6 6.61l-24.578-16.19c-.843 24.712-.355 49.91 0 74.665 4.34-2.453 12.315-8.32 12.315-8.32l.122-8.408c-.038-.8 11.175 7.004 11.202 16.3.874.593 2.787-13.376 1.044-14.89l4.597-4.74-4.95-4.767s1.256-7.91-1.31-12.468c-1.663 10.432-10.323 13.685-10.323 13.685s-.168-38.13-.392-38.164l15.448 9.78c-1.15.236-4.092 5.704-1.023 10.133 1.87 2.698 8.588 2.52 9.106-.586 9.5 8.853 5.842 19.437 9.997 31.996l26.96 4.946c-11.112-20.613.944-44.1 22.763-42.42 4.087-1.704 7.787-4.162 7.787-4.162s-2.713-4.434-6.138-8.548l-46.7-.77 21.77-40.815-14.318-.46s11.636-24.678 9.122-26.666c-.883-.697-.514-8.654-.514-8.654l12.79.475c.505-5.695-6.186-27.398-15.627-41.59l52.488.47-29.547 41.208 15.87.456-9.47 19.453 1.518 15.172-14.08.455c2.427 21.034 18.052 43.194 23.545 50.038 9.08-2.152 26.035-15.127 36.556-23.194 1.364-14.116 6.224-26.132 18.93-35.096l.04-23.236s-7.253 4.682-7.25 4.358c.03-5.03-2.593-15.498-7.43-24.83-5.188-10.014-13.707-19.083-15.666-19.65 4.506-6.82 6.428-7.43 6.364-7.537l24.542 15.738zM328.812 455.99s-4.773 1.818-8.92 1.76c-7.434.384-13.104.984-16.12 7.08-.61 1.856.73 2.54 1.718 3.026 5.603-6.957 20.494 2.232 23.322-11.865zm-32.995 31.925c0 .982 1.098 2.588 1.648.92.478-1.188.575-3.117.04-4.304-1.493-.84-1.67 2.423-1.688 3.385zm80.493 33.66l-7.258.034-.044 8.518 7.395.35zm71.3 42.412c-.16.846-.94 4.652.83 3.99 2.09-1.61.31-9.008-.83-3.99zm-6.832 21.386c-.857-1.25-3.51 1.856-5.685 1.973-9.67.517-16.795-.777-18 9.34 5.577-3.56 13.39-1.937 18.425-3.088 3.64-1.208 7.814-4.503 5.26-8.225z" fill="#e2cf00"/><path d="M291.003 657.484c-1.085-88.702-.566-176.257-.262-263.966l163.718.917c-.586 87.537-.697 175.34.466 263.75zm7-170.65c.14-2.538-.903-3.59-1.808-1.843-.214.413-.917 4.824.752 4.97 1.096.097.996-2.037 1.056-3.126zm-2.65 2.978c-.01-.6-.378-.86.438-6.074-1.56-.602-2.91-3.134-1.773-4.734.443-.625.314-.762.133-1.287-.448-1.295-.21-2.352.992-3.178.77-.53.802-.67.556-1.365-.635-1.79-.04-3.54 1.674-4.135 1.187-.413.958-.472 1.083-1.224.28-1.685 1.21-2.704 2.9-2.533 1.572.158 1.676.16 1.81-.61.374-2.124 2.95-4.444 6.312-6.02 1.67-.784 4.437-1.338 9.74-1.324 3.038-.054 6.825-.46 8.95-2.326.35-.328.837-1.188 1.007-1.07.396.272.3 2.387-.476 4.316-2.26 5.62-5.322 7.17-13.974 7.118-2.58-.123-6.38.226-7.99 1.866-.48.51-.8.99-.62 1.25 3.585.508 7.265 2.125 9.407 9.198 6.5-4.608 16.86-11.665 29.707-18.044-1.543-8.452 5.786-9.756 9.897-8.074 0 0 .105-.55-.054-1.19-.156-.624-.383-1.438-1.142-2.488-.19-.382-1.345-1.11-1.117-1.683.373-.94.207-1.2-.58-2.067-.51-.562-.172-1.766-.048-2.25.162-.907.758-2.198.23-2.686-.813-.753-3.585-2.028-5.013-3.04-1.58-1.15-1.61-2.182.703-5.957 1.054-2.196 2.05-4.553 2.89-6.13 1.27-2.385 1.402-3.957.63-5.324-1.005-1.787-.838-3.905-.815-3.85 0 0-9.494-13.51-13.406-18.82l-44.42-.145-.435 101.555 7.918-7.304-2.076-2.456c-.295 1.426-.028 2.82-1.788 2.902-.6.02-1.153-.23-1.248-.82zm26.397 135.406c.253-4.016-1.67-10.59-4.565-15.144.125 3.458.374 7.687-.32 11.068zm70.094 10.48c-.35-.113-3.265-.29-5.097-.39-6.07-.32-10.013-3.233-12.644-7.26-.647-.99-.38-.946 1.056.175 4.03 3.15 7.802 5.032 11.115 4.56 4.696-.67 7.23 1.05 6.58 3.058-.115.352-.154.134-1.01-.143zm-15.904-8.96c-.94-.814-1.01-1.18.106-.437 3.41 2.27 7.524 5.973 12.61 3.803 1.055-.676.084-.587-1.68-.4-2.7.288-5.988-1.082-10.033-3.875-1.975-1.364-1.105-2.514 1.12-1.446.686.33 1.382.572 1.825.6 2.19-1.453 6.79-1.436 6.683-1.428.525-.45-1.194-1.167-3.752-2.133-1.662-.627-2.063-.885-.827-.933 1.082-.042 2.782.497 4.008 1.29 2.047 1.315 3.077 2.044 3.687 2.13 1.004.08 2.028.223.305 1.022-.782.362-.713.455-.623 1.334.14 1.373.222 1.358.856 2.134 1.07 1.178 1.535 3.37.01 1.998-.328-.152-.362.14-1.26.502-5.27 1.488-9.197-.834-13.033-4.16zm9.73.393c.293-.386.735-1.375.795-1.65-.102-.642-.67-.44-.96-.08-.49.603-1.18 1.492-.614 1.795.27.143.53.263.78-.064zm-1.8-.415l1.17-2.088c-.29-.135-4.257.684-3.635 1.254.55.505 2.464.835 2.464.835zm4.467-7.007c-1.807-.966-2.334-3.05-.984-4.434 1.135-1.163 3.06-1.064 5.362.353.81.5 1.308.752 1.863.548.93-.342 1.284.178 1.207.906-.168 1.603-2.663 1.996-4.237.167-2.08-2.417-4.344-.73-3.68 1.017.338.89.993 1.03 1.746 1.363 0 .175-.75.362-1.277.08zm-8.24-10.77c2.995-.806 7.447 2.36 9.86 1.93 1.048-.224.9 1.283-.186 1.83-1.27.638-3.075.208-6.906-1.79-3.155-1.703-5.708 1.122-3.6 3.23.453.426 1.113.682 1.92.644 1.068-.05 1.382.24.006.595-.79.203-2.26-.118-2.972-.838-1.7-1.72-1.28-5.027 1.88-5.6zm-63.374-9.25c-.09-3.558 1.813-5.536 1.86-5.55l-13.458-9.13.2 36.467c6.67-4.234 8.858-9.57 9.24-16.457 13.166 14.746 9.057 32.698.834 42.92-.34-6.256-2.207-13.65-9.81-17.438l-.013 7.463-12.616 8.945.078 8.245 29.68.093 14.355-20.96c-2.596-9.507-2.206-17.417-3.963-21.767-1.317-3.576-3.82-8.196-5.438-7.48-5.47 4.33-10.843-.72-10.95-5.35zm11.326 4.21c4.66 3.356 5.905 8.842 6.86 13.718.033.04 2.448 16.53 2.524 16.75.313.905.21 1.807-.59 2.494-4.305 5.904-12.72 18.568-12.72 18.568l82.487.485c-4.4-6.402-7.837-12.73-12.018-17.995.176-.28-.326-3.876-1.023-5.038-.72-1.197-.884-1.825-.398-2.92 1.206-2.697 2.444-5.622 3.56-8.098 2.133-4.742 2.377-4.782-.537-6.322-3.454-2.012-4.07-2.666-3.345-4.962.264-.835.297-1.17-.773-1.387-.495-.1-1.7-.39-2.508-.613-2.333-.735-1.658-.28-2.51.325-.65.32-1.21-.91-1.97-2.366-.876-1.672-1.098-1.71.35-.85 2.683 1.594 7.443.975 5.766-.872-.818-.9-1.576-1.362-1.49-3.4.086-2.024.117-2.617-1.257-2.9-2.75-.562-5.738-.327-8.296.312-7.786 1.944-14.033 8.697-16.4 13.716-.534.875.69.83 1.22.833 2.55-.227 4.36 3.84 2.69 5.662-.77.813-1.54.314-.717-.743.94-1.748-.46-4.06-2.516-3.47-2.585.74-2.658 4.083-2.978 6.412-.88 6.71 2.53 15.684 3.362 17.515 0 0 .183.273.12.273-.062 0-.472.378-.646.18-.598-.68-2.11-6.17-2.928-10.092-1.588-10.848 1.218-20.823 10.245-26.49 7.995-5.767 12.022-4.525 16.562-4.792 1.55-.558 3.7-1.404 5.33-2.202 7.996-4.368 14.475-8.092 21.27-11.79 6.594-3.592 11.016-8.718 17.046-11.92.274-.147.557-.486.838-.624 7.5-6.516 14.912-12.915 19.384-17.374.542-.545.99-1.28.99-1.28l-.757-37.603s-.754-.626-.75-1.224c.007-1.304-.477-1.055-3.16.832-3.37 2.372-3.6 2.253-3.6 2.253-1.784-17.25-11.113-34.215-22.42-44.134l.464-.635s3.783 2.498 5.67 3.686v-2.405l-4.553-2.852s-.405-.33.038-.93c.244-.333.867-.087.867-.087l3.65 2.69v-2.196l-2.95-1.88.944-1.19 1.58 1.025c-.67-1.738.277-1.677 1.25-.525.405.528.927 1.204 1.15 1.844.083.245.335.844.335.844l2.588 1.925s-.1-.938-.007-1.226c.437-1.363 3.56 3.038 3.167 3.14l2.65 1.91c.627-.956 2.987.95 3.084 1.888.21.41 9.132 6.148 9.132 6.148l.098-3.17.96-1.252.434-73.24-11.847 7.574-.13 8.866c-5.596-1.81-10.444-9.917-11.153-14.973-.365-.2-1.986 9.973-1.128 14.425-1.48 1.102-3.972 3.676-3.952 3.69l4.488 4.91s-.897 7.52-.687 11.256c.182 1.773.217 1.952.747 1.956.43.002.817-.463.82-.868 1.053-4.473 4.516-11.453 10.507-13.83.396-.012-.033 39.902-.033 39.902l-14.868-10.143c-.742-.637.97-.596 2.015-3.974 2.694-8.71-6.652-11.79-10.262-6.745-.594-.004-3.075-3.07-3.446-4.35-2.75-5.54-3.277-11.82-3.81-16.858-.323-2.29-1.164-6.046-1.86-8.306-.372-1.206-.41-2.078.393-3.202 3.683-4.974 7.25-10.2 10.35-15.3 2.833-3.72 2.28-3.908 2.28-3.908l-82.705-.268 13.22 17.417 1.34.52c-2.287.295-1.51 2.295-.622 4.447 1.092 2.643.97 3.19-1.8 8.636-4.06 7.985-4.28 7.284-.227 9.756 2.502 1.6 2.957 1.95 2.59 4.126-.37 2.176-.47 1.503 1.595 1.68 1.105.095 1.986.295 2.483.52.565.256.985.612 1.712.374 1.224-.4 1.254-.105 1.302.792.02.382.6 1.17.778 1.463.47.773.25.902-.613.358-2.66-1.675-7.106-.96-5.47.86.674.75 1.352 3.246 1.41 4.486.103 2.217 1.544 3.004 4.57 2.547 5.812-.433 18.917-7.647 21.97-15.75-6.712 2.286-5.333-5.952-2.94-5.692 0 0-.644 1.46-.664 2.294-.073 2.945 2.394 3.173 4.094 1.087.74-1.096 1.637-5.168 1.195-9.764-.534-5.566-2.79-11.792-3.198-13.337 9.598 22.912.783 32.987-12.705 39.563-5.166 2.156-5.875 2.143-8.92 2.285-2.082.168-3.96 1.203-5.96 1.86-11.54 5.51-25.725 12.377-38.41 22.624-9.105 6.743-16.336 12.805-23.524 20.595l-.03 40.426c2.163-.335 5.672-2.44 7.75-3.652 2.38 15.1 10.146 32.586 23.008 43.042-.007-.004-.304.57-.31.566-1.832-1.216-3.663-2.427-5.438-3.36l-.093 1.925 4.33 2.977c.113.462-.743 1.107-.743 1.107l-3.573-2.468-.027 1.96 2.766 1.763c.747.747-.906 1.138-.906 1.138l-1.638-1.188s.117.952.067 1.12c-.428 1.446-2.794-1.748-3.222-3.34l-2.327-1.38c.33.943-.503 1.074-1.163.838-1.75-.887-1.652-2.377-2.017-3.26l-3.098-1.965c-.533 2.952-3.682-1.206-3.185-2.2l-3.973-2.705c.22.082-1.515.44-2.102.057-.676-.44-.914-2.242-.914-2.242l-2.38-1.475v2.582l24.503 17.108-.353.665-25.56-17.488 1.035 75.9 12.462-8.62c-.24-2.84.285-5.378.05-8.615 6.403 3.985 8.558 6.697 11.382 15.066 1.826-4.764 1.505-9.336.684-13.565 1.638-1.338 3.23-2.64 4.054-4.66-1.54-2.12-3.046-2.714-4.668-4.68-.127-2.4 1.277-9.54-.607-11.895 0 0-3.443 10.374-10.86 13.493-.224-10.954.032-38.493.032-38.493s7.62 5.26 11.508 7.398c1.827.975 3.1 1.587 3.123 2.28.013.353-.72.804-1.043 1.3-.2.31-1.044 3.272-.716 5.59.15 1.707.954 2.787 1.725 3.606 2.445 2.594 6.924 1.37 8.697-.633zm14.75-19.386l29.316-41.007c3.488 15.09 9.375 28.91 17.056 41.438zm14.496-43.102s2.047-4.055 2.984-6.206h-3.59l2.148-2.41h5.345l-2.86 6.095h2.27l3.137-6.095h8.33l-2.914 6.094h1.92l3.116-6.095h7.745l-2.724 6.094h1.814l1.59-3.077.39 5.597h-7.694l3.04-6.206h-2.48l-3.434 6.206h-7.21l3.127-6.206h-2.74l-3.433 6.206zm23.74-21.837l3.107-6.566h-2.46l-3.437 6.43h-7.682l3.023-6.356-1.914.007c-1.298 2.004-3.368 6.074-3.368 6.074h-8.148s2.305-4.316 3.213-6.427h-2.01l-1.636 2.608c-.576-.972-.196-3.56-.293-4.657h7.68l-3.084 6.3h2.45l3.364-6.3h8.11l-3.305 6.3h1.92l3.274-5.955h8.25l-2.892 5.956h2.548l-1.124 2.59zm-7.59-11.44l-1.556.292c-1.99-17.015-11.406-34.36-15.392-41.523l46.85.658zm55.007-98.24s-4.468 5.744-4.766 15.383l4.255-3.4c-.27-9.778.51-11.983.51-11.983zM423.735 426c-.072 7.17 1.81 11.742 4.186 15.32.042-4.618.506-9.294.78-10.52zM307.75 563.205L292.6 552.77v2.288l18.004 12.23zm-2.73-5.6c-4.06-2.037-12.42-8.344-12.42-8.344v2.086l13.31 9.352c.262.258.613.192.736-.096-.524-.884-1.155-2.087-1.627-2.998zm-3.72-9.06l-8.7-6.072v1.89c2.23 1.998 9.573 6.754 9.573 6.754zm-8.7-7.453l8.186 5.292-.51-2.343-5.814-3.95zm147.12-73.355l.44-37.708c-8.53 4.034-10.223 15.798-9.938 16.164-8.492-8.75-11.692-27.62.218-40.308.896 4.07 1.196 9.973 9.62 15.367l.218-7.987 11.804-7.54-.098-9.075-28.313-.22c-4.39 5.564-8.78 11.896-13.126 17.8-1.63 2.213-2.038 3.254-1.725 4.41 2.855 10.266 2.283 22.906 8.28 28.883 8.043-7.563 15.578 3.823 9.326 10.844zM317.386 630.794c1.088 3.434.34 10.36.27 10.36 1.298-.705 4.83-10.735 3.946-14.505m40.98-184.156c-2.003-.568-3.51-1.428-5.626-1.226-1.664.172-2.23-.38-1.215-1.285 1.327-1.125 2.614-1.59 5.074-.302 7.403 3.874 7.63-1.78 4.298-2.182-.946-.113-.902-.717.04-.564 5.173.206 3.597 7.058-2.573 5.56zm-8.657-5.647c-.98-.358-2.16-.955-2.597-.838-1.1.294-1.136-.31-1.005-1.026.317-1.727 2.083-1.414 4.417.072 3.344 2.13 4.626-.932 1.583-2.583-1.024-.556-.708-.71-.11-.734 1.585-.067 3.078 2.09 2.657 3.856-1.066 2.83-3.654 1.72-4.944 1.25zm9.8-5.227c-2.164-.376-5.298-3.285-6.753-3.484-.817-.093-1.778.006-2.04-.322-.8-1.005 1.465-1.005 1.62-1.37.005-.847.057-1.377.024-1.667-.4-.54-1.974-2.706-1.92-3.754.038-.065.826.58 1.232.583 3.863-2.037 6.504-1.133 9.764.306 1.348.594 4.825 3.29 4.87 3.718.073.723-1.476-.634-2.686-1.446-2.983-2.073-5.665-3.547-9.41-2.317-.582.2-.48.307 1.436.19 1.874-.113 3.41.46 5.804 2.023.595.388 1.312 1.05 1.74 1.254 3.013 1.436 3.67 2.846 1.752 2.464-.41-.08-1.206-.51-1.987-.785-1.377-.487-.89-.34-2.215.277-.465.217-1.585.674-2.504.783-.703.117-2.988.098-1.977 1.063 1.072 1.074 2.85 1.866 4.074 2.355.88.393.202.308-.825.13zm.256-4.676c1.41-.523.307-1.705-1.49-1.966-.412-.06-1.292 1.882-1.31 2.29-.015.305 2.026-.038 2.8-.324zm-3.894.21c.324-.206 1.407-1.773 1.41-2.022.005-1.005-1.283-.725-1.58.322-.36 1.272-.393 2.056.17 1.7zm-4.506-8.103c-1.16-.512-2.735-2.754-.933-2.376.39.09 2.412.195 3.718.2 4.445.02 8.875 2.034 11.693 4.963 1.568 1.63 1.67 2.837.08 1.714-5.638-5.06-9.097-4.118-14.558-4.5zm43.907 174.418l-1.573.837c.004.872.318.736 1.015 1.354 0 0-.966.156-1.672.11-1.15-.077-1.413-.058-.905.75.235.374.556.926.556.926s-.624.135-1.562-.122c-1.422-.39-2.15-.194-1.612.596.148.218.433.628.433.628-1.038-.235-2.944-1.162-2.944-1.162l-1.344.408c2.68 5.238 12.22 1.934 9.605-4.326zm46.518-7.474c1.474-1.237.76-2.754-1.395-3.866-.896-.463-.808-.47-2.26.384-1.792 1.052-1.92 1.106-.643 2.46 1.54 1.632 3.215 1.932 4.298 1.022zm-5.472-3.497c1.356-.6.853-.5.76-1.916-.395-1.632.53-1.746.987-3.27.19-.834-.516-.526-1.886.748-1.13.95-1.465 1.18-1.462.72.127-.387-.776-1.377-1.585-1.51-.685-.115-.62-.272.05-1.137 1.16-1.5 1.637-3.394.858-5.063-.984-2.11-1.31-2.42-3.484-.577-1.113 1.025-2.687 1.813-3.447 3.08-.545.934-.23 1.837.632 3.672 2.148 4.578 5.47 6.634 8.578 5.255zm7.62.04c2.39-.937 1.426-3.517-2.31-6.118-2.253-1.57-2.89-1.553-.98.146 1.224 1.087 1.415 1.47.89 2.253-.436.65-.895 1.417-.46 2.013.683.94 1.85 2.1 2.86 1.704zm-134.6-4.292l-2.605-1.645v2.25l2.605 1.557zm130.232 2.034c.517-.365.96-1.385.964-1.837.116-1.047-1.588-.796-2.402.362-.916 1.3.167 2.367 1.437 1.474zm5.835-3.544c1.187-1.244.61-2.57-1.83-4.148-.94-.616-1.42-1.02-1.304.203.036.374-.373.868-.636 1.162-.845.946-.47 1.115 1.94 2.642 1.225.777 1.16.844 1.83.142zm-136.067-2.392l-2.605-1.573v2.043l2.605 1.758zm-5.697 2.04l.034-2.05-3.376-2.244-.048 2.283zm132.765-.83c-.434 1.173 1.316.642 1.416.523.303-.593.035-.65-.114-.712-.307-.13-1.498.076-1.3.19zm.764-1.48c.6-.193.67-.118.587-1.2-.125-1.633.12-1.763 1.205-2.48.867-.576.874-.49.86-1.49-.018-1.21.066-1.73 1.656-1.976.65-.1 1.023-.26 1.078-.773.09-.863-1.297-2.32-3.023-3.162-.254 0-4.11 3.354-5.187 4.513l-.658.708.787 1.475c1.227 2.297 1.026 3.144.304 6.192-.147.817.483.698.648-.284.217-.918.342-1.25 1.746-1.524zm5.877-8.133c-.296 1.853.664 2.99 1.57 2.07.492-.5.906-4.588.564-5.237-1.86-1.99-2.06 2.722-2.133 3.168zm-29.96 30.666c6.914-4.05 15.802-.74 20.81-4.06 2.335-2.574 4.683-4.215 3.36-5.99-1.032-1.382-1.702-1.593-1.702-1.593.073.097-3.65 3.233-9.05 2.507-9-.31-13.255 2.517-13.42 9.136zm11.817-9.64c4.404.152 7.984-.613 9.62-1.89 1.018-.793 1.172-.933-.422-1.06-3.42-.277-6.884-4.242-7.97-8.09-.22-.79-.48-1.65-.48-1.65-9.113 7.274-29.172 18.73-29.172 18.73 1.33 6.192-3.155 9.885-9.23 7.686-1.057-.096-.92 1.265-.72 1.823.33.916 1.065 1.684 1.208 1.806.906.776 1.074 1.288.938 2.03-.134.734-.12.71.393.984.913.488.866 1.185.368 2.62-.536 2.022-.573 2.53.88 3.493 1.868 1.2 5.538 2.514 4.996 4.32-1.228 4.095-3.243 7.62-5.015 11.45-.66 1.06-.518 2.81 0 3.628.643 1.252.57 2.75 1.402 3.9 4.606 6.837 8.573 12.853 12.77 19.03l43.91.415-1.093-101.268s-6.77 6.665-6.748 7.136c.025.56 1.59 1.438 2.26 1.55.03-.304-.003-1.504.084-1.925.062-.61 2.016-.45 2.663.08.452.37.313 2.794-.145 4.767-.376 1.614-.323 1.635.37 2.568.842 1.136 1.134 2.1 1.023 3.385-.06.703-.055 1.26.145 1.725.47 1.095.33 2.636-.185 3.353-.75 1.042-.76 1.2-.598 1.757.614 1.928.384 3.57-1.765 4.404-.276.108-.577.584-.752.994-.938 3.085-2.696 3.08-5.102 2.192-1.7 6.637-8.626 8.304-13.614 8.108-5.197-.205-10.482.184-12.834 3.584.55-8.052 4.153-11.934 12.815-11.633zm15.683-13.37c.884-.33.993-1.252.25-1.842-1.138-.907-2.447.015-1.912 1.328.3.735.804.834 1.662.513zM308 570.67l-3.46-2.398.02 2.148 3.45 2.214zm6.53 1.764l-2.45-2.937c-7.22-4.416-13.477-9.355-19.48-13.33l-.047 2.72 1.717.866s.145-.598.263-.944c.22-.648 2.205 1.178 2.838 2.64.158.365.5 1.18.5 1.18l2.315 1.276s.034-.656.035-.84c.01-1.392 2.483.525 3.612 2.802.273.553.632 1.138.632 1.138l2.177 1.323c.86-1.173 3.05.433 3.61 1.86.71 1.807 1.96 1.964 2.01 1.97zm-13.032-.395l.005-2.085-3.61-2.373-.045 2.115zm148.554.17c.094-.546-.446-2.676-1.256-2.795-.507-.075-1.3.692-1.302 1.228-.004.695 2.456 2.16 2.558 1.568zm-2.936-2.53c.79-.86-.206-1.982-1.41-1.592-1.432.463-.937 1.76.665 1.786.36.006.574-.005.746-.193zm-145.805-1.534l.015-1.99-3.333-2.202-.07 1.944zm-6.554-.702l.033-1.914-2.19-1.526v2.292zm.08-5.735l-2.237-1.46v2.077l2.336 1.336zm9.085-6.31c-.23-.614-1.175-2.555-1.175-2.555l-10.146-7.08v2.178l11.348 7.634zm-4.747-16.83l-.12-.886-.902.482zm-2.15.222l-1.42.768 4.288 2.787-.344-1.98zm148.846-23.487l1.104-.8-1.952-1.323-.146 1.34zm1.977-1.274l1.452-1.198-4.858-3.424.344 2.13zm3.443-1.79v-1.464l-7.878-5.32.545 2.675c1.39.803 3.085 1.975 4.86 3.222 1.124.793 1.128 1.1 2.473.887zm0-2.71v-2.322l-9.113-6.05.74 2.724zm0-3.487l.004-2.434-11.03-7.29 1.206 3.22zm0-6.113l-13.906-9.306 1.78 3.567 12.126 8.105zm0-3.555l-17.452-11.61 1.96 3.25 15.492 10.475zm0-3.774h-.653c-.052 1.662-1.855.456-2.533-1.374-.512-1.225-.626-1.534-.626-1.534l-3.514-2.375c.073.483.276 1.86.276 1.86l-2.367-1.444s-.684-2.288-.706-2.303l-4.045-2.75c.086.47.154 1.242-.11 1.294 0 0-1.23-.525-1.792-1.343-.585-.85-.674-1.707-.674-1.707l-3.3-2.136-.822.088s-.444-.3-.863-.64c-.782-1.4-1.698-1.61-2.793-2.18 0 0 2.322 2.71 3.564 4.313 1.14 1.48 2.523 2.535 2.523 2.535l18.437 12.3zm0-3.794l-1.425-.855.104 2.247 1.32.897zm-143.73-4.942c.087-.14-.277-.303-.678-1.184-.992-2.18-1.09-2.942-.56-5.234.253-1.094-.74-1.563-1.196-.397-.356.907-.908 1.417-1.436 1.35-.5-.062-.605.148-.388.836.265.953-.31 2.194-1.11 2.533-.807.206-.954.717-.727 1.458.376 1.23-.95 2.27-1.993 2.21-1.61-.092-.98 1.375.963 2.77.72.518 1.04.798 1.605.536 1.47-1.388 4.202-3.374 5.52-4.88zm139.775 4.5l-.08-2.14-4.053-2.737.5 2.865zm3.955-.897v-2.158l-1.668-1.072.085 2.293zm-152.514-3.34c.388.39.774.427 1.39.056.71-.37.44-.933-.305-1.3-.693-.364-1.667.748-1.084 1.243zm-1.21-.947c-.055-.452.496-1.06.876-1.083.833-.05.685-.493-.266-1.07-.447-.27-1.238-.902-1.527-1.112-1.425-1.033-2.8.562-1.742 1.91.885 1.128 2.19 1.798 2.658 1.355zm149.368 1.337l-.314-2.383-3.66-2.432.29 2.624zm-133.03-5.808c.2-.332.26-.647.24-1.047-.076-1.5-.85-3.26-1.933-4.736-.805-1.097-1.784-2.035-2.774-2.586-2.8-1.438-6.535-.82-5.992 1.035.387 1.253.297 2.302-.778 2.932-.73.428-.824 1.006-.05 1.007.56 0 2.05-.514 2.67-1.492.875-1.378 1.376-2.18 1.18.07-.083.94.035.87 1.493.796 1.978-.102 1.61.268.455 1.16-1.684 1.297-2.018 3.492-1.168 5.36.526 1.153.89 1.768 1.575 1.613 1.48-.97 3.898-2.925 5.08-4.11zm126.566 2.78l-3.6-2.37.14 2.535 3.89 2.296zm-138.232-2.32c-1.32-1.667-2.87.46-1.87 1.392.728.638 2.563-.016 1.87-1.393zm-3.122.23c-.164-.518.79-1.352.94-1.683.437-.966-3.472-3.65-4.688-2.06-.838 1.097-.257 2.194 2.002 3.695 1.364.905 2.017.904 1.746.05zm141.004-1.607l-3.33-2.073.058 2.19 3.536 2.132zm-5.87 1.96v-2.237l-3.353-2.338-.055 2.316zm-130.4-2.644c.61-.603.403-.798-.774-.738-.744.038-.972-.085-1.022.255-.11.754 1.17 1.1 1.796.482zm-2.79-.847c.06-.156-.362-.46-1.048-1.037-1.31-1.1-1.46-1.782-.2-2.638 1.798-1.22-.086-2.957-2.17-2.25-1.686.57-1.69 2.265-.69 3.357 1.372.913 3.86 3.55 4.107 2.568zm133.19-2.236l-3.298-2.262v2.203l3.3 1.924zm-132.57.144c1.47-.748 1.548-2.625.076-1.938-.607.284-1.402 1.053-1.404 1.4-.004.677.578.92 1.328.54zm1.08-4.31c1.903-1.023 1.612-1.973-.286-3.162-2.316-1.328-3.937 1.218-2.03 2.95 1 .907 1.23.795 2.315.212zm2.468-1.845c3.096-3.326 5.148-3.156 9.236-3.067 10.542.095 13.774-4.944 13.44-8.477-5.124 2.545-9.696 1.18-14.573 1.916-8.413 1.878-9.4 5.835-9.987 8.1zm42.266-11.33c2.717.025 2.595.108 1.478-2.126 2.644.36 3.71 1.628 2.838-1.004 1.403.5 2.243.885 3.692 1.362l.92-.533c-5.596-5.445-11.802-.832-10.167 4.662l2.078-.994z" fill="#131f67"/><path d="M457.772 672.82v-3.584h3.233s-.026 1.253 0-11.646c.023-11.25.11-11.334.438-12.426 2.253-7.53 15.646-7.52 16.505.838.046 4.068.067 4.92.093 4.925h-3.583s-.003-1.02 0-1.605c.02-4.188-1.28-6.043-4.594-6.068-2.52-.02-3.928.887-4.72 2.95-.444 1.004-.49 1.942-.49 2.856.005 4.64.003 20.178 0 20.176h3.605l.045 3.56zm-96.622-17.084l1.3-6.304 11.615.564s1.35 3.958 1.895 5.74zm-26.82-.153l6.162-10.176 8.75 2.374-2.014 7.956zm17.02.153l2.65-10.862c-5.005-1.102-9.727-1.826-15.25-3.318l-8.97 14.17-5.394-.145c4.648-6.192 13.138-18.7 13.138-18.7 19.473 6.7 39.105 7.83 58.87 4.292 0 0 7.284 9.607 9.893 14.817l-5.135-.254-6.38-10.685c-4.444.483-8.814 1.075-13.45 1.268l3.174 9.418h-5.1l-2.893-9.39c-5.56-.216-10.234.218-16.898-.825l-2.35 10.212zm36.75.004l-1.757-6.68 6.267-.73s2.907 5.092 4.5 7.406zm18.358-20.02c.306-4.65 1.232-8.3 5.552-14.467 5.522-7.884 15.556-23.245 15.8-23.967 0 0 10.292 15.437 14.895 22.413 3.926 5.975 6.32 12.637 6.45 16.64.247 7.672-4.586 12.472-11.072 13.27-4.452.548-9.073-3.485-9.423-8.23-.144-1.943-1.202-2.532-1.487-.826-.373 5.913-5.056 9.418-10.426 8.893-7.978-.78-10.625-8.63-10.29-13.726zm55.88-.7c-2.047-.65-3.514-2.748-3.773-5.39-.295-3.02.797-6.106 4.484-11.75 1.747-2.743 3.58-5.635 5.02-8.55 2.17 3.186 3.296 5.63 5.484 8.92 5.022 8.05 5.98 12.383 3.422 15.467-1.805 2.177-5.607 2.234-7.178.11-.472-.64-.586-.93-.918-2.336-.148-.625-.598-.707-.725-.13-.656 2.965-3.123 4.518-5.817 3.66zm-130.485-41.345c7.796-11.848 35.326-50.05 35.326-50.05l4.008.384s-24.45 34.1-36.327 51.396zM292.1 575.243l9.6 6.913.07 53.817-9.756 6.866zm39.854-88.045l5.81 11.372c-24.69 23.394-19.846 50.845-6.618 70.425 0 0-1.71 4.38-5.437 9.032-17.898-11.802-23.342-42.474-23.205-42.803 19.722-17.59 22.38-23.192 29.45-48.026zm100.895 83.838c1.274-17.32 9.745-28.64 19.237-35.557l.486 17.616c-6.214 5.963-12.785 12.12-19.724 17.94zm-25.782-17.446c21.623-20.194 22.36-48.872 6.608-69.922l6.447-9.003c9.138 9.78 18.098 20.028 21.912 43.845-13.694 10.793-25.794 28.63-29.013 46.633zm-29.796-23.496l-.04-8.253 8.088-.04-.23 8.24zm-17.098-.064l-.116-8.224 7.996.057-.124 8.338zm13.847-22.02s26.803-37.517 37.323-51.058l2.235 1.644-35.644 49.622zm-62.602-26.236c-.026 14.8-9.514 26.53-19.206 34.183l.132-16.852zm5.645-26.936s-19.29-25.81-21.35-37.04c-.69-6.832 3.195-14.003 9.9-14.92 5.213-.637 10.242 3.104 10.872 8.43.116 1.046.353 1.33.905 1.083.4-.18.46-.388.637-2.197.5-5.15 5.302-8.002 10.286-7.564 8.932 1.142 12.053 12.302 9.557 17.934-5.27 11.893-21.894 34.71-20.807 34.274zm-51.087-29.806c-.745-3.022.394-6.917 2.562-7.897 3.223-1.458 6.32.38 6.837 3.245.195 1.076.65 1.004.83-.113.44-2.752 3.636-4.305 6.41-2.877 3.44 1.77 4.123 6.348 1.56 11.45-2.87 4.85-8.718 14.135-8.718 14.135-.18-.536-8.184-12.59-9.48-17.943zm186.26-14.685l.056 65.698-9.057-5.454.768-55.094zm-43.172 3.89c-20.447-5.315-39.074-6.906-58.657-2.71-2.552-3.043-11.128-15.72-11.128-15.72l4.95.072 7.005 11.213 13.347-1.744-3.436-9.123 5.502.024 2.742 8.947c-.028-.07 10.86.107 16.91.824.96-3.32 2.75-9.922 2.75-9.922l6.062-.003c-.778 3.172-2.87 10.718-2.87 10.718 4.965.69 14.174 3.032 14.258 3.133 3.23-4.566 6.234-9.133 9.156-13.7l5.907-.028c-1.74 2.948-12.172 18.167-12.5 18.02zm-142.937-12.7h3.676c-.12 2.68-.08 5.872 2.39 7.02 4.388 1.496 7.298-1.162 7.594-5.015.197-4.415.088-20.39.088-20.39h-3.49v-3.61h10.72v3.61h-3.522s.25 13.684-.02 20.507c-.17 6.73-5.313 9.007-9.56 8.763-8.8-.33-8.068-6.622-7.876-10.887zm139.164 4.826l-9.032-2.106 2.36-7.96 12.625-.008zm-51.87-2.88l-4.2-7.388h8.08l2.677 6.507zm18.345-1.505l-1.224-5.883h14.678l-1.5 6.267z" fill="#d40000"/><path d="M338.21 395.6l13.052 18.837c.06-.06 7.314-1.444 14.444-1.794 7.09-.347 15.54.096 15.613.31 0 0 2.23 6.735 2.986 10.042.998 4.42.893 9.504-.16 12.88-1.544 4.943-2.36 6.426-5.81 9.822-2.557 2.48-6.17 5.177-9.9 6.62-5.166 2.156-5.692 2.145-8.737 2.287-2.013.094-2.22.172-3.32.743-.34.12-.56.473-.863.574-.255.087-.738-.01-.738-.01-16.79 7.36-29.933 15.564-39.86 22.89-.117.086-.19.466-.302.557-.813.664-1.562 1.168-2.354 1.776-.108.083-.353-.066-.46.017-11.68 9-18.3 16.296-20.733 18.403l.24 41.9s5.32-2.73 8.046-4.396c1.915 16.224 10.008 31.984 22.784 42.93l-5.542 7.642-25.543-17.587.354 77.312 13.58-9.43v-8.156c4.048 2.724 7.998 3.787 10.87 16.2 2.3-4.36 2.097-10.854 1.068-15.192.017 0 3.448-2.836 4.5-5.01l-5.048-4.474s1.308-10.84-1.07-13.024c-1.884 4.92-3.386 10.134-10.42 13.93l-.09-37.66c3.508 2.22 6.824 4.723 10.29 7.002l.478-.097 3.586 2.458s-.38.768-.728 1.295c-4.357 6.61 2.904 14.715 8.81 9.838 2.313-1.91 6.653 6.03 7.472 13.668.834 4.935 1.283 11.06 2.623 15.347.416 1.25.254 1.953-.63 2.71-4.525 6.37-13.624 19.202-13.624 19.202h6.556l.474-.752h-4.833c4.162-5.538 8.133-11.99 12.45-17.397 16.09 6.056 42.445 7.454 58.36 3.782 3.288 4.61 6.484 9.443 9.645 14.14h-4.578l.63.983h6.193l-13.044-19.2c-8.99 2.674-30.908 1.632-30.51 1.41 0 0-.06-.15-.818-2.327-3.763-12.147-4.11-22.93 5.33-31.642 5.012-4.458 10.613-7.4 16.867-6.84 2.796-.056 2.85-.207 4.014-.733.642-.29 1.974-.592 1.974-.592l6.335-3.513.836-.167 1.822-.96.377-.446 2.943-1.496.33.028 3.98-2.29.054-.324 1.566-.965.374.392c.434.036 15.604-9.92 21.93-15.468l.393.146c7.388-5.978 17.434-15.403 20.413-18.983l-.16-17.935-.252-.218-.1-19.86h-.578l-.024-2.45c-3.267 1.21-6.862 4.243-7.103 4.117-2.08-16.813-9.823-32.302-22.474-43.676l5.388-7.438 25.014 16.83.068-4.917h.31c.307-18.854.476-67.723.476-67.723l-.248-.024-.004-3.902-12.786 8.165-.18 8.248c-5.67-1.852-9.26-8.662-10.45-14.73-1.65.662-2.417 7.053-1.807 15.147-1.75 1.045-2.873 2.188-3.946 3.573 1.388 1.748 2.928 3.182 4.626 4.648-.354.765-1.104 11.565-.36 12.905.342.99 1.522.848 1.528-.192 1.725-8.424 9.714-13.952 10.163-13.442l-.194 38.84-14.195-9.948c2.982-3.366 3.608-9.04-.146-11.82-3.764-2.784-7.45-.42-8.32 1.35-4.608-3.004-6.16-14.133-6.832-18.49-.168-2.118-.71-4.996-1.338-7.592-.393-1.627-.86-3.183-.92-4.64-.028-.687.054-.984.677-1.843l13.8-19.58-7.044-.023-.068.12 5.542.016-12.447 17.673c-18.723-5.882-38.137-7.305-58.907-3.573l-10.26-14.43 4.665-.02-.184-.31zm10.826.165l.2.354 8.063-.025-.123-.3-8.14-.03zm11.957.044l.155.425 5.503.02-.168-.417zm28.094.15l-.057.193 6.064.01.054-.194zm-18.58.004l.058.247h14.627l.054-.232zm28.166.13l-.058.204 12.626-.01.107-.193zm53.273 10.77l.038 2.657-8.48 5.393c-.212 11.365-.538 55.086-.538 55.086l-2.032-1.335.398-54.746s7.503-4.823 10.614-7.056zm-22.256 2.138h.286l.087.616h-.494zm.6 1.605l.224.834-1.24-.004.207-.805zm21.408.43v1.737l-7.316 4.573v-1.722zm-22.585 1.446l1.915.025.32.96h-2.41zm-46.994.514l1.28.192c2.93 6.995 3.69 13.004 4.198 19.256 1.17 8.114 3.528 16.248 5.17 19.705l-1.878-.02c-.216-.026-4.178-11.774-5.003-18.71-.222-1.373-.134-2.65-.204-3.922-.418-5.364-1.152-9.394-3.564-16.5zm2.404.283l1.634.167c1.14 4.968 2.806 9.658 3.482 14.65 1.08 7.983 1.657 16.136 5.508 24.005l-1.528-.014c-2.336-5.32-3.782-10.87-4.713-16.87-.727-3.44-.734-6.023-1.12-9.134-.468-3.735-1.907-8.484-3.263-12.804zm2.483.23l1.634.244c1.075 4.933 2.92 10.363 3.41 14.822.994 9.082 2.42 17.545 5.284 23.55l-1.144-.033c-4.426-8.573-4.496-16.21-5.736-24.244-.73-4.732-2.278-9.464-3.447-14.34zm2.603.384l1.445.223c1.004 4.91 2.806 10.465 3.225 15.444.742 8.813 2.305 15.486 5.585 22.6l-1.352.025c-3.96-6.93-4.493-15.436-5.727-24.05-.68-4.758-2.217-9.546-3.176-14.24zm62.088.01v2.148l-7.316 4.698v-2.118zm-59.726.417l1.508.234c.97 4.734 2.778 9.787 3.205 14.396.73 7.877 2.178 15.832 5.425 23.162l-1.39.087c-3.436-7.402-4.932-14.138-5.582-22.644-.365-4.77-2.2-10.584-3.166-15.235zm39.85.025l.525 1.275-3.506.17.045-1.43zm-37.368.446l1.794.35c1.9 7.552 2.4 14.702 3.693 21.88 1.62 8.917 3.323 13.4 4.716 15.063l-1.484.048c-3.62-7.72-4.904-15.397-5.745-23.35-.497-4.692-2.036-9.316-2.973-13.99zm2.735.51l1.366.277c1.63 6.172 2.366 11.944 3.083 17.53 1.303 10.61 4.838 18.68 5.59 19.053l-1.507-.067c-3.27-4.52-4.482-12.216-6.09-23.076-.707-4.774-1.41-9.265-2.444-13.717zm2.2.442l1.533.378s1.38 5.43 2.424 12.636c.87 6.005 1.327 17.822 7.855 24.617 3.26 3.392 9 6.338 12.917 3.137 1.672-1.427 2.75-3.714 1.744-6.158-1.69-4.094-7.42-3.393-5.513.902.215 1.03-1.13 1.073-2.07.068-.984-1.075-.74-2.3-.04-3.426 1.473-2.374 5.416-2.618 7.73-.497 3.7 3.62 2.1 9.836-2.583 11.806-5.395 2.29-12.347-2.44-15.1-6.953-4.554-7.864-5.26-15.33-6.327-23.27-.543-4.287-1.588-8.79-2.57-13.24zm2.308.635l1.557.378c.005.02 1.705 7.653 2.27 12.175.696 5.59 1.466 12.173 3.86 17.257 1.486 3.16 3.652 5.82 5.84 7.37 1.884 1.332 3.573 2.174 6.077 1.63 2.89-.63 3.016-5.105.257-5.116-1.41-.005-.493-1.362.677-1.4 4.158-.138 4.28 6.416.364 7.88-4.482 1.673-9.328-1.483-12.33-5.447-5.25-8.154-5.043-15.592-6.196-22.168-.308-3.463-2.26-12.395-2.376-12.558zm31.464.228l.95 1.27-5.28-.024.024-1.206zm-29.146.422l1.49.518c.04 0 1.492 5.925 2.394 12.927 1.07 6.75 1.42 12.37 4.916 17.247 1.455 2.028 4.2 4.734 5.93 5.056 1.072.232 2.18-.005 2.454-.82.446-1.333 1.59-.72 1.614.49-.005.847-.626 1.727-1.677 2.032-5.14.89-9.842-5.563-11.27-8.834-1.93-4.76-2.758-10.078-3.596-16.7-.354-2.802-2.05-11.74-2.254-11.917zm47.682.237l-.024 2.138-7.292 4.597v-2.08zm-45.442.417l1.668.457s1.39 5.21 2.22 11.647c.843 6.527 2.65 14.11 6.028 18.032.307.376.517.643.65.863.24.532-.046 1.433-.296 1.434-6.018-3.13-7.44-15.713-7.957-19.967-.763-6.58-2.314-12.466-2.314-12.466zm23.4 1.01l5.31.15 1.265 1.246-7.03-.063c-.742-.766-.28-.677.456-1.333zm22.042 1.736v1.774l-7.316 4.636v-1.814zm-21.858.562l7.768.136 2.725 1.62-11.87-.098zm21.858 2.25v2.128l-7.316 4.587v-1.997zm-24.733.402l13.198.14.034 1.43-14.313-.367zm-1.72 2.45l14.928.038.04 1.58-13.578-.13zm26.453.24v2.222l-7.316 4.534v-2.105zm-23.647 2.33l11.444.052-1.24 1.324-8.632-.088zm23.648.78v2.094l-7.316 4.6v-2.064zm-15.036 1.6l-1.386 1.347-5.93-.082.203-1.227zm15.036 1.47v2.244l-7.316 4.47v-1.944zm-22.435.818l4.893.107-.747 1.028-4.282.02zm-43.997 1.79c.738 5.646 4.836 17.032 4.834 17.028l-1.614.014c.08.11-2.93-7.17-4.015-14.032-.13-.654.317-2.862.796-3.01zm43.677.324l3.768.068-.82 1.455-3.068-.005zm22.755.344v1.964l-7.316 4.5v-1.79zm-22.876 1.988l2.497.078-.592 1.348-1.935-.058zm22.876 1.057v2.096l-7.316 4.538v-2.022zm-67.974.447c.735 4.114 3.855 12.375 4.092 12.917l-1.38.02c-.064.188-3.245-7.408-3.585-10.658-.162-.68.198-2.027.874-2.28zm45.074.873l1.48.068-.253.77-1.198.03zm.13 1.852l.772.02-.185.732h-.48zm22.77.04v1.69l-7.316 4.632v-1.605zm-69.807.183c1.11 3.297 2.22 6.657 3.536 9.872l-1.64-.038c-1.085-2.32-1.848-4.926-2.695-7.483-.232-1.067.265-1.98.8-2.352zm-1.633 2.202l2.725 7.612h-1.547c-.636-1.532-1.352-3.244-1.854-4.82-.512-1.635-.465-1.688.677-2.793zm71.44.475v2.007l-7.315 4.528v-1.73zm-72.58 2.945l1.494 4.216-1.91-.048c-.56-1.327-.902-2.486-1.042-3.778-.052-.627-.166-1.252.272-1.516.862-.487.764-.085 1.187 1.127zm-2.03 1.726l.794 2.47-1.783-.043c-.525-1.168-.725-2.008-.567-3.23 1.073-1.24 1.153-.592 1.558.803zm74.61-1.452v2.1l-7.315 4.4v-1.95zm-77.142 1.51l.747 2.433-1.61-.038c-.267-.57-.097-1.266-.107-1.91zm-2.11 1.246c.024 0 .045.007.054.02.23 1.076.005 1.143.02 1.134l-2.25-.015s1.823-1.157 2.176-1.14zm79.253.63v1.678l-7.316 4.562v-1.702zm-87 2.657l43.968.126 1.464 2.07s-4.277.116-18.29.03c-11.794.15-35.497-.254-35.497-.254l2.308-1.086c3.193-.074 6.093-.903 6.048-.887zm87 .247v1.848l-7.316 4.43V458.9zm-123.724 1.773c-3.536 1.567-6.835 1.952-9.3 1.752-5.31-.43-13.432 1.79-15.065 6.89-.514 1.802-.52 1.852.454 2.77.484.454.953.8 1.043.765.854-.758 1.987-2.164 3.2-2.575 1.595-.482 2.46-.548 5.077-.664 5.636-.248 6.908-.486 8.31-.857 3.086-.817 6.197-3.85 6.384-7.233.02-.387-.104-.847-.104-.847zm-.15.463c-.596 7.054-8.238 7.973-11.594 7.772-6.806-.407-9.486 1.625-10.564 2.886-.355.338-.562.258-.505-.05.79-3.905 7.102-4.053 10.28-4.01 7.786.356 9.76-3.4 9.538-3.436-.59.265-1.03.5-1.627.783-.257.108-.202-.05-.875-.44-.01.052-.78 1.798-1.775.142.026.082-.707 1.47-2.065.174.01.14-.82 1.33-2.148.112-1.248 1.07-1.843.48-2.38-.27-.392.236-1.55 1.797-2.513.116-1.03.654-1.457 1.362-2.34.934-2.065.37-3.85 2.488-4.58 4.427-.226.667-.685.77-.74.04-.245-2.024 3.085-5.53 6.43-6.498 2.598-.753 4.37-1.296 10.085-1.078 3.25.123 7.373-1.604 7.373-1.604zm83.412.533l2.06 1.395-35.866 49.452-3.166-.082zm-57.535.033h4.08v6.74h-3.517l-1.256-1.867c.325.19.702.305 1.106.305 1.207 0 2.187-.98 2.187-2.186s-.98-2.18-2.187-2.18c-1.207 0-2.187.974-2.187 2.18 0 .108.01.212.024.316l-1.314-1.95s.56-.332 1.89-.926c.346-.153 1.175-.43 1.175-.43zm12.57 0h6.908v6.74h-6.91zm15.136 0h7.152v6.783l-7.152-.043zm15.444 0h7.147v6.74h-7.147zm54.742.16l.106 2.104-7.316 4.446v-2.08zm-51.43.698c-1.278 0-2.318 1.032-2.318 2.31 0 1.276 1.04 2.312 2.317 2.312 1.278 0 2.314-1.036 2.314-2.313 0-1.278-1.036-2.31-2.313-2.31zm-30.422.122c-1.276 0-2.312 1.03-2.312 2.308 0 1.277 1.036 2.313 2.312 2.313 1.277 0 2.313-1.036 2.313-2.313 0-1.277-1.036-2.308-2.313-2.308zm15.07.044c-1.277 0-2.313 1.03-2.313 2.308 0 1.277 1.036 2.313 2.313 2.313 1.277 0 2.313-1.036 2.313-2.313 0-1.277-1.036-2.308-2.313-2.308zm7.787.276c1.07 0 1.94.87 1.94 1.94 0 1.07-.87 1.94-1.94 1.94-1.07 0-1.94-.87-1.94-1.94 0-1.07.87-1.94 1.94-1.94zm-30.658.03c1.07 0 1.938.868 1.938 1.94 0 1.07-.867 1.938-1.94 1.938-1.07 0-1.94-.868-1.94-1.94 0-1.07.87-1.94 1.94-1.94zm45.955.067c.46 0 .88.175 1.198.46l-2.114 2.87c-.525-.313-.874-.883-.874-1.537 0-.99.8-1.794 1.79-1.794zm-30.363.01c1.072 0 1.94.867 1.94 1.938 0 1.072-.868 1.94-1.94 1.94-1.07 0-1.94-.868-1.94-1.94 0-1.07.87-1.94 1.94-1.94zm-23.42.14c.8 0 1.446.646 1.446 1.444 0 .8-.646 1.45-1.445 1.45-.8 0-1.45-.65-1.45-1.45 0-.798.65-1.444 1.45-1.444zm-4.436.077c12.323 15.692 18.87 31.6 21.752 48.938l-2.066-.097c-3.424-18.856-11.133-35.028-21.586-48.08zm50.485.015c.846 0 1.533.682 1.533 1.527 0 .844-.687 1.53-1.532 1.53-.844 0-1.53-.686-1.53-1.53 0-.846.686-1.528 1.53-1.528zm-30.42.12c.845 0 1.533.683 1.533 1.528s-.688 1.532-1.533 1.532-1.532-.687-1.532-1.532.687-1.527 1.532-1.527zm15.07.045c.845 0 1.532.682 1.532 1.527 0 .845-.687 1.532-1.532 1.532s-1.532-.687-1.532-1.532.687-1.527 1.532-1.527zm38.344 1.095c.812 6.21-.79 10.22-5.528 10.87-6.04.83-6.822 1.285-6.856 7.003-.04 6.777-1.042 8.735-5.842 9.27-5.4.603-6.657 1.243-6.173 7.957.354 4.9-1.577 6.984-5.736 7.894-3.253.71-6.068 1.8-7.274 5.077l-2.972.038c.772-5.16 5.96-7.624 9.285-7.795 3.584-.85 4.333-2.052 3.752-8.335-.437-4.73 1.3-6.168 6.856-7.25 4.443-.875 5.532-2.15 5.29-5.784-.52-7.79-.006-8.963 4.422-9.91 2.256-.535 5.93-.774 7.33-2.498 1.595-1.96 1.188-3.628 1.044-6.036zm28.544.21v2.035l-7.316 4.514v-1.982zm-107.54 1.206c-1.564 6.755 3.816 8.223 7.09 9.363 3.808 1.327 4.733 3.25 4.3 9.96-.327 5.077.233 6.2 3.52 7.943 5.03 2.594 6.38 6.282 4.146 11.68-1.377 3.328-.654 4.262.218 7.167l-2.44-.025c-.177.056-2.236-3.623-.48-7.583 2.083-4.692 2.024-7.048-2.617-9.16-3.59-1.633-4.693-3.174-4.917-6.535-.094-1.416-.084-2.12.248-5.198.417-3.88-.966-5.55-6.7-7.682-2.557-.95-4.293-3.16-4.816-6.667-.147-.98-.015-2.113-.015-2.113zm85.784.732l21.815 14.513-.15 3.23-23.144-15.464zm-14.056.32c1.055 0 1.91.856 1.91 1.91 0 1.056-.855 1.91-1.91 1.91-1.056 0-1.91-.854-1.91-1.91 0-1.054.854-1.91 1.91-1.91zm-68.63.834c.96 0 1.732.774 1.732 1.73 0 .96-.773 1.737-1.73 1.737-.96 0-1.737-.777-1.737-1.735 0-.957.78-1.73 1.737-1.73zm104.38.204l-.073 1.944-7.18 4.442v-1.945zm-113.84 1.358c6.597 8.597 13.082 17.456 18.082 34.15l-2.134.82c-4.127-13.437-10.477-24.6-17.964-33.83zm17.23-.083h49.698l-1.275 1.717-47.48-.485zm96.672 1.615v2.128l-5.503 3.35-1.62-1.056zm-116.82.228l.975 1.28s-1.056.828-2.25 1.682c-3.254 2.328-3.677 2.592-3.894 4.107-.516 3.6 3.184 5.373 6.9 3.292 1.33-.608 4.25-2.458 4.25-2.458l.84 1.236s-4.186 3.13-6.643 3.845c-5.39 1.566-9.413-5.263-5.43-9.32.61-.62 1.895-1.45 2.92-2.113 1.05-.678 2.33-1.55 2.33-1.55zm22.183.848l45.792.272-29.242 39.968-1.3-.073c-2.267-14.95-7.89-28.01-15.25-40.166zm-19.966 1.692l2.676 3.74s-1.745 1.667-4.625 3.243c-2.31 1.262-4.81-1.035-3.356-3.105 1.49-2.055 5.304-3.88 5.304-3.88zm114.604.383v1.95l-3.17 1.943-1.45-.926zm-114.94 1.498c-1.27.067-3.374 1.507-4.09 2.75-.31.533-.198.98.086 1.347.433.557.946.525 2.468-.286 3.11-1.658 3.692-2.642 2.323-3.613-.19-.135-.416-.194-.67-.2h-.116zm-.1.8c.2-.02.432.04.625.024.538.22.373.89-.19 1.047-.123-.196-1.055-.222-.993.727-.227.537-.218.496-.902.572-.454-.11-.755.203-.844.4-.47.254-1.05.175-1.158-.11-.105-.276.283-1.074.61-1.072.158.013.44-.222.728-.417-.01-.518.6-.593.776-.59.172.036.756.044 1.037-.432.08-.1.19-.14.31-.15zm115.04.465v3.006l-2.298-1.47zm-127.056.378c8.34 9.85 14.346 20.33 18.17 34.835l-1.674 1.154c-2.527-10.17-6.417-20.918-17.926-34.888zm97.57.166c3.777 3.207 19.25 17.77 22.2 43.62l-2.072 1.27c-1.662-13.643-7.03-29.286-21.465-43.15zm-7.46.897c1.054 0 1.91.856 1.91 1.91 0 1.056-.856 1.91-1.91 1.91-1.056 0-1.91-.854-1.91-1.91 0-1.054.854-1.91 1.91-1.91zm-92.432.747s1.753 1.8 1.75 2.23c-.005.85-.68 1.33-4.708 2.798-.68.248-3.655.933-3.655.933l-.108-1.442c1.517-.547 5.592-1.524 5.89-2.39.147-.34-.58-1.202-.426-1.202zm27.785.367c.958 0 1.73.778 1.73 1.736 0 .957-.772 1.736-1.73 1.736s-1.736-.78-1.736-1.737c0-.958.777-1.736 1.735-1.736zm70.193.496c12.606 12.314 19.544 27.53 21.165 43.24-14.68 11.94-24.655 26.952-28.617 45.73-1.96-3.265-3.625-7.018-5.436-10.687 19.59-17.214 23.712-48.216 6.77-69.948zm-77.095 2.347l.883 1.367s-.185.168-2.93 1.872c-4.013 2.49-4.675 4.116-3.335 6.666 1.37 2.607 2.9 2.746 7.21.66 1.524-.738 2.818-1.514 2.818-1.514l.69 1.43s-1.93 1.57-5.65 2.934c-3.497 1.282-6.802-.902-7.423-4.94-.452-2.937.83-4.51 5.93-7.405.574-.302 1.808-1.07 1.808-1.07zm60.066.65c1.055 0 1.91.855 1.91 1.91s-.855 1.91-1.91 1.91c-1.056 0-1.91-.855-1.91-1.91s.854-1.91 1.91-1.91zm-77.9.072l1.154 1.088s-.498.732-3.34 2.442c-2.556 1.538-2.82 1.29-1.547 2.364 2.372 2.004 5.663 6.44 5.645 7.587-.017 1.105-1.006 2.123-2.903 2.976-1.04.466-5.15 1.932-5.753 2.037-1.2.13-1.538.613-.338 1.704 2.038 2.34 3.778 7.345 3.08 8.87-.79 1.72-1.734 2.01-9.286 2.357-.86.04-1.27-.204-.805.897.34.8.694 1.9 1.367 5.295.6 3.027.497 4.388-.68 5.012-.675.36-5.927.233-8.097-.194-2.483-.488-2.753-.52-2.35 1.096.52 2.233.844 8.218-.845 9.373-.703.457-1.46.345-4.543-.694-1.967-.662-3.67-1.42-3.67-1.42l.033-1.857c1.604.66 6 2.558 7.25 1.96 1.482-2.125-.577-9.573-1.363-11.168-.95-1.905.043-2.32 2.23-1.14 1.148.81 11.037 4.71 10.475 1.22-.603-3.31-1.678-7.077-3.764-9.443-1.93-2.188-.97-3.083 1.178-2.124 3.8 1.7 11.65 1.283 11.26-.477-.517-2.862-3.117-6.74-6.675-9.75-.99-.835-1.027-1.194.14-1.4 3.324-.264 12.835-1.24 11.506-3.474-1.14-1.83-2.664-3.85-3.962-4.937-2.13-1.787-4.28-2.562-5.233-2.934l.06-1.37c4.333-.36 6.585-1.664 9.775-3.898zm-10.488 1.348c-1.553 16.283-8.365 29.7-22.425 39.057l-.078-1.823c12.36-9.285 18.294-22.48 19.903-35.25zm29.955 1.023c.006 0 .01.003.01.005 0 0 2.262 4.067 2.26 4.437-1.343 1.244-4.867 3.065-6.31 2.637-2.222-.708-2.57-3.08-.435-4.48 1.844-1.343 4.142-2.512 4.45-2.594l.025-.005zm-18.018-.253l1.156 1.036s-.297.452-1.96 1.782c-1.296.997-.844.604.037 1.79.785.94 2.182 2.83 2.182 2.83l-.417 2.518c-1.463-2.084-2.677-3.6-4.848-5.83-1.104-1.135-1.042-1.166.533-1.986 1.18-.653 2.14-1.446 3.316-2.14zm31.565 1.622c.957 0 1.73.773 1.73 1.73 0 .958-.773 1.736-1.73 1.736-.958 0-1.736-.778-1.736-1.735 0-.958.777-1.73 1.735-1.73zm-14.023.144c-1.65.436-3.27 1.91-4.18 2.56-.33.237-.07 1.425.248 1.833.408.523 1.16.436 2.06-.064.378-.21 1.06-.552 1.513-.76 1.27-.587 1.802-1.025 1.756-1.514-.205-.658-.724-2.103-1.398-2.056zm.092.752c.464.02.8.617.65.97-.796.43-1.237.066-1.135.67 0 0 .08.937-1.087.96-.284-.126-.778-.103-1.018.14-.814.336-1.526-.376-.64-.78.24-.11.83-.296.994-.66.083-.453.457-.814.867-.563.218.015.705.05.863-.296-.06-.39.215-.423.412-.437.032-.005.06-.007.092-.005zm-33.327-.12c.357 1.826-.746 5.036-1.37 6.845-3.698 4.837-9.06 7.31-14.158 9-1.134.375-2.656.185-2.656.185 7.054-7.257 13.103-12.577 18.183-16.03zM298.24 484.7c.05-.407-1.808-.9-1.987-.645-.343.322-.89 5.364-.533 5.727.495.504 1.863.642 1.993.042.428-1.978.324-3.456.528-5.124zm31.62-.15l1.207 1.498c-2.558 24.295-19.912 45.313-38.44 53.646l-.054-1.61c21.196-11.132 33.952-29.668 37.287-53.534zm83.858.102l2.3 3.16-3.294.103zm-116.09.587c-.02.83-.114 2.555-.434 3.52-.2.75-.78.578-1-.113-.227-.718-.037-2.757.393-3.592.46-.788.822-.656 1.04.184zm17.537.44c1.137 0 7.174 3.715 6.367 5.565-.642 1.473-5.695 1.593-8.01 1.386l.348-1.418s.706.246 3.397-.04c2.827-.188 2.62-1.158-.62-3.21-1.395-.87-1.718-1.086-1.718-1.086zm16.73 1.992c1.872 3.153 3.642 6.707 5.306 10.687-22.824 21.537-21.053 50.87-6.662 70.12l-6.2 8.37c-12.4-11.83-19.152-26.385-21.432-41.844 18.1-13.022 26.603-32.454 28.99-47.334zm84.762.956l1.362 2.603-3.274-.052zm-14.134 1.304c1.055 0 1.91.855 1.91 1.91s-.855 1.906-1.91 1.906c-1.056 0-1.91-.85-1.91-1.906 0-1.055.854-1.91 1.91-1.91zm-53.108.514l.65 1.48c.03.184-4.62 1.652-6.115 3.538-1.382 1.743-1.253 3.56-.475 4.815 1.325 1.787 2.264 2.037 4.5 1.352 1.822-.56 3.16-1.313 4.97-2.235l.285.746c.003-.04-2.595 1.526-4.577 2.643-.744.42-1.638.596-2.414.577-4.51-.11-6.9-5.927-3.182-9.363.545-.503 2.387-1.513 3.937-2.313 1.032-.532 2.42-1.24 2.42-1.24zm59.692.916c14.887 21.473 4.695 45.002-4.916 53.327l-.256-2.528c16.184-18.435 10.555-39.964 3.81-49.534zm9.58.965l1.17 2.653-3.457-.364zm-60.004.87c.958 0 1.736.777 1.736 1.735 0 .957-.78 1.73-1.737 1.73-.958 0-1.73-.773-1.73-1.73 0-.958.772-1.736 1.73-1.736zm48.65.338c13.048 18.955 5.77 49.18-19.12 58.388l-.125-2.12c25.377-10.608 27.87-38.853 17.674-54.79zm-56.56.116l1.648 4.452c-2.074 1.39-2.888 1.626-5.212 2.192-1.83.418-3.26-2.75-1.852-3.962 1.606-1.384 3.335-1.983 5.416-2.68zm-42.32.016c.306-.015-.018.745-.805 2.652-1.736 4.202-1.85 4.292-6.22 4.984-2.275.36-3.97.45-5.587.296-2.438-.234-3.48-.924-1.9-1.256 4.582-1.007 9.647-3.38 12.942-5.678.858-.615 1.36-.99 1.57-.998zm82.935.517c1.185 0 2.147.963 2.148 2.148 0 1.186-.963 2.144-2.148 2.144s-2.143-.958-2.143-2.143c0-1.184.958-2.147 2.143-2.147zm-64.864.594l-.184 1.653s-2.647 1.398-3.9 1.926c-.958.387-1.024.473-.717 1.36.62 1.773 1.814 3.972 1.814 3.972l-1.106 2.506c-.674-2.254-1.385-4.635-2.627-6.734-1.177-1.643-1.397-1.847.436-2.19 2.365-.797 4.206-1.373 6.284-2.493zm23.637.537c-1.294.057-3.998 1.146-4.266 2.187-.152.59.017 1.41.514 1.596 1.347.5 4.05-.608 4.762-1.62.222-.31-.116-.958-.354-1.362-.182-.308-.147-.822-.655-.8zm.07.887h.067c.22-.018 1.018.993.12.908-.308-.03-.59.086-.842.35-.032.485-.727.67-1.062.503-.25-.12-.6.132-.636.283-.503.363-1.14.345-1.22.087-.172-.18.337-.924.78-.897.094.006.41-.206.702-.46.14-.508.675-.42 1.013-.393.382.153.732-.344 1.076-.38zm70.097.08l.955 2.656-3.418-.305zm-14.693 3.06c-.707.902-1.36.91-2.39.864.844 1 1.217 2.383.394 3.29-1.25 1.276-3.665-.68-3.486-.858l4.33-5.772c1.15.326 1.786 1.4 1.152 2.476zm-94.055-1.505s5.264 4.535 5.3 6.568c.016.774-.233 1.025-.852 1.23-2.068.686-7.824-1.077-7.824-1.077l.74-1.404c.906.25 5.365 1.404 5.75.836.397-.59-3.726-4.612-3.735-4.616zm26.13 1.896l.63 2.193-2.153-.533zm84.072.394l.562 3.03-3.447-.804zm-65.72.048l.514 1.78c-22.868 10.604-29.546 34.956-17.62 55.052l-1.348 1.853c-15.963-25.866.204-52.118 18.454-58.685zm-20.602 1.862l.31 2.7-2.657-.154zm-31.472-.07c.453.006.54.25.537.516-.002.365-2.31 3.31-3.057 3.974-1.622.655-7.88-1.96-8.814-3.982-.184-.592.434-.332 1.82-.05 3.51 1 7.067-.373 9.514-.46zm60.926.034c.957 0 1.735.774 1.735 1.73 0 .96-.78 1.737-1.736 1.737-.958 0-1.73-.778-1.73-1.736s.772-1.732 1.73-1.732zm-72.035 2.134c1.74 1.564 4.297 2.858 6.565 3.31 1.412.31 1.003.456-.307 1.808-1.225 1.28-1.124 1.442-2.37.81-2.082-1.055-4.345-3.454-4.254-4.758.038-.543.133-1.173.365-1.17zm129.89.293l.432 2.88-3.258-1.13zm-90.55 1.037l1.063 2.58-2.89-.082zm73.44 2.464c-.002.36-.088.97-.088.97 1.7-1.082 3.956-.194 3.89 1.553-.095 2.463-1.3 2.486-3.27 2.16 1.08 1.787-.2 3.51-2.226 2.85-1.848-.6-1.492-2.55-.63-3.704-4.357.71-5.522 6.91-.49 8.752-1.01-1.566-1.262-3.436.933-3.75 2.038-.292 2.9 1.254 2.02 3.114 1.916-.666 3.72.432 3.144 2.297-.696 2.252-2.7 2.096-3.88.724.848 2.042-1.116 3.513-2.597 2.722-2.335-1.248-1.18-3.473.384-4.065-6.013-.62-7.408 7.698-2.975 8.884-1.138-.714-1.267-3.99 1.33-3.54 2.553.513 1.946 2.883.31 3.96 1.975-.42 3.824 1.306 2.622 3.05-1.417 2.058-3.37.59-4.097-.81.228 1.88-.967 3.074-2.503 2.37-2.638-1.21-.69-4.235 1.373-4.04-4.184-2.474-9.872 2.712-6.52 7.005-.132-1.95.84-3.552 2.18-3.33 1.18.132 2.21 1.476 1.88 2.532-.31.9-1.337 1.593-2.413 1.81 3.2.355 3.473 2.62 2.147 3.734-2.25 1.894-3.297-.293-3.82-1.57-.457 3.177-4.204 2.096-4.334-.2-.128-2.516 2.775-2.464 3.31-2.323.07-.087-2.245-2.377-4.714-2.702l.015-1.46c9.738-6.105 13.086-16.766 9.996-26.873l.587-.674c1.587 1.213 3.18 3.814 6.117 2.86 0 0-.683-.48-1.02-.814-1.513-1.49-.663-3.245 1.44-3.342 1.36-.063 1.89.99 1.9 1.848zm-66.054-.005l1.008 1.48c-14.765 17.296-12.074 37.088-3.583 50.19l-1.236 1.492c-7.514-9.633-13.65-32.99 3.812-53.16zm12.582 2.39c-.02.386.008.696.008.696s.317-.394.575-.868c1.26-2.107 3.976-.894 3.53 1.526-.21 1.135-2.123 1.58-2.643 1.254.495 1.353 1.837 1.67 3.472 2.256.57.11 1.55.388 1.55.388l.04.917c-8.857 5.578-13.87 15.038-10.624 27.976l-.98 1.324c-1.787-4.298-3.416-4.204-6.353-4.372 0 0 .73.515 1.15 1.01.89 1.054.496 2.89-.736 3.08-2.856.443-2.885-1.58-2.507-2.953 0 0-.51.43-.76.592-1.134.736-2.546-.028-2.678-1.49-.124-1.373.346-2.262 1.76-2.433.475-.057 1.207.063 1.207.063s-.282-.54-.437-.843c-.677-1.328.81-2.465 2.172-2.178 2.153.52 1.984 2.375.737 3.835 3.34.252 5.09-1.93 4.843-4.097-.3-2.644-1.517-4.073-4.143-4.534 0 0 .423.664.605.986.672 1.192-.294 2.655-1.707 2.647-1.45-.01-2.377-1.337-1.818-2.647.136-.32.68-.72.596-.757-.057-.026-.803.205-1.01.237-1.74.27-2.857-1.26-2.127-2.788.518-1.084 2.072-1.376 3.2-.845.18.066.398.317.433.262.033-.054-.115-.41-.16-.66-.358-1.4.315-2.148 1.832-2.05 2.125.136 2.916 1.867 1.49 3.428-.37.402-.936.998-.936.998.07.307 3.03.53 4.54-1.052 1.75-1.83 2.027-5.652.268-6.9l-.873-.614c.837 1.68-.704 3.613-2.064 3.252-2.718-.656-2.483-2.882-.695-3.586 0 0-1.814-.677-2.336-1.407-.74-1.032-.49-1.983.395-2.708 1.116-.897 2.703-.31 3.468.797.462-1.408 1.114-2.36 3.04-1.593 1.348.644 1.337 2.442-.147 3.42-.475.315-1.322.607-1.322.607s1.276.726 2.828.744c2.993.034 5.362-3.494 4.155-6.19-.245-.55-.857-1.255-.857-1.255s-.066.942-.253 1.304c-.69 1.344-2.28 1.368-3.22.52-.856-.77-.606-1.802.057-2.505.502-.533.956-.638 1.658-.965-.797-.27-1.685-.463-2.073-1.288-.36-.786-.108-1.754.848-2.353 1.725-.903 3.078.624 3 1.81zm-59.377-2.175c1.22.704 2.034 1.766 3.172 2.695.88.712.87.84.142 1.517-1.635 1.577-2.554-.706-3.082-1.64-.647-1.25-.714-2.525-.23-2.572zm130.727.435l.204 3.05-3.398-1.304zm-93.668.18l1.22 2.773-3.155-.014zm65.956.005c2.967 10.964-1.205 18.835-9.12 25l-.878-1.15c6.188-5.256 10.818-11.45 8.772-22.488zm-36.365.048l34.8.64-1.042 1.833-2.71.015-5.378 9.504-25.01-.005zm-50.916 7.93c-1.213 1.917-8.443-2.207-8.347-2.424l.906-.873c1.148.466 4.72 2.437 5.512 2.125.276-1.793-1.83-4.116-2.624-5.66l.885-1.11s4.584 5.934 3.67 7.942zm11.86-6.975l-1.202 2.176c-1.127.345-4.526.406-4.8.632.41 1.115.86 4.39.86 4.39l-1.34 1.714c-.356-2.108-.952-4.77-1.48-6.725-.45-1.657-.324-1.292 3.206-1.566 1.582-.09 3.212-.29 4.757-.622zm7.138 2.624l1.43 2.54-2.9.03zm-34.848.17c.158-.065 1.056.94 1.21 1.23-.066.66-1.09 1.022-1.25.786-.062-.095-.08-1.577.02-1.988.005-.015.01-.024.02-.03zm131.27.033l-.03 3.18-3.447-1.526zm27.37.718l-.048 2.06c-12.5 6.106-31.148 22.5-36.467 51.9l-1.092-1.2c5.316-28.074 23.663-44.673 37.607-52.76zm-125.75 2.836l1.555 2.34-2.808.307zm98.447.896l-.275 2.817-3.394-1.88zm-65.306.587c.013.668.07 1.15.112 1.818-7.704 4.988-10.307 12.836-9.024 22.713l-1.067 1.576c-2.506-8.956.024-19.99 9.98-26.107zm89.314.582c.785.46 3.33 1.21 3.33 1.21l-.028 1.874-5.242-1.883zm-150.6 7.97c-1.126.918-3.727-.612-4.91-1.235l-.033-1.58s.9.46 1.81.823c1.863.827 1.868-.158.847-2.918-.36-.97-.715-2.093-.715-2.093l1.227-1.163s2.934 6.607 1.775 8.164zm26.317-5.93l2.007 2.1-2.797.64zm122.358.253c1.776.003 5.202 1.445 5.202 1.445l-.022 2.078c-1.74-.503-3.76-1.47-5.6-1.74-1.452-.2-1.367.612-1.374 2.665-.012 2.78.686 5.292 2.016 8.073 1.1 2.303.527 2.92-1.27 1.89-3.237-2.22-10.135-3.896-11.196-2.604-1.092 1.33 1.058 7.948 3.544 11.105 1.01 1.28 1.073 1.487.6 1.987-.38.404-.998.43-2.09.082-3.584-1.142-8.774-1.4-10.27-.432-1.483.96 2.38 7.587 5.622 9.726 2.102 1.5 1.696 2.246-1.702 2.323-5.55.026-9.818 1.263-9.58 2.778.4 2.575 3.995 6.106 8.12 7.98 2.525 1.032 1.47 1.442-.21 2.038-2.806.948-5.503 2.465-8.144 3.883l-1.27-1.624s2.657-1.69 5.546-3.312c.678-.38.644-.52-.305-1.314-3.077-2.58-5.336-5.46-5.808-7.4-.46-1.883.48-3.072 3.278-4.135 1.727-.656 2.364-.85 3.89-1.192 2.196-.493 2.232-.56 1.293-2.25-.42-.757-1.11-2.007-1.532-2.778-3.273-5.598-1.546-7.62 6.052-7.734 1.866-.098 2.22-.103 2.12-.747-.405-2.638-1.57-5.667-1.406-7.9.348-3.37 3.814-4.186 9.905-2.666 1.41.352 1.51.28 1.262-.858-1.18-5.13.05-9.76 3.33-9.368zm-22.353.36l-.533 3.267-3.244-2.157zm-121.31.77l8.946.587-1.42 1.668-5.407-.102-.205 4.617-1.73 1.484zm57.98.354h7.366l-.058 7.787h-7.34zm8.777 0h6.856v7.787l-6.798.072zm8.21 0h7.35l-.068 7.787h-7.28zm64.196.62c-.173 2.003.246 5.623.415 7.177-.12.462-.44.396-2.364-.04-1.335-.446-5.035-.578-5.035-.578l1.55-1.642c1.267.15 2.268.14 3.58.303-.018-1.312.037-3.814.037-3.814zm-119.026 1.543l2.055 2.07-2.632.674zm100.46.674l-.82 3.33-2.976-2.677zm28.198 1.77l.01 1.698-2.926-1.317c-.035 1.94 1.68 5.442 1.68 5.442l-1.39.654c-1.206-1.97-2.044-3.738-2.113-5.957.015-.804-.095-2.162.63-2.2 1.488-.034 2.733.47 4.108 1.68zm-129.662 1.68l2.444 1.455-2.71 1.096zm100.528.748l-1.196 3.428-2.614-2.968zm-129.595 1.09l6.594 2.236-1.174 1.246-5.48-1.73zm92.518.907l.543 12.146-34.843-.285 1.213-1.716 2.264-.02 5.964-10.057zm-63.916.946l2.59 1.83-2.69 1.187zm130.286 1.072l.004 1.988c-8.412 6.215-17.507 16.927-19.055 35.866l-2.27 1.94c1.108-18.493 8.81-31.243 21.32-39.794zm-30.693.073l-1.222 3.084-2.42-2.872zm23.706 4.193l-.81.908c-.23.076-3.437-1.643-5.96-2.046.826 1.633 1.217 2.852 3.046 5.44l-1.18 1.164c-.354-.08-4.926-6.832-3.716-8.356 1.964-1.323 6.726 1.45 8.62 2.89zm-13.68-3.625c-.053 1.834 1.43 7.524 1.43 7.524-2.292.112-4.517-.15-6.992.545l1.166-2.08s1.078-.113 2.02-.3c1.95-.388 1.75-.153 1.296-1.85-.425-1.593-.45-1.925-.45-1.925s1.39-1.924 1.53-1.914zm-128.592 1.968c3.01 18.236 10.204 30.757 21.553 42.025l-1.154 1.508c-13.34-12.21-20.623-27.746-22.527-42.36zm18.775.767l2.452 1.338-2.52 1.47zm130.45.053l-.016 2.676-1.537-1.55c.415-.376.918-.75 1.552-1.126zm-32.342.548l-1.673 3.07-2.184-2.908zm32.162 6.944c-.344-.54-3.408-2.446-4.797-3.245-.09-.235 2.152-2.236 2.597-2.375 2.225.31 2.94 4.755 2.2 5.62zm-130.237-3.336l2.773 1.352-2.517 1.775zm92.27-.002l3.56.336-1.89 2.94zm32.948 1.306c.463.003.982.197 1.63.558 2.507 1.396 3.824 2.926 3.685 4.286-.064.624-.414.75-.82.296-.73-.818-3.198-1.883-5.323-2.3-1.61-.314-1.76-.45-1.276-1.196.733-1.13 1.336-1.65 2.105-1.644zm-42.886 1.29c3.856 14.6 10.633 25.833 19.143 35.08l-1.765 1.503c-6.462-7.412-13.568-16.087-19.37-34.843zm7.697.78l3.563.54-2.085 2.656zm-50.234.156c.413.014-1.226 6.228-6.885 6.657-3.582.594-3.984 1.197-4.038 6.773-.074 7.56-1.293 9.328-7.472 9.795-4.092.31-4.63 1.143-3.937 7.017.66 5.59-1.455 8.442-6.667 8.437-4.515.374-6.38 2.48-6.376 6.662.002 1.695.03 2.104.03 2.104l-2.92.228s.008-2.753.228-4.092c.89-5.412 3.208-7.58 8.092-7.554 3.776-.288 4.364-.9 4.233-6.624-.146-5.822-.224-5.782 1.295-7.307.978-.98 2.095-1.422 4.078-1.61 6.175-.58 6.662-.993 6.647-7.325-.573-5.26.882-8.482 4.223-8.747 6.762-.536 6.602-4.207 6.304-4.36l3.147-.048c.007-.003.012-.005.02-.004zm13.83 0c3.965 21.39 16.512 41.42 23.398 48.812l-1.343.712c-10.036-12.465-19.158-26.78-23.67-49.49zm-7.163.01l3.137.033-36.137 50.857-1.906-1.435zm4.383.033c3.395 12.328 6.067 24.383 16.743 40.51l-45.288-.295zm12.505.048c.265-.122 1.33 6.238-.257 9.174-1.426 3.974-.73 6.212 2.372 7.66 5.325 2.487 6.67 4.97 5.993 11.075-.473 4.275.82 6.34 4.834 7.714 4.787 1.64 6.882 4.215 6.856 8.433-.003.648-.247 1.387-.247 1.387l-2.67 1.57s.033-.573.135-1.26c.697-4.677-.19-5.945-5.712-8.15-5.214-2.083-6.507-4.492-5.62-10.498.29-1.96-.11-3.94-.92-5.43-1.365-2.43-4.382-2.407-6.55-4.626-1.793-1.9-1.993-4.556-.466-9.1.947-2.817 1.09-3.885.353-6.232-.484-1.546-.674-1.682-.674-1.682zm-62.897.68l3.075.847-2.313 2.4zm122.012.635c1.055-.03 3.093.34 4.763 1.172 3.83 1.908 4.525 3.472 1.17 2.628-1.894-.476-4.615-.368-7.24.28-2.775.687-2.716.718-1.76-.96 1.21-2.122 1.525-3.078 3.067-3.12zm-6.953 2.253l-.697 1.198c-1.522-.252-3.122-1-5.44-.815.95 1.818 2.076 2.76 3.588 4.363l-.563 1.202c-.135.163-4.417-3.408-5.275-5.808-.387-1.084-.036-1.555 1.523-1.595 2.323-.036 4.663.63 6.864 1.454zm-57.204-1.177c1.147 0 2.076.928 2.076 2.074 0 1.147-.93 2.08-2.076 2.08-1.147 0-2.075-.933-2.075-2.08 0-1.146.928-2.075 2.075-2.075zm29.247.562l3.507.63-2.338 2.617zm-65.568.025c.83-.066 2.11 1.542 2.107 1.544l-4.25 5.872c-2.022-.407-1.59-3.47.263-3.563.428.002 1.21.074 1.21.074s-.57-.31-.9-.746c-1.24-1.5-.066-3.05 1.57-3.18zm79.314-.525s3.383 6.692 3.168 6.947c-2.097.924-4.386 1.4-6.69 2.24l.442-1.945s.767-.054 3.344-1.036c1.234-.47-1.346-3.9-1.346-3.9zm-23.403 1.977c4.936.04 5 6.098 4.054 8.102-.686 1.374-1.732 2.136-4.892 3.563-2.738 1.237-3.045 1.154-3.045 1.154l-.654-1.46s1.594-.703 3.31-1.396c3.55-1.434 4.414-2.53 4.025-5.096-.55-3.636-3.36-4.202-8.79-1.765-.63.282-1.426.567-1.426.567l-.375-.732c.087-.072 4.35-2.307 6.74-2.86.374-.055.723-.08 1.052-.08zm-76.348.66l2.792.92-2.036 2.003zm124.413.78c2.468-.007 4.5.41 4.494 1.29-.002.417-.097.453-2.314.76-3.368.468-8.997 3.343-12.164 6.01-1.877 1.58-1.392 1.213-.602-1.078.786-2.28 1.96-5 2.594-5.415 1.587-1.037 5.193-1.56 7.99-1.568zm-40.356.315l2.376.518-1.547 1.5zm-7.962 1.29c.85-.013 1.27.388 1.605 1.202.723 1.76.01 2.79-2.744 3.97-1.248.56-2.362 1.346-3.73 1.596l-1.73-4.645s.546-.2 2.347-.945c2.052-.85 3.402-1.166 4.252-1.18zm-8.03.562c5.496 15.545 12.22 25.642 19.337 34.01l-1.72 1.075c-7.56-8.94-14.515-19.42-19.527-34.843zm7.623.553c-.666.018-1.664.422-2.997.935-1.936.748-2.104 1.65-1.235 2.77.38.487.77.378 2.633-.36 1.9-.753 2.722-1.088 2.836-1.765.166-.987-.38-1.604-1.236-1.58zm53.424.212c-.004.652-9.886 10.02-15.538 14.788-2.575 2.173-2.487 2.156-2.707 1.888-.138-1.615.956-7.38 1.62-8.384 3.775-3.997 9.6-7.248 15.266-8.47.89-.18 1.442-.16 1.36.178zm-53.25.31c.355.013.663.32.66.714-.002.302-.44.594-.892.592-.16 0-.554.09-.8.344-.245.354-.403.695-.844.61-.257-.048-.73-.064-.916.098-.868.755-1.73.128-1.33-.63.102-.192.453-.288.738-.287.247.002.81-.055.892-.358.098-.362.65-.463 1.038-.45.42.055.76-.156.868-.33.156-.14.34-.283.514-.297.024-.002.05-.005.072-.005zm-74.733.166l3.146.427-1.983 2.54zm30.04-.043c1.146 0 2.08.93 2.08 2.076 0 1.148-.934 2.08-2.08 2.08-1.148 0-2.076-.932-2.077-2.08 0-1.146.93-2.075 2.076-2.075zm32.773 1.645c1.147 0 2.076.928 2.076 2.075 0 1.147-.93 2.076-2.077 2.076-1.146 0-2.075-.928-2.075-2.075 0-1.147.93-2.075 2.075-2.075zm-61.408 2.345l3.414.218-1.955 2.614zm18.023.5c1.147 0 2.075.928 2.075 2.075 0 1.146-.928 2.075-2.075 2.075-1.147 0-2.075-.93-2.075-2.075 0-1.147.928-2.076 2.075-2.076zm85.28 1.294c1.423-.024 3.073.12 3.073.12l-.397 1.597c-1.736.166-3.966-.317-5.828.462.692 1.13 4.744 2.73 5.192 3.13.042.167-.333 1.69-.333 1.69.11.39-6.858-2.827-7.09-5.542.007-.92 3.01-1.42 5.383-1.46zm-23.958 1.657c3.958.037 5.91 5.563 4.373 8.01-.61 1.106-1.983 2.42-3.796 3.574-.873.557-3.18 1.688-3.18 1.688l-1.04-1.605s.923-.37 1.79-.843c2.18-1.232 6.605-3.856 4.466-7.43-1.2-1.932-2.998-2.31-6.73-.416-2.786 1.415-3.418 1.547-3.418 1.547l-.708-1.28c.185.107 5.562-3.13 8.243-3.243zm-77.28.577l3.11.005-1.33 2.802zm90.032-.368c1.89 3.657 5.123 6.42 6.007 7.083 0 0-3.222 2.067-5.145 3.384l-1.13-1.328 2.762-2.37-3.11-4.34zm30.326.88c-.35 1.807-.406 3.724-.554 5.834.68.622 1.294.934 1.83.898.6-1.898 1.033-4.053.746-6.27-.568-.445-1.316-.395-2.022-.46zm1.558 1.374c-.01 1.19.155 2.678-.355 3.827-.29.654-.95.408-.973-.48-.03-1.203.214-2.21.284-3.306.04-.624.31-.998.682-.853.388.188.356.465.364.813zm-44.874.82c2.04.152 2.828 1.858 2.075 3.084-1.844 2.355-3.73 2.783-6.148 4.145l-2.416-4.515s4.7-2.652 6.488-2.715zm-.056 1.008c-1.35.157-2.202.816-3.336 1.372-1.39.68-1.842 1.733-.9 2.687 1.04 1.158 4.67-1.602 5.268-2.27.37-.572.308-1.095-.21-1.507-.225-.18-.502-.28-.822-.282zm-74.435.19l3.04.033-1.642 2.324zm74.714.475c.518.367.473 1.025-.256 1.212-.37.094-1.005.096-1.02.588-.01.367-.57.505-.89.453-.327-.053-.88-.08-.986.328-.28.557-.49.567-.88.178-.42-.425-.225-.963.595-1.053.35-.04.655-.294.78-.563-.018-.348.226-.55.612-.47.544-.006.9-.208 1.29-.716.27-.126.568-.088.754.043zm-17.787.06c1.147 0 2.075.928 2.075 2.075 0 1.147-.928 2.08-2.075 2.08-1.147 0-2.075-.933-2.075-2.08s.928-2.075 2.075-2.075zm-44.324 3.82c1.147 0 2.08.932 2.08 2.08 0 1.146-.933 2.074-2.08 2.074s-2.075-.928-2.075-2.075c0-1.147.928-2.08 2.075-2.08zm-49.666 1.84l23.774 16.26-1.624 2.37-22.08-15.017zm119.36.53c1.548 0 2.74.89 3.895 2.686 2.29 3.563 1.142 6.373-3.603 9.245-2.205 1.335-2.22 1.348-2.22 1.348l-1.12-1.382s1.604-.943 2.268-1.36c3.9-2.465 4.997-4.645 3.282-7.1-1.652-2.365-3.388-2.176-8.204.888-.974.62-2.138 1.105-2.138 1.105l-1.057-1.435s2.728-1.402 3.657-1.993c2.134-1.363 3.876-2.003 5.24-2.002zm17.723-.613l.015 1.563c.053.07-3.23 1.518-5.155 2.39-.623.34-.38 1.002-.342 1.684l-.927.626s-1.28-.934-1.447-1.533c-.47-1.892 5.557-4.158 7.857-4.73zm-34.323 1.68c1.147 0 2.08.928 2.08 2.075 0 1.147-.933 2.08-2.08 2.08-1.146 0-2.075-.933-2.075-2.08s.93-2.075 2.075-2.075zm-64.404.582c1.146 0 2.075.93 2.075 2.075 0 1.147-.93 2.076-2.075 2.076-1.147 0-2.076-.93-2.076-2.076s.93-2.075 2.076-2.075zm80.918 1.658c.79-.03 1.38.485 1.703 1.27.825 2.008-.297 3.494-4.36 5.77-.34.19-1.06.582-1.06.582l-2.992-4.13s1.053-.726 2.047-1.32c2.225-1.456 3.65-2.136 4.664-2.172zm-.396.99c-.192.004-.413.078-.67.227-1.042.6-2.785 1.253-3.607 2.34-.48.668-.262 1.33.65 2.183.772.51 4.76-2.424 4.858-3.277-.337-.903-.657-1.49-1.23-1.474zm-118.707.222l.664.446-.663.523zm119.34.723c.295.36.118.97-.507 1.076-.315.054-.78.14-.93.607-.127.307-.557.568-.98.557-.49-.112-.748.183-.774.4-.24.41-.837.477-1.2.09-.283-.3.223-1.168.558-1.155.06.027.427.11.87-.485.09-.432.594-.696.958-.68.37.125.588-.285.737-.512.34-.18 1.03-.18 1.267.102zm-117.76.314l.956.644-2.536 1.8v-1.45zm1.853 1.212l1.3.867-4.733 3.39v-1.84zm2.424 1.546l1.373.907-7.23 4.883v-1.882zm2.604 1.32v1.57l-8.46 5.906v-1.59zm.955 1.13l1.824 1.245.455 53.24-11.4 7.83.01-2.328 9.572-6.92zm137.516 1.438c-2.557 2.92-5.986 3.116-8.977 3.036-8.058.113-13.06.543-14.096 10.15 3.282-2.453 6.764-2.77 10.794-2.654 5.105-.007 7.4-.34 9.475-1.377 3.333-1.662 5.44-4.64 5.038-6.73-.395-.45-1.43-2.313-2.234-2.424zm-138.472.466v1.843l-8.46 5.668v-1.872zm96.613.17c1.148 0 2.08.93 2.08 2.076 0 1.147-.932 2.076-2.08 2.076-1.146 0-2.074-.93-2.075-2.076 0-1.146.93-2.075 2.076-2.075zm-55.233.213c14.95.465 46.698.287 46.698.287l1.692 2.438-49.917-.523zm97.01 1.6c-1.79 1.754-3.645 2.612-9.524 2.507-6.212-.11-8.633.87-10.24 3.637-.468.803-.46 1.116.217.508.568-.675 1.86-1.975 2.393-.744 1.055-.69 1.967-1.742 2.52-.413.305-.067 2.095-1.86 2.52-.27.854-.958 1.587-1.257 1.99.1 1.215-.577 1.86-1.67 2.552-.16.98-.7 1.723-1.577 2.294-.242.834-.246 1.684-1.78 2.167-.558.09.03 3.112-1.787 3.967-3.584.7-1.585 1.345-.533.548 1.086-2.048 3.966-5.55 5.414-13.586 5.426-4.88.005-6.897.483-8.43 1.377-2.46 1.435-1.135-2.177.59-4.37 2.172-2.76 4.65-3.577 11.437-3.33 3.71.022 6.08-.49 7.084-1.3.85-.686 1.467-1.15 1.924-1.18.46-.032.52.584-.424 1.51zm-109.842-.67c1.147 0 2.08.932 2.08 2.08 0 1.146-.933 2.074-2.08 2.074s-2.075-.93-2.075-2.076c0-1.147.928-2.08 2.075-2.08zm-28.547 1.538v1.872l-8.46 5.775v-1.915zm40.91.897h6.564v6.93h-6.565zm14.71 0h7.064v6.93h-7.064zm15.724.224h6.818v6.705h-6.818zm14.77.135l4.538.154s2.52 3.206 3.583 4.684l-3.355 1.722-4.766.01zm-42.05.47c-1.275 0-2.31 1.03-2.31 2.308 0 1.276 1.035 2.312 2.31 2.312 1.278 0 2.314-1.036 2.314-2.312 0-1.277-1.036-2.308-2.313-2.308zm15.097.228c-1.278 0-2.314 1.03-2.314 2.308 0 1.276 1.036 2.312 2.313 2.312 1.276 0 2.312-1.036 2.312-2.312 0-1.277-1.036-2.308-2.313-2.308zm15.437.06c-1.277 0-2.312 1.03-2.312 2.308 0 1.276 1.035 2.312 2.312 2.312 1.278 0 2.313-1.036 2.313-2.312 0-1.277-1.035-2.308-2.313-2.308zm-36.847.468c.456.325.757.852.757 1.455 0 .99-.804 1.795-1.794 1.795-.35 0-.675-.1-.95-.272zm6.313.024c.845 0 1.533.683 1.533 1.528s-.688 1.532-1.533 1.532-1.532-.687-1.532-1.532.688-1.528 1.533-1.528zm45.903.063c-1.277 0-2.313 1.03-2.313 2.308 0 1.278 1.036 2.314 2.313 2.314 1.278 0 2.313-1.036 2.313-2.313 0-1.276-1.036-2.307-2.314-2.307zm-38.41.068c1.024 0 1.856.833 1.856 1.858 0 1.025-.832 1.857-1.857 1.857-1.026 0-1.853-.832-1.853-1.857s.827-1.857 1.853-1.857zm30.59-.072c1.025 0 1.856.832 1.856 1.857 0 1.026-.83 1.858-1.857 1.858-1.025 0-1.852-.832-1.852-1.858 0-1.025.827-1.857 1.852-1.857zm-82.148.2v1.86l-8.46 5.912v-1.833zm59.16-.03c.847 0 1.533.683 1.533 1.528s-.685 1.532-1.53 1.532c-.846 0-1.533-.687-1.533-1.532s.687-1.528 1.532-1.528zm15.44.06c.845 0 1.532.683 1.532 1.528s-.687 1.532-1.533 1.532c-.845 0-1.532-.687-1.532-1.532s.687-1.528 1.532-1.528zm-7.74.192c1.025 0 1.856.832 1.856 1.857 0 1.026-.83 1.857-1.857 1.857-1.025 0-1.857-.83-1.857-1.857 0-1.025.832-1.857 1.857-1.857zm23.108.364c.846 0 1.532.682 1.532 1.527 0 .846-.686 1.533-1.532 1.533-.845 0-1.532-.687-1.532-1.532 0-.844.687-1.526 1.532-1.526zM325.38 592.6c3.94-.047 8.204 1.954 10.608 5.274 3.64 4.866 6.072 11.07 7.177 19.216.546 4.034 2.428 16.145 3.495 19.007l-1.47-.28c-.197.093-2.083-7.62-3.272-17.806-.44-3.772-1.242-8.64-3.433-13.086-2.5-5.074-6.747-10.453-12.412-10.88-3.304-.25-6.406 1.82-6.74 4.737-.476 2.305.875 4.45 2.647 5.17 1.74.706 3.82.18 4.054-2.192.04-.39 0-.782-.145-1.144.804-.13 1.417.232 1.744.91.17.023.007 3.44-2.68 4.113-3.245 1.062-6.988-2.15-7.28-5.42-.22-2.757 1.876-6.162 4.52-7.085 1.004-.35 2.082-.52 3.185-.533zm-24.162 1.06v1.9l-8.46 5.84v-1.916zm24.346 1.208c4.733-.135 9.34 5.14 11.292 8.616 2.037 3.627 3.65 9.388 4.204 14.808.945 9.22 2.71 16.76 3.084 17.102l-1.29-.282c-.27.18-2.05-8.14-3.132-17.406-.608-5.197-2.536-10.35-4.83-14.32-2.116-3.662-4.97-6.4-8.35-6.797-2.117-.213-4.294.398-4.722 2.627-.226 1.31.46 2.594 2.013 2.706.366.026.716.056.78.068.823.147-.47 1.482-1.32 1.363-3.033-.422-4.43-4.476-2.04-6.633 1.4-1.26 2.862-1.81 4.31-1.852zm10.133 1.353l53.147.54s.045.95-3.263.794c-2.812-.133-4.627.26-6.49.858l-41.76-.092zm-34.48.617v1.765l-8.46 5.92v-1.95zm24.7.746c1.022-.014 2.063.25 2.847.703 6.583 3.813 9.097 13.278 9.964 19.235 1.183 8.825 2.548 17.022 2.93 17.224l-1.437-.325c-.19.006-1.76-7.644-2.738-16.215-.79-6.93-3.16-13.888-7.86-16.815-3.016-2.053-3.608-2.26-5.004-1.062-1.204 1.033-2.43-.523-1.42-1.79.695-.65 1.7-.94 2.72-.955zm-24.7 2.39v1.45l-8.46 5.892v-1.717zm38.684.04c.11-.1 4.574 7.478 5.985 19.424.743 6.29 2.87 17.014 3.21 17.1l-1.547-.164c-1.582-6.325-2.457-12.31-3.302-17.707-.956-6.105-1.724-11.528-5.528-18.605l1.178-.038c0-.005.004-.008.005-.01zm1.015.063l1.382.02c2.363 4.5 4.877 11.49 5.745 18.497.75 6.052 1.51 12.21 3.676 18.62l-1.484-.408c-1.86-5.204-2.52-11.492-3.52-18.01-1.106-7.202-2.842-13.475-5.8-18.72zm8.53.01c2.416 6.26 3.99 9.248 5.095 16.955.857 5.983 2.068 13.464 4.824 21.388l-1.4-.06c-2.042-5.47-3.605-12.796-4.32-19.833-.974-9.558-5.266-18.482-5.306-18.425zm-2.382.024c.13-.195 4.61 8.768 5.65 18.62.69 6.553 2.223 13.04 4.33 19.3l-1.432-.03c-1.65-1.91-2.888-10.962-4.25-19.412-1.392-8.624-3.353-13.93-5.53-18.464h1.228c0-.008.003-.01.005-.014zm-3.612.01l1.27.004c3.324 7.262 4.704 11.583 5.727 18.605 1.295 8.88 2.538 16.89 3.913 18.977l-1.55-.102c-2.142-6.4-3.106-12.795-3.866-19.196-.822-6.933-2.815-12.87-5.493-18.29zm7.012.057l1.508.025c2.6 5.265 4.76 11.67 5.522 18.992.42 3.97 1.15 10.065 4.132 19.467l-1.208-.076c-2.442-6.305-3.91-13.728-4.785-20.2-.883-6.528-2.44-11.915-5.168-18.207zm9.29.044c1.425 3.653 2.6 7.28 3.37 11.012l-.854 1.664c-1.337-4.928-2.842-8.764-4.34-12.65zm-6.88.006l1.837.044c3.156 7.326 4.778 15.074 5.22 17.673 0 0 .438 2.3.467 3.055-.106 6.402 1 10.97 3.384 17.853l-1.09-.077c-2.766-8-3.51-13.684-4.218-19.113-.585-6.826-2.806-13.86-5.6-19.434zm4.242.058c1.88 4.696 3.316 9.225 4.62 13.756-.058 1.03-.158 2.155-.828 2.987-1.534-5.543-2.828-11.302-5.198-16.733zm3.472.04l1.455.023 2.9 8.306-1.134 1.256c-.852-2.75-1.725-5.774-3.22-9.587zm8.49.057l1.062 2.498-1.144.97s-1.168-2.337-1.474-3.438zm2.158 0l.533 1.44-.96.733-.747-2.143zm-8.33.03l1.498.01c.604 1.744 2.216 6.017 2.216 6.017l-1.077 1.13s-2.027-5.4-2.636-7.157zm2.322 0l1.33.015c.4 1.134 1.642 4.27 1.642 4.27l-.916.874zm6.948.058l1.314.063-.155.326-.82.408zm-43.095 1.848c5.503 2.9 7.02 11.59 7.616 16.37 1.042 8.336 2.21 15.12 2.46 15.302l-1.223-.194s-.903-4.284-1.528-8.36c-.52-3.39-.92-6.23-1.06-7.53-.09-.812-.225-1.757-.302-2.1-.77-3.424-1.016-4.208-2.007-6.293-.952-2-1.288-2.5-2.87-4.285-.608-.685-1.2-1.186-1.407-1.624-.297-.626.32-1.284.32-1.284zm-27.862.446v1.64l-8.46 5.972v-1.87zm0 2.875v1.886l-8.46 5.58v-1.672zm0 3.215v1.75l-8.46 5.896v-1.808zm14.13 1.77h.746l.053 1.226-1.154-.072zm-14.13 1.512v1.872l-8.46 5.586v-1.746zm13.257.713l1.79.02-.02 1.284-2.3-.076zm-1.038 2.06l2.938.054v1.223l-3.64-.058zm-12.22.268v1.963l-8.46 5.625v-1.974zm10.722 2.04l4.3.05-.025 1.022-5.134-.034zm-10.722 1.14v1.92l-8.46 5.416v-1.725zm8.927.912l5.905.082-.145.988-6.735-.03zm-8.927 2.09v1.847l-8.46 5.508v-1.774zm6.71 0l7.773.18 1.64 1.488-12.097.072zm-2.35 2.725l13.362.164.93.864-14.336.053zm-4.36.42v1.96l-8.46 5.542v-1.79zm4.374 1.723l14.808.068-1.072 1.188-13.756.04zm-4.374 1.483v1.794l-8.46 5.74v-2.06zm4.005.936l12.8.044-1.502 1.178-8.843.204zm-4.005 2.216v1.712l-8.46 6.06v-1.92zm7.748.218l7.516.034.14 1.01-6.463-.016zm2.08 2.08l5.77.06.272 1.303-5.135-.067zm-9.828.912v1.59l-8.46 5.906v-1.76zm15.996 1.304l.068 1.242-3.443.13-.97-1.3zm-.03 2.202l-.028 1.304-2.4.04-.538-1.257zm-2.132 2.322l1.89.015-.16 1.003-1.464.02zm.567 2.41h.92l-.155.785h-.47zm18.715 13.276l-.44.567h13.226l.147-.566zm17.053 0l-.233.766h5.97l.164-.766zm9.75.15l-.184.723h15.26l-.253-.723zm18.256 0l.31.878h5.135l-.34-.878zm17.714 0l-9.01.005.324.978h9.32z"/></svg>