<svg viewBox="260 370 224 313" preserveAspectRatio="none" xmlns="http://www.w3.org/2000/svg" width="744.094" height="1052.362"><title>Vectorized Playing Cards 1.0</title><rect y="-2435" x="7374.071" height="311.811" width="223.228" rx="10.63" ry="10.63" fill="#fff" stroke="#000" stroke-width=".997" transform="translate(-735.69963,486.83327) translate(-6377.9381,2318.4423)"/><path d="M289.535 395.112c.085 79.126.926 176.366.984 262.546l163.715-.04-1.09-262.124zm48.393 1.68c28.246.767 56.667-.062 85.12.16 0 0-10.337 18.007-13.47 23.675-.686 1.246-.756 2.128-.386 2.645.572.8.524 2.152-.116 2.935-.275.335-.4.552-.42.753-.02.2.16.42.304.782.506 1.726-.8 2.92-2.167 3.475-.917.372-2.96.617-4.465.545-9.443-.448-27.962-8.428-35.593-9.05-5.295-1.478-12.137-.962-17.777-.642-1.065.064-.88-2.418-.88-2.418-.888-8.198-6.694-15.336-10.15-22.86zm86.656.748l26.693.03.12 4.31-11.232 11.51c-1.057 1.078-1.892 1.97-1.892 1.97l-.067 10.388c-7.657-4.114-9.182-9.03-10.58-14.437-12.8 9.443-13.4 30.107.574 40.744.114-4.62 3.635-13.7 9.875-14.374l.087 35.994-7.674-7.496-16.687.217c2.752-4.464 2.814-8.01 1.034-12.193-3-6.835-7.63-22.44-7.274-22.387 0 0 .133-.335.512-.42 1.383-.308 2.263-1.643 1.868-3.248-.075-.517-.073-.395.28-1.067 1.357-2.316-.26-4.83-.26-4.83zm-88.528.217l10.015 18.106s-.13.83-.076 1.317c.08.702.313 1.326.714 1.98.266.432.462 1.023.522 1.568.1.9.1.9 1.414 2.085.276.25.33.403.227.662-.434 1.1-.18 3.348.68 6.033 1.09 3.39 1.37 3.347-.655 7.882-.422.948-.933 2.212-1.482 3.374-2.5 5.134-2.885 6.526 1.405 9.263 1.207.77 1.56 1.44 1.26 2.973-.238 1.208-.286 1.98.294 2.66.376.44.717.514.623.854-.065.232-.345 1.236-.25 2.08.25 2.276-2.377 5.627-4.775 6.802-.48.34-.617-.076-.888-.55-2.485-4.35-8.67-2.588-9.08 2.6-.108 1.373-.065 1.968-.42 2.26-.12.1-.482.304-.482.304s-9.255 6.02-15.142 9.113c-.384.202-.728.534-1 .59-.312.062-.544.005-.738-.19-2.172-4.132-.968-9.013-.782-10.744-.046-.614-.57-.725-1.36-.734-1.34-.016-3.265 1.34-3.684 2.606-.356 1.075-.584 1.77-.907 1.767-.325-.006-.483-.44-1.29-1.99-1.676-3.225-1.935-3.634-3.503-5.507-1.25-1.495-2.317-1.693-3.543-.58-.85.774-.823.102-1.548-.29-1.252-.85-3.135-.09-3.18 1.11-.04 1.007-.05 1.764-1.068 1.83-1.135.074-1.628 1.54-1.308 3.63.168 1.1.2 1.277-.135 1.68-1.097 1.315-1.24 2.223-.636 4.06 1.72 5.232 4.215 8.755 6.56 13.514 0 0-5.956 3.38-9.49 5.344l-.092-97.37zm115.723 5.175l.14 84.585-12.783-12.564s-.25-16.21-.236-22.836c.013-6.627.11-13.253.083-14.485-.027-1.233.066-6.476.106-11.86.083-11.278-.95-9.884 1.148-12.048zm-24.98 10.14l.705 2.043c-5.357 3.07-11.91 20.17.12 32.725l-.24 2.588c-12.61-11.437-10.277-27.84-.585-37.355zm.917 2.414c1.838 3.794 3.93 7.153 6.782 9.21-1.537 3.665-2.198 7.71.404 13.163-1.825 1-4.36 3.657-6.984 9.102-9.493-9.59-7.38-23.493-.203-31.476zm-70.62 7.168c5.263.01 10.754.868 15.787 2.385 3.175 16.047 8.75 26.836 8.727 33.12 0 0-.438-.074-1.375-.748-2.293-1.656-5.304-.732-6.916 1.376-1.53 1.997.01 4.776-.774 5.94-1.482 2.174-5.298 6.192-5.937 6.06-.466-.097-.39-.3 1.245-2.81 1.703-2.613 3.01-4.982 2.447-5.56-.24-.246-.365.273-1.636 2.48-2.984 5.182-5.608 8.386-6.647 7.97-.487-.195-.236-.625 1.973-3.543 2.495-3.297 3.187-5.358 2.94-6.27-.19-.7-.577.43-1.612 2.456-1.103 2.145-3.098 4.533-4.71 6.827-.512.83-1.168 1.31-2.008 1.69-.623.27-1.616.71-2.192.636-.296-.038-.092-.212.314-.608 3.183-3.278 5.92-6.932 7.472-10.44.24-.46-.104-1.116-.497-.633-2.383 4.19-5.698 9.418-9.298 11.725-.772.494-1.935.913-2.983.825-1.773-.05-1.146-.445.468-1.482 3.454-2.22 8.3-8.6 9.084-10.855.185-.534-.02-.84-.362-.802-2.842 4.547-6.597 9.55-10.962 11.643-2.352 1.128-5.318 1.35-6.777.637-1.068-.523-.8-.703 1.097-.826 4.564-.45 9.91-4.734 12.56-9.267 1.55-2.51.46-1.934-1.31.487-3.02 4.133-9.02 8.094-12.742 7.78-3.762-.222-5.928-3.137-5.444-5.637.293-1.512 1.367-3.053 3.47-3.494 3.605-.757 5.964 4.952 2.665 6.03-1.123.365-1.55.087-1.144-.363 2.448-1.07 1.36-4.01-.703-4.31-1.3-.19-2.804.685-2.867 2.697.037 1.5 1.272 2.968 3.75 3.003 2.938.04 7.445-2.073 10.18-5.966 1.94-2.976.153-1.97-1.294.014-1.276 1.753-5.4 4.203-5.715 4.114l.14-2.018c.064.35 6.35-3.955 5.982-7.158-.236-2.325.104-3.036 2.524-3.007 1.81.022 4.11.657 4.78 1.487.688.822 1.46 1.08 1.12-.304-.556-2.247.108-2.617-1.194-2.19-.898.293-1.696-.428-2.597-1.068-.99-.703-2.244-1.004-3.74-.95-1.118.04-1.622-.028-1.444-1.082.127-.743.27-1.42.055-1.906-.35-.793-1.75-1.61-3.33-2.776-1.868-1.374-1.522-1.455 2.456-10.623 1.67-3.85 1.678-4.64.677-7.48-1.583-4.492-1.832-6.29 1.134-6.918 1.68-.194 3.41-.29 5.166-.286zm16.84 2.602l1.54.44c.01 0 4.807 16.413 7.553 24.428.838 2.445 1.476 5.748 1.636 8.852-.075 4.273-2.48 7.34-5.415 7.675-2.076.238-4.33-.84-5.362-3.15-.87-2.2-.214-4.793 2.293-5.687 4.34-1.55 7.52 3.99 3.264 5.695-2.2.882-4.293-.707-3.302-2.558.696-1.297 2.65-1.157 3.114.183.376 1.427 1 .754.733-.212-.808-3.076-4.76-2.35-5.08.484 0 3.512 3.847 4.337 6.14 2.365 1.78-1.578 1.965-4.427 1.522-6.9-.61-5.133-3.517-11.793-5.58-19.393-1.03-3.795-2.523-8.32-3.056-12.22zm61.266.183l2.892 1.143-.068 9.528-2.452.846c-3.21-4.902-.54-11.513-.372-11.517zm-58.602.617l2.12.816c1.16 6.725 6.632 19.582 8.563 29.178.538 5.768.624 7.46-3.283 10.533v-.043h-2.114s-.007-.13.917-.82c5.116-3.827 2.063-12.26.13-18.74-3.366-10.348-6.374-20.936-6.332-20.923zm-19.804.67c-.268.004-.54.015-.815.03-3.195.17-3.72.376-3.73 1.07-.02 1.31.517 1.89 3.49 1.57 2.572-.278 6.3.12 8.866 1.226 2.93 1.26 3.625 1.558 4.677 2.1 2.643 1.36 2.182.007-.207-1.564-4.88-3.21-8.253-4.48-12.28-4.432zm23.058.464l1.99.76s.525 1.55.713 2.437c1.935 8.586 7.2 18.24 7.815 28.285.14 3.29-.426 6.36-2.838 7.843h-1.82c1.945-1.935 3.242-2.493 2.698-9.22-.86-8.636-6.558-19.43-8.558-30.104zm3.53 1.396l1.833.676c2.112 11.595 12.583 28.92 5.917 37.278h-1.665c1.486-2.32 2.1-4.357 1.877-7.487-.648-10.535-6.023-20.76-7.964-30.467zm3.073 1.067l1.974.603c2.682 11.748 12.98 30.998 5.64 36.322l-1.45-.038c5.533-10.34-2.853-21.042-6.163-36.887zm3.442 1.096c.605.336 1.472.497 2.132.69 2.078 8.88 5.875 17.617 7.602 25.89.582 4.53-.412 7.92-3.258 9.21h-.608c2.554-3.856 2.072-8.72.71-13.974-1.833-7.068-5.393-14.843-6.58-21.817zm-31.105.153c-.917-.01-1.877.13-2.892.454-1.04.393-.91 1.212.054 1.042l1.288-.227c2.368-.413 5.287.44 8.824 2.582.853.517 1.78 1.015 2.012 1.187.65.485 1.343.483 1.105-.135-.095-.247-1.46-1.304-2.665-1.98-2.578-1.558-4.976-2.898-7.727-2.924zm34.458.772l1.99.304c3.74 17.19 11.95 27.872 4.927 34.25h-1.757c1.922-1.962 2.79-5.036 2.153-8.668-.65-3.71-2.567-9.595-4.156-14.77-1.842-6-3.326-11.074-3.157-11.117zm2.853.483l1.685.314c1.974 6.988 5.325 15.65 7.342 22.864 1.24 4.437.742 9.902-2.027 10.91l-1.424.023c2.352-3.14 2.687-6.413 1.613-10.644-2.204-8.684-5.54-16.262-7.187-23.468zm10.397.01c1.702 7.244 5.787 18.295 7.255 22.11 1.953 3.898 1.367 9.67-1.57 11.953l-1.39.03c1.68-1.57 2.257-4.215 1.99-6.956-.756-7.746-6.24-18.49-8.225-26.74zm-7.39.342l1.738.16c1.74 7.577 5.126 14.943 7.323 22.522.41 1.71.766 3.8.623 5.338-.3 3.225-1.636 5.768-2.81 5.768h-1.196c2.444-2.913 2.325-6.885 1.28-11.155-1.73-7.056-5.914-15.564-6.957-22.633zm-45.242.04c-.723.003-.735.666.42 1.68.71.62.655.412.614.805-.172 1.678.092 3.214.782 1.487.184-.462.454-.982.724-.918.51.158.25 1.095.497 1.57.416.835-.026 1.04-1.037.78-.728-.185-.77.21-1.222.71-.79.88-.662 1.403.556 1.13.2-.045.37.013.526.048.38.088.727.328 1.63 1.02 1.163.886 2.81 2.068 3.877 2.248 1.71.29 1.33-.53-.072-1.067-1.2-.46-2.69-1.736-2.684-2.09.004-.27.382-.11 2.545-.704.938-.26 2.258-.836 2.814-1.092.917-.423.96-.42 2.398-.377 2.448.074 2.82-.01 1.105-1.283-3.47-2.573-8.097-4.248-10.55-3.18-.746.323-.728.125-1.266-.184-.703-.403-1.276-.586-1.656-.584zm49.65.23c2.404 9.262 7.055 17.56 8.186 26.346.256 2.512-.165 4.967-2.254 7.09l-1.41.024c-.206.004 1.968-3.358 1.782-6.236.056-1.535-.113-3.182-.55-4.808-2.732-7.81-5.422-14.89-7.51-22.333zm-43.417 3.042c.013-.002.026-.002.038 0 .657.103.68.363.49.704-.284.506-.783 1.477-.783 1.477s-.665.13-.8-.038c-.24-.348.636-2.092 1.056-2.143zm1.665.3c.073-.002.163.035.304.09.63.25 1.722.76 1.25 1.154-.56.468-2.726.678-2.62.483l.723-1.338c.154-.284.222-.39.343-.39zm-6.637 8.093c-.055.004-.102.017-.14.04-.125.074.16.578.576 1.148 1.917 2.587-.737 3.354-2.617 1.97-1.785-1.388-4.54-1.257-4.142.197.14.513.003.763 1 .777.884.013 1.113.063 1.91.608 3.052 2.087 6.995-.706 5.07-3.702-.365-.565-1.264-1.06-1.657-1.038zm7.53 4.04c-1.107 0-1.807.827-.42 1.074 4.958.89 1.634 6.03-1.862 3.38-3.15-2.843-7.364-2.823-7.414-.805-.008.507.016.525.763.666 1.755.332 4.377 1.13 5.38 1.637.592.298 1.213.576 1.382.618 2.098.763 4.79-.23 5.324-1.997.487-1.618.093-4.572-3.153-4.572zm-62.173 16.537c.663.008 1.37.59 1.872 1.44 1.163 1.962 2.577 5.265 3.48 7.084.227.46.236.87.222 1.086.07 1.067.428 1.47 1.062.99.622-.473 1.486-1.263.473-1.39-1.02-.768-1.587-1.896-.956-2.583.465-.506.284-.834-.09-.855-1.43-.02-3.557-4.27-2.554-5.184 1.353-1.234 2.85.296 6.038 6.62 1.405 2.79 1.47 5.847.266 4.333-.41-.38-.327-.184-.806 1.02-.36.902-.657 1.33-2.033 2.653-1.673 1.61-2.688 2.883-2.726 3.162-.07.533.905.036 1.617-.893 1.593-1.554 1.652-1.97 1.638.092-.013 1.863-.11 2.204.226 2.19.524-.02.804-1.493 1.048-3.272.292-1.602 1.124-2.41 2.51-3.3.38-.246.387-.415.314-1.12-.256-2.264 1.03-6.484 1.617-5.44.082.234.337.783.473 1.167.11.596.484 1.268 1.057 1.313.71.533.71.82.955 2.77.08.638.363 1.593.56 2.1.368.946.697 1.5.493 1.782-.13.14-.405.4-.405.4l-11.604 6.878s-.91.504-1.24.642c-.92.416-1.478.11-1.93-.58-2.46-3.66-4.147-7.774-5.874-11.57-1.037-2.25-.022-3.74 1.318-1.925.52.706.254 1.156-.005 2.52-.048.247.18.152.612.222.678-.073 1.005.532.98 1.56-.428 1.47.164.676.444.602.536.008.655.33.956.942.187.86.566.612 1.12.043.457-.47.458-.457-.464-1.558-1.593-1.726-3.8-5.62-4.373-7.993-.158-.655-.1-1.178.02-1.526.72-1.62 1.72-1.626 2.813.637.186.386.552 1.006.81 1.38.42.61.68 1.13.667 2.096-.323.81-.375.826-.096.936.69.274 1.922 1.526 1.978 2.646.056 1.137.25 1.74 1.144 1.066 1.02-.77.586-1.08-.42-2.066-1.055-1.254-1.118-2.342-.493-3.248.102-.304.058-.39-.33-.352-1.223.118-2.414-1.433-1.563-2.612.392-.69.346-.87-.207-.888-.29-.01-.765.045-1-.087-.36-.677-1.117-1.626-1.11-2.403.357-1.09.91-1.532 1.497-1.525zm72.725.058c2.012 1.234 4.005 2.518 6.266 3.104-5.238 9.434-13.663 14.49-20.712 16.464.24 1.208.41 2.41 1.578 3.152-.04-.182-.557-2.325-.444-2.766 9.71-2.48 18.26-11.993 20.446-16.898l42.68-.464c-31.64 30.35-32.9 73.066-7.087 108.87l-2.97 1.732c-19.89-29.795-19.688-58.502-13.722-77.726 4.23-13.63 11.82-24.043 17.59-29.994 0 0-23.14-.318-34.657.106-1.672 2.56-3.23 4.65-5.478 7.066 0 0 5.852-5.65 5.7-6.632 10.674-.005 21.68-.622 32.34.12-12.473 14.93-18.622 30.34-19.688 44.837-.04 1.887-.154.833-.777 1.527l-1.97 3.055-1.578-3.176c-1.074-.347-3.184.213-4.08-.11-4.388 19.577.047 43.206 5.82 58.626 0 0-1.448.812-3.233.675-1.952-.433-2.43.106-4.122.45-1.945.37-2.624.367-3.055.858-.24.274-.673.656-1.163.922-4.74 1.722-10.3 8.177-10.3 8.085l-5.22-2.34c4.81-9.442 10.452-12.84 20.37-17.03l-.92-4.218c-10.566 3.935-17.29 8.646-22.59 17.8-6.434-.09-32.492-.274-32.52-.192 10.63-12.087 19.01-30.318 19.926-44.532.225-2.77-.163-1.438 1.062-2.264l1.926-2.293 1.512 2.26s1.094 1.392 1.786.23c1.938-19.82-.113-42.423-9.664-58.177 1.695-.112 3.383-.16 5.006.8 3.735 8.46 5.937 18.912 6.892 26.747 1.21 9.915 1.04 21.1-.193 30.597l.636.087c1.862-12.343 1.23-25.47-.477-36.945-.878-5.986-3.702-15.347-5.644-19.67-.536-1.193-.953-1.502-.444-1.68 11.64-.978 16.99-4.862 21.17-11.062zm-32.272 1.043c.89 0 1.612.722 1.612 1.612 0 .89-.72 1.612-1.612 1.612-.89 0-1.612-.722-1.612-1.612 0-.89.722-1.612 1.612-1.612zm87.482.82c-3.408 3.085-6.146 6.28-9.022 9.688 8.512 11.706 17.97 24.394 25.925 34.532 0 0 2.753-1.63 2.742-1.834-.006-.107-.22-.646-.27-.526-.12.28-2.23 1.462-2.23 1.462L420.395 477s1.364-1.634 1.786-2.15c1.957-.642 7.4-7.382 7.666-7.244 4.264 3.267 17.124 17.114 22.077 21.36l.063 38.435c-.512 1.54-14.223 7.465-23.907 29.575-4.87 2.728-10.266 4.196-15.283 6.57 0 0 1.277 2.007 1.902 2.557-.768-1.656-.903-1.972.834-2.678l36.235-14.77-.07 2.982-.587 5.15c-9.862 6.082-18.184 8.63-31.756 17.802-.97.226-1.75 1.156-2.77 1.207-34.672-51.06-12.508-89.53 7.698-108.86zm-112.905 2.612c.946.015.707 2.21.358 2.968-.7.55-1.396.06-1.38-.965.003-.335-.062-.65-.146-.705-.525-.335.352-1.31 1.167-1.298zm21.176 1.37c.796.605 1.09 1.41 1.385 2.216-1.075-.168-3.95-.993-2.602-1.635zm-5.237 2.853c25.006 37.818 23.887 77.983-4.02 108.43l35.307-.053c4.494-8.87 11.98-14.274 21.56-17.604l.837 2.786c-11.01 3.535-16.58 9.394-21.012 17.512h-42.11c16.18-17.407 23.59-32.112 24.758-52.004 1.11-18.944-3.71-36.246-18.347-57.063zm7.047.434l5.898 2.786-.873 6.052-6.178-2.847zm-10.634 1.7c31.537 47.707 18.01 81.264-7.17 109.192l-4.637.077-10.812-10.043.2 61.035s-10.543 10.327-11.755 11.565c-1.196 1.152-2.095-.618-2.095-.618l.03-80.913.468-3.17.144-17.436 6.72-3.542 25.195 33.025s-1.012 1.492-1.48 1.757c-.307.173-.083.468.172.435.707-.093 2.726-2.35 2.302-2.713-9.14-11.323-26.133-33.493-26.133-33.493l-7.077 3.69s.205-14.473.077-20.03c.272-1.31 1.255-.96 1.917-1.545 8.148-5.237 13.89-11.63 17.434-17.83.262-.463 1.83-3.247 1.985-3.5.553-.9 1.924-3.717 2.722-5.516.447-1.007.92-2.225 1.1-2.37 4.904-1.598 10.05-3.864 14.974-5.9l-7.09-10.643zm-19.327.608c-.266-.004-.943.303-1.86 1.134-1.69 1.533-3.916 4.053-3.923 4.532.453.164.855-.097 1.216-.463 1.414-2.087 3.6-2.903 4.88-4.73.2-.338-.01-.478-.313-.473zm15.885 2.215s4.892 7.128 6.144 9.022c-12.893 5.105-26.384 11.847-38.334 16.208v-2.857l1.887-5.13zm19.182 4.71l4.822 2.492-1.362 5.44-4.865-2.723zm3.977 9.052l3.963 2.886-1.81 4.614-3.992-2.746zm-32.335 3.383s-.61 2.14-1.636 4.055c-4.904 8.52-9.703 16.092-19.617 22.666-.378-.334-1.458-2.224-1.458-2.224l-.097-2.524c5.256-4.222 9.792-7.322 16.754-19.713l2.017-.822 1.718.744 1.163-2.076zm20.625.02c-4.57 9.692-9.065 19.69-16.344 27.242l19.92 27.807c6.555-19.634 4.122-38.035-3.576-55.05zm-25.066 2.114l-.954 1.655 1.655.955.957-1.656zm-2.702.178c-3.61 8.07-9.026 14.278-16.136 18.743l-.275-11.84zm1.27 2.41l-.956 1.654 1.656.956.955-1.656zm40.714.346l3.59 3.408-2.132 3.76-3.683-3.046zm55.016 1.675c-.004.002-.007.006-.01.01-6.31 19.616-4.416 38.354 4.243 54.664 4.25-10.573 7.737-17.648 16.03-28.903-5.106-6.688-19.75-25.983-20.262-25.77zm-97.14.314l-1.004 1.627 1.627 1.004 1.005-1.627zm27.537 2.288c5.69 13.6 5.188 25.863 2.163 36.49l-14.21-17.95c5.206-6.462 8.663-12.58 12.047-18.54zm-29.004.048l-1.075 1.578 1.578 1.083 1.076-1.584zm-1.587 2.26l-1.178 1.51 1.506 1.178 1.18-1.51zm46.815 1.606l3.22 3.055-2.032 3.963-3.268-2.988zm-48.673.743l-1.236 1.453 1.452 1.235 1.235-1.452zm103.796.43l14.336 18.496c-4.795 5.706-8.78 12.43-12.342 19.678-3.994-12.516-5.797-24.813-1.993-38.176zm-105.808 1.872l-1.323 1.38 1.38 1.323 1.322-1.38zm33.488 1.85l-6.56 9.483 7.52 9.6c.81-5.196.992-11.23-.96-19.084zm-35.627.308l-1.41 1.293 1.295 1.41 1.41-1.294zm-2.07 1.848l-1.487 1.208 1.207 1.487 1.482-1.207zm56.025.98l2.693 3.148-2.73 3.24-2.56-2.878zm34.24.566l1.83.068c-3 29.593 2.897 44.567 8.114 57.588 0 0-.012.522-.188.676-.85.293-2.57.61-3.948-.603-7.02-18.04-8.55-40.265-5.807-57.73zm-92.674.38l-1.55 1.12 1.12 1.55 1.55-1.12zm114.657 1.054c-.465 0-.87 12.175.884 18.12l6.598-8.94zm-17.057 2.007l2.205 2.964-2.34 3.192-2.395-3.022zm-99.39.807c.11-.018.293.29.647.535.33.344.282.318-.087.612-.577.46-.75.386-.738-.333.05-.592.092-.803.178-.816zm60.355 2.225l2.438 3.49-2.7 3.47-2.306-3.655zm38.84 4.42l2.57 3.128-2.206 3.432-2.805-3.278zm59.458.66l.227 3.607-.888-1.318-1.63 1.25 1.138 1.51 1.424-1.11.086 1.453c-9.043 6.536-12.944 14.043-16.613 19.674l-1.632.69-1.858-.59-.908 1.61-1.578.37c-.048-.01 3.17-6.9 8.674-13.915 4.902-6.246 13.533-13.288 13.558-13.23zm1.048 5.644l.077 12.82-16.184 6.252c4.2-7.157 9.154-13.8 16.108-19.072zm-4.02-1.56l-1.478 1.212 1.274 1.463 1.472-1.213zm-2.274 1.932l-1.424 1.27 1.327 1.413 1.424-1.28zm-54.046.71l3.05 3.248-2.235 3.837-3.177-3.045zm51.748 1.365l-1.337 1.367 1.462 1.405 1.338-1.366zm-2.105 2.16l-1.283 1.418 1.554 1.346 1.284-1.42zm-2.114 2.417l-1.192 1.496 1.618 1.25 1.192-1.5zm-46.482 2.298l3.814 2.476-1.863 4.538-3.807-2.9zm44.64.02l-1.12 1.553 1.723 1.178 1.134-1.608zm-1.724 2.45l-1.037 1.608 1.74 1.12 1.034-1.66zm-1.54 2.43l-.955 1.654 1.806 1.027.956-1.674zm-1.39 2.51l-.955 1.654 2 .863.79-1.578zm-37.92 1.022l3.906 2.645-1.728 4.755-4.122-2.916zm56.624 4.677l.193 97.83-42.992.15s-2.01-3.537-6.216-11.71c-1.78-3.46-3.287-4.93-3.442-7.67.16-1.61-.582-3.435-1.9-4.17-.444-.247-1.185.05-.938-.637.273-.758-.563-1.925-.79-2.172-.26-.44-.1-.546-.127-2.177-.026-1.577-.11-2.237-.45-3.427-.853-3.008-1.043-4.51-.554-6.07 1.27-3.96 2.594-6.994 4.306-10.683.994-2.16.842-3.003-2.212-4.57-2.287-1.175-2.59-1.163-2.302-2.878.135-.805.26-1.31.09-1.7-.102-.237-.48-.568-.703-.758-.3-.255-.21-.78.096-1.173.3-.385.3-.934.004-1.85-.625-1.925.79-4.477 3.46-6.24 1.182-.78 1.15-.618 2.38.675 3.6 3.78 8.95 1.406 8.96-3.924.002-1.66-.564-1.56 1.008-2.345 5.325-3.39 16.256-9.552 16.184-9.383.712 1.45.95 2.69 1.4 4.252.39 1.34.338 1.442.193 4.05-.132 2.357-.203 2.904.35 3.055 3.156.346 3.876-.77 4.48-2.805.262-.9.765-.717 1.077-.338 1.2 2.185 2.72 4.456 3.717 6.01 1.246 1.982 3.346 2.968 4.445 2.032.23-.772.42-.796 1.814-.48 1.69.385 2.652-.562 2.814-1.805.065-.495-.296-.475.608-.965 2.244-1.66 1.39-3.93 1.053-5.295.028.072.958-.565.978-1.844.108-6.638-5.646-16.198-5.517-15.95zm-54.282 3.823l4.566 2.206-1.076 5.454-4.692-2.11zm44.43 2.027c2.63 3.05 4.532 8.133 5.513 11.445.485 1.648.544 3.53.112 3.793-.427.258-.626-.02-.545-1.004.067-.823.09-1.46-.26-1.45-1.02.264-1.06-1.282-.957-1.645.07-.243.196-.414.25-.546.253-.6-.404-.52-1.085-.527-.602.015-.757-.35-.73-.922-.016-.632-.854-.508-1.33-.028-.437.44-.345.956.245 1.318.848.52 1.65 1.796 3.625 6.198 1.147 2.555.807 4.37-.56 4.348-.947-.028-2.052-2.624-2.944-4.537-.23-.495.348-1.047.55-1.314.526-.688.446-.905-.332-.917-.728-.01-1.038.053-1.477-.845-.164-.34-.284-.855-.226-1.183.376-.99-.395-1.23-1.144-.85-.943.394-.936 1.235.502 2.612.927 1.52.685 1.414-.193 2.437-.184.363-.074.585.313.59 1.113-.34 2.325 1.664 1.994 2.35-.34.296-1.273 1.365-.372 1.16 1.832-.5 2.947 2.184 1.868 3.093-1.61.808-1.99.555-4.47-4.397-.77-1.538-1.696-3.19-1.81-3.36-.114-.17-.164-.623-.16-.99.11-.895-.273-1.098-1.05-.742-.586.14-1.113.62-.373 1.076.864 1.49 1.17 1.73.695 2.11-1.08.86-.612.825.6 1.066.59.178.893.484 1.056.85.626 1.404 1.735 3.385 1.844 3.79.367 1.03-.295 1.49-1.2 1.447-.95.023-1.384-.727-1.845-1.366-1.726-2.396-2.967-4.77-4.727-7.49l.237-2.545s.46.1.72-.024c.505-.244.806-1.038 1.095-2.095.462-.92 3.193-3.01 4.238-4.132.193-.126.355-.335.357-.462-.007-.412-1.185-.137-1.96.753-1.14 1.012-1.624.665-1.588-.627-.112-1.595-1.085-.795-1.134.763-.125 1.23-.553 1.98-1.414 2.67-1.626 1.3-1.355.97-1.28 2.775.132 3.148-1.083 5.737-1.877 4.02-.282-.608-.613-1.3-1.323-1.33-.502-.023-.75-.516-1.028-1.734-.41-1.97-.986-3.24-1.51-5.053zm-40.472 6.782l5.26 2.095-.984 5.503-5.212-1.993zm40.116.507c-.036.002-.077.01-.12.03-1.483 1.12-2.85 2.375-4.466 3.34-.606.357-1.313 1.282-1.318 1.53-.004.24.72.234 1.424-.073.67-.292 4.485-3.875 4.49-4.205.262-.29.237-.638-.01-.622zm-48.312 6.68c1.244-.003.518.366-2.196 2.25-2.65 1.838-7.018 7.65-7.525 9.808-.232.98.39 1.056 1.09-.29 3.217-6.184 9.304-11.835 14.876-11.583 2.73.123 4.204.86 1.945 1.182-6.193.76-10.823 4.292-14.875 11.332-.003.158.367.15.79-.12 3.71-4.535 7.89-10.54 15.23-10.054 5.295.318 6.8 6.616 2.404 8.765-3.833 1.874-7.367-2.69-4.19-5.396 1.03-.88 1.675-.494.685.405-2.126 1.93.48 5.363 3.07 4.06 1.575-.66 2.214-2.917.825-4.62-3.09-3.788-9.746-.908-14.384 5.213-.486.644-.908 2.043-.497 1.892.72-.296 1.153-.86 1.577-1.496 1.656-2.295 2.928-3.447 5.17-4.68 1.73-.955 1.838-.776 1.192.877-.274.697-.492.928-1.164 1.362-2.825 1.927-4.58 4.51-4.65 6.158-.05 1.202.83 2.772-.124 3.094-1.618.764-6.03.14-7.22-1.38-.858-1.095-1.19-.46-.547 1.317.425 1.173.407 1.837 1.048 1.717.81-.43 1.367-.328 2.94.53.757.415 2.1.802 2.92.99 1.492.345 1.804.2 1.77.845-.01.198.06.755.016 1.106-.244 1.945 1.38 2.607 3.595 3.885 1.293.747.783 1.516-.715 5.218-.778 1.676-1.443 3.93-2.404 5.63-.897 1.91-.974 4-.395 6.385 1.074 4.424 1.848 6.673-.067 7.07-4.927.747-15.81.716-21.75-1.567-1.52-11.404-9.57-28.323-8.538-32.697 2.06 3.108 10.702 2.286 8.1-6.4 0 0 .707-1.06 2.113-2.485 3.627-3.68 4.522-4.288 2.8-1.048-1.324 2.49-3.013 5.742-3.05 6.372-.03.5.36.617.665.216.227-.298.495-1.02.73-1.57 2.16-5.06 5.856-9.62 8.403-10.72.656-.282.622.02.17.575-2.998 3.73-5.286 7.177-6.913 11.677-.073.464.586.658.796.217 2.81-5.89 3.65-7.227 7.104-11.376 1.358-1.632 2.62-2.455 3.63-2.366.873.078.614.22-.193 1.082-.616.657-1.527 1.57-3 3.427-2.6 3.272-5.217 8.596-4.254 8.317.166.443.986-.97 1.68-2.32 1.9-3.192 3.918-7.407 8.43-10.18.944-.39 1.974-.614 2.884-.624zm-87.28 1.028l8.038 8.033 16.165-.207c-2.666 4.142-1.242 10.563.227 14.316 2.88 7.356 7.1 19.502 6.79 19.68 0 0-2.35.603-2.562 2.094-.315 2.21.643 2.045-.738 4.04-.31.448-.11 1.296.222 1.97.22.493.428 1.236.02 1.814l-14.26 25.437-27.06.13V650.2l13.55-13.718-.164-10.093c7.39 2.196 9.928 9.82 10.56 15.47 13.35-12.182 13.02-30.522.407-42.028-2.46 12.16-11.266 14.688-11.073 14.447zm100.53 1.444c.864.063 2.03.202 2.823.628-.536.32-.917.703-1.274 1.096-.434-.77-1.017-1.188-1.55-1.724zm22.406.087c.72 0 1.603 2.105 1.095 2.598-.285.278-1.212.383-1.543.174-.425-.315-.208-2.768.45-2.77zm-25.496 3.655c.928 0 1.68.752 1.68 1.68 0 .928-.752 1.68-1.68 1.68-.927 0-1.68-.752-1.68-1.68 0-.928.753-1.68 1.68-1.68zm-71.094 2.394l1.212.028c-2.203 2.945-2.5 5.48-1.72 9.152.88 4.133 7.576 19.668 8.01 23.946.02.193.038.738.038.738l-1.646.11s-.123-.44-.174-.612c-2.303-7.745-4.596-13.652-6.198-18.168-1.596-4.87-4.04-12.088.478-15.195zm8.853.028c.01 0 .02.002.028.005l1.163.01c-.042.025-1.736 3.657-1.858 5.86-.138 2.497.466 5.216 1.294 7.9 1.955 5.81 4.815 12.277 6.405 19.608l.194.797-1.723-.232s-.168-.75-.187-.854c-1.19-6.447-4.508-13.143-6.487-19.49-1.014-2.885-1.72-6.43-1.357-9.142.255-1.912 2.174-4.422 2.53-4.46zm14.07.015c-1.233 1.908-2.355 4.298-2.434 6.173-.07 3.488.945 6.433 1.96 9.514 3.124 9.487 4.64 14.493 6.202 22.102l-1.66-.71s-.065-.427-.102-.55c-.887-4.764-.943-4.35-6.154-20.374-1.22-3.846-2.385-7.22-2.157-10.42.05-1.825 1.643-5.437 3.32-5.726zm1.992 0h1.55s-.854.903-1.1 1.24c-2.707 3.754-1.924 7.782-.58 12.584 1.85 6.607 5.268 13.996 7.057 24.066.032.187 0 1.16 0 1.16l-1.845-.744c-1.675-9.235-5.81-18.81-7.8-27.114-1.172-4.876-.838-7.958 1.868-10.614.678-.524.85-.58.85-.58zm-18.906.053h1.158s-1.937 3.18-1.936 5.054c-.323 3.352.89 7.056 2.284 10.937 2.14 5.966 4.97 13.18 5.84 16.976.034.15.15.83.15.83l-2.023-.106s-.107-.92-.228-1.342c-2.334-8.165-4.607-13.446-7.288-20.9-.406-1.128-1.054-5.59-.29-8.48.6-2.27 2.332-2.97 2.332-2.97zm-3.104.005l1.25.034s-.188.34-.666 1.16c-2.28 4.13-1.26 7.9.154 12.1 1.886 5.605 4.847 12.45 6.695 18.926.104.365.246 1.467.246 1.467l-1.804-.024s-.367-1.32-.39-1.463c-1.016-6.003-6.504-16.01-7.93-23.627-.784-4.085-.11-6.616 2.446-8.572zm16.744 0s-1.972 3.42-2.153 5.325c-.353 3.734.832 6.826 2.187 11.04 2.338 7.266 5.638 15.794 5.932 19.692.01.13.058.603.058.603l-2.032-.724s-.09-.406-.13-.55c-1.772-7.053-3.866-14.078-6.68-21.996-.695-2.67-1.606-5.36-1.526-7.655.412-3.066.934-3.894 2.76-5.71zm8.94.005l1.636.034s-.49.26-1.656 1.505c-6.455 5.9 4.018 22.553 6.434 37.717.027.163.102.734.102.734l-1.8-.647c-.17-.756-.3-1.676-.508-2.5-1.957-7.753-4.568-15.723-6.965-22.953-1.345-5.268-1.837-9.908.58-12.5.755-.898 2.175-1.392 2.175-1.392zm-16.832.01l1.743.048c-1.26 1.58-1.998 4.04-2.066 6.227-.066 2.588.626 5.104 1.478 7.766 1.747 5.46 4.243 11.395 5.956 18.762.097.488.178.8.222 1.014.07.337.266.873.266.873l-1.84-.366s-.19-.48-.313-.73c-.187-.377-.357-.858-.508-1.434-.89-3.843-4.168-12.564-6.164-18.68-1.582-3.854-2.014-10.59 1.226-13.48zm21.755.068c2.228-.082 4.243 1.81 4.72 3.586.462 1.886-.13 4.015-2.206 5.067-3.367 1.705-6.992-2.83-4.335-5.33 2.013-1.89 4.992-.49 4.343 1.932-.418 1.576-2.81 1.678-3.205.086-.108-.53-.374-1.06-.565-.768-1.238 2.908 2.925 4.27 4.654 1.564 1.025-2.168-.927-4.962-3.8-4.43-3.937.727-4.39 5.725-2.755 11.555 2.28 9.214 7.723 21.607 7.713 27.295 0 .075.02.31.02.31l-1.73-.517s-.01-.096-.023-.18c-1.036-7.944-6.938-21.097-8.63-31.21-.734-4.61 1.062-7.956 5.102-8.87.233-.054.464-.084.695-.092zm-17.088.072c-1.212 1.62-2.004 4.054-2.042 5.792-.037 2.546.877 5.024 1.632 7.675 1.91 6.545 6.37 18.632 6.207 20.895.045.243.168.995.168.995l-1.723-.512s-.07-.11-.198-.42c-.575-2.247-3.307-11.873-6.367-20.196-1.177-3.346-1.75-5.953-1.67-8.17.25-3.062 1.125-4.34 2.467-6.045zm32.813 10.85c-4.467.255-4.037 5.7-1.27 6.623.99.273 1.57.037 1.728-.178.18-.246-.02-.62-.67-.715-1.88-.616-2.55-2.827-.854-3.754.925-.484 2.404-.172 4.188 1.15 3.186 2.36 7.093 2.507 6.583.12-.122-.58-.372-.658-2.707-.976-1.895-.258-2.75-.857-3.576-1.303-1.303-.7-2.45-.993-3.422-.964zm-63.946 5.064c11.538 11.268 9.828 28.93-.03 37.774-.203-.714-.634-2.463-.68-2.414 7.413-7.713 10.905-20.36.173-33.32.056.05.24-.935.536-2.04zm72.32.298c-.11.003-.205.015-.29.044-2.99.817-3.608 3.77-1.67 4.986 1.187.745 2.1.288.622-.613-1.267-.773-.642-2.803.893-2.78.67.01 1.128.3 2.833 1.56 1.404 1.034 2.727 1.116 3.027-.286.18-.838-.1-1.21-.995-.99-.395.096-.627-.135-1.163-.507-1.192-.828-2.495-1.43-3.258-1.415zm-73.513 2.21c10.4 12.074 7.062 24.665.048 32.042-1.926-5.683-6.647-9.23-6.647-9.23 1.78-3.946 2.84-8.068-.487-13.273 3.096-2.797 5.66-5.87 7.087-9.538zm67.58 4.408c-.488-.01-.33.462.82 1.265 2.742 1.865 2.976 2.202.32 2.158-.674-.04-1.73.438-2.327.637-3.47 1.157-3.636 1.065-5.295.676-.554-.128-1.114-.36-1.357-.14-.375.343-.795.568-.323 1.078.344.37.984.654 1.762 1.1 4.027 2.307 4.392 2.86 9.127 2.983.542.015.82-.266 1.14-.27.772-.008 1.177.18 1.96.894 1.43 1.305 1.497.356.646-1.357-.447-.898-.837-1.112-.618-1.795.5-1.558-.212-1.868-1.144-.488-.7 1.08-.778 1.056-1.438-.333-.877-1.733-.465-2.533.864-1.403 1.006.856 1.263.22 1.655-.46.514-.89.436-1.69-.484-1.62-.528.04-1.023-.204-1.438-.657-.814-.888-2.375-2.003-3.87-2.264zm1.14 4.692c.108.006.184.05.22.164.01.57-.382 1.738-.704 2.35-.102.273-.28.307-.526.358-.83.153-.888-.104-.738-.618.303-.794.555-1.924 1.625-2.25.045-.004.085-.006.12-.004zm-2.11.396c.336-.025.347.115.212.42-.24.514-.662 1-.976 1.404-.665.43-1.748-.885-1.27-1.226.67-.264 1.172-.536 1.87-.58.06-.01.115-.015.163-.018zm-74.512.86c.18 0 .362.034.55.115 2.517 3.396 2.346 8.568.39 11.428-.144.214-.293.253-.54.17-.84-.5-1.91-.683-2.707-.97v-9.95c.822-.173 1.53-.797 2.307-.795zm66.33.81c-.192.008-.272.14-.03.39 3.672 2.656 8.722 5.735 13.38 4.543.43-.093.774-.327.692-.768-.052-.276-.525-.513-1.038-.377-1.07.282-3.118.318-3.96.183-3.203-.526-6.033-2.575-8.494-3.774-.183-.14-.4-.205-.55-.198zm-1.07 2.534c-.165-.008-.153.156-.05.463.517 1.54 5.71 5.124 9.813 6.31 3.523 1.017 8.582.017 8.288-1.656-.153-.872-.794-1.08-3.04-.796-4.95.96-9.713-1.062-13.328-3.312-.974-.613-1.473-1-1.684-1.008zm-32.41 2.104c2.163-.026 4.306.15 6.624.536 4.508.77 9.734 2.166 14.156 4.214 7.514 2.82 16.962 4.996 24.98 4.7 1.956.055 5.492-.11 6.177-.337 1.787-.4 2.28-.02 2.708 2.196.076.484.225.624.846 1.044.95.643.79 1.28.675 2.698-.096 1.195.626 1.865 3.52 7.207 3.294 6.078 6.507 13.142 6.507 13.142-28.873-.02-56.42-1.09-85.96-.174 2.656-6.3 9.9-17.66 14.44-26.777-1.098-2.805.258-3.282-.31-3.947-.92-1.56-.257-3.747 1.686-4.24 1.354-.156 2.657-.245 3.953-.26z" fill="#131f67"/><path d="M321.893 655.465s9.46-19.128 13.448-24.86c5.737-7.27 31.625 3.16 44.5 5.767 5.233 1.01 17.363.536 17.363.536l10.14 18.275zm-19.647-21.734l-.4-59.546 2.96 1.85.68 59.812-12.804 12.26-.07-3.592zm7.75-6.794c3.05-6.138-.355-13.633-.355-13.63 1.77.436 6.7-8.918 7.138-8.648 7.544 9.25 8.85 23.037-.366 31.58-2.327-5.938-6.387-9.302-6.416-9.302zm5.63-42.114c5.733-5.858 10.28-10.42 14.822-16.977.372-.533-24.185-31.724-23.803-32.27 3.788-4.187 8.866-7.263 12.817-12.32 0 0 20.14 26.363 20.602 26.132 2.04-8.25 3.535-15.72 3.145-24.343-1.243-22.063-10.672-35.57-10.745-35.304-3.188 20.27-34.52 50.975-40.69 48.787l-.035-14.166c.373.71 19.85-12.53 24.986-30.03.37-1.256 15.482-6.093 15.377-6.278-.64-1.642-7.25-10.995-7.25-10.995s2.67-1.244 2.966-1.24c8.57 10.656 15.037 24.695 17.237 38.063 2.67 14.398 4.396 41.466-24.476 71.028zm86.556-37.25c-4.518-14.022-4.394-28.54-2.317-38.677 3.17-18.367 14.778-31.52 24.09-41.548l4.038.002-6.586 6.814c-3.016 3.46-7.384 10.676-7.384 10.676l24.095 31.495 13.734-2.97s-.414 14.09.012 14.09c-10.674 8.835-18.345 16.832-23.852 29.704-3.375 1.247-14.564 6.07-14.564 6.07-5.32-1.3 15.828-34.453 11.806-35.015-1.657-1.366-20-26.11-20.357-26.06-8.455 25.888-.207 53.074 14.67 72.06-1.69 1.095-3.218 1.947-3.078 1.69-6.373-8.84-11.956-19.393-14.308-28.333zm-44.018-12.98c.954 1.477 5.24-31.592-6.026-58.062 1.072-.813 10.366-2.59 10.366-2.59l2.502 7.925-6.34 2.684 1.17 3.715c4.922-2.388 15.582-5.913 22.14-16.804 0 0 31.86-.273 32.537-.216.66.055-6.498 6.916-13.288 20.804-3.1 6.344-5.568 14.552-6.082 24.182-.102 1.903-7.29-8.947-7.29-8.947 1.792-9.167 6.583-18.19 11.358-27.216 0 0-7.325-.416-12.444-.267-7.96 8.7-12.95 13.283-24.95 17.437 4.375 14.02 31.147 20.76 25.193 19.477-1.217-.286-2.76 12.89-1.47 27.734.248 11.87 6.635 31.658 6.86 31.5 0 0-4.257.957-4.6.275.72-.173-6.333 1.612-6.333 1.612l-2.522-7.375 6.825-3.14-1.104-4.162c-.027.002-15.06 4.55-22.422 17.662l-32.928.038c12.7-13.78 17.878-27.408 20.636-45.426 2.695.483 8.212-.84 8.212-.84zm80.98-118.96c4.142-3.465 12.45-12.487 12.45-12.487l.11 4.623-9.43 9.807.094 60.552-3.19-3.058zm-4.357 22.162c-1.7.81-5.084 4.79-6.697 9.26-10.926-9.76-6.427-27.7-.446-31.433 1.736 3.918 6.76 9.11 6.645 9-1.156 4.103-2.04 8.263.497 13.174zm-96.735-40.65l84.263.148c-4.806 9.464-9.216 17.114-14.325 26.43-2.658 3.207-60.2-10.354-60.47-9.003z" fill="#e2cf00"/><path d="M456.813 671.9v-2.78h2.768l6.61-10.033-6.848-15.832h-2.67v-3.113h9.933v3.113h-3.5l5.217 12.345 3.476-4.95-.078-7.395h-2.44v-3.113h9.066v3.113h-3.24l.16 25.864h2.746v2.78h-8.61v-2.78h2.37l-.232-12.163-7.913 12.162h2.8v2.78zm-31.544-18.042c-5.522-10.755-12.612-20.503-20.744-28.925 8.097-8.84 14.848-18 20.617-28.006 5.943 9.96 12.472 19.362 21.592 28.455-9.04 8.898-15.828 18.605-21.466 28.476zM292.502 643.41l-.562-79.506 9.58 9.304.568 61.058zm165.924-22.106c3.488-3.696 6.657-7.795 9.272-12.22 3.29 4.873 6.778 9.858 9.664 12.343-3.275 3.727-6.37 8.05-9.356 12.5-2.6-4.15-5.423-8.336-9.58-12.623zm-121.974 6.7c-1.983.302-.86-1.533-.498-3.277.202-.972-.74-1.887-.735-2.183.026-1.726 1.32-2.455 7.178-2.387 13.813.96 20.954 5.38 28.878 7.436 7.588 1.97 15.11 1.93 23.483 1.736.61.353 2.856 6.134 2.44 6.712-18.942 3.733-43.113-10.173-60.747-8.038zm34.138-41.17c-1.994-1.446-3.867-1.714-5.72-2.028 3.25-5.714 7.184-10.92 13.754-14.18l3.057 7.565c-3.863 1.988-7.656 4.353-11.09 8.644zM330.69 567.19s-2.835 4.635-5.51 6.89c-7.956-10.666-25.743-33.375-25.743-33.375l-7.548 3.822s-.03-4.397.14-4.704c20.388-10.505 34.376-30.36 40.536-48.952 0 0 3.282 3.35 2.85 4.767-5.512 14.666-14.938 29.373-28.8 40.403zm25.426-21.636l25.737.037 1.14 8.948c-9.855 3.302-17.988 10.048-25.593 17.85l-12.207-.212c4.002-8.77 9.562-17.664 10.924-26.622zM451.4 507.86c.832 2.524-.006 5.245.313 5.13-30.828 15.246-39.637 48.71-39.637 48.71s-2.927-4.635-2.793-5.35c15.956-35.466 26.63-36.522 28.682-40.373l-24.268-31.407 5.49-7.466 26.03 33.872c2.587-1.192 4.06-2.19 6.182-3.115zm-15.2 45.882c5.227-9.402 10.62-14.867 15.992-18.626l-.26 12.407zm-144.127-36.9l.134-12.037 15.88-6.833c-4.39 9.57-10.35 14.7-16.014 18.87zm70.744-10.822l-.94-8.467c9.64-4.204 18.157-9.828 25.032-17.525 7.385-.354 12.43.146 12.39.046.013-.015-7.026 10.308-11.686 26.56zm79.867-88.934l8.774-8.866.277 79.12-8.814-8.387zM365.57 481.51l-2.785-7.844c4.38-1.64 7.695-5.216 10.783-8.756 2.094 1.875 4.796 2.534 5.734 2.895 1.284.3-8.878 12.5-13.733 13.706zm-67.87-54.174c9.396-9.17 15.502-18.842 21.404-28.458 5.176 10.58 12.67 19.837 20.7 28.785-8.278 9-14.57 18.637-20.61 28.338-5.936-10.224-12.186-19.81-21.495-28.664zm-21.663 15.803c-2.708-4.326-5.437-8.49-9.37-12.666 3.83-4.098 7.08-8.16 9.265-12.154 3.014 4.387 5.877 8.97 9.576 12.474-3.603 3.966-6.5 8.17-9.47 12.345zm73.082-21.036s-1.096-.634-.976-1.527c.363-1.157-1.17-3.775-1.17-3.775 18.686-5.67 45.895 10.284 62.044 6.928-.135 1.128.05 2.473-.407 3.536.51 2.26.87 2.332-1.337 3.712-11.346 3.21-23.303-3.635-34.385-6.907-9.04-2.847-16.384-2.12-23.77-1.966zm-83.372-9.926v-3.38h3.172v-25.402h-3.172v-2.933h8.797v2.933h-2.294l.213 12.214 7.98-12.214h-3.11l.035-2.933h9.955v2.933h-2.84l-6.353 10.05 6.354 15.352h2.84v3.38h-9.953v-3.167l3.734-.057-5.29-11.958-3.563 4.907v6.955h2.595v3.32z" fill="#d40000"/><path d="M337.088 396.03l3.413 6.426-.59.4c.93 1.55 1.72 3.29 2.67 4.826l.686-.08c1.12 2.15 1.575 2.944 3.042 5.49l-.662-.004c.34 1.132 1.215 1.883 1.233 2.695.008 1.01-.252 2.036.37 2.72.734.81.822 1.034.67 1.508-.4 1.262.742 2.657 1.9 2.532 8.17-1.09 16.494-.165 24.815 2.35 5.984 1.886 11.296 4 16.326 5.486 1.586.474 4.79 1.22 7.55 1.422 7.652.56 11.946-.998 10.657-4.18-.102-.255-.332-.442-.352-.573-.037-.242 0-.504.434-.86 1.255-1.282.554-2.216-.212-3.635 0 0 9.827-17.554 14.735-26.3zm85.082 1.576l-7.172 12.382c-3.834-.695-4.735 2.53-4.793 2.983-4.98-1.276-4.214 5.18-1.717 5.617.162.936-4.092 2.1-6.334-.094 3.445.46 4.665-4.097.457-5.11 5.55-4.124-4.86-10.3-4.984-1.767-4.894-.862-4.258 5.605-1.153 6.108-1.588 1.75-6.257 1.8-8.698-1.89 4.15 2.155 6.398-3.41 2.085-4.968 5.323-4.667-5.1-8.97-4.856-1.428-3.928-2.328-6.63 3.607-1.385 4.518-.3 1.068-7.168 1.076-8.91-1.685 4.868 1.112 5.093-4.816.795-5.3 4.314-5.473-6.636-8.242-4.798-.77-4.23-1.674-5.828 3.6-1.71 5.294.23.84-6.67 1.553-9.085-1.475 5.303-.796 3.447-5.936.012-5.525 0 0 .05-.148.243-.648 1.622-5.16-7.098-5.59-5.89-.12.193.504.407 1.175.407 1.175-2.404-.49-3.873.49-3.7 2.745.6 2.995 2.18 2.773 4.205 2.177.848.887-4.883 3.852-8.48 1.204 4.405-1.266 2.173-6.43-1.514-5.733-.153-1.648-1.944-3.96-4.28-2.832l-2.47-4.86zm7.207 68.788l-5.177.076c-3.636 3.712-29.967 27.967-25.533 64.603 1.897 15.67 6.273 29.227 17.972 45.243l3.126-1.835.478.32 32.42-18.65.018-5.663-37.634 15.788c-.746-.794-1.185-1.68-1.814-2.66l15.08-6.408s.363-.916.48-1.338c4.957-12.545 15.03-21.626 23.798-28.642-.046-12.35-.104-38.207-.104-38.207l-22.675-22.58c-2.907 2.658-5.486 5.392-8.065 8.36l26.033 34.266-2.306 1.502-25.76-34.09c3.05-3.668 6.363-6.866 9.663-10.084zm23.13 22.28s-.126-58.833-.298-87.242l-13.51 13.86.05 59.635zm-1.15-81.64l-9.546 9.848.108 60.616-2.453-2.42v-58.983L451.39 403.6zm-92.898-1.46c.284.503.16 1.2-.298 1.77-1.952 2.42 4.18 6.63 8.592 5.897 3.358-.555 6.22-2.572 4.986-4.106-1.006-1.25-.35-2.514.86-2.506 1.242.01 2.24.997 1.163 2.35-2.396 3.012 1.257 6.546 6.844 6.62 3.95.05 5.267-.923 5.054-3.737-.1-1.317.16-1.682 1.077-1.882 1.465-.32 2.204 1.36.99 2.64-2.624 2.766.357 6.834 5.32 7.096 1.814.096 2.173 0 4.198-1.144 1.583-.894 2.142-2.243 1.366-3.292-.997-1.35.35-2.962 1.903-2.297 1.11.475 1.658 1.327.43 2.77-1.615 1.898-.85 3.463 2.258 4.52 2.423.82 4.1.72 5.234-.315.352-.322 1.137-.994 1.126-.788-.762 1.316-1.437 2.537-1.437 2.537-5.073 2.263-9.032-1.972-8.902-2.13-5.224 3.015-9.858 2.38-13.773-2.686-1.018.564-8.307 1.892-13.568-3.882-5.31 2.663-10.246 1.546-14.632-1.433-3.24 3.06-6.658 3.544-10.207 2.074l-1.05-2.115c.264-.1 1.41 2.12 6.964 1.087 1.865-.35 5.075-3.484 3.278-5.012-.823-1.164-.848-1.688-.12-2.394.714-.695 1.935-.337 2.347.36zm-13.61 2.773c.31.6.35 1.598.01 1-.18-.317-1.12-1.73-1.077-1.773.438-.036.872.416 1.067.773zm106.51.482l.063 78.222-8.13-8.065-.39-61.28zm-94.14 3.787l2.56 1.61-4.584-.028zm14.39 1.346l2.15 2.088-4.52-.947zm40.265 1.083l-.96 1.97c-.554-.62-.715-1.934.96-1.97zm16.244 32.52c1.63-3.663 3.813-8.327 7.346-9.81-2.63-5.227-2.288-10.452-.422-13.316-2.67-2.484-5.408-5.46-7.108-9.74-8.432 7.445-9.787 22.737.183 32.866zm-.254-31.435l.58 1.43c-7.51 9.19-5.19 21.255.25 27.692l-.783 1.622c-6.647-7.01-9.557-21.83-.047-30.743zm-44.89 5.2c8.7 2.552 15.67 6.532 25.73 2.987l.046 1.958c-6.403 4.11-19.16-.232-27.776-3.413-13.85-5.112-24.63-4.814-32.332-4.23-.678-.133-1.217-1.903-.13-1.915 14.4-.16 12.074-1.956 34.46 4.612zm1.965-3.465l2.86 3.032c-2.147-.674-4.234-1.422-6.175-2.35zm43.615.748l.56.772c.242.335-1.58.508-1.275.116zm-49.096 5.548c10.385 3.9 21.822 7.793 29.327 4.302 0 0 .047 1.487-.81 1.908 0 0-.792.64-3.44 1.004-12.145.997-20.028-4.03-29.83-7.002-3.718-1.127-9.692-2.493-15.826-2.747-3.64-.165-9.213.358-9.213.358-1.214-.102-1.196-.818-1.207-1.52 10.56-1.41 20.268-.358 31 3.698zm50.224-3.738c.134-.007.27.003.406.024l1.062 1.356-1.26 2.003s-1.11-1.023-1.675-2.027c-.31-.65.53-1.313 1.467-1.356zm-30.602.38l3.29 2.484c-2.473.12-5.257.213-8.01-.88zm27.86 1.266c.258-.007.53.267.848.81.613 1.045.532 1.245-.656 1.627-1.56.5-1.683.39-1.178-1.01.344-.952.652-1.42.985-1.427zm4.995.64l2.223 1.866c-1.228 3.195-2.03 7.25.435 13.072-.274.018-1.872 1.595-2.373 1.864-1.41-.59-4.51-12.125-.285-16.802zm-2.53 2.444l-.564 3.533c-.047.29-2.46-1.673-2.235-2.655.43-1.166 1.9-.917 2.8-.878zm-3.99 1.24c.292.002.75.708 1.313 1.632.44.72.35.992-.622 1.868-1.43 1.446-1.712.974-1.395-1.487.156-1.216.374-2.015.704-2.013zm2.96 3.202c.193.004.363.05.487.15l.164 3.44c.015.312-2.686-.12-3.04-1.432-.45-.84 1.34-2.18 2.388-2.158zm-3.566 2.91c.194-.03.8.374 1.372.713.994.59 1.016.85.16 1.95-1.007 1.293-1.507 1.086-1.66-1.163-.058-.826-.12-1.466.13-1.5zm3.965 1.315c.087 0 .165.024.232.08.478.41 1.21 3.86.902 4.22-.44.513-2.744-.17-3.26-.98-.488-.77 1.284-3.32 2.125-3.32zm-2.822 4.06c.265-.018.742.164 1.463.512.433.21 1.157.602 1.317.937.28.59-.187 1.464-.79 2.19-.4.48-.775.123-1.55-1.487-.624-1.295-.88-2.123-.44-2.153zm4.655 1.543c.053 0 .1.01.144.034.786.435.654 1.727-.275 2.683-1.114 1.148-2.083.284-1.313-1.172.488-.923 1.072-1.536 1.444-1.545zm-64.776 32.092c-.68.03-1.738.646-2.2 1.24-.585.753-1.095.655-1.743.6-.772-.012-1.946.16-3.535.883-.9.41-1.31.503-2.63.57-.862.043-1.725.16-1.917.26-.19.1-.81.318-1.375.483-1.153.338-.743.666-.08 2.152 3.363 8.626 5.774 18.677 6.653 26.864.986 9.392.688 20.782-.626 29.48-3.22.02-5.243-.144-8.636-.086-2.313 18.81-8.59 33.745-21.138 47.178l33.918.086c3.886-10.364 21.62-18.27 22.202-17.686l.935 3.783s-12.756 1.823-21.348 18.01c.88-.53 4.08-.16 6.19 2.03 4.22-5.348 11.14-8.844 11.186-8.76l.232-.647s1.27-.43 2.384-.643c.358-.068 1.092-.206 1.58-.377.75-.263 1.125-.543 2.287-.444 2.42.23 4.846-.47 4.794-.484-7.2-19.857-8.9-37.78-6.088-58.603 2.652.02 8.47.12 8.47.12.584-5.85 1.325-11.704 3.122-17.227 2.307-7.092 5.09-13.685 9.57-19.713 2.53-3.786 4.738-6.48 7.353-10.028l-33.2.077c-4.395 7.385-12.86 13.552-19.664 16.122-2.316.87-2.643.74-3.027-.348-.686-1.945-.654-1.863 1.158-2.38.605-.172 2.54-1.19 5.56-2.606 6.41-3.253 10.817-9.21 13.41-13.23 1.03-1.588.338-1.23-1.425-1.246-1.614-.126-2.352-.625-3.803-1.98-.535-.497-.765-.853-1.01-.824-1.894 2.722-5.076 6.312-7.558 7.375zm7.792-6.286c1.492 1.596 3.263 2.53 5.594 2.835-3.725 5.845-8.275 10.415-13.504 13.194l-2.658-7.48c6.517-3.033 8.26-6.072 10.568-8.55zm54.118 2.377c-35.114 32.464-33.048 73.39-8.46 106.634l-2.575 1.55c-23.095-30.948-27.273-76.728 8.014-108.32zm-22.137 3.96l8.608-.018-5.86 7.595-7.863-.03zm-1.35.063l-4.786 7.547-12.914.167c-7.727 9.526-16.027 14.173-24.476 17.344l-1.65-8.134s13.378-3.226 22.043-17.027zm-13.12.624l-2.993 3.31 3.108 3.163 2.838-3.21zm6.776-.077l-3.03 3.152 2.365 3.17 3.142-3.08zm-14.948.574l-.516 4.958 3.9 1.28.57-4.24zm23.726.186l-2.83 4.425 4.262.068 2.98-4.405zm-44.556 1.13l2.762 7.657-2.425 1.17-2.462-7.996zm-3.27 1.23l2.848 7.92-2.384.786-2.617-8.244zm3.413 31.272c.317 11.016.475 17.656-1.366 27.34-.098.505-2.076.057-2.076.057.25.083 1.115-10.942 1.046-17.868-.13-13.188-2.367-26.235-7.543-39.306.987-.602 3.42-.91 3.42-.91 3.267 9.91 6.162 20.574 6.518 30.688zM327.8 476.025c11.335 15.04 19.437 35.444 18.082 55.576-1.298 23.41-10.174 36.902-25.76 53.114l-4.023.093c18.45-17.692 26.615-32.832 27.258-52.808.74-22.976-6.276-38.256-18.094-54.54zM291.54 496.7l.04 5.478 38.62-16.563-5.57-8.206zm90.515-17.944l-4.204.212.14 4.243 4.384-.105zm37.475-.806l25.028 32.817-6.193 4.6-23.86-30.838zm-19.615 2.24l7.49.117-2.896 4.806-7.24-.058zm-1.384.12c-3.443 6.405-8.194 13.71-10.862 25.513l-24.66.02c-.046-2.694-.395-5.39-.797-8.084 10.628-3.89 18.86-9.703 24.913-17.387zm4.562.338l-3.215 1.853 1.964 2.26 3.544-1.356zm-29.354 2.36l-1.06 4.18 3.995 1.54.74-4.967zm22.995 3.123l7.188.044-3.026 6.044-7.12-.107zm17.112-.79l23.683 30.7-2.22 1.755-23.145-30.007zm-14.384 1.28l-3.238 2.697 2.437 2.814 2.987-2.384c.063-.05-2.186-3.127-2.186-3.127zm-31.432.22l-.994 4.065 4.156 1.105.743-4.358zm-5.748 2.704l-.845 4 3.914 1.058.825-3.857zm-32.32-.402c.2-.04-.655 4.763-1.914 5.628-.602.414-.913.323-1.435-.24-.358-.39-1.987-3.045-1.987-3.045l1.39-.7c1.69 2.7 1.688 1.395 2.327-.905zm-6.492 2.766c.552-.004 1.22.68 1.975 2.008 1.09 1.92 1.055 2.045-.74 2.597-3.228.855-4.43 1.06-3.436-1.07 1.07-2.295 1.493-3.53 2.2-3.535zm9.613-.38l2.21 3.782c-8.86 22.562-23.153 38.747-42.826 48.54l-.045-3.748c23.194-13.202 32.705-28.798 40.66-48.574zm60.25 1.63l6.975.126-1.863 5.334-7.414-.053zm-71.957-.232c-5.677 13.53-13.434 25.332-28.944 35.297l-.063-3.594c17.418-10.497 24.947-30.16 24.946-30.165zm88.156-.023c4.13.113 8.472 4.615 8.03 8.326-.31 2.615.192 4.555.904 3.484 1.573-2.366 6.208-.793 6.166 2.048-.022 1.512-1.032 1.76-1.612.396-.856-2.017-3.263-2.066-3.618.047-.333 1.98 1.347 3.436 5.836 5.058 5.26 1.234 8.426 5.95 6.556 8.66-.65.716-1.04.892-1.164.52-.035-.106-.164-.665-.284-1.24-.597-2.84-1.958-4.033-3.612-3.058-.83.49-.724 1.136-.24 1.99.643 1.137.24 1.578-.913 1-1.82-.916-2.423-3.083-.658-4.082 2.1-.84 1.388-1.02-1.294-1.926-5.707-1.95-8.157-5.527-8.456-12.343.11-3.106-.315-4.214-1.776-4.638-1.338-.39-2.853 1.31-1.893 2.206.522.486.948.928.67 1.197-.886.86-3.105-.538-3.083-2.038.014-.98.386-1.183 1.854-2.336.407-.32.06-.923-.536-.932-2.244.723-2.086-2.244-.88-2.34zm-12.93.787l-3.487 2.004 1.816 2.537 3.86-1.812zm-67.84 1.97c.4 0 .727.322.727.723 0 .4-.328.73-.728.73-.402 0-.725-.33-.725-.73 0-.4.323-.724.724-.724zm7.146.313c7.36 16.06 9.11 34.426 3.988 52.78l-19.873-25.856c7.625-8.584 12.75-18.412 15.886-26.924zm-26.877 1.18l-17.734 7.45-.098 13.296c9.907-6.762 14.11-13.684 17.83-20.748zm17.044-.112c1.747-.053.885 4.664-1.384 6.274-.832.64-1.393.56-1.667-.718-.142-.662-.84-2.065-1.72-3.194-1.02-1.313-1.01-1.345.484-1.438 1.65.025 3-.767 4.287-.923zm-1.727 2.006c-1.29-.02-1.675.584-.908 1.41.646.694 1.16.545 1.592-.46.265-.61.028-.94-.685-.95zm-31.984 17.248l.043-11.285 15.165-6.386c-3.04 6.593-8.672 13.13-15.207 17.67zm134.72 9.117l-2.022 2.03-19.576-25.52 1.227-3.22zM319.79 499.597c.657.01 2.146 2.286 2.563 3.92.31 1.212-.018 1.468-2.316 1.81-.953.26-3.525.01-3.316-.676.374-.99 2.84-5.057 3.07-5.054zm70.924.26l7.144.078-1.637 5.86-7.48-.11zm3.157.358l-3.325 2.302 2.63 2.592 3.524-2.177zm11.207 2.52l19.805 25.704c-5.91 7.515-11.802 16.15-15.676 27.56-7.05-16.492-9.633-32.545-4.13-53.263zm-80.434 2.188c.4 0 .73.323.73.724 0 .4-.33.73-.73.73-.4 0-.724-.33-.724-.73 0-.4.322-.724.723-.724zm-2.278.98c1.236.087.07 4.025-1.792 5.46-1.467 1.133-2.097.608-2.437-1.464-.122-.748-.91-2.02-1.602-3.024-.773-1.122-.455-1.3 1.506-.85 1.37.265 3.06-.06 4.325-.122zm66.188.962l7.49.045-1.154 8.897zm-72.98.412c1.18 1.1 2.672 4.96 1.907 5.238-.89.324-4.917-.144-5.367-.608-.31-.32-.312-.32.347-1.202.362-.484 1.052-1.45 1.535-2.148.435-.51.917-1.89 1.58-1.28zm4.17.132c-1.14.038-1.216.194-.675 1.423.44 1.004.748 1.094 1.506.436 1.055-.915.612-1.907-.83-1.858zm131.47.772l.27 4.388c-28.79 14.28-39.573 47.998-39.73 47.998l-2.09-3.89c13.213-32.557 30.784-41.984 41.55-48.496zm-135.672 5.19c1.716-.037 2.217-.154 2.207.482.02 1.708-1.577 4.133-3.528 5.048-1.315.616-1.344.63-1.493-.917-.114-1.19-.502-2.723-1.12-3.943-.193-.453-.937-1.49-.002-1.195.936.295 2.867.546 3.936.524zm3.847-.398c.4 0 .724.323.724.724 0 .4-.322.724-.723.724-.4 0-.724-.323-.724-.724 0-.4.324-.724.724-.724zm-9.174 1c.31-.01.606.63.96 1.57.77 2.04 1.005 3.148.777 3.63-.35.74-5.076.26-5.88-.566-.152.114 3.477-4.223 4.143-4.634zm3.403.507c-.678.045-.32.453.183 1.635.347.82.817.95 1.355.377.72-.768.817-1.377.363-1.705-.667-.268-1.16-.304-1.902-.308zm137.8 4.437l.025 1.47c-1.12-.335-1.815-.81-3.094-1.235-.784-.263-1.247-.45-.555-1.275 1.086-1.293 2.25-2.102 3.57-2.903l.008 1.665c-2.113.936-1.908 1.8.047 2.277zm-83.228-1.494h7.954v5.252h6.222l-.483 5.985h-5.738v5.252h-7.954v-5.252h-5.682l.46-5.985h5.222zm17.965.018c-4.028 19.96-.333 41.15 5.882 58.414l-3.137.345c-4.844-13.807-8.694-33.462-4.778-58.747 0 0 1.404-.026 2.033-.012zm59.042.39c.4 0 .724.322.724.723 0 .4-.325.724-.725.724-.4 0-.724-.324-.724-.724 0-.4.324-.724.725-.724zm-139.935 1.674c.264-.008 1.073.34 1.79.54 1.08.3 1.932.43 2.916.45 1.978.037 2.237.02 1.386 1.645-.613 1.17-1.993 2.718-2.96 3.19-1.366.73-1.89.63-1.81-.715.01-.912-.386-2.498-.902-3.63-.4-.88-.86-1.468-.42-1.48zm8.366.64c.4 0 .73.324.73.725 0 .4-.33.728-.73.728-.4 0-.724-.33-.724-.73 0-.4.323-.723.724-.723zm133.842-.095c.56-.013 1.522.33 2.4.757 2.324 1.13 2.262 1.39-.89 3.625-2.287 1.736-2.828 1.93-2.91-.806-.082-2.306.167-3.55 1.4-3.577zm-143.4.66c.923.014 1.944 4.82 1.115 5.247-1.29.667-5.292-.632-5.276-1.728.005-.357 3.754-3.526 4.16-3.52zm140.62-.197c.552-.025.625.408.574 1.94-.026.81.113 2.134.17 2.75.116 1.282.006 1.37-1.005.798-.648-.366-1.964-.967-3.388-1.09-1.168-.1-1.254-.58-.892-1.35 1.03-1.706 2.898-2.903 4.54-3.047zm-137.193.724c-.805-.006-.606.422-.106 1.626.353.853.966.935 1.597.208.882-1.017.71-1.556-.575-1.75-.27-.043-.73-.082-.917-.083zm136.126 1.144c-.334.032-.792.296-1.012.44-.757.474-1.065.816.033 1.192.98.335 1.498.48 1.42-.362-.046-.508-.007-1.244-.44-1.27zm-74.66.623v5.232h6.333v-5.232zm69.004.454c.4 0 .724.323.724.724 0 .4-.323.725-.724.725-.4 0-.724-.324-.724-.724 0-.4.324-.723.724-.723zm-118.547.816l19.978 25.642-1.327 3.343-20.577-27.07zm132.125-.12l.044 3.35c-2.257 1.65-16.59 12.038-24.006 29.52l-3.88 1.652c5.463-15.045 17.15-27.932 27.842-34.523zm-151.977 1.418c1.3.397 2.542 1.3 3.77 1.464 1.41.17 1.897.082 1.515.81-.856 1.633-2.47 3.342-4.175 3.9-1.22.4-1.794.25-1.603-.506.36-1.417.42-2.58.372-3.87.193-.705-.408-1.69.12-1.797zm-1.526.3c.828.71.664 5.19-.26 6.154-.485.505-1.89.044-3.993-1.148-1.376-.78-1.633-1.255-.946-1.733 1.165-.707 4.573-3.44 5.2-3.273zm142.73.097c.43-.01.963.065 1.606.212 2.49.56 3.045 1.127.922 2.813-.785.624-1.617 1.398-1.86 1.694-1.14 1.4-1.935.385-2.185-2.157-.175-1.78.093-2.793 1.516-2.563zm-3.12.24c.405 0 .664.212.657.716-.01.642.452 3.423.71 4.19.448 1.302.123 1.596-.956 1.027-.785-.423-2.866-.745-3.99-.656-1.282.1-1.245-.242-.87-1.318.664-1.906 3.237-3.957 4.45-3.958zm-136.87.928c-.486-.002-.506.654-.173 2.158.106.478.517.448 1.294-.097.92-.645.882-1.05-.154-1.67-.426-.256-.744-.39-.965-.39zm5.663.164c.4 0 .724.322.724.723 0 .4-.324.724-.724.724-.4 0-.724-.323-.724-.724 0-.4.322-.724.723-.724zm128.842 2.813c.348.34 1.632.325 1.854.12.338-.312.18-1.765-.103-1.94-.723-.246-2.185 1.284-1.752 1.82zm-119.908 2.766c.437 2.07 3.35 1.956 3.022-.204-.193-1.26-.238-1.235.395-1.207 3.008.147 2.487 4.89-.98 4.522-.723.087-.82.383-.208.637.608.252 2.938.85 3.297.85 3.772-.014 9.213 5.785 9.08 10.932-.088 3.365 1.053 5.788 2.22 6.062.927.218 2.274-.625 2.157-1.656-.16-1.42.996-.977 1.662.044 1.015 1.41-.295 3.446-2.713 3.287-1.03.2.755.853 2.078 1.235 1.2.07.186 1.546-.037 1.81-.677.787-2.9.186-4.643-1.222-2.14-1.727-3.058-4.043-3.31-8.59-.163-2.925-.38-3.52-1.232-2.313-1.53 2.69-5.19 1.373-5.647-1.468-.256-1.504 1.068-2.59 1.496-1.226 1.135 2.834 3.913 2.153 3.46-.66-.297-1.858-2.155-2.882-5.825-3.916-4.413-1.242-5.725-2.752-6.585-6.37-.38-1.603-.32-2.44.526-3.278.42-.414.952-.835.952-.835s.59 2.434.835 3.562zm115.412-2.298c.4 0 .723.324.723.724 0 .4-.324.724-.724.724-.402 0-.725-.323-.725-.724 0-.4.323-.724.724-.724zm-138.485.688c1.314.476 2.443 1.18 3.798 1.642.878.298.638 1.002-.272 2-1.014 1.2-2.012 1.79-3.42 2.456l.016-2.025c1.71-.597 2.798-2.022-.074-2.478zm141.902 1.13c.498.005 1.203.023 2.03.194 2.093.433 2.338.62 1.08 2.09-.466.545-1.16 1.368-1.54 1.83-1.237 1.724-1.904 1.132-2.48-1.096-.716-2.327-.88-3.22.91-3.017zm-135.337.83c.4 0 .724.324.724.725 0 .4-.324.724-.724.724-.4 0-.724-.324-.724-.725 0-.4.323-.724.724-.724zm133.227 1.578c.2.735.503 1.67.734 2.334 1.137 2.506.418 1.537-1.617 1.316-1.37-.15-3.547.08-4.086-.298-.235-.306-.018-1.11.42-2.018.62-1.278 1.742-2.367 2.58-2.86 2.122-.982 1.628.265 1.97 1.526zm-122.316-.892l22.82 30.172-1.788 2.55-23.472-31.02zm143.013.113c-11.862 8.57-16.417 18.975-17.343 20.334l17.39-6.71zm-22.648.982c-.65.18-1.584 1.385-1.183 1.86.24.246 1.197.278 1.656.11.706-.26.224-1.973-.473-1.97zm-100.002 32.63l-4.86 6.125-25.327-32.76 6.39-4.614zm121.385-31.84l.18 11.26-14.875 6.2c4.98-8.413 9.86-13.615 14.695-17.46zm-101.71.954l5.958 7.757-7.28-.166zm75.333.635c.402 0 .725.325.725.725 0 .4-.323.724-.724.724-.4 0-.723-.324-.723-.725 0-.4.324-.724.724-.724zm4.367 1.836c2.725.038 3.634.185 2.842 1.524-1.058 1.307-1.683 2.55-2.836 3.758-.666.677-1.498-.72-2.193-2.955-.56-1.806-.277-2.26.79-2.275 1.067-.015 1.25-.054 1.397-.052zm-3.147 2.442c.223.714.744 1.886 1.16 2.602.413.716.877 1.51.85 1.65-.07.336-.39.362-1.107.092-1.552-.7-5.202.04-5.298-.306-.542-.772.27-2.878 1.803-4.337.75-.713 1.434-1.177 1.83-1.184.396-.007.468.542.762 1.482zm-127.29-.554l25.772 33.467-1.784 2.17-26.06-34.11s-4.115 2.014-5.325 2.687l.164 17.31-.705-.035.105 87.673 14.38-14.34-.187-59.487c3.05 2.87 5.662 5.932 9.154 8.745l5.98-.047c15.613-15.88 24.163-29.468 26.04-53.803 1.255-16.28-4.154-36.752-18.5-56.592l-3.503 2.128 6.923 10.43-14.662 6.5c-5.84 12.31-12.76 23.672-25.423 30.178l-.07 15.934-.222.33.167 5.003zm125.998 1.143c-.684.05-1.755 1.527-1.264 2.032.577.273 1.468.254 1.84-.24.256-.485.19-1.51-.576-1.793zm-76.875 3.447l7.568.043-1.978 6.492-7.37-.14zm71.893-.03c.4 0 .724.324.724.725 0 .4-.324.723-.724.723-.4 0-.724-.323-.724-.724 0-.402.323-.725.724-.725zm-38.557.2l.977 8.43c-8.255 3-17.155 8.093-24.94 17.456-1.33-.088-11.945.09-11.945.09.265.04 9.836-18.02 10.937-25.857zm-29.976.784l-3.47 2.384 2.712 2.892 3.59-2.433zm72.23.035c.736-.003 1.726.087 2.52.227 1.278.248 1.466.272 1.035 1.328-.576 1.4-1.874 3.926-2.202 4.128-1.172.726-3.777-4.484-2.89-5.385.236-.184.734-.293 1.535-.297zm-3.32 1.602c.335-.03.782.623.915 1.185.16.682 1.34 2.402 2.085 3.226.936 1.037.887 1.182-.453 1.29-1.597.126-3.157.44-4.056.767-1.394.506-1.583.395-1.405-1.235.27-2.453 1.908-5.145 2.914-5.233zm-1.223 5.074c.175.474 2.337-.4 2.457-.968-.02-.256-.87-1.735-1.38-1.802-.864.135-1.227 2.097-1.076 2.77zm-73.03-.334l7.154.067-2.346 5.894-7.07-.02zm3.203.79l-3.427 2.167 2.67 2.582 3.28-2.264zm72.743 1.068c.607-.006 1.25.053 1.385.275.38.625-1.167 4.122-1.167 4.122l-2.52 1c-.543-1.116-1.47-2.276-1.695-3.485-.09-.528.178-.72.76-1.048.87-.49 2.226-.856 3.238-.866zm-6.754.286c.4 0 .724.323.724.724 0 .4-.323.724-.724.724-.4 0-.724-.324-.724-.724 0-.4.324-.724.724-.724zm-32.62.1s1.546 8.734 1.63 7.77c-11.93 4.494-18.908 11.124-22.214 17.592l-22.383-.016 4.996-7.752 13.25-.067c6.406-7.772 14.307-13.97 24.722-17.527zm-2.866 2.056l-1.105 3.53 3.346 2.132 1.26-3.79zm36.665.07c.285-.028.565.45 1.14 1.47.425.755.984 1.852.984 1.852l-1 .372c-.808-2.758-1.548-1.733-1.635.702l-1.372.546s.15-2.346.932-3.717c.45-.787.7-1.202.95-1.225zm-72.956 2.41l6.936.088-2.9 6.01-7.053-.193zm30.254.484l-.55 4.46 3.736.792.51-4.238zm-27.305.053l-3.427 2.216 2.25 2.957 3.296-2.215zm21.947 3.905l-.71 4.108 3.505.796.796-4.132zm-76.157.24l8.77 8.694.483 60.65-8.722 8.746zm47.716 2.222c-.033.048 6.995.2 6.995.2l-2.813 5.077-2.402-.108 3.16-2.158-2.026-2.592-3.248 2.12 1.81 2.62-4.745-.102zm45.24 1.5l2.38 7.87-2.862.498-2.15-7.404c.877-.454 1.754-.678 2.632-.963zm-22.5.493l.048 4.72 3.823.324.15-4.426zm19.003.754l2.18 7.476-1.818.517-2.603-7.097c.712-.42 1.456-.73 2.24-.896zm-3.317 1.543l2.8 7.32c-3.868 1.568-7.878 4.925-10.897 8.275-2.24-1.644-3.556-1.817-4.937-2.19 3.808-7.092 8.305-10.816 13.033-13.405zm-42.257 1.835l7.355.222-5.116 7.64-8.322-.01zm21.897.285l-.477 4.47 3.938 2.326.6-4.59zm-4.744.627l-2.8 2.96 2.973 3.392 2.728-3.544zm-6.26.155l-3.326 3.05 2.645 3.45 3.04-3.47zm-42.373 2.845l.326 59.25-12.22 11.842-.09-3.188 9.714-10.144c.01-20.04-.053-40.082-.12-60.123zm32.51-1.914l-3.373 4.6 4.002.01 2.9-4.455zm-20.807 28.672c-1.33 4.787-7.465 9.98-7.574 9.892 3.036 4.352 2.933 10.557.255 13.614.013-.067 4.882 3.974 5.565 6.073.386.836.54 1.854 1.03 2.684.128.22.54.766.54.766 11.894-12.06 6.23-26.196.183-33.028zm.178 1.25c11.55 14.33 3.936 27.443-.093 31.102l-.77-1.27c8.582-9.975 4.945-22.227-.055-28.028zm-1.25 2.79c.078.232.528.907.194.864l-.58-.117zm-.086 1.597c.25 0 .46.078.575.25.234.393-.96 3.687-1.697 2.92-.222-.436-.484-.813-.69-1.264-.24-.537-.08-.797.47-1.33.38-.37.923-.575 1.34-.576zm1.66.893c.585.046 1.415 1.883 1.492 3.196.036.137-1.97-.308-2.505-.92.066-.54.57-1.907 1.015-2.275zm-4.517 1.5c3.477 6.99 3.26 12.452.198 17.472l-2.398-2.05c1.613-3.82 2.41-7.895-.305-13.083zm2.346 1.75c.24-.022.983.088 1.64.298 2.328.744 2.415 2.266.174 3.384-.928.462-1.217.257-1.752-2.07-.264-1.153-.464-1.578-.062-1.613zm4.493 2.678c.45-.003.655.845.71 2.307.052 1.388-.243 1.497-1.36.507-1.21-1.07-1.418-1.325-.31-2.206.324-.257.756-.606.96-.607zm-3.17 2.292c.22-.02.863.39 1.49.87 1.592 1.21 1.24 2.043-.57 2.63-1.25.406-1.19.457-1.157-1.71.014-1.07-.05-1.765.235-1.79zm21.063 1.973c-1.943.492-2.758 2.225-2.114 3.784.293.71.738.715.216 1.148-.583.673-.893 2.23-.25 2.798.756.434.95-.314.153 1.15l-14.63 26.873 87.815-.162-10.554-19.768c.024-.028.844-3.26-.845-3.65-.54-.126-.85-.63-.96-1.112.136-1.375-.488-1.96-1.014-2.67-8.348 1.178-15.6.59-21.59-.757-8.627-1.94-14.794-5.3-18.804-6.355-5.53-1.455-12.204-2.088-17.423-1.277zm4.73.185c6.804-.04 14.42 2.042 19.75 4.35 5.532 2.283 11.39 3.986 17.31 4.86 4.886.614 9.76.305 14.43-.066.512-.076 1.04-.006 1.42.398.97 1.077.31 1.75-2.113 1.975-3.89.32-8.714.183-12.994-.46-6.776-.778-13.96-2.826-20.156-5.395-7.746-2.907-14.86-3.88-20.48-3.022-3.088.47-3.54.545-3.53-.285.025-1.617 1.363-2.356 6.363-2.355zm-22.296 4.69c-.298.686-2.415-1.557-2.393-2.19.046-.28 1.76-1.397 2.438-1.85.33-.254.308-.122.312.174.012.845-.055 3.03-.356 3.867zm-3.258-1.654c.977.13 2.583 2.767 1.17 3.175-1.253.362-2.392.594-2.545-.246.646-2.063.888-2.88 1.26-2.926.038-.005.08-.006.116-.005zm56.787 9.002c6.233 1.078 14.414 1.723 19.762 1.305 3.066-.308 3.71-.21 3.693 1.07-.012.8.075.78-3.88.776-3.29.22-6.25-.133-9.433-.298-6.586-.327-12.57-1.455-18.1-3.375-6.135-1.59-11.45-4.65-17.454-5.28-5.505-.54-10.458.434-11.496 1.01-.347-.004-.528-.518-.508-.99.02-.465.193-.837.58-1.132 15.78-3.98 24.23 4.545 36.837 6.914zm-54.726-5.272c.526.006.36.784-.5 2.433-.733 1.402-1.02 1.394-1.435-.044-.442-1.537-.4-1.706.478-1.93.516-.125.953-.395 1.457-.46zm-3.682.782c.616.01 1.49 2.8 1.042 3.326-.355.415-1.638.133-2.012-.357-.602-.788.168-2.98.97-2.968zm27.588.754c2.448-.024 4.888.238 7.13.623-1.29.476-2.576.917-3.917 1.692-.926-.796-1.978-1.57-3.213-2.316zm3.18 3.388c8.652-4.823 12.305 1.836 13.555 2.91 7.563-1.674 9.044-.85 13.263 3.71 7.574-3.704 11.246-.556 14.407 1.435 3.708-3.466 8.41-3.562 10.86-1.823.46.767 1.096 1.74 1.15 2.03.04.227-.307-.037-1.16-.647-4.447-3.182-11.828.78-9.856 4.977.532 1.13.448 1.617-.346 2.07-1.13.764-2.514-.503-1.73-1.795 1.313-2.158.326-3.964-2.866-5.633-4.498-2.353-11.846.282-10.334 3.75.968 1.107.07 1.888-1.207 1.848-1.445-.045-1.936-1.012-1.008-2.047 1.155-1.32.852-2.658-.496-4.183-4.04-5.753-12.21-3.472-11.13 1.57.476 1.252-.874 1.757-2.277 1.2-.892-.354-.758-1.733.218-2.22 1.123-.114 1.282-1.74 1.148-2.785-.195-1.52-2.436-3.018-4.653-3.812-1.605-.575-3.095-.698-4.27-.59-2.485.227-3.87 1.913-3.462 4.44.24 1.49-.176 3.037-1.926 2.217-.958-.448-.717-1.532.26-2.53 3.44-3.358-3.485-7.444-7.665-4.63-.708.583-1.225.685-1.225.685 2.62-6.526 10.83-.415 10.752-.148zm11.395-.88l5.223 1.97c-1.203.236-2.052.576-2.905.914zm-13.643 2.123c-4.82-.913-5.083 4.473-1.942 5.352-4.32 5.937 6.996 8.242 4.92.915 5.735 1.033 4.697-5.493.433-5.433.997-2.43 8.87-.59 8.53 1.217-5.322.564-3.195 5.412-.893 5.418-5.565 5.268 5.572 10.126 5.276 2.183 4.467.94 4.993-4.99.698-5.38 1.573-2.213 7.19-.818 8.748 1.713-4.434.588-4.156 4.482-.687 5.11-4.398 5.6 6.424 7.67 5.3 1.16 3.878 1.334 6.006-3.84.982-5.32 5.146-3.065 10.735 1.505 10.13 1.598-5.874-.346-4.704 5.54-.454 5.22-2.704 6.11 8.01 6.45 5.294.113 4.82.088 4.397-5.497-.22-5.87 2.907-2.12 6.185-2.305 8.295-.322-4.395 1.157-2.57 6.265 1.852 4.85.408 4.275 3.883 3.368 3.96 3.24l3.11 5.8-84.258.135 7.19-13.272c4.252.218 4.1-3.874 3.914-3.974 2.826 2.017 5.866-3 1.73-4.437 3.38-3.535 8.39-.27 8.09-.016zm-27.43-.37c-.175.18-.22.288-.51.02-.736-.84 1.262-.91.51-.02zm17.423 2.223c.37.304.116 1.136-.185 1.42-.76.814-1.016.75-.347-.655.197-.425.384-.77.532-.765zm36.915.377l4.38 1.06-2.08 1.172c-.768-.836-1.508-1.557-2.3-2.233zm13.692 1.764l4.764.305c-.63.428-1.248.827-2.02 1.607-.6-.637-1.735-1.274-2.745-1.91zm15.872 4.86c.265.552 1.317 2.473 1.218 2.524-1.54.268-1.954-2.025-1.218-2.525z" fill="#100f08"/></svg>