<svg viewBox="260 370 224 313" preserveAspectRatio="none" xmlns="http://www.w3.org/2000/svg" width="744.094" height="1052.362"><title>Vectorized Playing Cards 1.0</title><rect y="484.934" x="2690.486" height="311.811" width="223.228" rx="10.63" ry="10.63" fill="#fff" stroke="#000" stroke-width=".997" transform="translate(-735.69963,-136.72448) translate(-1694.3529,22.06652)"/><path d="M341.665 631.344l53.415 1.14c4.73 6.494 14.23 19.737 14.23 19.737l-86.3 1.136zm-22.354 4.52c2.31-4.626 2.756-9.085 2.317-15.512-.347-4.932 2.757-8.773 5.96-7.3 2.477 1.137 1.334 5.803-1.227 4.816-.98-.378-1.84-.035-1.71 2.18.23 5.463 1.693 11.615.435 16.852-.878 5.087-7.916 2.743-5.774-1.035zm-21.624-7.134c-2.72-4.054 2.153-7.854 5.204-5.982 1.447.672 1.242 2.136-.58 1.356-2.546-1.09-5.285 2.764-3.07 4.312 1.02.713 1.407.617.632-.275-2.064-2.384 3.215-3.44 3.062-1.868-.36 1.914-.406 2.72-.582 3.096-1.075 1.67-3.14.818-4.666-.638zm7.584-17.05c-2.937-3.644.43-6.51.386-6.405.87-.94-6.998-15.52-6.004-15.615 9.94-1.05 19.984-.257 29.945.05.003.002-5.31 9.494-7.428 14.192-.854 1.892 1.14 4.12.315 5.526-2.564 2.786-.97 5.87-2.568 6.01-4.485-.573-8.917-1.313-13.89-.322-.366 0-.405-2.08-.757-3.436zm43.024-101.31c5.025 25.428-2.384 52.382-19.37 70.164-2.4-2.29-4.237-6.637-6.628-9.472-6.64-1.98-11.415.35-16.07 2.635-4.135-2.37-8.794-3.763-13.335-3.703l-.145-3.933c4.594-.098 9.446.324 13.538 2.84l6.4-2.58-19.96-20.585.27-3.518 24.222 24.293 3.12.11c-6.856-18.113-.86-46.884 27.96-56.25zm33.773 31.895l3.5 16.605s-18.512 19.823-29.958 29.233l-8.625-.78s11.782-20.83 9.62-19.24zm69.596 22.774c-8.222 9.15-18.045 14.97-28.955 21.38-4.362-4.843-9.656-10.17-12.713-14.946 9.518-5.056 18.59-8.973 27.91-17.822-.51.57-11.888 4.41-11.85 3.968-.412 1.89-.165 3.054-2.016 3.55-2.193-3.042-4.312-5.512-7.768-6.873-1.45.13-3.374-.82-3.374-.822.968-.197.54-11.874.003-12.01 0 0 .285-.345 2.816-.295 4.52-.31 7.442-5.745 10.248-7.607 8.765-.717 16.53.142 25.165-.09-.067 10.394.536 21.17.533 31.566zM396 538.712c-.22-.44-2.432-17.664-.33-28.465.387-2.533 4.402-3.393 5.17-5.28 1.278-4.1-.64-9.167.372-13.765 1.03-4.68 3.254-7.312 5.2-10.79 2.108-3.77 5.126-8.47 8.47-11.28.982-.956 4.412 2.122 6.974 7.442 7.444 4.663 16.988-1.354 16.988-1.354s3.704 3.008 12.08 4.65l-.142 3.237c-.042.94-9.422-1.002-11.44-2.88 0 0-7 2.33-6.998 2.755 0 1.812 18.474 18.84 18.474 18.84l.104 4.2c-2.77-3.837-24.437-22.272-24.437-22.272 4.804 28.048-6.67 45.516-30.485 54.963zm-30.996-5.49l-.416-16.518 15.788.187.65 16.69zm-72.238-17.855c.42-.586-.615-30.786-.55-30.786 10.048-9.945 19.875-15.504 29.727-21.55 4.455 4.39 8.242 8.095 11.524 13.413l-13.593 8.33c.517 2.03-.824 2.763 7.938 10.667.148-.54 3.035-2.15 3.54.257-1.188 5.08.526 9.398.75 12.13-1.196 1.6-3.87-.118-3.87-.118-1.73-1.796-8.514 7.068-10.45 8.06-8.45-.315-25.49.255-25.016-.404zm95.103-53.852c.11-.108 8.592.065 8.478.368-1.545 4.122-5.38 11.44-8.892 19.885-4.045 7.197-9.656 11.436-14.447 16.153-3.83 3.77-7.245 9.712-9.862 8.17-1.597-5.108-1.966-9.638-3.727-15.298-.806-3.353 4.09-5.538 28.45-29.28zm37.117-28.317c3.107 1.318 11.837.627 13.222.034 1.774 1.2.666 2.798.442 3.685 1.822 2.296 2.82 3.11.75 6.812-.472 0 6.363 15.32 6.546 15.33 0 0-7.223-3.412-9.77-5.717l-4.983 6.595-5.79-7.447c-.02.672-11.152 8.025-11.287 7.67-.35-.35 10.166-11.62 8.08-18.235-.503-1.595.648-3.215 1.435-4.62.54-.964-.187-2.828 1.354-4.11zm-5.778-1.374c.47-.54-2.7-14.39.736-19.982 1.456-2.033 4.09-2.136 5.19-.472.842 2.314-1.664 5.537-2.167 7.11-1.63 4.385.79 10.17-.392 14.312-3.538 9.05-9.805-.89-3.37-.968zm23.552-6.152c-1.865.08-.563-5.467-.255-7.056-.01-.315 3.413-1.11 4.646 1.072 1.99 3.26-.402 7.375-4.39 5.984zm-22.24-27.972l-17.568 21.27c-17.763-2.035-35.59-3.328-53.753-.56l-14.607-20.29z" fill="#e2cf00"/><path d="M452.4 396.143l-162.532.503 1.784 258.01 162.163-.957zm-37.394 1.58c1.783 0 3.565.005 5.348.01l-19.46 23.833-.478.16c1.297 3.782 3.148 8.497 4.915 12.078 2.816 5.787 9.89 16.422 5.477 24.93-.433.73-.835 1.084-1.376 1.08-.75-.002-.735-.44-.29-1.294.985-1.88 1.65-6.335 1.26-8.693-.252-1.505-1.09-3.824-2.687-7.33-7.395-13.598-9.705-20.845-9.286-20.845-.096-.062-.262-.145-.53-.21l-.727-.24c2.562 8.596 6.726 15.823 10.02 22.514 2.704 6.218 2.994 8.63 1.58 13.158-.546 1.752-1.536 2.875-2.51 2.87-.728-.003-.686-.15-.19-1.04 2.59-4.63 1.993-9.683-1.228-15.562-4.676-9.71-7.482-15.854-9.148-22.083-.042-.004-.853-.275-1.145-.345 1.386 6.485 5.262 13.963 8.87 21.615 2.982 5.893 3.84 10.188 2.765 13.58-.352 1.47-1.477 3.66-2.9 3.725-.555-.002-.643-.292-.118-1.05 2.21-3.773 2.603-7.253-1.352-15.178-3.636-7.285-7.285-15.44-8.53-22.562-.08-.584-1.66-1.277-1.32-.308 1.95 8.413 5.84 17.028 9.97 25.428 2.324 5.214 2.564 8.55.82 11.468-.976 1.632-1.224 2.003-1.955 2.018-.864.02-.85.052-.372-.94 2.11-4.385 1.763-8.248-1.056-14.585-3.866-8.69-7.122-15.882-8.513-23.53-.25-.072-1.56-.578-1.372-.195 1.933 7.286 4.408 14.048 7.596 20.887 1.11 2.373 2.912 6.988 3.493 9.3 1.102 4.403-1.384 10.447-4.636 10.752-1.212.113-1.06-.49.29-1.742 2.327-2.157 2.778-5.598 1.99-9.59-.594-3.073-1.616-6.37-3.02-9.722-2.838-6.777-5.926-13.868-6.903-20.123.032-.56-1.27-.562-.902.023.702 4.4 2.38 9.408 4.214 14.06 2.007 5.09 4.996 10.793 5.974 17.04.8 5.11-2.4 9.935-6.28 10.223-4.677.347-5.598-4.267-4.473-6.43 1.835-3.228 7.165-1.384 5.58 1.918-.91 1.9-3.696 1.4-3.577-.684-.032-.19.267-.76.214-.792-.097-.056-.505.317-.636.55-.946 1.688 1.897 3.952 3.873 2.596 6.62-3.575 2.15-14.478-.736-21.14-2.794-6.204-4.843-11.812-5.732-17.555-.24-.168-1.334-.444-1.18-.247.8 3.066 1.17 5.652 1.968 8.228 1.25 4.04 3.494 8.56 5.324 13.09 1.662 4.46 3.332 8.245 2.57 12.893-.07.43-.246.945-.54 1.258-.297.31-.542.262-.63-.92-.03-.162-.24-.375-.27-.58.162-1.746.043-3.477-.41-5.12-.386-1.375-1.124-2.78-2.68-5.452-.614-.995-2.22-4.037-1.657-1.935.324 1.19 1.426 3.832 2.573 5.746.712 1.188 1.46 4.43 1.238 5.058-.233.612-.775.647-1.028.436-.228-.19-.227-1.058-.285-1.594-.24-2.204-2.502-6.05-4.07-7.56-1.128-1.253 2.654 5.335 2.93 7.09.12.744.35 1.348.096 1.713-.168.24-.507.242-.84.157-.32-.082-.306-.302-.645-1.433-.58-1.935-1.297-2.91-2.785-4.654-.51-.598-.85.15-.038 1.12 1.123 1.77 1.967 2.9 2.253 5.177-.728 1.03-1.086.83-2.61-1.78-1.006-1.724-1.61-2.167-1.874-2.154-.667.03-.037.855 1.837 3.8.97 1.57.995 2.548-.108 2.543-.374-.002-2.47-2.3-2.994-3.298-.436-.827-.976-1.46-.978-.45 0 .4 1.298 2.516 2.188 3.544 1.402 1.62 1.804 1.944 1.983 2.66.086.343.256.94.376 1.33.36 1.165.177 1.498-.55.882-.33-.864-.597-.953-1.5-1.618-.76-.56-1.818-2.013-2.51-3.037-.26-.386-.486-.877-.753-1.27-.68-1.268-1.583-1.378-.93-.1.31.593.81 1.565 1.337 2.286.88 1.25.7 1.903-.347 1.898-.447 0-1.7-1.638-2.48-2.917-.512-.835-1.31-1.425-1.21-.598.023.205.64 1.672 1.564 2.818 1.005 1.246 1.137 1.908.162 1.903-.667-.003-1.24-.636-2.09-1.926-.806-1.226-1.31-1.658-1.536-1.52-.29.178 1.156 2.608 2.344 3.935 1.123 1.255.3 1.97-.992.854-.7-.606-2.103-2.412-2.496-3.27-.703-1.535-1.156-1.116-.702.1.5 1.34 1.28 2.805 2.225 3.757.495.5 1.514.89 2.012 1.32 1.41 1.215 2.303 2.337 2.187 2.538-4.02.226-7.32-4.05-8.223-6.638-.642-1.702-1.374-1.953-.68.45 1.96 5.972 8.07 9.073 12.295 6.397 2.55-1.615.297-5.82-1.79-4.465-.566.367-.59 1.41.13.853 1.354-1.05 2.717 1.54 1.238 2.306-2.08 1.076-4.385-1.032-2.97-3.588 1.397-2.625 6.998-1.122 5.902 3.117-.664 1.902-3.572 4.28-6.064 4.327-4.63.087-7.83-3.453-9.612-6.947-.228-.45-.638-1.333-.977-2.054-.292-.623-.523-1.086-.547-1.08.515 4.242 4.583 9.488 8.225 10.356 6.052 1.418 7.708-2.178 11.668-5.893 0 0 2.892.374 2.994.312.266-.163 5.63-.402 5.788-.252-21.665 39.15-20.016 85.628-1.385 120.906 1.232 2.582 1.447 2.092-.593 1.566-2.108-.548-4.02.294-5.732-.1-3.542-.72-4.297 1.69-7.018 2.976-3.395 1.278-2.626 3.63-3.435 5.902-.255.352-.44.64-.3.594.224-.075.948-.742 1.002-1.33.14-1.504.678-2.693 1.29-3.292.585-.57.993-.86 1.135-.612.11.192.027.866-.26 1.41-.825 1.55.267 6.735.336 3.044.054-2.93 1.835-6.195 4.327-7.532 1.995-.973 2.613-.873.99.625-1.846 1.96-3.1 4.244-3.174 7.087-.03 1.18.44 2.162.608 1.106-.07-5.414 5.356-11.443 11.176-8.446.29.208.535.6.45.822-5.637-.942-10.54 2.127-9.818 9.393 0 0 .505-1.425.79-2.846.887-4.45 5.937-6.397 9.48-5.177.666.28 1.19 1.217 1.096 1.343-4.332-1.355-9.086 2.725-9.362 7.146-.09 1.438-.056 2.67.683.076 2.797-9.822 11.427-5.37 10.366-4.565-6.68-.794-9.097 3.685-8.943 8.864.095.474.34.632.54 1.073.89 1.95 1.296 3.624 1.367 7.165-.068.912.69 6.72-.074 6.474-2.426-.894-4.27-1.95-8.473-.065-.38.02-.502-.188-.373-.515.175-.44.832-1.308 1.978-2.592 2.582-2.743 1.1-2.008-1.024-.106-1.37 1.23-1.073.39.218-3.807.524-1.7.198-1.907-2.055-3.047-2.317-1.174-3.922-1.353-1.954-.124.772.47 1.595.964 2.47 1.312 1.027.56.91.794.152 3.246-1.47 4.762-1.982 6.502-1.905 9.706.187 7.79 7.637 7.018 11.878 5.266l.178 5.13 15.973 22.42s-55.834-.058-85.707.43c1.706-4.08 19.765-21.37 20.84-24.464.103.015-2.002-6.32-3.108-9.077-5.223-13.015-12.088-18.486-8.112-27.037.855-1.695 1.004-2.266 1.654-2.263.882.004 1.165.588.172 2.246-4.27 7.135 4.838 19.443 7.915 27.294.493 1.257 2.555 7.148 2.917 9.132.034.607 1.48.813 1.075.105-1.134-4.01-2.558-8.39-3.22-9.968-2.432-5.797-4.99-9.752-7.36-15.417-1.326-3.58-2.03-7.714.025-11.426.748-1.352.96-2.103 1.455-2.174.425.002.675.146.702.494.03.38-.206 1.002-.765 1.95-3.588 6.088 2.79 15.924 5.95 22.937 2.06 4.572 3.893 9.38 4.54 13.718.01.3.407 1.093 1.198.552-1.367-8.1-5.385-15.956-8.904-23.526-3.008-5.91-4.136-11.066-.118-15.934.35-.336 1.1-.28 1.153.22.028.337-.23.978-.86 2.276-3.54 7.377 1.942 13.37 4.514 20.403 2.507 5.88 4.84 10.82 5.778 17.087.71.268 1.06.604 1.137-.283-1.835-8.856-5.79-16.814-9.223-24.482-1.585-3.33-2.146-4.93-2.253-7.16-.15-3.07 1.4-6.95 2.79-7.975.36-.265.585-.312.914-.134.45.243.36.406-.53 2.087-1.704 3.21-1.85 6.818-.27 10.633 2.727 5.86 5.025 10.668 6.653 14.975 1.782 4.712 2.783 8.803 3.188 12.496 0 0 1.213.54 1.033-.265-.757-5.166-2.47-10.528-4.318-15.064-1.745-4.28-3.93-8.403-5.703-12.648-2.15-5.09-.37-10.656 4.037-13.436l2.028.044c-.118-.053-4.624 1.73-4.86 8.15-.225 6.115 2.68 9.874 4.783 15.055 2.562 6.248 4.855 11.728 5.4 18.405.2.233 1.31.283 1.29.184-.544-4.492-1.86-8.76-3.74-14.01-1.996-5.578-3.982-8.05-5.835-13.908-1.254-3.962-1.085-9.33 1.708-11.78 4.18-4.21 10.012-1.213 8.55 3.605-1.127 3.392-5.787 2.718-5.762-.46-.006-2.052 2.528-2.606 3.366-1.058.196.302.326 1.62.413 1.67.087.05.35-1.038.35-1.28.01-1.686-2.285-3.105-3.994-2.25-2.34 1.172-3.86 3.867-3.705 7.474.164 3.836.86 6.318 4.01 12.335 3.67 7.01 4.888 14.6 5.67 19.715.34-.14.746.04.878 0-.535-6.973-2.833-14.135-5.7-20.09-3.474-7.21-4.446-11.623-3.287-14.854.17-.474.33-.83.54-.862.39-.058.51.56.87 1.855.11.397-.03 1.022-.11 1.504-.303 2.958 1.777 9.11 3.71 11.844.566.78 1.29.754.665-.63-1.99-3.575-3.204-6.815-3.364-11.16-.046-1.278 1.446-.704 1.48-.064.107 2.076.315 4.52 1.31 6.26 2.02 3.443 3.144 3.593 1.078-.25-.46-.893-1.773-4.664-1.244-5.96.295-.265.654-.312.83-.048.585 2.13 1.394 4.242 2.824 5.884.75.854.873.468.48-.598-.66-1.235-2.72-5.362-1.77-6.292.305-.252.126-.115.958 1.238 1.158 1.885 1.79 2.624 2.353 3.175.75.733.93.24.157-1.05-1.546-2.572-2.426-4.71-1.882-5.248.536-.532.666-.286 1.887 1.785.543.922 1.33 2.28 1.6 2.6.266.32.51.402.516.138-.285-2.5-2.44-5.35-3.307-5.846-.125-.232-.08-2.206-.08-2.206 3.236 1.66 3.368 3.534 5.513 6.42.22.215.534-.048.44-.446-.075-.54-1.344-2.94-2.14-3.995-.626-.828-.654-1.304-.123-1.543.857-.385 2.055.884 3.33 3.15.593 1.053 1.384 1.663 1.386 1.11.002-.303-1.1-3.015-1.86-3.8-1.266-1.305-.64-2.218.826-1.01.664.548 1.565.96 2.495 2.956.542 1.166 1.008 1.315 1.01.384.003-1.044-1.76-3.597-2.946-4.303-.92-.547-1.44-1.157-1.183-1.565.805-1.178 4.06 1.827 5.172 4.622.327.824.902 1.245 1.043.882.25-.186-.41-2.2-1.087-3.133-1.117-2.132-3.758-4.19-5.323-3.943-.303.048-1.134-1.698-1.134-1.698 3.99-.642 7.87 4.117 8.558 5.898 1.31 3.38 1.975 2.983.83.02-2.236-5.794-9.186-9.038-13.043-6.236-2.197 1.596-.883 5.412 1.376 4.765.9-.335 1.77-1.247.19-.946-1.757.175-2.317-2.488-.526-3.022 2.882-.86 3.543 3.712 1.215 4.73-2.417 1.03-4.82-.506-4.594-3.145.427-4.99 6.585-6.432 12.664-2.396 1.71 1.134 3.813 4.835 4.536 7.18.24.774 1.044 1.045 1.143.947.23-.228-1.69-4.346-2.32-5.393-2.648-6.033-12.218-6.33-12.218-6.02 0 0-3.748 2.348-7.077 6.217l-8.553-.784c21.792-34.833 23.505-86.047 1.152-122.303.286.184 4.297 1.216 5.68.133 1.02-.486 1.313-.654 2.44-.25 1.267.453 2.603.05 3.985-1.207 1.04-.947 1.06-1.24 1.73-1.153 1.985.256 3.302-.9 3.71-3.748.162-1.12.272-2.282.11-2.112-.094.1-.324 1.067-.47 1.675-.4 1.674-.773 2.287-1.428 2.833-1.08.9-1.703.396-1.252-.968.426-.88.78-3.145.194-4.175-.102-.186-.127.516-.275 1.077-1.18 4.463-2.413 6.73-4.55 7.252-1 .246-1.464.094-1.14-.48 3.766-3.996 3.515-8.423 3.23-8.044-.8 2.56-2.287 6.38-4.73 7.948-2.11 1.355-5.2 1.484-6.918.346-.976-.646.5-.837 2.708-.867 3.72-.05 7.198-4.995 6.62-9.164-.135-.77-.347.057-.65 1.324-1.372 4.515-3.727 7.684-9.105 6.738-.42-.074-.7-.35-.93-.508-.876-.604-.553-1.018 1.186-.792 3.892.505 7.277-3.124 7.256-7.51-.01-2.106-.313-2.08-.65-.514-.473 2.21-2.2 8.99-8.493 6.777-1.133-.612-1.75-1.394-1.348-1.51 3.67.738 7.033-.065 8.34-4.863.564-2.07.428-4.094-.145-5.788-.183-1.15-.57-2.03-.702-3.198-.35-3.133-.854-6.593-.703-10.022.3-.298.354-.233 1.41.465 2.073 1.372 3.642 1.056 5.75.243 2.713-.975 2.467-.8-.37 2.392-.59.665-1.19 1.477-1.257 1.603-.722 1.347.632.358 1.646-.91 1.41-1.764 1.706-2.17 1.984-2.17.094 1.907-.596 4.224-.954 5.785-.47 1.732-.463 2.132.645 2.577.48.192 1.406.57 1.92.816 2.32 1.103 2.108.205.257-.835-2.498-1.404-2.518-1.334-1.803-3.667.838-2.737 1.25-5.107 1.704-7.815 1.122-6.698-3.954-10.382-10.695-8.043-.386.193-.832-3.52-.77-4.503.06-.354-1.018-.277-1.902-1.357.27-.24-9.94-12.974-14.694-20.697 26.66-.033 53.44-.48 80.18-.475zm-16.58 23.93c.067.04.106.075.106.075-.044-.052-.08-.076-.105-.076zm23.11-23.323h28.592l.413 61.59-2.533.062s-4.773-8.176-6.03-12.038c-.315-.965-.864-2.293-1.078-2.814-.486-1.182-.826-1.328-.18-2.05 1.29-1.446 1.036-4.37-.22-5.78-.387-.457-.588-.302-.57-1.413.018-.956.108-1.567-.146-2.06-.424-.823-.71-.882-.104-1.788.636-.95 1.48-2.492 1.836-3.703.575-1.954.17-2.32 1.452-1.86 3.217 1.02 5.912-1.265 5.828-4.496-.07-2.718-2.625-5.143-5.595-4.4-.684.172-.82.114-1.874-.545-.302-.19-.762-.587-1.153-.735-.49-.186-.893-.17-1.096-.518-.398-.683-1.64-1.768-3.155-1.698-.925.042-2.125-.29-2.444-.456-.527-.274-2.008-.05-3.89-.332-.837-.125-1.512.2-1.918.204-1.158.014-.686-.13-.906-1.006-1.452-4.573-5.695-4.028-7.64-.588-.713 1.35-1.23 3.35-1.5 5.418l-11.424-.17zm-88.428.133c4.268 5.407 8.352 11.467 12.655 16.987 5.295 6.686 5.47 7.454 4.048 14.183-.795 3.803-1.135 4.68-2.747 4.394-1.512-.27-2.792.915-3 2.415-.386 2.816 2.34 4.55 5.08 3.14 1.443-.742 1.49-.822 1.01 1.633-.69 3.518-2.072 6.548-2.962 6.45-2.294-4.854-7.88-1.4-6.025 3.644-.58.88.182 1.996.474 2.918 0 0 .01.11-3.18 1.16-15.664 4.62-35.066 16.674-45.66 27.99l-.72-84.682zm89.89 11.554c.656-.016 1.29.192 1.81.66 1.367 1.222 1.046 2.93-.843 6.144-1.983 4.48-1.442 8.01-.987 12.713-.013 2.73-.94 5.327-2.416 6.45-2.39 1.817-5.34-.618-4.1-3.086.636-1.226 1.985-.51 2.302-1.67.114-.693.1-1.784.176-2.3-.285-2.063-.876-8.352-.878-10.535.025-1.88.644-4.242 1.5-6.012.835-1.475 2.18-2.33 3.435-2.363zm3.765 7.31c-.542.45-1.446.458-1.552-.104.004-.59.466-2.467.785-2.674 1.96-.458 1.335 2.29.768 2.776zm2.93-2.93c1.617-.063 2.684 4.063 1.28 6.477-.267.05-2.23.037-2.24.076-.033-.432.096-1.293.242-2.117.126-.705.2-1.24-.014-1.997-.53-1.89-.876-2.245.732-2.44zm3.083.057c.06-.002.123 0 .19 0 1.643.008 2.58 3.172 2.064 6.628-.074.497-.117 1.018-.3 1.134-.686-.185-2.594.493-2.627.488-.18-.183-.107-1.166.137-2.053.45-1.64.576-2.73.047-4.426-.38-1.466-.394-1.746.49-1.77zm4.095.91c1.807.303 1.924 5.29 1.182 6.91-.177.238-.858.18-1.1.27-1.536.438-1.194.667-1.016-1.77.123-1.672.152-2.97-.1-4.35-.122-.607-.17-1.03.27-1.07.257-.05.53-.04.765.01zm-9.01 1.95c.72.984.14 3.258-.408 4.102-.627.932-.878 1.01-.536 1.417.145.173.447 1.054.26 1.424-.343.684.54.807 1.344 1.224 1.302.68 1.934 1.934 2.907 4.215.34.794 1.034.544.697-.312-.29-.732-.4-1.81-.6-2.53-.21-.74.02-1.11.875-.893 1.284.326 1.107.02 1.576-.152 1.032-.57 1.724.237 1.1.684-.356.256-1.12.412-1.964.643-.717.197-.55.886.17.883.667-.003 2.576-.538 3.82-.914 3.57-1.08 3.69-1.652 3.356.375-.44 2.68-1.906 4.69-4.327 5.37-2.107.592-6.974.478-9.143-.214-2.06-.93-2.195-1.582-2.818-3.392-.854-2.478-1.356-6.672-.376-9.11.862-2.06.776-1.843 1.604-1.74.736.257 1.725-.028 1.945-.478.11-.215.39-.608.517-.6zm13.67 1.486c.204 1.102.223 2.236-.16 3.09-.223.4-1.473.378-1.956.383-.286.067-.264-3.725.043-4.137.727-1.09 1.666-.214 2.073.664zm-36.218-.655l3.535.043v.86l-4.17-.03zm12.37.147l.005 1.115-5.324.01v6.985l5.955.018.033 1.452-7.97-.028.024-9.547 7.278-.005zm27.06-.223c5.46 1.198 3.024 7.226.978 7.59-2.55.457-4.71.17-4.005-2.072.71-1.52.218-3.412.418-4.793.492-.455 1.777-.91 2.61-.726zm-41.147 2.116l5.252.052v1.153l-6.002-.013zm11.667 1.063c.84 0 1.52.678 1.52 1.517 0 .838-.68 1.518-1.52 1.518-.838 0-1.518-.68-1.518-1.518 0-.84.68-1.518 1.518-1.518zm14.82.6c.976.108 1.06 1.602.662 2.04-.512.506-1.468.29-1.76-.487-.262-.702.326-1.582 1.097-1.552zm-27.954.65l6.72.02v.935l-6.786.057-.18-.603zm37.822.404c.932-.022 1.503.762.92 1.43-.876.972-2.666-.518-.92-1.43zm-71.595 2.042c-1.503 1.27-.3 2.516 1.7 1.315 4.295-2.584 10.632-.535 14.764 1.617.808.415.92-.552.122-1.22-3.815-3.358-11.95-5.284-16.587-1.71zm65.106-1.766c1.05.005 1.035 1.313.36 1.78-.672.292-.79.21-1.237.036-.614-.24-.155-1.81.878-1.816zm3.718.02c1.243.062 1.105 2.563-.774 1.66-.68-.73-.24-1.665.774-1.66zm-34.727 1.29l6.53.056v1.063l-6.107-.063zm-42.196 2.5c1.784 1.415 1.23 1.5-1.727.46-1.933-.43-3.857-.156-5.068.323-1.432.566-1.764.402-1.144-.555 1.665-1.87 6.255-1.49 7.938-.228zm8.58 2.344c-.18.44-.79-.354-1.62-.2-1.18.22-.838.276.41 1.695 1.248 1.418 1.655 1.754 1.58 2.3-.113.804.113 1.246.915 1.158.384-.043.842.403 1.432.94 2.042 1.855 3.075 2.778 3.74 3.064 2.704 1.168 1.486-.15-.243-1.342-2.883-1.99-3.885-3.315-1.837-2.605 2.175.753 5.636.326 7.34-.7.84-.507 1.37-1.283 2.553-.904 1.66.532 2.297-.447 1.836-.996-.754-.483-2.475-1.06-4.11-2.16-3.496-1.773-7.173-1.72-9.622-.293-1.443.843-1.946.25-.53-.582 5.676-3.06 10.167-.13 13.802 2.068.63.383 1.07.352 1.072.08-.096-.887-1.713-1.432-2.367-1.83-5.064-3.082-10.386-4.064-14.354.308zm34.47-2.71l5.676.005v1.12l-5.257-.025zm-46.172 1.43c1.572-.01 4.99 1.402 4.935 2.57-.066.444-.922.046-1.666-.408-1.437-.878-3.644-1.113-5.72-.726-1.596.298-2.104.56-2.33.37-.552-1.238 3.323-1.8 4.782-1.807zm61.362.834l.01 2.007c-3.082.225-3.715 3.647-1.74 5.553 1.62 1.563 4.3.947 5.645-1.268.234-.394.262-.632.406-.437.09.122.17.495.242.86.214 1.052-.09 1.322-.787 2.224-1.127 1.458-1.28 3.296-.574 4.665.195.376.602.914.532 1.162.394-.012-3.498 10.88-9.184 16.368-.952.633-1.64-.11-1.15-1.132 4.63-10.584-4.23-20.416-7.668-29.874l14.268-.128zm-41.172 1.827l.81.07c-.652 4.877-5.383 4.092-5.57.12l.684-.024c.922 3.696 4.086 2.183 4.076-.165zm-26.73.1s.343.544.343.85c0 1.133-.018 2.775-.047 3.273-.274 4.692-6.228 5.56-5.775 1.547.354-1.705 2.508-1.894 3.037-.352.773 1.94.91-.467.92-1.22.63-1.18 1.093-2.616 1.523-4.1zm28.69.33c.243.008.68.22 1.024.59.392.42.246.63-.67 1.1-.99.51-1.437.466-1.08-.564.22-.638.412-1.132.725-1.124zm44.536.248c.134.006.48.184.398.693-.134.85-.87 1.335-1.063 1.134.123-.45.27-1.65.665-1.827zm-51.645 1.647c-.116.344-.32.194-.84-.247-.572-.487-.542-.798.048-1.148.85-.512.9 1.077.793 1.395zm-18.026-1.272c.994 3.14 3.02 2.74 3.925.152l.868-.014c-.19 4.042-5.308 3.97-5.352.06zm-1.793.39c.303-.05.085 1 .085 1s-.84-.433-.347-.892c.062-.057.218-.102.26-.11zm7.516.265c.104-.007.3.073.512.213.498.33.412.523-.156.997-.875.73-1.27.324-.797-.655.174-.364.306-.547.44-.555zm65.352.683c.37-.023.89.145 1.988.437 3.028.804 7.08.775 10.53-.176 1.088-.3 1.897 1.61 1.31 3-.26.612-.215.69.578 1.513 1.124 1.17 1.305 3.052.45 4.768-.62 1.25-.58 1.137.157 3.27.337.975.772 1.97.85 2.24.93 3.14 3.228 6.853 4.63 9.96 1.4 2.182-2.51.022-2.51.022s1.05 1.41 2.45 2.463c1.354 1.03 4.017.333 5.237 1.585.285.394-.277 8.727-.564 8.958-12.04-.56-32.12-.118-32.12-.118l3.764 5.865c5.92 2.364 11.578 1.772 16.99-1.633-.132.49 6.587 3.776 12.106 4.133l.033 3.948c-4.093-.458-8.242-.553-12.046-2.946 0 0-3.497 1.462-7 2.558l19.617 20.29.01 3.392s-8.374-7.816-16.992-16.626l.185 43.326 16.973.332c-.534 11.276-.318 18.444-.204 31.36-8.02 8.228-19.056 16.46-29.253 21.404-4.813-4.64-8.788-9.667-12.266-15.042-.074-.114.35-.33.277-.444-.105-.165-.708-.228-.817-.39-2.12-3.16-7.05-11.914-6.268-12.12 1.507.105 8.496-.76 9.888-4.95.01-.264-.152-1.01.038-1.887.492-2.27.744-5.718-.09-7.91-1.5-3.95 3.017-2.684 3.17-2.42l-.004-14.923c-5.88 4.714-11.812 9.353-19.673 11.293-4.89-24.643 2.864-55.29 24.968-76.075l-1.21-.104c-22.71 23.497-28.666 49.336-24.79 76.55 0 0 .143.85.165 1.137.053.678-.11.936-.712 1.425-.574.377-1.096.783-1.044 1.248.097.873-.743.902-1.842.896-.506-.443-1.187.116-1.594.318-.57.085-.853-2.24-1.58-.536-.277 1.076-.803 1.157-2.017.622-.763-.223-.78.156-.047 1.04 1.013 1.088 1.87 2.718 1.703 3.206-.372 1.096-.21 2.2 1.338 2.828-.087.008-.934 3.342 1.467 3.246.764.008 2.7.4 2.7.4.126.636-.08.998-.38 1.28l-1.67-.835-.436 1.988-2.224-.156 5.414 6.686.63-5.215 6.33.802c1.017 2.636 7.41 17.302 19.635 28.213 0 0-6.682 2.908-8.555 3.82l-1.163-4.156-1.048 1.508-1.87-.48-.22 1.71-1.665.536 2.904 2.192-7.464 2.27c-21.323-34.392-30.972-82.163-4.418-132.68l6.71.085-1.31 2.24 1.907-.304.54 1.633 1.4-.66 1.408 1.764 1.602-4.715s4.754.108 5.347.048c.465-.053 10.047-8.092 9.84-8.4-.148-.22-10.434 7.298-10.78 7.01 0 0-1.032.245-.227-.717 1.444-1.727 2.463-3.04 3.928-5.523 2.422-3.296 3.51-7.317 4.08-10.04.01-.192.063-.63-.1-.95-.922-1.83-.718-3.028.94-5.19.582-.757.617-.945.452-1.41-.374-1.05-.015-1.947.75-2.652.303-.28.5-.414.787-.432zm-56.535 7.317c4.21 1.73.83 5.56-2.298 2.22-1.64-1.75-2.934-1.638-3.825-.36-.402.576.183 1.588.702 1.267.482-.298.978-.652 1.68-.005 5.325 4.903 9.15-1.96 4.56-3.668-.568-.26-1.375.318-.82.546zm-17.344-.166c.04-.002.086.02.147.057.2.124.214 1.857.015 2.586-.666 3.69-3.298 12.27-8.698 8.07-2.144-1.666-.194-5.853 2.373-4.43 2.004 1.11.65 3.76-1.52 2.24-1.052-.74-.718.783.172 1.218 1.508.79 4.238-.562 5.518-2.97.51-.96.99-2.657 1.528-5.1.27-1.23.293-1.662.465-1.67zm.456 6.39c.443 2.67-1.59 7.345-4.48 8.034-2.215.53-4.952-.913-4.755-2.248.057-.387.215.125 2.22.456 2.802.462 4.585-1.05 6.198-4.532.51-1.1.726-1.683.816-1.708zm6.97 1.278c-.002.3-.146 1.096-.27 1.622-.3 1.25-.487 1.726.88 1.106.906-.417 2.228-.83 3.598-.07 1.51.836 2.95.68 4.73-.072 1.545-.513 2.298-.52 3.16-.023 1.575.905 1.034.327.83-1.955-.14-1.607-.578-1.395-1.143-.788-.37.4-1.12.487-1.954.038-.994-.534-2.38-.28-2.846.1-.467.38-1.14.43-2.055-.185-.606-.408-.944-.195-1.685.137-1.222.548-1.69.252-2.354-.26-.6-.44-.884-.302-.89.35zm-6.065 1.917c.16-.002.177.614.066 1.855-.508 4.577-4.092 7.126-8.312 4.91-1.848-1.054-1.597-1.798.223-1.138 2.903 1.05 5.833-.42 7.266-4.18.367-.966.618-1.447.76-1.448zm10.297 3.264c2.085.863 4.4.59 4.988-.176.66-.858-.354-.717-.884-.588-1.826.437-3.08.278-3.82-.052-2.162-.835-2.026.07-.284.816zm-21.766 2.567c2.705 3.31 3.06 3.957 5.39 7.72 17.032 28.91 22.486 65.446 11.29 98.614-3.074 9.153-7.408 18.48-12.267 25.974l-5.832.063 2.002-2.282-2.714.2-.166-1.51-2.06.665-.99-2.277-1.866 5.214-10.81.03c25.317-24.602 30.303-54.416 25.58-78.35 0 0 2.117-1.323 2.412-2.097.07-.188.23-.987.374-1.106.94-.616 1.567-1.214 2.03-1.097.268.068.406.19.6.475.89 1.307 1.083 1.51 1.57.194.35-.944.2-1.286 1.347-1.105.672.357 1.567.347 1.485.213-.06-.1-1.014-1.22-1.466-1.855-1.068-1.504-1.375-1.775-1.276-2.434.15-1.003-.65-2.085-1.148-2.357.144-2.704-.895-2.974-3.834-3.578-.015-.466.064-.845.27-1.262l1.727 1.376.627-2.554 2.344.128-6.795-6.576c.035 1.855.123 3.73-.047 5.518-3.185-.174-6.327-1.2-6.375-1.006-4.677-11.012-11.804-20.325-19.328-27.592l7.516-3.61 2.13 4.06.522-2.3 1.865.327.313-1.476 2.06-.29-2.273-2.16zm44.76 4.75c.287.362.517.387.9.716l-.768.545c.037-.516-.01-.78-.132-1.262zm-50.007 1.357c-.64 0-1.16.52-1.16 1.158 0 .637.52 1.153 1.16 1.153.636 0 1.152-.515 1.152-1.152 0-.638-.516-1.158-1.153-1.158zm6.27.183c-.64 0-1.158.52-1.158 1.158 0 .64.518 1.16 1.158 1.16.64 0 1.157-.52 1.157-1.16 0-.638-.518-1.157-1.157-1.157zm-20.203.847c3.722 3.093 7.143 7.123 11.293 13.428l-.085.85 1.267.47s6.903 9.085 6.538 13.123c-2.37.496-4.203-.38-8.44 3.584l-2.725-.593-2.865.698s.036.898.75 1.2c.31.132.822-1.125 1.157-1.086 1.393.16 2.796.183 2.54.622-.294.125-1.042 9.152.41 11.074.812 1.957.23 1.94-.497 2.302-.79.517-3.28-.575-3.28-.575l.576 14.335c6.566-7.49 20.433-12.486 19.45-11.943 6.96 36.765-9.588 61.29-26.91 79.27l9.078.05s-7.826 12.554-8.408 16.025c.444 1.153 1.675 3.543-.404 5.22-.703.77-.778 4.27-.778 4.27-4.773.164-8.91-1.493-14.415.436-.57.192-.695-2.996-.722-3.573-1.69-1.582-1.96-4.8-.5-6.472.543-.615.313-.29-.14-2.372-.726-3.324-3.14-7.882-4.978-10.808-.603-.96-1.206-2.08-1.353-2.425-1.313-1.558-4.766-.838-5.186-1.248-.38-.32-.628-8.82-.24-9.026 13.604 1.08 34.893-.156 34.893-.156l-5.712-7.98c-7.036-2.744-16.706 1.94-16.24 2.187.023.027-7.73-4.227-13.106-3.622l.177-4.17c4.777-.018 9.184.872 13.03 3.14l6.537-2.433-20.033-21.015.232-3.464s5.117 5.48 10.68 11.332c4.774 5.02 6.558 5.864 6.558 5.864l.015-43.587-17.225-.043-.46-8.907-.447-.778-.204-6.39.48-.65-.167-2.734-.16-.39-.22-6.528.37-.55.058-4.11c8.323-8.147 29.812-21.85 29.812-21.85zm14.714 1.238l2.01 8.797 1.346-1.67 2.07.65.14-2.026 1.885-.656zm68.45 1.463c-.64 0-1.16.52-1.16 1.16 0 .638.52 1.156 1.16 1.156.638 0 1.157-.518 1.157-1.157 0-.64-.52-1.16-1.158-1.16zm-5.42.725c-.64 0-1.158.52-1.158 1.158 0 .64.52 1.158 1.158 1.158.64 0 1.158-.517 1.158-1.157s-.52-1.158-1.158-1.158zm-66.37 1.025c-.638 0-1.157.52-1.157 1.158 0 .64.52 1.158 1.158 1.158.64 0 1.16-.52 1.16-1.158 0-.64-.52-1.158-1.16-1.158zm70.525.698l-8.057 7.577 2.26-.094.403 2.212 2.023-.926 1.636 1.51zm3.43 2.546c-.64 0-1.16.52-1.16 1.158 0 .64.52 1.158 1.16 1.158.638 0 1.157-.52 1.157-1.158 0-.64-.52-1.158-1.158-1.158zm-64.075 1.492c-.64 0-1.158.518-1.158 1.157 0 .64.52 1.158 1.158 1.158.64 0 1.158-.517 1.158-1.157s-.52-1.157-1.158-1.157zm5.01.968c-.64 0-1.157.518-1.157 1.157 0 .64.518 1.16 1.158 1.16.64 0 1.158-.52 1.158-1.16 0-.638-.518-1.156-1.157-1.156zm-4.545 1.722c.222 3.096.583 6.768.664 9.87l1.527-1.505 1.765.718.627-1.903 1.92-.095zm49.608 2.583c-.64 0-1.158.517-1.158 1.156 0 .64.52 1.158 1.158 1.158.64 0 1.158-.518 1.158-1.158 0-.64-.517-1.157-1.157-1.157zm-52.93.2c-.64 0-1.157.52-1.157 1.16 0 .64.518 1.157 1.158 1.157.64 0 1.157-.518 1.157-1.158 0-.64-.517-1.16-1.156-1.16zm57.52.283c-.64 0-1.158.518-1.158 1.157 0 .64.612 1.158 1.158 1.158.546 0 1.158-.518 1.158-1.158 0-.64-.518-1.157-1.157-1.157zm-.686 2.5l-6.68 6.87 2.188.204.688 1.95 1.4-1.186 1.7 1.244zm3.668 1.473c-.64 0-1.158.518-1.158 1.158 0 .64.518 1.157 1.158 1.157.64 0 1.157-.517 1.157-1.156 0-.64-.518-1.158-1.157-1.158zm-52.663 2.142c-.64 0-1.158.518-1.158 1.157 0 .64.52 1.158 1.158 1.158.64 0 1.158-.612 1.158-1.158 0-.545-.518-1.157-1.158-1.157zm-28.37.707l-2.173 1.665.535-.08s1.314 1.53 1.314 1.636c0 .108.806-.028.806-.028zm33.846 1.01c-.64 0-1.158.52-1.158 1.158 0 .64.518 1.158 1.158 1.158.64 0 1.158-.518 1.158-1.157 0-.64-.52-1.158-1.158-1.158zm-8.294 1.65c-.64 0-1.158.52-1.158 1.16 0 .64.518 1.157 1.158 1.157.64 0 1.157-.518 1.157-1.158 0-.64-.517-1.158-1.156-1.158zm47.83 2.334c-.64 0-1.16.518-1.16 1.157 0 .64.52 1.158 1.16 1.158.638 0 1.156-.52 1.156-1.158 0-.64-.518-1.158-1.157-1.158zm-4.57 1.698c-.64 0-1.16.518-1.16 1.158 0 .64.52 1.158 1.16 1.158.64 0 1.157-.52 1.157-1.158 0-.64-.517-1.158-1.157-1.158zm46.642.286l2.406 2.615v38.253l-2.35.047zm-93.65.27c1.96.003 4.144.286 4.84 1.477 1.08 1.336-1.22.82-3.156 1.11-1.79.22-.752.584 1.774.732 3.482.205 4.85.296 5.368 1.1.294.746.08 1.25.14 2.055l-3.95-.185c-2.052.003-3.256-.036-3.864.12-.484.122-.345.51-.18.677.086.086 1.66.107 3.497.156 4.946.13 6.04.297 6.39 1.888.266 1.46-.923 1.237-6.006.683-2.262-.184-3.48.348-3.806.508-.558.274 1.615.543 2.325.427.443-.07 3.705.283 4.905.508 1.01.153.12.125-.39.74-.337.51-.23 1.094-.758 1.38-.65.344-1.933.337-4.237.338-2.635 0-3.864.64-.247.797 2.336.1 2.468.06 2.667.735.527 1.664-.597 1.956-2.98 2.335-1.14.195-2.828.086-4.105-.005-5.04-.358-6.787-1.56-7.468-3.782-2.542-8.288.595-13.348 7.938-13.755.408-.022.848-.04 1.3-.038zm50.947.37l-5.692 8.28 2.195-.853 1.044 2.245 1.754-1.252 1.754 1.08zm-42.587 1.007c.295.362.165.632-.323.898-.412.224-1.116.058-1.58-.143-.612-.264-.674-1.358-.17-1.475.722-.145 1.62.192 2.073.72zm-41.23-.42l-3.112 2.978.095.114 4.1-1.613zm87.366 1.27c-.64 0-1.157.52-1.157 1.158 0 .64.518 1.158 1.157 1.158.64 0 1.158-.52 1.158-1.158 0-.64-.518-1.158-1.158-1.158zm42.38 1s2.9 2.865 4.09 4.068l-1.076-.005.028 2.26 3.43.037 1.885 1.845-5.24-.023v2.306l6.487.005-.034-.987 2.563 2.32.303 25.65-12.36-.037c-.048-12.632-.012-24.808-.077-37.44zm-84.796 2.782c-.178.555-.575.556-1.253.28-1.003-.408-.86-1.515-.1-1.632 1.435-.164 1.7.497 1.353 1.352zm3.89.484c-.64 0-1.157.518-1.157 1.158 0 .64.517 1.157 1.157 1.157s1.157-.517 1.157-1.156c0-.64-.518-1.158-1.157-1.158zm-4.075.887c.453.028.902.26 1.16.513.632.64.408 1.235-.3 1.604-.795.413-1.354-.15-1.585-1.092-.156-.635.215-1.004.726-1.025zm36.345 3.037c-.642 0-1.162.52-1.162 1.162 0 .642.52 1.163 1.162 1.163.642 0 1.163-.52 1.163-1.163 0-.642-.52-1.162-1.163-1.162zm-38.26 1.41c.996.033 1.297 1.052.777 1.598-.747.74-1.91.424-2.074-.284-.052-.797.597-1.315 1.296-1.315zm34.112.47c-.64 0-1.158.517-1.158 1.157s.517 1.157 1.157 1.157 1.157-.518 1.157-1.157c0-.64-.518-1.158-1.157-1.158zm4.112.767l-5.182 8.693 2.097-.83 1.272 1.675 1.31-1.143 1.978.967zm-40.66 1.453c.927.004 1.186.732.512 1.4-.457.453-.975.467-1.504.047-.8-.636-.187-1.453.992-1.447zm44.29.107c-.64 0-1.16.518-1.16 1.158 0 .64.52 1.158 1.16 1.158.638 0 1.157-.52 1.157-1.158 0-.64-.52-1.158-1.158-1.158zm-37.723.913c-.64 0-1.11.518-1.11 1.158 0 .64.518 1.157 1.157 1.157.64 0 1.158-.518 1.158-1.157 0-.64-.566-1.158-1.205-1.158zm85.84.256v2.458l6.53.005v-2.46zm-85.755 2.183l-2.5 9.133 2.092-1.19 1.305 1.332 1.214-1.495 2.182.57zm4.446.99c-.64 0-1.158.52-1.158 1.158 0 .64.52 1.158 1.158 1.158.64 0 1.158-.518 1.158-1.158 0-.64-.52-1.158-1.158-1.158zm-8.152.465c-.64 0-1.158.52-1.158 1.158 0 .64.52 1.158 1.158 1.158.64 0 1.158-.517 1.158-1.157s-.518-1.158-1.158-1.158zm89.457.722l.004 2.206h6.53l-.005-2.192zm-53.73 2.884c-.638 0-1.157.52-1.157 1.16 0 .638.52 1.157 1.158 1.157.64 0 1.158-.52 1.158-1.158 0-.64-.518-1.16-1.158-1.16zm53.734 1.235v2.377h6.53v-2.377zm-134.623.29l2.296.042.038 41.438-2.24-2.368zm-.96.08l-.113 37.875-4.35-4.575 1.158-.014v-2.58l-3.767-.03-1.608-1.564 5.37.004v-2.533l-6.37-.024v1.532l-3.133-3.34.05-24.73zm82.02 1.158l-3.485 9.01 2.19-1.247 1.135 1.115 1.172-1.057 1.993.973zm-91.69.432l-.032 2.425h6.434v-2.425zm95.64.488c-.64 0-1.16.52-1.16 1.158 0 .64.52 1.16 1.16 1.16.638 0 1.156-.52 1.156-1.16 0-.638-.518-1.157-1.157-1.157zm-7.88.13c-.64 0-1.16.518-1.16 1.158 0 .64.52 1.16 1.16 1.16.638 0 1.157-.52 1.157-1.16 0-.64-.518-1.157-1.157-1.157zm-27.247.43c-.64 0-1.157.52-1.157 1.158 0 .64.518 1.16 1.157 1.16.64 0 1.158-.52 1.158-1.16 0-.638-.518-1.156-1.158-1.156zm84.74.935v2.548h6.53v-2.548zm-84.882 1.438l-.968 1.495-2.216-.754 3.024 9.144 3.79-9.538-2.177 1.244zm-60.37.664v2.42h6.4v-2.42zm145.252 2.17v2.523h6.525l.005-2.524h-6.53zm-145.252 2.11v2.425h6.4v-2.425zm91.606.456c-.64 0-1.16.52-1.16 1.162 0 .642.52 1.163 1.16 1.163.643 0 1.164-.52 1.164-1.162 0-.642-.52-1.162-1.163-1.162zm-34.855 1.21c-.642 0-1.163.52-1.163 1.162 0 .642.52 1.163 1.163 1.163.642 0 1.162-.52 1.162-1.162 0-.642-.52-1.162-1.162-1.162zm7.43.218c-.642 0-1.162.52-1.162 1.163 0 .642.52 1.162 1.162 1.162.642 0 1.163-.52 1.163-1.163s-.52-1.163-1.163-1.163zm81.072.16v2.28h6.525l.005-2.28h-6.53zm-53.655 1.064l-1.386 1.457-1.988-.565 4.508 8.408 2.277-9.044-1.988 1.267zm-91.597.854v2.752h6.4v-2.752zm60.413 1.248c-.642 0-1.163.52-1.163 1.163 0 .642.52 1.162 1.163 1.162.642 0 1.162-.52 1.162-1.162 0-.642-.52-1.163-1.162-1.163zm-.076 2.396c-.496.352-.712.968-1.23 1.286l-2.115-.9 1.27 11.448 5.876-10.818-2.686.45zm-60.337.375v2.862h6.4v-2.86zm96.14 1.328c-.643 0-1.163.52-1.163 1.163s.52 1.163 1.162 1.163c.642 0 1.163-.52 1.163-1.162 0-.64-.52-1.162-1.163-1.162zm-7.517.133c-.642 0-1.162.522-1.162 1.164 0 .642.52 1.162 1.162 1.162.642 0 1.163-.52 1.163-1.162 0-.642-.52-1.163-1.162-1.163zm-88.623 2.693v2.866h6.4v-2.867zm92.816.64c-.64 0-1.162.52-1.162 1.162 0 .642.52 1.162 1.163 1.162s1.163-.52 1.163-1.162c0-.642-.52-1.163-1.162-1.163zm16.412.09c6.225.2 7.136 2.202 7.173 9.116.03 5.516-1.614 7.673-5.632 8.737-1.463.388-6.937.03-8.487-.468-.026-.474-.8-1.57-.975-2.414.396-.112 1.646.063 4.014.288 1.92.182 2.415-.126 1.808-.503-3.613-.852-6.072-.62-9.542-1.285-.05-1.038-.888-2.246-.888-2.246.19-.077 5.35.48 8.073.393 1.2-.05.477-.613-.007-.717-3.176-.454-5.238-.38-8.597-.805.093-.858-.345-1.64-.886-2.295 0 0 1.7-.016 5.2.037 1.843.03 3.447.105 4.253.078 1.353-.002 1.23-.633.057-.72-1.43-.16-7.062-.193-7.062-.193.42-.194.966-2.715.75-2.742 0 0 1.46.03 2.386-.005 4.513-.17 5.292-.097 5.376-.266.594-.542-1.008-.754-2.676-.75-.72.002-1.768.16-1.76-.232.007-.36-.01-1.098-.376-1.858 2.768-1.065 5.314-1.23 7.8-1.15zm-53.673 1.42c-.643 0-1.164.52-1.164 1.162 0 .642.52 1.163 1.163 1.163.64 0 1.16-.52 1.16-1.163 0-.642-.52-1.162-1.16-1.162zm44.407.242c.767.003 1.01 1.384.29 1.6-1.106.33-1.71.07-1.67-.585.02-.37.883-1.018 1.38-1.015zm-36.816 1.2c-.64 0-1.162.52-1.162 1.163 0 .642.52 1.162 1.163 1.162s1.163-.52 1.163-1.162c0-.642-.52-1.163-1.162-1.163zm33.106 1.305c2.632-.024 1.27 3.554-.754 2.263-1.003-.64-.297-2.255.754-2.263zm-41.603 2.86c-.054-.004-.083.05-.076.18l.607 10.877 6.33-10.16-2.515.936-1.083-1.642-1.357 1.07c-.56.438-1.616-1.232-1.907-1.26zm39.165 1.114c1.18.164 1.967 1.346 1.148 1.914-1.845.81-2.833-1.834-1.148-1.914zm-2.835 2.387c-.642 0-1.163.522-1.163 1.164 0 .642.52 1.162 1.163 1.162.642 0 1.163-.52 1.163-1.162 0-.642-.52-1.163-1.163-1.163zm4.472.985c1.005-.015 1.478 1.444.484 1.903-.214.098-.842.168-1.12-.038-1.175-.866-.567-1.773.635-1.865zm-43.528 1.794c-.642 0-1.162.52-1.162 1.16 0 .643.52 1.164 1.162 1.164.642 0 1.163-.52 1.163-1.163 0-.64-.52-1.16-1.163-1.16zm88.8 1.455l-4.31 1.448v2.037c1.88-.598 2.956-2.126 4.31-3.485zm-40.376.984c.748.313.95 1.325.31 1.665-.508.268-1.88.225-2.215-.216-.87-1.396 1-1.792 1.906-1.45zm-40.615.4c-.643 0-1.163.52-1.163 1.163 0 .642.52 1.163 1.163 1.163.642 0 1.162-.52 1.162-1.163 0-.642-.52-1.162-1.162-1.162zm-4.763 2.01c-.566 0-1.025.458-1.025 1.024 0 .566.46 1.025 1.025 1.025.566 0 1.025-.46 1.025-1.026 0-.566-.46-1.025-1.025-1.025zm48.324 1.728c-.642 0-1.162.52-1.162 1.163s.52 1.163 1.162 1.163c.642 0 1.163-.52 1.163-1.162 0-.64-.522-1.162-1.164-1.162zm-52.07.064l-.056 10.272 6.852-8.408-2.378.518-1.015-2.083-1.467.954zm43.49 2.366c-.64 0-1.16.52-1.16 1.162 0 .642.52 1.163 1.16 1.163.643 0 1.164-.52 1.164-1.163 0-.642-.52-1.162-1.163-1.162zm34.29.04l-1.125 1.916 3.19-1.77zM395.778 563c-.642 0-1.163.52-1.163 1.163 0 .642.52 1.162 1.163 1.162.642 0 1.162-.52 1.162-1.162 0-.642-.52-1.163-1.162-1.163zm3.916 1.254l-1.39 1.984-1.832-.588-.54 1.888-2.197-.08 7.14 6.215zm-55.66.794c-.642 0-1.162.52-1.162 1.163 0 .642.52 1.162 1.162 1.162.642 0 1.163-.52 1.163-1.162 0-.642-.52-1.163-1.163-1.163zm107.08 1.67l.58 85.18-40.602.086-16.717-22.826c-.344-3.72-.144-7.536 1.42-12.527 1.636 1.133 5.216.515 5.095-3.874-.08-2.875-4.51-4.345-6.717-2.183.114-2.778 1.242-6.953 2.866-8.184 1.115 1.013 1.36 2.513 3.883 2.094 1.792-.298 3.21-2.3 2.434-4.634-.2-.592-.306-1.312-.303-1.793.002-.482.046-1.338-.048-1.818-.124-.633-.17-1.32-.17-1.32 21.63-6.787 37.097-17.65 48.28-28.203zm-98.94 1.462c-.643 0-1.163.52-1.163 1.163 0 .642.52 1.162 1.163 1.162.642 0 1.163-.52 1.163-1.162 0-.642-.52-1.163-1.163-1.163zm-5.483 1.136c-.64 0-1.16.52-1.16 1.162 0 .642.52 1.163 1.16 1.163.644 0 1.164-.52 1.164-1.163 0-.642-.52-1.162-1.163-1.162zm57.526.56c-.642 0-1.163.52-1.163 1.162 0 .642.52 1.163 1.163 1.163.642 0 1.162-.52 1.162-1.163 0-.642-.52-1.163-1.162-1.163zm-61.694 1.24l-1.812 10.823 7.914-8.09-2.15-.047-.426-1.845-2.012.65zm53.813 2.31c-.642 0-1.163.52-1.163 1.16 0 .643.52 1.164 1.163 1.164.642 0 1.162-.52 1.162-1.163s-.52-1.163-1.162-1.163zm5.13 1.26c-.643 0-1.164.52-1.164 1.163s.522 1.164 1.164 1.164c.642 0 1.162-.52 1.162-1.163 0-.64-.52-1.16-1.162-1.16zM337.59 576.1c-.642 0-1.162.52-1.162 1.162 0 .642.52 1.163 1.162 1.163.642 0 1.163-.52 1.163-1.163 0-.642-.52-1.162-1.163-1.162zm68.498.878l-1.893 1.437-1.74-1.064-.41 2.3-1.484.777 6.23 4.366zm4.604 3.095c-.642 0-1.162.52-1.162 1.162 0 .643.52 1.163 1.162 1.163.642 0 1.163-.52 1.163-1.163 0-.642-.52-1.162-1.163-1.162zm-65.738.392c-.642 0-1.162.52-1.162 1.163 0 .642.52 1.162 1.162 1.162.642 0 1.163-.52 1.163-1.162 0-.642-.522-1.163-1.164-1.163zm-5.162 1.52c-.642 0-1.163.52-1.163 1.16 0 .643.522 1.164 1.164 1.164.642 0 1.162-.522 1.162-1.164 0-.642-.52-1.162-1.162-1.162zm67.922 3.072c-.642 0-1.162.52-1.162 1.162 0 .64.52 1.162 1.162 1.162.642 0 1.163-.52 1.163-1.163s-.522-1.163-1.164-1.163zm-4.873 1.04c-.642 0-1.162.52-1.162 1.163 0 .642.52 1.162 1.163 1.162.642 0 1.163-.52 1.163-1.162 0-.642-.52-1.163-1.163-1.163zm-45.006 1.655c.008 0 .015.005.02.01.13.14.534 1.197.175 1.736-.185-.087-1.02-.865-.807-1.13.1-.12.504-.617.612-.616zm-26.38 1.824s1.125.058 1.37.166c0 .286-.27.914-.573 1.618-1.518 3.512-1.75 7.45-.21 11.245 2.42 5.15 9.25 17.338 8.742 18.453l-15.09.062.066-2.295c4.24-.166 4.907-2.76 3.85-4.902-.734-1.484-2.788-2.334-4.666-1.554-2.712 1.124-2.88 2.464-3.847 4.54l-.433-.547c.815-1.083 1.087-2.122 1.02-3.308-.066-1.163-.1-.842.306-1.48 2.362-2.537.816-5.84.816-5.84-.283-2.03 7.065-14.97 8.647-16.16zm-34.505.332c4.29 3.414 8.006 14.916 7.782 15.093-.2-.16-3.458 3.696.052 7.29 0 0-.215 2.16.46 3.27-1.55 3.215-1.823 3.458-1.955 6.1-.028-.01-.268-.03-1.707-.037-7.11-.034-7.442 9.008-.337 9.504.973.068 1.307-.152 1.893.427.594.738 1.128 1.48 2.144 1.096.24.002.632.228 1.04.608.682.924 1.673 1.582 3.088 1.328.502.05 1.015.193 1.556.39.623.49 1.703.862 2.548.493.252-.11.736-.148 1.13.032 1.027.468 2.073.175 2.458-.12.953-.493 1.165.3 1.12 1.03-.487 1.675.582 3.243 2.2 3.86 3.415 1.054 5.136-1.046 5.87-5.21.182-.914.342-2 .342-2l11.43.3-16.412 19.022-27.938.342-.147-62.847c1.227-.073 2.153.028 3.382.028zm102.78 3.392c2.085.804 2.25 2.276.176 1.637-3.372-1.038-7 1.022-7.758 3.967-.14.543-.29.954-.375 1.058-.472.57-.45.05-.31-1.585.274-3.173 2.518-5.47 5.444-5.565.957 0 1.99.2 2.822.488zm-1.034 2.245c.872 0 1.795.255 2.484.855.782.858.55 1.427-.05 1.397-2.826-1.18-6.417.248-7.824 3.814-.863 2.19-1.02 1.016-.636-.677.707-3.067 3.04-5.333 6.026-5.388zm-19.644.844c-1.233.004-2.403.247-3 .81-1.13 1.07-.19 1.087 1.86.376.998-.347 2.917-.187 4.143.237 1.03.355 1.39.505 1.334.185-.053-.962-2.282-1.617-4.336-1.61zm23.027 3.58c.52 1.188.184 3.284-1.632 3.496-2.14.25-3.246-3.338.663-2.71-.505-1.436-2.26-1.04-3.124-.675-1.764.77-2.966 2.505-4.047 5.69-.322.944-.557 1.438-.68 1.343-.204-.158-.3-1.626.17-3.393.85-3.186 2.925-5.11 5.12-5.172 1.423-.217 3.08.39 3.53 1.42zm-30.626-1.384c-.19.043.144.712.664 1.75.288.576.484 1.32.484 1.467-.003.565.43.704 1.068.342.735-.418.852-.734 1.893-.27.98.515 1.947.84 2.842.317.485-.283.807-.27 1.746-.023 1.122.294 1.27.34 2.108-.01 1.07-.448 2.34-.142 2.61.16.257.286.107-.11.688-1.46.27-.623.656-1.382.55-1.595-.144-.288-1.117.03-2.178.308-.573.15-1.12.106-2.22-.204-2.32-.655-3.78-.467-5.234.222-.812.385-2.847-.146-4.902-.982-.05-.02-.09-.03-.118-.024zm4.563 6.21c-1.046-.014-1.995.644-2.43 1.548-.504 1.255.354 3.52 1.66 3.715 1.164.173 1.12-.538.535-.73-.887-.29-1.93-1.56-1.255-2.662.463-.758 1.864-.754 2.838.18 1.963 1.883 4.21 2.008 4.637.374.13-.653-.37-1.523-1.136-1.286-.593.184-1.965.24-3.112-.54-.595-.405-1.19-.59-1.737-.6zm20.72 5.98c5.01-.3 2.856 6.54-.035 4.785-1.033-.627-.575-2.93 2.17-2.89-2.693-2.096-4.527.458-3.87 3.323-.603.935-.77 2.716-1.167 3.725-.61 1.15-1.088-1.864-.473-4.778.595-2.82 1.603-4.058 3.376-4.164zm-28.33.237c-1.035.012.028 1.125.19 1.258 3.12 2.45 4.644 3.962 2.134 3.156-4.076-.97-5.127.183-8.23 1.552-.572.273-.733.103-1.42-.1-2.728-.807-2.528.904.322 2.448 4.305 2.332 7.86 2.858 11.203 1.11 2.15-1.122 2.26-.387.26.855-3.42 1.996-7.023 1.693-12.554-1.75-1.786-1.113-2.035-.37-.208.802 4.177 2.522 9.8 4.81 14.392 1.086.903-.802 1.085-1.22 1.78-.873 1.835.917 1.23-.68-.02-2.182-.442-.532-.77-.96-.74-1.324.104-1.306-.618-1.3-1.276-1.268-.788.038-.7-.225-1.666-1.286-1.41-1.55-3.13-3.206-4.166-3.483zm-41.685 6.937c-1.734.137-2.132.215-1.71 3.768.08.668.38 2.67.462 3.42 1.028 9.304.195 13.42-2.396 14.558-.933.41-1.85.26-2.534-.014-1.64-.656-2.316-2.648-1.125-5.02.32-.64.708-1.627.863-2.197.155-.57.505-1.82.773-2.78.653-2.333 1.007-5.882.622-9.272-.26-2.302-.204-2.495.37-4.048 1.26-2.294 2.073-3.468 4.724-3.497 2.965.31 3.796 4.798-.05 5.082zm63.74-.204l-.813.038c-.978-3.252-3.02-2.2-3.358.083l-.69-.007c.12-4.342 5.55-3.165 4.86-.114zm-76.19-2.428c5.536.548 6.545 1.924 6.98 8.61.04 3.237-.173 5.19-.67 5.928-.83.398-1.623-.347-2.805.403-.65.396-.525.437-.805.006-.263-.406.045-2.113.47-3.477.404-1.3-.29-2.057-2.122-3.725-.497-.452-.932-1.078-1.377-1.974-.953-2.557-1.437-1.43-.643.775.393.95.484 1.42-.71 1.01-.7-.242-1.314.044-1.855.332-1.52.387-2.83-.443-1.51-.942.8-.304 2.24-.744 2.684-.742.322.002.478-.072.478-.223.003-.64-2.928-.57-5.163.2-2.746 1.263-2.903 1.038-2.65-.928.643-4.985 5.283-5.594 9.696-5.254zm54.148.435c1.416-.063 2.716 1.56 2.458 2.938l-.674-.042c-.316-2.593-2.768-2.704-3.42.2l-.973.023c.62-2.24 1.642-3.073 2.61-3.117zm16.462.053c.56.33.17 1.228-.425 1.41-.225.055-.938-.442-.767-.744.32-.365.81-.556 1.192-.666zm6.345.44c.39 0 .895.198.963.722.022.767-.56.608-.754.54-.386-.36-.533-1.234-.21-1.263zm-19.41.613c1.038.12 1.415 1.425.238 1.508-.526.108-.55-1.196-.237-1.51zm-6.315.14c.124.003-.068 1.073-.327 1.23-.513.312-1.168-.028-1.144-.35.06-.773.994-.884 1.472-.88zm18.112 2.602c1.976.748 4.547 1.475 6.965.63.88-.332 1.587-.73 1.585-.354-.002.392-.7.987-1.964 1.34-2.603.73-4.488.45-6.277-.894-.505-.38-.68-.728-.31-.722zm-.817 1.116c3.207 1.87 6.102 2.057 8.708.693 1.055-.365 1.09-.03 1.086.647-4.694 4.126-10.563-.157-9.793-1.34zm-78.718 2.85c-.796 1.604-1.224 5.554-2.522 6.725-8.86-.51-3.16-12.195 2.52-6.725zm54.907-1.31c-.5.264-.058 1.52.73 1.86 6.778 2.917 10.253 3.264 14.108 1.922 1.596-.555 2.47-1.86 2.548-2.495.094-.755-.937-.83-2.743-.03-5.495 2.156-8.942.476-13.38-1.194-.41-.153-.83-.207-1.263-.06zm-25.95.09l-.024 9.88-6.453-.114.076-1.46 4.83.14-.075-7.055-5.603-.053-.01-1.31 7.26-.028zm1.5.025l6.438.01.323 1.005h-6.76v-1.015zm-25.98 3.137c-.422.38-1.16.463-1.465.156-.682-.688.006-1.953 1.096-1.945 1.09.01 1.182 1.062.37 1.79zm2.967-1.607c.974.005 1.296.913.555 1.647-.502.457-.76.486-1.21.152-.57-.5-.272-1.766.654-1.8zm-6.354.245c.256-.01.48.016.645.27.593 1.212-1.35 2.05-1.755 1.15-.3-.733.456-1.396 1.11-1.42zm36.413.132l.375 1.272-7.42.033v-1.272zm-26.564.366c1.105.133.935 1.246.42 1.74-.88.818-1.737.553-1.512-.544.14-.687.585-1.183 1.09-1.196zm-5.97 3.643c-.39 1.39.444 4.205.195 4.5-.54.64-1.41.312-1.797.093-1.34-.86-1.426-5.91-.128-6.212.833.42 1.393-.328 1.774-.437.382-.11.126.578-.043 2.056zm19.617-2.074c.73 0 1.324.593 1.324 1.324 0 .73-.592 1.324-1.323 1.324-.73 0-1.324-.593-1.324-1.324 0-.73.593-1.324 1.324-1.324zm5.87.17h7.59c.456.634.41 1.062.28 1.5l-7.87.01v-1.51zm-22.295.173c.346-.005.52.737.288 1.584-.42 1.53-.396 3.613-.11 4.516.193.623.383 1.05.27 1.23-.392.62-1.595.195-2.106-.623-1.247-2.312-1.048-6.626.44-6.292.56.28.88-.158 1.218-.416zm-6.692.58c-.367.587-.106 3.872-.143 4.144-.046.342-.986.165-1.51-.072-1.287-.604-.937-2.14-.687-3.378.282-.973.902-1.046 1.666-1.134.423-.048.98-.01.674.44zm10.326.182c.41-.014.467.288.374 1.504-.074.952-.11 1.764.046 2.662.33 1.908.37 2.426-.108 2.8-.57.443-1.337.31-1.93-.214-1.22-.966-1.3-5.702-.343-6.112.89.222 1.45-.482 1.96-.64zm26.22 1.433l-1.092 1.5h-6.472l.005-1.496 7.558-.005zm-23.08 2.006c1.01.012.844 1.798.3 2.92-.46.676-.798.745-1.49.11-.786-.722.148-3.034 1.19-3.03zm21.19.5l-.91.835-4.745.005v-.83l5.657-.01z" fill="#131f67"/><path d="M457.24 668.32v-2.96h3.028l6.403-9.824-6.898-15.267h-2.53v-3.228h9.755v3.227h-3.138l4.82 11.922 3.513-4.622v-7.3h-2.577v-3.228h8.73v3.227h-3.036v25.09h3.036v2.96h-8.73v-2.96h2.467v-11.606l-8.17 11.606h3.084v2.96zm-42.656-23.002c-7.172-2.587-10.097-11.53-6.03-20.358 5.45-11.83 13.583-19.425 19-30.583-.064 0 10.628 15.706 14.898 21.532 9.16 13.22 8.7 24.1-.172 28.393-6.372 3.083-12.905-.46-13.657-7.125-.117-1.04-.187-1.178-.67-1.18-.534-.003-.633.368-.766 1.908-.512 5.93-6.945 9.453-12.603 7.412zm44.122-23.03c2.778-6.536 6.012-10.036 9.404-16.97 2.735 5.363 7.793 11.152 9.492 16.57 1.275 4.19.284 7.596-2.45 8.612-3.177 1.18-5.56-.155-6.192-3.134-.253-1.193-.856-1.075-.89-.175-.105 2.923-3.47 4.2-6.165 3.428-1.547-.444-4.322-3.603-3.2-8.33zm-150.268-26.673l-7.867-6.17c9.358-.204 18.712.012 28.068.172l-9.344 6.658c-1.913-2.09-3.043-4.898-5.758-6.253-2.02.834-3.404 3.712-5.098 5.593zm69.007-2.15c-.16-.024-.29-.037-.384-.097-.214-.134-.353-.436-.51-1.427-2.335-10.89-13.814-10.12-13.738-9.8-.086-.428 14.267-13.387 22.704-23.555 2.55 7.77 10.28 25.522 9.957 25.458 0 0-2.236.018-8.035-.126-5.278 2.383-8.95 4.703-8.777 8.063-.028 1.183-.313 1.675-.708 1.573-.055-.012-.284-.052-.507-.087zm25.773-35.055c7.467-.116 8.875-3.764 9.726-4.203 4.904-.807 7.935 2.385 10.084 5.8 2.744 1.653 2.4.128 2.97-2.446l6.834-2.002-.008 2.177c-2.11 1.136-5.24 4.047-5.24 4.047l-2.08-.123-1.193 1.59c-4.747 2.567-9.4 5.627-14.41 7.61 0 0-5.996-7.754-6.682-12.45zm-93.032.683l-.077-43.058c3.088-.218 8.774-.19 8.774-.19 2.377-4.196 5.62-6.17 8.96-8.607.47 5.308.65 10.378.542 15.688-8.848 10.8-13.764 24.093-8.307 43.96l-3.275-.363zm48.896 2.414c2.52-8.982 4.477-18.094 5.288-27.503l16.846-.25.336 5.77zm57.362-19.607l-.313-16.11c12.294-14.688 13.022-27.497 8.462-43.69 4.06.933 6.152 4.1 10.022 8.463l.002 42.01c-2.69.4-9.355.792-9.355.792-.2 1.97-5.834 6.675-8.816 8.535zm-52.057-25.39l-.75-7.105 21.89-20.907c-1.807 9.06-3.993 18.362-4.63 28.006zm-36.32-22.19c-1.56 1.024-7.32-4.96-8.262-8.983 1.444-1.95 14.118-8.16 14.118-8.16s7.407 9.507 7.104 13.472c-3.29.873-6.143 1.122-8.64 3.804-1.43.128-1.932-1.48-4.32-.134zm-9.995-8.038c1.763.283.632 2.662.362 4.403l-9.315 2.76c3.202-2.73 5.472-5.056 8.952-7.163zm30.33-21.02c1.913-.058 3.91.732 5.386.137.552-.216 1.655-.55 2.864-.32 2.784.86 3.76-2.207 5.535-2.22 2.297.006 3.57-1.6 3.586-4.82.007-1.39.123-1.547.385-1.685.783-.415 1.62.166 1.724.93 1.647 5.927 5.807 11.256 12.366 10.832-5.223 5.323-21.11 21.687-21.11 21.687-2.863-8.72-6.664-16.833-10.737-24.542zm67.586-5.107l9.57-6.945 5.727 6.97 4.952-6.635c2.91 2.084 9.53 6.732 9.53 6.732s-19.848.293-29.78-.122zm-99.783-3.545c2.013 1.424-19.176-24.29-21.62-33.38-1.83-5.36-.453-11.906 3.537-14.712 6.757-4.753 14.684-2.853 16.188 5.147.426 2.27 1.135 2 1.384.006.903-10.19 13.42-10.935 18.234-3.826 3.297 4.866 3.32 12.604-1.45 20.352-1.155 2.46-16.373 25.71-16.273 26.414zm-40.456-9.8c-2.84-5.538-7.057-11.12-9.29-16.29-1.677-4.226-.258-8.603 2.867-9.413 3.08-.798 5.315.472 5.9 3.352.197.975.585 1.047.777.145 1.16-5.447 8.84-4.27 9.368 1.436.337 3.635-.61 6.036-5.095 12.914-1.084 2.23-4.014 5.46-4.528 7.855zm1.495-34.974h3.197l-4.7-11.53-3.592 4.87.022 6.66h2.523v3.435h-8.885v-3.434h2.926v-24.802l-2.926.006v-3h9.02v3.102h-2.492l-.054 12.09 7.873-12.192h-2.778v-3h9.593v3h-2.53l-6.482 9.965 6.344 14.83h2.818l.014 3.436h-9.864z" fill="#d40000"/><path d="M421.417 397.196l-87.972.565 17.096 22.834c18.163-3.698 33.974-1.295 50.383 1.57zm-2.25 1.158l-5.855 7.274c-1.62-1.465-5.236-.936-4.724 2.27-4.488-2.334-5.44 4.07-1.63 3.808-.477 1.258-4.324 1.59-5.41-.692-3.948 2.213-5.154.066-6.2-1.33 5.02 3.408 7.46-3.595 1.936-3.99 2.17-4.39-5.57-6.382-5.115-.668-5.107-1.158-3.936 6.027-.186 4.555-2.436 3.663-6.432 1.203-7.24.49-2.056 1.54-5.94 1.59-7.028-.874 5.682 1.143 5.06-6.34.014-4.617 2.69-5.747-6.26-4.974-4.086-.266-5.09-.194-3.964 6.084.508 5.015-3.973 3.744-6.95.254-7.578.18-2.352 2.594-6.483 1.173-7.05-.36 4.052 1.6 5.38-5.21.272-4.8 1.31-4.386-6.043-4.918-4.42.064-4.05-.917-4.272 5.57.266 4.56.28 1.776-3.29 3.477-5.485 1.76-1.61.882-3.374 2.254-5.47.223 3.193-.515 3.717-5.91-1.44-4.745.247-3.313-1.655-3.494-4.005-2.653l-3.766-5.1zm-60.687 8.138c-.28.617-.753 1.038-.642 1.508.09.386.487.92 1.04 1.647 4.402 5.737 13.325 5.545 16.01-.37.547-1.098.435-1.348-.223-2.282-.796-1.13.103-2.332 1.077-2.23 1.454.15 1.706 1.418 1.006 2.32-1.52 1.912 2.653 6.238 6.818 6.918 5.34.872 10.403-2.884 9.698-6.25-.04-.192-.14-.372-.18-.573-.568-2.818 3.9-1.468 2.292.327-.604.65-.93.843-.85 1.556 1.298 5.963 8.548 6.588 12 4.75-4.454 7.266-11.51 1.666-12.754-3.41-6.255 9.03-13.77 7.153-17.96-.784.496.494-8.25 14.226-18.177.146-4.202 11.333-11.865 3.672-11.34 3.207 3.52 1.96 9.912 1.25 10.53-4.81.083-.75-.484-.796-.813-1.387-1.664-2.996 3.706-3.017 2.468-.284zm-16.54.745c.795.074.928.405.796 1.214zm68.264 2.13l-1.153 1.447c-.273-.708-.28-1.358 1.154-1.447zm12.54.48c-2.735.115-4.85 3.896-4.71 8.94.067 2.444.497 8.58.664 9.494.233 1.276-.02 3.007-.47 3.19-1.184.48-1.63.79-1.95 1.356-.83 1.47-.144 3.13 1.608 3.872 1.252.53 2.837-.202 3.91-1.803.596-.89.736-1.285 1.262-3.52.242-1.03.22-2.738-.057-4.304-.63-3.562-.16-8 1.064-10.082 2.196-3.737 2.156-6.185-.114-6.957-.41-.14-.814-.2-1.205-.184zm-.14.57c3.184.01 3.098 3.188 1.332 4.165-.685.306-1.52.378-2.358-.17-.94-.544-.812.076.16.782 1.144.83 1.63.778 1.017 2.724-.573 1.81-.873 5.727-.56 7.952.857 6.087.132 9.122-2.43 10.178-1.262.52-2.625-.213-2.976-1.227-.55-1.587.427-2.95 2.838-2.568 0 0 .17-.506-.456-5.79-.87-7.348-.528-12.48.82-14.272.722-.957 1.653-1.778 2.61-1.774zm21.603 7.576c-.745.007-1.546.21-2.363.67 0 0-.09 3.304-.185 3.805-.543 2.796-.384 3.13.92 3.525 3.16.963 5.756-1.134 5.64-4.422-.064-1.847-1.78-3.595-4.013-3.577zm.427.442c1.728-.052 3.296 1.968 3.127 3.872-.09 2.278-2.27 3.52-4.222 3.122-.578-.09-1.176-.198-1.362-.632-.392-.604.238-.823 1.55-.816 1.44.006 1.707-.19 2.184-.997.946-1.596-.264-3.62-1.808-3.24-.526.13-.603.367.014.54 1.892.853 1.188 2.042.532 2.525-.78.573-2.07-.213-2.292-.688l.133-3.085s.624-.585 2.144-.602zm-19.483 14.292s-.72.344-1.067.664c-.764.706-.924 1.774-.55 2.824.165.465.14.543-.44 1.3-1.656 2.156-1.87 3.233-1.022 5.177.386.884.39.884.025 2.05-1.56 5.007-4.638 10.68-7.924 14.61-.507.608-.71 1.23-.71 1.23s.768-.04 1.195-.252c3.395-1.69 6.982-4.962 10.316-7.108-5.272 4.277-10.89 8.104-10.89 8.104l7.175.385c-1.8 1.846-33.26 28.502-24.906 76.312 9.82-2.443 14.39-6.494 19.624-11.18.05 3.853.133 14.22.166 14.22.1-.17-4.544-1.748-3.44 2.075.657 2.097.99 7.405-.175 10.4-.05.127.5.33.446.447-.062.135-.744.137-.744.137-1.784 3.327-6.376 4.056-8.64 3.955-.835-.08-.497 1.066-.387 1.48.42 1.712 2.393 5.38 6.08 11.27l.967.127-.56.517c.434.792 1.598 2.283 1.598 2.283l.05.505s2.022 2.815 3.107 4.136c.074.09.243-.123.318-.034.6.724 1.324 1.534 1.936 2.256.047.055-.095.262-.046.314 1.152 1.256 3.418 3.795 3.418 3.795l.45-.108 1.78 2.007c14.78-6.72 30.226-21.588 30.065-21.556l.127-31.998-17.5-.052-.074-42.39 17.48 17.282-.114-4.958c-3.964-3.77-19.9-19.848-19.9-19.848 2.32-.323 4.566-1.077 6.743-2.26 3.8 2.092 7.865 3.35 12.522 2.73l-.02-4.703c-5.286-.008-8.565-1.76-10.936-3.875l-3.264-.11c-6.03 4.586-10.294 2.458-14.88 1.557l-3.17-4.565 32.47-.166-.233-11.078-4.93.11-3.202-2.37 3.716 1.572s-.06-.61-.802-1.77c-2-3.27-4.54-8.083-6.064-12.28-.737-2.132-.736-2.044-.114-3.293.854-1.715.67-3.793-.455-4.962-.792-.824-.767-1-.507-1.614 1.054-2.43-1.49-3.325-1.5-3.17-5.438 2.097-12.733-.062-12.602-.127zm12.65.882c1.087-.01 1.205.467 1.2 1.275-.09 1.483-2.02 2.02-2.893 2.226-4.172.956-11.446.39-11.92-1.555-.347-1.43.544-2.224 3.507-1.514 4.762 1.024 7.71-.076 10.107-.43zm-13.465 4.127c.433-.003.952.438 1.1 1.158.127.615-.513 2.425-1.048 2.842-1.326 1.033-2.523-.573-1.637-2.32.51-1.007 1.028-1.676 1.585-1.68zm14.235.204c.198.006.552.047.782.21 1.05.743 1.15 3.315.167 3.687-1.002.378-1.93-.665-1.923-2.3.005-1.004.378-1.61.973-1.596zm-3.336.533c.214-.01.44.035.674.142.875.404 1.3 3.1.43 3.962-.672.667-2.12.63-2.542-.754-.505-1.656.284-3.292 1.438-3.35zm-7.398.076c1.282.007 1.573 2.858.318 4.032-1.05.98-2.65.015-2.15-1.93.252-.974.828-2.035 1.832-2.103zm3.645.454c1.877.32 1.718 4.914-.74 4.456-1.4-.977-1.36-4.387.74-4.456zm-8.203 4.92l2.652.247s-3.434 7.43-6.573 10.27c-1.174 1.19-1.85 1.24-.958-.03 1.967-2.43 4.877-10.485 4.877-10.485zm15.9.048c1.55 4.13 3.14 8.323 5.253 12.546-3.213-3.097-6.06-7.858-8.684-12.328zm-12.47.4l1.756.018c.584 2.675 1.596 4.38 2.785 5.845 1.03-1.738 1.68-3.648 2.31-5.684l1.396-.018c.534.318-1.642 8.38-3.772 9.362-2.257-1.833-4.16-6.786-4.475-9.523zm-.74 1.906c-.147.193 2.727 7.1 5.158 9.314 2.29-2.223 3.753-5.153 4.735-8.645l7.54 10.58-7.35-5.028c-1.468 2.437-3.027 4.763-4.897 6.7-2.017-2.183-3.763-4.772-5.594-7.233-2.837 2.102-4.827 4.346-8.51 6.306.018.083 7.216-7.763 8.917-11.995zm-.707 7.52l5.13 6.27-13.657-.196zm11.108.1l8.617 5.932-12.84.133zm-68.655 2.92s.073.375.157.6c1.53 6.24 5.748 11.426 12.095 10.81L359.1 489.082s-3.444-11.69-10.423-23.672c0 0 1.273.262 2.268.455.932.142 1.64.098 2.34-.085.533-.08.94-.428 1.418-.532.804-.168 1.814.122 2.348.31 1.435.27 2.41-.532 4.205-2.117.478-.42.66-.32 1.263-.317 2.248.006 3.683-1.924 3.43-4.916l-.114-1.33-.284 1.496c-.537 2.818-.912 4.032-3.702 4.152-.675.03-.93.483-1.997 1.4-1.495 1.283-2.55 1.394-3.61.892-1.08-.513-1.182-.21-2.202.275-1.168.557-2.87.49-4.403.052-2.14-.613-1.88-.408-1.88-.408 12.4 22.066 16.755 43.23 16.48 62.03-.39 26.788-9.762 48.41-17.983 61.443 0 0 1.41-.144 2.667-.328.604-.17 1.07-.007 1.67.204.557.196.98.186 1.527.123.427-.05 1.472.007 2.144.103 1.527.22 1.628.02 3.29-1.594 4.715-4.58 4.408-4.41 7.824-4.3 5.125.166 9.224 3.547 10.932 9.03.216.693.5 1.665.537 1.665l-.333-1.452c-1.5-7.35-7.786-10.04-13.034-9.94l22.15-22.207c-.114.02 5.133 16.897 9.703 24.418.006.052-1.387-.6-3.935-.27-1.386.18-2.936-.003-3.806-.152-1.12-.028-1.803.302-3.198 1.45-.58.498-1.102 1.04-2.235 1.52-2.694 1.137-3.768 2.314-3.782 5.267-.002.536-.084 1.223-.076 1.49.002.07-.004.196.014.196.045 0 .108-.11.16-.188.135-.196.407-.73.616-1.968.373-2.21.838-2.98 2.93-3.96.627-.294 1.95-1.094 2.535-1.562 1.928-1.537 2.57-1.888 4.136-1.525.892.208 1.648.315 2.843.17 1.42-.172 1.504-.244 3.024.147 1.03.266 2.307.524 2.307.524-21.467-43.108-20.758-83.07.43-123.617 0 0-6.273.074-6.54.237-.1.062-.863-.006-1.693-.156-1.706-.308-1.332-.1-5.36 3.948-4.98 5.005-12.947 1.012-15.346-7.388-.126-.44-.233-.704-.422-1.016-.06-.1-.22-.265-.22-.265zm20.295 4.928c.922.098 1.61.342 1.495 1.205l-29.567 28.95-.46-1.864zm6.234.176c-.364.72-1.35 1.62-1.784 2.297l1.61 2-.893 1.614-2.472-2.078-4.707 4.645 3.924 4.405-3.716 3.748-1.238-1.4 1.964-2.054-3.05-2.858-5.377 5.225 4.38 4.45-3.212 3.08-1.28-1.215 1.684-1.86-2.857-2.95-5.006 5.104 3.963 4.408-3.06 3.037-1.357-1.375 1.47-1.532-2.832-2.966-5.1 5.03 4.137 4.488-3.04 2.72-1.073-1.135 1.47-1.58-2.78-2.975-3.164 2.87-.527-1.968 31.307-31.1zm1.803.46l-1.32 2.648-1.02-1.12 1.33-1.366zm-73.84.17c-.812.2-19.453 10.582-30.065 21.98l-.033 4.247-.394.506.19 6.572.266.35.09 2.682-.423.707-.005 7.36.565.094.09 9.007 17.433.048-.02 43.027s-10.236-11.252-17.608-17.893l.03 5.028 19.5 20.147c-1.34.19-3.086.513-5.717 1.965-6.328-3.952-13.642-2.743-13.642-2.743l.03 5.125c4.65-.45 8.847.187 13.735 3.478 4.025-2.728 8.874-4.387 16.105-2.22 1.59 2.52 3.182 5.118 4.773 6.808l-34.53.256.044 10.378c1.532.03 5.362 0 5.362 0 1.942 3.805 5.76 9 7.344 15.534-2.176 2.613-2.002 4.716.114 7.348-.018 1.186-.376 2.498.958 3.82 4.393-2.148 9.353-1.195 13.045-.098 1.25.372 1.723-1.053 1.68-2.846-.112-1.027-.106-1.466.683-2.15 1.878-1.63.712-4.974.417-5.048-.108-2.934 9.294-17.63 9.3-17.36l-1.873.678-8.04.036c21.143-20.384 29.98-43.637 28.13-69.893-.413-6.615-1.443-9.646-1.443-9.646-7.447 3.308-13.567 5.714-19.51 12.08l-.395-13.684c.33.648 2.537 1.246 3.525.417.677-.442.745-.915.12-2.576-.91-2.41-1.124-7.582-.447-9.338.08-.205.147-.75.204-1.286.077-.72-.08-.762-.147-.75.173-.042.9.105.987.03 2.54-2.236 5.265-3.632 8.607-3.778l.087-1.632c-2.48-6.26-4.58-8.714-6.824-12.214 0 0-.636-.21-1.04-.128l.518-.546c-3.15-4.998-7.63-9.546-11.752-13.864.012-.016.003-.02-.024-.015zm-.138.85l2.235 2.065c-10.665 5.126-21.188 12.636-31.55 22.823l.143-3.744c11.712-11.013 20.547-16.304 29.172-21.143zm68.493 3.744l1.343 1.338-1.86 2.16 1.21 1.233-.674 1.647-3.095-3.213zm-66.58.17c.7 0 1.27.57 1.27 1.273 0 .7-.57 1.27-1.27 1.27-.703 0-1.273-.57-1.273-1.27 0-.703.57-1.273 1.272-1.273zm91.263 1.757c21.74 24.197 10.577 59.362-18.443 67.81l-.323-1.988c29.28-9.862 36.147-42.854 17.148-63.597zm-87.496.16l1.385 1.605c-12.394 5.916-24.485 14.786-36.17 27.582l-.115-3.23c10.976-11.537 22.71-19.884 34.9-25.956zm-7.996.495c.704 0 1.273.57 1.273 1.27 0 .704-.57 1.273-1.272 1.273-.7 0-1.27-.568-1.27-1.27 0-.703.57-1.272 1.27-1.272zm-3.87 2.39c.702 0 1.27.57 1.27 1.273s-.568 1.272-1.27 1.272c-.703 0-1.272-.57-1.272-1.27 0-.704.57-1.273 1.27-1.273zm12.89.836c.704 0 1.273.57 1.273 1.272 0 .702-.57 1.27-1.272 1.27-.7 0-1.27-.568-1.27-1.27 0-.702.57-1.272 1.27-1.272zm55.228.878l1.272 1.343-2.017 2.02 2.87 3 2.762-2.657-1.385 3.957-24.347 24.332-.507-2.553 1.917-1.926-2.938-2.932-.517-1.955 2.89-2.704 1.21 1.243-1.69 1.95 2.72 2.676 4.94-4.546-4.077-4.475 3.365-3.255 1.163 1.134-1.61 1.656 2.834 3.07 5.068-4.854-4.162-4.398 3.346-3.298 1.266 1.21-1.684 2.02 2.88 2.787 4.963-4.902-4.08-4.29zm-71.915.854c.703 0 1.272.57 1.272 1.272 0 .702-.57 1.27-1.272 1.27-.702 0-1.27-.568-1.27-1.27 0-.703.568-1.272 1.27-1.272zm20.053.247l.968 1.608c-14.756 7.455-24.96 14.922-40.062 32.077v-2.16c11.658-14.312 23.78-23.54 39.094-31.524zm-7.412.19c.702 0 1.272.57 1.272 1.27 0 .704-.57 1.273-1.272 1.273-.702 0-1.272-.57-1.272-1.272 0-.702.57-1.27 1.272-1.27zm114.168.488c2.603 2.317 8.07 4.626 11.592 4.38l.095 2.786c-6.146.584-11.512-3.35-11.512-3.35-4.733 2.885-9.55 3.25-14.572 1.998l-1.93-4.138c7.446 3.453 14.43.158 16.326-1.675zm-29.404.756c.273.504 1.19 1.086 1.19 1.086 5.733-1.492 7.52 4.416 4.845 7.792l.764 2.476c1.023.186 1.92.545 2.648 1.05 1.395.966 2.162 2.64 1.988 4.398.195 1.904-2.654 3.677-2.81 3.544l-.037 2.724c.802.667 1.767 1.314 2.382 2.258 1.37 2.3.827 4.617-1.286 6.074-1.258.85-2.62.96-2.676.873l-1.324 3.095c1.166.657 1.493 1.777 1.675 2.576.396 1.735-.82 3.993-2.35 4.827-1.927 1.052-4.556.117-4.554.118l-1.88 1.88c.485 1.627.618 2.598.362 3.553-.633 2.364-3.11 3.29-5.1 3.113-1.564-.138-2.74-1.28-2.74-1.28l-2.082.797c.06 0 .03 2.638-1.02 3.445-.33.342-1.504 1.1-1.504 1.1l-.276-1.817c.825-.594 1.338-2.034 1.172-3.09l4.498-2.2c0 .163 1.23 1.356 2.073 1.528 1.727.352 3.532-.996 3.535-2.582.003-.923-.53-1.553-.683-2.3l3.82-3.952c1.58.543 2.69.635 3.396.227 1.335-.77 1.695-2.36 1.438-3.316-.304-1.132-1.312-1.864-1.38-1.97l2.13-5.386c.993-.005 1.607-.16 2.382-.664 1.58-1.038 1.375-3.053.702-4.01-.82-1.164-2.01-1.38-2.102-1.352l.156-5.594c0 .045 2.155-1.036 2.387-2.283.34-1.836-.434-3.004-2.69-3.524-1.253-.29-1.187-.048-1.187-.048l-1.785-5.063c2.828-1.723 1.932-4.465.5-5.385-1.512-.97-3.645-.07-3.645-.07s-.972-.966-1.71-1.743zm-75.663 1.025c1.858 2.5 5.003 7.503 6.76 11.982.078.195.04 1.186.04 1.186-5.017.436-6.74 2.403-8.523 3.786-1.382-.71-1.965-1.54-4.465.024-.008.074-6.373-3.85-7.592-9.177 4.55-2.803 8.888-5.473 13.78-7.8zm-25.466.034c.7 0 1.27.57 1.27 1.272 0 .702-.57 1.27-1.27 1.27-.704 0-1.273-.568-1.273-1.27 0-.703.57-1.272 1.272-1.272zm12.056.25c.702 0 1.27.57 1.27 1.273 0 .702-.568 1.272-1.27 1.272-.703 0-1.272-.57-1.272-1.273 0-.702.57-1.272 1.272-1.272zm87.022 1.563c2.192 2.884 5.496 8.34 6.282 13.17 1.106 6.797.37 13.925-2.747 18.91-5.654 10.648-15.458 12.915-15.464 13.286l-.1-2.183c.092.49 7.493-2.627 12.53-9.665 3.11-4.77 4.877-11.587 4.276-16.906-.374-7.667-5.814-14.737-5.86-14.763zm-103.046 1.04c.702 0 1.272.568 1.272 1.27 0 .703-.57 1.272-1.272 1.272-.702 0-1.272-.57-1.272-1.273 0-.702.57-1.27 1.272-1.27zm12.043.018c.702 0 1.27.57 1.27 1.27 0 .704-.568 1.273-1.27 1.273-.703 0-1.272-.57-1.272-1.272 0-.702.57-1.27 1.272-1.27zm108.573 2.144c2.823.305 6.273 5.42 9.414 8.34l.034 41.71-9.38.19c-1.223 2.934-4.056 5.833-8.57 8.696l-.005-15.63c15.395-16.49 11.206-34.54 8.51-43.307zm-124.07.474c.702 0 1.27.57 1.27 1.27 0 .704-.568 1.273-1.27 1.273-.703 0-1.272-.57-1.272-1.272 0-.702.57-1.27 1.272-1.27zm11.59.228c.704 0 1.273.57 1.273 1.27 0 .704-.568 1.273-1.27 1.273-.703 0-1.272-.57-1.272-1.272 0-.702.57-1.27 1.27-1.27zm119.095.1l19.18 19.335-.067 2.837-21.614-21.96zm-112.06 1.817l.506 2.428c-.62-.974-.644-1.334-1.718-1.504zm-10.383.706c.702 0 1.27.57 1.27 1.27 0 .704-.568 1.273-1.27 1.273-.703 0-1.272-.57-1.272-1.273 0-.702.57-1.27 1.272-1.27zm-11.488.355c.702 0 1.272.57 1.272 1.273 0 .702-.57 1.272-1.272 1.272-.702 0-1.272-.57-1.272-1.272 0-.702.57-1.272 1.272-1.272zm107.905 0l3.786 2.682-1.233 4.835-3.877-3.482zm-87.502.395l.674.4-.784 3.306-8.716 3.147c2.802-2.393 5.684-5.002 8.825-6.852zm1.43 1.538c.618 2.45 1.962 6.076 3.61 9.145-1.118.58-5.14 2.854-5.13 3.913.568 1.918 4.816 3.678 4.816 3.678-1.61 2.61-3.14 5.688-4.393 9.23-.725-1.237-.81-6.11.755-8.14-1.543-.607-3.653-1.997-5.257-3.434 1.034-3.66 5.443-5.847 5.637-5.874-.078.184-1.303-7.647-.038-8.517zm-14.15.616c.7 0 1.27.57 1.27 1.27 0 .703-.57 1.273-1.27 1.273-.703 0-1.273-.57-1.273-1.272 0-.7.57-1.27 1.272-1.27zm97.08.104c5.66 10.54 2.294 19.697-6.732 26.258l.208-2.486c6.23-4.518 10.262-13.412 5.714-21.893zm-107.823.304c.702 0 1.27.57 1.27 1.27 0 .703-.568 1.273-1.27 1.273-.703 0-1.272-.57-1.272-1.27 0-.703.57-1.272 1.272-1.272zm90.51.066c-4.153 15.477-4.05 22.57-4.532 26.766l-16.12.138-.625-5.58zm-64.394.427s3.496 3.246 6.633 6.08l-.374.74-3.05.408c-2.335-4.597-3.208-7.227-3.208-7.227zm-2.895 1.7l.024.004.195 2.306c-1.048-.04-12.383 4.696-21.092 12.257 1.298-2.287 3.487-4.48 5.604-6.35 4.503-4.42 15.27-8.217 15.27-8.217zm-16.114.526c.702 0 1.27.57 1.27 1.272 0 .702-.568 1.272-1.27 1.272-.703 0-1.272-.57-1.272-1.272 0-.702.57-1.272 1.27-1.272zm7.136 1.448l.645.664-3.007 1.556zm20.973.678c.04 0 .084 0 .127.005.465.058.658.28.925.503-.59-.122-1.167-.19-1.718-.16.14-.167.377-.337.665-.348zm-11.513.48l.276 1.722c-6.523 3.708-14.282 7.212-25.57 17.885v-3.552c7.084-6.563 15.348-12.068 25.294-16.057zm8.774.16c.408.1.77.106 1.14.015 0 0-.237.468-.518.48-.296.01-.62-.494-.62-.494zm2.767.1c.82-.05 1.38.7 1.215 1.666-.63 3.274-.605 6.59.07 8.906.528 1.806.66 2.44.224 2.743-3.845 2.65-5.953-9.303-2.743-12.693.436-.41.86-.6 1.234-.622zm-31.397.418c.702 0 1.27.57 1.27 1.272 0 .702-.568 1.27-1.27 1.27-.703 0-1.272-.568-1.272-1.27 0-.703.57-1.272 1.272-1.272zm110.495.294l2.392 4.01-3.33 3.73-2.027-4.333zm-82.296 2.178l-.125 1.385c-1.717.52-3.215 1.26-4.502 2.354-.25.214 3.978 2.122 4.422 1.68l-.01 1.476c-.058.485-6.99-1.716-7.46-3.36.787-1.092 5.173-3.633 7.674-3.534zm-31.545.735c.702 0 1.27.57 1.27 1.272 0 .7-.568 1.27-1.27 1.27-.703 0-1.272-.57-1.272-1.27 0-.703.57-1.273 1.272-1.273zm18.905 1.46c-.492.935-1.22 2.177-1.36 3.534-4.756 2.884-9.633 5.578-15.567 12.194l-3.198-.02-.07-.84c6.484-6.182 13.507-11.516 20.195-14.866zm12.25.4l.033 1.742c-1.106.013-1.71-.348-2.534-.765.694-.44 1.232-.874 2.5-.978zm35.782.186l.892.934-.556.522zm-48.18 3.62l1.76 1.096c-4.533 2.364-9.305 5.86-13.433 10.424h-3.49c4.406-4.774 9.15-9.057 15.16-11.52zm93.91 1.257l.352 4.736-4.422 2.424.086-4.996zm-84.098.02l3.04.33.315 1.287c-2.553 1.623-4.77 3.527-6.896 5.505.814-2.54 2.085-5.064 3.54-7.123zm-7.293.507l1.306.603-.517 2.225c-3.728 1.656-6.696 3.893-9.876 6.91h-3.577c3.133-3.36 8.343-7.585 12.664-9.738zm11.318 2.093c.01-.002.015-.002.014.004l.474 14.596c-13.137 15.38-12.423 30.25-8.593 43.74l-2.505-.115c-2.912-3.618-6.785-7.303-6.785-7.303l-.01-42.457 9.058.033c2.137-4.942 8.012-8.46 8.347-8.498zm-10.696 2.05l.11 1.945c-1.873 1.11-3.464 2.335-4.83 3.65h-3.403c2.35-2.19 4.685-4.393 8.122-5.596zm30.885.953l.5 2.297c-30.494 11.03-36.004 43.094-18.01 65.105l-1.223 1.367c-20.664-22.19-11.594-58.438 18.733-68.77zm-30.643 2.297s.167 1.76.22 2.344h-3.418c.77-.9 1.45-1.835 3.198-2.344zm85.808.735l-1.964 4.58-5.243.08 2.38-4.58zm-33.19 3.137h4.777v4.564h-4.78zm-20.68.45l.08 2.007c-2.12 1.08-1.586 2.798-2.12 2.77-1.304.33-4.745 2.155-4.745 2.155-1.22-1.106-2.865-.828-3.63-.29-1.06.694-1.294 2.31-.99 3.678l-3.65 4.265c-1.762-.753-3.48-.706-4.337.47-.966 1.326-.6 2.972.997 4.816l-1.99 5.1c-.228-.304-3.555.672-3.6 2.65-.048 2.09 2.75 3.455 2.747 3.614l-.133 5.628c-.125-.27-2.855.844-2.485 3.54.34 2.482 3.72 2.18 3.79 2.386l1.838 5.386c-.124-.165-2.49 2.15-1.04 4.34 1.21 1.827 4.718.646 4.688.528l.974 1.37-1.077 1.17s-.465-.56-.726-.51c-2.042.39-4.323-.077-5.418-1.707-1.49-2.302.174-5.896.703-5.866l-1.263-3.103c-2.3-.045-4.247-2.098-4.35-3.82-.218-3.602 2.74-5.11 2.747-5.085l.084-3.36c-.18.2-2.922-1.744-2.856-3.976.047-1.633 1.42-3.552 3.112-4.324.49-.23 1.253-.593 1.253-.593l1.144-2.752s-1.62-2.338-1.2-4.696c.778-3.57 5.432-3.326 6.167-2.98l2.16-2.705c-1.064-2.47.773-5.333 3.174-5.8 1.067-.17 4.057.537 4.057.537l2.766-1.428c-.046-1.513 1.603-2.497 3.133-3.418zm15.73 4.997h4.095v4.563h-4.095zm10.91 0h4.616v4.563h-4.617zm-26.307 1.142l-.052 1.746c-26.436 12.818-15.625 39.356-11.853 42.444l-.85 1.874c-4.638-2.82-16.597-33.444 12.755-46.064zm20.346 4.622h4.97l.042 4.693h-4.968zm-21.493 2.282l-1.576 4.275-4.853.41 1.794-4.266zm99.188 3.127l3.32.02c-6.208 7.262-12.91 12.212-19.524 14.922 0 0-.022-.647.18-1.158.162-.405-.098-1.428-.098-1.428 7.352-3.622 12.403-7.828 16.123-12.357zm-17.02.062c-.855 1.027-1.83 1.932-3.042 2.603l-.48-2.646c1.017-.012 3.52.043 3.52.043zm5.846-.057c.336.845-8.717 5.733-8.75 5.317l.025-1.626 4.885-3.626zm1.956 0h.018l2.55.014c-2.303 3.63-14.475 10.22-13.97 9.294l.492-2.655c3.923-1.725 7.485-4.072 10.91-6.652zm4.294 0l3.353.014c-5.045 6.406-10.162 8.744-15.07 11.5-.295-.043-.162-.154-1.08-.127l-1.68-1.31c.314.29 11.28-6.14 14.477-10.077zm-93.813.228l-.114 1.936c-7.056 6.068-9.887 13.822-6.215 22.823l-.874 1.92c-3.948-9.602-2.782-18.934 7.203-26.68zm32.133.303l.375 5.223-21.907 21.324c3.334-11.913 4.257-19.104 5.153-26.52zm70.154 1.228l.01 2.9c-8.637 9.513-17.342 13.777-24.864 15.5l-.17-1.114 3.482-2.145c11.222-4.89 16.137-9.81 21.542-15.142zm-26.213.078c.153 2.095-1.713 6.05-3.845 8.283l-3.654-.01-.402-1.585c3.03-1.634 5.834-3.845 7.903-6.69zm1.104.624c1.342 2.16-.672 7.747-.755 7.526-.16.385 11.477 2.845-.48 8.603.26 1.69 1.382 5.302.517 7.534-.27-.855-2.35-6.65-3.957-8.133 3.733-1.063 6.42-3.347 6.13-4.1-.607-1.07-2.278-2.385-5.09-3.35 2.393-3.32 3.105-5.815 3.634-8.08zm-85.48 1.06l.375 4.402-4.253 2.557-.327-4.836zm73.964 4.09c.332.003.644.09.797.255 2.1.85 2.252 11.095.346 12.138-1.384.87-2.358-.53-2.31-.78.92-4.712.345-7.626-.037-10.92.04-.48.652-.7 1.205-.694zm36.626.15v3.645c-12.347 12.797-25.65 22.885-39.23 28.55l-1.24-2.102c16.495-7.627 30.288-18.508 40.47-30.092zm-2.168.333c-5.72 7.96-12.686 13.157-22.23 15.516l-.18-2.26c11.886-2.7 22.718-13.257 22.41-13.257zm-155.635 1.29c7.45 7.614 15.08 15.16 22.663 22.975l-3.013.157-19.74-20.48zm88.666.38l.265 1.88-2.167 2.376 3.426 3.68.174.87-2.942 3.074-1.328-1.314 1.627-1.827-2.76-2.904-5.12 4.924 4.218 4.58-3.184 3.027-1.252-1.295 1.627-1.88-2.83-2.983-5.218 5.19 3.948 4.36-2.634 2.915-1.248-1.315 1.352-1.55-2.86-2.948-5.016 4.83 4.128 4.565-3.355 3.34-1.3-1.263 1.884-2.05-3.093-2.946-2.48 2.345s.935-2.326 1.07-2.72c.2-.577 1.023-1.034 6.24-6.182 6.228-6.198 12.615-12.007 18.83-18.78zm35.72 1.253c1.82.03 4.916.47 6.42 1.262 2.79 1.47 1.912 2.63.1 3.492-2.167 1.032-3.945 1.537-6.392 1.61l.07-1.202c1.422-.344 2.897-.69 4.153-1.385.864-.478 1.086-.864 1.086-.864s-.842-.857-2.182-1.344c-.98-.356-2.383-.353-3.145-.48zm-81.462 1.584l2.292 3.436-2.714 4.55-2.605-3.924zm46.23.37c.08.648.9 3.164.47 2.677l-1.523-1.713zm35.374.337c1.267.107 2.6.145 3.525.594-1.073.833-2.29 1.02-3.5 1.225zm31.796 1.718c.765 0 1.385.62 1.385 1.386 0 .766-.62 1.386-1.386 1.386-.765 0-1.386-.62-1.386-1.385s.62-1.385 1.386-1.385zm-71.507 2.4l1.182 1.145-1.53 1.78 2.772 2.917 3.43-3.212.456 2.04-32.142 31.625-1.784-.128 2.045-2.415-2.325-2.377.954-1.71 2.742 2.44 5.025-4.806-4.07-4.285 3.482-3.574 1.314 1.134-2 2.164 2.91 2.97 5.257-5.172-4.113-4.474 3.283-3.132 1.205 1.144-1.528 1.618 3 3.122 4.43-4.612-4.032-4.442 3.582-3.487 1.1 1.1-1.65 1.84 3.013 3.118 4.835-4.968-3.98-4.318zm68.29.827c.765 0 1.385.62 1.385 1.385s-.62 1.386-1.385 1.386c-.766 0-1.386-.62-1.386-1.386 0-.765.62-1.385 1.387-1.385zm-26.126.06c2.184 2.565 3.497 5.417 3.76 8.485-1.745-2.646-3.964-4.993-6.872-7.032l.5-1.286zm30.824.21v3.094c-9.737 11.032-21.557 19.347-33.694 25.134l-2.064-2.51c14.354-6.408 24.74-14.366 35.758-25.718zm-14.325 2.16l-3.95 3.064-.003-1.328 3.952-1.737zm-20.347.227c3.36 1.64 6.178 4.412 7.857 8.52-4.59 2.88-9.625 5.213-14.424 7.536-2.304-3.71-4.624-7.188-6.443-11.966 7.402-.054 9.432-4.098 9.484-4.13 1.784.675 2.158.756 3.526.04zm26.595.6c.69.015 1.38.543 1.405 1.335 0 .765-.62 1.385-1.386 1.385-.765 0-1.385-.62-1.385-1.385.15-.956.758-1.345 1.366-1.334zm-10.244.912l.01 1.34c-1.89 1.655-5.562 4.335-5.562 4.335l-1.518-.08.493-3.796c2.3-.462 4.528-1.134 6.577-1.798zm-96.688.157l3.625 2.98-1.11 4.62-3.567-2.71zm48.683.872l.336 1.338-29.784 29.443-1.694-.276zm54.946 1.14c.765 0 1.385.62 1.385 1.384 0 .766-.62 1.386-1.384 1.386-.765 0-1.386-.62-1.386-1.386 0-.765.62-1.385 1.386-1.385zm11-.01c.162 0 .354-.012.354.142v2.548c-.145.05-.302.08-.465.08-.765 0-1.276-.62-1.276-1.385s.62-1.386 1.385-1.386zm-3.362 3.088c.765 0 1.385.62 1.385 1.386 0 .765-.62 1.385-1.386 1.385-.766 0-1.386-.62-1.386-1.384 0-.765.62-1.386 1.386-1.386zm-11.643.015c.766 0 1.387.62 1.387 1.385s-.62 1.386-1.386 1.386c-.764 0-1.384-.62-1.384-1.386 0-.765.62-1.385 1.385-1.385zm-10.016.427l1.424.047-2.648 1.574c.486-.608.94-1.074 1.224-1.622zm25.395.648l.018 2.85c-6.812 6.808-15.415 13.873-28.57 20.682l-1.676-1.697c10.726-5.115 20.79-12.282 30.227-21.835zm-19.346 1.553c.765 0 1.386.62 1.386 1.386 0 .764-.62 1.384-1.386 1.384-.765 0-1.385-.62-1.385-1.385 0-.766.62-1.387 1.384-1.387zm12.318.105c.765 0 1.386.62 1.386 1.385s-.62 1.386-1.386 1.386c-.765 0-1.385-.622-1.385-1.387s.62-1.385 1.385-1.385zm-137.983 5.56c4.7-2.727 8.48-3.047 13.864-2.225l1.608 3.175c-5.243-.93-10.768-.847-15.492 2.8-4.895-3.094-8.614-3.987-12.634-3.484l-.073-3.346c5.24-.732 9.94 1.063 12.726 3.08zm121.845-3.017c.765 0 1.385.62 1.385 1.387 0 .765-.62 1.385-1.385 1.385-.766 0-1.386-.62-1.386-1.385 0-.766.62-1.386 1.385-1.386zm12.668.57c.766 0 1.386.62 1.386 1.386 0 .765-.62 1.385-1.387 1.385-.765 0-1.385-.62-1.385-1.384 0-.765.62-1.386 1.385-1.386zm-16.834 2.07c.764 0 1.384.62 1.384 1.385S424.564 572 423.8 572c-.767 0-1.387-.62-1.387-1.385s.62-1.386 1.386-1.386zm12.916.803c.765 0 1.385.62 1.385 1.385s-.62 1.386-1.384 1.386c-.765 0-1.386-.62-1.386-1.386 0-.765.62-1.385 1.386-1.385zm-17.188 1.645c.776 0 1.405.628 1.405 1.404 0 .776-.63 1.405-1.405 1.405-.776 0-1.404-.63-1.404-1.405 0-.776.628-1.404 1.404-1.404zm13.485 1.162c.765 0 1.386.62 1.386 1.385 0 .766-.622 1.386-1.387 1.386s-1.385-.62-1.385-1.385.62-1.385 1.385-1.385zm-17.59.96c.766 0 1.386.62 1.386 1.384 0 .765-.62 1.386-1.386 1.386-.766 0-1.386-.62-1.386-1.386 0-.765.62-1.385 1.386-1.385zm-61.252 1.25l3.446 3.157-3.563 3.577-1.305-1.252 1.983-2.074-1.342-1.808zm75.02.308c.765 0 1.386.62 1.386 1.385 0 .766-.62 1.386-1.386 1.386-.765 0-1.385-.62-1.385-1.387 0-.765.62-1.385 1.385-1.385zm-3.99 2.346c.766 0 1.387.62 1.387 1.385 0 .764-.62 1.385-1.386 1.385-.764 0-1.384-.62-1.384-1.386 0-.766.62-1.386 1.385-1.386zm-4.334 2.353c.765 0 1.386.62 1.386 1.386 0 .765-.62 1.385-1.386 1.385-.765 0-1.386-.62-1.386-1.385 0-.766.62-1.386 1.386-1.386zm-71.255 3.92l1.126.915-1.765 2.126-1.347-.02zm-21.764 5.73c-3.927 1.945-5.793 3.175-8.53 5.558l-3.925-5.443zm-26.72.04l10.46.146-3.48 4.92c-2.292-2.416-4.617-4.058-6.98-5.067zm12.457.536c1.133.36 4.1 4.587 5.495 6.894 2.974-2.365 5.886-5.008 9.062-6.43-3.777 3.99-7.092 8.115-9.452 12.105-.67-1.8-2.53-6.95-4.887-9.186-3.716 3.47-5.185 7.658-5.185 7.658-2-3.406-4.408-6.82-7.193-10.012-.462-.622 3.39 1.77 7.202 5.48 1.074-2.704 3.947-6.403 4.96-6.51zm-12.56 2.657c1.796 1.426 6.68 7.69 7.24 11.46l-2.338.146c-1.244-3.87-3.334-7.737-4.902-11.606zm26.007.64c-1.77 3.627-3.962 7.332-5.537 11.345l-2.31-.1c2.53-5.53 3.452-6.543 7.847-11.245zm-13.253 1.614c.023-.003.043.003.057.014 2.196 2.997 3.233 5.91 3.886 9.457l-1.698-.067s-1.185-3.56-1.998-4.816c-.526-.768-.948-.67-1.32-.033-.837 1.503-1.15 3.01-1.622 4.65l-1.955-.144c-.36-2.687 3.964-8.993 4.65-9.062zm-.308 10.33c.794.01 1.624.87 1.617 2.383.062.71-.49 2.28-1.087 2.36-1.107.588-2.417-1.238-2.088-2.76.28-1.3.856-1.992 1.557-1.984zm-3.848.286c1.57.14 1.908 3.66 1.272 4.38-.73.723-2.663.21-2.845-1.045-.632-1.597.517-3.32 1.572-3.335zm7.738-.02c1.71.24 1.28 4.103.395 4.67-1.375.728-2.422-.487-1.958-2.304.374-1.463.93-2.333 1.563-2.367zm3.952.64c1.958.218.827 3.62-.028 4.314-1.242.968-2.442-.48-1.846-2.208.462-1.34 1.23-2.116 1.874-2.106zm-15.804.104c1.424.228 2.25 3.45 1.402 4.37-.442.53-1.73-.24-2.32-1.124-.705-1.06-.043-3.25.918-3.246zm15.162 7.02c.17 1.692-1.107 1.69-4.786.866-1.858-.417-5.15-.153-6.833.152-2.83.514-3.23.317-3.225-.835.006-1.337 1.593-2.096 5.266-2.21 2.63-.08 9.172-.107 9.58 2.026zm5.72-.994c-4.38.412-5.546 5.9-5.063 7.93.384 3.388.22 6.938-.432 9.27-.468 1.676-.884 3.46-1.637 4.978-1.153 2.294-.855 3.997.854 4.91 1.403.752 3.13.495 4.213-.668 1.957-2.103 2.19-6.566.992-16.693-.423-3.573-.196-4.286 1.537-4.085 3.64-.028 3.494-5.636-.465-5.642zm-.527 4.612c-.98-.378-1.644.51-1.514 2.73.033.982.207 2.088.33 2.97 1.418 9.715.888 16.224-2.096 16.544-2.598.417-4.356-1.495-3.09-3.473.72-1.12 1.338-1.27 2.734-.683 1.92 1.19 1.44-.543-.29-1.822-1.108-.784-1.192-.784-.597-3.236.803-3.308 1.073-5.667.78-9.85-.415-2.96.574-6.885 4.34-7.117 3.81-.114 2.66 5.295-.597 3.937zm-26.89 12.797c1.24.598 2.446.496 3.625.01.46-2.066.488-3.785 1.88-6.594-2.317-2.318-6.214-1.407-7.312 1.022-1.097 2.43-.075 4.653 1.807 5.56zm3.715-7.172c1.404.3 1.194 1.773-.128 1.292-3.15-1.482-5.716 2.98-3.174 4.66 1.297.725 1.87.31.584-.688-.528-.606-.395-.853-.076-1.462.66-1.226 3.06-1.027 2.89-.137-.547 2.826-.907 3.642-1.756 3.65-4.89.25-5.81-8.903 1.66-7.315zm41.543 5.083s-14.568 16.472-21.584 24.908l87.947-.408-16.735-23.09c-14.357 3.315-31.225 2.358-49.627-1.41zm-.436 5.264c2.197.024 4.696 1.62 6.856 6.937.117.05 9.673-14.51 17.946.565 1.35-3.383 9.142-12.21 18.15-.882 3.2-7.58 10.577-5.017 11.268-2.373-.155-.57-7.03-2.2-10.007 2.824-.55 1.064-.578 2.073.053 2.67 1.486 1.41-.132 3.432-1.826 2.283-.66-.448-.744-1.39-.238-2.067 1.495-1.114-1.567-4.58-4.086-5.828-3.456-1.712-8.276-.957-10.594 1.5-1.246 1.32-2.008 2.507-2.19 3.456-.097.44-.038.67.224.964 1.005 1.213.342 2.873-1.018 2.672-1.782-.264-1.544-1.93-.352-2.84.365-.18.227-.395.117-.705-3.254-9.163-15.38-7.417-16.69-1.074-.047.23-.152.472-.1.71.137.606.492 1.118.356 1.595-.557 1.95-2.994 1.39-3.104-.224-.05-.734.74-.955 1.13-1.625.23-.42.338-.933.115-1.4-3.286-6.883-8.925-5.442-11.724-3.887-.058.033 2.503-3.304 5.714-3.27zm-3.644 3.99c1.2-.043 2.295.548 3.317 1.732 3.443-1.82 5.89 1.332 5.485 1.637-4.877-3.165-6.46 4.21-1.655 3.93-2.112 4.367 5.43 6.24 4.583.657 4.654 1.624 5.422-4.766.707-4.67 1.524-2.636 5.478-1.91 7.15-.26 1.966-2.4 6.795-.11 7.274 1.942-5.414-2.774-5.96 5.705-.716 3.9-1.552 5.397 6.785 4.63 4.48-.023 5.193 1.706 4.486-6.054-.617-4.48-.31-.403 4.034-4.89 7.193-.674.428-.743 5.36-3.174 8.057.645-5.847-1.976-4.74 5.893-.55 4.328-1.12 5.214 6.438 4.368 4.507-.075 5.858 1.48 3.264-7.442-.852-4.148.67-3.586 5.594-2.1 5.54-1.546 0-.004 2.615-2.828 5.543-.76-4.575.384-3.018 6.553 1.304 4.797-.048 2.093 1.693 3.48 4.047 2.77l3.696 5.168-84.308.53 6.735-8.026c2.253 1.86 4.587.98 4.875-1.94 4.903 3.007 6.177-4.135 1.576-4.444.936-.636 1.808-.962 2.63-.992zm-4.712 2.32c.292.206-.104 1.2-.75.91zm65.737 2.074c.25.36.428.59.678.95.12.32-1.314-.17-.678-.95z"/></svg>