<svg viewBox="260 370 224 313" preserveAspectRatio="none" xmlns="http://www.w3.org/2000/svg" width="744.094" height="1052.362"><title>Vectorized Playing Cards 1.0</title><rect y="-2435" x="6927.614" height="311.811" width="223.228" rx="10.63" ry="10.63" fill="#fff" stroke="#000" stroke-width=".997" transform="translate(-289.24359,486.83327) translate(-6377.9376,2318.4423)"/><path d="M291.396 658.288l-.51-263.006 163.133.308.204 262.594zm58.482-219.153c-5.835-1.59-5.693 4.204-1.42 4.42 4.786.412 6.834-7.746 4.55-10.96 0 0-1.99 6.144-3.13 6.54zm-37.857 32.76l-7.006 3.127-.028 5.23c2.922-2.323 5.206-5.158 7.035-8.356zm47.824 157.16c-1.378-.696-3.04-2.19-2.786-2.453.127-.13.874.105 1.552.41 5.475 2.307 9.725 2.158 16.255-.21.494-.18 1.232.76.957 1.28-2.89 4.275-12.248 2.755-15.978.973zm-2.886-6.418c-1.258-1.888.41-.457.97.08 4.05 3.766 9.54 5.042 14.252 1.492.22-.244.248-.47.183-.64-.133-.347-.136.024-2.15.723-4.523 1.693-8.334.302-12.05-2.542-1.532-1.18-2.243-1.76-2.243-2.07 0-.282.286-.46.8-.37.32.055 1.21.24 1.86.293 1.133.093 1.046.045 2.205-.49 2.48-1.145 4.76-1.562 7.35-1.098.6.107 1.354.306 1.456.272.582-.194-.274-.958-2.47-2.698-.43-.344-.968-.637-1.146-.934-.277-.46.024-.583.338-.58.902.01 4.957 3.4 6.346 5.412.423.612.715.677.717 1.314-.08.66-.187 1.293.528 2.218.513.664 1.01 1.732 1.014 1.783.005.058-.102.392-.572.083-.214-.04-.318-.27-.71-.213-.34.05-.896.318-1.505.606-5.68 3.653-10.913 1.87-15.172-2.643zm12.445-.255c.114.01-.392-2.09-.964-2.708-1.13-1.22-2.85-1.444-3.89-.194-.584.703-1.227 2.663-1.227 2.663s.91.27 1.166.27c.035-.44.037-1.67.942-2.39.445-.35 1.404-.338 1.777-.047.74.363 1.054 1.836 1.064 2.41.405.125 1.338.01 1.13-.004zm-6.87-3.026c-.8.357-1.84.598-2.08 1.134-.315.707.798.92 1.377 1.16.8.385.818.244 1.077-.373.16-.385.375-.887.578-1.35.6-1.156.002-.996-.95-.57zm8.67 2.01c.46-.46.547-.765.135-1.288-.186-.237-.717-.48-1.295-.673-.742-.25-1.066-.553-.6.452l.665 1.437c.342.688.642.505 1.094.072zm-75.798-49.053c.282 0 3.077-.917 4.072-1.36.987-.376 1.105-.365.712-.91-.147-.205-.266-.782-.195-1.414l.074-.882c-1.724-.35-4.296.603-5.182 1.808-.63.77-.565 2.484.517 2.757zm-.35 4.3c.522.524.667.542 2.238-.04.55-.37 1.702-.83 2.51-.882 1.892-.502 1.893-.303 1.356-1.516-.248-.558-.328-1.02-.25-1.535.09-.61.163-.695-.18-.803-.907-.283-5.12 1.292-5.874 2.517-.53.862-.46 1.602.198 2.26zm98.915 37.21c-.275.41-.752 1.14-.952 1.634-.346.85-.136 1.013.002 2.683.08.968.1 2.47.103 3.28.006 1.545-.016 2.025.456 2.116.416.08.607-.233.807-1.04.1-.4.34-.822.412-1.077.296-1.74.846-4.646 2.1-5.867.174-.144.684-.234 1.61-.246 1.133-.014 1.495-.046 1.846-.308 1.983-1.737.42-3.98-1.35-4.136-2.048-.178-4.872 2.65-5.036 2.96zm7.872-.727c.126 1.996-1.864 3.355-3.885 2.893-.82-.207-1.066-.02-1.615 1.15-1.193 3.21-1.665 6.427-1.98 8.532-.137 1.894-.833 6.824-.33 8.395 5.764 7.122 11.83 14.475 18.474 21.806l39.512.054.24-46.515-11.477-10.854.023-17.206c-12.284 5.79-24.532 11.657-36.792 17.495 2.673 8.57-6.387 10.366-8.373 4.622-1.72 1.576-3.13 10.083-2.495 10.504 0 0 .228.307.61-.37.625-1.114 1.445-1.935 2.32-2.478 2.556-1.58 5.595-.8 5.77 1.97zm-31.448-.868c-1.94-1.54-.9-3.892.71-4.597.854-.372 2.224-.32 3.732.21 1.325.61 2.116.524 3.473.357.9-.1.733 1.786-.208 2.272-.663.342-2.183.18-4.032-.873-3.19-1.816-4.59.537-2.616 2.663 1.096 1.172-.78.233-1.06-.032zm-65.677-28.173c1.705-1.097.998-3.033-.59-3.357-2.14.045-2.684 2.5-1.154 3.35 0 .298-.76.054-1.172-.253-.637-.478-.055-2.345-.648-2.42-.453.008-4.87 1.57-5.347 1.883-1.985 1.126-.122 3.67 1.03 3.378 2.392-.604 5.645-1.14 7.882-2.58zm-9.874-3.633c.04 1.132.358 1.636 1.1 1.646 1.556-.27 3.003-1.01 4.454-1.48 1.134-.372 1.593-.79.73-1.5-.262-.298-.494-.728-.368-1.545.296-.934.07-.98-.327-1.027-.395-.045-1.297.333-3.612 1.222-1.216.467-1.45.67-1.766 1.34-.142.513-.23.828-.21 1.344zm12.88 14.615c.27-.315.862-2.288.862-2.776-.12-.812-.724-.996-1.26-.47-.65.58-.475 1.46-.86 2.135-.135.234-.277.56-.238.69.21.71 1.082.84 1.497.422zm5.07-10.745c19.8-21.088 32.065-50.268 10.607-90.514-2.406-1.024-3.15 2.887-3.38 3.047l-2.74 2.39c14.524 25.046 12.002 53.86-5.758 74.346l.02 1.3c.04 2.862.865 2.74 2.068 1.4 1.275-1.345.422-.25-.098.304-.45.476-1.164 1.423-1.354 1.67.233 1.716 1.314 4.916.634 6.058zm-1.315-6.336c-.204-.57-.42-1.87-.53-2.873-.07-.652-.097-1.268-.13-1.905-.21-1.267-.728-4.176-1.148-4.817-.453-.69-1.56-1.195-2.795-1.275-1.055-.067-1.143-.048-1.368.295-.386.59-.122 3.57.27 4.66.443 1.28.183 1.977-.176 3.246-.123.46-.17.49.058.524.988-.07 1.316-1.28 1.707-.92.132.132-.21 1.126-.672 2.13-.486 1.06-.63 2.522-.053 4.318.324 1.006.187 1.324-.01 1.93-.13.406-.36 1.65-.366 2.886.46 1.55.23 2.244-.042 2.756-.59 1.316-1.044 3.098-.727 4.1.14.438.502.062.77-.69.414-1.485.9-1.816 2.12-1.816.888 0 .97.31 1.265-.087.668-.902 2.297-4.1 2.328-4.99.63-2.273.66-4.225-.5-7.47zm9.47 14.927c.537-.205 1.364-1.343 1.365-1.735.002-.432-3.32-3.66-4.702-4.552-.625-.403-.923-.117-2.03 1.374-.984 1.324-1.113 1.335-.93 1.59.22.307 3.602 2.507 4.726 3.13.388.217 1.047.392 1.57.193zm6.22-5.746c-.495-.38-4.468-4.786-5.647-5.005-.447-.083-1.885 1.554-1.885 1.925 0 .255 2.48 2.78 4.24 4.315.502.44 1.056.798 1.232.798.56-.287 1.99-1.443 2.062-2.033zm4.222-4.156c0-.26-.438-.797-1.508-1.848-2.725-2.676-4.242-3.9-4.72-3.897-.522.173-1.466 1.76-1.522 2.314.177.33 4.736 4.464 5.326 4.865.728.703 2.323-.936 2.424-1.434zm4.275-4.267c.117-.394-.11-.73-.688-1.282-.41-.39-1.863-1.814-3.23-3.16-2.866-2.825-2.873-2.827-3.793-1.508-.948 1.36-.943 1.37 1.85 4.095 2.98 2.907 3.678 3.496 4.14 3.496.707-.326 1.477-.87 1.72-1.64zm-31.947-2.55c-.5-.15-.958-.06-1.35.252-2.112 1.795.883 4.106 2.115 2.665.82-.81.787-2.548-.765-2.917zm36.334-1.88c0-.3-.615-.974-2.745-3.008-5.27-5.03-5.033-4.84-5.618-4.527-.365.195-1.073 1.548-1.073 2.05 0 .376.506.898 4.412 4.546 2.29 2.138 2.968 2.68 3.362 2.68.625-.31 1.633-.98 1.66-1.74zm-36.2.19c1.035-.45 1.228-1.57.64-2.455-1.125-.993-2.69-.173-2.716 1.106.195 1.198 1.212 1.704 2.076 1.35zm40.53-4.414c0-.602-9.023-9.04-9.666-9.04-.436 0-.748.353-1.158 1.308-.355.83-.32 1.32.128 1.75.652.628 2.392 2.23 4.046 3.728.978.886 2.103 1.943 2.5 2.35.927.953 1.95 1.69 2.34 1.69.56-.326 1.336-.767 1.81-1.787zm-41.003-1.09c.008-.338-.08-.684-.32-.942-.62-.66-1.773-.312-2.06.562-.265 2.054 2.295 2.145 2.38.38zm6.682-65.68l1.765-5.396 5.393-.14.756-5.363 5.55-.798.09-5.543 5.308-.726-.328-5.935 4.924-1.167-.245-5.495 4.474-1.372-.18-4.783.77-.602-1.936-1.967-1.667.542-.03 4.915-4.468 1.438.47 5.44-4.516 1.03-.057 5.913-5.19.584-.37 5.218-5.06.996-.756 5.112-4.91.334-1.5 4.492-3.245.038v3.007zm58.673 96.546c-.17-.404.273-.344 1.045.143.806.51 1.98.933 2.816.935.348 0 1.592-.22 2.765-.493 1.402-.514 2.644-.545 4.1-.23 1.082.146 2.17.263 2.42.26.723.102 1.95-.79 2.277-1.352.89-1.522.678 1.243.682 1.56.015 1.416.192 3.043-.823 2.286-.6-.31-1.648-.586-2.484-.027-.843.56-1.54.68-2.526.087-.81-.32-1.238-.386-1.844.177-.675.627-2.313.403-3.19.115-1.51-.25-2.354-.47-3.365.33-.54.308-.678.078-1.084-1.117s-.726-2.528-.79-2.677zm3.84-1c-.096-.153.713-.946 1.26-1.23 1.605-.83 4.793-.792 7.072.05 1.19.44 1.372 1.19.216 1.032-2.406-.504-5.424-.92-7.748.187-.182.098-.755.035-.8-.038zm2.035-3.756c-1.645-.61-2.453-1.26-2.453-1.468 0-.222.353-.18 1.646.172 1.762.654 3.845.998 5.584.39 1.25-.463 1.874-.756 1.874-.478 0 .295-.516 1.06-1.375 1.5-1.71.698-3.965.367-5.275-.116zm35.708-4.57l1.22-.167-.423-5.094 4.497-1.336-.316-5.067 4.793-1.65-.287-5.702 4.98-.98.65-4.992 4.702-.335.974-5.43 5.05-.173 1.04-4.513 3.36-.02-.014-2.536-5.235.016-1.108 4.885-4.94.142-1.048 5.365-5.18-.038-.664 5.783-4.87.8.003 6.227-4.7 1.22.364 5.324-4.694 1.713.53 5.082zm31.396-119.54c-.672.478-.926 1.427-.718 2.2.662 1.746 2.99 1.2 3.266-.07.138-.55-.228-1.383-.864-1.564-.11-.032-.506.005-.712-.207-.15-.154.777-.63 1.323-.45.68.226 1.238 1.127 1.24 1.908 0 .303-.086.75.024.902 1.126-.028 2.416-.648 3.624-.982 2.04-.566 2.78-1.736 2.326-3.107-.377-1.142-1.546-1.595-3.082-1.017-2.11.794-4.584 1.173-6.428 2.387zm-87.13 125.074c6.912-4.855 10.98-7.63 19.85-8.11-3.164-1.3-3.68-3.01-4.57-4.647-10.988 1.04-16.822 4.548-22.042 7.823 2.156 1.016 4.41 2.197 6.763 4.934zm38.522-6.734c-3.35-2.368-7.34-3.8-11.476-4.906l-3.17 3.285c-.185-.118 9.18.094 14.646 1.62zm32.177-31.165c-21.614-33.212-7.095-62.438 7.934-81.06.483-.61.6-.642.49-1.128-.142-.64-.32-3.868-.21-5.733-27.78 27.532-28.492 63.4-11.067 91.867 1.246-1.112 3.757-2.595 2.853-3.945zm3.24-2.84c-3.547-5.91-22.445-37.902 6.42-73.593 0 0-.1-1.82-.316-2.504-.387-1.225-.99-1.72-.99-1.72-12.122 18.2-29.74 40.97-7.736 80.515zm-16.526-60.214c.432-.352 1.06-1.632 1.06-2.16 0-.47-.34-.865-3.596-4.17-4.34-4.403-5.09-5.076-5.645-5.076-.525 0-1.894 1.3-1.894 1.797 0 .24 1.278 1.616 4.293 4.625 5.594 5.584 5.33 5.357 5.784 4.986zm4-8.11c0-.265-.404-.792-1.355-1.77-2.51-2.583-6.088-5.857-6.402-5.857-.4 0-1.495.886-1.783 1.442-.202.392-.198.48.04.85.442.693 6.04 6.007 7.633 7.344.955.876 1.82-1.343 1.866-2.01zm2.162-3.295c.443-.238 1.284-1.81 1.182-2.212-.047-.188-1.467-1.716-3.156-3.396-3.34-3.324-3.534-3.444-4.367-2.7-.755.675-1.227 1.35-1.134 1.62.114.332 5.114 5.415 6.136 6.238.807.65.902.683 1.337.45zm25.486-.246c1.57-1.51-.21-3.16-1.5-2.4-.55.34-.878 1.083-.71 1.575.28.818 1.388 1.264 2.21.824zm3.11-.386c2.656-.697 3.928-1.164 4.485-1.992.385-.573.43-.926-.004-1.86-.4-.863-.866-1.127-2.53-.215-1.144.627-3.69.927-4.58 1.452-.355.306-.182.303.105.484.64.407.954.684.885 1.222-.152 1.172-.03 1.352 1.64.908zm-2.814-4.165c1.29-.66 1.03-2.254-.41-2.886-1.903-.5-3.128 1.788-1.57 2.903.416.292 1.474.24 1.98-.018zm4.288-.646c1.865-.64 2.582-1.14 3.12-2.172.427-.816.245-1.18.19-1.97-.087-1.198-.69-1.062-2.428-.435-.848.328-4.91 1.47-4.966 1.887 1.96 1.12 1.46 1.71 1.476 3.142.102.325 1.022.09 2.608-.452zm-25.43-1.907c0-.54-5.21-5.646-5.763-5.646-.86 0-2.094 1.34-1.91 2.074.084.333 4.972 5.252 5.58 5.617.855.5 2.04-1.23 2.094-2.043zm2.997-3.183c.225-.176.623-.633.886-1.015.562-.817.52-1.272-.15-1.703-.246-.158-1.34-1.147-2.43-2.198-1.09-1.052-2.12-1.964-2.293-2.027-.9-.12-2.523 1.32-2.354 2.056.096.385 4.09 4.32 4.983 4.906.575.38.852.376 1.357-.022zm7.058-7.603c0-.145-.907-.728-2.36-1.517-4.438-2.412-4.514-2.43-5.9-1.3-.477.39-.866.83-.866.982 0 .155.96 1.187 2.188 2.347 2.545 2.408 3.17 2.928 3.526 2.928.733-.54 3.298-2.772 3.41-3.44zm6.213-2.267c.548-.655 1.163-2.93.87-3.388-.268-.27-.96-.227-1.292.073-.342.31-1.187 3.167-1.057 3.506.132.345 1.003.183 1.478-.19zm-48.49 96.802c.42-.056 1.243-.57 2.44-1.597 1.278-1.098 5.328-3.54 5.768-4.524.197-.56.054-1.36-.37-1.42-.32-.047-.388.198-3.08 2.14-1.818 1.31-5.01 3.65-5.49 4.145-.208.53.263 1.2.732 1.255zm-.377 15.644c2.774-1.924 5.02-3.917 8.634-6.144.28-.368.322-.916.152-1.364-.21-.554-.502-.335-1.596.424-2.664 1.795-5.404 3.91-7.7 5.477-.735.498-1.355.774-1.2 1.054.206.372 1.344.485 1.71.552zm2.697 1.18c1.823-1.492 4.005-2.916 5.953-4.358.272-.272.343-1.19.063-1.565-.22-.297-.038-.242-.577.063-.788.448-5.504 3.663-6.383 4.39-.512.423-.938.635-.81.783.588.38 1.214.613 1.754.687zm2.292 1.155c.376-.252 3.617-2.324 3.878-2.6.298-.315.212-1.725-.078-1.837-.82.652-5.142 3.285-5.15 3.71.44.395 1.02.76 1.35.727zm3.465.29c.498-.457.597-.535.607-1.046.02-.927-.21-.888-1.53.055-.922.597-1.483 1.016-1.318 1.374.655 1.023 1.585.215 2.24-.386zm.357 1.89c.26-.096.26-.23.223-.553-.04-.36-.094-.344-.485-.344-1.05.04-.103.99.262.897zm-12.62-5.182c.476-1.573 1.144-2.817 2.235-3.996 4.36-3.864 3.028-8.62.274-12.49 3.564-4.988 7.12-10.272 10.18-15.113l-.01-7.87.412.043c-.142 17.176.642 45.338.642 45.338l3.542 2.7-.477.237c.58-.09-10.313-6.91-16.798-8.85zm3.2-1.96c3.017-2.277 5.95-4.067 8.94-6.49.32-.263.507-.277.516-.872.017-1.133-.21-1.144-1.327-.344-.494.354-2.307 1.622-4.03 2.784-1.795 1.212-3.46 2.29-3.793 2.678-1.683 1.95-2.305 2.87-2.132 3.15.18.29.52-.025 1.828-.906zm3.29-5.517c1.55-1.02 5.257-3.594 5.595-3.912.587-.552.69-1.432.16-1.533-.26-.048-3.13 1.865-5.554 3.704-1.18.895-1.443 1.102-1.443 1.945 0 .51.31.41 1.243-.204zm1.545-4.008c4.752-3.378 4.63-3.092 4.527-4.35-.035-.425-.13-.618-.318-.654-.148-.028-.988.575-1.933 1.24-.946.666-2.073 1.56-2.638 1.95-1.65 1.147-2.198 1.455-2.198 2.112 0 .647.174 1.056.46 1.056.11 0 1.053-.61 2.1-1.354zm-.68-2.616c2.187-1.546 4.6-3.29 4.927-3.704.4-.503.328-1.597-.18-1.597-2.198 1.468-4.84 3.397-6.7 4.92-.24.212-.545.415-.64.692-.02.357.43.83.61.844.362.002.918-.403 1.982-1.154zm-1.426-5.23c1.672-1.133 3.19-2.478 4.85-3.62 1.247-.853 1.6-1.117 1.526-2.19-.042-.62-.587-.263-2.698 1.143-1.548 1.032-2.26 1.44-2.808 2.145-.385.89-1.655 1.726-1.722 2.744-.002.377.25.198.853-.223zm5.13-6.805c1.284-.85 1.406-.87 1.267-2-.175-1.412-.32-1.33-1.546.544-.806 1.233-1.082 1.59-.96 1.82.21.39.44.167 1.24-.363zm-4.673-10.4c-.137-.63-.33-.492-.975.075-1.19 1.044-1.376 1.8-.636 2.196.393.21.698.186.93-.33.505-1.11.646-1.503.68-1.94zm-6.66 9.88c-.152-.573-.854-1.355-1.388-1.63-.53-.275-.852-.224-1.358.42-.466.592-.25.944.45 1.83.515.65.723.856 1.126.856.49-.192 1.273-.85 1.17-1.475zm-25.77 24.777c-.34-.655-1.06-1.347-1.39-1.23-.35.12-.692.623-.696.938.145.644.69 1.08 1.107 1.092.788-.11 1.266-.248.98-.8zm3.142-.998c-.68-.716-2.022-2.296-2.24-2.296-.345 0-1.164.86-1.164 1.214 0 .417 1.222 2.128 1.628 2.265 1.028-.097 2.915.018 1.775-1.184zm3.878.2c-.072-.345-3.892-4.406-4.174-4.406-.364 0-1.084.8-1.084 1.168 0 .296 1.234 1.905 2.374 3.096.568.593.618.68 1.314.57.758-.118 1.746.046 1.57-.427zm6.75-.907c0-.82-.43-1.27-2.154-3.136-.626-.678-1.683-1.854-2.35-2.615-1.29-1.473-1.84-1.924-2.355-1.926-.407 0-1.028.658-1.028 1.077 0 .27 3.175 3.91 6.05 7 .638.686.925.886 1.537.56.35-.24.298-.647.298-.96zm-4.97-9.753c-.646.53-.886.748-.89 1.102-.004.538 5.476 6.56 5.965 6.56.287 0 .243-.04.412-.687.34-1.965-.194-2.542-1.615-3.838-.952-.87-2.872-3.86-3.873-3.138zm9.664-4.028c-1.53-1.83-2.376-2.672-2.687-2.672-.212 0-.53.205-.874.585-.57.54-.516.522-.154 1.165.188.335.714.993 1.17 1.463.842.87 1.274 1.147 1.68.73.36-.37 1.247-.805.866-1.27zm-.798-4.565c-.373-.004-1 .668-1 1.034 0 .308 1.24 1.864 2.107 2.64.7.626 1.03.795 1.518.38.364-.527.282-1.01.055-1.415-.62-.705-1.975-2.61-2.68-2.64zm4.3.448c-.01-.534-1.576-2.57-2.072-2.772-.412 0-1.286.96-1.286 1.403 0 .238.335.767.903 1.426 1.117 1.296 1.403 1.58 1.646 1.378.398-.33.816-.912.807-1.435zm1.766-2.293c.103-.447-.173-.907-.8-1.692-.78-.982-1.164-1.048-1.9-.288-.273.28-.4.526-.4.662 0 .375 1.64 2.46 1.945 2.46.704-.09.918-.6 1.155-1.142zm-2.885 5.162c-.146.672-.43 1.112-1.078 1.424-5.007 3.608-4.846 9.486-5.914 14.913-8.107-.082-20.924 3.243-20.844 3.418l43.082-43.463s.535.133.208.514c-3.487 2.505-3.27 7.38-5.563 9.82-3.832 4.63-7.392 8.647-9.892 13.372zm-23.384 17.753c.07-.492-.38-.625-.776-.23-.387.387-.234.69.317.626.29-.033.426-.15.46-.395zm13.278-1.827c.16-.413-.218-.8-2.528-3.362-2.337-2.594-2.868-3.202-3.272-3.202-.343 0-1.18.85-1.18 1.197 0 .16.367.687.816 1.17.45.483 1.302 1.43 1.895 2.107 1.02 1.165 1.506 1.727 1.894 1.998.382.267.67.253 1.28.253.84 0 1.023.027 1.094-.16zm3.994-8.156c.16-.51.386-.96.387-1.153.002-.357-2.95-3.365-3.45-3.688-.596-.386-1.72.875-1.44 1.61.078.205.956 1.237 1.952 2.296 1.265 1.346 1.898 1.98 2.104 1.948.21-.032.24-.35.446-1.014zm1.235-3.16c.215-.32.392-.738.392-.933 0-.222-.495-.82-1.202-1.614-1.316-1.48-1.654-1.65-2.374-.96-.718.687-.474 1.005.787 2.435 1.58 1.79 1.76 2.008 2.397 1.07zm11.282-14.13c.49-.583.5-.872.052-1.405-.192-.227-.47-.558-.617-.735-.406-.486-.94-.405-1.494.224-.263.3-.438.604-.437.708 0 .103.284.518.63.922.78.91 1.26 1.007 1.866.287zm1.728-2.23c.334-.51.183-1.07-.44-1.64-.593-.54-.887-.562-1.302-.1-.556.617-.466.823.13 1.484.675.747 1.218.86 1.612.257zm1.386-1.85c.46-.46.452-.856.038-1.382-.387-.493-.788-.627-1.196-.408-.71.38-.635 1.03.064 1.768.424.446.623.493 1.094.023zm-32.966 92.71c8.824.988 18.303 1.68 35.014-.918l.084-5.67c-5.212 4.064-12.055 1.278-12.45-3.4-.045-4.17 1.068-8.98 2.007-12.41.698-2.55.898-3.533.244-4.03-1.442-.812-4-.914-4.654-2.608-.313-.894-.343-1.85.115-1.17.21.314 1.875 1.088 3.174 1.378 2.263.505 2.627.674 2.884 1.603.162.587-.21 2.612-.807 4.44-.428 1.308-.926 3.41-.926 3.815 0 .442.347.515.735.392.167-.054.962-.85 1.463-1.296 2.174-1.94 2.805-1.882.948.016-.737.754-1.756 1.795-1.756 1.874 0 .402.377.356 1.212.055 1.285-.465 4.3-.41 5.64.265 1.667.838 1.738.8 1.7-1.738-.3-4.745-1.073-10.358-2.62-14.74-2.357-6.68-7.253-12.88-14.487-12.6-8.818.46-14.14 3.97-20.14 8.176 3.624 8.038-1.612 14.195-3.51 15.008-.182.078 2.376 8.17 3.468 12.282.992 3.734 2.66 11.276 2.66 11.276zm37.537-193.874c-.205-.528-5.11-16.513-6.482-23.198-13.26-.772-23.067-1.873-34.744 1.442 0 0-.254 4.504-.132 4.722.12.557.52.544.85.36 5.393-2.962 11.238-1.627 11.644 5.68.154 2.792-.784 4.758-.955 7.406-.15 2.312-1.967 5.393-.865 7.15.14.215.918.64 1.98 1.095 1.98.848 2.755 1.627 2.9 2.92.216.895-.33 1.495-.495.577-.104-.582-.207-1.095-2.65-1.932-2.383-.816-3.026-1.762-3.264-2.26-.327-.687-.265-1.174.04-2.27.653-2.328 1.296-4.705 1.237-5.827-.02-.404-.47-.207-1.04.28-.727.617-3.834 2.662-3.92 2.575-.042-.04.512-.865 1.382-1.696 1.055-1.01 2.368-2.23 2.368-2.456 0-.396-.155-.12-1.178.183-1.783.49-3.838.42-5.22-.19-1.17-.516-1.992-.815-2.167-.533-.433 7.12.624 14.457 3.61 20.18 2.676 5.202 8.237 11.716 16.6 10.254 8.64-1.51 17.046-8.458 16.744-8.467-3.225-7.3.448-12.738 3.755-15.995zm-68.492 194.347c-3.83-3.834-13.48-8.005-20.112-9.92-.53-.114-1.053-.366-1.057.262l-.078 13.16-11.853 11.108.21 5.42 25.147-.12 16.694-24.477s.804-.145.893-.294c-3.064-12.998-7.678-23.378-10.61-28.58.05.063-4.215 3.444-7.965-.76-2.105-2.358-.813-6.5 1.183-8.018-1.684-1.24-5.174-3.485-7.462-4.134-.476-.116-1.185.847-1.417 1.718-.418 1.416-1.114 2.682-1.58 4.11-.513 1.192-1.008 1.372-1.773 1.037-1.192-.354-1.508-.477-1.508-.477l.038 15.47c9.15 3.174 18.568 11.308 21.25 24.495zm38.03-165.32l2.71-2.943c-4.288-.526-8.784-1.293-14.045-2.944 3.653 2.715 7.48 4.396 11.335 5.888zm-14.897-8.28c4.78 1.593 10.83 5.31 18.382 3.91-6.885-2.73-12.113-9.112-14.34-22.104-.488 2.522-1.495 7.766-3.08 8.334-2.23-8.622-11.186-3.608-7.594 3.424-9.08 6.237-19.995 9.757-29.895 14.568 0 0-1.49 4.574-8.908 10.84-1.4-7.347.27-18.245-.6-25.625l-11.626-10.98c.178 2.09.097 3.39.004 5.838.32.426.76.65 1.208.917.75 42.315-.26 84.146-.25 122.58-.116 23.555.507 48.097.163 70.336l-.434.805.018 5.316 11.872-11.303s-.552-8.02.07-14.15c7.493 1.508 14.48 5.03 20.745 8.89.79.22-3.844-15.4-20.692-22.336 0 0-.023-4.878-.023-15.483 0-10.23-.16-11.313-.386-11.48-.683.742-9.305 3.647-9.742 3.156.23.077-2.432-18.11-.13-20.87l8.248.172c2.36 1.904 1.41-.415 2.78-.796.822-.222 4.637 1.264 4.637 1.264 15.72-18.556 14.15-49.074 2.868-66.244-2.89 2.347-5.962 5.528-8.86 6.893-.035-.1-.053-9.467-.053-9.467 15.02-9.64 31.36-37.57 30.318-37.664 0 0 4.65 4.53 6.456 7.092l-14.827 21.475c3.397 6.838 6.832 13.04 9.06 19.053.303.813 1.232.79 1.466 1.646.2.73-.694 1.747-.57 2.554 3.128 11.967 3.838 24.666.75 36.17-.65 2.59.542 4.69 2.136 6.636.132.17-1.485-1.4-1.63-1.486-.555-.333-1.48.835-1.673 2.31.127.902.618 1.06 1.267 1.793 1.144.95 5.69 5.427 7.693 7.472 1.778 1.815 2.238 1.897 3.436.61.337-.317.69-.746 1.016-1.014.06.1.504-.362.655-.51l26.78-26.136c3.11-3.036-26.74 27.424-26.74 27.424s-14.473 14.21-18.024 17.713c-3.667 3.618-4.163 4.41-4.31 4.68-.26.478 1.184.465 1.84.368.053-.008-.55.14-1.162.135-3.77-.843-5.054 3.324-7.43 4.163-6.287 4.465-2.06 11.634 3.947 9.267l1.464-.704c3.64 6.762 8.892 19.08 11.356 29.786l-.993.46-15.838 23.758h89.822c-6.452-6.422-11.94-14.31-17.53-20.21-8.958 2.678-36.044 2.132-35.617.967 0 0-4.1-16.603-6.42-24.76 7.363-6.307 6.61-16.256-4.08-20.722 7.78-6.144 15.615-8.226 23.252-8.725 2.48 6.3 8.305 6.697 11.055.928.02-.065 10.328 3.17 14.13 6.67-5.637-.584-11.203-1.706-16.844-1.976 4.965 1.96 10.02 7.08 11.64 12.935.792 2.09 2.004 8.994 2.325 9.02 0 0 1.88-7.974 3.34-7.535 3.72 7.763 10.134 1.924 7.432-4.26 9.474-4.523 20.135-9.574 28.85-13.766 2.545-3.835 8.8-11.12 9.21-11.152 0 0 11.505-65.908 11.502-87.94-.382-26.49.53-55.974-.61-80.75l-.01-7.12-24.3.01-17.346 25.51s-.13.403-.127.58c2.367 10.29 5.405 19.05 10.17 28.558 6.578-4.967 12.12 3.213 7.188 7.963-.925.89-.677 1.116.25 1.737.913.612 7.155 3.752 7.445 3.752 1.13-1.677 1.457-4.154 2.218-6.046.19-.72.736-.81 1.823-.682 1.4.165 1.39.746 1.345-8.15l-.04-7.64c-8.432-3.884-19.597-13.76-20.118-24.028 4.876 3.547 16.08 8.705 19.07 9.167 1.315.367 1.113-1.923 1.154-2.842.356.238.484 3.776.484 3.776-4.95-1.497-7.542-1.192-19.896-8.35 2.12 10.1 12.235 18.067 19.57 21.7 0 0 .306 4.798.29 10.172-.046 16.39.118 17.112.118 17.112 0-.01 4.036-1.03 5.157-1.585 2-1.604 5.207-.375 5.65.806.652 6.185.026 11.92-.11 17.827-3.42.243-5.293.963-6.98 1.032-1.096-.147-1.762-.154-2.322-.777-1.633-3.527-1.527-1.29-1.726 1.358-.15.784-4.237-.58-4.644-.816-17.65 20.318-16.147 43.71-4.16 65.372 1.98-1.336 5.39-3.887 8.8-5.562.082 2.756.13 8.43.13 8.43-13.82 10.137-30.366 36.996-29.807 37.07l-5.613-6.702s3.534-5.618 4.78-7.103c.145-.17.238-1.913.238-1.913l8.578-12.404c-3.878-6.87-6.528-12.746-9.287-19.503-.156-.566-.83-2.994-.682-3.224-5.723-25.857.478-38.718.02-39.698 0 0-.075-.517-.197-.618-.187-.156.05-.305.26-.674.408-.716 1.058-2.186.836-2.62-.164-.322-4.805-4.963-8.784-8.784-2.094-2.01-2.01-2.24-3.093-1.143-.4.407-1.387 1.566-1.387 1.566-14.376 13.3-25.786 25.412-40.213 39.57l-.693-.628c20.988-20.86 42.17-41.513 62.954-62.576l-3.656.062c.103-.265.255-.512.468-.584 1.96.002 3.975-.593 5.432-1.42 2.964-2.202 7.22-5.15 7.553-8.055-.213-5.59-4.928-6.4-8.333-3.668-4.733-8.5-8.48-18.73-10.487-28.276-.094-.474-.76-1.29-.86-1.832 1.013-3.17 17.086-25.074 17.086-25.074h-90.264l17.18 20.456c0-.816 24.482-3.707 35.695-.293l6.83 24.257c-6.204 5.997-8.038 15.86 3.37 20.994.223.48-1.08 1.272-1.08 1.272.18-.296.496-.602.37-.874-3.076-1.344-6.37-4.747-6.37-4.747-6.863 5.362-13.278 8.347-19.562 8.612 0 0 3.318 2.25 3.96 4.72 0 0-.31-.037-.39-.136-.68-.832-2.246-3.525-3.566-4.318-2.238-.536-3.56-.146-5.326 1.07l-2.39 2.31c-5.484-1.668-11.575-4.396-14.93-8.538zm-.918 59.367l2.502-2.47c.287-1.832.784-4.163 2.9-6.7 2.344-2.816 4.938-5.463 6.847-7.97 2.294-3.01 3.54-5.736 2.936-7 3.418-.615 6.556-3.632 6.656-9.107.04-2.876 1.427-7.07 1.532-7.013 0 0 23.858-.812 40.27-16.458 0 0 1.15.25.88.458-6.218 6.228-12.832 10.82-20.65 13.745l-43.112 43.065zm4.773-4.94c.645-.646.79-.857.426-1.16-.556-.46-1.626.49-1.626 1.448 0 .608.482.43 1.2-.29zm2.233-2.196c.512-.49.494-.848.07-1.272-.583-.582-1.43-.224-1.715.716-.287.946.84 1.328 1.645.556zm1.965-1.987c.264-.3.48-.61.48-.685 0-.333-.823-1.09-1.186-1.09-.463 0-1.29.778-1.29 1.213 0 .363.83 1.108 1.234 1.108.155 0 .497-.246.762-.547zm1.85-3.7c-.585-.494-.97-.498-1.455-.014-.562.562-.504 1.18.167 1.77.51.53.73.48 1.418.054.58-.59.683-1.143-.13-1.81zm2.175-.33c.634-.534.544-.973-.148-1.664-.727-.728-1.29-.734-1.807.037-.194.29-.23.58-.23.662 0 .282 1.2 1.35 1.517 1.35.173 0 .406-.165.668-.386zm2.09-2.065c.54-.563.47-.965-.303-1.76-.65-.67-1.102-.72-1.675-.19-.593.55-.47 1.128.2 1.796.675.678 1.177.783 1.778.155zm2.37-2.397c.394-.418.288-.385.007-.84-.434-.7-1.7-1.863-2.06-1.863-.452 0-.85.724-.845 1.438.004.71.35.998 1.25 1.706.598.47.415.512.875.242.255-.15.602-.457.772-.684zm1.877-1.717c.848-.965.687-1.15-1.36-3.308-.694-.73-.838-.815-1.335-.773-.47.038-.503.155-.746.652-.448.915-.117 1.38 1.17 2.75 1.327 1.41 1.522 1.53 2.27.68zm2.1-2.252c.327-.288.546-.623.546-.835 0-.377-1.658-2.215-2.25-2.554-.42-.24-.857-.105-1.4.362-.327.28-.32.35-.242.658.127.505 2.26 2.752 2.61 2.75.146 0 .434-.118.735-.382zm2.08-2.02c.353-.36.63-.794.63-.984 0-.405-1.786-2.473-2.34-2.762-.468-.246-.742-.144-1.205.508-.535.75-.326 1.093.734 2.314 1.005 1.16 1.327 1.51 1.514 1.51.063 0 .32-.232.667-.586zm1.966-2.114c.45-.274 1.04-.852.802-1.324-.254-.484-3.382-3.8-3.72-3.98-.66-.352-.64.157-.64 1.8v.85l1.44 1.41c2.098 2.056 1.63 1.554 2.118 1.244zm2.544-2.335c.25-.25.484-.67.48-.824-1.298-1.58-5.074-6.58-5.756-6.396-.072.02-.1.022-.15.165-.168.502-.237 1.537-.12 2.376 1.193 1.146 4.003 4.877 4.64 5.107.38.147.547-.068.906-.428zm2.03-2.13c.238-.228.433-.538.433-.688 0-.15-.42-.675-.867-1.2-.446-.527-1.32-1.593-1.943-2.368-3.558-4.438-3.816-4.77-4.36-4.318-.356.296-.442 1.34-.262 1.732.31.674 4.195 5.36 5.448 6.57.797.768.954.845 1.55.272zm2.046-1.96c.304-.287.552-.667.552-.845 0-.178-.573-.9-1.174-1.606-.6-.706-1.6-1.91-2.224-2.676-1.596-1.963-1.61-2.034-2.8-2.157-1.806-.185-1.565.213.48 2.6.495.577 1.43 1.717 2.078 2.534 1.517 1.912 2.186 2.615 2.486 2.615.132 0 .298-.18.602-.466zm2.087-2.046c.925-.778.743-1.034-2.267-4.142-.987-1.02-1.057-1.18-1.823-1.18-.772 0-1.02.16-1.02.532 0 .23 3.92 4.89 4.206 5.003.385.155.43.185.903-.213zm2.193-2.245c.246-.265.448-.607.448-.76 0-.335-.85-1.416-1.648-2.116-.374-.327-.844-.666-1.146-.666-.512 0-1.39.29-1.54.534-.098.158 1.066 1.596 2.21 2.802.758.8 1.055.87 1.676.205zm1.925-1.91c.485-.486.48-.93-.014-1.58-.36-.47-.468-.516-1.206-.516-1.4 0-1.44.358-.357 1.516.806.862 1.028 1.13 1.578.58zm2.062-2.03c.544-.69.08-1.07-.815-.664-.212.097-.325.348-.37.464-.276.72.66.867 1.185.2zm-34.417 5.85c-1.99 1.26-5.335 3.643-7.61 5.236-.06.34-.104 1.212.002 1.89 1.29-.877 5.433-3.524 7.314-5.016.096-.56.233-1.545.295-2.11zm3.65-5.773c-.066-.338-.29-.124-.88.374-.77.653-7.315 5.502-9.053 6.722-.66.464-1.282.855-1.353 1.018-.068.154-.132 1.47.12 1.803 1.416-1.083 8.145-5.595 8.246-5.75.695-1.11 2.247-3.047 2.92-4.166zm-.75 14.615s-8.027 9.65-10.608 14.456c0 0-.018 5.498-.093 8.665l-.437.122s-.038-8.486-.146-17.697c-.27-23.016-.496-28.605-.496-28.605l-2.607-1.91-.108-.904s11.566 8.098 17.21 9.39c-4.123 6.462-7.937 8.954-2.715 16.482zm-9.526 11.54c.16-.388.05-.37-.28-.355-.244.01-.382.236-.393.482-.013.28.012.347.232.305.156-.03.362-.246.44-.433zm1.93-2.86c1.155-1.423 2.11-2.345 2.28-3.39-.74.12-4.997 3.106-5.064 3.422.04 1.58-.32 1.77.98 1.074.57-.31 1.033-.692 1.804-1.106zm.364-3.525c1.242-1.032 5.768-3.466 6.287-4.666.202-.55-.444-1.067-.545-1.017.082.073-6.482 4.006-8.877 6.07-.213.265-.16.718-.016 1.093.263.69.786.13 3.152-1.48zm-1.506-1.897c1.35-.9 4.543-3.107 5.337-3.66 1.35-.938 1.62-1.253 1.132-1.948-.194-.277-.458-.442-.904-.246-3.91 2.722-4.246 3.183-7.214 5.09-.2.536-.15 1.335.158 1.62.226.012.603-.265 1.49-.856zm-.015-2.938c3.56-2.575 5.482-3.878 5.608-4.162.14-.314.182-1.54-.05-1.67-1.325 1.008-4.868 3.176-7.29 5.14-.062.403-.136 1.31.06 1.504.49.203.637-.063 1.673-.812zm-.425-9.3c2.592-1.922 4.988-3.595 7.687-5.398 2.286-1.518 2.668-1.856 1.79-2.31-.3-.156-.91-.402-1.3-.27-3.04 2.452-6.415 4.8-9.635 7.182-.08.356 0 1.055-.02 1.37-.03.486.61.07 1.478-.573zm-.356-2.742c.213-.187 1.57-1.087 3.016-2.133 3.878-2.807 4.335-3.08 4.335-3.378 0-.816-1.118-.99-2.137-.16-1.87 1.523-6.333 4.297-6.344 4.69-.016.58-.113 1.152.056 1.406.215.322.528.053 1.074-.426zm1.12-3.802c3.945-2.752 3.79-2.624 3.79-3.118 0-.43-.385-.238-.99-.28-.568-.043-.58.117-1.66.935-2.304 1.74-3.147 2.216-3.388 2.73-.076.16-.13.8.01.94.28.277.6-.064 2.237-1.207zm.26-2.737c.772-.642 1.392-1.114 1.443-1.25.113-.292-.47-.814-.91-.814-.476 0-.847.246-2.027 1.26-1.04.898-1.253.71-1.17 1.216.047.293.052.94.15 1.06.252.302.792-.038 2.514-1.47zm-1.598-1.777c.834-.7 1.01-.846.402-1.454-.55-.552-1.193-.69-1.532-.35-.187.247-.005 1.7-.025 1.99-.034.465.585.292 1.154-.187zm17.87-15.144c0-.302 1.45-1.364 2.54-1.606 1.388-.31 3.13-.15 4.35.46 1.05.525 2.192 1.786.503 1.018-1.55-.69-4.875-.698-6.08-.14-.892.452-1.314.568-1.314.267zm-1.08-5.32c.113-.112 1.564.263 2.363.473 2.143.565 3.903.233 6.148-.415.527-.152.79.212.465.48-1.14.79-2.62 1.25-3.896 1.368-2.807.262-5.827-1.17-5.08-1.905zm-13.764-4.142c1.197-.586 2.66-8.803 2.19-10.217-1.468 2.24-3.112 3.246-5.453 2.858-3.835-.636-3.978-5.355-1.015-5.83 1.184-.19 2.632.59 2.87.407 1.262-.592 2.252-4.835 2.56-6.207.227-1.346.56-5.077.61-6.265.107-2.525.006-6.25.006-6.25l-18.66-22.323-40.87-.176s-.13 31.27-.034 47.267l11.573 11.107.146 17.95c12.93-5.642 25.447-11.57 37.7-17.978-1.422-1.7-1.38-5.978 1.21-7.596 3.814-2.383 6.983.77 7.167 3.254zm10.244 3.805c.087-1.012.84-1.845.892-2.874 0-.23.186-.496.793-.173.793.42 1.037.125 1.933-.288 1.592-.734 2.047-.717 3.272-.227.793.424 1.037.422 1.78.037 1.017-.672 2.098-.89 2.992-.577 1.334.465 1.798.722 2.56.353.383-.185.863-.88.947-.83.548.815.438 2.096.787 2.817.62 1.223.38 2.1-.35 1.498-1.535-1.264-2.73-1.295-4.93-.75-1.29.32-1.937.567-3.364.398-4.423-.524-4.723-.392-5.62.21-.875.583-1.545.642-1.692.405zm11.872-8.016c-1.277-.32-2.737-1.48-3.794-1.168-1.303.087-2.046-1.45-1.377-2.292 1.144-1.114 2.92.01 3.61.532 1.498 1.138 1.712 1.228 2.318 1.228 2.487-.05 2.01-2.372.81-3.22-.715-.748-.785-1.232-.633-1.415.246-.296.955-.047 1.733.772 1.49 1.398 1.524 4.185-.302 5.027-.908.507-1.505.75-2.364.535zm5.19-8.054c-1.158-.84-3.217-2.72-3.756-3.39-.91-1.133-1.273-1.858-1.16-2.768.09-.708.197-1.13-.258-1.363-.483-.25-.947-1.32-.853-1.88.025-.156.57-.063.9.35.417.067.33-.18.785-.482 4.728-3.174 8.524-2.562 13.01-.38 1.302.625 4.7 3.202 2.88 2.366-.108-.05-1.3-.566-2.504-1.173-3.89-1.863-8.225-2.99-11.754-.597-.608.425-.975.752-.502.752 1.984-.386 3.946-1.21 5.984-1.082 3.038.04 4.876 1.54 7.155 2.575 2.474 1.105 2.95 1.483 2.05 2.396-.255.28-.46.273-1.654.18-1.285-.097-1.392-.06-2.114.402-1.894 1.214-4.354 1.876-6.54 1.693-2.574-.216-2.85-.422-2.902-.05-.034.236.52.646 1.28 1.344.58.53 1.358 1.31 1.426 1.43.214.378-.766.192-1.474-.32zm-.722-4.12c-.006-.304-.573-1.63-.912-1.97-.325-.33-.58-.2-1.27.286-.522.365-.577.654-.098 1.08 1.018.903 2.29 1.13 2.28.604zm3.876.183c1.04-.503 2.097-2.286 1.617-2.864-.286-.345-.534-.018-1.08.95-.26.46-.71 1.048-.902 1.183-.85.594-1.97.04-2.44-1.273-.286-.792-.585-1.295-.917-.995-.6.543.08 2.502 1.27 3.008.704.3 1.723.344 2.452-.01zm3.232-.293c1.054-.325 1.557-.8 1.47-1.26-.074-.38-.833-.828-1.348-.828-.23 0-.683-.01-.846.206-.358.478-.927 1.926-.953 2.083.123.32.48.17 1.677-.2zm3.642-7.853c-5.255-2.01-9.406-2.817-14.404-.685-1.6.695-2.514.767-2.595.2-.067-.478 1.085-1.894 2.33-2.548 3.49-1.596 7.68-1.746 11.19-.062 1.31.642 4.993 3.26 4.993 3.497 0 .26-.333.058-1.514-.402zm61.51 58.884c1.253-.66 1.828-1.958 1.062-2.724-.225-.225-.54-.223-.8-.223-.438 0-3.726.88-4.363 1.222-.416.22-.265.61.132.97.183.165.32.52.348.91.036.498-.063.95.267.872.67-.154 1.73-.302 3.355-1.028zm-4.672 1.204c.357-.65.205-1.54-.732-2.085-.488-.253-.875-.118-1.267.442-.93 1.698 1.38 2.427 2 1.643zm-4.69.796c.2-2.17.102-8.578.102-8.578s-1.167.986-1.903 1.02c.27-.938.564-1.282.983-2.2.24-.974.373-2.694.306-3.678-.074-1.078-.834-1.107-.05-3.043.4-.99.47-2.03-.048-3.256-.223-.606-.295-.953.287-1.72.54-.712.327-1.07.316-2.554-.014-2.058 0-2.393-.624-.733-.93 1.376-1.36 1.112-2.777.947-1.372 3.074-2.977 6.297-3.04 8.947-.04 1.662-.06 1.92.976 5.413.387 1.3.52 1.734.542 3.307.02 1.5.133 2.03.36 2.858.407 1.474 2.06 3.913 4.57 3.27zm-47.716 138.26l.005-3.09s-4.943 1.524-7.452.586c-2.584-.7-2.575-.827-2.524-.547.09.5 2.008 1.51 3.783 1.927 1.248.293 3.75-.003 4.975-.366.696-.206.77-.012.492.2-3.03 2.37-6.876 1.28-9.29-.687-1.292-1.264-2.157-1.27-1.46.427 3.317 6.722 11.554 2.756 11.472 1.55zm-3.337-4.593l1.123.022s-.345-1.96-.928-2.53c-1.192-1.17-2.877-.99-3.945.157-.49.525-.864 2.385-.864 2.385l.904.02c.335-.87 1.762-4.942 3.71-.054zm-4.5-2.962c-.64-.175-2.042.462-2.724.905-.253.28-.255.32.046.716.655.862 1.656 1.274 1.727.95.29-.453 1.016-2.397.95-2.572zm7.428 2.18c.148-.604-.42-1.634-1.305-1.995-.383-.095-.762-.172-.65.25.125.472.39 1.247.637 1.764.18.39.294.585.672.438.296-.1.545-.192.646-.458zm48.248-40.976l.01-5.235c-2.643 2.68-6.1 7.176-7.145 8.86zM359.99 435.645c1.118-.48 1.94-1.943 1.657-2.683-.176-.46-.642-.09-1.112.59-.756 1.093-.948 1.21-1.613 1.21-.708 0-.99-.18-1.474-1.133-.335-.9-.572-1.042-.884-.65-.147.177-.135.43.055 1.087.498 1.716 1.782 2.258 3.37 1.578zm3.05-.54c1.243-.43 1.496-.565 1.437-.978-.06-.433-1.05-1.01-1.61-.904-.404.244-1.454 1.905-1.394 2.202.143.232.56.026 1.568-.32zm-7.164-.725c-.043-.383-.096-.76-.202-.887-.398-.48-1.24-.14-1.24.47 0 .463.66.988 1.194.988.377 0 .323.093.248-.57zm7.02-3.13c1.767.665 2.663.74 1.7-.164-1.32-1.466-7.377-3.14-10.627-.748-.233.33-.185 1.594.068 1.524 2.645-1.783 6.03-1.688 8.858-.612zm-6.05-5.055c-1.484.494-2.878 1.27-3.057 1.993-.29 1.165.233 1.177 2.174.566 2.5-.82 5.3-.448 7.43.784 1.62 1.177 2.1.788 1.825-.2-.906-3.275-5.965-3.865-8.373-3.143z" fill="#131f67"/><path d="M452.163 405.173l-10.92 10.82.152 12.807c1.098 2.012-16.855-5.738-19.69-8.084.33 8.555 12.005 18.3 19.597 21.868l.208 27.164s3.055-1.185 4.737-1.77c1.245-.432 4.093-.39 5.032-.84 1.49-18.62 2.76-42.848.883-61.965zm-60.742 13.403c-1.063.018-1.7.306-1.686.99-.32-.053 4.035 15.99 6.018 22.69-3.86 3.898-7.886 10.67-2.122 16.94 1.23 1.34 3.482 2.47 5.626 3.756.955.927-11.72 9.098-23.003 9.102-3.616-7.93-8.67-3.546-11.455-.78-2.177-.19-10.3-5.03-14.457-7.8-.065-.044-.022-1.192-.013-1.402.29 1.89 16.28 5.97 17.004 4.075-.46 0-7.173-4.54-9.1-9.02-2.46-5.052-4.433-11.99-4.433-11.99-.895 2.565-.59 6.122-3.055 7.394-.738-8.35-12.665-4.09-6.728 4.076-3.335.978-6.187 2.704-9.425 4.142 6.773 9.217 16.097 15.348 25.945 18.962-1.3 2.767-8.968 8.995-2.668 16.337.284.226-6.02 7.102-9.12 12.48-2.335 4.048-1.63 7.154-1.364 7.255 8.54-9.788 13.34-18.067 13.34-18.067-.072 1.138 10.137.522 9.967-8.672.226-2.48.675-5.17 1.63-7.472 15.578.734 28.973-4.817 40.296-16.472 0 0 2.306.658 3.76.885.73.113 1.763-.362 1.933-.41.655-.035 1.6-.162 2.484-.658 1.21-.68 2.43-1.85 3.722-2.896 1.694-1.373 3.386-2.696 3.987-4.11.676-1.57.147-3.465-.43-5.142-3.634-4.28-6.045.322-7.656-.276-5.59-7.6-10.255-29.103-11.016-29.27-3.122-.63-13.806-4.717-17.98-4.646zm-38.377 14.674c-.417.028-1.916 6.713-3.243 6.66-5.623-3.62-5.745 3.875-.91 3.534 4.086-.288 6.37-6.88 4.172-10.19-.006-.002-.012-.004-.02-.004zm-60.104 12.717c.185 40.644.917 81.274 1.87 121.905 3.673-.906 6.344-1.598 9.947-.024.338-11.55-.678-40.7-.435-68.925 13.73-10.678 23.372-22.454 30.146-37.846l-20.963 9.817s-6.85 9.82-9.038 10.45c-.312-1.398-.662-18.02-.377-25.15zm46.58 25.14l-4.12 5.96s.096 20.467.334 30.33c.17 1.963 1.955 3.764.527 5.524.872 0 4.68 26.555 1.06 37.32-.648 1.928-.042 3.29.97 3.73l7.85 7.967c2.477.822 4.888.5 6.966 0 7.43-6.797 17.985-18.706 17.985-18.706l-27.902-26.375c-2.393-6.398-3.67-45.75-3.67-45.75zm101.69 85.358c-20.202 15.102-28.886 36.594-29.02 36.45.07.25-.1 1.132 1.165.435 5.23-2.832 18.672-8.937 18.672-8.937 3.193-3.836 5.648-7.54 9.304-11.19 0 0 .397 16.654.074 25.01 3.298 2.45 11.127 10.11 11.127 10.11s2.162-118.322-2.503-121.325c-4.53.878-6.805 2.533-8.496-2.722-1.194 24.09-.01 48.265-.32 72.17zm-43.873-66.59c-4.872 3.982-21.626 20.415-21.59 20.585 4.442 7.45 21.99 22.378 30.4 30.722l1.22 42.51c1.237-1.664 2.137-3.23 3.48-4.896 0 0-.22-21.524-.74-31.616-.154-2.984-.838-5.335-.623-5.606-2.368-12.248-3.35-25.78 0-38.91-7.945-6.844-10.47-11.395-12.147-12.79zm1.305 48.552c-.012.004-.025.013-.04.03-4.112 5.857-11.977 18.575-12.54 18.545-.168-.38-8.13-.025-9.635 4.983-1.264 3.73-1.36 7.16-2.28 11.006-15.975-.52-27.67 4.53-39.984 15.88-3.502.137-6.57.424-8.724 1.222-1.807.67-2.777 1.873-3.887 2.678-3.125 2.265-3.972 4.198-3.82 6.564.28 4.286 7.854 4.896 8.243 1.875.383 0 7.412 16.056 8.096 18.792 1.657 4.423 3.433 12.698 3.644 12.712 2.83.18 18.716 4.636 18.773 3.02 1.496-.642-5.525-23.618-5.525-23.618 12.272-10.295-1.258-21.298-4.437-20.895 6.987-4.973 15.005-8.324 23.848-8.765 1.37 4.914 7.714 7.44 10.91.91 0 0 13.744 4.918 13.687 6.548-5.66-.854-10.312-1.3-15.98-1.84 10.86 5.892 11.192 13.66 13.41 21.392.3-1.37 3.165-7.352 3.165-7.352 3.683 8.167 10.686 2.5 7.796-4.094l8.715-4.042c1.003-.51-13.027-16.29-25.787-18.527.642-1.174.897-2.28 1.56-3.237 3.2-3.14 5.68-7.735.79-13.234 3.228-4.513 10.715-15.405 10.24-15.6 0 0 .146-5.09-.24-4.953zm-104.92 50.198c-.122 0-.347 37.768-.082 56.516-.314.777-.518 4.926-.518 4.926l11.62-10.914.348-14.11c3.034-.725 21.945 8.875 20.43 8.822 1.445-.608-8.728-19.818-20.594-21.95-.22-10.882-.332-23.203-.643-26.515-4.12.785-10.56 3.25-10.56 3.225zm103.166 22.72c-3.254.97-4.61 7.81-3.558 11.126.195.615.072.747.59.147 1.268-1.862.868-5.568 3.108-7.526 5.915 1.785 5.33-5.907-.14-3.745z" fill="#e2cf00"/><path d="M458.326 672.192v-3.48h3.132v-18.774s.016-4.518.222-5.087c2.415-8.228 15.787-7.656 16.453-.315.28 1.25.204 5.403.204 5.403h-3.54s-.024-1.324-.07-2.303c.457-7.795-9.006-6.176-9.476-.94-.195.94-.215 3.243-.215 3.243v18.773h3.654v3.482zM321.608 655.89l15.382-23.237c18.365 6.137 37.113 6.248 56.06 3.22l16.933 20.017h-6.923l-10.658-15.22c-3.862.893-7.877 1.282-11.876 1.832l4.988 13.388h-5.43l-3.918-13.243c-9.192.357-15.452-.462-21.835-1.21l-2.298 14.453h-5.525l3.73-14.923c-4.343-.813-8.725-1.512-12.362-2.677l-11.292 17.6zm17.616-13.675l6.386 1.73-3.12 11.945H330.81zm16.492 13.675l1.805-10.552c4.29.845 9.886 1.016 15.786.955l2.775 9.597zm30.227-9.784l5.038-1.334 7.552 11.118h-9.18zm39.873 7.934c-5.323-10.705-12.594-20.02-20.5-28.88 7.72-8.113 14.226-17.49 20.474-28.15 6.2 10.76 13.35 20.728 21.23 28.567-8.667 8.622-15.304 18.006-21.204 28.463zm42.903-19.274c-2.565-4.192-5.634-8.384-9.403-12.575 3.44-3.868 6.44-8.013 9.14-12.346 3.112 4.777 6.32 8.923 9.617 12.494-3.485 3.898-6.41 8.17-9.355 12.428zm-156.265-55.812c24.57-28.577 21.302-58.577 7.728-82.774l2.886-2.97c15.696 25.796 19.037 62.47-9.89 90.894-.305-1.714-.725-5.15-.725-5.15zm97.982-32.05c3.53 6.008 5.688 12.09 9.418 18.133l-8.85 11.96zm-105.715 18.928c-.23-18.857.058-57.062.058-57.062l8.29-6.34c9.92 12.04 15.333 43.777-2.48 64.9-1.297-.943-4.824-.55-5.868-1.498zm117.707-3.805c-22.74-38.352-11.176-66.32 10.738-91.152.064 1.914.207 3.82.38 5.726-18.814 21.543-26.337 53.402-7.89 82.224zm-41.175-5.572l10.355-14.11s1.963-5.612 3.616-7.27l1.9-1.68c.632.61 1.835 1.382 1.8 2.084-.04.66-1.018 4.163-1.018 4.163l-12.11 17.708s-3.675-.643-4.543-.895zm55.08-68.487c.326-.37 4.436 1.345 4.436 1.345l.264 57.983-8.228 5.288c-2.388 1.212-21.046-36.84 3.528-64.616zm-86.693 24.426c3.747-5.104 7.694-9.522 11.325-14.21.938.322 3.405.377 3.405.377.26.14-.83 3.89-3.516 6.475-2.7 2.752-9.13 10.293-9.32 14.09-.057 1.173-2.686 2.515-2.686 2.515l-1.87-1.972c.572-2.89 1.468-5.103 2.662-7.274zm-23.37-22.242l8.247-10.697.82 28.422zm-28.178-63.03c7.85-8.358 14.79-17.947 21.344-27.86 5.98 9.842 12.616 19.903 20.917 28.06-7.558 8.29-14.72 18.232-20.97 28.09-6.002-9.6-12.712-19.533-21.29-28.29zm-31.325 2.504c3.735-3.618 6.84-7.625 9.37-11.985 2.903 4.405 5.642 8.942 9.522 12.546-3.58 3.837-4.728 5.058-9.61 12.22-2.754-4.464-5.614-8.865-9.283-12.78zm86.49-11.57l-16.325-20.406h7.906l9.724 14.44 11.645-1.33-4.1-13.11h4.825l3.408 12.9c7.142.17 14.124.725 20.902 1.405l3.484-14.305h4.912l-4.46 14.97 13.15 3.45 11.718-18.42h5.822l-16.606 23.783c-21.71-6.52-39.148-5.774-56.005-3.378zM265.96 407.63c-.254-1.803-.31-3.582.017-5.312h3.527s-.022 1.3.027 2.406c0 6.987 8.362 6.088 9.597 1.686.436-1.554.368-4.042.368-4.042l.015-18.588h-3.582v-3.61h10.61v3.61h-3.31v18.538s-.027.08-.01.4c.064 1.12.1 3.8-.493 5.06-3.352 8.35-15.613 6.457-16.767-.148zm134.372 1.884l3.72-11.877 11.126.013-8.516 13.567zm-26.928-2.89l-2.35-8.974h19.615l-2.533 10.035c-5.18-.875-9.91-1.042-14.732-1.06zm-23.515-8.974h7.83l3.05 9.288-4.517.51z" fill="#d40000"/><path d="M334.377 396.335l18.906 22.618c3.938-1.41 23.792-3.674 35.702-.957 2.075 8.13 4.27 16.34 6.593 23.742 0 0-.744.868-1.28 1.42-7.607 8.765-2.224 17.23 4.736 19.993-1.255 2.608-14.592 9.097-22.714 8.326.013-.08-2.495-5.957-7.578-3.97-1.738.678-2.454 1.985-3.8 3.262-4.85-1.463-11.258-4.653-14.588-8.16 6.232 3.102 12.368 4.772 18.53 3.95 0 0-.764-.636-1.63-1.034-.522-.24-1.776-.995-2.79-1.678-2.864-1.93-4.766-4.256-6.728-8.236-2.258-4.032-2.625-8.37-3.862-12.196-.655 1.96-.938 7.14-2.648 8.213-.444.29-.525.203-.856-.894-1.305-3.982-6.084-3.478-7.66-.643-.8 2.437-.685 3.508.325 5.772l-2.897 1.61-.005.477-1.784.85-.373-.25c-8.29 4.003-16.418 8.17-24.877 12.006 0 0-4.493 7.454-8.604 10.42l-.16-25.313-12.176-10.996-.058 6.023s.584.61.875.918c.167 42.374.027 84.06.053 122.53l.057 35.412-.743.044-.04 4.13.84.19-.12 5.83-.434.03-.062 3.693.664.104-.012 20.846-.657.845.014 5.95 12.712-12.077.283-13.738c10.027 1.893 20.508 9.098 20.508 9.098-1.763-11.506-13.96-20.988-20.965-22.882l.022-27.26s-5.206 2.17-7.78 2.504c-1.273.18-1.764-.013-2.373-.933-.443-.67-.454-1.28-.053-2.667.188-.648.182-.818-.052-1.47-.328-.915-.33-1.328-.01-2.943.337-.95.19-1.455-.164-2.335-.38-.94-.408-1.116-.246-1.658.426-1.427.45-1.66.227-2.296-.438-1.244-.452-2.144-.05-2.952 1.876-3.146 6.078-2.37 8.358-2.257 1.156 1.287 1.846 2.004 1.953.14.81-2.223 3.947.054 5.412 1 12.474-16.716 18.627-39.345 2.98-67.667l-8.706 6.966.02-8.72c11.543-7.418 24.53-24.284 30.153-37.583 1.87 2.192 4.017 4.345 6.04 6.554l-1.322 2.215-.39-.22c-3.58 6.83-13.305 19.752-13.462 19.62 3.6 6.672 6.806 13.408 9.53 20.224l.715-.322.638 2.053-1.26.378c4.26 13.97 4.4 26.907 1.195 38.836l.75 3.17s4.508 4.364 5.724 5.647c3.174 3.075 6.713 6.507 6.713 6.507l4.114-4.026-.24-.34 36.055-35.798 2.248 2.15c-22.083 22.238-60.44 60.636-60.44 60.636l-1.328.193c-.756.113-1.874.162-2.586.113-1.173-.082-1.317-.056-2.258.39-1.06.505-1.936 1.252-3.108 2.655-.536.64-.904.917-1.498 1.13-7.518 4.484-.722 13.51 5.673 8.76 4.685 8.952 8.653 19.38 10.842 29.696 0 .075-.84.362-.84.362l-16.85 24.985h6.48l.678-1.15h-4.858l15.5-22.388c19.72 5.37 37.82 6.135 56.19 2.938l15.99 19.45h-6.342l.904 1.15 8.207.13-18.793-22.177c-6.73 1.798-24.48 3.245-35.612 1.36-1.704-8.27-4.51-17.26-6.59-24.414 10.627-8.317 2.65-19.296-3.908-20.827-.32-.602 13.297-8.88 22.997-8.305 2.778 6.67 8.86 5.683 11.043.72 4.023 1.476 9.243 2.95 13.387 6.246-5.526-1.21-11.93-1.872-17.2-1.953 10.025 3.887 12.837 12.077 14.072 19.803.217 1.28.904 2.935.904 2.935.854-2.79 1.55-5.67 3.233-8.058.773 2.732 3.618 4.853 6.487 3.228 1.663-1.205 2.243-3.274 1.716-6.133-.147-.795-.22-1.23-.22-1.23l2.227-1.207.29.247s2.44-1.042 3.652-1.63c.19-.094-.222-.473-.222-.473l22.52-10.62c-.085-.048 5.678-7.915 8.987-10.95.1 9.428.076 13.302.07 24.495l1.272 1.242c1.128 1.1 3.587 3.385 9.13 8.477 1.248 1.146 2.12 1.714 2.12 1.714l-.17-164.866h-.186l-.003-3.172.26-.013.005-8.25-.233-.136-.002-2.6.31-.226.02-22.27-.357-.06-.022-5.34-12.553 13.275.096 12.52c-5.602-.724-12.533-4.31-17.304-7.202-1.542-.94-2.402-1.19-2.354-.65.67 7.453 11.46 18.854 19.754 21.836l.015 28.043c0 .014 1.958-.98 3.154-1.482l.18.498 2.674-1.106.217-.577 2.318-.293c.026.474.105.41.105.41 2.065.576 2.98 1.984 2.147 3.565-.29.53-.347 1.282-.106 1.48.895 1.412 1.13 2.656.048 3.992-.416.683-.413 1.068.015 1.793 1.117 2.253.482 2.104-.358 3.446-.19 1.015.92 1.676.555 2.63-.17.63-.835 1.367-1.286 1.7-.53.384-.963-.327-.963-.327s-1.673.716-2.876.946c-1.182.384-3.218 1.07-3.923-.522-.404-.912-.08-1.746-.107-2.765l-1.735-.19-.063 4.63c-.993.53-4.94-1.488-4.94-1.488-16.935 21.95-16.46 46.296-3.9 66.693.122.327 8.85-5.97 8.85-5.97s-.018 5.162.058 7.96c-11.096 9.177-21.813 21.524-29.475 36.745l-4.746-5.626c.816-.722.847-1.866.83-2.73l3.447-5.14.03-1.333 8.96-12.516c.14.75-9.246-16.804-10.496-22.52l.622-.167c-4.213-15.937-3.35-27.097-.306-40.095l-.87-.838-11.82-11.807c-.96.887-1.918 1.778-2.873 2.67-.147.138-.867.057-1.014.194-6.223 5.834-12.204 11.69-18.124 17.774-.153.157.105.806-.048.963-5.93 6.108-12.078 11.904-18.08 18l-2.19-2.088c21.25-21.245 61.283-60.705 61.283-60.705s.175-.313.45-.324c1.115-.04 2.11-.294 3.21-.613 1.32-.306 1.533-.403 2.09-.976.34-.35.896-.842 1.236-1.09.58-.427 1.906-1.542 3.978-3.346 1.267-1.103 2.048-2.71 2.02-4.143-.048-2.55-1.738-4.727-3.915-5.04-.905-.13-2.68.34-3.577.948-.685.462-1.008.673-1.302.466-4.336-8.795-8.557-19.857-10.346-28.984-.096-.576-.044-.746.425-1.47.29-.45.926-1.443 1.415-2.208 3.877-5.606 8.373-12.415 12.592-18.56.7-1.022 2.06-2.988 2.06-2.988l1.028-1.69h-6.687l-.825 1.316h5.504l-16.374 23.565c-30.172-9.863-54.898-3.61-55.49-3.476l-16.312-20.09h7.46l-.904-1.315zm14.684 0l.832 1.315h7.825l-.444-1.315zm13.05 1.315h4.825l-.277-1.315h-4.95zm8.634-1.315l.306 1.315h19.616l.35-1.315zm23.984 1.315h4.914l.37-1.315h-4.943zm9.727-1.315l-.422 1.315h11.143l.835-1.315zm47.65 9.094l.174 3.652-8.034 8.466.01 11.822-2.34-.543-.092-12.216zm-2.252 7.786c.068 3.62-.518 7.09.44 10.783.47 1.816 1.426 3.946 1.546 6.094l-2.65-.063c-.336-1.083-.467-2.28-.865-3.614-.978-3.29-1.772-6.758-1.048-10.247zm-57.833 5.905c.096.18.413 1.71.706 3.13 1.39 7.788 3.255 13.568 5.157 19.45 2.417 7.41 5.996 16.74 9.474 21.064.46.54.687 1.153.522 1.42-.282.454-1.702-.18-2.655-1.184-.39-.41-1.14-1.563-1.69-2.595-1.217-2.275-2.85-5.586-3.013-6.11-.066-.212-.707-1.848-1.426-3.634-1.257-3.124-2.003-5.263-3.054-8.738-.834-2.757-1.602-5.642-2.533-8.546-1.523-4.75-2.403-8.528-3.25-12.896-.123-.64-.337-1.39-.26-1.543.482-.347 1.79-.208 2.02.184zm.85.297c-.15-.126 1.382-.15 1.87.26.147.146.406 1.06.63 2.234 1.384 7.167 3.47 14.57 5.892 21.587 1.935 5.606 4.05 11.002 6.685 15.37.826 1.457 1.944 3.013 3.368 4.694.798.943.864 1.076.648 1.335-.264.318-.725.277-1.614-.145-.83-.393-1.73-1.256-2.573-2.475-.288-.416-.726-1.043-.976-1.392-3.885-6.717-6.243-13.098-8.38-19.58-2.192-6.646-4.162-13.367-5.5-21.113l-.05-.773zm4.882 1.01c.34.346.535 1.008.832 2.393 1.617 6.644 2.942 12.58 4.853 18.033 1.028 2.934 1.918 5.865 3.02 8.628 1.762 4.415 3.917 8.437 6.565 11.785.873 1.103 2.458 2.463 3.79 3.253.922.548 1.06.688 1 1.006-.08.285-.98.404-1.276.38-1.457-.247-3.61-1.376-4.225-2.212-4.453-4.813-7.638-12.69-9.958-19.152-3.986-11.126-7.202-25.024-6.59-24.592-.04-.323 1.595.048 1.99.48zm1.915.4c.144.004.307.03.488.08.832.226.94.342 1.14 1.26 1.425 6.354 2.934 11.956 4.617 17.285 1.712 5.422 3.474 10.537 6.22 15.902 2.014 3.915 4.563 6.62 7.304 7.99.787.393 1.49.77 1.56.84.073.07.053.276-.043.455-.145.27-.31.325-.98.313-1.244-.02-2.116-.408-3.452-1.305-3.5-2.414-6.56-7.88-7.91-10.982-1.65-3.783-3.164-7.714-4.53-12-2.452-7.693-3.98-12.782-5.1-19.272 0-.373.254-.573.687-.566zm52.462 10.384l-.025 2.253c-8.814.585-17.853-3.142-25.117-6.496 5.473 7.26 11.314 13.7 25.117 15.03l.024 2.325c-17.978-.254-30.64-18.46-29.975-22.998 7.395 4.777 20.753 10.3 29.974 9.887zm-49.616-9.536c.432.02 1.014.203 1.242.43 1.47 5.485 2.54 11.574 4.97 17.686 2.983 7.51 4.64 14.138 10.173 20.325 1.72 1.768 5.094 1.716 5.094 1.716s-.426.958-1 1.117c-1.186.18-2.046.233-2.91-.046-3.206-1.353-5.656-4.777-6.922-7.097-1.186-1.738-4.078-8.902-6.463-16.206-2.596-7.952-4.735-16.22-4.49-17.884.09-.035.16-.045.304-.04zm2.963.923c.21 0 .493.08.83.242.362.17.52.278.707.956.122.443.102 1.126.32 2.238 1.248 5.727 2.972 10.376 4.682 14.906 1.626 4.304 3.37 8.53 5.52 12.35 1.086 1.924 2.163 3.724 2.842 4.403 1.852 1.852 4.995 1.944 5.92.107.514-1.045.41-2.7-.607-3.557-.787-.752-2.572-.434-2.62.473 0 .24.445.134 1.088.058 1.797-.208 2.36 2.973.048 3.504-2.926.672-4.956-3.284-2.373-5.708 4.378-2.97 7.72 1.088 6.685 4.988-1 2.306-2.675 3.48-4.887 3.562-2.854.092-4.036-.79-6.964-5.046-3.356-5.387-4.812-10.645-7.178-16.535-2.237-5.573-3.726-11.513-4.427-16.7.063-.162.205-.243.417-.243zm2.776.92c.258.01.802.145 1.042.294.144.09.35.287.35.287 3.937 14.363 7.22 22.967 10.56 29.04 0 0-.054 1.117-.276 1.434-.4.57-.594.43-1.113-.468-2.102-4.07-4.104-8.563-5.97-13.195-2.195-5.452-4.142-11.094-4.968-16.463.042-.692-.113-.886.373-.927zm26.553 8.21c.557 0 1.01.45 1.01 1.006 0 .557-.453 1.01-1.01 1.01-.557 0-1.01-.453-1.01-1.01 0-.557.453-1.005 1.01-1.005zm-81.792-.183c-1.167 1.59-2.124 7.283-3.338 7.352-1.336-.02-2.96-.787-4.01.42-1.272 1.468-.49 3.09 1.08 3.983.72.356 2.256.44 3.19.173 3.82-1.28 5.27-7.478 3.078-11.93zm85.61 1.494c.805 0 1.455.655 1.455 1.46 0 .804-.65 1.454-1.455 1.454s-1.455-.65-1.455-1.455c0-.804.65-1.46 1.455-1.46zm-85.542.69c1.306 3.283-.14 7.21-1.73 8.532-1.465 1.217-3.764 1.374-5.076.188-1.094-1.027-.607-3.494 1.43-3.31.687.022 1.503.645 1.963 1.305 1.327.136 2.856-6.595 3.412-6.714zm90.618.803c.907 0 1.643.737 1.643 1.645 0 .907-.736 1.643-1.643 1.643-.908 0-1.644-.736-1.644-1.643 0-.908.736-1.644 1.644-1.644zm5.82 1.16c.926 0 1.677.752 1.677 1.68 0 .925-.75 1.676-1.678 1.676-.927 0-1.678-.75-1.678-1.677 0-.928.75-1.68 1.677-1.68zm-54.16 7.63c.25-.003.426.237.59.72.34 1 .333 1.116-.198 1.787-5.16 7.14-.456 14.443 7.018 15.235.63.045.947.754 1.28 1.58-.045.39-.048.39-1.744.42-1.11.022-1.998-.048-2.552-.197-2.62-.705-5.828-3.07-7.14-5.264-1.51-2.525-1.763-5.137-.83-8.62.598-2.237 1.357-3.714 2.532-4.932.47-.485.794-.728 1.044-.73zm48.905.79l.087 24.502-2.61.952.107-26.057zm4.94.947c3.25 8.072 3.394 15.47.458 22.202l-2.965.428c4.067-9.483 2.337-16.272.04-22.826zm-155.947 1.345l10.556 9.962.367 110.982-1.68-.595-.672-109.16-8.57-7.857zm103.088.32c.018 0 .036.002.053.004.282.034.54.39.778 1.063.28.793.275.816-.04 1.604-1.448 3.55-.266 6.93 3.312 7.995.85.267.99.406 1.49 1.458.322.685.467.932.342 1.083-.186.137-.64.2-1.987-.09-5.323-1.817-7.254-7.64-4.833-12.258.302-.528.578-.816.83-.856.02-.003.037-.005.054-.005zm-42.38-.44s1.113 3.927 1.006 4.818c-.282 1.722-2.73 4.473-4.868 5.477-1.985.76-4.98.378-6.235-.943-4.556-5.33 3.942-10.683 6.08-5.133 1.283 3.643-3.94 4.504-4.172 1.707 0-.72.232-.947.904-1.416.598-.416.53-.787.015-.787-1.973.72-2.018 2.538-1.13 3.684 1.776 1.858 3.976.776 5.49-.588 2.042-1.838 2.442-4.475 2.91-6.82zm44.074 4.05c.103 0 2.19 4.99 2.467 5.7-.07.502-.615.465-1.546-.185-.945-.66-1.227-1.127-1.628-2.66-.12-.543-.323-2.524.708-2.854zm-42.377 2.107c.46 0 .937 1.687.72 2.55-.376 1.498-4.297 4.027-7.052 4.55-.552.104-1.144.216-1.314.246-.57.102-1.235-.217-1.928-.923-.49-.498-.722-.994-.604-1.11.095-.097 1.36.123 2.43.106 3.002.034 5.32-2.12 7.1-4.686.273-.404.564-.735.65-.735zm-59.67 1.25s2.033 1.838 3.104 2.892c-.115 4.893-1.922 10.198-1.92 14.573.044 3.805 2.506 6.974 2.756 10.285.148 2.142-.482 5.324-1.537 7.734-.983 2.244-1.5 4.636-1.5 6.96.126 5.406 4.01 11.317 2.645 16.666-1.28 5.024-2.74 7.926-2.353 10.595.746 5.148 3.484 9.71 2.755 13.993-.678 3.987-2.478 7.97-2.286 11.566.223 4.153 1.775 7.624 2.214 11.412.285 2.467-.41 6.305-.41 6.305l-2.85.236c1.567-5.833-.767-11.107-1.66-16.714-.762-4.774 1.377-8.573 2.015-12.645.396-2.53-.052-4.937-1.305-8.16-2.476-5.946-1.586-9.823.198-15.002 2.206-5.515-.828-9.883-1.585-15.167-.39-4.554-.087-7.774 1.624-11.823 1.275-3.898 1.635-6.158-.266-9.9-1.2-2.363-1.515-3.76-1.517-6.872.62-6.176 2.287-9.64 1.88-16.934zm61.028 2.46c.444 0 .663.314.663.944 0 1.152-1.718 2.612-4.756 4.04-1.576.742-2.49.852-3.412.416-.86-.407-.82-.763.125-1.04 2.375-.692 4.06-1.64 5.98-3.363.61-.547 1.24-.996 1.4-.996zm-13.746.796c7.837 8.39 15.522 12.706 21.398 14.724l-.925 2.192c-7.72-2.99-15.594-7.15-22.265-16.09zm15.1 1.37c.212 0 1.01 1.012 1.01 1.282 0 .157-.29.664-.647 1.12-.52.666-.976 1.008-2.272 1.717-1.755.96-2.815 1.195-3.577.793-.756-.4-.502-.736 1.388-1.847.975-.572 2.276-1.497 2.89-2.053.614-.556 1.155-1.01 1.208-1.01zm-20.76 1.238c6.42 8.785 14.69 14.622 24.41 17.736l-1.53 2.066c-8.88-3.06-17.563-8.594-25.497-18.34zm22.423 1.083c.323 0 1.05.818 1.05 1.184 0 .176-.143.498-.315.716-.344.437-2.136 1.785-2.9 2.18-.598.31-1.046.305-1.697-.02-.773-.384-.64-.706.62-1.517.616-.397 1.548-1.134 2.072-1.634.525-.5 1.05-.91 1.17-.91zm-25.83.64c-.182.23-9.452 21.463-29.092 36.518l-.093-3.526c10.88-8.63 18.79-20.442 24.754-30.757zm27.696 1.525c.297-.008.506.194.715.59.25.474-.023.896-1.12 1.726-.687.518-.942.62-1.51.61-1.46-.028-1.424-.38.18-1.814.832-.744 1.353-1.1 1.735-1.112zm37.928 1.05l4.095.313c1.103.767-16.002 11.962-27.86 10.958l.314-2.683c10.41.297 23.736-8.105 23.45-8.59zm-35.117 1.047c.94.526 2.112 1.15 1.82 1.353-.435.273-3.213.096-3.852-.246-.478-.256-.45-.39.21-1.13.807-.91.947-.465 1.823.022zm-36.495-.667c-6.488 11.445-14.214 21.892-23.16 28.7l-.118-6.055c8.513-6.553 14.956-18.523 14.973-18.566zm81.258.73l1.984 1.16c-12.37 11.45-25.733 16.384-38.572 15.148l1.033-2.32c20.836 1.647 34.67-13.766 35.556-13.987zm3.007.406s.665-.085.594.05c-4.108 4.026-9.747 8.323-13.44 10.72-17.493 17.964-32.466 32.14-47.703 48.14l-2.435-2.548 2.204-2.334c.007-4.61 5.653-9.78 9-13.76 1.397-1.575 4.02-5.623 3.722-7.324-.102-.39-.116-.537-.116-.537 5.294-1.057 6.56-5.35 6.675-9.145.247-2.537.585-4.84 1.44-6.926 23.96 1.92 39.398-15.72 40.058-16.337zm-41.754 2.648c2.717-.01 4.77 2.14 4.765 5.19-.023 1.276-.472 2.244-2.2 5.617-1.676 2.883-1.894 4.64-2.552 7.97l-1.703-1.532-3.098 2.792.043-4.068s1.07-1.358 2.797-3.298c2.19-2.432 4.172-5.562 4.08-7.32-.057-1.76-1.915-3.19-3.815-2.04-1.65 1.153-2.413 3.24-3.385 9.482-.173 1.106-.334 2.408-.424 2.692-.244.768-2.633 3.027-2.633 3.027-.202 0-1.146-4.58-1.146-4.58l-2.413.398c2.796-3.034 4.965-6.694 6.375-10.526 1.295-2.365 2.944-3.78 5.307-3.804zm-52.498.97s-4.804 9.98-13.237 16.47l-.055-3.907c4.9-3.8 8.634-10.346 8.628-10.333zm115.62.254c-16.675 17.266-38.438 49.06-11.43 93.724l3.57-4.117c-21.75-40.396-6.337-61.333 7.98-82.342zm-90.167 1.424c4.882 3.47 9.98 6.918 16.57 9.108-.353 1.174-9.412 8.798-2.91 15.846.27.37-.42 1.267-1.48 2.54-3.105 4.244-6.205 7.266-8.8 12.045l-.107 8.975-2.596-2.29zm89.526.827l.112 5.12c-24.776 30.11-21.986 57.222-7.98 82.194l-2.684 2.722c-22.954-39.51-8.633-69.293 10.553-90.037zm-61.122 3.028c-1.092 2.886-5.87 7.83-5.87 7.83s.632-4.814 1.03-6.333c.304-1.16.99-2.726 1.668-3.475 1.93-2.12 3.854.287 3.172 1.98zm-32.872-2.706l.465 40.343-3.482-3.51-.512-30.85zm-4.703 7.895l.692 27.39c-3.476-8.206-8.362-17.19-8.46-17.102 0 0 4-5.304 7.768-10.29zm27.505 8.57s.53-.446 1.364-1.402c1.806-1.826 1.97-1.838 1.803.623-.064.948-.01 2.162-.01 2.162 1.057-.613 3.55-3.558 4.254-3.027.544.512.983 1.578.994 3.235-.06 3.243-1.896 6.22-4.804 7.192-8.028 2.486-13.412-6.772-7.838-12.643.554-.584 2.133-1.665 2.892-1.45.94 1.715.906 3.62 1.344 5.31zm79.654-2.91c.466 1.277 1.064 2.54 2.69 3.113-.25 39.224-.063 108.67-.063 108.67l7.887 7.4-.05 3.235-10.455-9.57s-.562-81.896-.01-112.848zm7.833 1.817c.28 3.794-.362 7.79.29 11.688.643 2.695 1.617 5.125 1.696 7.777.074 2.425-.083 3.805-1.12 7.192-.724 2.363-.796 2.74-.962 5.104-.39 3.29.673 6.272 1.49 8.894 1.083 3.476.78 7.68-.953 13.224-.625 1.995-.744 2.837-.653 4.645.24 3.797 1.596 7.406 2.286 11.133.374 2.135-.008 4.928-1.324 9.666-.49 1.762-1.005 4.832-1.005 5.993 0 1.245.396 3.59.782 4.6 1.824 4.796 1.913 5.654 2.007 8.536.012 2.162-.612 4.35-1.38 6.255-1.278 3.042-.438 6.166 0 9.585l-3.145-2.687c-.927-2.926-.6-5.663.26-7.845 1.223-3.418 1.53-3.735 1.512-5.7-.022-2.608-1.517-5.69-2.136-7.525-1.097-3.255-1.1-6.447-.01-9.89.537-1.69 1.31-5.005 1.485-6.35.335-2.588.08-4.63-1.218-9.822-.634-2.532-.768-3.51-.812-6.03-.04-2.337.298-4.765 1.05-7.58 1.08-4.474 1.067-7.16-.34-11.31-1.136-3.43-1.454-5.757-1.164-8.488.17-1.585.602-3.07 1.33-4.553 1.347-3.365 1.553-6.583.55-9.794-1.723-6.573-1.694-9.912-1.524-15.845zm-8.836 2.15c-.275 26.882.004 57.657.004 57.657s-7.964 5.576-7.932 5.286c-10.26-16.92-14.17-41.844 3.75-64.324 0 0 2.886 1.23 4.177 1.382zm-121.112 6.41c14.522 27.114 16.41 54.507-7.6 82.61.773 2.484.647 4.8.262 7.065 4.68-3.644 42.22-41.14 10.605-93.347zm74.004-2.21l7.133.42.48 6.136-2.306 2.286s-.043-1.27-.073-2.403c-.037-1.387-.233-2.6-.363-2.557-.12.04-.25 1.658-.353 3.422l-.105 2.634-.797.798c-1.064 1.062-1.28.98-1.32-.518-.09-3.253-.08-3.476-.32-3.238-.133.134-.208 1.247-.24 2.93-.026 1.335-.12 2.614-.21 2.84-.18.467-1.536 1.678-1.88 1.678-.33 0-.31-.47-.313-2.494-.002-1.707-.18-2.645-.454-2.015-.064.15-.178 1.845-.202 3.224-.024 1.38-.115 2.638-.198 2.794-.297.554-1.698 1.738-1.944 1.644-.353-.136-.44-1.15-.43-2.842.006-.83.136-1.53-.183-1.755-.32-.224-.377.736-.29 3.172l-.025 2.65-.894.975c-1.417 1.46-1.514 1.39-1.517-1.13.062-1.996-.008-2.87-.402-2.713-.393.16-.237 1.123-.16 3.09.07 1.756.048 2.637-.072 2.86-.095.178-.555.697-1.02 1.15-.465.455-1.038 1.083-1.106 1.083-.11-2.117-.29-6.675-.29-6.675l-7.44-.328s1.524-1.808 2.17-2.156c.337-.18.862-.202 2.727-.12 1.27.054 2.98-.054 3.132-.112.56-.214-.605-.406-2.247-.512-1.097-.08-1.38-.05-2.597-.228l1.083-1.116.812-.807 2.373.077c1.437.048 2.504.04 2.67-.053 1.404-.277.088-.597-1.514-.6-1.562-.002-2.445-.005-2.445-.347 0-.35 1.75-1.937 2.248-2.04.257-.053 1.53-.106 2.828-.116 2.23-.018 3.04-.05 2.914-.42-.125-.37-1.602-.262-2.586-.305-2.73-.005-2.856-.108-.99-1.74l.903-.794 1.71.048c2.584.073 3.834-.03 3.834-.275 0-.222-1.68-.436-3.107-.436-.853 0-1.546.014-1.546.014.637-.83 1.32-1.503 2.068-2.242l2.306-.044c1.684.025 2.718.09 2.746-.217.03-.307-.603-.305-1.377-.31-1.048-.006-2.292-.096-2.456-.26-.177-.177.153-.67.884-1.325l.754-.682zm-70.617.08c19.953 32.595 12.75 67.815-9.498 89.736l-.652-4.277c21.003-25.54 24.67-51.912 7.68-82.942zm37.107 4.378c-3.583 5.386-9.06 10.7-11.127 15.098-.423.495-.56 1.61-1.218 1.834-.328 0-.435-.622-.353-2.06.062-1.082.163-1.446.686-2.503 2.827-5.16 6.104-8.87 9.72-13.77zm.84.52l3.31.212c-.736 2.342-1.73 4.013-2.9 5.534-1.503 1.95-3.31 3.915-5.416 6.313-3.05 3.472-4.577 7.01-4.435 8.564-.762.804-1.29 1.358-2.26 2.18l-1.93-1.774c1.43-7.345 8.365-14.093 13.63-21.027zm40.51 2.984l1.073.062c3.672.215 5.963.44 6.095.6.082.098.19.662.242 1.25.08.897.003 1.493-.47 3.626-.31 1.404-.658 2.65-.772 2.765-.423.43-.592.002-.788-1.99-.12-1.204-.166-2.08-.324-1.983-.076.047-.24 1.338-.194 2.3.124 2.508.108 3.12-.67 3.877-1.365 1.324-1.44 1.19-1.543-1.16-.042-.975-.274-2.396-.342-2.465-.296-.295-.395 1.056-.397 3.34v2.436l-.646.706c-.845.916-1.12 1.055-1.43.744-.193-.192-.122-.61-.122-2 0-1.632-.285-2.57-.595-2.258-.058.06-.073 1.637-.077 3.01-.004 1.376-.022 2.592-.04 2.703-.05.33-1.596 1.885-1.874 1.885-.325 0-.585-1.795-.585-3.263 0-.98-.208-1.152-.414-.613-.052.134-.092 1.51-.092 2.745v2.243l-.91.937c-1.214 1.258-1.412 1.184-1.415-.536-.004-1.482-.103-2.266-.402-2.266-.172 0-.213.702-.213 2.368 0 1.143-.074 2.274-.164 2.514-.09.24-.488.765-.884 1.17-.396.404-.803.734-.904.734-.167 0-.407-1.405-.343-2.01.012-.128.013-1.013 0-1.968-.033-2.278.122-2.18-3.515-2.296-4.268-.134-4.33-.16-3.045-1.4 1.22-1.18 1.048-1.137 3.876-.95 2.272.153 2.546.143 2.775-.086.14-.14.218-.29.175-.333-.043-.044-.91-.123-1.924-.18-2.81-.155-3.054-.357-1.865-1.546l.672-.675h2.876c1.94 0 3.26-.086 3.333-.202.186-.3-.583-.377-2.43-.485-.99-.058-1.924-.14-2.072-.184-.47-.138-.295-.612.497-1.353l.765-.714h2.538c2.356 0 3.51-.154 3.51-.464 0-.22-.47-.31-1.678-.324-1.712-.022-2.853-.187-2.93-.42.417-.808.994-1.26 1.668-1.934l2.58.092c2.6.092 3.413-.002 3.413-.455 0-.235-1.112-.405-2.552-.318-.926.057-2.05-.165-2.05-.493 0-.14.374-.63.832-1.083l.837-.822 2.527.102c1.41.056 2.914.042 3.026-.034.42-.288-.553-.512-2.14-.604-2.45-.144-2.61-.334-1.316-1.558zm-88.143 1.353c13.095 23.45 11.133 45.545-2.814 64.348-1.602-.932-3.308-1.44-5.134-1.633l-.352-56.624zm93.667 9.164c.262-.04.257.39.183 1.3-.06.73-.168 1.497-.246 1.7-.15.397-.27.415-1.542.233-1.448-.206-1.428-.468.164-2.035.77-.758 1.21-1.162 1.44-1.198zm-70.313 1.053s1.725-.01 2.587.02c0 0 .135 4.388.488 6.92l5.613.27-2.178 2.266-4.257-.136s-1.294-6.23-2.25-9.34zm66.89 2.654c.79-.013 2.866.343 3.108.585.19.19.196.657.03 3.49-.06 1.02-.122 3.212-.136 4.87-.024 3.004-.025 3.016-.372 3.065-.458.065-.51-.095-.633-2.073-.07-1.114-.222-2.09-.352-2.132-.15-.05-.135.932-.135 2.963v2.625c-.447.37-.86.86-1.373 1.12-.314 0-.483-.492-.638-1.865-.155-1.363-.306-2.324-.488-2.02-.043.07-.026 1.556.063 2.774l.16 2.22-.987.99c-1.01 1.02-1.138 1.103-1.3.84-.377-1.01.157-5.638-.754-6.225-.146-.077-1.357-.11-2.76-.17-2.37-.1-3.715-.138-4.046-.424-.2-.173.92-1.47 1.494-1.73.414-.188.883-.2 2.837-.068 2.263.15 3.404.134 3.104-.155-.078-.075-1.23-.244-2.13-.333-1.82-.18-2.462-.364-2.462-.7.424-.753.943-1.195 1.566-1.838l.88.092c.484.048 1.628.17 2.542.275.915.106 2.76.123 2.016.06.242-.243-.702-.49-2.01-.653-2.468-.306-2.692-.585-1.45-1.808l.763-.75c1.295.098 2.604.13 3.89.33.94.148 1.45.095 1.45-.224 0-.223-.47-.214-1.605-.44-.412-.082-2.536-.05-2.57-.676.5-.695 1.397-1.96 2.3-2.016zm-57.518 5.322c.377-.02.396.896.435 3.32.044 2.655.087 3.113.315 3.34.218.218.762.293 3.094.41 3.568.182 3.66.234 2.4 1.446-.875.843-.912.737-1.633.653-1.885-.22-4.643-.17-4.75.005-.187.3.015.36 1.74.493 2.098.16 2.672.233 2.672.59 0 .156-.36.617-.794 1.024l-.792.74-2.21-.087c-2.324-.095-3.518-.127-3.518.188 0 .19 1.327.402 3.432.61.546.053 1.105.062 1.136.154.075.228-.988 1.546-1.644 2.035-.534.397-.713.176-3.045.125-2.38-.05-2.585.04-2.14.48.105.104.498.116 1.386.178 1.458.102 2.157.32 2.157.68 0 .346-1.314 1.705-1.93 1.997-.54.258-.774.27-1.976.102-.946-.133-1.125-.33-1.1-1.22l.154-5.765c.142-5.354.186-5.626.894-5.525.302.043.374.408.454 2.223.087 1.932.168 2.316.49 2.316.12 0 .137-.768.06-2.63-.116-2.89-.12-3.32.76-4.158.393-.373.704-.67.89-.4.373 1.14.266 2.384.377 3.528-.012 1.15.436 1.392.54.294-.052-1.738-.066-3.3-.077-5.157l1.073-1.063c.566-.562.924-.916 1.15-.928zm-6.955 2.165c.427-.07 2.816-.03 3.162.05-.6.95-1.88 2.185-2.755 2.73-.22.012-.448-2.304-.406-2.78zm67.655 5.255l.507 3.572-3.9-.266zm-52.56.58c.026-.002.05.003.068.01.282.108.362.797.474 4.113.053 1.56.16 2.784.256 2.9.113.136.6.203 1.503.203.734 0 2.118.047 3.075.103 2.087.12 2.143.208.9 1.435l-.84.832-2.616-.107c-2.68-.11-3.128-.064-3.128.305 0 .25.458.37 1.315.348.34-.01 1.194.036 1.896.1 1.566.147 1.597.266.43 1.524l-.84.904-.818-.112c-1.313-.18-4.764-.136-4.964.063-.322.322.097.46 1.668.556 2.436.15 2.86.222 2.86.5 0 .134-.344.59-.763 1.01l-.76.758-3.093-.16c-2.17-.036-2.91 0-2.958.14-.085.245.27.32 2.508.552 2.147.222 2.46.443 1.643 1.46-.896 1.115-1.233 1.24-2.923 1.077-1.86-.18-3.76-.184-4.036-.01-.427.272.012.453 1.335.552 2.002.148 3.17.363 3.17.656 0 .33-.662 1.183-1.304 1.672l-.526.402-2.287-.242c-2.277-.243-3.442-.122-3.117.203.094.095.942.228 1.88.296 1.718.124 2.57.347 2.57.7 0 .107-.436.627-.97 1.156-.542.537-1.15.893-1.15.893l-7.038-.632s-.36-1.256.348-4.67c.637-3.076.898-3.766 1.204-3.194.084.158.163.905.222 1.415.142 1.235.446 2.01.628 2.01.204 0 .203-.733-.063-2.46-.37-2.406-.412-2.5.504-3.47.785-.83 1.23-1.026 1.474-.648.07.107.163 1.197.256 2.113.164 1.61.26 1.978.47 1.77.134-.136.235-.597.086-2.984l-.188-2.32 1.03-1.05c.94-.957 1.048-1.024 1.237-.777.128.17.273 1.166.342 2.353.102 1.756.242 2.334.498 2.08.12-.123.06-4.11-.068-5.033-.084-.603-.042-.69.72-1.547.91-1.02 1.386-1.44 1.634-1.445.327-.007.505.994.508 2.325.002 1.42.113 1.982.246 2.16.34.458.38-1.145.3-2.73l-.092-2.89.938-.94c.887-.886.96-.925 1.208-.675.206.206.192.696.275 2.155.124 2.018.52 3 .633 1.6.06-.316.05-.934-.02-1.372-.07-.438-.127-1.434-.125-2.208.003-1.18.06-1.497.348-1.963.417-.675 1.643-1.726 2.03-1.765zm40.655 2.2s1.57 1.342 1.57 1.725c0 .17-.62.908-1.464 1.735-1.553 1.524-1.7 1.786-1.88 3.422-.067.61-.374 1.42-1.092 2.862-.55 1.105-1.344 2.396-1.344 2.396-2.48 2.962-4.818 5.676-9.166 11.93-.248.575-.26 1.15-.514 1.627-.196.354-.635.645-.828.726-.286.12-.86.474-1.276.792-1.623 1.24-2.67 2.87-3.142 4.9-.255 1.098-.406 2.084-.85 5.468-.183 1.39-.793 3.813-.793 3.813-9.34-.132-18.082 1.485-25.876 5.884zm12.48 1.435l2.08 9.44-2.143-.044-.212-6.854-6.68-.638 2.388-2.31zm-10.136.865c.573.583 1.285 1.223 1.803 1.856-1.786 5.972-7.442 13.72-13.06 21.404l-4.118-.45c-.073-.17 5.703-8.223 8.467-11.276 1.054-1.275 1.77-2.485 2.71-4.363.338-.68.933-2.44 1.39-4.275.97-1.17 2.813-2.877 2.807-2.895zm2.22 2.093l3.112 3.156.76 44.693c-4.8-3.768-10.46-6.56-16.493-8.683l1.052-2.402 1.16-1.248c4.105-4.44 3.19-9.22.07-12.6 3.802-5.546 7.247-9.677 10.145-15.09l-.04-3.713c-.033-3.42.233-4.112.233-4.112zm-37.243 1.866c.327-.033.368.793.45 3.137.078 2.19.17 3.23.315 3.457.194.305.382.332 2.967.41 2.73.084 3.297.162 3.297.455 0 .083-.352.503-.78.933l-.778.778-2.43-.04c-1.296.043-2.827.017-2.867.054-.215.2.594.472 1.78.474.736.003 1.91.133 2.043.185.46.177.245.63-.76 1.595l-1 .966-2.208-.043c-1.213-.022-2.69.014-2.88.077-.672.223-.338.406.773.42 1.857.026 3.14.18 3.194.47.027.14-.317.656-.773 1.145l-.826.885-3.248-.136c-3.07.023-3.486.252-.924.508.98.098 2.522.34 2.577.348.054.008.142.124.193.256.108.28-1.13 1.675-1.788 2.016-.34.175-.576.187-1.165.053-.692-.157-3.668-.13-3.988.063-.27.16.315.345 1.14.362 1.244.025 2.727.385 2.727.682 0 .243-.63 1.024-1.3 1.61-.31.27-1.048.028-3.103.096-1.41.046-2.346.178-2.346.27 0 .086.698.362 1.595.426.888.063 2.107.275 2.19.358.208.21-1.374 2.076-1.374 2.076l-6.753-.095-.623-7.153.575-.662c1.293-1.493 1.574-1.276 1.832 1.4.19 1.963.33 2.562.614 2.278.105-.104.063-1.224-.042-2.87-.087-1.356-.16-2.593-.16-2.747 0-.373 1.536-1.987 1.837-1.93.295.058.46.726.62 2.558.13 1.505.2 1.916.496 1.62.14-.14.16-.928.02-2.834l-.183-2.49.653-.772c1.31-1.552 1.566-1.38 1.725 1.14.108 1.7.272 2.596.585 2.596.105 0 .108-1.27.044-3.19l-.097-2.88.817-.832c.45-.455.908-.827 1.015-.827.317 0 .5.722.7 2.43.224 1.914.3 2.244.483 2.06.078-.08.062-1.237-.044-2.726l-.228-2.852.996-1.01c.55-.554 1.1-.986 1.223-.962.3.058.495.92.518 2.14.022 1.14.216 2.12.47 2.374.124.126.16-.576.13-2.61-.05-3.13-.13-3.37 1.28-4.838.377-.392.622-.645.793-.662zm36.464 1.28l.03 4.37c-1.752 3.75-5.8 9.243-9.904 15.14l-2.14-1.16c5.133-6.73 9.425-13.003 12.014-18.35zm-58.62 1.373c.097 0 .204.003.324.01 1.108.065 1.138.447.106 1.41-.432.405-.923.726-1.11.726-.32 0-.336-.047-.238-.88.12-1.023.244-1.26.918-1.266zm66.9 3.152l3.026 2.976.76 32.007-3.186 5.194zm3.79 4.217c2.728 6.42 5.562 12.438 8.7 17.318l-8.09 11.42zm-27.213 9.978c3.72-.052 7.145 2.89 7.576 5.882.813 3.434-.957 7.134-3.86 8.27-1.01.363-1.603.388-1.603.388-.353-2.072-.2-4.066-.67-6.17 0 0-1.74 2.297-2.722 3.1-.506.28-.734.357-.668-.308.034-1.163.122-3.743.122-3.743l-4.297 4.447s-.35-.482-.763-1.59c-1.35-3.613.403-7.386 3.17-9.12 1.207-.792 2.478-1.138 3.717-1.155zm57.172-.27l.082 3.912c-6.744 5.228-16.364 16.246-24.607 30.605l-3.63 1.53c5.592-13.364 17.4-26.975 28.155-36.048zm.073 5.144l.072 5.83c-5.95 5.722-11.12 11.63-15.62 19.24-2.628 1.26-7.494 3.657-7.494 3.657-.61-.148 13.256-21.733 23.042-28.728zm-60.026 4.993c.27-.003.257.523.17 1.283-.192 1.72-.393 2.346-1.023 3.185-2.18 2.574-5.643 6.074-6.115 9.33-.238 1.738 1.12 3.366 2.453 3.2 4.143-.52 4.59-7.88 4.938-11.513.146-.9.212-1.656.362-1.94.873-1.114 1.812-2.2 2.99-3.08l.508 5.628 2.334-.78c-6.583 8.947-4.69 9.508-8.164 13.173-3.227 3.406-9.487-.474-7.885-5.652 1.392-3.484 3.547-6.98 4.128-10.712.158-1.11.25-1.878.25-1.878l1.497 3.122c.762-.75 2.984-3.233 3.556-3.365zm60.27 1.93l-.014 4.017c-3.07 3.457-5.718 6.11-8.854 10.89l-4.98 2.27c3.25-6.194 8.585-11.99 13.85-17.177zm-60.856 3.545s.33 1.875-.398 5.28c-.345 1.616-1.9 6.33-4.356 5.22-2.086-1.843.456-5.262 1.736-6.877.99-1.16 2.066-2.413 3.018-3.622zm-6.556.482l-1.358 2.904c-12.203.045-24.054 4.41-34.603 13.322l-2.668-.875c11.175-10.57 25.028-15.708 38.628-15.35zm12.828 2.233c13.753 4.604 20.103 11.323 25.304 18.37l-2.174 1.115c-5.45-7.055-12.178-13.51-24.705-17.243zm-15.756 4.345l-.585 2.49c-7.702.23-15.83 2.963-23.737 8.453l-2.852-.453c7.96-6.246 17.05-9.812 27.174-10.49zm35.197 16.816l-2.443 1.153c-7.288-9.456-13.88-12.148-21.367-14.557l.807-2.097c10.062 2.67 17.446 7.778 23.003 15.5zm-101.636-11.15l.213 25.233-1.758-.35-.25-24.404zm-4.068 1.368c-3.35 12.552-.752 15.802.46 23.126l-2.775-.444c-2.7-7.42-2.977-14.17-.7-22.05zm84.292 1.927c.21.2-.17.815-.686 1.12-.5.296-.39.25-1.19-.038-.777-.28-1.768-1.016-1.768-1.296.567.01 3.147-.017 3.644.213zm2.364.178c.46.056 1.786.03 1.87.445.03.248-.49.65-1.556 1.377-1.618 1.106-2.168 1.323-2.644.798-.45-.497-.318-1.013.44-1.71.738-.682 1.165-.913 1.89-.91zm-55.242.275c.926 0 2.586 1.147 3.586 2.475 1.014 1.588 2.18 3.218 3.123 4.824 2.14 3.65 3.793 7.354 5.177 11.146 3.623 9.016 5.75 17.758 7.516 26.444-.034.732-.668.718-1.19.546-.27-.087-.54-.268-.594-.406-.75-2.128-1.01-4.303-1.58-6.438-1.43-5.34-1.943-8.4-4.7-15.93-1.428-3.91-3.5-9.35-5.76-13.53-1.45-2.68-3.127-5.158-5.302-7.347-.576-.572-1.29-1.096-1.29-1.208 0-.372.36-.577 1.014-.577zm58.77.29c.86.21 2.933.455 2.146 1.14-2.914 1.122-3.86 2.337-5.403 3.573-.235 0-1.157-1.142-1.157-1.42 1.254-1.54 2.833-2.2 4.413-3.292zm-54.555.01c1.22-.043 2.41 1.53 2.973 2.523 3.747 5.514 6.955 13.377 9.595 21.084 2.84 8.295 4.644 16.27 5.428 21.93-.067.175-.42.24-.823.237-.767-.006-.875-.184-1.072-.794-1.953-9.36-4.577-19.024-7.752-27.227-1.705-4.37-3.64-8.76-6.36-13.166-1.856-2.72-2.91-4.147-2.828-4.36.055-.144.362-.217.72-.217.04-.005.082-.008.12-.01zm-8.376.164c1.644-.004 4.365 1.946 6.21 4.452 3.917 5.367 6.158 11.64 8.484 17.723 2.67 6.973 4.596 14.723 5.747 20.823.196.875.516 1.258-.31 1.532-1.248-.357-1.22-.32-1.575-1.84-.487-1.635-.636-3.285-1.097-4.946-2.64-9.5-5.597-20.04-10.508-28.62-5.9-9.442-7.616-6.816-8.565-8.482.072-.376.73-.64 1.614-.643zm14.196 2.306c5.07 8.822 7.305 14.238 8.848 19.566 2.337 8.073 5.104 14.522 6.32 23.95 0 0-1.332.023-1.866-.194-.22-.22-.455-1.162-.595-1.934-1.217-6.657-3.2-14.534-5.307-20.74-2.27-6.91-4.972-13.48-8.966-19.827-1.046-1.71-1.246-2.383-.604-2.412 1.144.078 1.647.958 2.17 1.59zm52.82-.943c.236.002.33-.03.76.116.67.232.885.378.923.643.055.386-.36.513-1.658.816-1.02.24-3.01 1.3-4.394 2.45-.64.535-1.194 1.108-1.347 1.108-.32 0-1.078-.837-1.078-1.185 1.06-1.62 4.43-3.84 6.796-3.95zm-69.858.218c4.292.13 7.65 5.116 9.41 8.478.687 1.315 1.576 2.746 2.25 4.25 3.482 7.786 6.438 17.554 7.882 23.794.695 3.002 1.497 5.204 1.213 5.79-.353.224-1.1.053-1.445-.237-.22-.185-.34-.872-.73-2.126-1-3.215-2.66-12.407-6.98-22.065-.096-.216-2.187-6.326-5.8-12.122-1.47-2.36-3.85-3.843-6.017-4.326-1.092-.18-1.416-.05-1.35-.638.044-.375.162-.478.746-.663.26-.082.534-.128.822-.135zm26.826 19.92c-.294 0-.553-.56-.75-1.48-.095-.452-.227-.774.62-1.305 5.324-5.662.746-13.975-5.946-14.7-.62-.093-1.42-.095-1.653-.183-.34-.19-.963-1.395-1.234-1.88 9.248-2.24 19.062 10.997 8.962 19.547zm46.068-18.5c.55.14 1.75 1.252 1.6 1.495-.18.29-1.217.3-2.712.565-3.18.563-4.543 2.636-6.022 4.176-.33.1-.62-.128-.914-.628-.216-.37-.39-.812-.39-.986 1.652-2.407 6.08-4.84 8.438-4.62zm-75.07.712c2.705 0 5.406 1.31 6.928 3.446 5.55 8.307 11.785 26.77 13.272 35.88-.15.292-.545.323-1.314.1-.43-.124-.377-.26-.648-1.107-1.743-6.636-3.654-13.078-5.902-18.987-1.158-3.045-2.52-6.02-3.804-8.695-.812-1.69-2.445-4.702-3.064-5.62-1.46-2.743-4.408-3.547-6.267-2.66-1.923 1.04-2.165 3.524-.7 4.627 1.214.85 3.13.71 3.835-.605.24-.465.165-1.043.01-1.19-.15-.14-.423-.1-.48.054.1 1.614-1.958 1.718-2.857 1.082-1.436-1.073-.48-4.47 3.433-3.102 1.51.793 2.016 2.296 1.3 3.89-.732 1.633-1.867 2.374-3.62 2.364-2.128-.038-4.54-1.53-4.558-4.215.006-2.003.934-3.67 2.673-4.785.644-.413.897-.478 1.764-.478zm22.897 1.247c6.562.3 9.575 8.024 6.124 12.683-.88 1.113-1.436.91-1.812-.527-.185-.59-.39-.68.14-1.136 3.072-2.944.55-8.667-4.514-8.9 0 0-.944-1.375-1.04-2.106.34-.122.795-.014 1.103-.013zm54.71.53c.498.123 1.552 1.134 1.552 1.49 0 .42-.206.34-1.373.14-2.76-.493-5.523 1.103-7.83 4.587-1.12 2.092-1.258 1.894-1.846.092-.302-.925-.308-.904.865-2.61 2.19-2.81 5.423-4.092 8.634-3.698zm2.567 3.544c2.308 2.098 1.232 6.717-1.888 7.195-2.752.317-5.196-2.657-3.462-4.68 1.126-1.223 2.535-1.347 3.402-.295.897 1.084.517 2.563-.76 2.716-.147.053-.27.17-.27.256 0 .27 1.133.197 1.518-.116.777-.856.79-2.164.097-3.098-.614-.827-1.923-1.485-2.972-1.058-1.85.662-3.736 3.17-4.815 6.33-.303.89-.48 1.724-.61 1.92-.262.403-.243.392-.487.237-.214-.136-.61-2.07-.61-2.808 0-.56.484-2.04 1.123-3.307 2.003-3.724 6.51-6.222 9.734-3.292zm-56.258-.936c2.687.162 4.813 3.967 3.644 6.617-.362.488-.882.82-1.124.513-.088-.11-.5-1.354-1.073-2.673-.574-1.32-1.1-2.607-1.263-2.93-.427-.913-.736-1.535-.185-1.526zm-18.255 2.208c3.06 5.42 5.62 11.638 7.743 17.705 1.655 4.73 3.01 9.366 3.79 13.467.074.413.176.63-.005.812-.3.3-1.762-.447-1.762-.447-2.56-8.82-4.626-17.662-10.72-28.893 0 0-.264-.445-.335-.737-.082-.703.123-1.593.552-2.09.173-.185.405-.198.737.182zm-34.342 10.24c14.474.972 25.67 7.07 31.65 23.18-2.125-1.198-12.904-9.468-31.486-10.565l-.03-2.233c13.32-.11 26.315 6.824 26.044 6.724-4.955-10.218-17.407-14.357-26.218-14.627zm100.416 3.256c-.912 1.43-.87 1.37-1.31 2.605.052.4.125 2.898.185 4.355.076 1.857.13 2.666.275 2.842.248.3.752.346.972.077.086-.106.237-.506.338-.89 1.195-4.512 1.757-6.202 2.238-6.76.317-.41.425-.372 1.735-.224 2.95.262 3.953-3.254 2.025-4.67-2.58-1.434-5.316.972-6.457 2.665zm3.115.958c-2.108 1.735-2.17 4.233-2.81 6.533-.343 1.547-.826 2.362-1.02.028-.36-3.238.093-5.656 1.497-7.557.868-1.398 2.296-2.34 3.578-2.43 2.76-.193 3.044 1.995 2.276 3.17-.557.853-2.104 1.225-3.52.256zm-99.702 1.043c1.04 0 1.886.843 1.886 1.884 0 1.04-.846 1.885-1.887 1.885-1.04 0-1.885-.846-1.885-1.886s.845-1.885 1.885-1.885zm6.008 1.29c.932 0 1.688.75 1.688 1.68 0 .93-.756 1.688-1.687 1.688-.93 0-1.68-.757-1.68-1.687s.75-1.68 1.68-1.68zm5.478 1.846c.757 0 1.368.615 1.368 1.372 0 .758-.61 1.373-1.368 1.373-.758 0-1.373-.614-1.373-1.372 0-.757.615-1.372 1.373-1.372zm3.886 2.46c.585 0 1.058.478 1.058 1.063 0 .584-.473 1.058-1.058 1.058-.585 0-1.063-.474-1.063-1.06 0-.584.48-1.062 1.064-1.062zm-13.616 3.383c-.403 2.042-.087 4.143.382 5.592 1.072 3.12.585 8.706.585 8.706l-3.142 3.145c.225-2.93.573-6.01.41-8.47-.11-1.635-.85-3.163-1.04-4.802-.18-1.517.09-4.555.09-4.555zm5.09.94l.11 13.323-10.754 10.42-.014-2.75 9.17-9.09-.195-12.346zm26.52 30.38l-.705 1.15h12.132l.257-1.15zm15.705 0l-.285 1.15h5.616l.188-1.15s-2.953.003-5.52 0zm9.203 0l-.18 1.15h20.853l-.31-1.15zm24.37 0l.334 1.15h5.554l-.46-1.15zm9.285 0l.407 1.15h9.547l-.793-1.15z"/></svg>