<svg viewBox="260 370 224 313" preserveAspectRatio="none" xmlns="http://www.w3.org/2000/svg" width="744.094" height="1052.362"><title>Vectorized Playing Cards 1.0</title><rect y="589.952" x="1867.658" height="311.811" width="223.228" rx="10.63" ry="10.63" fill="#fff" stroke="#000" stroke-width=".997" transform="matrix(0.99999525,0,0,0.99999525,-289.24049,-1384.0659) translate(-1317.9815,1164.3989)"/><path d="M289.417 392.844l-.04 265.884 164.638.357.098-266.05zm52.29 1.555l74.595.273s-8.546 11.056-10.313 16.09c-1.374 1.76-1.996 1.44-4.26.982-6.064-1.586-16.28-1.556-21.356-1.648-9.58-.428-18.187 2.542-27.78 3.027-3.316-5.543-8.123-12.5-10.886-18.725zm-50.226.483l47.973.142L350.7 415.55c.408.57.02 1.748-.224 2.41-1.388 3.908-2.615 6.174-5.424 10.832-2.66 4.412-3.614 8.453-2.67 11.17.142.333.265.84.216 1.266-.156 1.354-1.293 2.922-2.842 3.995-1.052.17-3.238.303-4.503 1.555-1.085 1.073-1.974 2.642-1.834 5.51.064 1.027.194 1.68.194 1.68-14.304 5.95-24.555 12.922-24.216 13.178-.134-.062-12.573-5.787-17.75-7.204zm127.483.362l32.886.03.195 93.842-12.622-8.18c1.035-.722 1.675-1.15 2.763-1.89.193-.057.56-.063.797-.116 2.198-.49 3.73-2.134 2.968-3.838-.516-1.157.19-1.086.828-2.03.717-1.06.568-2.006.112-2.9-.226-.442-.1-.618.28-1.437 1.006-1.25.278-3.36-1.023-4.044-.136-.2.142-.51.205-.8.367-1.693-.306-3.18-1.77-3.556-.753-.195-1.004-.325-.738-.998.47-1.193-.15-1.637-1.13-2.024-1.648-.652-1.182-.757.856-1.673 4.17-1.876 5.153-7.45 2.284-12.51-.365-.643-1.34-2.152-2-3.164-.773-1.182-1.52-2.2-1.52-2.2l5.52-7.698s-3.844-4.553-5.213-7.07c.323-1.244 4.172-5.146 4.67-8.935.784-5.94-3.728-9.743-7.995-9.296-2.96.31-6.6 2.202-6.327 7.702.085 1.707.75 3.47 1.96 5.608.845 1.598 1.94 3.29 2.988 4.914l-5.555 7.595 5.615 7.11-.196.308c-.56.89-2.183 3.504-2.886 5.037-2.07 4.094-2.803 8.588 1.448 11.756.743.457 1.317.845 1.633 1.16.417.413.157.727-.513.884-.79.167-1.594.156-2.426.484-2.666.973-5.337 2.542-7.237 4.08-1.068.86-2.787 3.59-3.835 5.808-1.14 2.41-1.458 2.944-1.458 2.944L403 457.648s-.495-.39-.63-.542c-.363-.407-.233-.644.02-1.095.213-.382.22-1.507.127-2.36-.027-1.64-.015-1.646.93-3.15.33-.53.47-1.06.278-1.878-.306-.92-.335-.627.25-1.257.227-.28.502-.42.547-.724.06-.406.022-1.117.03-2.444.014-2.66-.022-2.44 1.47-3.61 1.856-1.45 2.548-2.135 2.842-2.79.423-.942 0-1.652-1.04-3.532-.477-.86-1.214-2.018-1.57-2.665-.668-1.165-1.63-2.698-2.09-4.163-.694-1.125-.588-3.075.055-4.22.805-1.438 1.03-2.307 1-5.213-.025-2.694-.22-2.443.466-3.345 5.13-6.79 13.277-19.415 13.277-19.415zm20.9 9.932c.11 0 .222.005.333.01 1.615.077 3.22.596 4.71 2.04 2.025 2.03 1.887 4.958 1.22 8.004-.305.886-.534 1.786-1.158 2.71-.347.515-.63.992-.63 1.057 0 .064-.5.868-1.11 1.79-.597.9-1.282 2.156-1.282 2.156s.955 1.712 2.646 3.854c1.276 1.896 2.104 3.55 2.2 3.452 0 0-.323.82-.767 1.403-1.342 1.762-3.814 5.44-3.912 5.824-.024.092-.28.187-.274.28.017.34.507.745 1.246 1.76 4.46 6.122 5.09 11.29 1.74 14.327-1.666 1.51-3.31 1.984-5.075 1.795-3.232-.348-6.216-3.107-5.868-7.13.158-1.85.062-2.4 1.15-4.55.49-1.208 1.603-3.28 2.342-4.327.646-.75 1.335-1.82 1.335-1.82s-1.588-2.442-4.505-5.877c-.526-.628-.85-1.477-.85-1.477l4.997-7.404s-.58-1.437-1.555-2.89c-1.998-2.98-3.287-6.15-3.275-7.934.03-4.444 2.936-7.048 6.34-7.055zm12.446 105.77c-2.953 1.57-5.826 6.93-.21 3.192l.14 3.08c-2.92 4.146-8.63 1.107-7.18-3.185-3.942.51-4.557-3.492-4.357-5.396-5.186-1.13-3.394-6.623-3.394-6.623-2.998-2.505-3.523-5.128-1.096-7.894-2.454-1.526-3.146-2.504-5.843-3.612 2.07 18.392 11.995 27.944 22.442 36.457 0 0 .232 5.923-.963 4.83-14.918-11.144-24.508-23.89-26.158-44.506-.126.325-7.072-5.376-8.22-5.073-2.408 33.384 24.17 55.327 35.222 59.653 0 0 .156 4.65-.033 4.667-16.75-7.306-35.376-28.75-38.964-54.266l-9.883 15.307-3.702-1.584 15.982-25.18-10.807-6.772-17.595 27.88s-.467 2.324.807 2.288c24.698 2.643 61.43 32.316 49.122 80.61-1.07-.422-2.768-1.25-2.852-1.213 1.93-4.162 7.315-31.123-8.886-52.902-7.422-9.978-18.934-20.597-37.405-23.732 1.527 3.15.86 10.295.86 10.295l4.304.87c-1.45-1.535-2.665-2.8-3.24-4.464-.807-2.593.374-4.13 3.246-2.586 1.14.64 1.428.615 2.538-.21 2.313-1.72 4.952.05 4.343 2.91-.09.42.02.688 1.12.786 2.487.248 4.993 1.48 6.616 3.414.795 1.02.975.868 1.682.254 1.736-1.507 4.612.58 4.098 2.915-.294 1.333-.132 1.653.484 1.912 3.392 1.426 4.225 2.325 5.282 5.296.385 1.09.703 1.447.903 1.385.14-.044.698-.23 1.19-.416 2.53-.96 4.014 2.102 2.22 4.503-.37.492-.097.964.556 1.32 2.107 1.15 3.54 3.897 3.79 6.778.094 1.097.21 1.098 1.305 1.052 2.804-.117 4.14 3.67 1.858 5.062-.795.485-.647 1.11-.03 1.843 1.636 1.94 2.018 3.34 1.874 5.55-.192 2.943-.005 2.885.934 3.243 2.726 1.038 2.217 5.392-.455 5.377 1.925 4.483-.61 9.95-.527 10.05 5.135 2.89.498 5.96-.993 5.42 0 0-.76 2.014.103 3.05-4.504 5.96-10.4 6.95-16.93 9.91l-.205-20.98c2.716 2.186 5.407 4.226 8.098 6.26 0 0 .683-.206.062-.78-1.197-1.106-4.207-3.052-5.05-3.827-1.817-1.38-8.478-7.75-9.662-9.258-.53-1.005-1.332-.423-1.31-.363.796 1.375 1.39 2.98 2.42 4.41 2.23 3.087 4.39 6.52 4.166 9.914-.005 1.9-.76 3.863-1.183 4.817-.313 1.304-2.392-.222-1.868-1.32.924-3.01 1.69-5.474-1.614-10.308-1.61-2.358-3.696-6.636-3.696-6.636l-1.335.323.048 27.37c-1.12.045-3.96.78-3.374.8 8.85-1.767 11.556 10.895 3.012 11.307-1.623.058-3.3 2.852-3.472 4.367.073 3.676.612 7.554-2.078 11.086-.708.928-1.033 2.402-1.687 3.56-3.286 5.816-4.752 9.15-4.417 10.65.086.387.166.896.166.896-10.463 2.614-18.308 3.285-28.848 3.53-.103-.164 3.538-10.407 6.196-15.658 1.964-3.88 2.976-6.534 2.425-7.335-8.358.42-6.755-11.835 1.242-11.404 0 0 2.006-7.06 4.25-10.246 2.126-1.183 6.404.428 8.802-1.16 5.65-1.732 9.35 4.95 9.35 4.95l1.52-6.357-49.967-.24s-5.148 1.93-7.78.84c-1.682-.694-3.612-2.665-3.614-2.664 0 0 19.094-30.668 21.898-35.092.228-.358-.497-1.13-.498-1.138-.106-1.005-22.228 33.48-22.138 35 0 0-.59.835-1.653.097-12.512-8.635-42.413-27.196-42.413-27.196l-.04-13.75c10.402-6.555 9.46-9.233-.165-2.09-.134.114-.205-5.163-.205-5.163 7.336-6.554 1.235-4.5-.213-2.23.033-1.634-.346-3.853.7-4.83 3.206-2.956 6.985-.243 7.174 4.126 4.182.82 3.664 4.495 4.742 5.972 4.263 2.407 2.018 6.06 3.076 7.3 4.49 2.833 1.358 7.385.408 7.282.566.38 6.147 4.123 6.626 3.986-.484-19.617-22.085-38.344-22.686-37.36l.46-4.23s26.996 17.266 26.76 44.974l8.606 5.115c-.765-28.428-13.46-47.615-35.165-59.822l-.46-5.354c18.222 8.48 35.12 25.643 39.054 53.776l10.088-15.658 3.555 1.72-16.197 25.99 10.114 6.653c7.846-10.33 14.39-22.996 18.377-29.022-.104-.55-.32-1.34-.32-1.34-38.57-6.362-60.295-42.504-49.94-80.268l2.68 1.18c-8.042 27.967 5.073 68.225 47.02 76.457-.085-2.974-.607-10.29-.607-10.29s-5.512-1.656-4.7-.992c1.35 1.154 4.383 6.13 3.1 7.898-.92.13-2.464-.387-4.15-1.624-.638-.467-.656-.368-1.37.395-1.983 2.117-4.864.904-4.89-2.005-.012-1.228-.058-1.488-1.8-1.5-2.643-.02-3.83-.473-5.414-2.593-1.124-1.503-1.02-1.51-2.343-1.056-2.533 1.207-4.555-1.325-3.76-3.412.39-.978-.026-1.29-1.18-1.482-2.243-.37-4.78-3.187-5.246-5.487-.095-.47-.33-.59-1.652-.544-2.595.09-4.03-1.483-3.008-3.687.554-1.192.71-1.673-.327-2.48-1.27-.99-1.99-1.676-2.553-2.876-.448-.95-.514-1.56-.822-3.584-.107-.704-.34-.82-1.26-.94-2.684-.35-3.742-3.094-1.77-4.874.6-.544.598-.53-.314-1.712-1.756-2.272-2.413-5.238-1.648-7.213.207-.534.004-1.188-.62-1.344-2.448-.61-2.49-3.322-.148-4.846.68-.442.714-.736.2-1.628-.9-1.564-.855-5.66.015-7.62.563-1.266.56-1.296-.313-1.853-1.86-1.188-1.328-4.455.87-4.993 1.068-.262 1.14-.4.85-1.697-.51-2.31-.6-2.912.764-3.824 3.75-2.436 13.355-7.09 13.355-7.09l3.173-1.512s.317 19.385.113 21.678c-.124.987.763 1.584 1.794 2.61 2.133 2.098 3.3 4.633 6.147 6.393 0 0 1.774-.987 2.87-1.692l.108-27.625c.225-.627.382-.696 1.11-.782.606-.117 2.127-.287 2.636-.436 1.227-.358 1.42-.853-.19-.69-.484.05-1.212.257-2.024.42-5.03 1.51-8.75-6.32-4.92-10.268.736-.658 3.482-1.804 4.73-1.883.36.002 1.433-1.32 2.166-2.54.736-1.224 1.042-2.135.62-3.363-.886-2.585-.04-6.553 2.612-10.886 2.872-4.088 5.09-8.652 6.255-13.51 10.176-1.227 18.81-3.758 28.01-3.198.36 3.11-10.058 21.44-7.884 22.514 8.196 1.963 5.4 11.682-.83 11.36-.934-.005-1.026.077-1.62 2.142-1.13 3.014-1.86 5.313-3.075 8.117-.003.722-.508.65-3.917.626-3.115-.46-5.264 1.238-7.53 1.336-2.89.132-5.355-1.253-6.358-3.55-.447-1.023-.862-.35-.875 2.08-.01 1.93-.088 3.06-.088 3.06s11.943.035 25.55.058c27.51.048 24.77.47 26.95-.62 1.275-.638 2.115-1.328 4.32.112 3.53 2.306 3.414 1.992 2.385 3.477-6.914 10.253-22.196 34.925-22.196 34.925l1.072 1.047s15.434-24.39 22.465-35.816c.32-.372 1.79.097 1.79.097l42.104 27.385c-.353 4.138.06 13.413.06 13.413-11.835 6.285-8.22 9.487-.07 1.875zm-71.452-98.537s12.214.1 18.338 1.08c5.364.86 5.088.702 5.067 4.597-.015 2.766-.02 2.704-.73 4.03-1.307 2.445-1.084 4.855.984 8.23 2.008 3.276 3.477 5.695 3.477 6.162-.002.722-.124 1.605-1.863 2.82-2.052 1.434-2.443 2.437-2.415 3.893.023 1.18-.2 1.564-.905 1.56-.282-.002-1.28.462-2.352.968-1.886.89-1.89.89-3.648.876-.882-.007-1.31-.34-1.555-.244-.474.22-.904 1.807-.89 2.27.05.162.302.064.82-.114 2.92-.998 7.26-.55 7.38-.112.59.533.59 1.356-.298 2.21-.575.905-.837 1.372-.596 2.773.328 1.902.084 2.657-.89 3.315-2.966 2.006-6.927 2.26-13.26 1.04-6.677-1.282-11.242-3.828-15.04-8.385-1.695-2.037-2.114-2.75-1.275-2.89 1.035-.16 2.18-.375 3.242-.832 4.69-2.02 4.61-10.61-1.71-11.506-2.58-.092 5.322-12.248 8.12-21.742zm6.026 5.918c-2.27 1.27-3.454 2.82-3.458 3.662-.002.344.075.282 1.16-.43 3.144-2.07 11.43-5.056 14.385-3.33 2.134 1.28 2.96.862 1.726-.86-2.897-4.04-10.71-.73-13.812.958zm8.102 1.354c-.335.002-.685.04-1.032.112-2.187.488-4.593 2.29-6.587 3.878-.983.783-2.374 2.333-2.592 2.738-.492.918.595 1.93 2.074 1.12.86-.47.935-.364 1.764-.25 1.91.576 4.086 1.467 7.453 1.184.313.072.29.146.18.44-.2.54-1.392 1.568-2.948 2.72-.804.593-1.506 1.08-1.56 1.168-.25.396.824.427 2-.24 1.667-.945 3.588-3.037 4.762-4.72.112-.16.267-.29.318-.463.115-.39-.588-.23-.963-.334-.162-.045-.13-.452-.172-.64-.11-.493.082-1.31.172-2.01.072-.567.68-1.017 1.08-1.433 1.76-1.83 1.62-2.658-.743-1.252-.398.238-.713.38-1.1.412-3.49.11-5.507-.025-8.416 2.425-1.294 1.043-2.072 1.145-.92.035 1.756-1.422 3.957-3.446 6.392-3.98 1.47-.367 2.868.76 3.51.47.005-.806-1.222-1.393-2.674-1.38zm-.506 5.055c.4.263.792 1.63.755 2.09-.043.534-.963.312-1.09.058l-.5-1.516c-.216-.513.445-.803.835-.633zm-1.778.31c.427.42.526 1.334.768 2.087-.155.544-3.59-.19-4.02-.798.514-.67 2.285-1.47 3.252-1.29zm6.025 9.79c-.258-.018-.6.108-.91.425-1.546 1.583-1.048 4.28.812 5.154.906.426 2.278.112 4.298-.51.962-.295 1.658-.43 1.838-.43.79.005 1.22-1.218.665-1.78-.64-.647-2.156-.552-3.788.71-.826.638-1.417.947-2.084.94-1.632-.022-2.426-1.703-.758-3.468.556-.588.358-1.013-.073-1.042zm-11.445 11.606c1.926 1.554 5.583.74 8.04-.888 2.198-1.453 3.11-1.883 4.872-1.58 2.16.373 2.08-.476 1.144-1.544-1.06-1.21-3.68-.836-5.873.617-4.86 3.222-6.618 3.76-8.028 2.017-1.516-1.872.288-4.276 2.072-2.964 1.462.996 1.44.247.836-.436-3.525-2.97-6.07 2.354-3.064 4.78zm-17.084 1.528c2.452 3.11 4.8 5.68 8.328 7.576l.04.587-11.405-.025c.797-1.39 3.06-8.044 3.038-8.137zm-38.613 8.104c-.242 4.688.6 7.442 3.345 10.72 2.918 3.483 2.7 8.913.824 12.268-.83 1.485-2.52-.34-1.724-1.29 1.133-1.425 1.2-4.903.665-7.076-1.202-3.593-3.928-5.352-5.032-9.15-.372-1.62-.254-4.533-.254-4.533zm3.57.396c.2-.03.517.175.988.582 1.613 1.396 1.338 5.393-.51 7.957-.565.776-1.033.554-1.574-.168-.73-.72-.478-.793.136-2.06.64-1.32.846-2.805.714-4.54-.088-1.17-.047-1.726.245-1.772zm104.605 1.37c1.424-.022 3.203.28 3.365.797.154.628-.184 1.13-.978 1.467-2.083.88-4.837-.35-4.142-1.854.173-.268.9-.398 1.755-.41zm-3.61.342c.41-.01.728.09.98.205.682.352-.39 2.756 3.007 2.71.812.12 1.412-.068 1.3.298-.168.554-1.626 1.384-3.207 1.618-4.734.7-4.528.464-4.313 3.81.14 2.184-.002 2.92-.3 4.244-.512 2.297-.716 4.515-.37 3.785.46-.975 1.64-4.057 1.633-5.81-.01-2.583.912-3.095 1.28-1.222.16 1.24-.396 1.94.436 3.203.473.71.688.7.372 1.8-.278.972-.085 1.257.254 1.75.342.497.686.612.397 1.306-.626 1.498.353 2.916 1.774 3.036.656.056.838.342.64.592-.347.432-1.04.637-1.614.763l-15.037-9.608s1.116-2.238 1.448-2.837c2.16-4.736 3.874-6.894 10.192-9.374.437-.187.81-.26 1.13-.268zm7.992 3.11c.415-.016.722.202 1.07.65.924 1.187.118 2.67-2.15 3.947-1.94 1.102-2.505 1.234-2.925-.5-.097-.313-.355-.697-.523-.85-.45-.412-.347-.754.225-1.057.272-.145 1.144-.503 1.842-.964 1.213-.802 1.927-1.208 2.46-1.228zm-6.4 3.443c.474.007.963.122 1.324.357.6.39.607 1.373 0 1.765-1.207.493-3.114-.167-2.954-1.276.082-.563.838-.858 1.63-.845zm7.735 1.212c.428-.01.75.19 1.017.602.708 1.093-.123 2.19-2.508 3.358-1.57.77-3.576 1.103-3.443.65.106-.363-.454-2.158-.704-2.444-.097-.304.028-.03 2.01-.656.716-.226 1.583-.6 1.984-.85.68-.427 1.215-.65 1.643-.66zm-112.81 2.837c-1.105 2.652-1.28 3.823-.754 6.61.436 2.322.943 3.486 3.325 6.916 1.813 2.61 2.393 3.626 1.956 4.45-.308.444-1 .86-1.43.432-.886-1.158-1.418-2.565-2.282-3.855-3.33-4.883-3.56-6.125-3.985-9.98-.195-1.763.818-5.514 1.684-6.075.97-.38 1.785.892 1.486 1.502zm76.91-1.223c-.077.01-.16.055-.243.138-.452.453-1.747 2.562-1.702 2.88.1.7.67.243 2.17-1.96.362-.53.117-1.1-.224-1.057zm28.653 1.2c1.332.04 1.804 1.234 1.208 1.858-.87.91-2.436.222-2.436-1.052 0-.54.252-.818 1.228-.807zm7.39 1.7c.763.034.864.793.46 1.894-.508 1.02-1.12 1.194-2.95 1.765-2.193.682-2.55.583-2.88-1.434-.127-.775-.065-.603 1.955-1.14.868-.23 1.88-.64 2.42-.865.41-.164.74-.23.994-.22zm-129.508.905l.538 4.073.876-3.05zm122.382 1.37c1.08.004 1.658.97 1.11 1.55-.305.323-1.082.33-1.457.142-.857-.626-.702-1.696.347-1.692zm-32.96 2.127l2.103 1.296-17.082 26.97-2.058-.045-.196-.43zm38.76.26c1.26-.018 1.37 1.17-.157 2.264-.626.4-1.328.5-1.873.523-.76.032-1.27-.165-1.33-.69-.33-1.288-.517-1.608.655-1.53.233.014.87-.023 1.383-.24.524-.224.967-.324 1.32-.33zm-5.223 1.178c.873.005 1.427.95.842 1.413-.723.572-1.623.22-1.62-.645.004-.553.155-.77.78-.768zm-122.91 1.907l-4.646 4.116c1.704 2.016 3.133 4.03 4.608 6.142zm93.97.264c2.018-.08 2.68.896 1.722 1.55-1.3.87-2.413.828-3.887.627-1.952-.362-.398-1.925 1.74-2.147.147-.015.29-.023.426-.03zm-2.14 2.935c.406-.01 1.007.104 1.784.367 1.32.447 2.963 1.83 2.885 2.597-.126 1.24-2.462.6-4.343-1.18-1.18-1.114-1.224-1.76-.328-1.785zm-1.786.02c1.144.108 2.285 3.98 1.4 5.17-.87 1.165-2.402-1.345-2.124-3.317.11-.78.307-1.81.612-1.848.036-.005.075-.01.112-.005zm-74.692.85c.644.155 1.47 1.046 1.29 1.722-.13.272-.4.193-.694.122-.53-.225-.938-.962-.836-1.575.05-.166.12-.26.24-.27zm86.673.666l3.36 2.28-3.36.132zm-13.922 4.612c2.577.014 3.122.848 1.198 1.863-.8.422-2.747.502-3.755.152-1.6-.555.32-2.027 2.558-2.015zm20.85 1.736l.177 2.338-6.47.567-.332-2.435zm-22.366 1.164c.448-.028 1.162.18 2.098.66 1.76.906 2.762 2.425 1.853 2.905-.823.435-2.29-.08-3.325-1.17-1.37-1.44-1.482-2.34-.626-2.395zm-2.2.005c1.174.07 2.192 3.292 1.417 4.885-.423.872-.96.68-1.73-.753-.746-1.388-.786-3.836.073-4.104.08-.024.16-.034.24-.03zm-84.15.91l-2.827 5.687 5.124 4.473zm109.514 4.38l.456 2.25-6.21 1.53-.607-2.45zm-27.12.44c.758.015 1.47.194 1.878.554.567.5.443.723-.895 1.267-2.382.97-5.317.383-3.613-1.066.6-.51 1.657-.77 2.63-.752zm40.345-.13c-2.372 1.59-.088 2.464 1.607 1.262-.127-.41-1.11-1.257-1.607-1.264zm-42.085 3.188c1.696.055 5.025 2.382 4.313 3.496-.387.61-2.612.09-3.497-.757-1.162-1.114-1.776-2.603-1.134-2.72.097-.016.205-.022.318-.018zm-2.142.107c.875-.163 2.275 3.918 1.217 4.964-.395.39-.505.368-1.168-.22-1.326-1.175-1.098-3.34-.304-4.548.076-.116.164-.18.255-.196zm52.13 2.15c-.23-.43-.518-.632-.835-.87-8.246 3.17-6.132 6.188.836.87zm-19.537.28l.822 2.28-6.254 2.48-.92-2.495zm-106.982 4.314l-2.117 5.575c2.303.014 4.38 1.1 6.48 2.07zm109.06 1.638l1.326 2.24-5.883 3.183-1.172-2.362zm-136.67 4.362l2.41 1.702-3.54 4.4-.322-.62.04-3.653zm139.884 1.384l1.423 2.054-5.663 3.936-1.39-2.234zm-133.81 2.64l2.602 2.006-4.113 4.963-2.488-1.903zm28.627 1.228l-.123 5.97 6.122.236zm70.764 2.69l6.96 4.008-1.05-6.116c-1.817.354-4.15 1.54-5.91 2.11zm38.222-1.252l1.624 2.02-5.232 4.396-1.678-2.103zm-132.303 1.77l2.425 2.254-4.274 4.617-2.244-2.118zm136.773 3.276l1.883 1.912-4.77 4.96-1.882-1.913zm-131.262 2.43l1.878 2.192-4.88 3.877-1.81-2.2zm28.123.514l1.37 5.85c-.1-.426 6.076-1.745 6.88-1.302zm71.893.495l5.828 6.154.655-5.927zm36.043.968l2.108 1.648-3.91 5.575-2.388-1.872zm-131.858 3.717l1.736 2.51-5.114 3.045-1.453-2.215zm137.38.592l.322.322-.005 3.98-1.623 2.386-2.217-1.305zm-32.973 4.47l5.156 9.374 1.454-6.99c-1.906-.027-4.924-1.25-6.61-2.382zm-100.33 1.25l1.23 2.705-5.405 2.465-1.232-2.69zm2.92 6.456l.988 2.714-5.746 1.907-.91-2.616zm-25.688 4.915l1.79 1.255c9.322-4.9 6.416-6.347-1.79-1.255zM348 546.523c.353-.037.76.45 1.087 1.526.495 1.624.232 3.64-.87 3.612-.743-.09-1.02-1.995-1.023-2.547-.008-1.63.354-2.545.807-2.592zm5.11.973l2.222.24-.01.625-17.683 28.076-2.143-1.36zm-9.52.65c.705.007 1.737.492 2.65 1.462.535.58 1.108 1.403 1.248 2.245-.016.278-.49.173-.95.108-1.173-.165-2.9-.978-3.45-1.98-.678-1.23-.296-1.84.502-1.834zm81.293 1l2.358 11.498c.73-2.878 2.274-4.538 3.416-6.798-3.005-1.384-4.24-3.024-5.773-4.7zm-101.597 2.326l.553 2.973-5.957 1.38-.616-2.886zm22.216 1.03c.085 0 .17 0 .25.01 2.178.245 2.486.73 1.022 1.713-.888.596-3.29.68-3.687.044-.423-.68 1.15-1.754 2.415-1.767zm-43.22 1.747l1.85 1.08c3.166-2.29-.292-2.747-1.85-1.08zm40.086 1.002c.666.008 1.066 1.196 1.3 2.288.227 1.057.306 2.012-.102 2.543-.5.65-.988.766-1.384.122-1.162-1.885-1.124-4.97.186-4.953zm-4.91 1.726c.31-.01.703.067 1.16.24 1.545.583 3.593 2.95 2.728 3.276-1.278.482-4.072-.92-4.597-2.338-.266-.714.024-1.154.708-1.178zm-12.744 1.907l.142 2.94-6.264.253-.186-2.924zm15.346 2.475c.617-.018 1.233.063 1.73.278.898.388.244 1.09-1.295 1.624-1.017.352-2.465.443-2.973.04-1.19-.938.686-1.89 2.538-1.942zm-48.442.342c4.29 2.606 13.135 8.41 13.135 8.41-.42.084-.867.413-1.282.734-.318.264-.665.508-.967.63-.475.196-.913.223-1.31.31-2.766.6-4.12 2.166-3.257 4.112.34.765.427.642-.162 1.286-1.65 1.574-1.448 2.045-.86 4.06.007.284-1.964 2.704-.22 4.527.964.842 1.01.316.66 2.226-.122 1.15.19 2.092 1.863 2.42.93.427.916.28.587 1.067-.226 1.13.097 1.6.89 2.01.72.45 1.012.573.503.968-5.568 2.852-7.28 7.813-2.03 15.122.62.86 2.178 3.293 2.178 3.293-1.77 2.627-3.46 4.79-5.266 7.138l5.255 7.35c-.852 1.335-2.842 4.047-4.064 6.723-1.836 4.02-.623 9.655 4.66 11.34 2.267.723 5.26.137 7.145-2.053 1.53-1.777 2.363-5.307.967-8.984-1.766-4.12-3.884-6.14-4.57-7.31l5.628-7.065s-3.877-5.577-5.423-7.602c10.55-12.916 1.932-16.528.28-17.634-.258-.173-.197-1-.197-1 9.477-1.085 12.714-6.293 15.502-12.884 5.653 3.64 13.748 8.537 19.42 12.367.545.507.904.82.82 1.1-.068.23-.287 1.277-.298 2.353.264 1.713.138 2.488-.553 3.144-.65.617-.52.898-.414 1.565.18 1.16.356 1.274-.162 1.858-.638.72-.852 1.056-.733 2.802.07 1.037.203 1.814-.068 2.426-.352.797-1.32 1.2-2.587 2.196-2.22 1.743-1.92 2.276 1.145 8.602 2.61 5.39 2.91 6.624 1.907 8.538-.834 1.593-1.148 2.824-1.047 5.125.026.588.076 1.222.074 1.532-.006.744.003.66-.426 1.125-.334.362-.89 1.08-1.232 1.594-3.643 5.466-13.228 19.37-13.228 19.37l-32.23-.053zm45.2 2.543c.377-.027.833.65 1.35 2.015.297.788.266 2.158-.216 2.684-.96 1.05-2.28-1.408-1.863-3.354.187-.88.434-1.324.727-1.345zm90.646-1.477c.005 4.98-.102 11.442-1.817 16.207l1.945.88c-.628-4.89.15-8.907 4.638-11.023-2.042-1.386-3.602-3.728-4.766-6.064zm-95.478 3.14c.156-.005.336.034.533.097.726.2 1.612.625 2.15 1.174.922.94 1.874 2.068 1.634 2.175-1.524.67-5.392-1.375-4.885-2.973.11-.34.306-.468.566-.475zm-6.778.21l.04 2.44-3.747-2.396zm85.544 1.173c.606.054 1.544.848 1.398 1.4-.26.597-.58.54-.998-.085-.522-.783-.734-1.27-.4-1.314zm-75.9 3.02c.91-.026 1.694.175 1.78.65-.003.447-.694 1.028-1.546 1.29-2.13.656-3.726.233-3.144-.812.365-.69 1.74-1.098 2.91-1.13zm74.174 2.766c-.9 1.614-1.012 6.775.577 8.88 2.468 2.727 4.747 6.276 4.484 11l-2.372 1.06c.13-3.884-.024-6.41-3.056-9.76-3.612-3.925-2.763-10.725-1.517-12.725 1.07-1.973 2.61.822 1.883 1.546zM305.12 570.93c.758-.045 1.685.403 3.364 1.51 4.292 3.04 6.62 4.212 10.875 7.22.622.582.59.498.484.957-1.628 6.227-6.353 11.17-13.355 12.074-.81.106-.394-.402-.882-1.378-.502-1.005-1.43-1.443-2.46-1.453-2.89-.027-.42-1.65 3.11-2.113 1.167-.18 2.573-.338 3.316-1.042.162.076-.613-4.87.18-6.61.406-1.567.023-2.324-.414-1.36-.275.604-.66 2.19-.866 3.82-.174 1.372-.464 1.56-.787.893-.148-.304-.145-1.025.088-1.594.263-1.295-1.37-2.27-1.042-3.457.438-.99-.017-2.083-.567-2.445-.3-.642-.264-1.106-.225-1.555.093-1.05-.606-2.06-1.71-2.5-.49-.246-.343-.513.166-.767.237-.118.47-.185.723-.2zm-3.512 1.775c.278-.005.554.025.817.093.568.346 1.025 2.314.39 2.39-.233.03-.963.118-1.53.285-1.92.564-2.83.488-2.792-.617.038-1.126 1.614-2.126 3.115-2.15zm2.553.2c.757.004 1.366.89.89 1.36-.49.486-1.436.13-1.432-.572.002-.38.174-.79.543-.788zm.514 3.066c.217-.007.457.04.714.158.703.325 1.108 1.533.66 1.976-.34.336-1.313.218-1.833-.225-.93-.793-.48-1.872.46-1.91zm-2.38.177c.434.01.747.15.83.45.072.26-.048.498.07.866.182.58.55 1.024.228 1.257-1.472-.088-4.53 1.76-5.413 1.672-.738-.1-.82-.777-.182-1.878.738-1.272 3.16-2.394 4.465-2.367zm.89 3.575c.32-.02.374.157.243.626-.092.333-.016 1.127.21 1.638.243.55.684.876.455 1.09-.377.11-1.64.362-2.704.76-1.372.758-5.224 3.044-4.254-.612.31-1.222 1.726-2.07 4.2-2.935.94-.33 1.528-.548 1.85-.568zm2.018.044c.596-.043 1.276.243 1.58.983.893 1.778-1.67 2.032-2.49.552-.484-.877.145-1.48.91-1.536zm.49 4.142c1.33.007 2.365 1.66 1.398 2.284-.717.43-1.605.35-2.425.147-1.234-.543-.665-2.44 1.026-2.432zm127.516.034c5.067 2.653 11.958 5.1 18.64 6.915l-.224 65.734-45.464.03-12.51-21.717s-.414-.706-.547-1.017c-.252-.592-.162-1.074.01-1.687.414-1.483 1.67-4.386 2.827-6.447 3.02-5.546 7.312-11.63 4.988-16.96-.266-.608 2.4-3.913 2.4-3.913 4.107.336 7.503-2.342 6.287-8.663 8.573-3.505 15.636-6.354 23.593-12.275zm-129.878.323c.116-.004-.234 1.438.493 2.323.454.697.38.674-1.16 1.28-.574.313-1.15.787-1.475 1.077-2.204 1.966-4.384-.605-2.255-2.67 1.72-1.545 3.516-1.883 4.367-1.99.013-.014.022-.02.03-.02zm104.75 1.36c.74.13 1.697 1.114 1.39 1.65-1.042 1.746-1.09 2.685-1.183 4.492-.104 2.016.24 2.314-.528 1.965-.502-.234-1.44-.636-1.65-1.15-.483-1.18.756-7.174 1.97-6.958zm-105.47 5.06c.82-.013 1.678.254 2.162.876.403.52.445.963.044 1.175-.954.504-4.11.242-4.27-.406-.244-1 .868-1.623 2.065-1.644zm47.817 1.282c3.856.016 8.355.836 11.84 2.357 4.943 1.865 9.3 6.618 10.283 8.65.3.62-.313.62-.84.676-5.89.973-7.85 8.22-2.882 11.682 1.56.974 2.817.87 2.817.87 1.26-.107-5.6 13.06-8.333 21.263-8.45-.346-14.838.956-23.1-1.887-.89-1.475-.678-4.733-.03-6.416.593-1.528 1.375-2.707.997-4.465-.658-3.062-3.448-7.05-4.382-9.58-.82-1.93-.767-2.65.66-3.755 1.682-1.303 2.096-1.577 2.558-2.235.43-.614.246-.755.254-2.137.01-1.677-.03-1.417 1.354-1.663.484-.086 1.624-.45 2.494-.91 1.807-.952 3.067-.918 4.128-.327.46.124.417-.354.61-.988.085-.276.28-.728.265-.865-.032-.284-.642-.202-1.314-.108-2.696.376-4.82.46-5.913.053-.947-.353-.95-.99-.396-2.05.494-.943.842-.928.64-2.894-.252-2.47.09-2.99 1.243-3.8 1.437-1.012 4.047-1.485 7.047-1.473zm13.937 2.176h12.533c-1.23 1.985-2.598 5.045-3.374 7.947-.113.226-.247.448-.538.156-1.69-2.42-3.615-5.01-8.62-8.103zm-10.392 8.827c-1.498.043-3.372.763-5.726 2.113-1.6.917-2.908 1.486-4.607 1.173-.972-.18-1.097-.04-1.223.274-.572 1.418 1.55 2.94 3.692 1.94.62-.26 5.398-2.736 5.662-2.947.286-.23 2.265-.814 2.787-.807 1.58.02 2.554 1.262 2.36 2.694-.257 1.914-2.97 2.01-3.148.308-.137-1.31-.684-.728-.734-.083-.003.55.412 1.805.866 2.088 2.293 1.432 5.316-1.355 3.868-4.225-.886-1.756-2.102-2.576-3.8-2.528zm-10.285 6.67c-1.555.297-2.567.903-4.244 1.042-1.383.305-1.28 1.407-.415 1.98.664.44 1.5.175 3.922-1.364 2.377-1.51 4.415 1.637 2.513 3.25-1.197 1.014-.375 1.28.445.67 2.105-1.572.897-6.17-2.22-5.577zm7.36 8.103c-.18-.013-.47.053-.855.23-1.782.816-3.152 1.676-4.005 2.822-.146.25-.066.67-.137.997-.055.26-.26.587-.225.763.032.153.535.317.61.46.31.583.112 2.066-.067 3.14-.086.513-.85.672-1.154.982-1.004 1.02-.752 1.332.318.934.747-.277.43-.792 2.28-.434 2.393.464 4.29-.186 6.175-1.232 2.092-1.162 2.85-1.807 2.934-1.668.14.23.03.35-1.46 1.59-3.74 3.107-6.52 3.83-8.618 2.665-.628-.426-1.13-.6-.655.314.06.1.57.495.924.655 2.156.97 4.857.15 8.295-2.568.755-.597 1.42-1.265 2.293-1.996 2.853-2.387 2.103-3.48-1.12-2.318-1.015.367-1.3-.03-2.674-.562-1.845-.717-2.45-.784-4.573-.82-1.846-.034-2.123.14-2.12-.173 0-.395 1.243-1.792 2.64-2.4 1.362-.594 1.744-1.34 1.198-1.38zm3.4 5.893c.344.348-.15.57-1.482 1.203-.755.357-1.45.65-1.546.65-.12.214-1.376-2.62-1.032-2.76.147-.058 3.224.203 4.058.906zm-4.837-.298c.31.642.544 1.315.665 1.936.028.19.164.467-.137.465-.237.033-.627.053-.768-.168-.3-.473-.635-2.083-.523-2.396.232-.313.64-.094.763.162zm10.964 5.095c-.112.002-.32.084-.65.28-5.303 3.13-11.663 4.762-15.752 3.217-1.38-.522-1.63-.338-1.13.606.35.655 1.04 1.423 2.09 1.712 3.34.92 8.72-.42 12.86-3.135 1.685-1.105 3.065-2.683 2.582-2.68zm31.21 8.392s9.37 19.317 11.193 20.225l-76.248-.136 12.845-18.363c.114 1.022 30.988 5.262 52.208-1.725z" fill="#131f67"/><path d="M327.21 656.72l12.313-18.184c18.212 3.46 34.596 1.632 52.544-1.57l11.953 20.16zm96.557-67.77l-.08-10.795 3.762 1.4c-1.306-5.023 1.99-10.27 4.99-10.478-9.59-7.235-1.623-14.973-1.788-15.14-10.49-5.413-5.226-13.724-5.954-14.47-12.78-3.313-7.79-13.458-8.756-12.41-7.44 2.236-11.537-4-11.663-9.068-6.44 3.648-16.386-1.523-13.27-7.332 0 0 3.41 1.62 4.014 1.292 5.256-3.822 4.844 1.664 5.937 2.855 3.92-.568 6.235 2.433 7.212 3.89 5.783.006 5.545-1.38 5.596 4.228 4.356 1.106 4.183 3.462 6.707 6.68 5.493.06 4.568 1.85 3.325 4.89 3.96 3.15 4.28 5.618 4.933 8.485 4.32 1.565 5.094 2.202 2.275 5.844 3.812 5.715 1.977 9.024 2.557 9.336 4.752 3.43 2.377 4.67.302 5.987.72 4.557 1.298 5.227-.378 9.866 5.462 3.878-.868 5.627-1.19 5.546l-.016 3.842zM291.48 560.804l-.11-13.378 46.314 29.928-5.852 9.186zm61.527 19.688l10.946-22.92-3.933-25 31.375.686c3.527 8.018 5.655 14.836 14.693 28.11l-9.55 2.974.333 16.068zm26.833-6.027c-.32-.663-.498-1.116-.44-1.412.12-.38.41-.363.784-.158 1.334.647 2.667 1.206 3.65-.02.492-.64.364-1.555-.054-2.083-.753-1.532-3.12-.424-3.915-.37-.74.018-1.023-.604-.416-1.49.36-.384.588-.81.647-1.31.415-3.503-5.556-2.257-3.484 1.14.94 1.26.392 2.016-.99 1.22-1.524-.875-3.64-.06-3.57 1.783.052 1.395 1.805 2.257 3.28 1.415.34-.194.605-.405.846-.51.684-.298 1.176-.052.95.72-.614.964-1.334 2.35-.73 3.26.6 1.33 2.678 1.205 3.39.38.49-.57.63-1.497.05-2.565zm72.377-70.257l-46.404-30.076 1.604-2.542c2.078-1.16 2.934-2.603 2.863-4.614l1.26-2.778 40.725 26.133zm-72.552-10.167l4.752 24.28-32.396.462c-1.778-8.153-12.905-26.606-12.876-26.283l8.638-21.23 42.99-.05zm-12.157-9.042c.82-.75.765-1.9-.14-3.19-.876-1.252-.486-2.154.918-1.307.78.523 2.013.632 2.848.366 1.06-.36 1.498-1.206 1.342-2.274-.19-1.29-1.62-1.645-3.15-1.08-.442.092-.71.453-1.093.625-.824.363-1.152-.63-.398-1.914.837-1.424-.03-2.95-1.57-3.086-1.642-.144-2.62 1.725-1.95 2.75.96 1.472.265 2.497-1.115 1.512-1.985-1.417-4.576.38-3.503 2.485.52 1.022 2.226 1.29 3.754.642 1.278-.54 1.658.082.884 1.39-1.59 2.69 1.022 5.053 3.174 3.08zm-47.004-23.84l-.342 12.938c-4.846-2.964-4.126-3-4.305-2.956 1.426 3.89-.24 8.695-4.35 11.056 7.41 6.95 3.406 11.836 2.19 15.136 9.464 5.496 4.662 14.99 4.7 14.5 9.332.052 9.144 8.21 9.413 11.616 11.54-.725 9.992 8.495 11.513 9.288 5.593-2.504 12.127-1.645 13.86 5.873 1.12 4.264-2.993.154-4.784.333-6.38 3.972-5.152-2.09-5.51-2.933-5.283.5-5.994-2.018-8.308-3.804-5.705 1.098-5.235-.78-4.9-4.244-4.475-.907-5.448-3.7-7.23-6.434-6.18.2-3.66-4.165-3.637-5.023-.75-.67-4.298-4.163-4.473-8.16-6.343-1.793-2.36-4.994-2.13-6.092-2.4-2.99-3.03-5.195-2.228-8.962-5.632-2.632-.928-5.093-.53-6.59-1.836-4.908-.498-6.377.227-9.032-3.623-4.248-1.458-4.013 1.194-6.59.336-.465-.59-2.6-.54-3.854zm32.538-47.955l-10.155-18.18h72.538s-7.894 10.94-10.955 16.445c-18.09-2.856-35.018-1.5-51.428 1.735z" fill="#d40000"/><path d="M302.41 644.912c-6.363-1.445-7.443-9.442-1.47-16.093.482-.538.81-1.37.81-1.37s-1.062-1.75-3.85-5.61c-.518-.717-1.273-1.867-1.273-1.867 1.526-2.202 3.13-4.026 4.837-6.413.23-.322.653-.683.594-.98-.085-.423-.705-.845-1.446-1.937-4.308-6.346-4.783-8.862-2.596-12.636 2.055-3.548 6.966-3.958 9.955-.83 3.23 3.38 3.082 6.45-1.114 12.7-.92 1.373-1.586 2.612-1.586 2.612s-.038.434 1.48 2.395c2.107 2.72 3.654 5.056 3.654 5.056s-.96 1.224-1.867 2.29c-2.43 2.858-3.526 4.828-3.526 4.828s.167.57.53.98c6.667 7.555 6.14 16.23-1.397 16.968-.388.038-1.33-.02-1.734-.094zm53.62-96.394c-.175-.286-23.99 38.254-23.99 38.254l2.72 1.744 22.78-35.627c.344.26.68.57.61 1.004 0 0-18.764 30.578-21.89 35.465-.083.13 4.653 2.937 4.812 2.944 6.978-3.44 36.083-.46 55.41-1.645.075.058-.298 6.788-.298 6.788s-4.407-5.097-5.297-5.128c-4.394-.153-9.015 1.718-12.325 1.508-2.114.647-4.528 8.352-5.002 10.283-3.846-.446-7.56 3.58-6.673 7.327 1.258 4.164 3.418 3.85 5.755 3.92-.217 4.713-8.54 17.14-8.575 23.26 8.802-.695 18.326-.855 27.406-3.593 0 0 3.41-9.808 7.713-16.272 1.42-2.473 2.1-6.186 1.525-8.525-.364-2.563.74-3.21 1.727-5.004.6-1.12 2.82-1.075 3.102-1.157 5.775-1.672 3.71-9.14 1.254-10.47-3.066-1.656-7.4.912-9.064-2.45-1.763-3.555-1.192-10.908-1.192-10.908l-43.604.208s12.32-23.412 12.008-23.583c-3.37-1.85-8.87-8.278-8.912-8.345zm-29.165 21.31c.204-2.368.583-40.842-35.77-59.968l.192-5.058c.223-.26 33.07 14.827 38.704 54.016l10.137-15.885 3.73 1.463c-5.51 8.28-16.468 28.373-16.992 25.432zm-22.075-13.86c1.497-4.442-.96-2.086-3.2-2.268-1.53-.833-3.033-1.91-4.455-2.844 10.624-5.63 4.297-5.358-1.893-1.405-1.604-.87-3.634-2.775-3.762-2.614 11.99-7.712 7.492-7.867-.18-2.284.264-5.237.078-3.27.18-5.032 6.54-7.007.45-3.2 0-3.116-1.61-6.992 6.09-5.528 6.797-.242 1.355 1.008 4.02 2.255 4.804 6.59 3.7 2.356 3.31 4.307 3.14 7.128 1.446 1.43 5.18 4.444.825 7.23zM291 524.064l.246-3.867c.5-1.577 28.538 18.426 26.517 44.13.33-.18-3.103-1.795-4.088-2.678.015-18.915-22.242-38.525-22.675-37.586zm160.806 21.698c-18.707-8.574-36.47-29.12-37.404-55.844l-10.566 17.698-3.75-1.588c.35.29 8.356-14.57 16.6-24.843 2.324 33.718 15.547 49.398 35.578 60.787zm-97.97-12.33c-18.126-2.25-44.336-26.93-36.503-60.385 1.11-3.397 18.593 15.426 18.594 15.425.11-.854 15.727 24.305 15.29 29.22 13.18 3.755 38.907.195 38.907.195 21.39 4.778 43.758 27.857 35.683 60.657 0 0-5.686-3.734-10.438-8.08-14.44-13.955-19.02-25.423-24.135-38.073-18.485-1.673-35.814 1.643-37.4 1.043zm98.145-27.862c.317 1.667.112 5.118.174 5.112-4.818 5.246-5.317 5.34.72 3.655-.747 5.03-4.466 5.857-6.675 4.145-.816-.63-.823-4.098-.823-4.098-3.663-.917-4.92-2.02-4.4-5.96-4.22-.503-4.053-2.556-3.707-6.843-3.84-2.16-2.884-5.6-.612-7.07l1.9 1.31c-.61.545-.312 3.96 3.055 1.42 0 0 2.692 2.236 3.986 3.103-9.74 6.264-3.837 4.887 2.163.772 1.126.768 2.663 2.024 3.463 2.566-7.904 5.67-10.498 10.41.755 1.89zm.474 21.297l-.322 4.515c-19.232-11.767-24.438-27.285-25.868-43.813 0 0 2.582 1.9 3.762 2.69 1.716 21.32 21.24 35.718 22.428 36.607zm-105.363-55.95l46.12.294-12.23 23.395 6.455 7.628s16.022-24.97 24.077-38.05l-2.787-1.665-22.993 36.14-.913-1.014 22.667-36.11c-1.36-.89-3.932-2.32-3.932-2.32s-39.277.632-56.348.563c.554-2.357.673-6.533.673-6.533 2.517 3.615 5.215 6.843 11.085 3.29 0 0 6.942.235 7.197-.096.85-1.374 2.355-5.694 4.11-10.574 6.697-.448 6.03-3.686 6.79-4.748-.51-9.52-5.85-4.393-5.39-7.853 1.51-6.166 9.22-20.125 8.246-21.35-1.99-1.32-21.716 2.565-27.456 3.272-.532-.204-3.334 8.958-6.29 12.875-3.216 4.26-4.362 8.83-2.72 13.14-1.702 4.738-4.962 4.252-7.582 5.594-2.97 3.218-2.152 8.146.68 10.052 1.972 1.327 4.998 1.258 8.083-1.247zm91.648-33.09l-5.396-7.25 5.23-7.623c-2.063-3.274-5.468-8.285-4.858-12.256 1.333-7.875 11.955-6.72 12.88.813.502 3.498-2.046 7.786-4.634 11.435 1.708 3.115 2.443 3.623 4.927 7.194-1.476 2.604-5.07 7.702-5.07 7.702 2.242 3.77 5.36 7.926 5.133 11.76-.237 3.295-3.825 6.632-7.175 5.93-10.415-2.18-4.598-13.32-1.037-17.706z" fill="#e2cf00"/><path d="M276.018 378.267v3.48h3.443s.082 3.358.113 10.486c.03 6.917.172 10.35-.274 12.318-1.212 4.544-7.91 4.566-9.243 1.302-.776-1.9-.566-3.376-.607-5.286h-3.7s.018.962.023 2.137c.02 5.11 1.745 7.548 5.775 8.514 4.145 1.098 8.985-.576 10.71-4.054 1.028-1.982.91-2.113.934-14.094.016-7.997.142-11.322.142-11.322h3.168v-3.48zm65.147 15.927c2.86 5.373 10.983 19.87 10.983 19.87 19.317-4.008 35.562-5.027 52.633-1.287l12.197-18.495zm2.518 1.09h3.492l6.85 14.1 11.82-2.363-2.014-11.706 3.346.02 1.692 11.257 17.365-.44 2.25-10.866 3.202.04-2.298 11.042 13.75 1.853 6.73-12.936h4.62l-10.23 15.972c-18.198-3.547-36.278-2.356-51.41 1.37zm6.587 0h10.196l2.445 9.517c-1.25.654-5.926 1.772-7.49 1.614-1.87-3.272-3.8-8.004-5.15-11.13zm19.664 0h15.516l-1.325 8.103-13.013.416zm24.597 0h11.958l-4.72 9.84-9.017-1.228zm-76.437 2.465c-2.4 5.162-5.78 10.2-8.612 13.92-8.395 10.978-10.198 14.102-11.857 20.565-2.598 10.116 6.356 18.29 14.122 12.792 1.83-1.295 3.856-4.865 3.864-6.406.005-1.107.763-1.706 1.378-1.084.124.125.155.62.117 1.33-.43 4.584-2.27 12.037-5.83 16.714h14.227c-4.306-5.71-5.746-11.464-5.668-16.876.01-2.326 1.387-2.097 1.697.284 1.518 11.676 16.575 9.483 17.278-2.196.413-6.107-3.442-12.613-8.465-19.825-4.098-5.883-9.084-12.235-12.25-19.218zm121.96 7.383c-.698-.004-1.343.057-1.936.18-3.1.65-4.727 3.034-4.753 6.926-.012 1.782 1.302 4.935 3.3 7.916.975 1.453 1.624 2.792 1.624 2.792l-5.203 7.648 5.536 7.233s-.86 1.01-1.373 1.735c-2.54 3.59-3.713 6.948-3.55 9.702.175 2.974 1.91 5.244 5.16 6.333 1.782.597 4.324-.133 6.033-1.682 1.38-1.25 2.074-2.875 2.103-4.783.042-2.725-1.274-6.027-3.897-9.63-.713-.977-1.062-1.745-1.062-1.745s3.672-5.227 5.057-7.618l-5.017-7.21c3.99-5.993 4.794-7.322 4.905-11.006-.18-3.65-2.83-6.77-6.924-6.793zm-.498.44c.172-.003.346.002.518.015 4.556.35 6.962 3.737 6.358 8.083-.618 4.146-4.354 8.008-4.953 9.342 1.797 2.92 5.183 7.07 5.183 7.07-1.437 2.614-5.15 7.678-5.15 7.678s.215.42.45.754c3.877 5.492 4.943 8.087 4.676 11.38-.21 2.596-2.26 4.913-4.817 5.383-4.05.745-7.373-2.13-7.78-6.01-.25-3.397 1.94-6.7 3.642-9.277.72-1.08 1.34-2.112 1.34-2.112l-5.516-7.243s.395-.622.65-.992c.97-1.408 2.225-3.15 2.866-3.986 1.16-1.51 1.848-2.552 1.848-2.552s-.822-1.324-1.584-2.53c-3.025-4.777-3.87-7.226-3.404-9.867.573-3.248 3.09-5.092 5.673-5.135zm.41 2.45c-1.683.045-3.29 1.287-3.93 3.08-.926 3.367 2.616 8.462 4.23 9.83 3.02-3.473 4.944-7.37 3.828-10.098-.734-1.65-2.444-2.856-4.127-2.812zm.416 1.09c3.052.064 4.194 3.686 1.84 7.806-.813 1.405-2.01 2.874-2.01 2.874s-1.118-1.393-1.79-2.445c-2.726-4.27-2.023-7.602 1.326-8.197.22-.028.432-.043.635-.04zm-60.71 1.884c-7.986.042-18.656 1.372-28.035 3.5-.815 5.032-3.34 10.077-6.094 14.085-2.65 4.332-3.61 8.105-2.722 10.69.83 2.42-1.437 6.032-3.927 6.26-3.094.28-5.064 2.436-5.026 5.505-.088 4.917 3.305 7.932 7.912 6.26.463-.058.773.244.773.244l-.27 28.144c-2.593.407-4.324.97-6.53 2.142l-.928-.998c-.51-.548-1.157-1.25-1.437-1.564-.28-.314-.79-.752-1.13-.97-.34-.216-.8-.684-1.022-1.04-.543-.87-2.85-3.087-4.108-3.947-.214-.146-.758-.607-1.208-1.022l-.82-.753.004-9.345c.003-5.14-.05-9.4-.117-9.467-.067-.068-1.12.38-2.342.997-4.197 1.838-8.208 4.37-11.286 6.426-1.363.913-1.5 1.42-.988 3.73.288 1.298.217 1.437-.85 1.698-2.2.54-2.886 4.04-1.027 5.23.87.556.874.585.312 1.852-.87 1.96-.837 5.708.063 7.272.514.893.48 1.18-.2 1.623-2.342 1.524-2.183 4.785.264 5.394.624.157.788.425.58.96-.764 1.974-.067 4.975 1.688 7.247.912 1.18.91 1.168.308 1.71-1.97 1.782-.903 4.972 1.78 5.322.92.12.925.12 1.032.825.307 2.025.447 2.59.895 3.54.564 1.2 1.242 2.01 2.513 3 1.037.805 1.038.817.484 2.008-1.023 2.204.604 4.39 3.198 4.3 1.323-.047 1.324-.05 1.42.42.465 2.3 3.198 4.998 5.44 5.37 1.155.19 1.336.464.945 1.44-.63 1.575-.222 2.59 1.37 3.405 1.066.547 1.378.567 2.547.166 1.322-.454 1.336-.447 2.46 1.057 1.584 2.12 2.634 2.652 5.276 2.67 1.743.013 1.808.058 1.82 1.287.026 2.91 3.103 4.12 5.085 2.005.716-.764.714-.76 1.35-.294 2.79 2.044 5.263 2.572 5.033.66-.54-4.474-3.775-7.203-3.775-7.203l4.044 1.056c.178 4.725.346 10.42 1.33 14.36l-18.025 28.71s-1.093-.67-2.245-1.463c-1.694-1.17-3.77-2.543-5.04-3.34-.653-.408-1.484-.906-2.138-1.457-.628-.523.387-1.213.6-1.766 4.152-7.41 10.647-16.32 15.376-24.98l-4.577-1.77c-3.502 5.514-6.08 9.95-9.34 15.034-3.247-23.82-19.87-44.732-39.983-53.538l.07 6.235c21.112 10.8 36.18 33.09 35.78 59.38-.082.1-1.767-.91-4.044-2.424-1.2-.798-3.617-2.378-3.917-2.532.976-29.116-27.9-46.332-27.948-45.518 0 0-.182 3.762-.264 5.506 12.304 8.244 21.97 23.242 22.95 36.59.01.108-5.776-3.61-5.776-3.61 3.443-1.715 2.495-6.157.015-7.36-.777-.348-.822-.517-.436-1.565.795-2.15-.66-5.387-2.664-5.93-.878-.24-1.023-.47-1.066-1.703-.078-2.255-1.326-3.73-3.575-4.225-.62-.136-.626-.142-.66-.92-.19-4.368-4.462-6.147-7.668-3.192-.358.33-.733.958-.733.958l-.025 4.74c1.094-.604 2.755-2.662 3.437-2.578.754.088.388.595-1.305 2.058-1.1.95-2.167 1.952-2.167 1.952l.07 6.24c1.824-1.186 3.652-2.526 5.363-3.717 1.475-1.028 2.23-1.363 2.41-1.066.205.334-.124.77-.962 1.27-2.248 1.5-4.863 3.256-6.754 4.735l-.004 4.298.36.534.11 3.765-.338.082.004 4.744 44.408 28.367 22.598-35.65.37.378-22.6 35.498s.928.8 1.808 1.262c.897.502 2.02 1.172 2.978 1.81.453.74 1.244 1.393 2.093 1.3.777-.85 4.172-1.747 4.498-2.14 12.643-.185 48.936.062 48.936.062l.206 5.804c-1.63-5.628-6.893-6.79-11.028-4.27l-6.792.01c-.053 0-4.02 7.23-4.602 11.004-2.855-.388-6.654 2.394-6.846 5.218-.463 4.018 2.177 6.947 5.628 6.377.063.025-.54 3.98-2.493 7.07-2.59 5.455-3.926 8.507-5.507 13.16-1.07 2.924-.705 3.444-.523 3.516 10.133-.145 19.456-1.127 29.072-4.23 0 0-.18-.684-.265-1.07-.347-1.557.96-4.744 4.66-11.325 2.857-5.084 3.675-7.024 3.96-9.424.146-1.213.12-1.528-.302-3.793-.026-.21-.19-.516-.147-.744.3-1.526 2.622-4.207 2.675-4.142 0 0 .844-.155 1.18-.185 5.24-.367 6.862-7.488 2.44-10.7-2.155-1.32-3.423-1.42-5.707-.82l-.04-27.616 3.186.12 3.5-1.73c5.623 4.803 9.29 9.712 15.344 13.41l-.097.244-4.5-3.086.01 18.094c5.208-2.71 10.063-5.21 14.744-9.003l-.943-.818.04-2.587c4.4.347 4.822-5.253 1.207-5.922 0 0 .084-.45.43-1.163 1.11-2.276 1.248-4.42.44-6.788-.492-1.444-.47-1.807.113-1.804 2.672.014 2.427-4.728-.298-5.766-.94-.357-.872-.06-.68-3.003.143-2.21-.395-3.71-2.03-5.65-.617-.73-.565-1.083.23-1.568 2.28-1.393.628-5.414-2.176-5.296-1.096.045-1.094.044-1.19-1.052-.248-2.88-1.857-5.628-3.965-6.778-.654-.356-.75-.647-.382-1.14 1.795-2.4.117-5.682-2.416-4.723-.49.186-1.01.372-1.15.416-.2.06-.36-.22-.747-1.307-1.053-2.962-1.988-3.89-5.34-5.3-.66-.278-.698-.473-.4-1.825.512-2.333-2.7-4.505-4.437-2.998-.706.614-.73.61-1.525-.41-1.586-1.824-4.165-3.095-6.46-3.335-1.098-.1-1.264-.185-1.174-.607.608-2.858-2.173-4.72-4.485-3.002-1.11.825-1.398.85-2.538.21-2.397-1.345-3.447-1.396-3.697-.18-.077 1.01.146 2.208.39 2.953.584 2.007 1.34 2.752 2.994 4.165 0 0-2.745-.76-3.438-.9.068-.072-.2-9.53-2-14.885l17.55-27.933 10.055 6.63-16.078 25.435 4.68 1.902s6.25-10.382 9.52-15.472c2.143 25.28 21.687 47.45 39.39 54.026-.058.03.058-3.635.134-5.408-18.68-8.225-36.446-31.207-35.327-58.79l7.5 4.802c2.178 22.108 11.808 35.063 27.86 46.017v-6.774c-11.055-8.18-20.24-18.868-22.676-35.967 0 0 3.748 2.366 5.428 3.49 0 0-.474.27-.72.474-2.004 1.67-1.4 5.094 1.243 7.033.43.314.434.315.03 1.393-.802 2.14.434 4.725 2.523 5.267 1.198.31 1.19.296 1.213 1.667.043 2.664 1.117 3.89 3.962 4.53.39.086.402.126.396 1.32-.016 2.943 2.813 4.923 5.276 3.69.772-.385 3.2-2.415 3.2-2.415v-4.74s-1.1.9-1.894 1.64c-1.39 1.294-1.828 1.455-1.824.664.003-.573.643-1.326 1.976-2.318.69-.514 1.74-1.614 1.74-1.614v-5.52s-.62-.984-.58-2.162c.02-.64.2-1.614.2-1.614l.664.015-.01-6.39-.806-.63.034-4.236-43.91-28.412-22.87 36.373-.573-.67 22.897-36.143-6.083-3.888-3.673 1.81s-25.414-.4-50.2-.084c0 0-.06-.684-.05-2.616.013-2.43.125-2.77.572-1.746 1.003 2.297 3.493 3.682 6.382 3.55 1.63-.074 1.858-.14 3.672-1.12.675-.363.797-.374 3.976-.35 3.408.023 4.02-.102 4.025-.823 1.186-2.7 2.354-5.83 3.03-8.186.328-1.142.473-1.646.74-1.88.207-.18.37-.14.865-.17 2.18-.14 2.788-.28 4.358-1.814 3.148-3.164 1.343-9.6-3.218-9.624-1.208-.007-.382-3.22 2.17-8.436 2.642-5.395 3.012-6.222 4.378-9.84.892-2.363 1.32-4.057 1.428-5.09h-.768zm-.24 1.56c.632.53-.946 4.426-3.79 10.323-2.347 4.868-3.397 7.302-3.897 9.066l-.46 1.628c-.154.545-.356.813-.895 1.2-.383.273-.917.676-1.188.893-.77.617-.95.42-.763-.82.35-2.307 1.264-4.794 3.374-9.12 1.674-3.445 3.31-7.137 4.584-10.9.286-.88.42-1.774.894-2.1.684-.383 1.408-.307 2.142-.17zm-3.423.224c.435.303-1.63 5.64-5.203 13.048-4.46 9.246-4.696 15.722-.685 17.307 3.162 1.25 6.347-2.236 4.396-4.778-.94-1.222-2.962-1.325-3.663-.06-.383.692.148 1.49.826.52.986-1.41 2.96.218 2.484 1.887-.328 1.146-1.93 2.067-2.925 1.868-4.382-.874-3.557-7.054.987-7.394 4.348-.325 6.326 5.514 3.17 8.857-1.002 1.082-2.175 1.62-4.216 1.618-2.83-.004-5.475-2.34-5.207-4.51.374-1.982.43-3.585-.24-5.148-.216-.502-.48-1-.465-1.633.04-1.757 1.487-4.485 4.715-11.223 1.156-2.416 2.575-6.6 3.276-9.244.246-.772.124-.99.415-1.096.722-.16 1.752-.376 2.332-.02zm-3.73.094c.66.03-.863 4.89-2.783 9.033-1.46 3.17-3.45 7.245-4.93 11.012-.474.798-.79.86-1.76.342-1.07-.572-.753-1.48 1.77-6.5 1.902-3.81 3.73-8.123 5.012-12.465.116-.52.292-.972.724-1.222.66-.288 1.3-.23 1.966-.2zm-3.55.548c.352.467-1.96 7.02-5.537 14.41-.764 1.57-1.28 3.005-2.05 4.608-.368.37-1.79.56-2.503.704-.734-.098-.038-1.476 2.054-5.707 1.707-3.45 2.19-4.425 3.087-6.523.653-1.537 1.603-4.176 2.494-6.64.073-.2.14-.642.333-.744.664-.28 1.473-.394 2.123-.108zm-3.493.41c.058.16-.074.484-.122.734-.563 2.638-1.848 5.093-2.787 7.614-.113.344-1.142 2.49-2.29 4.768-1.146 2.278-2.197 4.454-2.337 4.837-.14.383-.52 1.4-.846 2.26-2.058 4.414.155 7.894 2.88 8.137 4.253.352 4.654-5.608 1.654-6.18-1.13-.19-2.374.43-2.38 1.73-.08.68.756 1.47.744.493-.045-1.776 2.436-1.694 2.742-.186.596 2.94-2.745 4.376-4.735 2.068-.82-.95-.812-2.035-.66-3.008.413-2.63 3.445-4.533 6.254-2.547 3.846 2.716 2.52 8.724-2.45 9.702-1.697.442-3.837-.124-5.177-1.502-.853-.877-1.414-2.17-1.63-3.775-.118-.893-.165-1.944-.028-2.93.402-3.084 2.653-7.588 4.626-11.403 1.524-3.165 2.72-7.346 4.11-10.71.39-.286 2.493-.55 2.434-.102zm-3.75.42c.226.07-.936 3.726-2.592 7.674-1.823 4.005-4.19 8.587-5.53 12.53-.423.966-.73.937-1.933-.182-.635-.59-.278-1.47 1.946-6.01 3.42-6.983 4.69-9.96 5.203-11.624.24-.782.434-1.74.947-2.044.657-.31 1.304-.54 1.956-.343zm-3.42.877c-.36 1.174-1.546 4.658-3.574 8.786-1.272 2.606-2.514 5.493-3.77 8.182-.7 1.66-.72 1.657-1.917 1.907-2.015.42-2.015.398-.235-3.213.53-1.073 1.547-3.044 2.265-4.377 1.322-2.456 3.366-7.24 4.107-9.624.2-.637.475-1.236.797-1.563.208-.11 1.794-.584 2.328-.098zm-4.405.44c.36-.014.683.05.835.248.09.82-2.125 6.064-3.486 8.495-.417.745-.83 1.71-1.297 2.572-1.735 2.76-3.82 8.063-4.357 10.264-.854 3.496 3.143 6.14 5.216 3.597 1.315-1.54-.054-4.307-1.95-3.534-.662.27-.39.565.513.64 1.492.127 1.605 2.428.024 2.933-1.76.54-3.055-.986-3.048-2.548.013-3.2 3.516-4.378 5.708-2.63 2.187 1.823 2.536 6.152-.777 7.83-3.23 1.636-7.206-.582-8.005-4.46-.61-2.96.05-5.672 2.9-10.235 1.637-2.627 4.18-7.16 5.48-11.14.257-.674.482-1.233.715-1.516.218-.25.926-.496 1.526-.518zm-77.828.8s-1.288 2.47-3.066 5.434c-2.17 3.664-5.364 7.282-5.834 11.38-.126 1.166.067 2.337.303 3.056.992 3.014 5.31 3.47 6.817.93.453-.764.605-.906 1.047-.666.188.102.267.4.258.816-.375 2.706-1.418 4.192-2.915 6.226h7.203c-1.516-1.67-2.803-3.973-2.958-6.304-.047-.955.536-1.035 1.408.01 2.81 3.883 7.227-.48 6.866-4.103-.402-4.033-4.618-9.25-5.78-11.297-1.757-2.6-3.35-5.482-3.35-5.482zm164.408 8.515l-4.338 5.516c1.25 1.81 4.225 5.365 4.225 5.365l4.113-5.31zm.04 3.085l1.793 2.328-2.053 2.426-1.927-2.265zm.16 11.99s-5.244 5.748-4.04 10.01c1.077 3.8 6.79 4.723 8.182-.835.098-.443.02-1.04-.04-1.785-.118-2.264-4.102-7.39-4.102-7.39zm0 1.136s1.506 2.183 2.567 4.117c1.19 1.84 1.5 6.982-2.718 6.822-2.288.236-4.47-2.78-2.652-6.465.495-1.123 2.802-4.474 2.802-4.474zm-86.556.924c.292-.046.584.584.768 1.04.25.624-.464 2.415-1.218 3.307-.143.15-1.107.233-2.538.964-.004-.67.406-2.14.675-2.792.977-.964 1.805-2.113 2.192-2.455.04-.036.08-.057.122-.063zm-10.45.323c.644.73 1.277 1.362 1.252 1.814-.038.66-.816 1.478-1.404 2.06-.738.728-2.21.294-2.205-.652.002-.35 2.104-3.224 2.357-3.222zm22.196.948c.623.335 1.254 1.472 1.335 1.987-.913 4.914-4.29 10.92-4.176 10.694 0 0-2.07.37-2.95-.077 2.275-3.158 3.798-7.175 4.832-10.465.443-1.42.645-2.133.958-2.137zm-1.917.69c.348-.02.483.262.19 1.023-1.336 5.434-4.34 11.146-6.703 12.186-3.103 1.365-6.187.23-7.512-2.104-1.434-2.527-1.18-6.515 3.6-7.39 2.81-.287 5.69 1.93 4.19 5.493-1.67 2.643-6.156 1.17-4.84-2.24.993-1.25 3.075-.166 2.395 1.246-.345.717-.01 1.157.5.66 1.635-1.593-1.056-4.326-2.87-2.958-2.962 2.23.694 7.136 4.14 5.032 1.05-.64 2.95-4.24 3.663-6.86.307-1.13.584-2.2 1.31-2.886.692-.652 1.49-1.177 1.937-1.203zm-7.848.216c.17.006.368.09.64.225.346.17.75.48.704.88-.055.464-.32 1.47-.85 1.957-.322-.11-1.207-.463-1.81-.626-.38-.1.125-.917.356-1.368.374-.727.58-1.032.885-1.06.024-.003.05-.007.075-.006zm-9.766.186c.445-.01 1.15.486 1.618.552.09.675-.77 2.12-2.167 3.824-1.145 1.4-1.14 1.402-1.9-.136-.497-1.002-.51-.974.904-2.734.76-.946 1.126-1.38 1.457-1.496.028-.006.06-.01.09-.01zm4.434.494c.02.36-.163 1.156-.318 1.618-1.584 4.735-5.287 9.425-8.342 10.578-3.987 1.303-7.64-.797-7.732-5.64.102-5.703 6.893-7.284 8.945-2.082.926 2.35-1.598 5.88-3.78 5.29-2.203-.593-3.122-4.03-1.306-4.88 1.19-.556 2.422.378 2.162 1.64-.09.437-.065.497.19.45 1.133-.212.535-2.486-.8-3.052-2.526-1.072-4.434 2.33-2.73 4.865 2.04 3.036 5.248 2.454 7.096-1.29.314-.638.913-1.553 1.325-2.03 1.12-1.295 1.476-1.804 2.465-3.516.545-.943.837-1.54 1.115-1.85.443-.03.746.094 1.71-.1zm8.944.25c.48.003.847.314.837.977-.01.555-.803 2.893-1.174 3.453-.14.214-.473.966-.522.802-.466-1.556-1.3-2.037-1.418-2.446-.14-.478.282-.938.47-1.37.398-.915 1.193-1.422 1.808-1.417zm8.43.737c.58-.004 1.397.26 1.566.69.528.926-3.043 9.55-3.174 9.575l-2.665-.117c1.6-3.438 3.016-6.845 4.044-10.127.07-.012.146-.02.23-.02zm35.758 13.65l3.39 2.014-22.34 35.497-3.246-2.484zm-55.733.732c20.865.078 49.6.04 49.6.04l-1.212 2.303s-31.385-.306-48.387-.274zm-28.168 1.453l-.044 11.668s-.155-.07-2.145-1.394c-2.39-1.59-5.01-3.23-5.854-3.658-1.243-.632-1.08-.937 1.312-2.46 2.348-1.413 6.733-4.156 6.733-4.156zm89.34 1.16l2.097 1.324-23.473 37.36-1.307-2.56zm-61.167.517h3.266v3.692h-3.266zm7.482 0h3.966v3.692h-3.966zm8.665.04h4.078v3.69h-4.078zm8.504.014h4.12v3.69h-4.12zm8.567.023h4.068v3.693h-4.068zm8.572.08h4.16v2.6l-.63 1.09h-3.53zm22.43 1.202l39.81 25.756-.023 3.556-41.444-26.783zm-2.61 3.012l.34.245-1.686 2.582-.347-.196zm-61.5.38h44.687l-1.345 2.266-43.342-.064zm-36.686 1.156c.3-.02.887.245 1.8.757 2.197 1.233 3.58 3.834 2.63 4.773-.844.836-2.822-.954-4.05-3.51-.65-1.356-.82-1.992-.38-2.02zm79.07 2.23l-14.417 23.042c-3.26-4.466-6.912-8.325-14.89-5.712-4.16-3.216-8.558-3.712-13.238-.983l.053-16.27zm-74.214.01l1.125.972c-.332.635-.485 1.553-.7 2.372-.017-1.123-.114-2.24-.425-3.345zm91.392.24l44.418 29.223v2.71l-45.968-29.616zm-97.285.664c.575-.01 1.137.234 1.56.743.672.808.395 2.287-.547 2.92-1.878 1.258-4.13-1.178-2.64-2.856.466-.526 1.053-.796 1.627-.807zm7.355.347l2.426 1.942c-4.21 24.01 7.817 48.25 33.722 55.513l.294 3.075c.05.146-11.006-3.284-15.835-6.895-6.602-4.466-12.18-10.755-16.026-18.07-2.623-4.716-4.063-9.91-4.993-14.108-1.098-7.2-1.067-14.33.412-21.458zm-2.753 3.257c.93.04 1.03.71.283 1.996-.96 1.655-2.4 2.807-4.734 3.79-1.287.54-1.622.295-1.473-1.076.224-2.062 1.658-3.57 4.142-4.367.595-.165 1.198-.346 1.78-.342zm7.14.26l.962.817c-.796.273-1.37 1.024-1.37 1.912 0 1.117.907 2.023 2.025 2.023 1.002 0 1.83-.726 1.99-1.682l.97.832c-.468 1.178-1.616 2.01-2.96 2.01-1.757 0-3.183-1.426-3.183-3.183 0-1.166.63-2.176 1.565-2.73zm1.617 1.594c.11 0 .217.02.318.05.254.215.46.39.704.6.07.15.112.31.112.485 0 .625-.508 1.133-1.135 1.133-.626 0-1.134-.508-1.134-1.134 0-.628.508-1.136 1.134-1.136zm-7.643.734c-.264 3.096-.18 6.334-.083 9.575-.597-2.57-1.93-4.49-4.15-5.805 1.532-1.06 3.136-2.348 4.234-3.77zm11.673 2.43l2.156 1.863c-1.854 25.418 20.42 35.063 21.018 34.64l.94 2.874c-15.38-5.235-26.013-21.133-24.113-39.376zm124.068 60.934l-.112 3.2c-17.454-6.772-37.345-31.758-37.092-55.698-4.48 6.87-7 11.455-10.845 17.644l-3.063-1.458c5.037-7.503 9.824-15.527 14.874-22.897.575-.833 1.046-1.214 1.072.606-.003 8.236 2.552 42.124 35.167 58.602zm-141.912-58.948c.56-.036 1.364.236 2.376.914 1.596 1.07 3.386 4.377 2.767 5.115-.557.664-2.923-.126-4.098-1.37-2.33-2.463-2.482-4.568-1.047-4.66zm13.61.332c1.756 0 3.182 1.422 3.182 3.18 0 1.756-1.426 3.182-3.183 3.182s-3.184-1.426-3.184-3.183 1.427-3.18 3.184-3.18zm7.124.303l2.078 2.435c.406 21.332 17.244 27.91 17.086 27.962l.51 2.293c-.94.132-20.832-8.924-19.673-32.69zm-7.125.85c-1.118 0-2.025.907-2.025 2.025 0 1.118.907 2.024 2.025 2.024 1.118 0 2.024-.907 2.024-2.025 0-1.118-.906-2.025-2.024-2.025zm0 .89c.626 0 1.134.508 1.134 1.135 0 .626-.508 1.134-1.134 1.134-.626 0-1.135-.51-1.135-1.135 0-.627.51-1.135 1.135-1.135zm10.758 1.932c.256 0 1.458 1.746 1.458 1.746s-1.32.462-1.888-.113c-.565-.57-.26-1.637.43-1.633zm92.195.787l3.12 2.13c1.456 14.393 9.7 27.52 22.133 36.63l-.08 3.564c-15.14-10.232-23.55-24.134-25.173-42.325zm-116.895.244c.05-.003.102 0 .152 0 1.908.032 2.717 2.964.674 3.804-1.283.53-2.68-.234-2.816-1.54-.096-.92.587-1.904 1.516-2.176.164-.05.322-.08.474-.088zm26.035 1.922c.5 0 1.045.288 1.56.87 1.37 1.543 1.356 1.992-.088 2.577-2.03.824-3.718-.32-3.04-2.063.354-.916.925-1.385 1.568-1.384zm-20.788.073c.165-.005.32.017.46.072 1.497.584-1.748 6.528-3.893 7.13-1.362.383-1.648-.15-1.203-2.235.496-2.318 3.043-4.935 4.637-4.968zm9.546.136c1.757 0 3.183 1.422 3.183 3.178 0 1.757-1.426 3.184-3.183 3.184s-3.184-1.427-3.184-3.184c0-1.756 1.426-3.178 3.183-3.178zm0 1.154c-1.118 0-2.025.906-2.025 2.024 0 1.12.907 2.025 2.025 2.025 1.118 0 2.024-.907 2.024-2.026 0-1.118-.906-2.024-2.024-2.024zm-7.957.17c.283 2.945.762 5.668 2.07 9.292-1.227-1.96-2.975-2.934-4.652-4.044 1.175-1.75 2.535-3.498 2.582-5.247zm7.957.72c.626 0 1.134.508 1.134 1.134 0 .627-.508 1.135-1.134 1.135-.626 0-1.135-.51-1.135-1.136 0-.626.51-1.134 1.135-1.134zm18.015.347c3.32-.07 5.667 2.662 5.52 5.282.098 3.04.208 4.988-.043 8.767l-2.694-4.935c-.038-1.398.2-2.457.094-3.848-.306-3.742-3.973-3.223-4.147-2.85l-1.16-1.884c.852-.35 1.665-.516 2.43-.533zm11.693.377c3.11-.004 4.913 1.748 5.008 4.865.182 5.968-.137 19.594-.137 19.594l-6.728.005-3.672-9.106s-.146-.876-.118-1.51c.234-2.92.088-6.172.186-8.81.388-2.794 2.685-5.037 5.463-5.04zm-15.57.944c.433-.006.834.126 1.14.435 1.56 1.578 1.552 2.613-.03 3.325-2.092.942-3.18.763-3.892-.636-.7-1.37 1.237-3.105 2.782-3.124zm98.097.43l1.707 1.1s-.36.56-.553.895c-.968 1.667.68 2.645 2.96 1.76.41-.16.763-.386.763-.386l1.408.96s-1.014.547-2.12 1.09c-2.848 1.392-4.894.8-5.58-1.61-.274-.957 0-2.155.532-2.856.273-.357.885-.952.885-.952zm-72.18.2c2.606-.088 5.14 1.946 5.742 4.68.25 1.28-.074 18.21-.074 18.21l-10.333-.004.18-17.76c-.067-1.124 0-2.235.602-3.033 1.136-1.413 2.52-2.045 3.883-2.092zm-10.728.778c-2.088.096-3.273 3.477-1.126 5.07.897.667.916.792.436 3.043-.548 2.566.02 6.084 1.3 8.063.983 1.64.782.8.28-.66-.648-2.74-.33-4.754 1.25-7.937 1.414-2.682 2.784-6.806-1.71-7.55-.147-.025-.292-.037-.43-.03zm85.753.773l.934.63s-.14.116-.342.312c-.374.362-1.117.42-1.345.142-.378-.46.753-1.085.753-1.085zm-74.438 1.31c-2.243-.076-3.72 4.084-.85 5.09.65.42.76.972.356 1.75-.542 1.046-1.086 3.53-1 4.568.12 1.49.5 3.433.8 4.108.754 1.86.603 1.116.406-1.032-.075-2.4.41-4.132 1.805-6.426 1.66-2.75 3.943-7.224-1.295-8.04-.074-.01-.148-.016-.22-.02zm-38.593.014c1.757 0 3.183 1.42 3.183 3.178 0 1.757-1.426 3.184-3.183 3.184s-3.184-1.427-3.184-3.184c0-1.757 1.427-3.178 3.184-3.178zm14.753.323c.55-.006.963.36 1.463 1.105 1.374 2.05 1.216 2.47-1.433 3.926-2.807 1.545-4.685-2.34-2-4.137.812-.542 1.387-.843 1.858-.89l.112-.003zm-29.135.15c2.96.032 7.586 4.26 5.33 4.872-.322.086-.728.146-.9.136-3.72-.227-7.98-5.044-4.43-5.008zm14.382.68c-1.118 0-2.025.907-2.025 2.025 0 1.118.907 2.025 2.025 2.025 1.118 0 2.024-.907 2.024-2.025 0-1.118-.906-2.024-2.024-2.024zm117.266.597l1.477 1.003s-.903.415-1.966.983c-2.89 1.542-3.727 2.674-2.73 3.682.357.36.778.517 1.536.23 2.002-.777 3.87-2.146 5.736-3.228l1.11.763c-.025-.05-4.415 3.12-6.812 4.455-3.763 1.932-5.913-2.018-3.82-4.655 1.616-1.606 3.346-2.133 5.468-3.233zm-117.266.294c.626 0 1.134.508 1.134 1.134 0 .627-.508 1.135-1.134 1.135-.627 0-1.135-.508-1.135-1.135 0-.626.508-1.134 1.135-1.134zm119.574 1.06l.807.544s-.087.04-2.553 1.457c-2.682 1.54-2.8 1.567-2.948 1.324-.132-.073.05-.702.875-1.256 1.444-.97 3.997-2.15 3.82-2.07zm-69.797.08c1.826-.036 3.688.832 4.752 2.69.542 1.41.588 2.72.582 4.2l-.044 9.94h-10.406s-.483-6.775 0-12.415c.472-2.833 2.765-4.37 5.115-4.416zm-32.32 1.47c.66-.047 1.147.6 1.775 2.006.622 1.392.154 2.178-1.8 3.022-.247.107-.528.186-.626.176-1.976-.188-2.784-2.466-1.365-3.848.88-.857 1.5-1.317 2.015-1.355zm105.764 1.018l.905.563s-.464.418-3.825 2.87c-2.714 1.98-3.105 2.517-2.538 3.628.457.896 1.45.78 2.822-.274 1.9-1.462 4.894-3.937 4.894-3.937l.097 1.692c-1.97 1.582-4.346 4.282-6.238 5.31-3.652 1.8-6.272-3.14-2.935-5.575 2.877-2.098 6.817-4.28 6.817-4.28zm-73.05.005c-2.72-.02-3.73 4.016-.806 4.872.842.45.772.683.21 2.694-.34 1.218-.45 2.72-.264 3.673.22 1.215.49 1.187.377-.12.005-.712.74-2.618 1.473-3.813 2.712-3.78 2-7.27-.988-7.306zm-63.376.05c1.795.012 2.8 2.512 1.242 3.59-1.102.763-3.41-.17-3.403-1.375.005-1.028.815-2.006 1.795-2.18.126-.023.247-.036.366-.035zm5.164.21c.565 0 .89.827.885 2.465-.006 2.35-.84 4.398-2.278 5.594-2.083 1.732-2.548-2.99-.603-6.113.81-1.3 1.497-1.946 1.995-1.947zm133.17.62c.512-.007.432.386-.162.8-.46.32-1.244.96-3.668 3.006-.44.37-1.07.856-1.398 1.076-.807.54-1.49.4-1.1-.225.385-.615 5.866-4.648 6.327-4.656zm-121.952.11c1.757 0 3.184 1.42 3.184 3.178 0 1.757-1.427 3.183-3.184 3.183-1.757 0-3.183-1.425-3.183-3.182s1.426-3.18 3.183-3.18zm0 1.153c-1.118 0-2.024.907-2.024 2.025 0 1.118.906 2.024 2.024 2.024 1.118 0 2.025-.906 2.025-2.024 0-1.118-.907-2.025-2.025-2.025zm-38.07.06c21.53 10.884 34.953 31.25 38.266 54.45l10.46-16.59 2.827 1.065L327.8 569.37l-.66-.206c-.064-24.27-12.16-47.228-35.698-59.826zm38.07.83c.627 0 1.135.51 1.135 1.135 0 .626-.508 1.134-1.135 1.134-.626 0-1.134-.508-1.134-1.134 0-.626.508-1.135 1.134-1.135zm-8.885.132c.94 2.082 2.087 4.267 3.858 6.763-1.795-1.686-3.758-1.613-5.702-1.868zm25.6.45c.334-.016.668.125.93.484.88 1.21 1.042 2.332.43 2.938-.84.83-2.175.502-2.778-.68-.628-1.23.415-2.694 1.418-2.743zm105.59 1.682l.033 1.883s-.402.483-.827.88c-1.2 1.123-2.84 2.913-2.957 3.37-.38 1.484 1.087 2.03 2.533.938.5-.376 1.218-.948 1.218-.948v2.318c-1.22 1.037-2.438 2.057-4.103 1.72-.97-.295-1.822-1.058-2-2.033-.695-2.92 2.134-4.55 4.328-6.504.708-.63 1.776-1.623 1.776-1.623zm-117.82 1.643c.054-.002.106 0 .16 0 1.758 0 3.185 1.422 3.185 3.18 0 1.756-1.427 3.183-3.184 3.183-1.757 0-3.183-1.427-3.183-3.184 0-1.703 1.34-3.095 3.022-3.18zm63.924.714c1.734-.007 2.652 2.33 1.256 3.653-.55.52-1.788.89-2.49.4-1.934-1.346-.51-3.964 1.233-4.053zm-3.463 1.854c1.004 1.065 1.764 4.158 1.173 4.743-1.308 1.352-5.11-3.14-4.883-6.077.404-1.76 3.338.94 3.71 1.335zm-46.525-1.687c.727.005.863.657.7 1.042-.158.367-.727.396-1.18.21-.77-.315-.41-1.256.48-1.25zm-13.776.274c-1.118 0-2.024.907-2.024 2.025 0 1.117.906 2.024 2.024 2.024 1.118 0 2.025-.907 2.025-2.025 0-1.12-.906-2.026-2.024-2.026zm-15.155.89c3.84.005 7.89 3.03 4.368 3.63-2.615.444-4.31-.073-6.347-1.933-1.034-.944-.666-1.446 1.22-1.656.25-.03.506-.04.76-.04zm15.156 0c.626 0 1.135.51 1.135 1.135s-.508 1.134-1.134 1.134c-.626 0-1.134-.51-1.134-1.135 0-.627.508-1.136 1.134-1.136zm5.316 2.88c.054-.002.11 0 .166 0 1.757 0 3.183 1.423 3.183 3.18 0 1.756-1.425 3.183-3.182 3.183s-3.184-1.427-3.184-3.184c0-1.7 1.337-3.093 3.018-3.178zm62.56.162c.908-.015 1.705.156 2.166.577.563.516-.283 1.506-2.01 2.348-2.017.984-5.536.847-5.53-.215.007-1.412 3.052-2.67 5.374-2.71zm-76.64.836c1.766.01 2.243 5.482.71 8.103-.795 1.36-1.866.452-2.63-2.234-.628-2.202.575-5.875 1.92-5.868zm14.246.157c-1.118 0-2.025.905-2.025 2.023 0 1.12.907 2.025 2.025 2.025 1.118 0 2.024-.906 2.024-2.025 0-1.118-.906-2.024-2.024-2.024zm65.963.356c.15.002.342.077.593.2 1.927.946 3.327 5.362 2.323 7.33-1.057 2.074-3.434-1.917-3.413-5.73.006-1.248.088-1.75.435-1.795.02-.002.042-.005.063-.004zm-85.21.283c.04-.002.082-.002.122 0 1.742.042 3.01 2.45 1.37 3.687-.718.54-1.822.626-2.5.195-1.334-.85-1.262-2.916.128-3.638.297-.154.595-.233.88-.245zm19.248.25c.626 0 1.134.507 1.134 1.133 0 .627-.508 1.135-1.134 1.135-.626 0-1.135-.508-1.135-1.135 0-.626.51-1.134 1.135-1.134zm-11.893.38c.954 1.42 4.815 5.164 5.35 5.487-1.706-.552-3.462-.318-5.218-.083.198-1.296.407-3.423-.132-5.404zm62.06.323c26.18 6.127 42.16 33.905 35.84 59.963 0 0-2.203-1.23-2.55-1.82.924-4.508 1.495-11.65.336-18.83-1.965-12.182-11.84-30.057-33.472-36.188-.24-.788-.152-3.125-.152-3.125zm14.107.19c.296 1.783.58 3.578 1.02 5.182-1.844-1.325-3.933-2.464-6.07-3.383 1.526-.32 2.92-.592 5.05-1.798zm7.548.573c1.042-.027 2.1.716 2.078 2-.01.565-.613 1.58-1.08 1.82-1.74.887-3.526-.804-2.76-2.612.345-.81 1.05-1.19 1.762-1.208zm-65.768.69c1.757 0 3.183 1.42 3.183 3.178 0 1.757-1.426 3.184-3.183 3.184s-3.184-1.427-3.184-3.184c0-1.757 1.427-3.18 3.184-3.18zm0 1.154c-1.118 0-2.025.906-2.025 2.024 0 1.118.907 2.025 2.025 2.025 1.118 0 2.024-.908 2.024-2.026 0-1.118-.906-2.024-2.024-2.024zm-54.168.303c13.006 7.677 24.675 24.003 25.54 42.466l-3.148-2.06c-1.357-12.435-7.723-25.966-22.495-37.057 0 0 .04-1.195.104-3.35zm72.027 0h16.813v3.623l5.042-2.596v8.015l-5.042-3.052v3.497H363.6v-3.678l-5.148 2.49.058-7.977 5.09 2.86zm-17.858.587c.626 0 1.134.508 1.134 1.134 0 .626-.508 1.135-1.134 1.135-.626 0-1.135-.51-1.135-1.136 0-.626.51-1.134 1.135-1.134zm6.61.635h.065l.2 1.154c-.032-.002-.064-.006-.097-.006-1.118 0-2.025.907-2.025 2.025 0 1.117.907 2.024 2.025 2.024.27 0 .527-.05.763-.147l.195 1.16c-.303.095-.623.146-.958.146-1.757 0-3.184-1.427-3.184-3.184 0-1.703 1.336-3.09 3.017-3.175zm37.98.4h.165c1.757 0 3.183 1.423 3.183 3.18 0 1.51-1.054 2.768-2.464 3.095l-.19-1.144c.86-.233 1.495-1.016 1.495-1.95 0-1.12-.905-2.026-2.023-2.026-.046 0-.092.002-.137.005l-.196-1.144.167-.014zm22.322 1.077c3.926.02 5.555 2.275 2.338 3.233-1.49.443-3.442.208-5.37-.646-1.607-.713.606-2.6 3.032-2.588zm-82.062.215c.95-.003 1.87.143 2.548.465 1.64.778 1.603 1.306-.152 2.318-2.447 1.41-8.21-.018-6.47-1.604.82-.746 2.49-1.173 4.074-1.18zm21.928.347c.087 0 .173.01.254.03l.352 2.063c-.175.112-.383.177-.606.177-.627 0-1.135-.51-1.135-1.135 0-.627.508-1.136 1.135-1.136zm37.987.406c.62.006 1.124.512 1.124 1.135 0 .494-.316.91-.757 1.066zm6.924.812c1.758 0 3.185 1.422 3.185 3.18 0 1.756-1.427 3.182-3.184 3.182-1.756 0-3.182-1.426-3.182-3.183 0-1.756 1.426-3.178 3.183-3.178zm-61.972.802c.19-.01.402.077.63.264 1.908 1.56 2.86 4.86 2.108 7.316-.716 2.342-3.69-1.817-3.672-5.135.008-1.53.368-2.415.934-2.446zm82.424.28c.263 0 .54.2.816.66 1.185 1.972 1.13 6.046-.097 7.315-.697.72-.956.583-1.682-.886-1.24-2.51-.304-7.1.964-7.09zm-20.45.072c-1.12 0-2.025.907-2.025 2.025 0 1.12.906 2.025 2.024 2.025 1.12 0 2.026-.906 2.026-2.024 0-1.117-.907-2.024-2.025-2.024zm-59.446.543c2.404 1.516 4.864 2.9 7.423 4.053-2.396-.567-4.166.238-5.99 1.32.35-2.002-.333-3.63-1.434-5.374zm72.228.428c1.792.253 3.565.546 5.643.155-.384 1.762-.518 3.556-.35 5.39-1.545-2-3.27-3.876-5.293-5.545zm-12.783-.082c.627 0 1.136.508 1.136 1.135s-.51 1.135-1.135 1.135-1.133-.508-1.133-1.134c0-.626.508-1.134 1.134-1.134zm-65.635.783c.354.005.73.105 1.12.297 1.473.723 1.516 2.51.083 3.443-1.8 1.173-4.15-.887-3.027-2.656.433-.68 1.01-1.044 1.674-1.08.05-.003.1-.006.15-.005zm72.023 1.33c1.756 0 3.183 1.42 3.183 3.177 0 1.757-1.426 3.184-3.182 3.184-1.757 0-3.184-1.426-3.184-3.183s1.427-3.178 3.184-3.178zm18.62.532c.308-.006.628.063.945.23 1.132.593 1.37 2.095.47 2.973-.997.972-2.357.804-3.027-.372-.765-1.342.284-2.806 1.613-2.83zm-30.704.47c15.67 5.333 26.163 22.764 23.634 39.546l-1.956-1.848c1.49-9.51-3.733-27.682-21.184-35.14zm12.084.15c-1.118 0-2.025.907-2.025 2.025 0 1.12.907 2.025 2.025 2.025 1.118 0 2.024-.906 2.024-2.025 0-1.118-.906-2.024-2.024-2.024zm0 .89c.626 0 1.134.51 1.134 1.135 0 .627-.508 1.135-1.134 1.135-.627 0-1.135-.508-1.135-1.135 0-.626.508-1.134 1.135-1.134zm-59.577.2c.8.072 2.15-.072 2.465.68.356.954-1.598 2.602-4.078 2.925-1.01.06-3.173.317-3.63-.41-.426-.908 2.493-3.166 5.244-3.194zm-49.742.56c2.118-.095 4.505 2.74 2.362 5.05-1.716 1.776-5.228 4.196-5.228 4.196v-1.555s3.44-2.517 3.497-3.648c.006-1.315-1.077-2.057-2.285-1.267-.24.156-1.183.925-1.183.925l.078-2.607c.64-.7 1.77-1.052 2.758-1.095zm54.11.664c1.57.06 5.21 5.673 4.283 6.822-.733.91-3.69-1.108-4.8-3.277-.597-1.163-.418-3.238.302-3.51.067-.025.14-.037.216-.034zm24.216.68s.162 13.06-.572 14.294c-2.944 5.327-9.297 2.555-9.84-1.438-.39-2.408-.156-12.832-.156-12.832zm.93 0h10.15s-.045 18.384-.454 19.438c-.333.858-1.808 2.34-2.734 2.743-2.98 1.303-6.17-.545-6.958-4.034-.57-2.516-.005-18.147-.005-18.147zm11.002 0h6.738s.232.974.5 1.775c.466 1.398 2.056 5.404 2.24 5.65.822 1.098.862 13.115.048 14.484-2.972 4.456-7.92 3.16-9.727-1.776-.453-1.58.2-20.132.2-20.132zm7.858.454c12.086 5.74 21.335 17.913 20.177 33.532l-2.22-2.215c.81-10.78-7.395-24.255-16.973-28.26zm16.642.367c1.756 0 3.183 1.422 3.183 3.18 0 1.756-1.428 3.182-3.184 3.182-1.757 0-3.184-1.427-3.184-3.184 0-1.757 1.427-3.18 3.184-3.18zm11.922.323c1.182.017 2.627.425 3.707 1.315 1.29 1.065 1.47 1.907.47 2.216-1.936.597-4.26.02-5.718-1.418-1.355-1.335-.187-2.137 1.54-2.112zm-11.922.83c-1.12 0-2.025.908-2.025 2.026 0 1.118.907 2.024 2.026 2.024 1.117 0 2.024-.906 2.024-2.024 0-1.118-.907-2.025-2.024-2.025zm-63.68.256c1.695.01 2.473 2.396 1.173 3.604-.534.495-1.99.6-2.622.19-1.74-1.13-.72-3.806 1.448-3.794zm22.41.606c-.56 1.614-1.462 3.435-2.21 4.68-2 3.337-1.74 5.574.373 6.704 3.1 1.66 5.355-2.795 2.297-4.543-1.073-.612-1.072-.62-.685-2.274.484-2.064.57-4.525.225-4.568zm41.27.03c.626 0 1.134.507 1.134 1.134 0 .626-.508 1.134-1.134 1.134-.627 0-1.135-.508-1.135-1.134 0-.627.51-1.135 1.136-1.135zm-30.388.655c-.142-.01-.033.82-.044 2.293-.017 2.378-.216 3.1-1.736 6.29-1.94 4.07-1.682 6.852.724 7.755 1.868.7 3.685-.73 3.697-2.91.004-1.038-.46-1.853-1.17-2.064-.644-.04-1.356-.34-1.306-.65.394-2.43 2.5-7.01-.166-10.713zm40.148.327c1.57.99 3.187 1.926 5.526 2.044-.996 2.39-.895 4.135-1.06 6.04-1-2.566-2.546-5.404-4.466-8.084zm-119.868.372c.127-.002.253.007.377.024 1.502.234 2.77 2.157 2.367 3.59-.353 1.25-.463 1.46-5.296 4.69-2.683 1.79-2.964 1.867-2.964 1.867l-1.437-.968s1.217-.813 3.144-2.11c3.708-2.492 4.253-3.085 3.872-4.2-.415-1.21-1.802-.955-3.995.734-3.247 2.5-3.585 2.666-3.585 2.666v-1.492s1.423-1.132 2.04-1.663c1.505-1.07 3.584-3.12 5.476-3.14zm96.048.65c.365-.004.645.336.52.66-.062.156-.276.256-.56.255-.58-.002-.612-.83-.033-.91.025-.002.05-.004.073-.004zm32.593 1.735c.685 2.355-.79 6.278-1.694 6.78-.963.952-1.565.043-1.774-2.42.005-2 2.294-8.246 3.467-4.36zm-38.648-1.318c.295 3.39.402 6.206-1.188 8.96-2.06 3.57-1.527 6.63.68 7.305 2.197.672 4.14-.9 3.75-3.037-.118-.654-1.017-1.723-1.564-1.863-.676-.174-.757-.593-.372-1.937.745-2.604.495-5.9-.63-8.284-.104-.356-.517-1.157-.676-1.144zm7.394 1.13c1.854.01 2.728 2.42 1.34 3.692-.773.708-1.265.387-2.073-1.35-.75-1.61-.52-2.35.733-2.342zm17.262.493c1.757 0 3.184 1.422 3.184 3.18 0 1.756-1.427 3.183-3.184 3.183-1.756 0-3.183-1.427-3.183-3.184 0-1.757 1.427-3.18 3.183-3.18zm0 1.155c-1.118 0-2.024.906-2.024 2.024 0 1.118.906 2.025 2.024 2.025 1.12 0 2.025-.908 2.025-2.026 0-1.118-.906-2.024-2.025-2.024zm0 .89c.627 0 1.135.508 1.135 1.134 0 .626-.508 1.135-1.135 1.135-.626 0-1.134-.51-1.134-1.136 0-.626.508-1.134 1.134-1.134zm-13.658.836c.26-.01.513.033.748.146 1.677.81 1.494 3.133-.357 4.52-1.17.876-1.665.572-2.757-1.693-.592-1.23.963-2.916 2.367-2.974zm-97.197.264c.17.004.33.03.484.073 1.73.476 2.824 2.493 2.392 4.025-.955 2.362-4.182 3.158-6.632 4.147l-1.272-.93s1.796-1.02 3.54-1.824c1.634-.75 1.898-1.05 1.776-2-.24-1.852-1.134-1.785-5.194.402-1.65.89-2.865 1.678-2.865 1.678l-.9-.74c1.343-.884 2.15-1.373 3.62-2.375 2.45-1.68 3.85-2.4 4.874-2.45.06-.003.12-.007.176-.005zm129.127 1.372c.59 1.797-.614 3.372-2.43 2.666-.986-.383-1.685-1.643-1.073-2.81.816-1.28 3.106-1.06 3.503.144zm-36.44-.624l2.862 5.14s.038 1.43.064 2.225c.11 3.337.823 4.44 2.777 4.117.14-.023.837-.225.837-.225l1.242 2.093s-1.343.587-1.692.66c-2.3.483-5.486-1.245-5.98-3.555-.48-2.235-.11-10.455-.11-10.455zm-93.714 2.113c.864.064.497.723.098.94-1.68.855-3.268 1.786-5.022 2.797l-1.174-.73s.906-.505 1.53-.89c1.923-1.18 3.88-2.09 4.568-2.116zm114.968.66c1.757 0 3.184 1.422 3.184 3.18 0 1.756-1.427 3.183-3.184 3.183-1.757 0-3.183-1.427-3.183-3.184 0-1.758 1.427-3.18 3.184-3.18zm-13.467.436c.732-.02 1.343.294 1.74.954.85 1.41-.05 3.134-2.112 4.054-1.152.513-1.344.407-2.572-1.414-.83-1.23-.825-1.45.093-2.235 1.03-.878 2.02-1.335 2.85-1.36zm-111.726.28l45.592 29.52-1.3 2.21-44.203-28.934zm135.468.38c2.77.053 6.387 3.26 5.106 4.528-.136.135-.4.236-.587.225-3.955-.234-8.32-4.827-4.52-4.754zm-10.274.06c-1.118 0-2.024.905-2.024 2.023 0 1.117.906 2.024 2.024 2.024 1.118 0 2.025-.907 2.025-2.025 0-1.12-.908-2.025-2.026-2.025zm-60.887.56l1.208 3.14-22.69 36.124-2.23-1.432zm60.887.33c.626 0 1.135.507 1.135 1.133s-.51 1.134-1.136 1.134c-.626 0-1.134-.508-1.134-1.135s.508-1.135 1.134-1.135zm8.333.375c1.11 2.067 2.962 3.333 5.066 4.222-1.987 1.64-2.987 3.766-2.91 5.99-.503-3.338-.94-6.66-2.156-10.21zm-119.95 1.092c.485.004.924.105 1.27.342 4.253 2.914.348 5.796-.014 5.57l-1.448-.914c.498-.826 1.628-1.945-.19-2.988-1.032-.45-2.182.09-3.184.787l-1.52-1.043s2.98-1.77 5.086-1.755zm100.277 1.648c.16-.005.317.005.47.034 2.4.464 2.233 3.01-.275 4.19-1.427.673-1.68.536-2.925-1.603-.585-1.003 1.18-2.57 2.73-2.62zm-101.046.934c.256.007.583.23.62.44.125.67-1.114 1.34-1.114 1.34l-1.423-.944c.61-.335 1.245-.79 1.918-.836zm127.873.61c.35-.026.603.138.706.554.486 1.978-1.712 5.65-3.74 6.245-1.186.347-1.53-.21-1.14-1.85.544-2.302 2.934-4.85 4.175-4.948zm-73.537.153l3.692 2.68-22.152 35.013-3.834-2.28zm60.28.283c1.758 0 3.185 1.422 3.185 3.18 0 1.756-1.427 3.183-3.184 3.183-1.757 0-3.183-1.427-3.183-3.184 0-1.758 1.427-3.18 3.184-3.18zm0 1.154c-1.117 0-2.023.907-2.023 2.025 0 1.117.906 2.024 2.024 2.024 1.118 0 2.025-.907 2.025-2.025 0-1.12-.908-2.026-2.026-2.026zm0 .89c.627 0 1.136.51 1.136 1.135s-.51 1.134-1.136 1.134c-.626 0-1.134-.51-1.134-1.135 0-.627.508-1.136 1.134-1.136zm-50.9.118c2.402 2.71 5.104 8.77 14.533 5.912 3.212 2.617 7.648 4.107 13.115 1.203l.04 16.333-41.864.044zm-76.463.416l41.23 27.135-1.292 2.28-39.978-25.552zm115.745.024c.04 0 .073.002.103.01 2.107.515 2.345 2.622.386 3.428-1.048.43-1.263.324-2.264-1.15-.4-.587-.625-1.075-.567-1.222.14-.36 1.752-1.074 2.342-1.066zm26.456 2.23c.738.005 1.47.395 1.815 1.164.516 1.153.218 2.122-.846 2.763-1.763 1.06-3.732-.89-2.818-2.79.368-.763 1.112-1.143 1.85-1.138zm-25.814 2.215c.972.005 1.788.933 1.315 1.497-.313.373-.716.266-1.23-.328-.607-.697-.642-1.172-.084-1.17zm11.82.406c1.756 0 3.183 1.422 3.183 3.18 0 1.756-1.428 3.182-3.185 3.182-1.757 0-3.183-1.426-3.183-3.183s1.426-3.18 3.183-3.18zm8.968.176c2.4.012 5.724 4.02 5.16 6.22-.185.717-1.53.33-3.13-.9-2.162-1.662-3.56-5.33-2.03-5.32zm-8.97.977c-1.117 0-2.023.907-2.023 2.025 0 1.118.907 2.024 2.025 2.024 1.118 0 2.025-.906 2.025-2.024 0-1.118-.907-2.025-2.025-2.025zm7.713.41c.663 1.94 1.34 3.962 4.333 5.365-4.643 2.163-5.528 5.805-4.832 10.475l-1.085-.665c.994-4.184 1.748-8.95 1.584-15.174zm-7.712.48c.627 0 1.135.508 1.135 1.135 0 .626-.508 1.134-1.135 1.134-.626 0-1.134-.508-1.134-1.134 0-.627.51-1.135 1.135-1.135zm-.592 5.11c1.757 0 3.184 1.422 3.184 3.18 0 1.11-.57 2.09-1.433 2.66l-1.027-.77c.76-.29 1.3-1.03 1.3-1.89 0-1.12-.905-2.026-2.024-2.026-1.064 0-1.933.825-2.014 1.87l-1.033-.773c.4-1.302 1.614-2.25 3.046-2.25zm14.485.406c1.515.01-.84 4.21-3.002 5.355-1.647.872-3.154.94-3.15.142.012-2.09 3.84-5.51 6.152-5.497zm-14.485 1.638c.627 0 1.135.51 1.135 1.136 0 .626-.508 1.134-1.135 1.134-.622-.067-1.127-.557-1.134-1.134 0-.626.507-1.135 1.133-1.135zm13.996 3.83c.745.01 1.484.334 1.8.964.405.814.25 1.54-.495 2.28-1.83 1.81-4.322-.05-3.125-2.334.325-.62 1.073-.92 1.82-.91zm-5.854 1.707c2.55.08 4.48 3.252 4.02 5.047-.405.475-3.214-1.655-3.517-1.873-.36-.635-.38-1.663-.504-3.173zm-3.477 1.966l7.99 4.802-7.972 5.12zm-71.153 2.377l42.92.156.006 1.805-44.1.025 1.174-1.985zm-1.75 2.82h2.884v3.517h-3.96v-1.94zm41.243.084h3.472v3.516h-3.472zm-34.07.025h3.95v3.515h-3.95zm8.22.028h4.27v3.516h-4.27zm8.734 0h4.108v3.516h-4.108zm8.773.06h3.912v3.515h-3.913zM348.29 588.3l47.606.112v2.108l-48.966-.113zm40.618 4.44c4.846-.054 7.67 5.356 3.882 9.154-3.482 3.492-9.29-.967-6.39-4.895 1.618-2.194 5.6-.427 4.605 1.91-.654 1.54-2.8.822-2.733-.845.003-.67-.49-.212-.548.5-.072.9.854 1.9 1.932 1.9 2.813.008 3.234-3.72.523-5.09-2.423-1.222-4.973.338-5.56 3.434-.065.336-.464 1.18-.77 1.78-.894 1.796-1.184 2.835-1.632 4.89-.206.255-.835.665-1.272.884-1.38.69-1.324.4-.807-1.85 1.49-6.473 3.924-10.643 6.9-11.49.647-.185 1.272-.278 1.868-.284zm14.333.337c2.993-.064 5.247 2.402 5.64 4.305 1.72 5.795-5.973 9.344-8.654 4.094-1.5-3 1.604-6.58 4.447-5.186 2.328 1.142 2.178 4.693-.2 4.68-1.29.06-2.077-1.1-1.364-2.03.368-.366.81-.08.996-.694.078-.257-.288-.462-1.17-.284-1.458.297-1.31 3.24.383 3.825 2.52.872 4.676-1.787 3.476-4.416-1.443-3.16-5.35-3.174-7.135.133-.258.48-.665 1.167-.89 1.472-2.664 3.616-2.873 4.157-3.667 6.17-.078.202-.218.35-.46.324-.733 0-1.453.158-1.946.35-.332-.087.11-1.355.142-1.45 1.815-5.606 6.477-11.156 10.4-11.293zm-23.19 1.575c-.63 1.1-2.53 4.677-3.847 9.96-.347-.215-1.28-.604-1.956-.84-.256-.09-.048-.385-.064-.83.48-2.385 2.02-6.55 3.717-8.672.36-.264 2.676-.348 2.15.382zm2.715 1.056c-1.625 2.076-3.323 7.59-3.677 10.436-.053.43-.13.906-.176 1.056-.253.85-1.846-.977-1.84-2.108.014-1.92 2.143-7.774 3.664-10.01.53-.78.593-.908 1.726-.95 1.82-.044 1.02.66.303 1.576zm-79.49-1.37c-.4.01-.8.063-1.192.157-2.355.584-5.16 3.08-5.433 5.727-.13.08-.45 1.93-.245 2.87.778 3.553 2.85 5.963 5.39 9.487 0 0-3.188 4.94-5.375 7.222l5.173 7.487c-1.43 2.824-3.918 4.962-4.542 8.45-.975 4.59 1.43 9.064 6.544 9.476 3.816.115 6.318-2.464 6.792-6.372.193-2.597-.876-5.855-4.72-11.003-.19-.253-.56-.78-.56-.78s.43-.508.66-.847c1.35-1.83 4.874-6.3 4.874-6.3l-5.266-7.446s.228-.5.635-1.057c4.298-5.862 5.1-8.843 4.337-11.756-.3-1.147-1.014-2.03-1.98-3.012-1.563-1.587-3.352-2.345-5.09-2.303zm-.122.72c1.68-.025 3.413.648 4.817 2.117 3.23 3.38 2.944 6.24-1.252 12.49-.92 1.37-1.824 2.88-1.824 2.88l5.296 7.316s-.858 1.285-1.75 2.333c-2.422 2.845-3.775 4.89-3.775 4.89.917 1.41 2.408 2.914 3.344 4.607 1.13 1.918 1.804 3.83 2.004 5.58.422 3.68-1.97 7.602-6.063 7.697-3.972.027-6.996-3.283-6.91-7.438.04-1.854.805-3.566 1.737-5.234.952-1.697 3.183-4.997 3.183-4.997l-5.125-7.474 5.428-7.247s-3.947-4.834-5.16-8.32c-.983-3.956.86-6.212 1.106-6.557 1.202-1.693 3.04-2.618 4.943-2.645zm114.264.41c3.05 3.474 4.697 8.444 5.404 12.715.287 1.754.338 4.746.09 5.07-.48.626-1.566.29-1.498-.464.55-6.023-5.933-10.337-11.545-7.727-4.33 2.013-6.642 6.693-5.56 12.514 2.04 10.977 11.247 19.02 17.477 30.03 2.206 3.73 2.73 5.83 2.714 5.756 0 0 .817-2.178 2.67-5.276 4.44-8.154 10.47-13.414 14.954-21.57 2.105-3.83 3.444-7.617 3.668-11.038.042-7.962-7.73-13.963-13.8-9.78-2.403 1.475-4.434 4.328-4.753 6.68-.137 1.003-.313 1.302-.763 1.3-1.036-.006-1.05-.398-.215-5.12 1.265-4.69 2.78-9.14 5.53-13.09zm-117.622 10.088c.788 2.053 2.07 3.58 3.52 5.04 1.346-1.573 2.848-3.642 3.67-5.615 3.968-9.502-11.353-10.277-7.19.576zm3.463 4.105c-1.944-2.26-3.317-4.14-3.45-7.123-.213-5.91 7.51-5.245 7.126.037-.43 2.876-1.94 4.695-3.676 7.087zm95.718-9.287c.15.832.96 2.24.89 2.573-.375.872-.924 1.306-1.687 2.743-.16.305-.086.368-.514.292-.402-.056-1.11-.278-1.487-.386-.216-.063-.465-.18-.363-.455.733-1.683 1.554-3.69 3.16-4.767zm-12.802 2.543l-.91 2.356c-.085.254-.094.296-.36.24-.518-.066-.972-.106-1.488-.068-1.127-.138.995-4.35 1.314-4.987.46.078 1.143 1.877 1.444 2.46zm.856.543c.02-.003.04-.003.058 0 .463.06 1.15.31 1.663.532.283.116.292.124.167.474-.26.52-.58 2.015-.924 2.538-.01.076-1.606-.948-2.06-1.146-.017-.284.505-2.32 1.097-2.4zm13.53.278c.528.018 1.18.498 1.536.772.168.332.015.665-.572 1.678-.52.896-1.06 1.864-1.193 1.76-.393-.31-1.124-.71-1.486-1.208-.27-.37.243-1.32.592-1.838.55-.82.815-1.115 1.125-1.164zm-8.606-.12c.488.11-.285 2.623-.43 2.937-.462.69-1.18 1.6-1.75 1.965-.293.187-1.19-.35-1.17-.978.015-.446.87-2.698 1.153-3.296.042-.087 1.65-.618 2.197-.628zm-19.908.96c.11-.003.22 0 .328.006 1.917-.056 3.888.89 5.13 3.002.587 1 .594 1.043.46 1.976-.318 2.194-.208 3.668.37 5.012.66 1.53.56 2.057-1.05 5.463-1.618 3.43-3.58 7.605-5.072 11.477-.66 1.66-1.268 3.538-1.648 5.076-.25.967-1.43.676-2.606.63-.598.132.863-3.893 3.027-8.704 1.733-3.85 4.09-8.188 5.03-12.497.765-3.514.52-4.958.1-6.434-1.622-4.292-7.266-3.24-7.252.714.12 2.562 3.084 3.935 4.17 1.423.182-1.154-.388-.482-.865.08-1.022 1.2-2.774-.136-2.498-1.91.362-2.327 3.368-3.092 4.82-1.25 1.593 2.017 1.244 4.097-1.055 5.658-2.368 1.74-4.525.75-5.707-1.056-2.525-4.057.928-8.56 4.318-8.665zm11.712 1.703c2.35.05 4.903 2.02 5.316 3.58.22 1.057-.12 2.303.26 3.326.314.82.616 1.29.39 2.02-1.934 6.225-6.502 12.865-8.758 20.235-.26.514-.5.578-1.08.744-.903.257-1.255.23-1.35-.24-.09-.448.21-1.3.738-2.895.63-1.912 2.027-5.186 2.846-6.725 1.908-3.584 2.97-6.037 4.357-9.1.26-.572.332-.912.74-1.736 1.745-3.542-.228-7.033-3.845-7.053-2.866-.015-4.147 4.473-1.638 5.785 2.454 1.283 4.284-2.088 2.102-3.28-.526-.29-.66-.014-.24.493.972 1.167.1 2.737-1.25 2.112-2.094-.967-1.016-4.533 1.427-4.327 3.77.317 4.262 5.803.415 7.193-5.287 1.91-8.06-6.602-3.085-9.467.825-.476 1.744-.68 2.655-.665zm11.14.172c1.39-.035 2.853.46 4.054 1.614 2.957 2.84 2.17 7.222-2.827 15.697-1.636 2.84-3.232 6.252-4.102 8.744-.217.62-.4.936-.89 1.208-.867.478-1.85.537-1.976.2-.325-.86 2.15-6.215 6.558-14.626 1.158-2.243 2.622-4.845 2.547-7.513-.29-2.118-2.052-3.64-4.41-2.95-1.588.468-2.237 2.707-1.067 3.835.49.472 1.09.72 1.477.68.732.024 1.563-.7.147-.777-1.498-.01-2.01-1.89-.744-2.74 1.817-1.22 3.902.22 3.755 2.593-.302 4.773-7.272 4.06-7.456-.856-.114-3.042 2.277-5.044 4.934-5.11zm69.093 2.063c1.73 1.224 2.972 3.456 3.263 5.59.092.66.177 1.33-.108 1.482-.35.184-.595-.087-1.315-1.037-1.677-2.213-4.996-1.27-6.108 1.765-1.06 2.89.037 6.136 4.49 12.593 1.6 2.388 3.008 4.368 4.332 6.71.938-2.33 2.53-4.836 3.888-6.906 5.087-7.703 6.018-11.706 3.252-14.284-1.78-1.62-4.593-1.67-5.546.4-.648.853-1.034 1.264-1.306.75-.118-.226-.105-.906-.03-1.41.484-2.446 1.28-4.048 3.043-5.653zm-88.785 5.58c1.054-.08-.76 5.594-3.927 11.962-1.728 3.526-3.037 7.315-4.38 11.002-.366.493-2.548.583-2.544.073 3.873-12.41 6.61-14.546 7.932-19.272.23-.816.4-1.996.43-2.097.98-.28 1.804-1.454 2.49-1.668zm-71.69.836l-4.103 5.35 4.006 5.684 4.16-5.433zm88.845 1.654c-.003.64-1.233 3.726-2.152 5.58-4.02 8.11-5.017 10.298-5.71 12.46-.127.39-.33.65-.583.743-.5.187-1.894.455-2.01.264.85-4.74 7.355-15.524 8.616-20.25.508-.02 1.798.747 1.84 1.204zm3.218-.494c.272-.02.38.092.303.455-.125.588-.827 1.97-2.048 4.372-3.385 6.654-5.16 10.596-5.726 12.62-.133.476-.214.85-.44.97-.466.248-2.094.904-2.172.195.51-3.007 2.49-4.964 7.614-17.506.24-.413.45-.614.675-.65.63-.104 1.176-.404 1.795-.456zm-13.89 2.06c-.128.774-1.015 2.397-2.483 5.393-2.44 4.985-4.02 8.7-4.978 11.996-.155.534-.368 1.096-.577 1.24-.396.275-2.176.19-2.176.19-.27-1.362 1.877-6.444 4.27-11.79 1.3-2.906 2.808-5.803 3.82-8.41.694.103 2.03.768 2.125 1.38zm3.624-1.284c.724-.007.162 1.21-1.573 4.638-1.408 2.78-3.652 6.682-5.102 11.164-.378.987-.823 2.214-.988 2.73-.212.664-.41.992-.684 1.128-.523.26-1.788.247-2.01-.024-.353-.43 1.52-5.475 3.345-9.35 1.612-3.256 2.746-5.87 4.138-8.88.38-.6.397-.64.784-.717.805-.064 1.638-.603 2.09-.69zm-81.728.647l2.112 2.827-2.48 3.086-2.063-3.003zm-.318 12.192s-.897 1.033-1.82 2.67c-2.698 4.493-2.772 7.81.412 9.78 1.343.684 3.094.534 4.2-.43 3.606-3.146.926-7.467-1.403-10.397-.618-.86-1.39-1.623-1.39-1.623zm.132 1.15c1.352 1.594 2.34 2.79 3.242 4.796 1.036 2.694.372 4.81-1.633 5.806-3.17 1.572-6.052-1.96-4.548-5.727 1.113-2.793 2.938-4.876 2.938-4.876zm88.742 5.32c.297.566-30.163 7.61-52.633 1.564l-13.673 19.785 78.937-.137zm-1.154 1.403s7.337 12.7 10.94 18.92h-5.062l-7.213-15.443c-3.858 1.075-7.662 1.853-11.52 2.342l2.567 13.1h-3.79l-2.142-12.518c-5.53.426-11.16.588-16.91.424l-2.48 12.094h-3.965l2.543-12.01c-4.365-.59-8.71-1.144-13.145-1.873l-7.438 13.883h-5.6l11.673-17.424c17.426 3.497 33.496 2.674 51.543-1.496zm78.85 2.91c-3.45.01-7.09 1.864-8.124 5.838-.363 1.263-.364 1.266-.376 12.514-.01 9.3-.088 11.54-.088 11.54h-3.18v3.716h10.35v-3.715h-3.434s-.048-11.567-.05-18.86c-.14-1.89.03-3.556.534-4.714 1.83-4.218 8.27-3.294 9.047.303.462 2.143.203 2.705.235 4.556h3.584s.095-3.255-.254-5.154c-.472-4.24-4.128-6.125-7.913-6.02-.11-.003-.22-.005-.332-.005zm-81.608 3.907l5.72 12.103h-10.835l-1.996-10.798zm-46.393.88l9.472 1.227-2.445 9.996H336.07zm30.925 1.49l1.3 9.733H357.74l1.814-9.54z"/></svg>