<?xml version="1.0" standalone="no"?>
<!DOCTYPE svg PUBLIC "-//W3C//DTD SVG 1.1//EN" "http://www.w3.org/Graphics/SVG/1.1/DTD/svg11.dtd">
<svg width="100%" height="100%" viewBox="0 0 512 512" version="1.1" xmlns="http://www.w3.org/2000/svg" xmlns:xlink="http://www.w3.org/1999/xlink" xml:space="preserve" style="fill-rule:evenodd;clip-rule:evenodd;stroke-linejoin:round;stroke-miterlimit:1.41421;">
    <g id="arrow-60-icon" transform="matrix(0.712635,0,0,0.601825,5.75961,-1.20421)">
        <path d="M298.932,327.465L298.932,396.819L462,234.028L298.932,71.24C298.932,71.24 298.932,103.169 298.932,140.595C57.409,169.973 -24.639,408.587 125.424,440.76C78,404.143 131,358.143 196,340.143C253.894,324.111 298.932,327.465 298.932,327.465Z" style="fill:white;fill-rule:nonzero;"/>
    </g>
    <g id="arrow-60-icon1" transform="matrix(-0.712633,0.0017266,-0.00145812,-0.60182,511.21,504.534)">
        <path d="M298.932,327.465L298.932,396.819L462,234.028L298.932,71.24C298.932,71.24 298.932,103.169 298.932,140.595C57.409,169.973 -24.639,408.587 125.424,440.76C78,404.143 131,358.143 196,340.143C253.894,324.111 298.932,327.465 298.932,327.465Z" style="fill:white;fill-rule:nonzero;"/>
    </g>
</svg>
